<?xml version="1.0" encoding="UTF-8" standalone="no"?>
<!DOCTYPE svg PUBLIC "-//W3C//DTD SVG 1.1//EN" "http://www.w3.org/Graphics/SVG/1.1/DTD/svg11.dtd">
<svg xmlns="http://www.w3.org/2000/svg">
<metadata>
Created by FontForge 20120702 at Fri Feb 01 14:52:09 2013

(URW)++,Copyright 2010 by (URW)++ Design &amp; Development
</metadata>
<defs>
<font id="HiltiSmall-HeavyExtended" horiz-adv-x="1667" vert-adv-y="2048">
  <font-face font-family="Hilti Small Heavy Extended" font-weight="400" font-variant="small-caps" font-stretch="normal" units-per-em="2048" panose-1="0 0 0 0 0 0 0 0 0 0" ascent="1536" descent="-512" x-height="1110" cap-height="1462" bbox="-410 -548 3112 2046" underline-thickness="102" underline-position="-154" unicode-range="U+0020-299D"/>
<missing-glyph horiz-adv-x="795" vert-adv-y="1433" d="M80 0v1462h635v-1462h-635zM635 80v1302h-475v-1302h475z"/>
    <glyph glyph-name=".notdef" horiz-adv-x="795" vert-adv-y="1433" d="M80 0v1462h635v-1462h-635zM635 80v1302h-475v-1302h475z"/>
    <glyph glyph-name="glyph1" horiz-adv-x="0" vert-adv-y="0"/>
    <glyph glyph-name="glyph2" horiz-adv-x="795" vert-adv-y="1433"/>
    <glyph glyph-name="space" unicode=" " horiz-adv-x="795" vert-adv-y="1433"/>
    <glyph glyph-name="exclam" unicode="!" horiz-adv-x="795" vert-adv-y="1433" d="M221 518l-59 944h471l-59 -944h-353zM168 0v406h459v-406h-459z"/>
    <glyph glyph-name="quotedbl" unicode="&quot;" horiz-adv-x="1366" vert-adv-y="1433" d="M772 655v807h303v-807h-303zM291 655v807h303v-807h-303z"/>
    <glyph glyph-name="numbersign" unicode="#" horiz-adv-x="1819" vert-adv-y="1433" d="M461 0l49 354h-168v238h201l35 237h-168v238h201l49 354h245l-49 -354h207l49 354h246l-49 -354h168v-238h-201l-35 -237h168v-238h-201l-49 -354h-245l49 354h-207l-49 -354h-246zM995 592l35 237h-206l-35 -237h206z"/>
    <glyph glyph-name="dollar" unicode="$" horiz-adv-x="1819" vert-adv-y="1433" d="M852 -215v182q-394 13 -567 111q-102 56 -151 138.5t-64 221.5h552q11 -81 60 -117t170 -51v291l-246 35q-272 38 -392 131t-120 265q0 444 733 458v182h115v-182q370 -26 535 -123q95 -56 141.5 -130.5t65.5 -199.5h-541q-13 136 -201 166v-264l363 -56 q231 -35 337.5 -129.5t106.5 -265.5q0 -470 -782 -481v-182h-115zM828 915v248q-229 -5 -229 -130q0 -77 92 -93zM967 541v-271q229 8 229 139q0 57 -40 84q-73 48 -185 48h-4z"/>
    <glyph glyph-name="percent" unicode="%" horiz-adv-x="2200" vert-adv-y="1433" d="M521 -33l931 1483h230l-932 -1483h-229zM522 1450q214 0 327.5 -101t113.5 -292q0 -393 -447 -393q-446 0 -446 392q0 394 452 394zM515 1253q-158 0 -158 -196q0 -197 160 -197q159 0 159 197q0 196 -161 196zM1689 754q441 0 441 -394q0 -393 -446 -393 q-447 0 -447 393q0 394 452 394zM1683 557q-159 0 -159 -196q0 -197 160 -197t160 197q0 196 -161 196z"/>
    <glyph glyph-name="ampersand" unicode="&amp;" horiz-adv-x="2009" vert-adv-y="1433" d="M2036 0h-586l-131 121q-258 -166 -592 -166q-360 0 -528 179q-111 119 -111 291q0 328 418 433q-146 128 -146 264q0 165 149 260t407 95q244 0 391 -83q155 -88 155 -258q0 -230 -323 -325l282 -258q105 82 236 262l231 -162q-107 -169 -248 -301zM1104 322l-387 352 q-158 -64 -158 -207q0 -98 80.5 -161.5t204.5 -63.5q147 0 260 80zM917 975q164 65 164 157q0 107 -137 107q-149 0 -149 -102q0 -60 122 -162z"/>
    <glyph glyph-name="quotesingle" unicode="'" horiz-adv-x="795" vert-adv-y="1433" d="M246 655v807h303v-807h-303z"/>
    <glyph glyph-name="parenleft" unicode="(" horiz-adv-x="985" vert-adv-y="1433" d="M854 -389h-299q-391 402 -391 925q0 524 391 926h299q-256 -425 -256 -926q0 -499 256 -925z"/>
    <glyph glyph-name="parenright" unicode=")" horiz-adv-x="985" vert-adv-y="1433" d="M430 -389h-299q256 426 256 925q0 500 -256 926h299q391 -402 391 -926q0 -523 -391 -925z"/>
    <glyph glyph-name="asterisk" unicode="*" horiz-adv-x="950" vert-adv-y="1433" d="M106 745l186 221l-274 88l80 230l262 -109l-8 287h246l-9 -287l263 109l79 -230l-274 -88l186 -221l-196 -147l-172 233l-172 -233z"/>
    <glyph glyph-name="plus" unicode="+" horiz-adv-x="1229" vert-adv-y="1433" d="M471 662v374h287v-374h374v-287h-374v-375h-287v375h-375v287h375z"/>
    <glyph glyph-name="comma" unicode="," horiz-adv-x="795" vert-adv-y="1433" d="M168 0v406h459v-260q-2 -505 -459 -547v168q179 40 203 233h-203z"/>
    <glyph glyph-name="hyphen" unicode="-" horiz-adv-x="985" vert-adv-y="1433" d="M125 436v316h735v-316h-735z"/>
    <glyph glyph-name="period" unicode="." horiz-adv-x="795" vert-adv-y="1433" d="M168 0v406h459v-406h-459z"/>
    <glyph glyph-name="slash" unicode="/" horiz-adv-x="909" vert-adv-y="1433" d="M-6 -45l590 1552h332l-590 -1552h-332z"/>
    <glyph glyph-name="zero" unicode="0" horiz-adv-x="1819" vert-adv-y="1433" d="M921 1450q427 0 643 -236q177 -193 177 -510q0 -349 -219 -545q-215 -192 -613 -192q-442 0 -659 238q-172 189 -172 501q0 361 217 552.5t626 191.5zM905 1135q-169 0 -262.5 -113t-93.5 -317t94 -313t268 -109q359 0 359 421q0 208 -94 319.5t-271 111.5z"/>
    <glyph glyph-name="one" unicode="1" horiz-adv-x="1251" vert-adv-y="1433" d="M538 0v852h-434v303h70q199 0 297 56t159 206h355v-1417h-447z"/>
    <glyph glyph-name="two" unicode="2" horiz-adv-x="1819" vert-adv-y="1433" d="M1695 315v-315h-1632q12 166 45 265t106 189q148 184 506 285l342 96q148 42 148 145q0 72 -73.5 113.5t-199.5 41.5q-289 0 -321 -232h-504q17 146 56.5 228.5t126.5 153.5q201 165 638 165q361 0 564 -115q216 -123 216 -361q0 -188 -144 -290.5t-520 -183.5 q-227 -48 -309 -81t-157 -104h1112z"/>
    <glyph glyph-name="three" unicode="3" horiz-adv-x="1819" vert-adv-y="1433" d="M655 606v287h299q225 0 225 129q0 141 -280 141q-128 0 -186 -28t-89 -105h-504q18 102 50 159t102 111q192 150 660 150q751 0 751 -394q0 -112 -66.5 -188.5t-177.5 -91.5v-4q142 -30 218.5 -117.5t76.5 -218.5q0 -469 -827 -469q-511 0 -697 187q-61 62 -88 131.5 t-38 193.5h487q27 -197 332 -197q315 0 315 171q0 153 -297 153h-266z"/>
    <glyph glyph-name="four" unicode="4" horiz-adv-x="1819" vert-adv-y="1433" d="M1053 0v238h-971v319l803 860h590v-876h262v-303h-262v-238h-422zM1053 541v561l-524 -561h524z"/>
    <glyph glyph-name="five" unicode="5" horiz-adv-x="1819" vert-adv-y="1433" d="M147 618l139 799h1344v-303h-1030l-39 -215q179 67 434 67q315 0 504 -107q219 -125 219 -374q0 -262 -236 -397q-211 -121 -595 -121q-478 0 -668 179q-62 59 -92 123.5t-49 179.5h503q46 -166 316 -166q334 0 334 199q0 97 -89.5 153.5t-243.5 56.5q-179 0 -286 -74 h-465z"/>
    <glyph glyph-name="six" unicode="6" horiz-adv-x="1819" vert-adv-y="1433" d="M569 817q177 109 443 109q708 0 708 -468q0 -251 -220 -377q-198 -114 -554 -114q-483 0 -684 221q-164 182 -164 520q0 742 841 742q315 0 514 -99q108 -54 163.5 -129t83.5 -204h-480q-48 129 -277 129q-182 0 -268 -75.5t-106 -254.5zM914 639q-300 0 -300 -184 q0 -88 82.5 -136.5t230.5 -48.5q306 0 306 180q0 189 -319 189z"/>
    <glyph glyph-name="seven" unicode="7" horiz-adv-x="1706" vert-adv-y="1433" d="M47 1114v303h1612v-389q-391 -338 -548.5 -546.5t-225.5 -481.5h-615q39 231 168.5 420t423.5 442l293 252h-1108z"/>
    <glyph glyph-name="eight" unicode="8" horiz-adv-x="1819" vert-adv-y="1433" d="M377 774q-246 74 -246 282q0 204 188.5 299t596.5 95q363 0 548 -79q224 -95 224 -315q0 -208 -246 -282v-4q295 -67 295 -335q0 -468 -834 -468q-821 0 -821 468q0 268 295 335v4zM910 1147q-158 0 -224.5 -32t-66.5 -108q0 -74 66 -103.5t230 -29.5q155 0 220 30.5 t65 102.5q0 75 -67 107.5t-223 32.5zM901 612q-315 0 -315 -170q0 -172 323 -172q324 0 324 173q0 169 -332 169z"/>
    <glyph glyph-name="nine" unicode="9" horiz-adv-x="1819" vert-adv-y="1433" d="M118 399h480q47 -129 277 -129q183 0 268 75.5t106 254.5q-177 -109 -441 -109q-710 0 -710 468q0 252 220 377q198 114 553 114q484 0 684 -221q165 -182 165 -519q0 -362 -213 -553q-210 -190 -627 -190q-317 0 -515 99q-108 54 -163.5 129t-83.5 204zM886 1147 q-301 0 -301 -181q0 -188 313 -188q306 0 306 184q0 88 -83.5 136.5t-234.5 48.5z"/>
    <glyph glyph-name="colon" unicode=":" horiz-adv-x="795" vert-adv-y="1433" d="M168 705v405h459v-405h-459zM168 0v406h459v-406h-459z"/>
    <glyph glyph-name="semicolon" unicode=";" horiz-adv-x="795" vert-adv-y="1433" d="M168 0v406h459v-260q-2 -505 -459 -547v168q179 40 203 233h-203zM168 705v405h459v-405h-459z"/>
    <glyph glyph-name="less" unicode="&lt;" horiz-adv-x="1229" vert-adv-y="1433" d="M96 393v250l1036 430v-276l-696 -279l696 -278v-277z"/>
    <glyph glyph-name="equal" unicode="=" horiz-adv-x="1229" vert-adv-y="1433" d="M96 604v287h1036v-287h-1036zM96 145v287h1036v-287h-1036z"/>
    <glyph glyph-name="greater" unicode="&gt;" horiz-adv-x="1229" vert-adv-y="1433" d="M96 -37v277l696 278l-696 279v276l1036 -430v-250z"/>
    <glyph glyph-name="question" unicode="?" horiz-adv-x="1630" vert-adv-y="1433" d="M1014 518h-447q3 115 34.5 172.5t115.5 100.5l223 114q119 62 119 151q0 71 -66.5 114t-175.5 43q-140 0 -207 -58t-80 -190h-481q22 155 63 240.5t126 152.5q176 141 564 141q297 0 479 -78q265 -115 265 -368q0 -126 -69 -205t-249 -158q-117 -51 -155.5 -82t-58.5 -90 zM561 0v406h459v-406h-459z"/>
    <glyph glyph-name="at" unicode="@" horiz-adv-x="1638" vert-adv-y="1433" d="M1087 1102h195l-82 -443l-1 -7q-1 -2 -5 -24q-3 -13 -4 -18q-6 -32 -6 -48q0 -44 33 -44q74 0 128 93.5t54 222.5q0 271 -216 395q-141 81 -330 81q-264 0 -424 -160q-161 -161 -161 -421q0 -251 154 -406q170 -171 461 -171q227 0 403 118h232q-246 -315 -656 -315 q-363 0 -600 238q-219 219 -219 536q0 320 224 542q237 236 587 236q297 0 513 -172q228 -181 228 -460q0 -229 -163 -393q-168 -169 -370 -169q-105 0 -122 92h-8q-85 -92 -219 -92q-141 0 -235.5 104.5t-94.5 261.5q0 184 111 322q122 150 314 150q161 0 263 -127z M837 926q-81 0 -142.5 -65.5t-61.5 -152.5q0 -76 43.5 -122.5t113.5 -46.5q91 0 152.5 62.5t61.5 154.5q0 76 -46 123t-121 47z"/>
    <glyph glyph-name="A" unicode="A" horiz-adv-x="1745" vert-adv-y="1433" d="M-57 0l635 1462h596l629 -1462h-523l-88 238h-639l-88 -238h-522zM1078 541l-203 553h-4l-203 -553h410z"/>
    <glyph glyph-name="B" unicode="B" horiz-adv-x="1933" vert-adv-y="1433" d="M147 0v1462h1210q198 0 307 -93.5t109 -262.5q0 -220 -180 -299v-4q254 -71 254 -365q0 -211 -137.5 -324.5t-393.5 -113.5h-1169zM634 1147v-248h485q150 0 150 125q0 123 -150 123h-485zM634 315h524q79 0 125.5 41t46.5 111q0 145 -172 145h-524v-297z"/>
    <glyph glyph-name="C" unicode="C" horiz-adv-x="1972" vert-adv-y="1433" d="M1377 563h540q-36 -171 -92 -268.5t-160 -174.5q-225 -165 -667 -165q-926 0 -926 776t929 776q349 0 548 -99q149 -73 229.5 -186t134.5 -323h-543q-83 281 -377 281q-405 0 -405 -452q0 -446 404 -446q317 0 385 281z"/>
    <glyph glyph-name="D" unicode="D" horiz-adv-x="1972" vert-adv-y="1433" d="M147 0v1462h1056q697 0 697 -731t-760 -731h-993zM634 1135v-807h408q354 0 354 407q0 400 -393 400h-369z"/>
    <glyph glyph-name="E" unicode="E" horiz-adv-x="1669" vert-adv-y="1433" d="M147 0v1462h1464v-315h-977v-264h916v-303h-916v-265h977v-315h-1464z"/>
    <glyph glyph-name="F" unicode="F" horiz-adv-x="1556" vert-adv-y="1433" d="M147 0v1462h1395v-327h-908v-252h844v-316h-844v-567h-487z"/>
    <glyph glyph-name="G" unicode="G" horiz-adv-x="2048" vert-adv-y="1433" d="M1123 526v303h786v-829h-227l-60 151q-191 -196 -643 -196q-907 0 -907 765q0 364 236 573q242 214 692 214q370 0 609 -120q132 -67 200 -158.5t100 -247.5h-551q-66 211 -343 211q-207 0 -323 -122t-116 -341q0 -217 116.5 -338t325.5 -121q320 0 404 256h-299z"/>
    <glyph glyph-name="H" unicode="H" horiz-adv-x="2009" vert-adv-y="1433" d="M1374 0v612h-740v-612h-487v1462h487v-522h740v522h487v-1462h-487z"/>
    <glyph glyph-name="I" unicode="I" horiz-adv-x="795" vert-adv-y="1433" d="M154 0v1462h487v-1462h-487z"/>
    <glyph glyph-name="J" unicode="J" horiz-adv-x="1518" vert-adv-y="1433" d="M1394 1462v-954q0 -283 -148 -414q-159 -139 -522 -139q-374 0 -540 134t-166 436v61h488q1 -187 41.5 -251t157.5 -64q112 0 157 59t45 207v925h487z"/>
    <glyph glyph-name="K" unicode="K" horiz-adv-x="1896" vert-adv-y="1433" d="M147 0v1462h487v-573l610 573h650l-662 -575l713 -887h-652l-452 584l-207 -172v-412h-487z"/>
    <glyph glyph-name="L" unicode="L" horiz-adv-x="1556" vert-adv-y="1433" d="M147 0v1462h487v-1122h891v-340h-1378z"/>
    <glyph glyph-name="M" unicode="M" horiz-adv-x="2392" vert-adv-y="1433" d="M147 0v1462h713l333 -964h4l334 964h713v-1462h-459v1093h-4l-385 -1093h-401l-385 1093h-4v-1093h-459z"/>
    <glyph glyph-name="N" unicode="N" horiz-adv-x="2009" vert-adv-y="1433" d="M147 0v1462h561l678 -915h4v915h471v-1462h-539l-700 924h-4v-924h-471z"/>
    <glyph glyph-name="O" unicode="O" horiz-adv-x="2048" vert-adv-y="1433" d="M1036 1507q941 0 941 -776t-953 -776q-952 0 -952 768q0 464 324 650q235 134 640 134zM1020 1180q-205 0 -318.5 -117.5t-113.5 -330.5q0 -216 113.5 -332.5t323.5 -116.5t323 116t113 333q0 216 -114 332t-327 116z"/>
    <glyph glyph-name="P" unicode="P" horiz-adv-x="1821" vert-adv-y="1433" d="M147 0v1462h1081q291 0 428 -151q111 -123 111 -334q0 -234 -135 -362t-382 -128h-616v-487h-487zM634 1159v-368h434q195 0 195 184t-195 184h-434z"/>
    <glyph glyph-name="Q" unicode="Q" horiz-adv-x="2048" vert-adv-y="1433" d="M1747 -262l-301 264q-201 -47 -426 -47q-948 0 -948 776t953 776q952 0 952 -784q0 -356 -224 -561l209 -187zM1121 289l-101 88l213 239l166 -145q62 104 62 260q0 215 -113.5 332t-322.5 117t-323 -117t-114 -332q0 -217 113.5 -332.5t327.5 -115.5q41 0 92 6z"/>
    <glyph glyph-name="R" unicode="R" horiz-adv-x="1896" vert-adv-y="1433" d="M147 0v1462h1171q490 0 490 -405q0 -268 -234 -337v-4q98 -36 134 -106.5t50 -250.5q12 -167 29 -238t55 -121h-534q-29 75 -29 192v25q0 149 -44.5 209.5t-154.5 60.5h-446v-487h-487zM634 1135v-320h469q182 0 182 161q0 159 -182 159h-469z"/>
    <glyph glyph-name="S" unicode="S" horiz-adv-x="1821" vert-adv-y="1433" d="M1712 1034h-553q-33 170 -313 170q-258 0 -258 -140q0 -52 37 -70.5t185 -41.5q45 -6 156 -24q123 -19 208 -32q281 -42 387 -92q212 -100 212 -346q0 -256 -222 -384q-208 -119 -646 -119q-416 0 -624 111q-110 59 -162.5 145.5t-71.5 239.5h578q13 -99 85 -139.5 t234 -40.5q264 0 264 151q0 57 -48.5 85t-182.5 48l-488 74q-417 63 -417 409q0 469 781 469q403 0 623 -116q109 -57 162 -137.5t74 -219.5z"/>
    <glyph glyph-name="T" unicode="T" horiz-adv-x="1556" vert-adv-y="1433" d="M-2 1135v327h1561v-327h-537v-1135h-487v1135h-537z"/>
    <glyph glyph-name="U" unicode="U" horiz-adv-x="1896" vert-adv-y="1433" d="M1769 1462v-946q0 -561 -821 -561t-821 561v946h487v-866q0 -168 77.5 -241t256.5 -73t256.5 73t77.5 241v866h487z"/>
    <glyph glyph-name="V" unicode="V" vert-adv-y="1433" d="M575 0l-651 1462h535l372 -1042h4l373 1042h535l-652 -1462h-516z"/>
    <glyph glyph-name="W" unicode="W" horiz-adv-x="2351" vert-adv-y="1433" d="M438 0l-438 1462h471l229 -987h5l264 987h413l265 -987h4l229 987h471l-438 -1462h-481l-254 952h-4l-254 -952h-482z"/>
    <glyph glyph-name="X" unicode="X" horiz-adv-x="1745" vert-adv-y="1433" d="M-43 0l635 760l-567 702h579l268 -393l269 393h579l-567 -702l635 -760h-604l-312 442l-311 -442h-604z"/>
    <glyph glyph-name="Y" unicode="Y" vert-adv-y="1433" d="M590 0v461l-649 1001h565l328 -620l328 620h565l-649 -1001v-461h-488z"/>
    <glyph glyph-name="Z" unicode="Z" vert-adv-y="1433" d="M37 0v281l922 854h-859v327h1512v-286l-916 -848h902v-328h-1561z"/>
    <glyph glyph-name="bracketleft" unicode="[" horiz-adv-x="985" vert-adv-y="1433" d="M147 -389v1851h786v-315h-352v-1221h352v-315h-786z"/>
    <glyph glyph-name="backslash" unicode="\" horiz-adv-x="909" vert-adv-y="1433" d="M590 -45l-590 1552h319l590 -1552h-319z"/>
    <glyph glyph-name="bracketright" unicode="]" horiz-adv-x="985" vert-adv-y="1433" d="M51 -389v315h352v1221h-352v315h786v-1851h-786z"/>
    <glyph glyph-name="asciicircum" unicode="^" horiz-adv-x="1229" vert-adv-y="1433" d="M96 670l358 747h320l358 -747h-293l-225 485l-225 -485h-293z"/>
    <glyph glyph-name="underscore" unicode="_" horiz-adv-x="1024" vert-adv-y="1433" d="M0 -256v102h1024v-102h-1024z"/>
    <glyph glyph-name="grave" unicode="`" horiz-adv-x="1024" vert-adv-y="1433" d="M360 1237l-305 287h528l187 -287h-410z"/>
    <glyph glyph-name="a" unicode="a" vert-adv-y="1433" d="M565 762h-434q18 99 47.5 154t90.5 103q155 120 560 120q329 0 492 -68q211 -89 211 -309v-561q0 -118 45 -201h-434q-19 44 -23 102q-168 -147 -508 -147q-557 0 -557 354q0 169 114.5 253.5t365.5 101.5l432 28q74 5 102.5 23.5t28.5 62.5q0 124 -272 124 q-224 0 -261 -140zM1110 518q-62 -18 -166 -30l-293 -35q-125 -15 -125 -110q0 -138 210 -138q172 0 273 66.5t101 179.5v67z"/>
    <glyph glyph-name="b" unicode="b" vert-adv-y="1433" d="M115 0v1495h434v-526h4q131 170 416 170q304 0 483 -180q160 -161 160 -408q0 -280 -181 -442q-173 -154 -459 -154q-277 0 -431 176h-4v-131h-422zM856 836q-145 0 -226 -74.5t-81 -208.5q0 -135 81 -209t229 -74q306 0 306 283t-309 283z"/>
    <glyph glyph-name="c" unicode="c" vert-adv-y="1433" d="M1153 453h459q-34 -140 -81.5 -219t-135.5 -143q-188 -136 -549 -136q-329 0 -522 112q-258 149 -258 484q0 336 264 489q196 115 523 115q414 0 598 -176q63 -60 92.5 -123.5t48.5 -177.5h-447q-41 190 -289 190q-159 0 -245 -81.5t-86 -232.5q0 -149 85.5 -230.5 t242.5 -81.5q248 0 300 211z"/>
    <glyph glyph-name="d" unicode="d" vert-adv-y="1433" d="M1130 0v131h-4q-154 -176 -431 -176q-322 0 -498 192q-142 156 -142 404q0 247 159 408q180 180 484 180q285 0 416 -170h4v526h434v-1495h-422zM804 836q-302 0 -302 -283t306 -283q147 0 228.5 74t81.5 209t-82 209t-232 74z"/>
    <glyph glyph-name="e" unicode="e" vert-adv-y="1433" d="M1123 330h459q-133 -375 -743 -375q-446 0 -637 206q-136 147 -136 383q0 344 270 499q195 112 498 112q419 0 614 -212q154 -167 154 -457v-33h-1090q50 -248 343 -248q166 0 268 125zM512 678h644q-56 227 -322 227q-267 0 -322 -227z"/>
    <glyph glyph-name="f" unicode="f" horiz-adv-x="948" vert-adv-y="1433" d="M0 823v287h227v94q0 163 79 232q100 88 380 88q121 0 262 -16v-246h-194q-57 0 -74.5 -16t-17.5 -68v-68h286v-287h-286v-823h-435v823h-227z"/>
    <glyph glyph-name="g" unicode="g" horiz-adv-x="1706" vert-adv-y="1433" d="M1169 969v141h422v-1010q0 -255 -142 -379q-168 -147 -619 -147q-365 0 -531.5 85.5t-208.5 295.5h479q35 -131 269 -131q173 0 246 66.5t73 222.5v77q-154 -141 -453 -141q-352 0 -521 183q-128 139 -128 358q0 243 168 392q177 157 488 157q314 0 454 -170h4zM831 852 q-146 0 -231.5 -71t-85.5 -193q0 -125 85.5 -194.5t237.5 -69.5q320 0 320 259q0 129 -85 199t-241 70z"/>
    <glyph glyph-name="h" unicode="h" horiz-adv-x="1593" vert-adv-y="1433" d="M115 0v1499h434v-549h4q146 189 453 189q224 0 348.5 -107.5t124.5 -300.5v-731h-434v600q0 211 -225 211q-128 0 -199.5 -70.5t-71.5 -195.5v-545h-434z"/>
    <glyph glyph-name="i" unicode="i" horiz-adv-x="680" vert-adv-y="1433" d="M123 0v1110h434v-1110h-434zM123 1237v262h434v-262h-434z"/>
    <glyph glyph-name="j" unicode="j" horiz-adv-x="721" vert-adv-y="1433" d="M-55 -395v297h51q112 0 140 23.5t28 119.5v1065h434v-1096q0 -249 -94 -334q-90 -81 -326 -81q-66 0 -192 4l-21 1zM164 1237v262h434v-262h-434z"/>
    <glyph glyph-name="k" unicode="k" horiz-adv-x="1593" vert-adv-y="1433" d="M115 0v1499h434v-776l434 387h588l-512 -412l561 -698h-590l-315 420l-166 -133v-287h-434z"/>
    <glyph glyph-name="l" unicode="l" horiz-adv-x="680" vert-adv-y="1433" d="M123 0v1499h434v-1499h-434z"/>
    <glyph glyph-name="m" unicode="m" horiz-adv-x="2392" vert-adv-y="1433" d="M115 0v1110h422v-162h4q199 191 448 191q256 0 391 -191q110 105 215 148t249 43q165 0 271 -62q163 -95 163 -315v-762h-434v647q0 164 -190 164q-112 0 -176.5 -51t-64.5 -139v-621h-434v647q0 164 -190 164q-111 0 -175.5 -51t-64.5 -139v-621h-434z"/>
    <glyph glyph-name="n" unicode="n" horiz-adv-x="1593" vert-adv-y="1433" d="M115 0v1110h422v-160h4q165 189 465 189q224 0 348.5 -107.5t124.5 -300.5v-731h-434v600q0 211 -225 211q-128 0 -199.5 -70.5t-71.5 -195.5v-545h-434z"/>
    <glyph glyph-name="o" unicode="o" vert-adv-y="1433" d="M843 1155q371 0 569.5 -155t198.5 -445q0 -272 -175 -425q-198 -175 -603 -175q-446 0 -642 211q-136 148 -136 389q0 272 174 426q199 174 614 174zM829 868q-150 0 -232.5 -82t-82.5 -231q0 -151 83 -232t237 -81q153 0 236 81.5t83 231.5q0 313 -324 313z"/>
    <glyph glyph-name="p" unicode="p" vert-adv-y="1433" d="M115 -401v1511h422v-147h4q154 176 430 176q323 0 499 -192q142 -156 142 -404q0 -247 -160 -408q-179 -180 -482 -180q-274 0 -417 146h-4v-502h-434zM856 836q-145 0 -226 -74.5t-81 -207.5q0 -135 81 -209t229 -74q306 0 306 283q0 282 -309 282z"/>
    <glyph glyph-name="q" unicode="q" vert-adv-y="1433" d="M1118 -401v502h-4q-144 -146 -427 -146q-301 0 -473 172q-159 158 -159 411q0 257 162 419q182 182 489 182q265 0 420 -176h4v147h422v-1511h-434zM804 836q-302 0 -302 -282q0 -283 306 -283q147 0 228.5 74t81.5 209t-82 208.5t-232 73.5z"/>
    <glyph glyph-name="r" unicode="r" horiz-adv-x="1176" vert-adv-y="1433" d="M123 0v1110h428v-219h4q158 248 455 248q73 0 145 -13v-405q-111 37 -242 37q-356 0 -356 -328v-430h-434z"/>
    <glyph glyph-name="s" unicode="s" horiz-adv-x="1554" vert-adv-y="1433" d="M55 346h504q11 -69 69 -99t182 -30q201 0 201 100q0 39 -31.5 57.5t-117.5 28.5l-387 47q-200 25 -291.5 100t-91.5 214q0 202 164 296.5t513 94.5q332 0 497 -88.5t192 -280.5h-488q-16 119 -234 119q-198 0 -198 -101q0 -66 140 -81l374 -41q235 -26 341 -106t106 -232 q0 -389 -707 -389q-367 0 -558 105q-88 49 -128.5 114t-50.5 172z"/>
    <glyph glyph-name="t" unicode="t" horiz-adv-x="1024" vert-adv-y="1433" d="M0 823v287h227v352h435v-352h286v-287h-286v-446q0 -71 24 -93t102 -22q69 0 168 4v-270q-151 -21 -325 -21q-226 0 -315 68.5t-89 241.5v538h-227z"/>
    <glyph glyph-name="u" unicode="u" horiz-adv-x="1593" vert-adv-y="1433" d="M1053 143q-164 -188 -468 -188q-470 0 -470 448v707h434v-573q0 -254 224 -254q128 0 200 70t72 196v561h434v-1110h-422v143h-4z"/>
    <glyph glyph-name="v" unicode="v" horiz-adv-x="1479" vert-adv-y="1433" d="M492 0l-512 1110h494l266 -731l266 731h494l-512 -1110h-496z"/>
    <glyph glyph-name="w" unicode="w" horiz-adv-x="2314" vert-adv-y="1433" d="M405 0l-401 1110h471l229 -729h5l251 729h394l252 -729h4l229 729h471l-401 -1110h-516l-234 653h-4l-233 -653h-517z"/>
    <glyph glyph-name="x" unicode="x" horiz-adv-x="1593" vert-adv-y="1433" d="M-12 0l512 575l-469 535h539l227 -322l227 322h539l-467 -535l510 -575h-559l-250 342l-250 -342h-559z"/>
    <glyph glyph-name="y" unicode="y" horiz-adv-x="1403" vert-adv-y="1433" d="M131 -389v274h104q159 0 199 80l49 98l-522 1047h471l281 -660l270 660h459l-590 -1250q-74 -155 -158.5 -208t-259.5 -53q-143 0 -303 12z"/>
    <glyph glyph-name="z" unicode="z" horiz-adv-x="1366" vert-adv-y="1433" d="M45 0v262l668 541v4h-633v303h1220v-262l-647 -545h668v-303h-1276z"/>
    <glyph glyph-name="braceleft" unicode="{" horiz-adv-x="985" vert-adv-y="1433" d="M57 399v275q193 3 193 121v385q0 282 307 282h358v-262h-112q-119 0 -119 -127v-346q0 -170 -221 -189v-4q221 -19 221 -206v-328q0 -127 119 -127h112v-262h-358q-307 0 -307 283v366q0 133 -193 139z"/>
    <glyph glyph-name="bar" unicode="|" horiz-adv-x="455" vert-adv-y="1433" d="M76 -45v1552h303v-1552h-303z"/>
    <glyph glyph-name="braceright" unicode="}" horiz-adv-x="985" vert-adv-y="1433" d="M928 674v-275q-192 -4 -192 -120v-385q0 -283 -308 -283h-358v262h112q119 0 119 127v346q0 169 222 188v4q-222 19 -222 207v328q0 127 -119 127h-112v262h358q308 0 308 -282v-367q0 -135 192 -139z"/>
    <glyph glyph-name="asciitilde" unicode="~" horiz-adv-x="1229" vert-adv-y="1433" d="M215 297l-74 258q96 176 254 176q92 0 256 -78q128 -61 183 -61q83 0 179 147l74 -258q-73 -102 -127 -139t-130 -37q-84 0 -208 67q-131 72 -230 72q-108 0 -177 -147z"/>
    <glyph glyph-name="Adieresis" unicode="Ä" horiz-adv-x="1745" vert-adv-y="1433" d="M-57 0l635 1462h596l629 -1462h-523l-88 238h-639l-88 -238h-522zM1078 541l-203 553h-4l-203 -553h410zM342 1540v262h435v-262h-435zM969 1540v262h434v-262h-434z"/>
    <glyph glyph-name="Aring" unicode="Å" horiz-adv-x="1745" vert-adv-y="1433" d="M-57 0l635 1462h596l629 -1462h-523l-88 238h-639l-88 -238h-522zM1078 541l-203 553h-4l-203 -553h410zM875 2046q110 0 189 -79t79 -192q0 -112 -79 -191t-192 -79q-112 0 -191 79t-79 191t79 192q79 79 194 79zM871 1894q-48 0 -82.5 -35t-34.5 -83q0 -50 34.5 -84.5 t83.5 -34.5t84 35t35 83q0 50 -35 84.5t-85 34.5z"/>
    <glyph glyph-name="Ccedilla" unicode="Ç" horiz-adv-x="1972" vert-adv-y="1433" d="M901 -43q-829 34 -829 773q0 777 929 777q349 0 548 -99q149 -73 229.5 -186t134.5 -323h-543q-83 281 -377 281q-405 0 -405 -452q0 -446 404 -446q317 0 385 281h540q-42 -198 -122.5 -313.5t-225.5 -187.5q-188 -93 -528 -107l-44 -74q48 4 88 4q88 0 145.5 -46 t57.5 -118q0 -178 -296 -178q-148 0 -290 39l37 105q101 -29 164 -29q98 0 98 63q0 51 -81 51q-31 0 -73 -14l-51 41z"/>
    <glyph glyph-name="Eacute" unicode="É" horiz-adv-x="1669" vert-adv-y="1433" d="M147 0v1462h1464v-315h-977v-264h916v-303h-916v-265h977v-315h-1464zM608 1559l186 286h529l-305 -286h-410z"/>
    <glyph glyph-name="Ntilde" unicode="Ñ" horiz-adv-x="2009" vert-adv-y="1433" d="M147 0v1462h561l678 -915h4v915h471v-1462h-539l-700 924h-4v-924h-471zM652 1551h-197q27 99 55 147q90 150 276 150q60 0 146 -18l285 -60l17 -4q28 -7 41 -7q57 0 87 73h191q-48 -304 -294 -304q-53 0 -102 9t-288 63l-20 5q-88 20 -106 20q-69 0 -91 -74z"/>
    <glyph glyph-name="Odieresis" unicode="Ö" horiz-adv-x="2048" vert-adv-y="1433" d="M1036 1507q941 0 941 -776t-953 -776q-952 0 -952 768q0 464 324 650q235 134 640 134zM1020 1180q-205 0 -318.5 -117.5t-113.5 -330.5q0 -216 113.5 -332.5t323.5 -116.5t323 116t113 333q0 216 -114 332t-327 116zM494 1567v262h435v-262h-435zM1121 1567v262h434 v-262h-434z"/>
    <glyph glyph-name="Udieresis" unicode="Ü" horiz-adv-x="1896" vert-adv-y="1433" d="M1769 1462v-946q0 -561 -821 -561t-821 561v946h487v-866q0 -168 77.5 -241t256.5 -73t256.5 73t77.5 241v866h487zM418 1564v262h435v-262h-435zM1045 1564v262h434v-262h-434z"/>
    <glyph glyph-name="aacute" unicode="á" vert-adv-y="1433" d="M565 762h-434q18 99 47.5 154t90.5 103q155 120 560 120q329 0 492 -68q211 -89 211 -309v-561q0 -118 45 -201h-434q-19 44 -23 102q-168 -147 -508 -147q-557 0 -557 354q0 169 114.5 253.5t365.5 101.5l432 28q74 5 102.5 23.5t28.5 62.5q0 124 -272 124 q-224 0 -261 -140zM1110 518q-62 -18 -166 -30l-293 -35q-125 -15 -125 -110q0 -138 210 -138q172 0 273 66.5t101 179.5v67zM578 1237l186 287h529l-305 -287h-410z"/>
    <glyph glyph-name="agrave" unicode="à" vert-adv-y="1433" d="M565 762h-434q18 99 47.5 154t90.5 103q155 120 560 120q329 0 492 -68q211 -89 211 -309v-561q0 -118 45 -201h-434q-19 44 -23 102q-168 -147 -508 -147q-557 0 -557 354q0 169 114.5 253.5t365.5 101.5l432 28q74 5 102.5 23.5t28.5 62.5q0 124 -272 124 q-224 0 -261 -140zM1110 518q-62 -18 -166 -30l-293 -35q-125 -15 -125 -110q0 -138 210 -138q172 0 273 66.5t101 179.5v67zM656 1237l-305 287h528l187 -287h-410z"/>
    <glyph glyph-name="acircumflex" unicode="â" vert-adv-y="1433" d="M565 762h-434q18 99 47.5 154t90.5 103q155 120 560 120q329 0 492 -68q211 -89 211 -309v-561q0 -118 45 -201h-434q-19 44 -23 102q-168 -147 -508 -147q-557 0 -557 354q0 169 114.5 253.5t365.5 101.5l432 28q74 5 102.5 23.5t28.5 62.5q0 124 -272 124 q-224 0 -261 -140zM1110 518q-62 -18 -166 -30l-293 -35q-125 -15 -125 -110q0 -138 210 -138q172 0 273 66.5t101 179.5v67zM223 1237l305 287h606l306 -287h-480l-145 158l-146 -158h-446z"/>
    <glyph glyph-name="adieresis" unicode="ä" vert-adv-y="1433" d="M565 762h-434q18 99 47.5 154t90.5 103q155 120 560 120q329 0 492 -68q211 -89 211 -309v-561q0 -118 45 -201h-434q-19 44 -23 102q-168 -147 -508 -147q-557 0 -557 354q0 169 114.5 253.5t365.5 101.5l432 28q74 5 102.5 23.5t28.5 62.5q0 124 -272 124 q-224 0 -261 -140zM1110 518q-62 -18 -166 -30l-293 -35q-125 -15 -125 -110q0 -138 210 -138q172 0 273 66.5t101 179.5v67zM297 1219v262h434v-262h-434zM924 1219v262h434v-262h-434z"/>
    <glyph glyph-name="atilde" unicode="ã" vert-adv-y="1433" d="M565 762h-434q18 99 47.5 154t90.5 103q155 120 560 120q329 0 492 -68q211 -89 211 -309v-561q0 -118 45 -201h-434q-19 44 -23 102q-168 -147 -508 -147q-557 0 -557 354q0 169 114.5 253.5t365.5 101.5l432 28q74 5 102.5 23.5t28.5 62.5q0 124 -272 124 q-224 0 -261 -140zM1110 518q-62 -18 -166 -30l-293 -35q-125 -15 -125 -110q0 -138 210 -138q172 0 273 66.5t101 179.5v67zM476 1227h-197q27 99 56 147q89 150 275 150q55 0 146 -19l285 -59q3 -1 17 -4q27 -7 41 -7q58 0 87 72h191q-48 -303 -294 -303q-53 0 -102 9 t-288 63l-20 5q-88 20 -106 20q-68 0 -91 -74z"/>
    <glyph glyph-name="aring" unicode="å" vert-adv-y="1433" d="M565 762h-434q18 99 47.5 154t90.5 103q155 120 560 120q329 0 492 -68q211 -89 211 -309v-561q0 -118 45 -201h-434q-19 44 -23 102q-168 -147 -508 -147q-557 0 -557 354q0 169 114.5 253.5t365.5 101.5l432 28q74 5 102.5 23.5t28.5 62.5q0 124 -272 124 q-224 0 -261 -140zM1110 518q-62 -18 -166 -30l-293 -35q-125 -15 -125 -110q0 -138 210 -138q172 0 273 66.5t101 179.5v67zM861 1745q110 0 189 -79q79 -80 79 -192t-79 -191t-192 -79q-112 0 -191 79t-79 191t79 192q79 79 194 79zM858 1593q-49 0 -83.5 -35t-34.5 -83 q0 -50 34.5 -84.5t84.5 -34.5q49 0 83.5 35t34.5 83q0 50 -35 84.5t-84 34.5z"/>
    <glyph glyph-name="ccedilla" unicode="ç" vert-adv-y="1433" d="M746 -42q-228 19 -353 74q-327 143 -327 519q0 336 264 490q196 114 522 114q415 0 599 -176q63 -60 92.5 -123.5t48.5 -177.5h-447q-41 190 -289 190q-159 0 -245 -81.5t-86 -232.5q0 -149 85.5 -230.5t242.5 -81.5q248 0 300 211h459q-63 -289 -300 -411 q-167 -81 -424 -86l-47 -74q43 4 79 4q96 0 154 -45t58 -119q0 -178 -295 -178q-146 0 -291 39l37 104q104 -28 164 -28q98 0 98 63q0 51 -80 51q-33 0 -73 -14l-51 41z"/>
    <glyph glyph-name="eacute" unicode="é" vert-adv-y="1433" d="M1123 330h459q-133 -375 -743 -375q-446 0 -637 206q-136 147 -136 383q0 344 270 499q195 112 498 112q419 0 614 -212q154 -167 154 -457v-33h-1090q50 -248 343 -248q166 0 268 125zM512 678h644q-56 227 -322 227q-267 0 -322 -227zM587 1237l186 287h529l-305 -287 h-410z"/>
    <glyph glyph-name="egrave" unicode="è" vert-adv-y="1433" d="M1123 330h459q-133 -375 -743 -375q-446 0 -637 206q-136 147 -136 383q0 344 270 499q195 112 498 112q419 0 614 -212q154 -167 154 -457v-33h-1090q50 -248 343 -248q166 0 268 125zM512 678h644q-56 227 -322 227q-267 0 -322 -227zM662 1237l-305 287h528l187 -287 h-410z"/>
    <glyph glyph-name="ecircumflex" unicode="ê" vert-adv-y="1433" d="M1123 330h459q-133 -375 -743 -375q-446 0 -637 206q-136 147 -136 383q0 344 270 499q195 112 498 112q419 0 614 -212q154 -167 154 -457v-33h-1090q50 -248 343 -248q166 0 268 125zM512 678h644q-56 227 -322 227q-267 0 -322 -227zM226 1237l305 287h606l306 -287 h-480l-145 158l-146 -158h-446z"/>
    <glyph glyph-name="edieresis" unicode="ë" vert-adv-y="1433" d="M1123 330h459q-133 -375 -743 -375q-446 0 -637 206q-136 147 -136 383q0 344 270 499q195 112 498 112q419 0 614 -212q154 -167 154 -457v-33h-1090q50 -248 343 -248q166 0 268 125zM512 678h644q-56 227 -322 227q-267 0 -322 -227zM304 1219v262h434v-262h-434z M931 1219v262h434v-262h-434z"/>
    <glyph glyph-name="iacute" unicode="í" horiz-adv-x="680" vert-adv-y="1433" d="M123 0v1110h434v-1110h-434zM87 1237l186 287h529l-305 -287h-410z"/>
    <glyph glyph-name="igrave" unicode="ì" horiz-adv-x="680" vert-adv-y="1433" d="M122 0v1110h434v-1110h-434zM177 1237l-305 287h528l187 -287h-410z"/>
    <glyph glyph-name="icircumflex" unicode="î" horiz-adv-x="680" vert-adv-y="1433" d="M123 0v1110h434v-1110h-434zM-268 1237l305 287h606l306 -287h-480l-145 158l-146 -158h-446z"/>
    <glyph glyph-name="idieresis" unicode="ï" horiz-adv-x="680" vert-adv-y="1433" d="M123 0v1110h434v-1110h-434zM-190 1219v262h434v-262h-434zM437 1219v262h434v-262h-434z"/>
    <glyph glyph-name="ntilde" unicode="ñ" horiz-adv-x="1593" vert-adv-y="1433" d="M115 0v1110h422v-160h4q165 189 465 189q224 0 348.5 -107.5t124.5 -300.5v-731h-434v600q0 211 -225 211q-128 0 -199.5 -70.5t-71.5 -195.5v-545h-434zM445 1227h-197q27 99 56 147q89 150 275 150q55 0 146 -19l285 -59q3 -1 17 -4q27 -7 41 -7q58 0 87 72h191 q-48 -303 -294 -303q-53 0 -102 9t-288 63l-20 5q-88 20 -106 20q-68 0 -91 -74z"/>
    <glyph glyph-name="oacute" unicode="ó" vert-adv-y="1433" d="M843 1155q371 0 569.5 -155t198.5 -445q0 -272 -175 -425q-198 -175 -603 -175q-446 0 -642 211q-136 148 -136 389q0 272 174 426q199 174 614 174zM829 868q-150 0 -232.5 -82t-82.5 -231q0 -151 83 -232t237 -81q153 0 236 81.5t83 231.5q0 313 -324 313zM589 1237 l186 287h529l-305 -287h-410z"/>
    <glyph glyph-name="ograve" unicode="ò" vert-adv-y="1433" d="M843 1155q371 0 569.5 -155t198.5 -445q0 -272 -175 -425q-198 -175 -603 -175q-446 0 -642 211q-136 148 -136 389q0 272 174 426q199 174 614 174zM829 868q-150 0 -232.5 -82t-82.5 -231q0 -151 83 -232t237 -81q153 0 236 81.5t83 231.5q0 313 -324 313zM668 1237 l-305 287h528l187 -287h-410z"/>
    <glyph glyph-name="ocircumflex" unicode="ô" vert-adv-y="1433" d="M843 1155q371 0 569.5 -155t198.5 -445q0 -272 -175 -425q-198 -175 -603 -175q-446 0 -642 211q-136 148 -136 389q0 272 174 426q199 174 614 174zM829 868q-150 0 -232.5 -82t-82.5 -231q0 -151 83 -232t237 -81q153 0 236 81.5t83 231.5q0 313 -324 313zM225 1237 l305 287h606l306 -287h-480l-145 158l-146 -158h-446z"/>
    <glyph glyph-name="odieresis" unicode="ö" vert-adv-y="1433" d="M843 1155q371 0 569.5 -155t198.5 -445q0 -272 -175 -425q-198 -175 -603 -175q-446 0 -642 211q-136 148 -136 389q0 272 174 426q199 174 614 174zM829 868q-150 0 -232.5 -82t-82.5 -231q0 -151 83 -232t237 -81q153 0 236 81.5t83 231.5q0 313 -324 313zM303 1219 v262h434v-262h-434zM930 1219v262h434v-262h-434z"/>
    <glyph glyph-name="otilde" unicode="õ" vert-adv-y="1433" d="M843 1155q371 0 569.5 -155t198.5 -445q0 -272 -175 -425q-198 -175 -603 -175q-446 0 -642 211q-136 148 -136 389q0 272 174 426q199 174 614 174zM829 868q-150 0 -232.5 -82t-82.5 -231q0 -151 83 -232t237 -81q153 0 236 81.5t83 231.5q0 313 -324 313zM481 1230 h-197q27 99 56 147q89 150 275 150q55 0 146 -19l285 -59q3 -1 17 -4q27 -7 41 -7q58 0 87 72h191q-48 -303 -294 -303q-53 0 -102 9t-288 63l-20 5q-88 20 -106 20q-68 0 -91 -74z"/>
    <glyph glyph-name="uacute" unicode="ú" horiz-adv-x="1593" vert-adv-y="1433" d="M1053 143q-164 -188 -468 -188q-470 0 -470 448v707h434v-573q0 -254 224 -254q128 0 200 70t72 196v561h434v-1110h-422v143h-4zM559 1237l186 287h529l-305 -287h-410z"/>
    <glyph glyph-name="ugrave" unicode="ù" horiz-adv-x="1593" vert-adv-y="1433" d="M1053 143q-164 -188 -468 -188q-470 0 -470 448v707h434v-573q0 -254 224 -254q128 0 200 70t72 196v561h434v-1110h-422v143h-4zM625 1237l-305 287h528l187 -287h-410z"/>
    <glyph glyph-name="ucircumflex" unicode="û" horiz-adv-x="1593" vert-adv-y="1433" d="M1053 143q-164 -188 -468 -188q-470 0 -470 448v707h434v-573q0 -254 224 -254q128 0 200 70t72 196v561h434v-1110h-422v143h-4zM189 1237l305 287h606l306 -287h-480l-145 158l-146 -158h-446z"/>
    <glyph glyph-name="udieresis" unicode="ü" horiz-adv-x="1593" vert-adv-y="1433" d="M1053 143q-164 -188 -468 -188q-470 0 -470 448v707h434v-573q0 -254 224 -254q128 0 200 70t72 196v561h434v-1110h-422v143h-4zM267 1219v262h434v-262h-434zM894 1219v262h434v-262h-434z"/>
    <glyph glyph-name="glyph130" horiz-adv-x="795" vert-adv-y="1433"/>
    <glyph glyph-name="degree" unicode="°" horiz-adv-x="819" vert-adv-y="1433" d="M412 1450q133 0 229 -96t96 -232q0 -135 -96 -231t-232 -96q-135 0 -231 96t-96 231t96 232q96 96 234 96zM408 1298q-71 0 -122.5 -52t-51.5 -123q0 -73 51.5 -124.5t124.5 -51.5q71 0 123 52t52 123q0 73 -52 124.5t-125 51.5z"/>
    <glyph glyph-name="cent" unicode="¢" horiz-adv-x="1819" vert-adv-y="1433" d="M881 -262v221q-130 7 -203 19t-148 37q-370 128 -370 540q0 338 248 484q91 54 195.5 79.5t277.5 34.5v187h115v-187q638 -18 690 -475h-446q-30 170 -244 189v-621q215 19 252 207h459q-28 -133 -64 -200q-95 -175 -315 -246q-114 -37 -332 -48v-221h-115zM881 246v620 q-75 -13 -119.5 -36.5t-79.5 -68.5q-63 -79 -63 -207q0 -141 78 -222q35 -37 75 -55.5t109 -30.5z"/>
    <glyph glyph-name="sterling" unicode="£" horiz-adv-x="1819" vert-adv-y="1433" d="M152 616v213h116q-48 107 -48 196q0 204 192 314q194 111 537 111q431 0 600 -182q61 -65 86.5 -140.5t31.5 -207.5h-504q-2 112 -54.5 163.5t-165.5 51.5q-99 0 -159.5 -43.5t-60.5 -115.5q0 -46 28 -132l4 -15h324v-213h-309q-16 -170 -174 -276l4 -4q103 51 228 51 q66 0 201 -25q142 -26 216 -26q180 0 335 122l132 -337q-217 -154 -469 -154q-107 0 -347 49q-208 43 -287 43q-135 0 -308 -92l-178 305q102 61 145.5 119.5t43.5 136.5q0 56 -5 88h-155z"/>
    <glyph glyph-name="section" unicode="§" horiz-adv-x="1819" vert-adv-y="1433" d="M625 49q18 -82 69 -121q74 -55 253 -55q112 0 173.5 27.5t61.5 77.5q0 60 -106 85l-568 133q-442 104 -442 422q0 114 50.5 190t160.5 128q-74 73 -74 185q0 141 118 242q168 144 543 144q319 0 507 -98q134 -69 193 -191q22 -47 40 -147h-465q-6 69 -43 101 q-58 49 -221 49q-225 0 -225 -102q0 -33 37.5 -54t134.5 -41l463 -96q224 -47 339 -136q130 -100 130 -275q0 -201 -195 -312q94 -88 94 -199q0 -198 -183 -302q-185 -106 -530 -106q-342 0 -540 103q-138 71 -199 198q-23 48 -41 150h465zM1299 352q49 55 49 116 q0 46 -37.5 76t-122.5 52l-651 166q-65 -54 -65 -114q0 -86 133 -120z"/>
    <glyph glyph-name="bullet" unicode="•" horiz-adv-x="1024" vert-adv-y="1433" d="M519 1047q121 0 211 -88q89 -89 89 -216q0 -126 -89 -215t-215 -89q-124 0 -213 88q-91 90 -91 215q0 130 90 217q91 88 218 88z"/>
    <glyph glyph-name="paragraph" unicode="¶" horiz-adv-x="1475" vert-adv-y="1433" d="M524 -356v1032q-148 4 -228 33q-249 87 -249 357q0 231 164 325q124 71 360 71h746v-1818h-287v1593h-219v-1593h-287z"/>
    <glyph glyph-name="germandbls" unicode="ß" horiz-adv-x="1706" vert-adv-y="1433" d="M129 0v1004q0 226 137 346q172 149 588 149q688 0 688 -394q0 -219 -203 -261v-4q291 -66 291 -389q0 -263 -213 -385q-157 -91 -394 -91q-184 0 -333 39v304q123 -27 221 -27q260 0 260 199q0 186 -307 186h-135v250h105q237 0 237 132q0 138 -228 138 q-155 0 -217.5 -62.5t-62.5 -217.5v-916h-434z"/>
    <glyph glyph-name="registered" unicode="®" horiz-adv-x="1638" vert-adv-y="1433" d="M520 362v791h275q144 0 224 -35q132 -56 132 -220q0 -186 -160 -216l183 -320h-219l-170 299h-68v-299h-197zM717 813h102q119 0 119 94t-119 94h-102v-188zM826 1507q199 0 379 -103q182 -104 287 -287q103 -179 103 -386t-103 -386q-105 -183 -287 -287 q-179 -103 -386 -103t-386 103q-182 105 -287 287q-103 179 -103 385q0 320 227 549q109 110 252.5 169t303.5 59zM814 1282q-98 0 -190.5 -38t-161.5 -107q-157 -157 -157 -406t157 -406q146 -145 356 -145t357 146q158 157 158 405q0 246 -158 404q-146 147 -361 147z"/>
    <glyph glyph-name="copyright" unicode="©" horiz-adv-x="1638" vert-adv-y="1433" d="M989 610h234q-22 -113 -68 -179q-107 -149 -306 -149q-183 0 -303 122q-126 127 -126 326q0 207 127 333q114 114 293 114q153 0 252 -84q50 -43 77.5 -96t44.5 -139h-225q-34 122 -151 122q-90 0 -141.5 -65.5t-51.5 -180.5q0 -97 38 -161q54 -94 163 -94q122 0 143 131 zM826 1507q199 0 379 -103q182 -104 287 -287q103 -179 103 -386t-103 -386q-105 -183 -287 -287q-179 -103 -386 -103t-386 103q-182 105 -287 287q-103 179 -103 385q0 320 227 549q109 110 252.5 169t303.5 59zM814 1282q-98 0 -190.5 -38t-161.5 -107 q-157 -157 -157 -406t157 -406q146 -145 356 -145t357 146q158 157 158 405q0 246 -158 404q-146 147 -361 147z"/>
    <glyph glyph-name="trademark" unicode="™" horiz-adv-x="2048" vert-adv-y="1433" d="M234 618v631h-209v213h705v-213h-209v-631h-287zM1700 618v528h-4l-182 -528h-181l-182 528h-4v-528h-262v844h356l183 -449l182 449h356v-844h-262z"/>
    <glyph glyph-name="acute" unicode="´" horiz-adv-x="1024" vert-adv-y="1433" d="M254 1237l186 287h529l-305 -287h-410z"/>
    <glyph glyph-name="dieresis" unicode="¨" horiz-adv-x="1024" vert-adv-y="1433" d="M-18 1219v262h434v-262h-434zM609 1219v262h434v-262h-434z"/>
    <glyph glyph-name="notequal" unicode="≠" horiz-adv-x="1304" vert-adv-y="1433" d="M732 891l154 238l210 -137l-66 -101h178v-287h-365l-111 -172h476v-287h-663l-139 -215l-210 136l51 79h-151v287h338l111 172h-449v287h636z"/>
    <glyph glyph-name="AE" unicode="Æ" horiz-adv-x="2351" vert-adv-y="1433" d="M-35 0l735 1462h1585v-315h-761v-264h733v-303h-733v-265h770v-315h-1205v276h-485l-123 -276h-516zM1089 580v579h-94l-256 -579h350z"/>
    <glyph glyph-name="Oslash" unicode="Ø" horiz-adv-x="2048" vert-adv-y="1433" d="M63 53l186 152q-178 203 -178 518q0 784 951 784q399 0 649 -147l215 174l98 -125l-186 -152q178 -204 178 -519q0 -783 -950 -783q-399 0 -650 147l-215 -174zM628 512l699 567q-117 101 -305 101q-208 0 -321.5 -117t-113.5 -333q0 -122 41 -218zM1419 950l-699 -567 q116 -100 303 -100q211 0 324 116t113 332q0 121 -41 219z"/>
    <glyph glyph-name="infinity" unicode="∞" horiz-adv-x="1462" vert-adv-y="1433" d="M736 609q-156 -208 -355 -208q-151 0 -246.5 96.5t-95.5 249.5q0 159 106 253q99 89 236 89q196 0 346 -206q148 206 354 206q151 0 246.5 -96.5t95.5 -248.5q0 -163 -108 -259q-96 -85 -231 -85q-204 0 -348 209zM834 745q106 -158 221 -158q66 0 110 45.5t44 113.5 q0 67 -45 112t-111 45q-110 0 -219 -158zM628 745q-106 157 -221 157q-66 0 -110 -45.5t-44 -112.5t45 -112t112 -45q111 0 218 158z"/>
    <glyph glyph-name="plusminus" unicode="±" horiz-adv-x="1229" vert-adv-y="1433" d="M471 856v180h287v-180h374v-287h-374v-180h-287v180h-375v287h375zM96 0v287h1036v-287h-1036z"/>
    <glyph glyph-name="lessequal" unicode="≤" horiz-adv-x="1140" vert-adv-y="1433" d="M1059 84h-977v258h960l-960 387v195l977 394v-234l-671 -258l671 -258v-484z"/>
    <glyph glyph-name="greaterequal" unicode="≥" horiz-adv-x="1141" vert-adv-y="1433" d="M99 342h960v-258h-977v251v233l671 258l-671 258v234l977 -394v-195z"/>
    <glyph glyph-name="yen" unicode="¥" horiz-adv-x="1819" vert-adv-y="1433" d="M692 0v199h-442v213h442v90l-47 67h-395v213h245l-452 635h538l328 -598l328 598h539l-451 -635h244v-213h-396l-47 -67v-90h443v-213h-443v-199h-434z"/>
    <glyph glyph-name="mu" unicode="µ" horiz-adv-x="1593" vert-adv-y="1433" d="M1057 0v143h-4q-140 -188 -311 -188q-120 0 -189 74h-4v-430h-434v1511h434v-573q0 -254 224 -254q128 0 200 70t72 196v561h434v-1110h-422z"/>
    <glyph glyph-name="partialdiff" unicode="∂" horiz-adv-x="1097" vert-adv-y="1433" d="M139 1227l34 232q392 -44 606 -233q273 -242 273 -662q0 -227 -95 -369q-143 -215 -412 -215q-158 0 -281 79q-102 66 -160.5 178t-58.5 242q0 201 129 337q126 133 312 133q89 0 147.5 -23t129.5 -85q-18 32 -27 49q-129 287 -597 337zM550 728q-100 0 -170.5 -75 t-70.5 -182q0 -104 69.5 -179.5t166.5 -75.5q100 0 168.5 75t68.5 184t-66 181t-166 72z"/>
    <glyph glyph-name="summation" unicode="∑" horiz-adv-x="1462" vert-adv-y="1433" d="M1356 1645v-553h-269l-32 278h-647l533 -787l-531 -857h665l18 287h283v-561h-1302v316l514 815l-514 746v316h1282z"/>
    <glyph glyph-name="product" unicode="∏" horiz-adv-x="1462" vert-adv-y="1433" d="M43 1645h1376v-240h-159v-1714h159v-239h-571v239h144v1714h-524v-1714h144v-239h-569v239h160v1714h-160v240z"/>
    <glyph glyph-name="pi" unicode="π" horiz-adv-x="1819" vert-adv-y="1433" d="M1791 1110v-314h-198v-796h-437v796h-493v-796h-437v796h-199v314h1764z"/>
    <glyph glyph-name="glyph156" horiz-adv-x="795" vert-adv-y="1433"/>
    <glyph glyph-name="ordfeminine" unicode="ª" horiz-adv-x="1083" vert-adv-y="1433" d="M1062 733h-309q-12 30 -13 61q-73 -48 -149 -67t-192 -19q-162 0 -251 38q-125 53 -125 191q0 110 87 164q83 52 256 60l256 12q87 4 87 47q0 66 -160 66q-129 0 -157 -74h-317q22 129 129 185q102 53 348 53q237 0 345 -46q134 -56 134 -196v-354q0 -72 31 -121z M716 1050l-106 -14l-160 -23q-83 -11 -83 -61q0 -31 33.5 -49.5t89.5 -18.5q98 0 162 39t64 99v28z"/>
    <glyph glyph-name="ordmasculine" unicode="º" horiz-adv-x="1083" vert-adv-y="1433" d="M549 1450q232 0 370 -79q162 -92 162 -291q0 -200 -164 -293q-137 -78 -375 -78q-323 0 -456 140q-84 89 -84 226q0 375 547 375zM540 1253q-92 0 -143 -46t-51 -128q0 -84 51 -129t145 -45q103 0 154 56q41 44 41 118q0 83 -51.5 128.5t-145.5 45.5z"/>
    <glyph glyph-name="glyph159" horiz-adv-x="795" vert-adv-y="1433"/>
    <glyph glyph-name="ae" unicode="æ" horiz-adv-x="2390" vert-adv-y="1433" d="M545 762h-414q25 110 59 170t100 110q149 113 489 113q173 0 275.5 -28t186.5 -99q145 127 421 127q341 0 514 -192q149 -165 149 -457v-53h-949q33 -248 285 -248q162 0 227 123h422q-69 -175 -193 -260q-164 -113 -432 -113q-325 0 -485 178q-183 -178 -577 -178 q-557 0 -557 359q0 235 224 300q126 37 433 57q219 14 247 28q46 23 46 79q0 127 -230 127q-122 0 -176 -32t-65 -111zM1376 666h555q-51 239 -279 239q-226 0 -276 -239zM1020 508q-66 -31 -265 -45q-128 -9 -167 -22q-88 -30 -88 -110q0 -126 205 -126q315 0 315 242v61z "/>
    <glyph glyph-name="oslash" unicode="ø" vert-adv-y="1433" d="M41 31l162 125q-148 158 -148 399q0 272 175 425q198 175 603 175q316 0 521 -115l190 148l82 -109l-162 -125q148 -157 148 -399q0 -272 -175 -425q-198 -175 -602 -175q-321 0 -522 115l-190 -148zM539 414l508 391q-85 63 -212 63q-321 0 -321 -315q0 -78 25 -139z M1128 696l-507 -391q83 -63 211 -63q154 0 237.5 81t83.5 231q0 79 -25 142z"/>
    <glyph glyph-name="questiondown" unicode="¿" horiz-adv-x="1630" vert-adv-y="1433" d="M616 592h447q-3 -115 -34.5 -172.5t-115.5 -100.5l-223 -114q-119 -62 -119 -151q0 -71 66 -114t176 -43q141 0 207.5 57.5t79.5 190.5h481q-22 -155 -63 -241t-126 -153q-176 -141 -564 -141q-297 0 -479 78q-265 115 -265 366q0 129 68.5 207.5t249.5 157.5 q118 52 156 83t58 90zM610 705v405h459v-405h-459z"/>
    <glyph glyph-name="exclamdown" unicode="¡" horiz-adv-x="795" vert-adv-y="1433" d="M162 -352l59 944h353l59 -944h-471zM168 705v405h459v-405h-459z"/>
    <glyph glyph-name="logicalnot" unicode="¬" horiz-adv-x="1229" vert-adv-y="1433" d="M846 221v383h-750v287h1036v-670h-286z"/>
    <glyph glyph-name="radical" unicode="√" horiz-adv-x="1473" vert-adv-y="1433" d="M1473 1813v-202h-412l-472 -1611h-235l-176 617h-178v202h323l93 -311l6 -19q3 -12 41 -177q15 58 80 313l102 346l246 842h582z"/>
    <glyph glyph-name="florin" unicode="ƒ" horiz-adv-x="1819" vert-adv-y="1433" d="M475 604l45 213h233l68 338q59 295 432 295q99 0 301 -14l-49 -267q-24 2 -36 2q-53 4 -82 4q-115 0 -138 -114l-49 -244h229l-45 -213h-229l-148 -711q-61 -295 -436 -295q-97 0 -307 15l55 266q84 -6 113 -6q77 0 111.5 45.5t62.5 183.5l102 502h-233z"/>
    <glyph glyph-name="glyph167" horiz-adv-x="795" vert-adv-y="1433"/>
    <glyph glyph-name="Delta" unicode="Δ" horiz-adv-x="1997" vert-adv-y="1433" d="M-14 0l738 1462h549l738 -1462h-2025zM546 321h905l-453 870z"/>
    <glyph glyph-name="guillemotleft" unicode="«" horiz-adv-x="1327" vert-adv-y="1433" d="M704 414v360l422 311v-303l-250 -188l250 -188v-304zM172 414v360l422 311v-303l-250 -188l250 -188v-304z"/>
    <glyph glyph-name="guillemotright" unicode="»" horiz-adv-x="1327" vert-adv-y="1433" d="M201 102v304l250 188l-250 188v303l422 -311v-360zM733 102v304l250 188l-250 188v303l422 -311v-360z"/>
    <glyph glyph-name="glyph171" horiz-adv-x="795" vert-adv-y="1433"/>
    <glyph glyph-name="glyph172" horiz-adv-x="1819" vert-adv-y="1819"/>
    <glyph glyph-name="Agrave" unicode="À" horiz-adv-x="1745" vert-adv-y="1433" d="M-57 0l635 1462h596l629 -1462h-523l-88 238h-639l-88 -238h-522zM1078 541l-203 553h-4l-203 -553h410zM722 1559l-305 286h528l187 -286h-410z"/>
    <glyph glyph-name="Atilde" unicode="Ã" horiz-adv-x="1745" vert-adv-y="1433" d="M-57 0l635 1462h596l629 -1462h-523l-88 238h-639l-88 -238h-522zM1078 541l-203 553h-4l-203 -553h410zM521 1548h-197q27 99 55 147q90 150 276 150q60 0 146 -18l285 -60l17 -4q28 -7 41 -7q57 0 87 73h191q-48 -304 -294 -304q-53 0 -102 9t-288 63l-20 5 q-88 20 -106 20q-69 0 -91 -74z"/>
    <glyph glyph-name="Otilde" unicode="Õ" horiz-adv-x="2048" vert-adv-y="1433" d="M1036 1507q941 0 941 -776t-953 -776q-952 0 -952 768q0 464 324 650q235 134 640 134zM1020 1180q-205 0 -318.5 -117.5t-113.5 -330.5q0 -216 113.5 -332.5t323.5 -116.5t323 116t113 333q0 216 -114 332t-327 116zM672 1572h-197q27 99 55 147q90 150 276 150 q60 0 146 -18l285 -60l17 -4q28 -7 41 -7q57 0 87 73h191q-48 -304 -294 -304q-53 0 -102 9t-288 63l-20 5q-88 20 -106 20q-69 0 -91 -74z"/>
    <glyph glyph-name="OE" unicode="Œ" horiz-adv-x="2390" vert-adv-y="1433" d="M1176 0v98q-169 -143 -409 -143q-321 0 -510 211q-185 207 -185 565q0 400 229 608q185 168 474 168q260 0 401 -143v98h1145v-315h-725v-264h698v-303h-698v-265h737v-315h-1157zM1174 528v439q0 88 -88 156.5t-201 68.5q-325 0 -325 -460q0 -462 328 -462 q117 0 201.5 76.5t84.5 181.5z"/>
    <glyph glyph-name="oe" unicode="œ" horiz-adv-x="2390" vert-adv-y="1433" d="M1888 328h422q-69 -175 -193 -260q-165 -113 -435 -113q-322 0 -480 168q-189 -168 -477 -168q-358 0 -531 194q-139 155 -139 405q0 288 175 445q175 156 503 156q286 0 471 -147q157 147 448 147q351 0 524 -192q148 -164 148 -457v-53h-948q32 -248 284 -248 q162 0 228 123zM751 869q-274 0 -274 -314q0 -313 277 -313q278 0 278 315q0 312 -281 312zM1376 666h555q-51 239 -280 239q-226 0 -275 -239z"/>
    <glyph glyph-name="endash" unicode="–" horiz-adv-x="1024" vert-adv-y="1433" d="M0 451v286h1024v-286h-1024z"/>
    <glyph glyph-name="emdash" unicode="—" horiz-adv-x="2048" vert-adv-y="1433" d="M0 451v286h2048v-286h-2048z"/>
    <glyph glyph-name="quotedblleft" unicode="“" horiz-adv-x="1366" vert-adv-y="1433" d="M135 655v260q1 505 459 547v-168q-180 -40 -203 -233h203v-406h-459zM772 655v260q1 504 459 547v-168q-180 -40 -203 -233h203v-406h-459z"/>
    <glyph glyph-name="quotedblright" unicode="”" horiz-adv-x="1366" vert-adv-y="1433" d="M772 1057v405h459v-260q-2 -504 -459 -546v168q179 39 203 233h-203zM135 1057v405h459v-260q-2 -504 -459 -546v168q179 39 203 233h-203z"/>
    <glyph glyph-name="quoteleft" unicode="‘" horiz-adv-x="795" vert-adv-y="1433" d="M168 655v260q1 505 459 547v-168q-180 -40 -203 -233h203v-406h-459z"/>
    <glyph glyph-name="quoteright" unicode="’" horiz-adv-x="795" vert-adv-y="1433" d="M168 1057v405h459v-260q-2 -504 -459 -546v168q179 39 203 233h-203z"/>
    <glyph glyph-name="divide" unicode="÷" horiz-adv-x="1229" vert-adv-y="1433" d="M96 375v287h1036v-287h-1036zM616 1156q83 0 142 -59.5t59 -143.5q0 -85 -59 -144t-144 -59t-144 59t-59 143q0 86 59.5 145t145.5 59zM616 287q83 0 142 -59.5t59 -143.5t-59.5 -143.5t-143.5 -59.5t-143.5 59t-59.5 143q0 86 59.5 145t145.5 59z"/>
    <glyph glyph-name="glyph185" horiz-adv-x="795" vert-adv-y="1433"/>
    <glyph glyph-name="ydieresis" unicode="ÿ" horiz-adv-x="1403" vert-adv-y="1433" d="M131 -389v274h104q159 0 199 80l49 98l-522 1047h471l281 -660l270 660h459l-590 -1250q-74 -155 -158.5 -208t-259.5 -53q-143 0 -303 12zM171 1219v262h434v-262h-434zM798 1219v262h434v-262h-434z"/>
    <glyph glyph-name="Ydieresis" unicode="Ÿ" vert-adv-y="1433" d="M590 0v461l-649 1001h565l328 -620l328 620h565l-649 -1001v-461h-488zM303 1558v262h435v-262h-435zM930 1558v262h434v-262h-434z"/>
    <glyph glyph-name="fraction" unicode="⁄" horiz-adv-x="342" vert-adv-y="1433" d="M-410 -33l932 1483h229l-932 -1483h-229z"/>
    <glyph glyph-name="currency" unicode="¤" horiz-adv-x="1819" vert-adv-y="1433" d="M330 274l125 125q-94 141 -94 309q0 171 96 310l-127 123l150 149l122 -127q139 94 308 94q167 0 307 -94l123 127l149 -149l-127 -123q96 -141 96 -309q0 -171 -98 -310l129 -125l-149 -147l-123 129q-136 -96 -307 -96q-172 0 -308 96l-122 -129zM906 995 q-116 0 -187.5 -79.5t-71.5 -207.5q0 -135 78 -214q72 -72 184 -72q113 0 185 72q78 79 78 212q0 128 -74.5 208.5t-191.5 80.5z"/>
    <glyph glyph-name="guilsinglleft" unicode="‹" horiz-adv-x="795" vert-adv-y="1433" d="M172 414v360l422 311v-303l-250 -188l250 -188v-304z"/>
    <glyph glyph-name="guilsinglright" unicode="›" horiz-adv-x="795" vert-adv-y="1433" d="M201 102v304l250 188l-250 188v303l422 -311v-360z"/>
    <glyph glyph-name="glyph192" horiz-adv-x="795" vert-adv-y="1433"/>
    <glyph glyph-name="glyph193" horiz-adv-x="795" vert-adv-y="1433"/>
    <glyph glyph-name="glyph194" horiz-adv-x="795" vert-adv-y="1433"/>
    <glyph glyph-name="periodcentered" unicode="·" horiz-adv-x="795" vert-adv-y="1433" d="M399 776q100 0 171 -71.5t71 -172.5t-71 -172t-173 -71q-101 0 -172 71t-71 172q0 102 71.5 173t173.5 71z"/>
    <glyph glyph-name="quotesinglbase" unicode="‚" horiz-adv-x="795" vert-adv-y="1433" d="M168 0v406h459v-260q0 -272 -141 -414q-60 -59 -129 -88t-189 -45v168q183 33 203 233h-203z"/>
    <glyph glyph-name="quotedblbase" unicode="„" horiz-adv-x="1366" vert-adv-y="1433" d="M772 0v406h459v-260q0 -272 -141 -414q-59 -59 -128.5 -88t-189.5 -45v168q183 33 203 233h-203zM135 0v406h459v-260q0 -272 -141 -414q-60 -59 -129 -88t-189 -45v168q183 33 203 233h-203z"/>
    <glyph glyph-name="glyph198" horiz-adv-x="795" vert-adv-y="1433"/>
    <glyph glyph-name="Acircumflex" unicode="Â" horiz-adv-x="1745" vert-adv-y="1433" d="M-57 0l635 1462h596l629 -1462h-523l-88 238h-639l-88 -238h-522zM1078 541l-203 553h-4l-203 -553h410zM265 1559l305 286h606l306 -286h-480l-145 157l-146 -157h-446z"/>
    <glyph glyph-name="Ecircumflex" unicode="Ê" horiz-adv-x="1669" vert-adv-y="1433" d="M147 0v1462h1464v-315h-977v-264h916v-303h-916v-265h977v-315h-1464zM277 1559l305 286h606l306 -286h-480l-145 157l-146 -157h-446z"/>
    <glyph glyph-name="Aacute" unicode="Á" horiz-adv-x="1745" vert-adv-y="1433" d="M-57 0l635 1462h596l629 -1462h-523l-88 238h-639l-88 -238h-522zM1078 541l-203 553h-4l-203 -553h410zM610 1559l186 286h529l-305 -286h-410z"/>
    <glyph glyph-name="Edieresis" unicode="Ë" horiz-adv-x="1669" vert-adv-y="1433" d="M147 0v1462h1464v-315h-977v-264h916v-303h-916v-265h977v-315h-1464zM328 1540v262h435v-262h-435zM955 1540v262h434v-262h-434z"/>
    <glyph glyph-name="Egrave" unicode="È" horiz-adv-x="1669" vert-adv-y="1433" d="M147 0v1462h1464v-315h-977v-264h916v-303h-916v-265h977v-315h-1464zM693 1559l-305 286h528l187 -286h-410z"/>
    <glyph glyph-name="Iacute" unicode="Í" horiz-adv-x="795" vert-adv-y="1433" d="M154 0v1462h487v-1462h-487zM156 1559l186 286h529l-305 -286h-410z"/>
    <glyph glyph-name="Icircumflex" unicode="Î" horiz-adv-x="795" vert-adv-y="1433" d="M154 0v1462h487v-1462h-487zM-211 1559l305 286h606l306 -286h-480l-145 157l-146 -157h-446z"/>
    <glyph glyph-name="Idieresis" unicode="Ï" horiz-adv-x="795" vert-adv-y="1433" d="M154 0v1462h487v-1462h-487zM-133 1571v262h434v-262h-434zM494 1571v262h434v-262h-434z"/>
    <glyph glyph-name="Igrave" unicode="Ì" horiz-adv-x="795" vert-adv-y="1433" d="M154 0v1462h487v-1462h-487zM241 1559l-305 286h528l187 -286h-410z"/>
    <glyph glyph-name="Oacute" unicode="Ó" horiz-adv-x="2048" vert-adv-y="1433" d="M1036 1507q941 0 941 -776t-953 -776q-952 0 -952 768q0 464 324 650q235 134 640 134zM1020 1180q-205 0 -318.5 -117.5t-113.5 -330.5q0 -216 113.5 -332.5t323.5 -116.5t323 116t113 333q0 216 -114 332t-327 116zM753 1568l186 286h529l-305 -286h-410z"/>
    <glyph glyph-name="Ocircumflex" unicode="Ô" horiz-adv-x="2048" vert-adv-y="1433" d="M1036 1507q941 0 941 -776t-953 -776q-952 0 -952 768q0 464 324 650q235 134 640 134zM1020 1180q-205 0 -318.5 -117.5t-113.5 -330.5q0 -216 113.5 -332.5t323.5 -116.5t323 116t113 333q0 216 -114 332t-327 116zM416 1571l305 286h606l306 -286h-480l-145 157 l-146 -157h-446z"/>
    <glyph glyph-name="glyph210" horiz-adv-x="795" vert-adv-y="1433"/>
    <glyph glyph-name="Ograve" unicode="Ò" horiz-adv-x="2048" vert-adv-y="1433" d="M1036 1507q941 0 941 -776t-953 -776q-952 0 -952 768q0 464 324 650q235 134 640 134zM1020 1180q-205 0 -318.5 -117.5t-113.5 -330.5q0 -216 113.5 -332.5t323.5 -116.5t323 116t113 333q0 216 -114 332t-327 116zM853 1574l-305 286h528l187 -286h-410z"/>
    <glyph glyph-name="Uacute" unicode="Ú" horiz-adv-x="1896" vert-adv-y="1433" d="M1769 1462v-946q0 -561 -821 -561t-821 561v946h487v-866q0 -168 77.5 -241t256.5 -73t256.5 73t77.5 241v866h487zM710 1559l186 286h529l-305 -286h-410z"/>
    <glyph glyph-name="Ucircumflex" unicode="Û" horiz-adv-x="1896" vert-adv-y="1433" d="M1769 1462v-946q0 -561 -821 -561t-821 561v946h487v-866q0 -168 77.5 -241t256.5 -73t256.5 73t77.5 241v866h487zM340 1568l305 286h606l306 -286h-480l-145 157l-146 -157h-446z"/>
    <glyph glyph-name="Ugrave" unicode="Ù" horiz-adv-x="1896" vert-adv-y="1433" d="M1769 1462v-946q0 -561 -821 -561t-821 561v946h487v-866q0 -168 77.5 -241t256.5 -73t256.5 73t77.5 241v866h487zM777 1559l-305 286h528l187 -286h-410z"/>
    <glyph glyph-name="dotlessi" unicode="ı" horiz-adv-x="680" vert-adv-y="1433" d="M123 0v1110h434v-1110h-434z"/>
    <glyph glyph-name="circumflex" unicode="ˆ" horiz-adv-x="1024" vert-adv-y="1433" d="M-96 1237l305 287h606l306 -287h-480l-145 158l-146 -158h-446z"/>
    <glyph glyph-name="tilde" unicode="˜" horiz-adv-x="1024" vert-adv-y="1433" d="M160 1227h-197q27 99 56 147q89 150 275 150q55 0 146 -19l285 -59q3 -1 17 -4q27 -7 41 -7q58 0 87 72h191q-48 -303 -294 -303q-53 0 -102 9t-288 63l-20 5q-88 20 -106 20q-68 0 -91 -74z"/>
    <glyph glyph-name="macron" unicode="¯" horiz-adv-x="1024" vert-adv-y="1433" d="M55 1269v238h913v-238h-913z"/>
    <glyph glyph-name="breve" unicode="˘" horiz-adv-x="1024" vert-adv-y="1433" d="M53 1524h238q13 -56 65.5 -81t155.5 -25q104 0 154.5 24.5t66.5 81.5h238q-28 -170 -135.5 -244.5t-325.5 -74.5q-246 0 -357 104q-42 40 -63.5 86t-36.5 129z"/>
    <glyph glyph-name="dotaccent" unicode="˙" horiz-adv-x="1024" vert-adv-y="1433" d="M295 1219v262h434v-262h-434z"/>
    <glyph glyph-name="ring" unicode="˚" horiz-adv-x="1024" vert-adv-y="1433" d="M515 1745q110 0 189 -79q79 -80 79 -192t-79 -191t-192 -79q-112 0 -191 79t-79 191t79 192q79 79 194 79zM512 1593q-49 0 -83.5 -35t-34.5 -83q0 -50 34.5 -84.5t84.5 -34.5q49 0 83.5 35t34.5 83q0 50 -35 84.5t-84 34.5z"/>
    <glyph glyph-name="cedilla" unicode="¸" horiz-adv-x="1024" vert-adv-y="1433" d="M209 -418l37 105q102 -29 164 -29q44 0 71 17.5t27 45.5q0 52 -81 52q-31 0 -73 -15l-51 41l145 219h141l-85 -137q36 4 79 4q96 0 154 -45t58 -119q0 -178 -296 -178q-142 0 -290 39z"/>
    <glyph glyph-name="hungarumlaut" unicode="˝" horiz-adv-x="1024" vert-adv-y="1433" d="M-59 1237l186 287h529l-305 -287h-410zM566 1237l186 287h528l-305 -287h-409z"/>
    <glyph glyph-name="ogonek" unicode="˛" horiz-adv-x="1024" vert-adv-y="1433" d="M684 0h185q-119 -73 -162 -117.5t-43 -93.5q0 -39 32.5 -61.5t88.5 -22.5q52 0 114 23l10 -115q-115 -39 -263 -39q-269 0 -269 166q0 182 307 260z"/>
    <glyph glyph-name="caron" unicode="ˇ" horiz-adv-x="1024" vert-adv-y="1433" d="M209 1237l-305 287h479l146 -158l145 158h447l-306 -287h-606z"/>
    <glyph glyph-name="Lslash" unicode="Ł" horiz-adv-x="1556" vert-adv-y="1433" d="M0 336v328l147 90v708h488v-444l350 215v-328l-350 -215v-350h891v-340h-1379v426z"/>
    <glyph glyph-name="lslash" unicode="ł" horiz-adv-x="680" vert-adv-y="1433" d="M123 0v530l-123 -75v286l123 76v682h434v-434l123 74v-287l-123 -74v-778h-434z"/>
    <glyph glyph-name="Scaron" unicode="Š" horiz-adv-x="1821" vert-adv-y="1433" d="M1712 1034h-553q-33 170 -313 170q-258 0 -258 -140q0 -52 37 -70.5t185 -41.5q45 -6 156 -24q123 -19 208 -32q281 -42 387 -92q212 -100 212 -346q0 -256 -222 -384q-208 -119 -646 -119q-416 0 -624 111q-110 59 -162.5 145.5t-71.5 239.5h578q13 -99 85 -139.5 t234 -40.5q264 0 264 151q0 57 -48.5 85t-182.5 48l-488 74q-417 63 -417 409q0 469 781 469q403 0 623 -116q109 -57 162 -137.5t74 -219.5zM320 1869h446l146 -157l145 157h480l-306 -286h-606z"/>
    <glyph glyph-name="scaron" unicode="š" horiz-adv-x="1554" vert-adv-y="1433" d="M55 346h504q11 -69 69 -99t182 -30q201 0 201 100q0 39 -31.5 57.5t-117.5 28.5l-387 47q-200 25 -291.5 100t-91.5 214q0 202 164 296.5t513 94.5q332 0 497 -88.5t192 -280.5h-488q-16 119 -234 119q-198 0 -198 -101q0 -66 140 -81l374 -41q235 -26 341 -106t106 -232 q0 -389 -707 -389q-367 0 -558 105q-88 49 -128.5 114t-50.5 172zM474 1237l-305 287h479l146 -158l145 158h447l-306 -287h-606z"/>
    <glyph glyph-name="Zcaron" unicode="Ž" vert-adv-y="1433" d="M37 0v281l922 854h-859v327h1512v-286l-916 -848h902v-328h-1561zM234 1851h446l146 -157l145 157h480l-306 -286h-606z"/>
    <glyph glyph-name="zcaron" unicode="ž" horiz-adv-x="1366" vert-adv-y="1433" d="M45 0v262l668 541v4h-633v303h1220v-262l-647 -545h668v-303h-1276zM380 1237l-305 287h479l146 -158l145 158h447l-306 -287h-606z"/>
    <glyph glyph-name="brokenbar" unicode="¦" horiz-adv-x="455" vert-adv-y="1433" d="M76 -45v606h303v-606h-303zM76 901v606h303v-606h-303z"/>
    <glyph glyph-name="Eth" unicode="Ð" horiz-adv-x="1972" vert-adv-y="1433" d="M147 0v596h-147v274h147v592h1057q352 0 530 -196q166 -184 166 -535q0 -379 -201 -562q-186 -169 -559 -169h-993zM954 870v-274h-319v-268h407q209 0 297 151q57 100 57 255q0 401 -393 401h-368v-265h319z"/>
    <glyph glyph-name="eth" unicode="ð" vert-adv-y="1433" d="M291 1188l239 104q-98 34 -219 68l229 227q210 -35 400 -112l248 108l151 -98l-219 -96q116 -73 185 -132.5t132 -141.5q174 -227 174 -528q0 -632 -778 -632q-334 0 -531 111q-247 140 -247 439q0 290 247 431q168 96 409 96q110 0 185 -19t148 -67l4 4 q-94 153 -323 262l-299 -131zM830 745q-153 0 -234.5 -65t-81.5 -187q0 -251 319 -251q156 0 238 64.5t82 187.5t-82.5 187t-240.5 64z"/>
    <glyph glyph-name="Yacute" unicode="Ý" vert-adv-y="1433" d="M590 0v461l-649 1001h565l328 -620l328 620h565l-649 -1001v-461h-488zM584 1559l186 286h529l-305 -286h-410z"/>
    <glyph glyph-name="yacute" unicode="ý" horiz-adv-x="1403" vert-adv-y="1433" d="M131 -389v274h104q159 0 199 80l49 98l-522 1047h471l281 -660l270 660h459l-590 -1250q-74 -155 -158.5 -208t-259.5 -53q-143 0 -303 12zM463 1237l186 287h529l-305 -287h-410z"/>
    <glyph glyph-name="Thorn" unicode="Þ" horiz-adv-x="1821" vert-adv-y="1433" d="M147 0v1462h487v-205h594q291 0 428 -151q111 -122 111 -333q0 -240 -144 -370q-132 -120 -373 -120h-616v-283h-487zM634 954v-368h434q102 0 148.5 44t46.5 140t-46.5 140t-148.5 44h-434z"/>
    <glyph glyph-name="thorn" unicode="þ" vert-adv-y="1433" d="M115 -401v1900h434v-536h4q33 46 65 71t90 50q127 55 284 55t294 -59q195 -84 275 -269q51 -117 51 -259q0 -254 -164 -417q-180 -180 -471 -180q-271 0 -424 146h-4v-502h-434zM856 836q-158 0 -240 -89q-67 -73 -67 -193q0 -137 85 -212q81 -71 225 -71q162 0 241 87 q65 71 65 196q0 139 -81 212q-79 70 -228 70z"/>
    <glyph glyph-name="minus" unicode="−" horiz-adv-x="1229" vert-adv-y="1433" d="M96 375v287h1036v-287h-1036z"/>
    <glyph glyph-name="multiply" unicode="×" horiz-adv-x="1229" vert-adv-y="1433" d="M412 518l-293 293l203 203l293 -293l292 293l203 -203l-293 -293l293 -293l-203 -202l-292 292l-293 -292l-203 202z"/>
    <glyph glyph-name="onesuperior" unicode="¹" horiz-adv-x="813" vert-adv-y="1433" d="M330 578v495h-262v213h45q129 0 193.5 31t103.5 113h252v-852h-332z"/>
    <glyph glyph-name="twosuperior" unicode="²" horiz-adv-x="1182" vert-adv-y="1433" d="M1102 791v-213h-1073q8 92 29 147t68 106q99 108 331 169l221 57q44 11 70 35.5t26 53.5q0 42 -43.5 66.5t-119.5 24.5q-178 0 -197 -139h-369q18 182 139 262q133 90 424 90q535 0 535 -304q0 -155 -166 -222q-74 -30 -236 -57q-263 -44 -333 -72v-4h694z"/>
    <glyph glyph-name="threesuperior" unicode="³" horiz-adv-x="1182" vert-adv-y="1433" d="M405 914v196h182q146 0 146 69q0 75 -171 75q-74 0 -110 -17t-55 -61h-365q21 149 149.5 211.5t413.5 62.5q250 0 368 -50q138 -58 138 -196q0 -160 -186 -178v-4q225 -27 225 -203q0 -123 -113 -188q-136 -78 -454 -78q-305 0 -440 71q-61 33 -90 81.5t-37 134.5h356 q16 -74 205 -74q192 0 192 66q0 82 -192 82h-162z"/>
    <glyph glyph-name="onehalf" unicode="½" horiz-adv-x="2730" vert-adv-y="1433" d="M569 -33l932 1483h230l-932 -1483h-230zM391 578v495h-262v213h45q129 0 193.5 31t103.5 113h252v-852h-332zM2486 213v-213h-1073q8 92 29 147t67 106q99 108 332 169l221 57q96 25 96 89q0 42 -43.5 66.5t-119.5 24.5q-178 0 -197 -139h-369q18 181 139 262 q133 90 424 90q535 0 535 -304q0 -155 -166 -222q-74 -30 -236 -57q-261 -43 -333 -72v-4h694z"/>
    <glyph glyph-name="onequarter" unicode="¼" horiz-adv-x="2730" vert-adv-y="1433" d="M2013 0v113h-618v221l522 518h412v-489h143v-250h-143v-113h-316zM2013 363v317l-329 -317h329zM600 -33l932 1483h229l-932 -1483h-229zM391 578v495h-262v213h45q129 0 193.5 31t103.5 113h252v-852h-332z"/>
    <glyph glyph-name="threequarters" unicode="¾" horiz-adv-x="2730" vert-adv-y="1433" d="M2197 0v113h-618v221l522 518h412v-489h143v-250h-143v-113h-316zM2197 363v317l-329 -317h329zM446 914v196h182q146 0 146 69q0 75 -171 75q-74 0 -110 -17t-55 -61h-365q21 149 149.5 211.5t413.5 62.5q250 0 368 -50q138 -58 138 -196q0 -160 -186 -178v-4 q225 -27 225 -203q0 -123 -113 -188q-136 -78 -454 -78q-305 0 -440 71q-61 33 -90 81.5t-37 134.5h356q16 -74 205 -74q192 0 192 66q0 82 -192 82h-162zM866 -33l932 1483h229l-931 -1483h-230z"/>
    <glyph glyph-name="franc" unicode="₣" horiz-adv-x="1082" vert-adv-y="1433" d="M830 880v-212q40 96 106 154q88 76 194 76q13 0 35 -2v-284q-50 7 -91 7q-244 0 -244 -246v-373h-281v629h-220v-629h-301v1462h1027v-251h-726v-331h501z"/>
    <glyph glyph-name="Gbreve" unicode="Ğ" horiz-adv-x="2048" vert-adv-y="1433" d="M1123 526v303h786v-829h-227l-60 151q-191 -196 -643 -196q-907 0 -907 765q0 364 236 573q242 214 692 214q370 0 609 -120q132 -67 200 -158.5t100 -247.5h-551q-66 211 -343 211q-207 0 -323 -122t-116 -341q0 -217 116.5 -338t325.5 -121q320 0 404 256h-299z M538 1877h238q13 -56 65.5 -81t156.5 -25q103 0 153.5 24.5t66.5 81.5h238q-28 -169 -135.5 -244t-324.5 -75q-247 0 -358 105q-42 39 -63.5 85t-36.5 129z"/>
    <glyph glyph-name="gbreve" unicode="ğ" horiz-adv-x="1706" vert-adv-y="1433" d="M1169 969v141h422v-1010q0 -255 -142 -379q-168 -147 -619 -147q-365 0 -531.5 85.5t-208.5 295.5h479q35 -131 269 -131q173 0 246 66.5t73 222.5v77q-154 -141 -453 -141q-352 0 -521 183q-128 139 -128 358q0 243 168 392q177 157 488 157q314 0 454 -170h4zM831 852 q-146 0 -231.5 -71t-85.5 -193q0 -125 85.5 -194.5t237.5 -69.5q320 0 320 259q0 129 -85 199t-241 70zM364 1532h238q13 -56 65.5 -81t155.5 -25q104 0 154.5 24.5t66.5 81.5h238q-28 -170 -135.5 -244.5t-325.5 -74.5q-246 0 -357 104q-42 40 -63.5 86t-36.5 129z"/>
    <glyph glyph-name="glyph250" horiz-adv-x="795" vert-adv-y="1433"/>
    <glyph glyph-name="Scedilla" unicode="Ş" horiz-adv-x="1821" vert-adv-y="1433" d="M828 -44q-387 8 -568 122.5t-213 372.5h578q13 -99 85 -139.5t234 -40.5q264 0 264 151q0 57 -48.5 85t-182.5 48l-488 74q-417 63 -417 409q0 469 781 469q403 0 623 -116q109 -57 162 -137.5t74 -219.5h-553q-33 170 -313 170q-258 0 -258 -140q0 -52 37 -71t185 -41 q38 -5 156 -24q104 -16 208 -31q281 -43 387 -93q212 -100 212 -345q0 -487 -804 -503l-45 -74q36 4 79 4q96 0 154 -45t58 -119q0 -178 -294 -178q-147 0 -292 39l37 104q104 -28 164 -28q98 0 98 63q0 51 -80 51q-33 0 -73 -14l-51 41z"/>
    <glyph glyph-name="scedilla" unicode="ş" horiz-adv-x="1554" vert-adv-y="1433" d="M701 -43q-634 24 -646 389h504q11 -69 69 -99t182 -30q201 0 201 100q0 39 -31.5 57.5t-117.5 28.5l-387 47q-200 25 -291.5 100t-91.5 214q0 202 164 296.5t513 94.5q332 0 497 -88.5t192 -280.5h-488q-16 119 -234 119q-198 0 -198 -101q0 -66 140 -81l374 -41 q235 -26 341 -106t106 -232q0 -188 -157.5 -281.5t-497.5 -107.5l-47 -74q38 4 88 4q89 0 146 -46t57 -118q0 -178 -295 -178q-145 0 -291 39l37 105q101 -29 164 -29q98 0 98 63q0 52 -81 52q-33 0 -72 -15l-52 41z"/>
    <glyph glyph-name="Cacute" unicode="Ć" horiz-adv-x="1972" vert-adv-y="1433" d="M1377 563h540q-36 -171 -92 -268.5t-160 -174.5q-225 -165 -667 -165q-926 0 -926 776t929 776q349 0 548 -99q149 -73 229.5 -186t134.5 -323h-543q-83 281 -377 281q-405 0 -405 -452q0 -446 404 -446q317 0 385 281zM756 1559l186 286h529l-305 -286h-410z"/>
    <glyph glyph-name="cacute" unicode="ć" vert-adv-y="1433" d="M1153 453h459q-34 -140 -81.5 -219t-135.5 -143q-188 -136 -549 -136q-329 0 -522 112q-258 149 -258 484q0 336 264 489q196 115 523 115q414 0 598 -176q63 -60 92.5 -123.5t48.5 -177.5h-447q-41 190 -289 190q-159 0 -245 -81.5t-86 -232.5q0 -149 85.5 -230.5 t242.5 -81.5q248 0 300 211zM631 1237l186 287h529l-305 -287h-410z"/>
    <glyph glyph-name="Ccaron" unicode="Č" horiz-adv-x="1972" vert-adv-y="1433" d="M1377 563h540q-36 -171 -92 -268.5t-160 -174.5q-225 -165 -667 -165q-926 0 -926 776t929 776q349 0 548 -99q149 -73 229.5 -186t134.5 -323h-543q-83 281 -377 281q-405 0 -405 -452q0 -446 404 -446q317 0 385 281zM402 1845h446l146 -157l145 157h480l-306 -286 h-606z"/>
    <glyph glyph-name="ccaron" unicode="č" vert-adv-y="1433" d="M1153 453h459q-34 -140 -81.5 -219t-135.5 -143q-188 -136 -549 -136q-329 0 -522 112q-258 149 -258 484q0 336 264 489q196 115 523 115q414 0 598 -176q63 -60 92.5 -123.5t48.5 -177.5h-447q-41 190 -289 190q-159 0 -245 -81.5t-86 -232.5q0 -149 85.5 -230.5 t242.5 -81.5q248 0 300 211zM536 1237l-305 287h479l146 -158l145 158h447l-306 -287h-606z"/>
    <glyph glyph-name="glyph257" horiz-adv-x="795" vert-adv-y="1433"/>
    <glyph glyph-name="nbspace" unicode=" " horiz-adv-x="795" vert-adv-y="1433"/>
    <glyph glyph-name="uni00AD" unicode="­" horiz-adv-x="985" vert-adv-y="1433" d="M125 436v316h735v-316h-735z"/>
    <glyph glyph-name="Amacron" unicode="Ā" horiz-adv-x="1745" vert-adv-y="1433" d="M-57 0l635 1462h596l629 -1462h-523l-88 238h-639l-88 -238h-522zM1078 541l-203 553h-4l-203 -553h410zM375 1565v238h995v-238h-995z"/>
    <glyph glyph-name="amacron" unicode="ā" vert-adv-y="1433" d="M565 762h-434q18 99 47.5 154t90.5 103q155 120 560 120q329 0 492 -68q211 -89 211 -309v-561q0 -118 45 -201h-434q-19 44 -23 102q-168 -147 -508 -147q-557 0 -557 354q0 169 114.5 253.5t365.5 101.5l432 28q74 5 102.5 23.5t28.5 62.5q0 124 -272 124 q-224 0 -261 -140zM1110 518q-62 -18 -166 -30l-293 -35q-125 -15 -125 -110q0 -138 210 -138q172 0 273 66.5t101 179.5v67zM368 1269v238h913v-238h-913z"/>
    <glyph glyph-name="Abreve" unicode="Ă" horiz-adv-x="1745" vert-adv-y="1433" d="M-57 0l635 1462h596l629 -1462h-523l-88 238h-639l-88 -238h-522zM1078 541l-203 553h-4l-203 -553h410zM414 1844h238q13 -56 65.5 -81t156.5 -25q103 0 153.5 24.5t66.5 81.5h238q-28 -169 -135.5 -244t-324.5 -75q-247 0 -358 105q-42 39 -63.5 85t-36.5 129z"/>
    <glyph glyph-name="abreve" unicode="ă" vert-adv-y="1433" d="M565 762h-434q18 99 47.5 154t90.5 103q155 120 560 120q329 0 492 -68q211 -89 211 -309v-561q0 -118 45 -201h-434q-19 44 -23 102q-168 -147 -508 -147q-557 0 -557 354q0 169 114.5 253.5t365.5 101.5l432 28q74 5 102.5 23.5t28.5 62.5q0 124 -272 124 q-224 0 -261 -140zM1110 518q-62 -18 -166 -30l-293 -35q-125 -15 -125 -110q0 -138 210 -138q172 0 273 66.5t101 179.5v67zM357 1524h238q13 -56 65.5 -81t155.5 -25q104 0 154.5 24.5t66.5 81.5h238q-28 -170 -135.5 -244.5t-325.5 -74.5q-246 0 -357 104 q-42 40 -63.5 86t-36.5 129z"/>
    <glyph glyph-name="Aogonek" unicode="Ą" horiz-adv-x="1745" vert-adv-y="1433" d="M1594 0h-314l-88 238h-639l-88 -238h-522l635 1462h596l629 -1462h-24q-115 -69 -160 -115.5t-45 -95.5q0 -39 32.5 -61.5t88.5 -22.5q52 0 114 23l11 -115q-116 -39 -264 -39q-269 0 -269 166q0 178 307 260zM1078 541l-203 553h-4l-203 -553h410z"/>
    <glyph glyph-name="aogonek" unicode="ą" vert-adv-y="1433" d="M1381 0h-238q-19 44 -23 102q-84 -73 -183 -105q-128 -42 -325 -42q-269 0 -405 78q-152 87 -152 276q0 183 135 268q112 71 345 87l432 28q74 5 102.5 23.5t28.5 62.5q0 64 -66 94t-206 30q-121 0 -181 -32t-80 -108h-434q18 102 45 150q63 112 205 169q146 58 448 58 q329 0 492 -68q211 -89 211 -309v-561q0 -70 9 -111t36 -90h-12q-115 -70 -160 -116t-45 -95q0 -39 32.5 -61.5t89.5 -22.5q52 0 114 23l10 -115q-115 -39 -263 -39q-269 0 -269 166q0 179 307 260zM1110 518q-62 -18 -166 -30l-293 -35q-125 -15 -125 -110q0 -138 210 -138 q172 0 273 66.5t101 179.5v67z"/>
    <glyph glyph-name="Ccircumflex" unicode="Ĉ" horiz-adv-x="1972" vert-adv-y="1433" d="M1377 563h540q-36 -171 -92 -268.5t-160 -174.5q-225 -165 -667 -165q-926 0 -926 776t929 776q349 0 548 -99q149 -73 229.5 -186t134.5 -323h-543q-83 281 -377 281q-405 0 -405 -452q0 -446 404 -446q317 0 385 281zM402 1562l305 286h606l306 -286h-480l-145 157 l-146 -157h-446z"/>
    <glyph glyph-name="ccircumflex" unicode="ĉ" vert-adv-y="1433" d="M1153 453h459q-34 -140 -81.5 -219t-135.5 -143q-188 -136 -549 -136q-329 0 -522 112q-258 149 -258 484q0 336 264 489q196 115 523 115q414 0 598 -176q63 -60 92.5 -123.5t48.5 -177.5h-447q-41 190 -289 190q-159 0 -245 -81.5t-86 -232.5q0 -149 85.5 -230.5 t242.5 -81.5q248 0 300 211zM243 1237l305 287h606l306 -287h-480l-145 158l-146 -158h-446z"/>
    <glyph glyph-name="Cdotaccent" unicode="Ċ" horiz-adv-x="1972" vert-adv-y="1433" d="M1377 563h540q-36 -171 -92 -268.5t-160 -174.5q-225 -165 -667 -165q-926 0 -926 776t929 776q349 0 548 -99q149 -73 229.5 -186t134.5 -323h-543q-83 281 -377 281q-405 0 -405 -452q0 -446 404 -446q317 0 385 281zM778 1576v262h435v-262h-435z"/>
    <glyph glyph-name="cdotaccent" unicode="ċ" vert-adv-y="1433" d="M1153 453h459q-34 -140 -81.5 -219t-135.5 -143q-188 -136 -549 -136q-329 0 -522 112q-258 149 -258 484q0 336 264 489q196 115 523 115q414 0 598 -176q63 -60 92.5 -123.5t48.5 -177.5h-447q-41 190 -289 190q-159 0 -245 -81.5t-86 -232.5q0 -149 85.5 -230.5 t242.5 -81.5q248 0 300 211zM622 1237v262h434v-262h-434z"/>
    <glyph glyph-name="Dcaron" unicode="Ď" horiz-adv-x="1972" vert-adv-y="1433" d="M147 0v1462h1056q697 0 697 -731t-760 -731h-993zM634 1135v-807h408q354 0 354 407q0 400 -393 400h-369zM348 1845h446l146 -157l145 157h480l-306 -286h-606z"/>
    <glyph glyph-name="dcaron" unicode="ď" horiz-adv-x="1990" vert-adv-y="1433" d="M1130 0v131h-4q-154 -176 -431 -176q-322 0 -498 192q-142 156 -142 404q0 247 159 408q180 180 484 180q285 0 416 -170h4v526h434v-1495h-422zM804 836q-302 0 -302 -283t306 -283q147 0 228.5 74t81.5 209t-82 209t-232 74zM1625 1494h297v-168q0 -126 -99 -182 q-87 -48 -198 -53v72q183 23 176 138h-176v193z"/>
    <glyph glyph-name="Dcroat" unicode="Đ" horiz-adv-x="1972" vert-adv-y="1433" d="M147 0v596h-147v274h147v592h1057q352 0 530 -196q166 -184 166 -535q0 -379 -201 -562q-186 -169 -559 -169h-993zM954 870v-274h-319v-268h407q209 0 297 151q57 100 57 255q0 401 -393 401h-368v-265h319z"/>
    <glyph glyph-name="dcroat" unicode="đ" vert-adv-y="1433" d="M1552 1212v-1212h-422v131h-4q-154 -176 -431 -176q-322 0 -498 192q-142 156 -142 403q0 248 159 409q180 180 484 180q285 0 416 -170h4v243h-408v214h408v69h434v-69h91v-214h-91zM804 836q-158 0 -237 -87q-65 -72 -65 -196q0 -139 81 -213q79 -70 225 -70 q161 0 243 89q67 73 67 194q0 135 -82 209t-232 74z"/>
    <glyph glyph-name="Emacron" unicode="Ē" horiz-adv-x="1669" vert-adv-y="1433" d="M147 0v1462h1464v-315h-977v-264h916v-303h-916v-265h977v-315h-1464zM382 1565v238h995v-238h-995z"/>
    <glyph glyph-name="emacron" unicode="ē" vert-adv-y="1433" d="M1123 330h459q-133 -375 -743 -375q-446 0 -637 206q-136 147 -136 383q0 344 270 499q195 112 498 112q419 0 614 -212q154 -167 154 -457v-33h-1090q50 -248 343 -248q166 0 268 125zM512 678h644q-56 227 -322 227q-267 0 -322 -227zM377 1269v238h913v-238h-913z"/>
    <glyph glyph-name="Ebreve" unicode="Ĕ" horiz-adv-x="1669" vert-adv-y="1433" d="M147 0v1462h1464v-315h-977v-264h916v-303h-916v-265h977v-315h-1464zM420 1853h238q13 -56 65.5 -81t156.5 -25q103 0 153.5 24.5t66.5 81.5h238q-28 -169 -135.5 -244t-324.5 -75q-247 0 -358 105q-42 39 -63.5 85t-36.5 129z"/>
    <glyph glyph-name="ebreve" unicode="ĕ" vert-adv-y="1433" d="M1123 330h459q-133 -375 -743 -375q-446 0 -637 206q-136 147 -136 383q0 344 270 499q195 112 498 112q419 0 614 -212q154 -167 154 -457v-33h-1090q50 -248 343 -248q166 0 268 125zM512 678h644q-56 227 -322 227q-267 0 -322 -227zM375 1547h238q13 -56 65.5 -81 t155.5 -25q104 0 154.5 24.5t66.5 81.5h238q-28 -170 -135.5 -244.5t-325.5 -74.5q-246 0 -357 104q-42 40 -63.5 86t-36.5 129z"/>
    <glyph glyph-name="Edotaccent" unicode="Ė" horiz-adv-x="1669" vert-adv-y="1433" d="M147 0v1462h1464v-315h-977v-264h916v-303h-916v-265h977v-315h-1464zM662 1549v262h435v-262h-435z"/>
    <glyph glyph-name="edotaccent" unicode="ė" vert-adv-y="1433" d="M1123 330h459q-133 -375 -743 -375q-446 0 -637 206q-136 147 -136 383q0 344 270 499q195 112 498 112q419 0 614 -212q154 -167 154 -457v-33h-1090q50 -248 343 -248q166 0 268 125zM512 678h644q-56 227 -322 227q-267 0 -322 -227zM617 1228v262h434v-262h-434z"/>
    <glyph glyph-name="Eogonek" unicode="Ę" horiz-adv-x="1669" vert-adv-y="1433" d="M1392 0h-1245v1462h1464v-315h-977v-264h916v-303h-916v-265h977v-315h-34q-120 -74 -162.5 -118t-42.5 -93q0 -39 32.5 -61.5t88.5 -22.5q53 0 114 23l10 -115q-114 -39 -263 -39q-269 0 -269 166q0 178 307 260z"/>
    <glyph glyph-name="eogonek" unicode="ę" vert-adv-y="1433" d="M829 -45q-325 7 -505 110q-258 148 -258 479q0 344 270 499q195 112 498 112q419 0 614 -212q154 -168 154 -457v-33h-1090q14 -67 36.5 -107t65.5 -73q89 -68 241 -68q91 0 151.5 28.5t116.5 96.5h459q-50 -155 -212 -257q-101 -61 -252 -92q-97 -60 -136 -103t-39 -89 q0 -39 32.5 -61.5t88.5 -22.5q54 0 115 23l10 -115q-116 -39 -264 -39q-268 0 -268 166q0 136 172 215zM512 678h644q-56 227 -322 227q-267 0 -322 -227z"/>
    <glyph glyph-name="Ecaron" unicode="Ě" horiz-adv-x="1669" vert-adv-y="1433" d="M147 0v1462h1464v-315h-977v-264h916v-303h-916v-265h977v-315h-1464zM271 1845h446l146 -157l145 157h480l-306 -286h-606z"/>
    <glyph glyph-name="ecaron" unicode="ě" vert-adv-y="1433" d="M1123 330h459q-133 -375 -743 -375q-446 0 -637 206q-136 147 -136 383q0 344 270 499q195 112 498 112q419 0 614 -212q154 -167 154 -457v-33h-1090q50 -248 343 -248q166 0 268 125zM512 678h644q-56 227 -322 227q-267 0 -322 -227zM531 1237l-305 287h479l146 -158 l145 158h447l-306 -287h-606z"/>
    <glyph glyph-name="Gcircumflex" unicode="Ĝ" horiz-adv-x="2048" vert-adv-y="1433" d="M1123 526v303h786v-829h-227l-60 151q-191 -196 -643 -196q-907 0 -907 765q0 364 236 573q242 214 692 214q370 0 609 -120q132 -67 200 -158.5t100 -247.5h-551q-66 211 -343 211q-207 0 -323 -122t-116 -341q0 -217 116.5 -338t325.5 -121q320 0 404 256h-299z M394 1568l305 286h606l306 -286h-480l-145 157l-146 -157h-446z"/>
    <glyph glyph-name="gcircumflex" unicode="ĝ" horiz-adv-x="1706" vert-adv-y="1433" d="M1169 969v141h422v-1010q0 -255 -142 -379q-168 -147 -619 -147q-365 0 -531.5 85.5t-208.5 295.5h479q35 -131 269 -131q173 0 246 66.5t73 222.5v77q-154 -141 -453 -141q-352 0 -521 183q-128 139 -128 358q0 243 168 392q177 157 488 157q314 0 454 -170h4zM831 852 q-146 0 -231.5 -71t-85.5 -193q0 -125 85.5 -194.5t237.5 -69.5q320 0 320 259q0 129 -85 199t-241 70zM230 1237l305 287h606l306 -287h-480l-145 158l-146 -158h-446z"/>
    <glyph glyph-name="Gdotaccent" unicode="Ġ" horiz-adv-x="2048" vert-adv-y="1433" d="M1123 526v303h786v-829h-227l-60 151q-191 -196 -643 -196q-907 0 -907 765q0 364 236 573q242 214 692 214q370 0 609 -120q132 -67 200 -158.5t100 -247.5h-551q-66 211 -343 211q-207 0 -323 -122t-116 -341q0 -217 116.5 -338t325.5 -121q320 0 404 256h-299z M795 1583v262h435v-262h-435z"/>
    <glyph glyph-name="gdotaccent" unicode="ġ" horiz-adv-x="1706" vert-adv-y="1433" d="M1169 969v141h422v-1010q0 -255 -142 -379q-168 -147 -619 -147q-365 0 -531.5 85.5t-208.5 295.5h479q35 -131 269 -131q173 0 246 66.5t73 222.5v77q-154 -141 -453 -141q-352 0 -521 183q-128 139 -128 358q0 243 168 392q177 157 488 157q314 0 454 -170h4zM831 852 q-146 0 -231.5 -71t-85.5 -193q0 -125 85.5 -194.5t237.5 -69.5q320 0 320 259q0 129 -85 199t-241 70zM606 1234v262h434v-262h-434z"/>
    <glyph glyph-name="Gcommaaccent" unicode="Ģ" horiz-adv-x="2048" vert-adv-y="1433" d="M1123 526v303h786v-829h-227l-60 151q-191 -196 -643 -196q-907 0 -907 765q0 364 236 573q242 214 692 214q370 0 609 -120q132 -67 200 -158.5t100 -247.5h-551q-66 211 -343 211q-207 0 -323 -122t-116 -341q0 -217 116.5 -338t325.5 -121q320 0 404 256h-299z M857 -102h297v-169q0 -66 -23.5 -109t-75.5 -73q-87 -48 -198 -53v72q183 23 176 138h-176v194z"/>
    <glyph glyph-name="gcommaaccent" unicode="ģ" horiz-adv-x="1706" vert-adv-y="1433" d="M1169 969v141h422v-1010q0 -255 -142 -379q-168 -147 -619 -147q-365 0 -531.5 85.5t-208.5 295.5h479q35 -131 269 -131q173 0 246 66.5t73 222.5v77q-154 -141 -453 -141q-352 0 -521 183q-128 139 -128 358q0 243 168 392q177 157 488 157q314 0 454 -170h4zM831 852 q-146 0 -231.5 -71t-85.5 -193q0 -125 85.5 -194.5t237.5 -69.5q320 0 320 259q0 129 -85 199t-241 70zM996 1273h-297v169q0 66 23.5 109.5t75.5 72.5q87 48 198 53v-72q-183 -23 -176 -138h176v-194z"/>
    <glyph glyph-name="Hcircumflex" unicode="Ĥ" horiz-adv-x="2009" vert-adv-y="1433" d="M1374 0v612h-740v-612h-487v1462h487v-522h740v522h487v-1462h-487zM396 1559l305 286h606l306 -286h-480l-145 157l-146 -157h-446z"/>
    <glyph glyph-name="hcircumflex" unicode="ĥ" horiz-adv-x="1593" vert-adv-y="1433" d="M115 0v1499h434v-549h4q146 189 453 189q224 0 348.5 -107.5t124.5 -300.5v-731h-434v600q0 211 -225 211q-128 0 -199.5 -70.5t-71.5 -195.5v-545h-434zM-256 1559l305 286h606l306 -286h-480l-145 157l-146 -157h-446z"/>
    <glyph glyph-name="Hbar" unicode="Ħ" horiz-adv-x="2009" vert-adv-y="1433" d="M1862 1100v-1100h-488v612h-739v-612h-487v1100h-115v238h115v124h487v-124h739v124h488v-124h126v-238h-126zM1374 1100h-739v-160h739v160z"/>
    <glyph glyph-name="hbar" unicode="ħ" horiz-adv-x="1593" vert-adv-y="1433" d="M549 1188v-238h4q145 189 454 189q251 0 376 -136q96 -104 96 -272v-731h-434v600q0 211 -225 211q-128 0 -199.5 -70.5t-71.5 -195.5v-545h-434v1188h-104v238h104v73h434v-73h375v-238h-375z"/>
    <glyph glyph-name="Itilde" unicode="Ĩ" horiz-adv-x="795" vert-adv-y="1433" d="M153 0v1462h487v-1462h-487zM45 1548h-197q27 99 55 147q90 150 276 150q60 0 146 -18l285 -60l17 -4q28 -7 41 -7q57 0 87 73h191q-48 -304 -294 -304q-53 0 -102 9t-288 63l-20 5q-88 20 -106 20q-69 0 -91 -74z"/>
    <glyph glyph-name="itilde" unicode="ĩ" horiz-adv-x="680" vert-adv-y="1433" d="M123 0v1110h434v-1110h-434zM-12 1227h-197q27 99 56 147q89 150 275 150q55 0 146 -19l285 -59q3 -1 17 -4q27 -7 41 -7q58 0 87 72h191q-48 -303 -294 -303q-53 0 -102 9t-288 63l-20 5q-88 20 -106 20q-68 0 -91 -74z"/>
    <glyph glyph-name="Imacron" unicode="Ī" horiz-adv-x="795" vert-adv-y="1433" d="M154 0v1462h487v-1462h-487zM-100 1565v238h995v-238h-995z"/>
    <glyph glyph-name="imacron" unicode="ī" horiz-adv-x="680" vert-adv-y="1433" d="M123 0v1110h434v-1110h-434zM-117 1269v238h913v-238h-913z"/>
    <glyph glyph-name="Ibreve" unicode="Ĭ" horiz-adv-x="795" vert-adv-y="1433" d="M154 0v1462h487v-1462h-487zM-61 1844h238q13 -56 65.5 -81t156.5 -25q103 0 153.5 24.5t66.5 81.5h238q-28 -169 -135.5 -244t-324.5 -75q-247 0 -358 105q-42 39 -63.5 85t-36.5 129z"/>
    <glyph glyph-name="ibreve" unicode="ĭ" horiz-adv-x="680" vert-adv-y="1433" d="M123 0v1110h434v-1110h-434zM-119 1524h238q13 -56 65.5 -81t155.5 -25q104 0 154.5 24.5t66.5 81.5h238q-28 -170 -135.5 -244.5t-325.5 -74.5q-246 0 -357 104q-42 40 -63.5 86t-36.5 129z"/>
    <glyph glyph-name="Iogonek" unicode="Į" horiz-adv-x="795" vert-adv-y="1433" d="M438 0h-284v1462h487v-1462h-18q-120 -74 -162.5 -118t-42.5 -93q0 -39 32.5 -61.5t88.5 -22.5q52 0 114 23l10 -115q-115 -39 -263 -39q-269 0 -269 166q0 122 146 202q56 30 161 58z"/>
    <glyph glyph-name="iogonek" unicode="į" horiz-adv-x="680" vert-adv-y="1433" d="M360 0h-237v1110h434v-1110h-13q-115 -70 -160 -116t-45 -95q0 -39 32.5 -61.5t89.5 -22.5q52 0 114 23l10 -115q-114 -39 -263 -39q-269 0 -269 166q0 179 307 260zM123 1237v262h434v-262h-434z"/>
    <glyph glyph-name="Idotaccent" unicode="İ" horiz-adv-x="795" vert-adv-y="1433" d="M154 0v1462h487v-1462h-487zM181 1549v262h435v-262h-435z"/>
    <glyph glyph-name="Jcircumflex" unicode="Ĵ" horiz-adv-x="1518" vert-adv-y="1433" d="M1394 1462v-954q0 -283 -148 -414q-159 -139 -522 -139q-374 0 -540 134t-166 436v61h488q1 -187 41.5 -251t157.5 -64q112 0 157 59t45 207v925h487zM541 1559l305 286h606l306 -286h-480l-145 157l-146 -157h-446z"/>
    <glyph glyph-name="Kcommaaccent" unicode="Ķ" horiz-adv-x="1896" vert-adv-y="1433" d="M147 0v1462h487v-573l610 573h650l-662 -575l713 -887h-652l-452 584l-207 -172v-412h-487zM849 -96h297v-169q0 -66 -23.5 -109t-75.5 -73q-87 -48 -198 -53v72q183 23 176 138h-176v194z"/>
    <glyph glyph-name="kcommaaccent" unicode="ķ" horiz-adv-x="1593" vert-adv-y="1433" d="M115 0v1499h434v-776l434 387h588l-512 -412l561 -698h-590l-315 420l-166 -133v-287h-434zM656 -96h297v-169q0 -66 -23.5 -109t-75.5 -73q-87 -48 -198 -53v72q183 23 176 138h-176v194z"/>
    <glyph glyph-name="Lacute" unicode="Ĺ" horiz-adv-x="1556" vert-adv-y="1433" d="M147 0v1462h487v-1122h891v-340h-1378zM191 1559l186 286h529l-305 -286h-410z"/>
    <glyph glyph-name="lacute" unicode="ĺ" horiz-adv-x="680" vert-adv-y="1433" d="M123 0v1499h434v-1499h-434zM147 1578l186 287h529l-305 -287h-410z"/>
    <glyph glyph-name="Lcommaaccent" unicode="Ļ" horiz-adv-x="1556" vert-adv-y="1433" d="M147 0v1462h487v-1122h891v-340h-1378zM691 -96h297v-169q0 -66 -23.5 -109t-75.5 -73q-87 -48 -198 -53v72q183 23 176 138h-176v194z"/>
    <glyph glyph-name="lcommaaccent" unicode="ļ" horiz-adv-x="680" vert-adv-y="1433" d="M123 0v1499h434v-1499h-434zM195 -96h297v-169q0 -66 -23.5 -109t-75.5 -73q-87 -48 -198 -53v72q183 23 176 138h-176v194z"/>
    <glyph glyph-name="Lcaron" unicode="Ľ" horiz-adv-x="1556" vert-adv-y="1433" d="M147 0v1462h487v-1122h891v-340h-1378zM1029 1462h297v-169q0 -66 -23.5 -109.5t-75.5 -72.5q-87 -48 -198 -53v72q183 23 176 138h-176v194z"/>
    <glyph glyph-name="lcaron" unicode="ľ" horiz-adv-x="989" vert-adv-y="1433" d="M123 0v1499h434v-1499h-434zM624 1498h297v-168q0 -126 -99 -182q-87 -48 -198 -53v72q183 23 176 138h-176v193z"/>
    <glyph glyph-name="Ldot" unicode="Ŀ" horiz-adv-x="1556" vert-adv-y="1433" d="M147 0v1462h487v-1122h891v-340h-1378zM1034 1035q100 0 171 -71.5t71 -172.5t-71 -172t-173 -71q-101 0 -172 71t-71 172q0 102 71.5 173t173.5 71z"/>
    <glyph glyph-name="ldot" unicode="ŀ" horiz-adv-x="1185" vert-adv-y="1433" d="M123 0v1499h434v-1499h-434zM872 851q100 0 171 -71.5t71 -172.5t-71 -172t-173 -71q-101 0 -172 71t-71 172q0 102 71.5 173t173.5 71z"/>
    <glyph glyph-name="Nacute" unicode="Ń" horiz-adv-x="2009" vert-adv-y="1433" d="M147 0v1462h561l678 -915h4v915h471v-1462h-539l-700 924h-4v-924h-471zM784 1559l186 286h529l-305 -286h-410z"/>
    <glyph glyph-name="nacute" unicode="ń" horiz-adv-x="1593" vert-adv-y="1433" d="M115 0v1110h422v-160h4q165 189 465 189q224 0 348.5 -107.5t124.5 -300.5v-731h-434v600q0 211 -225 211q-128 0 -199.5 -70.5t-71.5 -195.5v-545h-434zM610 1237l186 287h529l-305 -287h-410z"/>
    <glyph glyph-name="Ncommaaccent" unicode="Ņ" horiz-adv-x="2009" vert-adv-y="1433" d="M147 0v1462h561l678 -915h4v915h471v-1462h-539l-700 924h-4v-924h-471zM874 -96h297v-169q0 -66 -23.5 -109t-75.5 -73q-87 -48 -198 -53v72q183 23 176 138h-176v194z"/>
    <glyph glyph-name="ncommaaccent" unicode="ņ" horiz-adv-x="1593" vert-adv-y="1433" d="M115 0v1110h422v-160h4q165 189 465 189q224 0 348.5 -107.5t124.5 -300.5v-731h-434v600q0 211 -225 211q-128 0 -199.5 -70.5t-71.5 -195.5v-545h-434zM648 -96h297v-169q0 -66 -23.5 -109t-75.5 -73q-87 -48 -198 -53v72q183 23 176 138h-176v194z"/>
    <glyph glyph-name="Ncaron" unicode="Ň" horiz-adv-x="2009" vert-adv-y="1433" d="M147 0v1462h561l678 -915h4v915h471v-1462h-539l-700 924h-4v-924h-471zM396 1845h446l146 -157l145 157h480l-306 -286h-606z"/>
    <glyph glyph-name="ncaron" unicode="ň" horiz-adv-x="1593" vert-adv-y="1433" d="M115 0v1110h422v-160h4q165 189 465 189q224 0 348.5 -107.5t124.5 -300.5v-731h-434v600q0 211 -225 211q-128 0 -199.5 -70.5t-71.5 -195.5v-545h-434zM494 1237l-305 287h479l146 -158l145 158h447l-306 -287h-606z"/>
    <glyph glyph-name="napostrophe" unicode="ŉ" horiz-adv-x="1853" vert-adv-y="1433" d="M375 0v1110h422v-160h4q165 189 465 189q224 0 348.5 -107.5t124.5 -300.5v-731h-434v600q0 211 -225 211q-128 0 -199.5 -70.5t-71.5 -195.5v-545h-434zM51 1515h297v-168q0 -126 -99 -182q-87 -48 -198 -53v72q183 23 176 138h-176v193z"/>
    <glyph glyph-name="Omacron" unicode="Ō" horiz-adv-x="2048" vert-adv-y="1433" d="M1036 1507q941 0 941 -776t-953 -776q-952 0 -952 768q0 464 324 650q235 134 640 134zM1020 1180q-205 0 -318.5 -117.5t-113.5 -330.5q0 -216 113.5 -332.5t323.5 -116.5t323 116t113 333q0 216 -114 332t-327 116zM527 1589v238h995v-238h-995z"/>
    <glyph glyph-name="omacron" unicode="ō" vert-adv-y="1433" d="M843 1155q371 0 569.5 -155t198.5 -445q0 -272 -175 -425q-198 -175 -603 -175q-446 0 -642 211q-136 148 -136 389q0 272 174 426q199 174 614 174zM829 868q-150 0 -232.5 -82t-82.5 -231q0 -151 83 -232t237 -81q153 0 236 81.5t83 231.5q0 313 -324 313zM377 1269 v238h913v-238h-913z"/>
    <glyph glyph-name="Obreve" unicode="Ŏ" horiz-adv-x="2048" vert-adv-y="1433" d="M1036 1507q941 0 941 -776t-953 -776q-952 0 -952 768q0 464 324 650q235 134 640 134zM1020 1180q-205 0 -318.5 -117.5t-113.5 -330.5q0 -216 113.5 -332.5t323.5 -116.5t323 116t113 333q0 216 -114 332t-327 116zM566 1874h238q13 -56 65.5 -81t156.5 -25 q103 0 153.5 24.5t66.5 81.5h238q-28 -169 -135.5 -244t-324.5 -75q-247 0 -358 105q-42 39 -63.5 85t-36.5 129z"/>
    <glyph glyph-name="obreve" unicode="ŏ" vert-adv-y="1433" d="M843 1155q371 0 569.5 -155t198.5 -445q0 -272 -175 -425q-198 -175 -603 -175q-446 0 -642 211q-136 148 -136 389q0 272 174 426q199 174 614 174zM829 868q-150 0 -232.5 -82t-82.5 -231q0 -151 83 -232t237 -81q153 0 236 81.5t83 231.5q0 313 -324 313zM374 1535 h238q13 -56 65.5 -81t155.5 -25q104 0 154.5 24.5t66.5 81.5h238q-28 -170 -135.5 -244.5t-325.5 -74.5q-246 0 -357 104q-42 40 -63.5 86t-36.5 129z"/>
    <glyph glyph-name="Ohungarumlaut" unicode="Ő" horiz-adv-x="2048" vert-adv-y="1433" d="M1036 1507q941 0 941 -776t-953 -776q-952 0 -952 768q0 464 324 650q235 134 640 134zM1020 1180q-205 0 -318.5 -117.5t-113.5 -330.5q0 -216 113.5 -332.5t323.5 -116.5t323 116t113 333q0 216 -114 332t-327 116zM466 1575l186 287h529l-305 -287h-410zM1091 1575 l186 287h528l-305 -287h-409z"/>
    <glyph glyph-name="ohungarumlaut" unicode="ő" vert-adv-y="1433" d="M843 1155q371 0 569.5 -155t198.5 -445q0 -272 -175 -425q-198 -175 -603 -175q-446 0 -642 211q-136 148 -136 389q0 272 174 426q199 174 614 174zM829 868q-150 0 -232.5 -82t-82.5 -231q0 -151 83 -232t237 -81q153 0 236 81.5t83 231.5q0 313 -324 313zM302 1237 l186 287h529l-305 -287h-410zM927 1237l186 287h528l-305 -287h-409z"/>
    <glyph glyph-name="Racute" unicode="Ŕ" horiz-adv-x="1896" vert-adv-y="1433" d="M147 0v1462h1171q490 0 490 -405q0 -268 -234 -337v-4q98 -36 134 -106.5t50 -250.5q12 -167 29 -238t55 -121h-534q-29 75 -29 192v25q0 149 -44.5 209.5t-154.5 60.5h-446v-487h-487zM634 1135v-320h469q182 0 182 161q0 159 -182 159h-469zM689 1559l186 286h529 l-305 -286h-410z"/>
    <glyph glyph-name="racute" unicode="ŕ" horiz-adv-x="1176" vert-adv-y="1433" d="M123 0v1110h428v-219h4q158 248 455 248q73 0 145 -13v-405q-111 37 -242 37q-356 0 -356 -328v-430h-434zM368 1237l186 287h529l-305 -287h-410z"/>
    <glyph glyph-name="Rcommaaccent" unicode="Ŗ" horiz-adv-x="1896" vert-adv-y="1433" d="M147 0v1462h1171q490 0 490 -405q0 -268 -234 -337v-4q98 -36 134 -106.5t50 -250.5q12 -167 29 -238t55 -121h-534q-29 75 -29 192v25q0 149 -44.5 209.5t-154.5 60.5h-446v-487h-487zM634 1135v-320h469q182 0 182 161q0 159 -182 159h-469zM843 -96h297v-169 q0 -66 -23.5 -109t-75.5 -73q-87 -48 -198 -53v72q183 23 176 138h-176v194z"/>
    <glyph glyph-name="rcommaaccent" unicode="ŗ" horiz-adv-x="1176" vert-adv-y="1433" d="M123 0v1110h428v-219h4q158 248 455 248q73 0 145 -13v-405q-111 37 -242 37q-356 0 -356 -328v-430h-434zM202 -96h297v-169q0 -66 -23.5 -109t-75.5 -73q-87 -48 -198 -53v72q183 23 176 138h-176v194z"/>
    <glyph glyph-name="Rcaron" unicode="Ř" horiz-adv-x="1896" vert-adv-y="1433" d="M147 0v1462h1171q490 0 490 -405q0 -268 -234 -337v-4q98 -36 134 -106.5t50 -250.5q12 -167 29 -238t55 -121h-534q-29 75 -29 192v25q0 149 -44.5 209.5t-154.5 60.5h-446v-487h-487zM634 1135v-320h469q182 0 182 161q0 159 -182 159h-469zM323 1845h446l146 -157 l145 157h480l-306 -286h-606z"/>
    <glyph glyph-name="rcaron" unicode="ř" horiz-adv-x="1176" vert-adv-y="1433" d="M123 0v1110h428v-219h4q158 248 455 248q73 0 145 -13v-405q-111 37 -242 37q-356 0 -356 -328v-430h-434zM306 1246l-305 287h479l146 -158l145 158h447l-306 -287h-606z"/>
    <glyph glyph-name="Sacute" unicode="Ś" horiz-adv-x="1821" vert-adv-y="1433" d="M1712 1034h-553q-33 170 -313 170q-258 0 -258 -140q0 -52 37 -70.5t185 -41.5q45 -6 156 -24q123 -19 208 -32q281 -42 387 -92q212 -100 212 -346q0 -256 -222 -384q-208 -119 -646 -119q-416 0 -624 111q-110 59 -162.5 145.5t-71.5 239.5h578q13 -99 85 -139.5 t234 -40.5q264 0 264 151q0 57 -48.5 85t-182.5 48l-488 74q-417 63 -417 409q0 469 781 469q403 0 623 -116q109 -57 162 -137.5t74 -219.5zM657 1571l186 286h529l-305 -286h-410z"/>
    <glyph glyph-name="sacute" unicode="ś" horiz-adv-x="1554" vert-adv-y="1433" d="M55 346h504q11 -69 69 -99t182 -30q201 0 201 100q0 39 -31.5 57.5t-117.5 28.5l-387 47q-200 25 -291.5 100t-91.5 214q0 202 164 296.5t513 94.5q332 0 497 -88.5t192 -280.5h-488q-16 119 -234 119q-198 0 -198 -101q0 -66 140 -81l374 -41q235 -26 341 -106t106 -232 q0 -389 -707 -389q-367 0 -558 105q-88 49 -128.5 114t-50.5 172zM533 1237l186 287h529l-305 -287h-410z"/>
    <glyph glyph-name="Scircumflex" unicode="Ŝ" horiz-adv-x="1821" vert-adv-y="1433" d="M1712 1034h-553q-33 170 -313 170q-258 0 -258 -140q0 -52 37 -70.5t185 -41.5q45 -6 156 -24q123 -19 208 -32q281 -42 387 -92q212 -100 212 -346q0 -256 -222 -384q-208 -119 -646 -119q-416 0 -624 111q-110 59 -162.5 145.5t-71.5 239.5h578q13 -99 85 -139.5 t234 -40.5q264 0 264 151q0 57 -48.5 85t-182.5 48l-488 74q-417 63 -417 409q0 469 781 469q403 0 623 -116q109 -57 162 -137.5t74 -219.5zM302 1571l305 286h606l306 -286h-480l-145 157l-146 -157h-446z"/>
    <glyph glyph-name="scircumflex" unicode="ŝ" horiz-adv-x="1554" vert-adv-y="1433" d="M55 346h504q11 -69 69 -99t182 -30q201 0 201 100q0 39 -31.5 57.5t-117.5 28.5l-387 47q-200 25 -291.5 100t-91.5 214q0 202 164 296.5t513 94.5q332 0 497 -88.5t192 -280.5h-488q-16 119 -234 119q-198 0 -198 -101q0 -66 140 -81l374 -41q235 -26 341 -106t106 -232 q0 -389 -707 -389q-367 0 -558 105q-88 49 -128.5 114t-50.5 172zM175 1237l305 287h606l306 -287h-480l-145 158l-146 -158h-446z"/>
    <glyph glyph-name="Tcommaaccent" unicode="Ţ" horiz-adv-x="1556" vert-adv-y="1433" d="M-2 1135v327h1561v-327h-537v-1135h-487v1135h-537zM630 -96h297v-169q0 -66 -23.5 -109t-75.5 -73q-87 -48 -198 -53v72q183 23 176 138h-176v194z"/>
    <glyph glyph-name="tcommaaccent" unicode="ţ" horiz-adv-x="1024" vert-adv-y="1433" d="M0 823v287h227v352h435v-352h286v-287h-286v-446q0 -71 24 -93t102 -22q69 0 168 4v-270q-151 -21 -325 -21q-226 0 -315 68.5t-89 241.5v538h-227zM305 -96h297v-169q0 -66 -23.5 -109t-75.5 -73q-87 -48 -198 -53v72q183 23 176 138h-176v194z"/>
    <glyph glyph-name="Tcaron" unicode="Ť" horiz-adv-x="1556" vert-adv-y="1433" d="M-2 1135v327h1561v-327h-537v-1135h-487v1135h-537zM170 1845h446l146 -157l145 157h480l-306 -286h-606z"/>
    <glyph glyph-name="tcaron" unicode="ť" horiz-adv-x="1194" vert-adv-y="1433" d="M0 823v287h227v352h435v-352h286v-287h-286v-446q0 -71 24 -93t102 -22q69 0 168 4v-270q-151 -21 -325 -21q-226 0 -315 68.5t-89 241.5v538h-227zM844 1655h297v-168q0 -126 -99 -182q-87 -48 -198 -53v72q183 23 176 138h-176v193z"/>
    <glyph glyph-name="Tbar" unicode="Ŧ" horiz-adv-x="1556" vert-adv-y="1433" d="M535 913v222h-537v327h1561v-327h-537v-222h254v-238h-254v-675h-487v675h-254v238h254z"/>
    <glyph glyph-name="tbar" unicode="ŧ" horiz-adv-x="1024" vert-adv-y="1433" d="M227 823h-227v287h227v352h435v-352h286v-287h-286v-90h286v-287h-286v-69q0 -71 24 -93t100 -22q68 0 170 4v-270q-151 -21 -325 -21q-134 0 -215 22t-125 70q-64 70 -64 218v161h-227v287h227v90z"/>
    <glyph glyph-name="Utilde" unicode="Ũ" horiz-adv-x="1896" vert-adv-y="1433" d="M1769 1462v-946q0 -561 -821 -561t-821 561v946h487v-866q0 -168 77.5 -241t256.5 -73t256.5 73t77.5 241v866h487zM596 1548h-197q27 99 55 147q90 150 276 150q60 0 146 -18l285 -60l17 -4q28 -7 41 -7q57 0 87 73h191q-48 -304 -294 -304q-53 0 -102 9t-288 63l-20 5 q-88 20 -106 20q-69 0 -91 -74z"/>
    <glyph glyph-name="utilde" unicode="ũ" horiz-adv-x="1593" vert-adv-y="1433" d="M1053 143q-164 -188 -468 -188q-470 0 -470 448v707h434v-573q0 -254 224 -254q128 0 200 70t72 196v561h434v-1110h-422v143h-4zM445 1230h-197q27 99 56 147q89 150 275 150q55 0 146 -19l285 -59q3 -1 17 -4q27 -7 41 -7q58 0 87 72h191q-48 -303 -294 -303 q-53 0 -102 9t-288 63l-20 5q-88 20 -106 20q-68 0 -91 -74z"/>
    <glyph glyph-name="Umacron" unicode="Ū" horiz-adv-x="1896" vert-adv-y="1433" d="M1769 1462v-946q0 -561 -821 -561t-821 561v946h487v-866q0 -168 77.5 -241t256.5 -73t256.5 73t77.5 241v866h487zM451 1565v238h995v-238h-995z"/>
    <glyph glyph-name="umacron" unicode="ū" horiz-adv-x="1593" vert-adv-y="1433" d="M1053 143q-164 -188 -468 -188q-470 0 -470 448v707h434v-573q0 -254 224 -254q128 0 200 70t72 196v561h434v-1110h-422v143h-4zM340 1269v238h913v-238h-913z"/>
    <glyph glyph-name="Ubreve" unicode="Ŭ" horiz-adv-x="1896" vert-adv-y="1433" d="M1769 1462v-946q0 -561 -821 -561t-821 561v946h487v-866q0 -168 77.5 -241t256.5 -73t256.5 73t77.5 241v866h487zM489 1844h238q13 -56 65.5 -81t156.5 -25q103 0 153.5 24.5t66.5 81.5h238q-28 -169 -135.5 -244t-324.5 -75q-247 0 -358 105q-42 39 -63.5 85 t-36.5 129z"/>
    <glyph glyph-name="ubreve" unicode="ŭ" horiz-adv-x="1593" vert-adv-y="1433" d="M1053 143q-164 -188 -468 -188q-470 0 -470 448v707h434v-573q0 -254 224 -254q128 0 200 70t72 196v561h434v-1110h-422v143h-4zM338 1524h238q13 -56 65.5 -81t155.5 -25q104 0 154.5 24.5t66.5 81.5h238q-28 -170 -135.5 -244.5t-325.5 -74.5q-246 0 -357 104 q-42 40 -63.5 86t-36.5 129z"/>
    <glyph glyph-name="Uring" unicode="Ů" horiz-adv-x="1896" vert-adv-y="1433" d="M1769 1462v-946q0 -561 -821 -561t-821 561v946h487v-866q0 -168 77.5 -241t256.5 -73t256.5 73t77.5 241v866h487zM951 2046q110 0 189 -79t79 -192q0 -112 -79 -191t-192 -79q-112 0 -191 79t-79 191t79 192q79 79 194 79zM947 1894q-48 0 -82.5 -35t-34.5 -83 q0 -50 34.5 -84.5t83.5 -34.5t84 35t35 83q0 50 -35 84.5t-85 34.5z"/>
    <glyph glyph-name="uring" unicode="ů" horiz-adv-x="1593" vert-adv-y="1433" d="M1053 143q-164 -188 -468 -188q-470 0 -470 448v707h434v-573q0 -254 224 -254q128 0 200 70t72 196v561h434v-1110h-422v143h-4zM800 1745q110 0 189 -79q79 -80 79 -192t-79 -191t-192 -79q-112 0 -191 79t-79 191t79 192q79 79 194 79zM797 1593q-49 0 -83.5 -35 t-34.5 -83q0 -50 34.5 -84.5t84.5 -34.5q49 0 83.5 35t34.5 83q0 50 -35 84.5t-84 34.5z"/>
    <glyph glyph-name="Uhungarumlaut" unicode="Ű" horiz-adv-x="1896" vert-adv-y="1433" d="M1769 1462v-946q0 -561 -821 -561t-821 561v946h487v-866q0 -168 77.5 -241t256.5 -73t256.5 73t77.5 241v866h487zM393 1575l186 287h529l-305 -287h-410zM1018 1575l186 287h528l-305 -287h-409z"/>
    <glyph glyph-name="uhungarumlaut" unicode="ű" horiz-adv-x="1593" vert-adv-y="1433" d="M1053 143q-164 -188 -468 -188q-470 0 -470 448v707h434v-573q0 -254 224 -254q128 0 200 70t72 196v561h434v-1110h-422v143h-4zM245 1237l186 287h529l-305 -287h-410zM870 1237l186 287h528l-305 -287h-409z"/>
    <glyph glyph-name="Uogonek" unicode="Ų" horiz-adv-x="1896" vert-adv-y="1433" d="M943 -45q-376 0 -580 117q-236 135 -236 444v946h487v-866q0 -168 77.5 -241t256.5 -73q191 0 267 84q67 74 67 230v866h487v-946q0 -464 -549 -542q-91 -59 -127 -99.5t-36 -85.5q0 -39 32.5 -61.5t88.5 -22.5q54 0 115 22l10 -114q-114 -39 -265 -39q-268 0 -268 166 q0 130 173 215z"/>
    <glyph glyph-name="uogonek" unicode="ų" horiz-adv-x="1593" vert-adv-y="1433" d="M1277 0h-220v143h-4q-164 -188 -468 -188q-247 0 -368 131q-102 112 -102 317v707h434v-573q0 -132 54 -193t170 -61q128 0 200 70t72 196v561h434v-1110h-18q-113 -69 -158.5 -115.5t-45.5 -95.5q0 -39 32.5 -61.5t88.5 -22.5q52 0 114 23l10 -115q-115 -39 -258 -39 q-274 0 -274 166q0 179 307 260z"/>
    <glyph glyph-name="Wcircumflex" unicode="Ŵ" horiz-adv-x="2351" vert-adv-y="1433" d="M438 0l-438 1462h471l229 -987h5l264 987h413l265 -987h4l229 987h471l-438 -1462h-481l-254 952h-4l-254 -952h-482zM567 1559l305 286h606l306 -286h-480l-145 157l-146 -157h-446z"/>
    <glyph glyph-name="wcircumflex" unicode="ŵ" horiz-adv-x="2314" vert-adv-y="1433" d="M405 0l-401 1110h471l229 -729h5l251 729h394l252 -729h4l229 729h471l-401 -1110h-516l-234 653h-4l-233 -653h-517zM549 1237l305 287h606l306 -287h-480l-145 158l-146 -158h-446z"/>
    <glyph glyph-name="Ycircumflex" unicode="Ŷ" vert-adv-y="1433" d="M590 0v461l-649 1001h565l328 -620l328 620h565l-649 -1001v-461h-488zM226 1559l305 286h606l306 -286h-480l-145 157l-146 -157h-446z"/>
    <glyph glyph-name="ycircumflex" unicode="ŷ" horiz-adv-x="1403" vert-adv-y="1433" d="M131 -389v274h104q159 0 199 80l49 98l-522 1047h471l281 -660l270 660h459l-590 -1250q-74 -155 -158.5 -208t-259.5 -53q-143 0 -303 12zM96 1237l305 287h606l306 -287h-480l-145 158l-146 -158h-446z"/>
    <glyph glyph-name="Zacute" unicode="Ź" vert-adv-y="1433" d="M37 0v281l922 854h-859v327h1512v-286l-916 -848h902v-328h-1561zM586 1559l186 286h529l-305 -286h-410z"/>
    <glyph glyph-name="zacute" unicode="ź" horiz-adv-x="1366" vert-adv-y="1433" d="M45 0v262l668 541v4h-633v303h1220v-262l-647 -545h668v-303h-1276zM445 1237l186 287h529l-305 -287h-410z"/>
    <glyph glyph-name="Zdotaccent" unicode="Ż" vert-adv-y="1433" d="M37 0v281l922 854h-859v327h1512v-286l-916 -848h902v-328h-1561zM613 1555v262h435v-262h-435z"/>
    <glyph glyph-name="zdotaccent" unicode="ż" horiz-adv-x="1366" vert-adv-y="1433" d="M45 0v262l668 541v4h-633v303h1220v-262l-647 -545h668v-303h-1276zM466 1219v262h434v-262h-434z"/>
    <glyph glyph-name="uni018F" unicode="Ə" horiz-adv-x="2109" vert-adv-y="1433" d="M1541 893q-88 290 -481 290q-160 0 -275 -40.5t-197 -125.5l-398 135q101 129 238 205q270 147 648 147q370 0 617 -154q143 -88 232 -225q115 -178 115 -394q0 -239 -143 -429q-143 -192 -389 -279q-192 -68 -444 -68q-441 0 -706 210q-137 109 -212 261 q-78 156 -78 328q0 61 12 139h1461zM1540 572h-991q27 -98 102 -166q144 -130 410 -130q192 0 316 76.5t163 219.5z"/>
    <glyph glyph-name="uni01CD" unicode="Ǎ" horiz-adv-x="1745" vert-adv-y="1433" d="M-57 0l635 1462h596l629 -1462h-523l-88 238h-639l-88 -238h-522zM1078 541l-203 553h-4l-203 -553h410zM265 1845h446l146 -157l145 157h480l-306 -286h-606z"/>
    <glyph glyph-name="uni01CE" unicode="ǎ" vert-adv-y="1433" d="M565 762h-434q18 99 47.5 154t90.5 103q155 120 560 120q329 0 492 -68q211 -89 211 -309v-561q0 -118 45 -201h-434q-19 44 -23 102q-168 -147 -508 -147q-557 0 -557 354q0 169 114.5 253.5t365.5 101.5l432 28q74 5 102.5 23.5t28.5 62.5q0 124 -272 124 q-224 0 -261 -140zM1110 518q-62 -18 -166 -30l-293 -35q-125 -15 -125 -110q0 -138 210 -138q172 0 273 66.5t101 179.5v67zM513 1237l-305 287h479l146 -158l145 158h447l-306 -287h-606z"/>
    <glyph glyph-name="uni01D3" unicode="Ǔ" horiz-adv-x="1896" vert-adv-y="1433" d="M1769 1462v-946q0 -561 -821 -561t-821 561v946h487v-866q0 -168 77.5 -241t256.5 -73t256.5 73t77.5 241v866h487zM340 1845h446l146 -157l145 157h480l-306 -286h-606z"/>
    <glyph glyph-name="uni01D4" unicode="ǔ" horiz-adv-x="1593" vert-adv-y="1433" d="M1053 143q-164 -188 -468 -188q-470 0 -470 448v707h434v-573q0 -254 224 -254q128 0 200 70t72 196v561h434v-1110h-422v143h-4zM494 1237l-305 287h479l146 -158l145 158h447l-306 -287h-606z"/>
    <glyph glyph-name="uni01E6" unicode="Ǧ" horiz-adv-x="2048" vert-adv-y="1433" d="M1123 526v303h786v-829h-227l-60 151q-191 -196 -643 -196q-907 0 -907 765q0 364 236 573q242 214 692 214q370 0 609 -120q132 -67 200 -158.5t100 -247.5h-551q-66 211 -343 211q-207 0 -323 -122t-116 -341q0 -217 116.5 -338t325.5 -121q320 0 404 256h-299z M413 1845h446l146 -157l145 157h480l-306 -286h-606z"/>
    <glyph glyph-name="uni01E7" unicode="ǧ" horiz-adv-x="1706" vert-adv-y="1433" d="M1169 969v141h422v-1010q0 -255 -142 -379q-168 -147 -619 -147q-365 0 -531.5 85.5t-208.5 295.5h479q35 -131 269 -131q173 0 246 66.5t73 222.5v77q-154 -141 -453 -141q-352 0 -521 183q-128 139 -128 358q0 243 168 392q177 157 488 157q314 0 454 -170h4zM831 852 q-146 0 -231.5 -71t-85.5 -193q0 -125 85.5 -194.5t237.5 -69.5q320 0 320 259q0 129 -85 199t-241 70zM520 1237l-305 287h479l146 -158l145 158h447l-306 -287h-606z"/>
    <glyph glyph-name="uni01F4" unicode="Ǵ" horiz-adv-x="2048" vert-adv-y="1433" d="M1123 526v303h786v-829h-227l-60 151q-191 -196 -643 -196q-907 0 -907 765q0 364 236 573q242 214 692 214q370 0 609 -120q132 -67 200 -158.5t100 -247.5h-551q-66 211 -343 211q-207 0 -323 -122t-116 -341q0 -217 116.5 -338t325.5 -121q320 0 404 256h-299z M752 1571l186 286h529l-305 -286h-410z"/>
    <glyph glyph-name="uni01F5" unicode="ǵ" horiz-adv-x="1706" vert-adv-y="1433" d="M1169 969v141h422v-1010q0 -255 -142 -379q-168 -147 -619 -147q-365 0 -531.5 85.5t-208.5 295.5h479q35 -131 269 -131q173 0 246 66.5t73 222.5v77q-154 -141 -453 -141q-352 0 -521 183q-128 139 -128 358q0 243 168 392q177 157 488 157q314 0 454 -170h4zM831 852 q-146 0 -231.5 -71t-85.5 -193q0 -125 85.5 -194.5t237.5 -69.5q320 0 320 259q0 129 -85 199t-241 70zM585 1237l186 287h529l-305 -287h-410z"/>
    <glyph glyph-name="Scommaaccent" unicode="Ș" horiz-adv-x="1821" vert-adv-y="1433" d="M1712 1034h-553q-33 170 -313 170q-258 0 -258 -140q0 -52 37 -70.5t185 -41.5q45 -6 156 -24q123 -19 208 -32q281 -42 387 -92q212 -100 212 -346q0 -256 -222 -384q-208 -119 -646 -119q-416 0 -624 111q-110 59 -162.5 145.5t-71.5 239.5h578q13 -99 85 -139.5 t234 -40.5q264 0 264 151q0 57 -48.5 85t-182.5 48l-488 74q-417 63 -417 409q0 469 781 469q403 0 623 -116q109 -57 162 -137.5t74 -219.5zM777 -102h297v-169q0 -66 -23.5 -109t-75.5 -73q-87 -48 -198 -53v72q183 23 176 138h-176v194z"/>
    <glyph glyph-name="scommaaccent" unicode="ș" horiz-adv-x="1554" vert-adv-y="1433" d="M55 346h504q11 -69 69 -99t182 -30q201 0 201 100q0 39 -31.5 57.5t-117.5 28.5l-387 47q-200 25 -291.5 100t-91.5 214q0 202 164 296.5t513 94.5q332 0 497 -88.5t192 -280.5h-488q-16 119 -234 119q-198 0 -198 -101q0 -66 140 -81l374 -41q235 -26 341 -106t106 -232 q0 -389 -707 -389q-367 0 -558 105q-88 49 -128.5 114t-50.5 172zM634 -105h297v-169q0 -66 -23.5 -109t-75.5 -73q-87 -48 -198 -53v72q183 23 176 138h-176v194z"/>
    <glyph glyph-name="uni021A" unicode="Ț" horiz-adv-x="1556" vert-adv-y="1433" d="M-2 1135v327h1561v-327h-537v-1135h-487v1135h-537zM630 -96h297v-169q0 -66 -23.5 -109t-75.5 -73q-87 -48 -198 -53v72q183 23 176 138h-176v194z"/>
    <glyph glyph-name="uni021B" unicode="ț" horiz-adv-x="1024" vert-adv-y="1433" d="M0 823v287h227v352h435v-352h286v-287h-286v-446q0 -71 24 -93t102 -22q69 0 168 4v-270q-151 -21 -325 -21q-226 0 -315 68.5t-89 241.5v538h-227zM305 -96h297v-169q0 -66 -23.5 -109t-75.5 -73q-87 -48 -198 -53v72q183 23 176 138h-176v194z"/>
    <glyph glyph-name="uni0259" unicode="ə" vert-adv-y="1433" d="M545 780h-459q28 79 63.5 127.5t98.5 96.5q202 151 581 151q446 0 637 -206q136 -147 136 -383q0 -344 -270 -499q-196 -112 -498 -112q-419 0 -614 212q-154 167 -154 457v33h1090q-14 67 -36.5 107t-65.5 73q-89 68 -242 68q-90 0 -150.5 -28.5t-116.5 -96.5zM1156 432 h-644q56 -227 322 -227q267 0 322 227z"/>
    <glyph glyph-name="uni02C9" unicode="ˉ" horiz-adv-x="1024" vert-adv-y="1433" d="M55 1269v238h913v-238h-913z"/>
    <glyph glyph-name="tonos" unicode="΄" horiz-adv-x="1457" vert-adv-y="1433" d="M877 1624v-205l-94 -204h-115l-88 204v205h297z"/>
    <glyph glyph-name="dieresistonos" unicode="΅" horiz-adv-x="1457" vert-adv-y="1433" d="M579 1528v-251h-282v251h282zM1159 1528v-251h-282v251h282zM876 1829v-184l-94 -205h-114l-89 205v184h297z"/>
    <glyph glyph-name="Alphatonos" unicode="Ά" horiz-adv-x="1745" vert-adv-y="1433" d="M-57 0l635 1462h596l629 -1462h-523l-88 238h-639l-88 -238h-522zM1078 541l-203 553h-4l-203 -553h410zM387 1462v-205l-94 -204h-115l-88 204v205h297z"/>
    <glyph glyph-name="anoteleia" unicode="·" horiz-adv-x="795" vert-adv-y="1433" d="M399 776q100 0 171 -71.5t71 -172.5t-71 -172t-173 -71q-101 0 -172 71t-71 172q0 102 71.5 173t173.5 71z"/>
    <glyph glyph-name="Epsilontonos" unicode="Έ" horiz-adv-x="1920" vert-adv-y="1433" d="M398 0v1462h1464v-315h-977v-264h916v-303h-916v-265h977v-315h-1464zM343 1462v-205l-94 -204h-115l-88 204v205h297z"/>
    <glyph glyph-name="Etatonos" unicode="Ή" horiz-adv-x="2251" vert-adv-y="1433" d="M1616 0v612h-740v-612h-487v1462h487v-522h740v522h487v-1462h-487zM335 1462v-205l-94 -204h-115l-88 204v205h297z"/>
    <glyph glyph-name="Iotatonos" unicode="Ί" horiz-adv-x="1018" vert-adv-y="1433" d="M377 0v1462h487v-1462h-487zM325 1462v-205l-94 -204h-115l-88 204v205h297z"/>
    <glyph glyph-name="Omicrontonos" unicode="Ό" horiz-adv-x="2235" vert-adv-y="1433" d="M1223 1507q941 0 941 -776t-953 -776q-952 0 -952 768q0 464 324 650q235 134 640 134zM1207 1180q-205 0 -318.5 -117.5t-113.5 -330.5q0 -216 113.5 -332.5t323.5 -116.5t323 116t113 333q0 216 -114 332t-327 116zM333 1462v-205l-94 -204h-115l-88 204v205h297z"/>
    <glyph glyph-name="Upsilontonos" unicode="Ύ" horiz-adv-x="2101" vert-adv-y="1433" d="M1019 0v461l-649 1001h565l328 -620l328 620h565l-649 -1001v-461h-488zM330 1462v-205l-94 -204h-115l-88 204v205h297z"/>
    <glyph glyph-name="Omegatonos" unicode="Ώ" horiz-adv-x="2248" vert-adv-y="1433" d="M1081 321v-321h-887v321h464q-147 70 -226 141q-170 153 -170 394q0 279 254 452q287 194 679 194t678 -194q254 -173 254 -452q0 -182 -94.5 -309.5t-302.5 -225.5h464v-321h-886v321q157 77 219 139q125 127 125 333q0 191 -144 293q-136 95 -313 95 q-203 0 -330.5 -107.5t-127.5 -278.5q0 -226 146 -354q57 -51 198 -120zM331 1462v-205l-94 -204h-115l-88 204v205h297z"/>
    <glyph glyph-name="iotadieresistonos" unicode="ΐ" horiz-adv-x="683" vert-adv-y="1433" d="M123 0v1110h437v-1110h-437zM193 1528v-251h-282v251h282zM773 1528v-251h-282v251h282zM490 1829v-184l-94 -205h-114l-89 205v184h297z"/>
    <glyph glyph-name="Alpha" unicode="Α" horiz-adv-x="1745" vert-adv-y="1433" d="M-57 0l635 1462h596l629 -1462h-523l-88 238h-639l-88 -238h-522zM1078 541l-203 553h-4l-203 -553h410z"/>
    <glyph glyph-name="Beta" unicode="Β" horiz-adv-x="1933" vert-adv-y="1433" d="M147 0v1462h1210q198 0 307 -93.5t109 -262.5q0 -220 -180 -299v-4q254 -71 254 -365q0 -211 -137.5 -324.5t-393.5 -113.5h-1169zM634 1147v-248h485q150 0 150 125q0 123 -150 123h-485zM634 315h524q79 0 125.5 41t46.5 111q0 145 -172 145h-524v-297z"/>
    <glyph glyph-name="Gamma" unicode="Γ" horiz-adv-x="1556" vert-adv-y="1433" d="M147 1462h1378v-340h-891v-1122h-487v1462z"/>
    <glyph glyph-name="Epsilon" unicode="Ε" horiz-adv-x="1669" vert-adv-y="1433" d="M147 0v1462h1464v-315h-977v-264h916v-303h-916v-265h977v-315h-1464z"/>
    <glyph glyph-name="Zeta" unicode="Ζ" vert-adv-y="1433" d="M37 0v281l922 854h-859v327h1512v-286l-916 -848h902v-328h-1561z"/>
    <glyph glyph-name="Eta" unicode="Η" horiz-adv-x="2009" vert-adv-y="1433" d="M1374 0v612h-740v-612h-487v1462h487v-522h740v522h487v-1462h-487z"/>
    <glyph glyph-name="Theta" unicode="Θ" horiz-adv-x="2048" vert-adv-y="1433" d="M1324 879v-321h-593v321h593zM1036 1507q941 0 941 -776t-953 -776q-952 0 -952 768q0 464 324 650q235 134 640 134zM1020 1180q-205 0 -318.5 -117.5t-113.5 -330.5q0 -216 113.5 -332.5t323.5 -116.5t323 116t113 333q0 216 -114 332t-327 116z"/>
    <glyph glyph-name="Iota" unicode="Ι" horiz-adv-x="795" vert-adv-y="1433" d="M154 0v1462h487v-1462h-487z"/>
    <glyph glyph-name="Kappa" unicode="Κ" horiz-adv-x="1896" vert-adv-y="1433" d="M147 0v1462h487v-573l610 573h650l-662 -575l713 -887h-652l-452 584l-207 -172v-412h-487z"/>
    <glyph glyph-name="Lambda" unicode="Λ" horiz-adv-x="1745" vert-adv-y="1433" d="M875 1093h-4l-406 -1093h-522l635 1462h596l629 -1462h-523z"/>
    <glyph glyph-name="Mu" unicode="Μ" horiz-adv-x="2392" vert-adv-y="1433" d="M147 0v1462h713l333 -964h4l334 964h713v-1462h-459v1093h-4l-385 -1093h-401l-385 1093h-4v-1093h-459z"/>
    <glyph glyph-name="Nu" unicode="Ν" horiz-adv-x="2009" vert-adv-y="1433" d="M147 0v1462h561l678 -915h4v915h471v-1462h-539l-700 924h-4v-924h-471z"/>
    <glyph glyph-name="Xi" unicode="Ξ" horiz-adv-x="1946" vert-adv-y="1433" d="M137 0v321h1673v-321h-1673zM237 585v321h1452v-321h-1452zM152 1141v321h1641v-321h-1641z"/>
    <glyph glyph-name="Omicron" unicode="Ο" horiz-adv-x="2048" vert-adv-y="1433" d="M1036 1507q941 0 941 -776t-953 -776q-952 0 -952 768q0 464 324 650q235 134 640 134zM1020 1180q-205 0 -318.5 -117.5t-113.5 -330.5q0 -216 113.5 -332.5t323.5 -116.5t323 116t113 333q0 216 -114 332t-327 116z"/>
    <glyph glyph-name="Pi" unicode="Π" horiz-adv-x="1973" vert-adv-y="1433" d="M150 0v1462h1673v-1462h-476v1141h-722v-1141h-475z"/>
    <glyph glyph-name="Rho" unicode="Ρ" horiz-adv-x="1821" vert-adv-y="1433" d="M147 0v1462h1081q291 0 428 -151q111 -123 111 -334q0 -234 -135 -362t-382 -128h-616v-487h-487zM634 1159v-368h434q195 0 195 184t-195 184h-434z"/>
    <glyph glyph-name="Sigma" unicode="Σ" horiz-adv-x="1735" vert-adv-y="1433" d="M89 0v305l674 433l-665 403v321h1515v-321h-980l651 -403l-664 -417h1038v-321h-1569z"/>
    <glyph glyph-name="Tau" unicode="Τ" horiz-adv-x="1556" vert-adv-y="1433" d="M-2 1135v327h1561v-327h-537v-1135h-487v1135h-537z"/>
    <glyph glyph-name="Upsilon" unicode="Υ" vert-adv-y="1433" d="M590 0v461l-649 1001h565l328 -620l328 620h565l-649 -1001v-461h-488z"/>
    <glyph glyph-name="Phi" unicode="Φ" horiz-adv-x="2209" vert-adv-y="1433" d="M869 -28v178q-243 17 -416 78q-194 69 -316 230q-89 119 -89 273q0 224 199 387q200 165 622 194v178h475v-178q257 -17 435 -83q191 -70 302 -228q81 -116 81 -270q0 -226 -184 -382q-199 -169 -634 -199v-178h-475zM869 1074q-345 -48 -345 -341q0 -294 345 -347v688z M1344 386q127 19 204 76q139 103 139 278q0 294 -343 332v-686z"/>
    <glyph glyph-name="Chi" unicode="Χ" horiz-adv-x="1745" vert-adv-y="1433" d="M-43 0l635 760l-567 702h579l268 -393l269 393h579l-567 -702l635 -760h-604l-312 442l-311 -442h-604z"/>
    <glyph glyph-name="Psi" unicode="Ψ" horiz-adv-x="2209" vert-adv-y="1433" d="M867 0v260q-374 15 -560 155q-117 88 -158 214.5t-41 396.5v436h475v-436q0 -232 14.5 -310.5t65.5 -128.5q80 -76 204 -77v952h475v-952q144 1 224 99q37 45 48.5 123.5t11.5 293.5v436h475v-436q0 -282 -44 -404q-122 -338 -714 -362v-260h-476z"/>
    <glyph glyph-name="uni03A9" unicode="Ω" horiz-adv-x="2155" vert-adv-y="1433" d="M963 321v-321h-887v321h464q-147 70 -226 141q-170 153 -170 394q0 279 254 452q287 194 679 194t678 -194q254 -173 254 -452q0 -182 -94.5 -309.5t-302.5 -225.5h464v-321h-886v321q157 77 219 139q125 127 125 333q0 191 -144 293q-136 95 -313 95 q-203 0 -330.5 -107.5t-127.5 -278.5q0 -226 146 -354q57 -51 198 -120z"/>
    <glyph glyph-name="Iotadieresis" unicode="Ϊ" horiz-adv-x="795" vert-adv-y="1433" d="M154 0v1462h487v-1462h-487zM-133 1561v262h434v-262h-434zM494 1561v262h434v-262h-434z"/>
    <glyph glyph-name="Upsilondieresis" unicode="Ϋ" vert-adv-y="1433" d="M590 0v461l-649 1001h565l328 -620l328 620h565l-649 -1001v-461h-488zM303 1555v262h435v-262h-435zM930 1555v262h434v-262h-434z"/>
    <glyph glyph-name="alphatonos" unicode="ά" horiz-adv-x="1929" vert-adv-y="1433" d="M1578 564l340 -564h-447l-146 286q-222 -334 -583 -334q-296 0 -493 177q-181 164 -181 409q0 275 226 446q193 146 451 146q359 0 571 -293l119 273h425zM1173 564q-140 252 -355 252q-138 0 -225.5 -76.5t-87.5 -196.5q0 -136 106 -212q91 -65 202 -65q165 0 260 128 q38 51 100 170zM966 1624v-205l-94 -204h-115l-88 204v205h297z"/>
    <glyph glyph-name="epsilontonos" unicode="έ" horiz-adv-x="1572" vert-adv-y="1433" d="M961 654v-213q-275 0 -365.5 -16.5t-90.5 -64.5q0 -53 84 -86.5t216 -33.5q230 0 301 100h408q-59 -191 -245.5 -289t-492.5 -98q-315 0 -511 95q-197 94 -197 258q0 193 305 260q-252 108 -252 259q0 131 180.5 211t477.5 80q625 0 714 -342h-408q-50 69 -263 69 q-117 0 -190.5 -29.5t-73.5 -77.5q0 -46 88.5 -63.5t314.5 -18.5zM939 1624v-205l-94 -204h-115l-88 204v205h297z"/>
    <glyph glyph-name="etatonos" unicode="ή" horiz-adv-x="1593" vert-adv-y="1433" d="M115 0v1110h422v-160h4q165 189 465 189q224 0 348.5 -107.5t124.5 -300.5v-1169h-434v1038q0 211 -225 211q-128 0 -199.5 -70.5t-71.5 -195.5v-545h-434zM973 1624v-205l-94 -204h-115l-88 204v205h297z"/>
    <glyph glyph-name="iotatonos" unicode="ί" horiz-adv-x="683" vert-adv-y="1433" d="M123 0v1110h437v-1110h-437zM490 1624v-205l-94 -204h-115l-88 204v205h297z"/>
    <glyph glyph-name="upsilondieresistonos" unicode="ΰ" horiz-adv-x="1625" vert-adv-y="1433" d="M546 1110v-662q0 -106 64 -140q78 -41 203 -41t203 43q63 35 63 138v662h437v-674q0 -244 -125 -342q-180 -141 -576 -141q-369 0 -554 124q-152 102 -152 359v674h437zM663 1528v-251h-282v251h282zM1243 1528v-251h-282v251h282zM960 1829v-184l-94 -205h-114l-89 205 v184h297z"/>
    <glyph glyph-name="alpha" unicode="α" horiz-adv-x="1929" vert-adv-y="1433" d="M1578 564l340 -564h-447l-146 286q-222 -334 -583 -334q-296 0 -493 177q-181 164 -181 409q0 275 226 446q193 146 451 146q359 0 571 -293l119 273h425zM1173 564q-140 252 -355 252q-138 0 -225.5 -76.5t-87.5 -196.5q0 -136 106 -212q91 -65 202 -65q165 0 260 128 q38 51 100 170z"/>
    <glyph glyph-name="beta" unicode="β" horiz-adv-x="1657" vert-adv-y="1433" d="M109 -448v1434q0 172 41 254q60 121 233 188.5t422 67.5q381 0 569 -182q78 -75 78 -181q0 -191 -264 -309q165 -40 247 -96q70 -47 112 -129t42 -170q0 -235 -235 -375q-168 -101 -401 -101q-232 0 -407 106v-507h-437zM546 295q192 -28 282 -28q138 0 231 66t93 165 q0 169 -434 171v224q118 3 181 23q51 16 83.5 57.5t32.5 89.5q0 54 -62 86.5t-164 32.5q-140 0 -206 -50q-37 -29 -37 -117v-720z"/>
    <glyph glyph-name="gamma" unicode="γ" horiz-adv-x="1620" vert-adv-y="1433" d="M592 -448v468l-578 1090h438l358 -803l358 803h438l-577 -1090v-468h-437z"/>
    <glyph glyph-name="delta" unicode="δ" horiz-adv-x="1692" vert-adv-y="1433" d="M274 1508h1163v-314h-530l356 -195q361 -198 361 -516q0 -251 -179 -390q-219 -172 -599 -172t-599 172q-179 140 -179 389q0 293 232 444q83 54 167 77t232 33l-425 196v276zM841 811q-149 0 -242.5 -80t-93.5 -208q0 -130 94 -209t248 -79q153 0 246.5 79t93.5 208 q0 132 -94 210.5t-252 78.5z"/>
    <glyph glyph-name="epsilon" unicode="ε" horiz-adv-x="1596" vert-adv-y="1433" d="M975 654v-213q-275 0 -365.5 -16.5t-90.5 -64.5q0 -53 84 -86.5t216 -33.5q230 0 301 100h408q-59 -191 -245.5 -289t-492.5 -98q-315 0 -511 95q-197 94 -197 258q0 193 305 260q-252 108 -252 259q0 131 180.5 211t477.5 80q625 0 714 -342h-408q-50 69 -263 69 q-117 0 -190.5 -29.5t-73.5 -77.5q0 -46 88.5 -63.5t314.5 -18.5z"/>
    <glyph glyph-name="zeta" unicode="ζ" horiz-adv-x="1405" vert-adv-y="1433" d="M215 1159v314h1110v-314q-200 -65 -318.5 -128.5t-239.5 -170.5q-248 -218 -248 -422q0 -123 114 -157q63 -19 264 -32l110 -7q205 -13 294.5 -81t89.5 -211q0 -90 -28.5 -170t-113.5 -228h-397q103 232 103 330q0 86 -134 94l-108 6q-230 14 -365 58q-122 40 -194 139 t-72 227q0 213 181 406.5t524 346.5h-572z"/>
    <glyph glyph-name="eta" unicode="η" horiz-adv-x="1593" vert-adv-y="1433" d="M115 0v1110h422v-160h4q165 189 465 189q224 0 348.5 -107.5t124.5 -300.5v-1169h-434v1038q0 211 -225 211q-128 0 -199.5 -70.5t-71.5 -195.5v-545h-434z"/>
    <glyph glyph-name="theta" unicode="θ" horiz-adv-x="1641" vert-adv-y="1433" d="M831 1512q347 0 542 -202q186 -193 186 -586q0 -764 -740 -764q-737 0 -737 776q0 394 174 575q194 201 575 201zM1151 922q-8 150 -84 213t-249 63t-246 -61.5t-82 -214.5h661zM490 608q0 -114 23 -177q58 -157 306 -157q182 0 256 74t76 260h-661z"/>
    <glyph glyph-name="iota" unicode="ι" horiz-adv-x="683" vert-adv-y="1433" d="M123 0v1110h437v-1110h-437z"/>
    <glyph glyph-name="kappa" unicode="κ" horiz-adv-x="1596" vert-adv-y="1433" d="M560 740l440 370h539l-518 -446l556 -664h-509l-339 440l-169 -142v-298h-437v1110h437v-370z"/>
    <glyph glyph-name="lambda" unicode="λ" horiz-adv-x="1568" vert-adv-y="1433" d="M14 0l556 975l-271 489h434l822 -1464h-447l-334 653l-341 -653h-419z"/>
    <glyph glyph-name="uni03BC" unicode="μ" horiz-adv-x="1593" vert-adv-y="1433" d="M549 -17v-416h-434v1543h434v-574q0 -253 224 -253q128 0 200 70t72 196v561h434v-1110h-422v143h-4q-161 -179 -330 -179q-70 0 -174 19z"/>
    <glyph glyph-name="nu" unicode="ν" horiz-adv-x="1479" vert-adv-y="1433" d="M492 0l-512 1110h494l266 -731l266 731h494l-512 -1110h-496z"/>
    <glyph glyph-name="xi" unicode="ξ" horiz-adv-x="1413" vert-adv-y="1433" d="M848 -448q115 251 115 321q0 52 -29.5 76t-100.5 29l-133 8q-259 18 -399 86q-96 47 -157.5 138t-61.5 185q0 270 439 373q-297 62 -297 216q0 101 156 175h-240v314h1159v-314h-259q-379 0 -379 -121q0 -128 380 -128h181v-314h-188q-313 0 -420 -68q-96 -62 -96 -132 q0 -58 65 -95q47 -27 255 -42l201 -17q185 -15 265 -77q96 -74 96 -209q0 -144 -143 -404h-409z"/>
    <glyph glyph-name="omicron" unicode="ο" horiz-adv-x="1793" vert-adv-y="1433" d="M911 1155q349 0 570 -175q203 -161 203 -425q0 -302 -261 -467q-211 -133 -526 -133q-367 0 -586 174q-202 161 -202 431q0 297 261 462q209 133 541 133zM889 841q-148 0 -245.5 -81t-97.5 -205q0 -125 98 -205.5t252 -80.5q181 0 277 103q74 78 74 185q0 126 -99.5 205 t-258.5 79z"/>
    <glyph glyph-name="rho" unicode="ρ" horiz-adv-x="1696" vert-adv-y="1433" d="M109 -448v953q0 168 41.5 272.5t138.5 181.5q215 171 596 171q371 0 570 -170q187 -161 187 -426q0 -280 -208 -440q-185 -141 -458 -141q-152 0 -252.5 42.5t-177.5 139.5v-583h-437zM873 816q-152 0 -239.5 -73.5t-87.5 -200.5q0 -129 87.5 -202t242.5 -73 q329 0 329 273q0 131 -87 203.5t-245 72.5z"/>
    <glyph glyph-name="sigma1" unicode="ς" horiz-adv-x="1620" vert-adv-y="1433" d="M1546 684h-390q-30 132 -293 132q-173 0 -265 -82q-84 -76 -84 -178q0 -134 130 -197q66 -32 291 -83l162 -40q396 -97 396 -312q0 -73 -25 -142.5t-108 -229.5h-425q121 225 121 307q0 33 -24 63.5t-55 36.5l-257 49q-247 48 -403 145q-112 69 -176 178.5t-64 231.5 q0 131 74.5 254.5t196.5 194.5q204 118 503 118q360 0 565 -173q114 -97 130 -273z"/>
    <glyph glyph-name="sigma" unicode="σ" horiz-adv-x="1812" vert-adv-y="1433" d="M1547 818q65 -103 65 -263q0 -272 -175 -425q-199 -175 -604 -175q-445 0 -642 211q-136 147 -136 392q0 272 174 426q193 171 601 171q135 0 263 -23h703v-314h-249zM829 869q-150 0 -232.5 -82t-82.5 -232t83 -231.5t237 -81.5q153 0 236 81.5t83 232.5q0 313 -324 313 z"/>
    <glyph glyph-name="tau" unicode="τ" horiz-adv-x="1416" vert-adv-y="1433" d="M489 0v796h-462v314h1362v-314h-463v-796h-437z"/>
    <glyph glyph-name="upsilon" unicode="υ" horiz-adv-x="1598" vert-adv-y="1433" d="M533 1110v-662q0 -106 64 -140q78 -41 203 -41t203 43q63 35 63 138v662h437v-674q0 -244 -125 -342q-180 -141 -576 -141q-369 0 -554 124q-152 102 -152 359v674h437z"/>
    <glyph glyph-name="phi" unicode="φ" horiz-adv-x="2040" vert-adv-y="1433" d="M788 1121q101 9 198 9q404 0 666 -111q186 -79 277 -244q57 -102 57 -237q0 -257 -194 -401t-567 -164v-421h-437v421q-249 14 -412 86q-321 141 -321 480q0 319 305 469q118 57 271 84v-233q-140 -89 -140 -294q0 -147 77 -232.5t220 -98.5v887zM1225 234q136 10 213 70 q111 87 111 240q0 139 -85 221.5t-239 93.5v-625z"/>
    <glyph glyph-name="chi" unicode="χ" horiz-adv-x="1610" vert-adv-y="1433" d="M808 607l328 503h427l-549 -745l599 -813h-447l-366 562l-368 -562h-435l596 804l-552 754h441z"/>
    <glyph glyph-name="psi" unicode="ψ" horiz-adv-x="2089" vert-adv-y="1433" d="M826 -448v420q-366 8 -541.5 140t-175.5 399v599h437v-585q0 -149 62.5 -211t217.5 -67v863h437v-863q152 3 215.5 66.5t63.5 211.5v585h437v-599q0 -149 -34.5 -232.5t-126.5 -154.5q-182 -142 -555 -152v-420h-437z"/>
    <glyph glyph-name="omega" unicode="ω" horiz-adv-x="2224" vert-adv-y="1433" d="M1112 161q-153 -208 -447 -208q-278 0 -444 150t-166 401q0 346 304 606h441q-308 -246 -308 -556q0 -287 225 -287q95 0 136 50t41 166v349h437v-349q0 -95 20 -135q41 -81 157 -81q225 0 225 287q0 310 -308 556h441q304 -260 304 -605q0 -273 -184 -416 q-174 -136 -425 -136q-295 0 -449 208z"/>
    <glyph glyph-name="iotadieresis" unicode="ϊ" horiz-adv-x="683" vert-adv-y="1433" d="M123 0v1110h437v-1110h-437zM-189 1290v262h435v-262h-435zM438 1290v262h434v-262h-434z"/>
    <glyph glyph-name="upsilondieresis" unicode="ϋ" horiz-adv-x="1598" vert-adv-y="1433" d="M273 1287v262h434v-262h-434zM900 1287v262h434v-262h-434zM533 1110v-662q0 -60 14 -90t50 -50q78 -41 203 -41t203 43q36 20 49.5 49.5t13.5 88.5v662h437v-674q0 -160 -44 -243q-124 -240 -657 -240q-369 0 -554 124q-94 63 -127 169q-25 80 -25 190v674h437z"/>
    <glyph glyph-name="omicrontonos" unicode="ό" horiz-adv-x="1739" vert-adv-y="1433" d="M884 1155q349 0 570 -175q203 -161 203 -425q0 -302 -261 -467q-211 -133 -526 -133q-367 0 -586 174q-202 161 -202 431q0 297 261 462q209 133 541 133zM862 841q-148 0 -245.5 -81t-97.5 -205q0 -125 98 -205.5t252 -80.5q181 0 277 103q74 78 74 185q0 126 -99.5 205 t-258.5 79zM1018 1624v-205l-94 -204h-115l-88 204v205h297z"/>
    <glyph glyph-name="upsilontonos" unicode="ύ" horiz-adv-x="1625" vert-adv-y="1433" d="M546 1110v-662q0 -106 64 -140q78 -41 203 -41t203 43q63 35 63 138v662h437v-674q0 -244 -125 -342q-180 -141 -576 -141q-369 0 -554 124q-152 102 -152 359v674h437zM961 1624v-205l-94 -204h-115l-88 204v205h297z"/>
    <glyph glyph-name="omegatonos" unicode="ώ" horiz-adv-x="2224" vert-adv-y="1433" d="M1112 161q-153 -208 -447 -208q-278 0 -444 150t-166 401q0 346 304 606h441q-308 -246 -308 -556q0 -287 225 -287q95 0 136 50t41 166v349h437v-349q0 -95 20 -135q41 -81 157 -81q225 0 225 287q0 310 -308 556h441q304 -260 304 -605q0 -273 -184 -416 q-174 -136 -425 -136q-295 0 -449 208zM1261 1624v-205l-94 -204h-115l-88 204v205h297z"/>
    <glyph glyph-name="uni03D1" unicode="ϑ" horiz-adv-x="1714" vert-adv-y="1433" d="M48 680h473q11 -198 38 -264q62 -156 278 -156q224 0 291 206q32 101 32 169v35q-403 18 -621 99q-186 70 -268 185q-56 80 -56 163q0 168 172.5 275t444.5 107q311 0 498.5 -149t223.5 -425q62 3 119 9v-249q-56 -9 -119 -11q-3 -219 -122 -438q-86 -157 -284 -232 q-154 -58 -339 -58q-556 0 -640 420h-121v314zM1160 916q-15 269 -312 269q-83 0 -139.5 -34.5t-56.5 -83.5q0 -65 144 -108t364 -43z"/>
    <glyph glyph-name="uni03D5" unicode="ϕ" horiz-adv-x="2068" vert-adv-y="1433" d="M816 -451v424q-258 14 -428 86q-333 141 -333 482q0 321 305 467q183 87 456 102v390h437v-390q273 -15 455 -102q306 -146 306 -467q0 -260 -193.5 -404t-567.5 -163v-425h-437zM1253 235q136 10 213 70q111 86 111 238q0 136 -84.5 216.5t-239.5 91.5v-616zM816 851 q-136 -9 -213 -69q-111 -87 -111 -239q0 -136 84.5 -216.5t239.5 -91.5v616z"/>
    <glyph glyph-name="afii10023" unicode="Ё" horiz-adv-x="1669" vert-adv-y="1433" d="M147 0v1462h1464v-315h-977v-264h916v-303h-916v-265h977v-315h-1464zM349 1543v262h435v-262h-435zM976 1543v262h434v-262h-434z"/>
    <glyph glyph-name="afii10051" unicode="Ђ" horiz-adv-x="1904" vert-adv-y="1433" d="M392 0v1141h-380v321h1380v-321h-525v-291q237 112 442 112q237 0 376 -101q100 -72 100 -179v-321q0 -165 -132 -263t-355 -98h-286v319h147q151 0 151 93v156q0 42 -38 58t-138 16q-125 0 -267 -53v-589h-475z"/>
    <glyph glyph-name="afii10052" unicode="Ѓ" horiz-adv-x="1321" vert-adv-y="1433" d="M150 0v1462h1132v-321h-657v-1141h-475zM478 1559l186 286h529l-305 -286h-410z"/>
    <glyph glyph-name="afii10053" unicode="Є" horiz-adv-x="2004" vert-adv-y="1433" d="M594 604q52 -328 438 -328q354 0 490 247l427 -103q-109 -225 -351 -345t-586 -120q-459 0 -720 248q-224 213 -224 527q0 346 262.5 559.5t687.5 213.5q596 0 868 -351l-398 -142q-153 173 -451 173q-346 0 -431 -258h712v-321h-724z"/>
    <glyph glyph-name="afii10054" unicode="Ѕ" horiz-adv-x="1821" vert-adv-y="1433" d="M1712 1034h-553q-33 170 -313 170q-258 0 -258 -140q0 -52 37 -70.5t185 -41.5q45 -6 156 -24q123 -19 208 -32q281 -42 387 -92q212 -100 212 -346q0 -256 -222 -384q-208 -119 -646 -119q-416 0 -624 111q-110 59 -162.5 145.5t-71.5 239.5h578q13 -99 85 -139.5 t234 -40.5q264 0 264 151q0 57 -48.5 85t-182.5 48l-488 74q-417 63 -417 409q0 469 781 469q403 0 623 -116q109 -57 162 -137.5t74 -219.5z"/>
    <glyph glyph-name="afii10055" unicode="І" horiz-adv-x="795" vert-adv-y="1433" d="M154 0v1462h487v-1462h-487z"/>
    <glyph glyph-name="afii10056" unicode="Ї" horiz-adv-x="795" vert-adv-y="1433" d="M154 0v1462h487v-1462h-487zM-133 1571v262h434v-262h-434zM494 1571v262h434v-262h-434z"/>
    <glyph glyph-name="afii10057" unicode="Ј" horiz-adv-x="1518" vert-adv-y="1433" d="M1394 1462v-954q0 -283 -148 -414q-159 -139 -522 -139q-374 0 -540 134t-166 436v61h488q1 -187 41.5 -251t157.5 -64q112 0 157 59t45 207v925h487z"/>
    <glyph glyph-name="afii10058" unicode="Љ" horiz-adv-x="2977" vert-adv-y="1433" d="M30 0v321h136q91 0 91 52v1089h1534v-520h453q252 0 439 -102q112 -61 176 -159.5t64 -208.5q0 -205 -192 -338.5t-487 -133.5h-869v1141h-643v-784q0 -145 -144.5 -251t-343.5 -106h-214zM1791 321h453q93 0 148.5 41.5t55.5 109.5q0 69 -55 109t-149 40h-453v-300z"/>
    <glyph glyph-name="afii10059" unicode="Њ" horiz-adv-x="3031" vert-adv-y="1433" d="M622 629v-629h-475v1462h475v-512h747v512h475v-520h453q252 0 439 -102q112 -61 176 -159t64 -209q0 -205 -192 -338.5t-487 -133.5h-928v629h-747zM1844 321h453q93 0 148.5 41.5t55.5 109.5q0 69 -55 109t-149 40h-453v-300z"/>
    <glyph glyph-name="afii10060" unicode="Ћ" horiz-adv-x="1896" vert-adv-y="1433" d="M384 0v1141h-372v321h1380v-321h-533v-343q213 126 442 126q233 0 373 -111q104 -83 104 -198v-615h-475v504q0 100 -163 100q-117 0 -281 -61v-543h-475z"/>
    <glyph glyph-name="afii10061" unicode="Ќ" horiz-adv-x="1708" vert-adv-y="1433" d="M147 0v1462h475v-512h184l263 512h515l-358 -676l482 -786h-535l-356 629h-195v-629h-475zM620 1559l186 286h529l-305 -286h-410z"/>
    <glyph glyph-name="afii10062" unicode="Ў" horiz-adv-x="1761" vert-adv-y="1433" d="M143 0v321h367q43 0 61.5 12.5t53.5 66.5l51 76l-660 986h440l441 -696l437 696h440l-808 -1224q-85 -130 -166 -175q-110 -63 -249 -63h-408zM426 1844h238q13 -56 65.5 -81t156.5 -25q103 0 153.5 24.5t66.5 81.5h238q-28 -169 -135.5 -244t-324.5 -75q-247 0 -358 105 q-42 39 -63.5 85t-36.5 129z"/>
    <glyph glyph-name="afii10145" unicode="Џ" horiz-adv-x="1880" vert-adv-y="1433" d="M137 0v1462h475v-1141h656v1141h475v-1462h-590v-300h-426v300h-590z"/>
    <glyph glyph-name="afii10017" unicode="А" horiz-adv-x="1745" vert-adv-y="1433" d="M-57 0l635 1462h596l629 -1462h-523l-88 238h-639l-88 -238h-522zM1078 541l-203 553h-4l-203 -553h410z"/>
    <glyph glyph-name="afii10018" unicode="Б" horiz-adv-x="1908" vert-adv-y="1433" d="M137 0v1462h1501v-321h-1026v-225h545q221 0 414 -96q116 -57 186 -156.5t70 -207.5q0 -195 -191.5 -325.5t-478.5 -130.5h-1020zM612 321h582q70 0 114 37.5t44 97.5t-45.5 99.5t-112.5 39.5h-582v-274z"/>
    <glyph glyph-name="afii10019" unicode="В" horiz-adv-x="1933" vert-adv-y="1433" d="M147 0v1462h1210q198 0 307 -93.5t109 -262.5q0 -220 -180 -299v-4q254 -71 254 -365q0 -211 -137.5 -324.5t-393.5 -113.5h-1169zM634 1147v-248h485q150 0 150 125q0 123 -150 123h-485zM634 315h524q79 0 125.5 41t46.5 111q0 145 -172 145h-524v-297z"/>
    <glyph glyph-name="afii10020" unicode="Г" horiz-adv-x="1321" vert-adv-y="1433" d="M150 0v1462h1132v-321h-657v-1141h-475z"/>
    <glyph glyph-name="afii10021" unicode="Д" horiz-adv-x="2238" vert-adv-y="1433" d="M54 -273v594h79q68 0 154 76q149 132 149 357v708h1559v-1141h164v-594h-475v273h-1155v-273h-475zM1520 321v820h-608v-288q0 -194 -14.5 -269t-64.5 -135q-61 -72 -185 -128h872z"/>
    <glyph glyph-name="afii10022" unicode="Е" horiz-adv-x="1669" vert-adv-y="1433" d="M147 0v1462h1464v-315h-977v-264h916v-303h-916v-265h977v-315h-1464z"/>
    <glyph glyph-name="afii10024" unicode="Ж" horiz-adv-x="2714" vert-adv-y="1433" d="M1133 0v629h-275l-381 -629h-450l482 786l-358 676h430l259 -512h293v512h475v-512h266l258 512h430l-358 -676l482 -786h-450l-381 629h-247v-629h-475z"/>
    <glyph glyph-name="afii10025" unicode="З" horiz-adv-x="1645" vert-adv-y="1433" d="M96 486h426q3 -149 60 -204q74 -71 229 -71q123 0 194 53t71 145q0 84 -70 135t-186 51h-158v320h128q101 0 165.5 36t64.5 92t-66.5 89t-179.5 33q-106 0 -167.5 -31t-61.5 -84v-51h-426v51q0 202 159 308q192 129 540 129q281 0 479 -108q198 -107 198 -282 q0 -205 -272 -309q122 -31 194 -89q133 -108 133 -268q0 -204 -213 -340q-212 -137 -511 -137q-328 0 -529 131t-201 346v55z"/>
    <glyph glyph-name="afii10026" unicode="И" horiz-adv-x="1967" vert-adv-y="1433" d="M147 0v1462h475v-856l722 722v134h476v-1462h-476v863l-722 -717v-146h-475z"/>
    <glyph glyph-name="afii10027" unicode="Й" horiz-adv-x="1967" vert-adv-y="1433" d="M147 0v1462h475v-856l722 722v134h476v-1462h-476v863l-722 -717v-146h-475zM525 1844h238q13 -56 65.5 -81t156.5 -25q103 0 153.5 24.5t66.5 81.5h238q-28 -169 -135.5 -244t-324.5 -75q-247 0 -358 105q-42 39 -63.5 85t-36.5 129z"/>
    <glyph glyph-name="afii10028" unicode="К" horiz-adv-x="1708" vert-adv-y="1433" d="M147 0v1462h475v-512h184l263 512h515l-358 -676l482 -786h-535l-356 629h-195v-629h-475z"/>
    <glyph glyph-name="afii10029" unicode="Л" horiz-adv-x="1945" vert-adv-y="1433" d="M37 0v321h136q91 0 91 60v1081h1534v-1462h-476v1141h-583v-778q0 -148 -144.5 -255.5t-343.5 -107.5h-214z"/>
    <glyph glyph-name="afii10030" unicode="М" horiz-adv-x="2392" vert-adv-y="1433" d="M147 0v1462h713l333 -964h4l334 964h713v-1462h-459v1093h-4l-385 -1093h-401l-385 1093h-4v-1093h-459z"/>
    <glyph glyph-name="afii10031" unicode="Н" horiz-adv-x="2009" vert-adv-y="1433" d="M1374 0v612h-740v-612h-487v1462h487v-522h740v522h487v-1462h-487z"/>
    <glyph glyph-name="afii10032" unicode="О" horiz-adv-x="2048" vert-adv-y="1433" d="M1036 1507q941 0 941 -776t-953 -776q-952 0 -952 768q0 464 324 650q235 134 640 134zM1020 1180q-205 0 -318.5 -117.5t-113.5 -330.5q0 -216 113.5 -332.5t323.5 -116.5t323 116t113 333q0 216 -114 332t-327 116z"/>
    <glyph glyph-name="afii10033" unicode="П" horiz-adv-x="1930" vert-adv-y="1433" d="M147 0v1462h1635v-1462h-475v1141h-685v-1141h-475z"/>
    <glyph glyph-name="afii10034" unicode="Р" horiz-adv-x="1821" vert-adv-y="1433" d="M147 0v1462h1081q291 0 428 -151q111 -123 111 -334q0 -234 -135 -362t-382 -128h-616v-487h-487zM634 1159v-368h434q195 0 195 184t-195 184h-434z"/>
    <glyph glyph-name="afii10035" unicode="С" horiz-adv-x="1972" vert-adv-y="1433" d="M1377 563h540q-36 -171 -92 -268.5t-160 -174.5q-225 -165 -667 -165q-926 0 -926 776t929 776q349 0 548 -99q149 -73 229.5 -186t134.5 -323h-543q-83 281 -377 281q-405 0 -405 -452q0 -446 404 -446q317 0 385 281z"/>
    <glyph glyph-name="afii10036" unicode="Т" horiz-adv-x="1556" vert-adv-y="1433" d="M-2 1135v327h1561v-327h-537v-1135h-487v1135h-537z"/>
    <glyph glyph-name="afii10037" unicode="У" horiz-adv-x="1761" vert-adv-y="1433" d="M143 0v321h367q43 0 61.5 12.5t53.5 66.5l51 76l-660 986h440l441 -696l437 696h440l-808 -1224q-85 -130 -166 -175q-110 -63 -249 -63h-408z"/>
    <glyph glyph-name="afii10038" unicode="Ф" horiz-adv-x="2291" vert-adv-y="1433" d="M939 0v183h-134q-272 0 -476 119q-124 73 -196 189t-72 244q0 234 212 389t532 155h134v183h427v-183h120q287 0 493 -130q251 -158 251 -414q0 -238 -212 -395t-532 -157h-120v-183h-427zM914 960h-35q-151 0 -247 -63.5t-96 -162.5q0 -102 96.5 -167t246.5 -65h35v458z M1390 960v-458h21q182 0 280 92q64 61 64 141q0 99 -96.5 162t-247.5 63h-21z"/>
    <glyph glyph-name="afii10039" unicode="Х" horiz-adv-x="1745" vert-adv-y="1433" d="M-43 0l635 760l-567 702h579l268 -393l269 393h579l-567 -702l635 -760h-604l-312 442l-311 -442h-604z"/>
    <glyph glyph-name="afii10040" unicode="Ц" horiz-adv-x="1997" vert-adv-y="1433" d="M147 0v1462h475v-1141h681v1141h475v-1141h164v-618h-475v297h-1320z"/>
    <glyph glyph-name="afii10041" unicode="Ч" horiz-adv-x="1982" vert-adv-y="1433" d="M1370 0v500q-272 -59 -499 -59q-357 0 -557.5 116.5t-200.5 325.5v579h475v-579q0 -121 358 -121q198 0 424 39v661h475v-1462h-475z"/>
    <glyph glyph-name="afii10042" unicode="Ш" horiz-adv-x="3060" vert-adv-y="1433" d="M137 0v1462h475v-1141h681v1141h475v-1141h681v1141h475v-1462h-2787z"/>
    <glyph glyph-name="afii10043" unicode="Щ" horiz-adv-x="3166" vert-adv-y="1433" d="M137 0v1462h475v-1141h681v1141h475v-1141h730v1141h404v-1141h210v-618h-475v297h-2500z"/>
    <glyph glyph-name="afii10044" unicode="Ъ" horiz-adv-x="2355" vert-adv-y="1433" d="M679 0v1141h-674v321h1149v-520h453q252 0 439 -102q112 -61 176 -159.5t64 -208.5q0 -205 -192 -338.5t-487 -133.5h-928zM1154 321h453q93 0 148.5 41.5t55.5 109.5t-55 108.5t-149 40.5h-453v-300z"/>
    <glyph glyph-name="afii10045" unicode="Ы" horiz-adv-x="2445" vert-adv-y="1433" d="M137 0v1462h475v-520h453q251 0 439 -102q112 -61 176 -159.5t64 -208.5q0 -205 -192 -338.5t-487 -133.5h-928zM612 321h453q93 0 148.5 41.5t55.5 109.5t-55 108.5t-149 40.5h-453v-300zM1834 0v1462h475v-1462h-475z"/>
    <glyph glyph-name="afii10046" unicode="Ь" horiz-adv-x="1813" vert-adv-y="1433" d="M147 0v1462h475v-520h453q251 0 439 -102q112 -61 176 -159.5t64 -208.5q0 -205 -192 -338.5t-487 -133.5h-928zM622 321h453q93 0 148.5 41.5t55.5 109.5t-55 108.5t-149 40.5h-453v-300z"/>
    <glyph glyph-name="afii10047" unicode="Э" horiz-adv-x="2004" vert-adv-y="1433" d="M1503 595h-856v321h842q-44 99 -108 148q-143 110 -408 110q-322 0 -484 -159l-371 128q270 351 867 351q465 0 721 -243q230 -218 230 -530q0 -346 -261.5 -560.5t-683.5 -214.5q-343 0 -584.5 120t-351.5 345l399 89q144 -233 525 -233q224 0 359 85t165 243z"/>
    <glyph glyph-name="afii10048" unicode="Ю" horiz-adv-x="2811" vert-adv-y="1433" d="M876 950q125 557 928 557q953 0 953 -776t-953 -776q-880 0 -947 674h-245v-629h-475v1462h475v-512h264zM1801 1180q-206 0 -319 -117.5t-113 -330.5q0 -216 113 -332.5t323 -116.5t323 116t113 333q0 216 -114 332t-326 116z"/>
    <glyph glyph-name="afii10049" unicode="Я" horiz-adv-x="1896" vert-adv-y="1433" d="M1749 0h-488v487h-446q-110 0 -154.5 -60.5t-44.5 -209.5v-25q0 -117 -29 -192h-534q39 50 55.5 121t28.5 238q14 180 50 250.5t134 106.5v4q-234 69 -234 337q0 405 490 405h1172v-1462zM1261 1135h-469q-182 0 -182 -159q0 -161 182 -161h469v320z"/>
    <glyph glyph-name="afii10065" unicode="а" vert-adv-y="1433" d="M565 762h-434q18 99 47.5 154t90.5 103q155 120 560 120q329 0 492 -68q211 -89 211 -309v-561q0 -118 45 -201h-434q-19 44 -23 102q-168 -147 -508 -147q-557 0 -557 354q0 169 114.5 253.5t365.5 101.5l432 28q74 5 102.5 23.5t28.5 62.5q0 124 -272 124 q-224 0 -261 -140zM1110 518q-62 -18 -166 -30l-293 -35q-125 -15 -125 -110q0 -138 210 -138q172 0 273 66.5t101 179.5v67z"/>
    <glyph glyph-name="afii10066" unicode="б" horiz-adv-x="1720" vert-adv-y="1433" d="M462 1015q226 107 459 107q320 0 518.5 -161t198.5 -421t-179 -407q-218 -180 -598 -180q-379 0 -599 180q-97 79 -139 193.5t-42 299.5q0 416 227 634q166 160 533 239q118 26 162 76q46 52 52 168h426q-14 -238 -107 -331q-58 -60 -146 -92.5t-260 -59.5 q-293 -46 -406 -110q-77 -44 -100 -135zM855 807q-149 0 -242.5 -75t-93.5 -195q0 -121 94 -195.5t247 -74.5t247 74t94 196t-94.5 196t-251.5 74z"/>
    <glyph glyph-name="afii10067" unicode="в" horiz-adv-x="1593" vert-adv-y="1433" d="M123 0v1110h936q180 0 304 -81.5t124 -200.5q0 -174 -258 -250q290 -67 290 -265q0 -138 -129 -225.5t-331 -87.5h-936zM560 287h384q57 0 98 24t41 58q0 31 -41.5 54.5t-97.5 23.5h-384v-160zM560 679h384q46 0 76 22t30 57q0 65 -106 65h-384v-144z"/>
    <glyph glyph-name="afii10068" unicode="г" horiz-adv-x="1133" vert-adv-y="1433" d="M123 0v1110h961v-314h-524v-796h-437z"/>
    <glyph glyph-name="afii10069" unicode="д" horiz-adv-x="1858" vert-adv-y="1433" d="M49 -189v503h157q70 0 121 64t51 152v580h1265v-796h133v-503h-436v189h-854v-189h-437zM1207 314v482h-392v-235q0 -160 -172 -247h564z"/>
    <glyph glyph-name="afii10070" unicode="е" vert-adv-y="1433" d="M1123 330h459q-133 -375 -743 -375q-446 0 -637 206q-136 147 -136 383q0 344 270 499q195 112 498 112q419 0 614 -212q154 -167 154 -457v-33h-1090q50 -248 343 -248q166 0 268 125zM512 678h644q-56 227 -322 227q-267 0 -322 -227z"/>
    <glyph glyph-name="afii10072" unicode="ж" horiz-adv-x="2153" vert-adv-y="1433" d="M1308 0h-437v451h-173l-260 -451h-420l342 622l-276 488h413l201 -345h173v345h437v-345h148l204 345h415l-281 -488l342 -622h-418l-262 451h-148v-451z"/>
    <glyph glyph-name="afii10073" unicode="з" horiz-adv-x="1379" vert-adv-y="1433" d="M68 368h408q9 -62 44 -82q56 -33 157 -33q81 0 132 22.5t51 59.5q0 93 -224 93h-80v259h80q199 0 199 77q0 79 -177 79q-167 0 -167 -60v-25h-391v80q0 128 165 210t423 82q263 0 424 -82.5t161 -216.5q0 -169 -224 -250q248 -103 248 -266q0 -157 -171 -259.5 t-433 -102.5q-312 0 -493 141q-115 90 -132 274z"/>
    <glyph glyph-name="afii10074" unicode="и" horiz-adv-x="1630" vert-adv-y="1433" d="M123 0v1110h437v-607l511 522v85h436v-1110h-436v612l-511 -523v-89h-437z"/>
    <glyph glyph-name="afii10075" unicode="й" horiz-adv-x="1630" vert-adv-y="1433" d="M123 0v1110h437v-607l511 522v85h436v-1110h-436v612l-511 -523v-89h-437zM356 1524h238q13 -56 65.5 -81t155.5 -25q104 0 154.5 24.5t66.5 81.5h238q-28 -170 -135.5 -244.5t-325.5 -74.5q-246 0 -357 104q-42 40 -63.5 86t-36.5 129z"/>
    <glyph glyph-name="afii10076" unicode="к" horiz-adv-x="1465" vert-adv-y="1433" d="M123 1110h437v-346h189l177 346h442l-281 -489l342 -621h-442l-238 450h-189v-450h-437v1110z"/>
    <glyph glyph-name="afii10077" unicode="л" horiz-adv-x="1647" vert-adv-y="1433" d="M27 0v314h135q44 0 77.5 22t33.5 52v722h1251v-1110h-437v796h-377v-451q0 -141 -123 -243t-293 -102h-267z"/>
    <glyph glyph-name="afii10078" unicode="м" horiz-adv-x="1930" vert-adv-y="1433" d="M1807 0h-437v791l-264 -791h-286l-260 791v-791h-437v1110h625l214 -763l224 763h621v-1110z"/>
    <glyph glyph-name="afii10079" unicode="н" horiz-adv-x="1630" vert-adv-y="1433" d="M123 0v1110h437v-370h511v370h437v-1110h-437v426h-511v-426h-437z"/>
    <glyph glyph-name="afii10080" unicode="о" vert-adv-y="1433" d="M843 1155q371 0 569.5 -155t198.5 -445q0 -272 -175 -425q-198 -175 -603 -175q-446 0 -642 211q-136 148 -136 389q0 272 174 426q199 174 614 174zM829 868q-150 0 -232.5 -82t-82.5 -231q0 -151 83 -232t237 -81q153 0 236 81.5t83 231.5q0 313 -324 313z"/>
    <glyph glyph-name="afii10081" unicode="п" horiz-adv-x="1580" vert-adv-y="1433" d="M123 0v1110h1334v-1110h-437v796h-460v-796h-437z"/>
    <glyph glyph-name="afii10082" unicode="р" vert-adv-y="1433" d="M115 -401v1511h422v-147h4q154 176 430 176q323 0 499 -192q142 -156 142 -404q0 -247 -160 -408q-179 -180 -482 -180q-274 0 -417 146h-4v-502h-434zM856 836q-145 0 -226 -74.5t-81 -207.5q0 -135 81 -209t229 -74q306 0 306 283q0 282 -309 282z"/>
    <glyph glyph-name="afii10083" unicode="с" vert-adv-y="1433" d="M1153 453h459q-34 -140 -81.5 -219t-135.5 -143q-188 -136 -549 -136q-329 0 -522 112q-258 149 -258 484q0 336 264 489q196 115 523 115q414 0 598 -176q63 -60 92.5 -123.5t48.5 -177.5h-447q-41 190 -289 190q-159 0 -245 -81.5t-86 -232.5q0 -149 85.5 -230.5 t242.5 -81.5q248 0 300 211z"/>
    <glyph glyph-name="afii10084" unicode="т" horiz-adv-x="1389" vert-adv-y="1433" d="M476 0v796h-449v314h1334v-314h-448v-796h-437z"/>
    <glyph glyph-name="afii10085" unicode="у" horiz-adv-x="1403" vert-adv-y="1433" d="M131 -389v274h104q159 0 199 80l49 98l-522 1047h471l281 -660l270 660h459l-590 -1250q-74 -155 -158.5 -208t-259.5 -53q-143 0 -303 12z"/>
    <glyph glyph-name="afii10086" unicode="ф" horiz-adv-x="2197" vert-adv-y="1433" d="M880 0h-60q-313 0 -536 158q-230 162 -230 408q0 265 271 421q214 123 495 123h60v404h437v-404h60q319 0 533 -150q105 -74 168.5 -185t63.5 -221q0 -118 -70.5 -231.5t-188.5 -186.5q-97 -60 -238 -98t-268 -38h-60v-448h-437v448zM880 851q-179 -12 -273 -81 q-116 -86 -116 -211q0 -133 123 -223q91 -66 266 -76v591zM1317 260q171 8 261 67q128 84 128 225q0 132 -102.5 211t-286.5 88v-591z"/>
    <glyph glyph-name="afii10087" unicode="х" horiz-adv-x="1593" vert-adv-y="1433" d="M-12 0l512 575l-469 535h539l227 -322l227 322h539l-467 -535l510 -575h-559l-250 342l-250 -342h-559z"/>
    <glyph glyph-name="afii10088" unicode="ц" horiz-adv-x="1659" vert-adv-y="1433" d="M123 0v1110h437v-796h460v796h437v-796h148v-624h-437v310h-1045z"/>
    <glyph glyph-name="afii10089" unicode="ч" horiz-adv-x="1649" vert-adv-y="1433" d="M1089 0v371q-253 -54 -470 -54q-261 0 -385.5 83t-124.5 257v453h437v-419q0 -39 42.5 -49.5t198.5 -10.5q140 0 302 19v460h437v-1110h-437z"/>
    <glyph glyph-name="afii10090" unicode="ш" horiz-adv-x="2476" vert-adv-y="1433" d="M123 0v1110h437v-796h460v796h437v-796h460v796h436v-1110h-2230z"/>
    <glyph glyph-name="afii10091" unicode="щ" horiz-adv-x="2571" vert-adv-y="1433" d="M123 0v1110h437v-796h460v796h437v-796h474v796h437v-796h148v-622h-436v308h-1957z"/>
    <glyph glyph-name="afii10092" unicode="ъ" horiz-adv-x="1977" vert-adv-y="1433" d="M533 0v796h-506v314h943v-369h416q211 0 357 -81q179 -99 179 -283q0 -163 -152 -270t-384 -107h-853zM970 314h396q119 0 119 61q0 33 -34.5 56.5t-84.5 23.5h-396v-141z"/>
    <glyph glyph-name="afii10093" unicode="ы" horiz-adv-x="2143" vert-adv-y="1433" d="M123 0v1110h437v-369h416q211 0 357 -81q179 -99 179 -283q0 -163 -152 -270t-384 -107h-853zM560 314h396q119 0 119 61q0 33 -34.5 56.5t-84.5 23.5h-396v-141zM1583 0v1110h437v-1110h-437z"/>
    <glyph glyph-name="afii10094" unicode="ь" horiz-adv-x="1566" vert-adv-y="1433" d="M123 0v1110h437v-369h416q211 0 357 -81q179 -99 179 -283q0 -163 -152 -270t-384 -107h-853zM560 314h396q119 0 119 61q0 33 -34.5 56.5t-84.5 23.5h-396v-141z"/>
    <glyph glyph-name="afii10095" unicode="э" horiz-adv-x="1628" vert-adv-y="1433" d="M532 432v292h615q-24 66 -122 105.5t-236 39.5q-199 0 -309 -68l-362 115q95 117 271 181t403 64q336 0 552 -145q229 -155 229 -456q0 -295 -213 -450q-215 -155 -572 -155q-279 0 -468 90.5t-265 260.5l394 69q91 -128 342 -128q313 0 366 185h-625z"/>
    <glyph glyph-name="afii10096" unicode="ю" horiz-adv-x="2409" vert-adv-y="1433" d="M822 741q120 414 750 414q782 0 782 -598q0 -270 -174 -426q-196 -176 -605 -176q-679 0 -766 472h-249v-427h-437v1110h437v-369h262zM1572 868q-150 0 -232.5 -82t-82.5 -232t83 -231.5t237 -81.5q153 0 236 81.5t83 232.5q0 313 -324 313z"/>
    <glyph glyph-name="afii10097" unicode="я" horiz-adv-x="1543" vert-adv-y="1433" d="M983 0v371h-252q-101 0 -142 -27t-41 -94v-63q0 -108 -60 -187h-420q50 53 68.5 106t24.5 161q6 98 33.5 138.5t117.5 82.5q-244 75 -244 288q0 149 133 241.5t347 92.5h872v-1110h-437zM983 658v165h-385q-93 0 -93 -82q0 -83 93 -83h385z"/>
    <glyph glyph-name="afii10071" unicode="ё" vert-adv-y="1433" d="M1123 330h459q-133 -375 -743 -375q-446 0 -637 206q-136 147 -136 383q0 344 270 499q195 112 498 112q419 0 614 -212q154 -167 154 -457v-33h-1090q50 -248 343 -248q166 0 268 125zM512 678h644q-56 227 -322 227q-267 0 -322 -227zM304 1228v262h434v-262h-434z M931 1228v262h434v-262h-434z"/>
    <glyph glyph-name="afii10099" unicode="ђ" horiz-adv-x="1578" vert-adv-y="1433" d="M285 0v1059h-271v314h271v141h437v-141h406v-314h-406v-227q188 90 355 90q188 0 303.5 -80t115.5 -211v-553q0 -155 -150 -260t-372 -105h-181v314h104q137 2 149.5 6.5t12.5 54.5v456q0 72 -126 72q-108 0 -211 -30v-586h-437z"/>
    <glyph glyph-name="afii10100" unicode="ѓ" horiz-adv-x="1133" vert-adv-y="1433" d="M123 0v1110h961v-314h-524v-796h-437zM384 1237l186 287h529l-305 -287h-410z"/>
    <glyph glyph-name="afii10101" unicode="є" horiz-adv-x="1628" vert-adv-y="1433" d="M1054 429h-520q16 -65 54 -102q88 -83 253 -83q116 0 199 36t126 106l408 -83q-58 -126 -161 -198q-220 -153 -573 -153q-357 0 -572 155q-101 74 -156 188q-57 119 -57 262q0 301 229 456q216 145 553 145q226 0 402.5 -64t270.5 -181l-375 -128q-105 81 -293 81 q-116 0 -196.5 -39t-101.5 -106h510v-292z"/>
    <glyph glyph-name="afii10102" unicode="ѕ" horiz-adv-x="1554" vert-adv-y="1433" d="M55 346h504q11 -69 69 -99t182 -30q201 0 201 100q0 39 -31.5 57.5t-117.5 28.5l-387 47q-200 25 -291.5 100t-91.5 214q0 202 164 296.5t513 94.5q332 0 497 -88.5t192 -280.5h-488q-16 119 -234 119q-198 0 -198 -101q0 -66 140 -81l374 -41q235 -26 341 -106t106 -232 q0 -389 -707 -389q-367 0 -558 105q-88 49 -128.5 114t-50.5 172z"/>
    <glyph glyph-name="afii10103" unicode="і" horiz-adv-x="680" vert-adv-y="1433" d="M123 0v1110h434v-1110h-434zM123 1237v262h434v-262h-434z"/>
    <glyph glyph-name="afii10104" unicode="ї" horiz-adv-x="683" vert-adv-y="1433" d="M-87 1530h353v-300h-353v300zM408 1530h353v-300h-353v300zM123 0v1110h437v-1110h-437z"/>
    <glyph glyph-name="afii10105" unicode="ј" horiz-adv-x="721" vert-adv-y="1433" d="M-55 -395v297h51q112 0 140 23.5t28 119.5v1065h434v-1096q0 -249 -94 -334q-90 -81 -326 -81q-66 0 -192 4l-21 1zM164 1237v262h434v-262h-434z"/>
    <glyph glyph-name="afii10106" unicode="љ" horiz-adv-x="2567" vert-adv-y="1433" d="M49 0v314h135q44 0 77.5 14.5t33.5 33.5v748h1266v-369h416q211 0 356 -81q179 -99 179 -283q0 -163 -151.5 -270t-383.5 -107h-853v796h-392v-462q0 -136 -123 -235t-293 -99h-267zM1561 314h396q118 0 118 61q0 33 -34.5 56.5t-83.5 23.5h-396v-141z"/>
    <glyph glyph-name="afii10107" unicode="њ" horiz-adv-x="2528" vert-adv-y="1433" d="M123 0v1110h437v-369h525v369h437v-369h416q212 0 357 -81q179 -99 179 -283q0 -163 -152 -270t-384 -107h-853v427h-525v-427h-437zM1522 314h397q118 0 118 60q0 34 -35 57.5t-83 23.5h-397v-141z"/>
    <glyph glyph-name="afii10108" unicode="ћ" horiz-adv-x="1593" vert-adv-y="1433" d="M549 1110v-265h4q145 189 453 189q224 0 348.5 -107.5t124.5 -300.5v-626h-434v495q0 211 -225 211q-128 0 -199.5 -70.5t-71.5 -196.5v-439h-434v1110h-133v272h133v117h434v-117h447v-272h-447z"/>
    <glyph glyph-name="afii10109" unicode="ќ" horiz-adv-x="1465" vert-adv-y="1433" d="M123 1110h437v-346h189l177 346h442l-281 -489l342 -621h-442l-238 450h-189v-450h-437v1110zM489 1237l186 287h529l-305 -287h-410z"/>
    <glyph glyph-name="afii10110" unicode="ў" horiz-adv-x="1403" vert-adv-y="1433" d="M131 -389v274h104q159 0 199 80l49 98l-522 1047h471l281 -660l270 660h459l-590 -1250q-74 -155 -158.5 -208t-259.5 -53q-143 0 -303 12zM246 1524h238q13 -56 65.5 -81t155.5 -25q104 0 154.5 24.5t66.5 81.5h238q-28 -170 -135.5 -244.5t-325.5 -74.5 q-246 0 -357 104q-42 40 -63.5 86t-36.5 129z"/>
    <glyph glyph-name="afii10193" unicode="џ" horiz-adv-x="1565" vert-adv-y="1433" d="M123 0v1110h437v-877h445v877h437v-1110h-456v-329h-407v329h-456z"/>
    <glyph glyph-name="afii10050" unicode="Ґ" horiz-adv-x="1391" vert-adv-y="1433" d="M1282 1454v-313h-657v-1141h-475v1462h853l188 225h369z"/>
    <glyph glyph-name="afii10098" unicode="ґ" horiz-adv-x="1264" vert-adv-y="1433" d="M835 1110l225 307h390l-366 -310v-311h-524v-796h-437v1110h712z"/>
    <glyph glyph-name="uni0492" unicode="Ғ" horiz-adv-x="1655" vert-adv-y="1433" d="M622 905h890v-321h-890v-584h-475v584h-83v321h83v557h1448v-321h-973v-236z"/>
    <glyph glyph-name="uni0493" unicode="ғ" horiz-adv-x="1183" vert-adv-y="1433" d="M609 692h451v-314h-451v-378h-437v378h-106v314h106v418h976v-314h-539v-104z"/>
    <glyph glyph-name="uni0496" unicode="Җ" horiz-adv-x="2875" vert-adv-y="1433" d="M1152 0v629h-294l-381 -629h-450l482 786l-358 676h430l259 -512h312v512h475v-512h277l236 512h424l-357 -676l335 -535h319v-569h-475v318h-152l-347 629h-260v-629h-475z"/>
    <glyph glyph-name="uni0497" unicode="җ" horiz-adv-x="2351" vert-adv-y="1433" d="M1334 0h-437v451h-203l-260 -451h-420l342 622l-276 488h413l201 -345h203v345h437v-345h175l189 345h415l-290 -488l224 -389h277v-562h-437v329h-135l-243 451h-175v-451z"/>
    <glyph glyph-name="uni049A" unicode="Қ" horiz-adv-x="1815" vert-adv-y="1433" d="M1298 0h-131l-347 629h-198v-629h-475v1462h475v-512h188l251 512h520l-354 -676l332 -535h215v-572h-476v321z"/>
    <glyph glyph-name="uni049B" unicode="қ" horiz-adv-x="1584" vert-adv-y="1433" d="M1104 0h-175l-237 452h-132v-452h-437v1110h437v-344h132l184 344h402l-280 -487l214 -390h329v-562h-437v329z"/>
    <glyph glyph-name="uni049C" unicode="Ҝ" horiz-adv-x="1959" vert-adv-y="1433" d="M695 629h-73v-629h-475v1462h475v-512h73v256h317v-256h41l264 512h515l-359 -676l483 -786h-535l-357 629h-52v-258h-317v258z"/>
    <glyph glyph-name="uni049D" unicode="ҝ" horiz-adv-x="1488" vert-adv-y="1433" d="M767 765h50l204 345h415l-280 -487l341 -623h-417l-263 451h-50v-163h-159v163h-48v-451h-437v1110h437v-345h48v175h159v-175z"/>
    <glyph glyph-name="uni04A2" unicode="Ң" horiz-adv-x="2073" vert-adv-y="1433" d="M1853 231h175v-563h-475v332h-175v594h-720v-594h-475v1462h475v-547h720v547h475v-1231z"/>
    <glyph glyph-name="uni04A3" unicode="ң" horiz-adv-x="1694" vert-adv-y="1433" d="M123 0v1110h437v-369h525v369h437v-878h149v-563h-437v331h-149v427h-525v-427h-437z"/>
    <glyph glyph-name="uni04AE" unicode="Ү" vert-adv-y="1433" d="M590 0v461l-649 1001h565l328 -620l328 620h565l-649 -1001v-461h-488z"/>
    <glyph glyph-name="uni04Af" unicode="ү" horiz-adv-x="1570" vert-adv-y="1433" d="M1151 1110h419l-559 -1110v-448h-437v448l-574 1110h448l365 -808z"/>
    <glyph glyph-name="uni04B0" unicode="Ұ" vert-adv-y="1433" d="M1067 161v-161h-486v161h-293v272h293v28l-640 1001h558l325 -620l330 620h572l-659 -1001v-28h316v-272h-316z"/>
    <glyph glyph-name="uni04B1" unicode="ұ" horiz-adv-x="1541" vert-adv-y="1433" d="M982 -267v-181h-408v181h-311v314h310l-573 1063h448l349 -774l324 774h420l-559 -1063h311v-314h-311z"/>
    <glyph glyph-name="uni04B2" unicode="Ҳ" horiz-adv-x="2006" vert-adv-y="1433" d="M1547 0h-215l-391 475l-418 -475h-502l669 747l-669 715h537l383 -460l391 460h500l-647 -715l459 -510h305v-562h-402v325z"/>
    <glyph glyph-name="uni04B3" unicode="ҳ" horiz-adv-x="1731" vert-adv-y="1433" d="M1363 227h324v-577h-437v350h-183l-165 182q-19 22 -66 73q-35 37 -71 78l-20 -22l-49 -57l-64 -72l-161 -182h-487l545 568l-518 542h497l127 -151q12 -13 97 -120l33 -41l26 31l57 64l60 66l138 151h487l-527 -542z"/>
    <glyph glyph-name="uni04B6" unicode="Ҷ" horiz-adv-x="2073" vert-adv-y="1433" d="M1396 0v499q-316 -58 -506 -58q-367 0 -571.5 116.5t-204.5 325.5v579h475v-579q0 -69 107.5 -96t380.5 -27q106 0 319 11v691h475v-1211h163v-577h-475v326h-163z"/>
    <glyph glyph-name="uni04B7" unicode="ҷ" horiz-adv-x="1726" vert-adv-y="1433" d="M1116 0v371q-253 -54 -478 -54q-263 0 -389 83t-126 257v453h437v-453q0 -12 109 -23.5t228 -11.5q82 0 219 20v468h437v-877h150v-556h-437v323h-150z"/>
    <glyph glyph-name="uni04B8" unicode="Ҹ" horiz-adv-x="2035" vert-adv-y="1433" d="M1179 704q83 4 191 52v706h475v-1462h-475v499q-123 -51 -191 -52v-276h-399v270h-20q-314 5 -480.5 118.5t-166.5 323.5v579h475v-579q4 -193 192 -186v306h399v-299z"/>
    <glyph glyph-name="uni04B9" unicode="ҹ" horiz-adv-x="1663" vert-adv-y="1433" d="M672 535v272h304v-268q84 18 127 60v511h437v-1110h-437v371q-32 -25 -127 -41v-249h-304v235q-224 0 -334 31q-215 60 -215 310v453h437v-453q0 -63 19.5 -84t92.5 -38z"/>
    <glyph glyph-name="uni04BA" unicode="Һ" horiz-adv-x="1978" vert-adv-y="1433" d="M612 1462v-506q299 65 507 65q350 0 550 -117.5t200 -324.5v-579h-475v551q0 80 -78.5 114.5t-259.5 34.5q-175 0 -444 -60v-640h-475v1462h475z"/>
    <glyph glyph-name="uni04BB" unicode="һ" horiz-adv-x="1593" vert-adv-y="1433" d="M115 0v1499h434v-549h4q146 189 453 189q224 0 348.5 -107.5t124.5 -300.5v-731h-434v600q0 211 -225 211q-128 0 -199.5 -70.5t-71.5 -195.5v-545h-434z"/>
    <glyph glyph-name="uni04C0" unicode="Ӏ" horiz-adv-x="795" vert-adv-y="1433" d="M154 0v1462h487v-1462h-487z"/>
    <glyph glyph-name="uni04CF" unicode="ӏ" horiz-adv-x="795" vert-adv-y="1433" d="M154 0v1462h487v-1462h-487z"/>
    <glyph glyph-name="uni04D8" unicode="Ә" horiz-adv-x="2109" vert-adv-y="1433" d="M1541 893q-88 290 -481 290q-311 0 -472 -166l-398 135q274 352 886 352q370 0 617 -154q143 -88 232 -225q115 -178 115 -394q0 -351 -282 -570q-264 -206 -694 -206q-441 0 -706 210q-290 231 -290 589q0 61 12 139h1461zM1540 572h-991q38 -139 174 -217.5t338 -78.5 q192 0 316 76.5t163 219.5z"/>
    <glyph glyph-name="uni04D9" unicode="ә" vert-adv-y="1433" d="M545 780h-459q133 375 743 375q446 0 637 -206q136 -147 136 -383q0 -344 -270 -499q-196 -112 -498 -112q-419 0 -614 212q-154 167 -154 457v33h1090q-50 248 -344 248q-165 0 -267 -125zM1156 432h-644q56 -227 322 -227q267 0 322 227z"/>
    <glyph glyph-name="uni04E8" unicode="Ө" horiz-adv-x="2048" vert-adv-y="1433" d="M1036 1508q941 0 941 -777q0 -776 -953 -776q-952 0 -952 768q0 465 324 651q235 134 640 134zM1443 884q-34 142 -142.5 219t-275.5 77q-340 0 -420 -296h838zM609 563q81 -280 416 -280q333 0 414 280h-830z"/>
    <glyph glyph-name="uni04E9" unicode="ө" vert-adv-y="1433" d="M843 1155q371 0 569.5 -155t198.5 -445q0 -272 -175 -425q-198 -175 -603 -175q-446 0 -642 211q-136 148 -136 389q0 272 174 426q198 174 614 174zM1128 685q-68 184 -295 184t-295 -184h590zM1115 398h-564q78 -156 282 -156t282 156z"/>
    <glyph glyph-name="uni04EE" unicode="Ӯ" horiz-adv-x="1761" vert-adv-y="1433" d="M143 0v321h367q43 0 61.5 12.5t53.5 66.5l51 76l-660 986h440l441 -696l437 696h440l-808 -1224q-85 -130 -166 -175q-110 -63 -249 -63h-408zM397 1565v238h995v-238h-995z"/>
    <glyph glyph-name="uni04EF" unicode="ӯ" horiz-adv-x="1403" vert-adv-y="1433" d="M131 -389v274h104q159 0 199 80l49 98l-522 1047h471l281 -660l270 660h459l-590 -1250q-74 -155 -158.5 -208t-259.5 -53q-143 0 -303 12zM245 1269v238h913v-238h-913z"/>
    <glyph glyph-name="Wgrave" unicode="Ẁ" horiz-adv-x="2351" vert-adv-y="1433" d="M438 0l-438 1462h471l229 -987h5l264 987h413l265 -987h4l229 987h471l-438 -1462h-481l-254 952h-4l-254 -952h-482zM998 1559l-305 286h528l187 -286h-410z"/>
    <glyph glyph-name="wgrave" unicode="ẁ" horiz-adv-x="2314" vert-adv-y="1433" d="M405 0l-401 1110h471l229 -729h5l251 729h394l252 -729h4l229 729h471l-401 -1110h-516l-234 653h-4l-233 -653h-517zM964 1237l-305 287h528l187 -287h-410z"/>
    <glyph glyph-name="Wacute" unicode="Ẃ" horiz-adv-x="2351" vert-adv-y="1433" d="M438 0l-438 1462h471l229 -987h5l264 987h413l265 -987h4l229 987h471l-438 -1462h-481l-254 952h-4l-254 -952h-482zM961 1559l186 286h529l-305 -286h-410z"/>
    <glyph glyph-name="wacute" unicode="ẃ" horiz-adv-x="2314" vert-adv-y="1433" d="M405 0l-401 1110h471l229 -729h5l251 729h394l252 -729h4l229 729h471l-401 -1110h-516l-234 653h-4l-233 -653h-517zM943 1237l186 287h529l-305 -287h-410z"/>
    <glyph glyph-name="Wdieresis" unicode="Ẅ" horiz-adv-x="2351" vert-adv-y="1433" d="M438 0l-438 1462h471l229 -987h5l264 987h413l265 -987h4l229 987h471l-438 -1462h-481l-254 952h-4l-254 -952h-482zM645 1549v262h434v-262h-434zM1272 1549v262h434v-262h-434z"/>
    <glyph glyph-name="wdieresis" unicode="ẅ" horiz-adv-x="2314" vert-adv-y="1433" d="M405 0l-401 1110h471l229 -729h5l251 729h394l252 -729h4l229 729h471l-401 -1110h-516l-234 653h-4l-233 -653h-517zM627 1219v262h434v-262h-434zM1253 1219v262h434v-262h-434z"/>
    <glyph glyph-name="Ygrave" unicode="Ỳ" vert-adv-y="1433" d="M590 0v461l-649 1001h565l328 -620l328 620h565l-649 -1001v-461h-488zM662 1559l-305 286h528l187 -286h-410z"/>
    <glyph glyph-name="ygrave" unicode="ỳ" horiz-adv-x="1403" vert-adv-y="1433" d="M131 -389v274h104q159 0 199 80l49 98l-522 1047h471l281 -660l270 660h459l-590 -1250q-74 -155 -158.5 -208t-259.5 -53q-143 0 -303 12zM515 1237l-305 287h528l187 -287h-410z"/>
    <glyph glyph-name="uni2010" unicode="‐" horiz-adv-x="668" vert-adv-y="1433" d="M598 685v-270h-546v270h546z"/>
    <glyph glyph-name="uni2011" unicode="‑" horiz-adv-x="985" vert-adv-y="1433" d="M125 436v316h735v-316h-735z"/>
    <glyph glyph-name="uni2012" unicode="‒" horiz-adv-x="1024" vert-adv-y="1433" d="M0 451v286h1024v-286h-1024z"/>
    <glyph glyph-name="afii00208" unicode="―" horiz-adv-x="2048" vert-adv-y="1433" d="M0 451v286h2048v-286h-2048z"/>
    <glyph glyph-name="quotereversed" unicode="‛" horiz-adv-x="558" vert-adv-y="1433" d="M402 1462v-251h-160q-6 -148 160 -178v-92q-129 8 -198.5 85.5t-71.5 216.5v219h270z"/>
    <glyph glyph-name="uni201F" unicode="‟" horiz-adv-x="1003" vert-adv-y="1433" d="M883 1462v-251h-160q-6 -149 160 -178v-92q-129 7 -199 85t-71 217v219h270zM416 1462v-251h-160q-6 -148 160 -178v-92q-129 8 -198.5 85.5t-71.5 216.5v219h270z"/>
    <glyph glyph-name="uni2023" unicode="‣" horiz-adv-x="702" vert-adv-y="1433" d="M100 943l501 -321l-501 -320v641z"/>
    <glyph glyph-name="uni2024" unicode="․" horiz-adv-x="1024" vert-adv-y="1433" d="M669 313v-313h-313v313h313z"/>
    <glyph glyph-name="uni2031" unicode="‱" horiz-adv-x="2778" vert-adv-y="1433" d="M2400 549q120 0 207 -88t87 -211t-87.5 -210.5t-210.5 -87.5q-124 0 -211.5 87t-87.5 211q0 126 87.5 212.5t215.5 86.5zM2395 372q-51 0 -88 -37t-37 -89t37 -88.5t90 -36.5t90 36.5t37 88.5q0 53 -37.5 89.5t-91.5 36.5zM1700 552q120 0 207 -88t87 -211 q0 -124 -87 -211t-211 -87t-211.5 87t-87.5 211q0 126 87.5 212.5t215.5 86.5zM1695 375q-51 0 -88 -37t-37 -89t37 -88.5t90 -36.5t90 36.5t37 88.5q0 53 -37.5 89.5t-91.5 36.5zM996 552q120 0 207 -88t87 -211t-87.5 -210.5t-210.5 -87.5q-124 0 -211.5 87.5t-87.5 210.5 q0 125 88 212t215 87zM991 375q-51 0 -88 -37.5t-37 -88.5t37.5 -88t89.5 -37t89 36.5t37 88.5q0 53 -37 89.5t-91 36.5zM371 1484q121 0 207.5 -88t86.5 -210q0 -124 -87 -211t-211 -87q-123 0 -210.5 87t-87.5 210q0 126 87.5 212.5t214.5 86.5zM367 1308q-52 0 -88.5 -37 t-36.5 -88q0 -53 37 -89.5t89 -36.5q53 0 90 37t37 88q0 53 -37 89.5t-91 36.5zM1031 1480h175l-844 -1523h-176z"/>
    <glyph glyph-name="uni2070" unicode="⁰" horiz-adv-x="822" vert-adv-y="1433" d="M414 1455q85 0 157 -38t112 -104q71 -118 71 -301q0 -185 -73 -297q-92 -143 -269 -143q-163 0 -255 116.5t-92 323.5q0 192 77 305q94 138 272 138zM408 1300q-77 0 -111.5 -70t-34.5 -225q0 -278 149 -278q146 0 146 286q0 150 -35.5 218.5t-113.5 68.5z"/>
    <glyph glyph-name="uni2074" unicode="⁴" horiz-adv-x="823" vert-adv-y="1433" d="M768 937v-158h-118v-194h-193v194h-395v169l405 501h183v-512h118zM463 930v311l-238 -311h238z"/>
    <glyph glyph-name="uni2075" unicode="⁵" horiz-adv-x="822" vert-adv-y="1433" d="M700 1442v-164h-379l-18 -97q-6 -33 -14 -61q70 50 161 50q104 0 182 -51q118 -75 118 -234q0 -153 -125 -243q-96 -70 -230 -70q-155 0 -245.5 74t-96.5 204h198q5 -57 44 -91t101 -34q66 0 108.5 43t42.5 111q0 69 -41.5 110t-110.5 41q-86 0 -135 -71l-179 3l91 480 h528z"/>
    <glyph glyph-name="uni2076" unicode="⁶" horiz-adv-x="823" vert-adv-y="1433" d="M746 1214h-192q-25 96 -117 96q-144 0 -167 -223q77 80 196 80q129 0 212 -80.5t83 -206.5q0 -143 -105 -230q-94 -78 -227 -78q-168 0 -262.5 112.5t-94.5 314.5q0 216 100 338q98 118 267 118q130 0 209.5 -62.5t97.5 -178.5zM422 1023q-58 0 -97 -42t-39 -105 q0 -65 39.5 -107t99.5 -42t100 42t40 105q0 66 -40 107.5t-103 41.5z"/>
    <glyph glyph-name="uni2077" unicode="⁷" horiz-adv-x="822" vert-adv-y="1433" d="M733 1442v-153q-9 -9 -48 -50q-116 -118 -179.5 -280.5t-76.5 -373.5h-208q4 207 135 453q84 158 164 235q-95 -2 -110 -2h-319v171h642z"/>
    <glyph glyph-name="uni2078" unicode="⁸" horiz-adv-x="823" vert-adv-y="1433" d="M213 1045q-116 52 -116 174q0 111 104 179q88 57 213 57q137 0 226.5 -65.5t89.5 -166.5q0 -121 -118 -178q155 -54 155 -202q0 -122 -97.5 -196.5t-256.5 -74.5q-160 0 -254 70q-100 74 -100 195q0 151 154 208zM411 1312q-58 0 -94 -28t-36 -74q0 -49 36 -78t97 -29 q62 0 97 28.5t35 78.5q0 48 -35.5 75t-99.5 27zM409 974q-65 0 -106.5 -35.5t-41.5 -91.5q0 -57 42 -93t110 -36q69 0 110.5 35t41.5 93t-43 93t-113 35z"/>
    <glyph glyph-name="uni2079" unicode="⁹" horiz-adv-x="822" vert-adv-y="1433" d="M77 814h191q21 -96 121 -96q138 0 161 223q-73 -82 -187 -82q-107 0 -185 55q-115 81 -115 232q0 144 111 233q94 76 226 76q164 0 257 -111.5t93 -308.5q0 -212 -98 -337.5t-263 -125.5q-132 0 -215 64.5t-97 177.5zM396 1300q-59 0 -98 -42.5t-39 -106.5t39 -106 t100 -42q60 0 99 41.5t39 105.5q0 65 -39.5 107.5t-100.5 42.5z"/>
    <glyph glyph-name="uni207A" unicode="⁺" horiz-adv-x="794" vert-adv-y="1433" d="M348 1163h97v-254h248v-86h-248v-254h-97v254h-248v86h248v254z"/>
    <glyph glyph-name="uni207B" unicode="⁻" horiz-adv-x="794" vert-adv-y="1433" d="M100 909h594v-86h-594v86z"/>
    <glyph glyph-name="uni207C" unicode="⁼" horiz-adv-x="794" vert-adv-y="1433" d="M100 998h593v-86h-593v86zM100 813h593v-86h-593v86z"/>
    <glyph glyph-name="uni207D" unicode="⁽" horiz-adv-x="458" vert-adv-y="1433" d="M296 1439h120q-66 -102 -105.5 -238.5t-39.5 -264.5q0 -127 39 -263t106 -239h-120q-74 108 -108 188q-68 163 -68 314q0 128 42.5 249t133.5 254z"/>
    <glyph glyph-name="uni207E" unicode="⁾" horiz-adv-x="458" vert-adv-y="1433" d="M240 1439q176 -253 176 -503q0 -249 -176 -502h-120q67 103 106 238.5t39 263.5q0 129 -39 265t-106 238h120z"/>
    <glyph glyph-name="nsuperior" unicode="ⁿ" horiz-adv-x="784" vert-adv-y="1433" d="M78 1176h196v-80q75 96 201 96q144 0 208 -99q31 -49 31 -160v-398h-196v384q0 62 -25 89.5t-80 27.5q-73 0 -106 -41.5t-33 -133.5v-326h-196v641z"/>
    <glyph glyph-name="uni2080" unicode="₀" horiz-adv-x="822" vert-adv-y="1433" d="M414 870q85 0 157 -38t112 -104q71 -118 71 -301q0 -184 -73 -297q-92 -143 -269 -143q-163 0 -255 116.5t-92 323.5q0 192 77 305q94 138 272 138zM408 715q-77 0 -111.5 -70t-34.5 -225q0 -278 149 -278q146 0 146 286q0 149 -36 218t-113 69z"/>
    <glyph glyph-name="uni2081" unicode="₁" horiz-adv-x="823" vert-adv-y="1433" d="M578 864v-864h-202v556h-59h-66h-65h-29v137q128 3 192 48q49 34 69 123h160z"/>
    <glyph glyph-name="uni2082" unicode="₂" horiz-adv-x="823" vert-adv-y="1433" d="M749 164v-164h-689q1 155 97 249q35 35 77.5 65t187.5 122q66 41 91.5 75t25.5 79q0 52 -34 84t-89 32q-70 0 -104 -44t-37 -141h-194v20q0 161 98 246q95 83 244 83q133 0 222 -67q99 -75 99 -200q0 -109 -78 -188q-35 -35 -162 -114q-149 -91 -187 -141q82 4 142 4h290 z"/>
    <glyph glyph-name="uni2083" unicode="₃" horiz-adv-x="823" vert-adv-y="1433" d="M80 573q4 112 59 183q89 114 268 114q137 0 220 -62q93 -68 93 -177q0 -115 -110 -166q144 -51 144 -196q0 -124 -97.5 -203t-251.5 -79q-164 0 -257 86q-91 83 -91 236h194v-11q0 -70 40 -109.5t110 -39.5q65 0 105 33t40 87q0 58 -40.5 88.5t-116.5 30.5q-29 0 -56 -4 v138q23 -2 39 -2q154 0 154 100q0 44 -33 70.5t-88 26.5q-130 0 -133 -144h-192z"/>
    <glyph glyph-name="uni2084" unicode="₄" horiz-adv-x="823" vert-adv-y="1433" d="M768 352v-158h-118v-194h-193v194h-395v169l405 501h183v-512h118zM463 345v312l-238 -312h238z"/>
    <glyph glyph-name="uni2085" unicode="₅" horiz-adv-x="822" vert-adv-y="1433" d="M700 857v-164h-379l-18 -97q-6 -33 -14 -61q70 48 160 48q105 0 183 -51q118 -75 118 -233q0 -153 -125 -243q-96 -69 -230 -69q-155 0 -245.5 73.5t-96.5 204.5h198q5 -57 44 -90t100 -33q67 0 109.5 42.5t42.5 110.5q0 69 -41.5 109.5t-111.5 40.5q-85 0 -134 -70 l-179 2l91 480h528z"/>
    <glyph glyph-name="uni2086" unicode="₆" horiz-adv-x="823" vert-adv-y="1433" d="M746 629h-192q-25 95 -117 95q-144 0 -167 -221q78 79 196 79q129 0 212 -80.5t83 -205.5q0 -144 -105 -231q-94 -78 -227 -78q-168 0 -262.5 113t-94.5 315q0 215 100 336q99 119 267 119q130 0 209.5 -62.5t97.5 -178.5zM422 438q-58 0 -97 -42t-39 -105 q0 -65 39.5 -107t99.5 -42t100 42t40 105q0 66 -40 107.5t-103 41.5z"/>
    <glyph glyph-name="uni2087" unicode="₇" horiz-adv-x="822" vert-adv-y="1433" d="M733 857v-153q-9 -9 -48 -50q-116 -118 -179.5 -280.5t-76.5 -373.5h-208q4 207 135 453q84 159 164 235q-95 -2 -110 -2h-319v171h642z"/>
    <glyph glyph-name="uni2088" unicode="₈" horiz-adv-x="823" vert-adv-y="1433" d="M213 460q-116 52 -116 174q0 111 104 179q88 57 213 57q137 0 226.5 -65.5t89.5 -166.5q0 -121 -118 -178q155 -54 155 -202q0 -122 -97.5 -196.5t-256.5 -74.5q-160 0 -254 70q-100 74 -100 195q0 151 154 208zM411 727q-58 0 -94 -28.5t-36 -73.5q0 -49 36 -78t97 -29 t96.5 28.5t35.5 78.5q0 48 -35.5 75t-99.5 27zM409 389q-65 0 -106.5 -35.5t-41.5 -91.5q0 -57 42 -93t110 -36q69 0 110.5 35t41.5 93t-43 93t-113 35z"/>
    <glyph glyph-name="uni2089" unicode="₉" horiz-adv-x="822" vert-adv-y="1433" d="M77 230h191q21 -97 121 -97q137 0 161 224q-71 -82 -188 -82q-105 0 -184 55q-115 81 -115 231q0 144 111 233q94 76 226 76q164 0 257 -111.5t93 -308.5q0 -212 -98 -337.5t-263 -125.5q-132 0 -215 64.5t-97 178.5zM396 716q-59 0 -98 -42.5t-39 -106.5t39.5 -106 t99.5 -42t99 41.5t39 105.5q0 65 -39.5 107.5t-100.5 42.5z"/>
    <glyph glyph-name="uni208A" unicode="₊" horiz-adv-x="794" vert-adv-y="1433" d="M348 594h97v-254h248v-86h-248v-254h-97v254h-248v86h248v254z"/>
    <glyph glyph-name="uni208B" unicode="₋" horiz-adv-x="794" vert-adv-y="1433" d="M694 340v-86h-594v86h594z"/>
    <glyph glyph-name="uni208C" unicode="₌" horiz-adv-x="794" vert-adv-y="1433" d="M100 428h593v-86h-593v86zM100 243h593v-86h-593v86z"/>
    <glyph glyph-name="uni208D" unicode="₍" horiz-adv-x="458" vert-adv-y="1433" d="M296 870h120q-66 -102 -105.5 -238.5t-39.5 -264.5t39.5 -264t105.5 -239h-120q-74 108 -108 188q-68 163 -68 315q0 127 42.5 248.5t133.5 254.5z"/>
    <glyph glyph-name="uni208E" unicode="₎" horiz-adv-x="458" vert-adv-y="1433" d="M240 -136h-120q66 102 105.5 238.5t39.5 264.5t-39 264t-106 239h120q176 -253 176 -503t-176 -503z"/>
    <glyph glyph-name="uni20A0" unicode="₠" horiz-adv-x="1341" vert-adv-y="1433" d="M471 446q-121 13 -212 76q-219 152 -219 478q0 257 137.5 412t365.5 155q366 0 436 -361q6 -31 12 -63h-239q-4 23 -10 52q-29 155 -213 155q-120 0 -188 -93t-68 -256q0 -280 198 -333v410h791v-217h-558v-202h539v-217h-539v-225h583v-217h-816v446z"/>
    <glyph glyph-name="uni20A1" unicode="₡" horiz-adv-x="1448" vert-adv-y="1433" d="M1129 1386l139 244l113 -59l-152 -267q124 -139 139 -336h-288q-8 35 -12 51l-446 -787q60 -24 134 -24q142 0 226.5 76t97.5 216h294q-12 -210 -134 -350q-170 -195 -493 -195q-141 0 -257 45l-57 -100l-112 59l56 100q-31 23 -57 46l-115 -202l-113 59l139 245 q-143 210 -143 511q0 352 173 555q183 214 498 214q99 0 185 -22l96 168l112 -60l-86 -152q21 -10 63 -35zM993 1147q-24 24 -58 44l-467 -824q21 -33 48 -63zM409 521l401 707q-19 3 -41 3q-164 0 -256 -106q-124 -145 -124 -406q0 -101 20 -198z"/>
    <glyph glyph-name="uni20A2" unicode="₢" horiz-adv-x="1448" vert-adv-y="1433" d="M558 267v561h281v-212q97 230 303 230q14 0 32 -2v-284q-52 8 -85 8q-250 0 -250 -247v-106q47 10 135 63l205 -175q-135 -89 -219.5 -119t-203.5 -30q-348 0 -526 255q-142 202 -142 510q0 350 173 553q184 215 496 215q109 0 169.5 -15t143.5 -63v-360 q-69 102 -134.5 141.5t-167.5 39.5q-179 0 -279 -136t-100 -379q0 -331 169 -448z"/>
    <glyph glyph-name="afii08941" unicode="₤" horiz-adv-x="1228" vert-adv-y="1433" d="M478 961h335v-170h-267q31 -86 55 -170h212v-170h-202q-32 -113 -166 -223q97 43 185 43q57 0 142 -22q90 -24 131 -24q111 0 189 86l124 -211q-56 -59 -143.5 -93t-185.5 -34q-58 0 -100 8t-149 39q-113 32 -186 32q-56 0 -104 -17.5t-115 -62.5l-126 187 q196 133 222 292h-235v170h207q-39 97 -71 170h-136v170h69q-12 56 -12 100q0 154 112 259q139 129 388 129q242 0 376 -121t137 -344h-286q-3 102 -48 154q-60 68 -173 68q-84 0 -137.5 -45.5t-53.5 -116.5q0 -37 12 -83z"/>
    <glyph glyph-name="uni20A5" unicode="₥" horiz-adv-x="1783" vert-adv-y="1433" d="M1278 1100h30q162 0 253.5 -88t91.5 -246v-766h-281v721q-15 142 -153 142q-43 0 -79 -14l-113 -205v-644h-281v132l-180 -327l-114 61l294 534v321q-13 140 -151 140q-92 0 -143 -55.5t-51 -155.5v-650h-281v1083h279v-134q127 151 297 151q210 0 294 -159 q52 68 111 105l108 196l114 -60z"/>
    <glyph glyph-name="uni20A6" unicode="₦" horiz-adv-x="1448" vert-adv-y="1433" d="M710 541h-273v-541h-301v541h-229v127h229v130h-231v127h231v537h308l314 -537h266v537h301v-537h255v-127h-255v-130h257v-127h-257v-541h-301zM636 668l-75 130h-124v-130h199zM487 925l-50 86v-86h50zM832 798l76 -130h116v130h-192zM982 541l42 -72v72h-42z"/>
    <glyph glyph-name="peseta" unicode="₧" horiz-adv-x="2065" vert-adv-y="1433" d="M142 1462h439q140 0 221 -18t146 -64q180 -126 180 -377q0 -224 -148 -352q-63 -54 -143.5 -78.5t-198.5 -24.5h-211v-548h-285v1462zM427 1213v-435h168q127 0 183 48q69 59 69 172q0 116 -80 173q-58 42 -189 42h-151zM1407 548v-126h-120v-235q0 -43 9 -53t47 -10 q26 0 64 5v-138q-69 -7 -116 -7q-121 0 -163 55q-17 23 -22.5 52t-5.5 101v230h-96v126h96v160h187v-160h120zM2004 367h-176q-5 35 -16 48q-22 24 -82 24q-75 0 -75 -39q0 -19 22 -28t109 -26q119 -22 172 -54q67 -40 67 -123q0 -89 -76.5 -140.5t-207.5 -51.5 q-278 0 -288 214h180q4 -49 29 -69t82 -20q42 0 67.5 14t25.5 38q0 21 -21.5 31t-98.5 26q-131 28 -172 48q-78 40 -78 128q0 83 70 129t196 46q133 0 199 -47.5t72 -147.5z"/>
    <glyph glyph-name="uni20A8" unicode="₨" horiz-adv-x="2068" vert-adv-y="1433" d="M160 907l-150 -13l-11 129l161 13v426h784q337 -3 390 -328l140 12l11 -128l-151 -13q-30 -216 -244 -299q139 -56 167 -128.5t36 -403.5q2 -84 65 -119v-55h-324q-44 83 -44 250q0 49 1 97q1 43 1 56q0 177 -187 177h-344v-580h-301v907zM461 831h362q118 -1 166.5 42.5 t48.5 150.5q0 102 -48.5 144.5t-166.5 42.5h-362v-380zM2030 580h-168q-6 132 -155 132q-166 0 -166 -111q0 -73 144 -106l129 -29q129 -32 180 -75q72 -61 72 -166q0 -125 -98.5 -199t-264.5 -74q-178 0 -262 73t-91 233h168q8 -57 18 -80q35 -79 179 -79q83 0 133.5 31.5 t50.5 83.5q0 73 -123 102l-126 30q-164 43 -219.5 92.5t-55.5 152.5q0 123 90.5 195.5t244.5 72.5q317 0 320 -279z"/>
    <glyph glyph-name="uni20A9" unicode="₩" horiz-adv-x="1893" vert-adv-y="1433" d="M1063 610h-225l-127 -610h-272l-172 610h-276v127h240l-38 136h-202v127h166l-131 462h318l97 -462h262l95 462h298l99 -462h264l93 462h318l-128 -462h167v-127h-202l-37 -136h239v-127h-275l-169 -610h-270zM1036 737l-29 136h-114l-28 -136h171zM979 1000l-30 141 l-30 -141h60zM467 873l28 -136h154l28 136h-210zM522 610l51 -244l50 244h-101zM1223 873l29 -136h155l27 136h-211zM1279 610l53 -246l49 246h-102z"/>
    <glyph glyph-name="newsheqelsign" unicode="₪" horiz-adv-x="1679" vert-adv-y="1433" d="M778 1155v-809q48 -227 267 -227q259 0 259 265v960h226v-987q-11 -115 -29 -164.5t-67 -98.5q-139 -140 -391 -140q-223 0 -357 110t-134 293v798h226zM406 -46h-226v1152q13 114 32 164t68 99q140 140 390 140q225 0 356 -108.5t131 -294.5v-798h-226v820 q-45 216 -259 216q-125 0 -195.5 -72t-70.5 -201v-1117z"/>
    <glyph glyph-name="dong" unicode="₫" horiz-adv-x="1226" vert-adv-y="1433" d="M812 1196h-268v134h268v132h281v-132h120v-134h-120v-1196h-281v110q-101 -156 -298 -156q-142 0 -255 90q-103 83 -158 234q-43 118 -43 248q0 228 121 398q58 82 145 129q89 48 190 48q196 0 298 -159v254zM573 866q-104 0 -167 -93q-67 -99 -67 -247q0 -146 67 -245 q63 -92 170 -92t171 92q66 97 66 244q0 152 -66 248q-66 93 -174 93zM1042 -123v-127h-807v127h807z"/>
    <glyph glyph-name="Euro" unicode="€" horiz-adv-x="1819" vert-adv-y="1433" d="M203 461h-167l49 213h88q-2 40 -2 53v27v6h-135l49 213h109q105 534 802 534q285 0 456 -74q125 -54 194 -139.5t115 -242.5h-543q-52 129 -231 129q-200 0 -269 -207h398l-49 -213h-380v-22q0 -24 2 -64h372l-49 -213h-284q69 -179 254 -179q165 0 201 102h540 q-52 -216 -204 -313q-180 -116 -527 -116q-649 0 -789 506z"/>
    <glyph glyph-name="uni20D2" unicode="⃒" horiz-adv-x="1095" vert-adv-y="1433" d="M630 1282v-1529h-166v1529h166z"/>
    <glyph glyph-name="uni20D3" unicode="⃓" horiz-adv-x="1095" vert-adv-y="1433" d="M630 1148v-1261h-166v1261h166z"/>
    <glyph glyph-name="uni2100" unicode="℀" horiz-adv-x="1682" vert-adv-y="1433" d="M1355 1338l-795 -1338h-131l805 1338h121zM1649 473h-189q-30 126 -138 126q-161 0 -161 -229q0 -220 158 -220q108 0 141 125h189q-14 -125 -103 -198.5t-227 -73.5q-169 0 -262 95.5t-93 270.5q0 181 93 279t265 98q143 0 229 -72t98 -201zM653 578v-22h-187 q-19 26 -20 69q-89 -98 -200 -98q-92 0 -146.5 57.5t-54.5 152.5q0 185 195 219l68 13q84 13 111 28.5t27 49.5q0 68 -100 68q-61 0 -87.5 -21t-33.5 -74h-160q4 240 278 240q270 0 270 -214v-384q1 -46 40 -84zM445 882q-23 -11 -72 -21l-59 -12q-98 -18 -98 -94 q0 -83 93 -83q136 0 136 162v48z"/>
    <glyph glyph-name="uni2101" unicode="℁" horiz-adv-x="2245" vert-adv-y="1433" d="M1556 1462l-606 -1462h-161l606 1462h161zM620 1464l362 -879h-230l-75 193h-338l-76 -193h-226l362 879h221zM629 931l-120 323l-122 -323h242zM2094 607h-209q-10 130 -168 130q-147 0 -147 -92q0 -38 37 -56t184 -51q160 -37 223 -75q117 -70 117 -196 q0 -133 -105.5 -210t-288.5 -77q-196 0 -303.5 84t-109.5 239h218q3 -74 38 -109q54 -53 165 -53q76 0 120.5 29t44.5 79q0 49 -67 73q-34 13 -183 51q-169 43 -227 91q-74 61 -74 168q0 120 100.5 193.5t266.5 73.5q173 0 267.5 -75t100.5 -217z"/>
    <glyph glyph-name="uni2102" unicode="ℂ" horiz-adv-x="1449" vert-adv-y="1433" d="M641 140q68 -13 122 -13q181 0 285.5 104t128.5 309h191q-37 -239 -131 -359q-168 -215 -490 -215q-306 0 -483 200q-178 202 -178 541q0 368 210 577q182 182 469 182q366 0 523 -269q39 -67 65 -196h-190q-79 304 -396 304q-51 0 -126 -13v-1152zM450 238v956 q-173 -170 -173 -475q0 -310 173 -481z"/>
    <glyph glyph-name="uni2103" unicode="℃" horiz-adv-x="2006" vert-adv-y="1433" d="M1721 968h-288q-58 262 -312 262q-164 0 -255 -106q-125 -145 -125 -408q0 -241 97 -375t272 -134q141 0 225 76t98 216h294q-12 -210 -134 -350q-170 -195 -491 -195q-341 0 -519 254q-142 203 -142 511q0 351 173 554q183 214 497 214q264 0 428.5 -140t181.5 -379z M390 1676q83 0 143 -61t60 -146q0 -86 -60.5 -146.5t-146.5 -60.5t-146.5 61t-60.5 148q0 85 61.5 145t149.5 60zM384 1595q-51 0 -88 -37.5t-37 -89.5q0 -53 37 -90t90 -37t90 37.5t37 90.5q0 52 -38 89t-91 37z"/>
    <glyph glyph-name="uni2104" unicode="℄" horiz-adv-x="1115" vert-adv-y="1433" d="M540 1238q273 -50 298 -343h-154q-20 153 -144 196v-722q126 46 155 218h154q-24 -312 -309 -365v-57h528v-165h-714v225q-151 34 -236.5 166t-85.5 330q0 202 85.5 338.5t236.5 173.5v229h186v-224zM354 378v704q-162 -74 -162 -360q0 -266 162 -344z"/>
    <glyph glyph-name="afii61248" unicode="℅" horiz-adv-x="614" vert-adv-y="1433" d="M310 878q64 0 111 -47.5t47 -113.5q0 -72 -53 -120q-46 -41 -108 -41q-72 0 -120 53q-41 46 -41 109q0 67 48 113.5t116 46.5z"/>
    <glyph glyph-name="uni2106" unicode="℆" horiz-adv-x="1701" vert-adv-y="1433" d="M1296 1338l-794 -1338h-131l804 1338h121zM718 980h-188q-31 127 -138 127q-162 0 -162 -230q0 -220 158 -220q108 0 142 125h188q-14 -126 -103 -199.5t-226 -73.5q-170 0 -263 96t-93 271q0 181 93.5 279.5t265.5 98.5q142 0 229 -72.5t97 -201.5zM1584 2h-196v80 q-74 -96 -201 -96q-122 0 -180.5 63.5t-58.5 195.5v398h196v-384q0 -117 105 -117q139 0 139 175v326h196v-641z"/>
    <glyph glyph-name="uni2107" unicode="ℇ" horiz-adv-x="1187" vert-adv-y="1433" d="M1112 486v-55q0 -194 -110 -314q-150 -163 -405 -163q-215 0 -363 135q-150 138 -150 339q0 129 61 221.5t171 131.5q-193 105 -193 309q0 173 135.5 285t343.5 112q274 0 407 -156q82 -96 87 -281v-51h-301v51q0 179 -184 179q-84 0 -135.5 -46.5t-51.5 -122.5 q0 -160 198 -180h90v-250h-111q-97 0 -154 -57t-57 -155q0 -94 56.5 -150.5t150.5 -56.5q113 0 162.5 64t51.5 211h301z"/>
    <glyph glyph-name="uni2108" unicode="℈" horiz-adv-x="1448" vert-adv-y="1433" d="M1146 823q-35 222 -123 331q-116 144 -315 144q-175 0 -263.5 -70.5t-121.5 -237.5h-219q47 256 188.5 376.5t392.5 120.5q300 0 473 -184q207 -221 207 -590q0 -349 -183 -555t-491 -206q-543 0 -616 597h218l4 -22q25 -147 77 -234q91 -153 316 -153q212 0 337 156 q91 112 121 339h-590v188h588z"/>
    <glyph glyph-name="uni2109" unicode="℉" horiz-adv-x="2006" vert-adv-y="1433" d="M429 1648q83 0 143 -61.5t60 -145.5q0 -86 -60.5 -146.5t-146.5 -60.5t-146.5 61t-60.5 148q0 85 61.5 145t149.5 60zM423 1568q-51 0 -88 -37.5t-37 -89.5q0 -53 37 -90t90 -37t90 37.5t37 90.5q0 52 -38 89t-91 37zM1053 629v-629h-300v1462h1026v-251h-726v-331h641 v-251h-641z"/>
    <glyph glyph-name="uni210A" unicode="ℊ" horiz-adv-x="1022" vert-adv-y="1433" d="M955 784l-212 -738q67 41 119 89l35 -57q-70 -60 -177 -114q-34 -157 -89 -222q-114 -133 -345 -133q-133 0 -209.5 37.5t-76.5 102.5q0 89 115 132q55 20 226 34q105 9 228 55l82 267q-93 -123 -148 -166q-120 -95 -224 -95q-74 0 -123 59t-49 149q0 135 67.5 281 t185.5 266q154 156 312 156q138 0 283 -103zM796 768q-71 60 -137 60q-113 0 -229 -166q-168 -242 -168 -443q0 -127 102 -127q81 0 170 87q85 82 128 167t92 265zM547 -102q-113 -38 -274 -68q-107 -21 -107 -86q0 -74 126 -74q181 0 235 160q6 18 20 68z"/>
    <glyph glyph-name="uni210B" unicode="ℋ" horiz-adv-x="1916" vert-adv-y="1433" d="M560 518l175 452q-21 -1 -36 -1q-52 0 -87 58q-37 61 -71 61q-46 0 -123 -93l-31 20q122 182 219 182q38 0 67 -45q45 -72 76 -72q32 0 85 38t191 160l25 -17l-264 -667l382 130l73 187q81 215 208 313q124 94 261 94q86 0 136 -46t50 -124q0 -160 -140 -271 q-100 -80 -394 -175l-212 -538q-17 -40 -17 -60q0 -45 44 -45q86 0 229 119l35 -46q-186 -157 -357 -157q-149 0 -149 121q0 35 27 105l166 421l-379 -127l-93 -241q-58 -151 -145 -216t-231 -65q-230 0 -230 174q0 116 110.5 196t399.5 175zM519 419q-186 -64 -249 -105 q-103 -68 -103 -147q0 -38 31.5 -67t72.5 -29q108 0 171 156zM1402 802q412 112 412 313q0 104 -101 104q-153 0 -245 -242z"/>
    <glyph glyph-name="uni210C" unicode="ℌ" horiz-adv-x="1754" vert-adv-y="1433" d="M378 447q-29 30 -29 59q0 13 2 28q2 14 2 23q0 30 -21 50t-93 58q-95 51 -134.5 111.5t-39.5 154.5q0 171 95 277q107 119 292 119q324 0 324 -377v-230h372v301q0 71 20 119q25 60 141 121.5t205 61.5q68 0 125 -75q49 -64 49 -96q0 -24 -72 -51t-137 -27q-24 0 -25 30 q-8 119 -44 119q-57 0 -57 -167v-868q7 -193 48 -193q42 0 49 128q2 44 10 51.5t54 7.5q149 0 149 -37q0 -18 -78 -87q-202 -175 -297 -175q-35 0 -71 34.5t-54 83.5q-15 44 -15 162v469h-372v-102q-2 -152 -21 -225.5t-76 -143.5q-58 -71 -124.5 -115.5t-113.5 -44.5 q-33 0 -120 62q-40 29 -96 29q-32 0 -90 -21q31 88 93.5 144.5t128.5 56.5q53 0 101 -57q31 -36 47 -36q66 0 66 212v520q-9 300 -217 300q-85 0 -141 -54.5t-56 -137.5q0 -71 33.5 -113.5t127.5 -92.5q93 -50 126.5 -90t33.5 -104q0 -57 -47 -101q-37 -35 -53 -71z"/>
    <glyph glyph-name="uni210D" unicode="ℍ" horiz-adv-x="1440" vert-adv-y="1433" d="M283 1279h-69v-1279h-184v1462h436h3v-603h762v603h186v-1462h-186v694h-762v-694h-186v1279z"/>
    <glyph glyph-name="uni210E" unicode="ℎ" horiz-adv-x="1008" vert-adv-y="1433" d="M304 444q294 463 493 463q44 0 75 -35.5t31 -85.5q0 -58 -25 -145l-124 -426q-22 -79 -22 -108q0 -32 21 -32q48 0 144 140l30 -24q-65 -95 -142.5 -154.5t-135.5 -59.5q-75 0 -75 87q0 41 21 115l124 427q7 27 11 40q16 59 16 85q0 63 -51 63q-114 0 -318 -301 q-102 -151 -164 -364l-38 -129h-148l335 1173q24 79 24 111q0 54 -65 54l-45 -1v35l280 49h26z"/>
    <glyph glyph-name="uni210F" unicode="ℏ" horiz-adv-x="1008" vert-adv-y="1433" d="M496 1115l182 94l56 -82l-277 -147l-152 -536q291 463 492 463q43 0 74.5 -35.5t31.5 -85.5q0 -61 -25 -145l-124 -426q-23 -79 -23 -108q0 -32 21 -32q19 0 63.5 42.5t82.5 97.5l29 -24q-67 -96 -143.5 -155t-135.5 -59q-33 0 -54 25t-21 64q0 33 23 113l124 427 q6 27 10 40q16 61 16 85q0 27 -14.5 45t-36.5 18q-55 0 -137.5 -78t-180.5 -223q-61 -91 -93.5 -162.5t-70.5 -201.5l-37 -129h-149l253 885l-216 -115l-48 97l303 157l43 149q24 82 24 110q0 55 -65 55l-44 -1v35l280 49h26z"/>
    <glyph glyph-name="uni2110" unicode="ℐ" horiz-adv-x="1079" vert-adv-y="1433" d="M544 480l231 587q6 17 9 25q6 18 6 31q0 30 -42 30q-72 0 -166.5 -80.5t-181.5 -215.5l-44 30q303 431 580 431q90 0 90 -84q0 -46 -38 -142l-328 -838q-58 -151 -145 -216t-231 -65q-107 0 -168.5 44.5t-61.5 121.5q0 106 106.5 180t383.5 161zM516 419 q-192 -72 -265.5 -128t-73.5 -130q0 -89 96 -89q116 0 173 155z"/>
    <glyph glyph-name="uni2111" unicode="ℑ" horiz-adv-x="1213" vert-adv-y="1433" d="M376 552q-6 71 -32 107q-18 26 -34 40t-92 71q-117 87 -117 227q0 170 127 254q128 84 335 84q266 0 567 -104l-4 -31q-115 -80 -157 -124q-75 -78 -75 -159q0 -58 22 -97t110 -134q77 -84 110.5 -153t33.5 -141q0 -120 -76 -212q-62 -74 -213 -141q-138 -62 -212 -62 q-43 0 -123 39l-147 71q-67 28 -108 28q-46 0 -127 -31l-21 16q82 107 126.5 145.5t86.5 38.5q41 0 114 -35l208 -99q101 -50 156 -50q57 0 99 62t42 148q0 52 -18.5 96t-67.5 107l-130 168q-36 60 -49 97.5t-13 78.5q0 67 33 117t128 126q-137 41 -357 41q-324 0 -324 -144 q0 -53 46 -82q27 -17 142 -55q45 -15 74.5 -52t29.5 -78q0 -78 -93 -178z"/>
    <glyph glyph-name="uni2112" unicode="ℒ" horiz-adv-x="1562" vert-adv-y="1433" d="M410 887q70 -3 105 -3q42 0 128 4q58 134 104 201q80 115 218 183.5t291 68.5q114 0 165 -46q41 -38 41 -96q0 -260 -629 -373l-228 -567q89 -77 148 -105q91 -43 179 -43q166 0 366 129l41 -62q-247 -174 -470 -174q-87 0 -156.5 24t-178.5 91q-60 -48 -95 -69 q-92 -52 -203 -52q-82 0 -133 36q-70 50 -70 146q0 111 100 181q87 61 191 61q57 0 118 -26l171 411q-32 -1 -49 -1q-45 0 -174 9zM868 910q153 29 235 58q218 80 218 182q0 69 -99 69q-104 0 -197 -72.5t-139 -189.5zM386 250q-5 5 -11 10q-62 58 -126 58q-53 0 -91.5 -37 t-38.5 -88q0 -41 27 -65t74 -24q51 0 87 29.5t71 100.5q3 7 6 11q0 2 1 3v0l1 1v1v0z"/>
    <glyph glyph-name="afii61289" unicode="ℓ" horiz-adv-x="1097" vert-adv-y="1433" d="M559 568q-50 -297 -50 -400q0 -52 31 -52q20 0 35 18t48 82q25 46 53 46q42 0 42 -48q0 -69 -58 -151q-78 -111 -183 -111q-117 0 -164 112q-25 61 -25 202q0 52 2 100q-70 -83 -95 -83q-14 0 -26.5 21t-12.5 44t11 38.5t75 88.5q24 27 65 81q70 395 172 637 q116 276 294 276q94 0 141 -70q40 -59 40 -139q0 -92 -42 -205t-118 -222q-45 -66 -235 -265zM582 728q106 118 172 265q72 158 72 254q0 30 -14 50t-34 20q-53 0 -86 -92q-56 -154 -110 -497z"/>
    <glyph glyph-name="uni2114" unicode="℔" horiz-adv-x="1634" vert-adv-y="1433" d="M840 1320h711v-127h-711v-251q100 159 299 159q217 0 338 -174q117 -166 117 -400q0 -229 -121 -397q-126 -176 -335 -176q-198 0 -298 156v-110h-281v1193h-141v-1193h-301v1193h-98v127h98v142h301v-142h141v142h281v-142zM1072 866q-103 0 -168 -94.5t-65 -245.5 t65.5 -244t171.5 -93q105 0 171 93.5t66 242.5q0 153 -66.5 247t-174.5 94z"/>
    <glyph glyph-name="uni2115" unicode="ℕ" horiz-adv-x="1449" vert-adv-y="1433" d="M423 1021l-84 128h-4v-1149h-180v1432h202l755 -1162h4v1162h180v-1432h-208l-474 728v-728h-191v1021z"/>
    <glyph glyph-name="afii61352" unicode="№" horiz-adv-x="3150" vert-adv-y="1433" d="M1382 0l-770 1010v-1010h-475v1462h485l760 -994v994h475v-1462h-475zM1974 87v273h1035v-273h-1035zM2491 1222q251 0 400 -123q122 -100 122 -279t-122 -279q-149 -123 -408 -123q-261 0 -409 123q-122 101 -122 278q0 179 122 280q147 123 417 123zM2481 969 q-53 0 -87.5 -42.5t-34.5 -106.5q0 -65 35 -107t89 -42t89 42t35 107q0 66 -35 107.5t-91 41.5z"/>
    <glyph glyph-name="uni2117" unicode="℗" horiz-adv-x="1666" vert-adv-y="1433" d="M688 653v-379h-114v894h370q72 -3 111.5 -14.5t76.5 -40.5q88 -70 88 -207q0 -118 -77 -189q-70 -64 -174 -64h-281zM688 754h238q175 7 175 157q0 73 -46 114.5t-129 41.5h-238v-313zM844 1489q205 0 390 -113q185 -114 283 -305q83 -165 83 -348q0 -216 -113 -401 q-112 -184 -305 -282q-165 -84 -348 -84q-215 0 -401 113q-184 113 -282 306q-84 164 -84 346q0 217 113 402q110 182 306 283q163 83 358 83zM825 1365q-168 0 -321 -95q-152 -95 -232 -256q-69 -138 -69 -291q0 -181 93 -336q93 -154 251 -236q136 -70 287 -70 q177 0 329 95q152 94 232 255q69 137 69 290q0 183 -92 337q-91 152 -252 237q-134 70 -295 70z"/>
    <glyph glyph-name="uni2118" unicode="℘" horiz-adv-x="1417" vert-adv-y="1433" d="M449 1075l29 -39q-99 -109 -140 -202.5t-41 -211.5q0 -90 40 -198q337 476 706 476q157 0 238 -112q70 -98 70 -262q0 -199 -96 -345q-121 -184 -348 -184q-146 0 -230 79q-90 84 -90 202q0 69 37.5 114.5t94.5 45.5q41 0 68 -29.5t27 -73.5q0 -65 -76 -89 q-30 -10 -30 -39q0 -47 46.5 -81t109.5 -34q69 0 129 40.5t97 110.5q65 124 65 282q0 125 -53 196q-49 65 -146 65q-138 0 -297 -122t-286 -323l185 -280q77 -122 77 -223q0 -114 -88 -176q-59 -42 -143 -42q-118 0 -189 79q-74 82 -74 204q0 142 93 326q-100 178 -100 344 q0 257 315 502zM283 160q-63 -135 -63 -241q0 -98 45 -153q51 -60 118 -60q35 0 59.5 24.5t24.5 60.5q0 66 -64 171z"/>
    <glyph glyph-name="uni2119" unicode="ℙ" horiz-adv-x="1677" vert-adv-y="1433" d="M651 612v-612h-191v1271h-112v-1271h-191v1432h978q204 0 319.5 -102t115.5 -282q0 -179 -151 -325q-49 -49 -153 -80t-216 -31h-399zM651 772h397q331 0 331 257q0 115 -67 178.5t-188 63.5h-473v-499z"/>
    <glyph glyph-name="uni211A" unicode="ℚ" horiz-adv-x="1524" vert-adv-y="1433" d="M1420 -4l-96 -120l-219 176q-160 -86 -344 -86q-346 0 -537 261q-148 201 -148 489q0 310 169 517q191 233 517 233q347 0 538 -261q148 -201 148 -488q0 -330 -217 -570zM632 142q69 -15 129 -15q101 0 200 39l-159 127l100 116l191 -152q164 185 164 457 q0 266 -135.5 428.5t-357.5 162.5q-65 0 -132 -15v-1148zM441 247v938q-174 -179 -174 -468q0 -302 174 -470z"/>
    <glyph glyph-name="uni211B" unicode="ℛ" horiz-adv-x="1508" vert-adv-y="1433" d="M725 620l-97 -266q-63 -157 -141 -232q-134 -126 -274 -126q-180 0 -180 179q0 320 253 655q171 225 411.5 361.5t466.5 136.5q297 0 297 -231q0 -167 -144 -291.5t-376 -158.5l-7 -1q32 -41 46 -108l63 -298q12 -89 29 -117.5t58 -28.5q63 0 141 94l49 -45 q-86 -89 -146.5 -123t-132.5 -34q-166 0 -196 157l-64 341q-17 95 -56 136zM676 1050q-260 -213 -404 -477q-127 -233 -127 -404q0 -100 57 -100q53 0 122.5 103t131.5 274zM761 718l109 7q108 21 161.5 47t105.5 81q107 114 107 250q0 143 -117 143q-177 0 -285 -302z"/>
    <glyph glyph-name="uni211C" unicode="ℜ" horiz-adv-x="1468" vert-adv-y="1433" d="M140 25l-37 12q36 108 83 157.5t114 49.5q57 0 125 -52q25 -19 43 -19q15 0 35.5 25t31.5 58q28 82 28 240v326q0 356 -215 356q-95 0 -153 -71q-48 -60 -48 -137q0 -87 69 -144q18 -15 139 -77q97 -51 97 -119q0 -79 -97 -196l-25 7q8 32 8 52q0 79 -125 149 q-103 57 -134 113q-36 65 -36 156q0 196 135 316q110 97 250 97q175 0 273 -147q140 144 316 144q140 0 228 -83q44 -42 70.5 -103.5t26.5 -122.5q0 -88 -69.5 -151.5t-225.5 -118.5q37 -24 52 -40.5t33 -50.5q26 -51 43 -118l63 -244q14 -60 34.5 -86t54.5 -26q18 0 49 15 l28 -32q-68 -86 -128 -124q-77 -49 -124 -49q-61 0 -98 147l-91 368q-21 100 -51 130.5t-109 30.5h-36v-126q1 -7 1 -9q0 -20 -8.5 -95t-12.5 -92q-38 -155 -139 -257q-93 -94 -186 -94q-45 0 -65 8.5t-96 61.5q-25 17 -57 17q-35 0 -64 -52zM767 743q163 39 239 79 q50 26 79 73t29 102q0 83 -58 136t-148 53q-51 0 -87.5 -12.5t-85.5 -46.5q22 -73 27.5 -122t5.5 -182q0 -27 -1 -80z"/>
    <glyph glyph-name="uni211D" unicode="ℝ" horiz-adv-x="1677" vert-adv-y="1433" d="M157 1432h978q203 0 319 -102t116 -280q0 -273 -249 -356v-4q118 -30 162.5 -105.5t56.5 -269.5q10 -140 24.5 -199t55.5 -116h-213q-32 40 -38 209q-7 222 -63.5 312t-189.5 90h-465v-611h-191v1271h-112v-1271h-191v1432zM651 772h397q331 0 331 257q0 115 -67 178.5 t-188 63.5h-473v-499z"/>
    <glyph glyph-name="uni211E" unicode="℞" horiz-adv-x="1365" vert-adv-y="1433" d="M893 621l118 -182l115 174h207l-223 -315l198 -298h-209l-94 145l-96 -145h-200l201 289l-224 331h-292v-620h-186v1462h604q117 -4 182 -23.5t125 -66.5q144 -115 144 -338q0 -251 -203 -365q-71 -40 -167 -48zM394 785h390q284 13 284 256q0 120 -75.5 188t-208.5 68 h-390v-512z"/>
    <glyph glyph-name="uni211F" unicode="℟" horiz-adv-x="1448" vert-adv-y="1433" d="M654 629h-303v-629h-186v1462h673q87 -3 134 -11l5 15l-391 152l36 92l483 -187l-38 -99q217 -95 217 -354q0 -125 -53.5 -205.5t-178.5 -143.5q118 -47 156.5 -120.5t43.5 -259.5q4 -151 20 -205t68 -89v-47h-226q-43 96 -43 201l2 220q0 78 -54 142q-57 66 -187 66h-72 l-285 -737l-92 35zM718 794l191 495q-49 8 -107 8h-451v-503h367zM1000 1252l-176 -458q139 6 202 65.5t63 185.5q0 141 -89 207z"/>
    <glyph glyph-name="uni2120" unicode="℠" horiz-adv-x="1793" vert-adv-y="1433" d="M721 1191h-151q-2 172 -184 172q-162 0 -162 -130q0 -45 25.5 -70t91.5 -42l219 -60q189 -50 189 -224q0 -124 -95 -197.5t-256 -73.5q-172 0 -262.5 82t-93.5 239h152v-13q0 -186 213 -186q185 0 185 139q0 89 -131 124l-219 57q-175 46 -175 210q0 120 87 191t236 71 q153 0 242.5 -73t89.5 -197q0 -6 -1 -19zM1352 585h-167l-216 611v-611h-161v877h215l251 -692l251 692h208v-877h-161v612z"/>
    <glyph glyph-name="uni2121" unicode="℡" horiz-adv-x="2006" vert-adv-y="1433" d="M700 1462v-117h-265v-804h-158v804h-264v117h687zM901 949v-290h473v-116h-633v919h612v-117h-452v-279h434v-117h-434zM1601 1462v-803h391v-116h-551v919h160z"/>
    <glyph glyph-name="uni2123" unicode="℣" horiz-adv-x="1354" vert-adv-y="1433" d="M420 460l-360 1002h200l259 -745l277 718l-390 152l35 92l483 -187l-355 -919l122 -349l404 1238h199l-507 -1462h-202l-114 318l-177 -458l-92 36z"/>
    <glyph glyph-name="uni2124" unicode="ℤ" horiz-adv-x="1552" vert-adv-y="1433" d="M1510 0h-1466v164l891 1128h-822v164h1373v-164l-888 -1128h912v-164zM372 164l890 1128h-102l-888 -1128h100z"/>
    <glyph glyph-name="uni2125" unicode="℥" horiz-adv-x="1086" vert-adv-y="1433" d="M436 970h481v-169l-407 -260q185 -18 286 -85q185 -123 185 -410q0 -233 -128.5 -367.5t-350.5 -134.5q-192 0 -314 95.5t-152 269.5h168q73 -210 292 -210q147 0 226 88.5t79 254.5q0 345 -430 345q-32 0 -66 -1h-6h-1h-122v94l528 343h-528v149l528 343h-528v147h741 v-169z"/>
    <glyph glyph-name="Ohm" unicode="Ω" horiz-adv-x="1461" vert-adv-y="1433" d="M60 0v259h317q-132 81 -204 175q-120 154 -120 374q0 303 221 511q191 179 457 179t457 -179q220 -208 220 -511q0 -182 -78 -314t-246 -235h317v-259h-588v239q116 61 183 159q109 157 109 353q0 215 -120 358q-107 126 -253 126q-147 0 -254 -127q-121 -142 -121 -353 q0 -363 292 -516v-239h-589z"/>
    <glyph glyph-name="uni2127" unicode="℧" horiz-adv-x="1523" vert-adv-y="1433" d="M659 1236q-141 -90 -193 -161q-102 -139 -102 -369q0 -218 110 -351q108 -131 288 -131t288 131q109 133 109 351q0 195 -63 308.5t-231 221.5v251h625v-251h-341q142 -94 196 -165q117 -151 117 -383q0 -284 -185 -477q-201 -211 -515 -211q-315 0 -517 211 q-185 193 -185 478q0 249 135 404q50 58 179 143h-342v251h627v-251z"/>
    <glyph glyph-name="uni2128" unicode="ℨ" horiz-adv-x="1187" vert-adv-y="1433" d="M464 700q-151 45 -151 180q0 53 28.5 85t74.5 32q42 0 71.5 -28.5t29.5 -67.5q0 -33 -35 -55q-31 -20 -31 -32q0 -26 39.5 -42t103.5 -16q147 0 238 55q100 62 100 180q0 93 -63 162q-82 91 -237 91q-111 0 -195.5 -44.5t-172.5 -147.5l-39 26q157 279 480 279 q230 0 357 -136q94 -100 94 -245q0 -135 -96 -216q-49 -42 -143 -61q106 -42 157 -93q81 -83 81 -222q0 -157 -106 -265q-127 -131 -343 -131q-141 0 -272 55q-120 51 -146 59.5t-62 8.5q-46 0 -95 -35l-29 20q88 181 188 181q51 0 83 -14t171 -99q74 -44 144 -44 q118 0 180 79q62 78 62 181q0 128 -81 199q-85 76 -224 76q-148 0 -270 -117l-39 41q82 92 148 121z"/>
    <glyph glyph-name="uni2129" unicode="℩" horiz-adv-x="452" vert-adv-y="1433" d="M182 0v1051h168v-1051h-168z"/>
    <glyph glyph-name="uni212A" unicode="K" horiz-adv-x="1448" vert-adv-y="1433" d="M450 489v-489h-301v1462h301v-642l571 642h356l-584 -629l646 -833h-360l-479 646z"/>
    <glyph glyph-name="uni212B" unicode="Å" horiz-adv-x="1448" vert-adv-y="1433" d="M1004 295h-547l-98 -295h-307l519 1462h334l505 -1462h-309zM923 546l-190 571l-192 -571h382zM726 1918q72 0 124 -53.5t52 -127.5q0 -75 -52.5 -128t-127.5 -53q-76 0 -128.5 52.5t-52.5 127.5q0 78 53 130t132 52zM722 1822q-35 0 -60 -25t-25 -60t25 -60t61 -25 q34 0 58.5 25t24.5 60q0 36 -24.5 60.5t-59.5 24.5z"/>
    <glyph glyph-name="uni212C" unicode="ℬ" horiz-adv-x="1481" vert-adv-y="1433" d="M1074 702q192 -67 192 -230q0 -203 -176 -340.5t-436 -137.5q-181 0 -263 76q-108 -74 -212 -74q-178 0 -178 179q0 320 253 655q171 225 411.5 361.5t466.5 136.5q297 0 297 -231q0 -138 -97 -246t-258 -149zM644 1050q-249 -187 -406 -475q-126 -233 -126 -407 q0 -102 63 -102q111 0 249 380zM701 640l-148 -401q-17 -52 -17 -88q0 -89 100 -89q132 0 258 112q142 127 142 297q0 89 -76.5 127.5t-258.5 41.5zM729 718l109 7q108 21 161.5 47t105.5 81q107 114 107 250q0 143 -117 143q-178 0 -285 -301z"/>
    <glyph glyph-name="uni212D" unicode="ℭ" horiz-adv-x="1323" vert-adv-y="1433" d="M589 621l160 94q63 -151 165 -151q28 0 45.5 20t17.5 52q0 44 -53 91l-132 117q-58 55 -80.5 98t-22.5 100q0 99 66.5 160.5t175.5 63.5q-61 10 -115 10q-173 0 -299 -117q-173 -161 -173 -479q0 -226 84 -390q53 -105 166 -168q110 -62 246 -62q126 0 231.5 47.5 t216.5 155.5l37 -36q-61 -81 -139 -134q-179 -121 -410 -121q-195 0 -358 93q-141 79 -215 214q-92 165 -92 374q0 340 218 531q196 172 455 172q118 0 291 -49q60 -17 98 -17q65 0 102 66h42q-12 -86 -62 -135t-126 -49q-47 0 -88 17q-43 19 -63 19q-45 0 -72.5 -35 t-27.5 -92q0 -41 15.5 -68.5t56.5 -62.5l104 -87q54 -48 75.5 -83.5t21.5 -78.5q0 -94 -78 -159q-103 -87 -251 -87q-171 0 -233 166z"/>
    <glyph glyph-name="estimated" unicode="℮" horiz-adv-x="1229" vert-adv-y="1433" d="M1095 503h-749v-213q31 -101 79 -144q78 -71 216 -71q240 0 336 210h88q-30 -94 -87 -160q-118 -138 -341 -138q-221 0 -344 143q-120 139 -120 381q0 256 133 399q129 138 334 138q170 0 291 -94q89 -69 125 -167.5t39 -283.5zM949 572v186q-17 49 -46 83 q-53 63 -115.5 91t-147.5 28q-137 0 -215 -83q-36 -38 -74 -119v-186h598z"/>
    <glyph glyph-name="uni212F" unicode="ℯ" horiz-adv-x="830" vert-adv-y="1433" d="M650 211l38 -28q-123 -118 -206.5 -163t-176.5 -45q-118 0 -191.5 81.5t-73.5 211.5q0 258 205 462q166 165 346 165q80 0 133 -42t53 -106q0 -87 -63.5 -165.5t-175.5 -129.5q-119 -55 -330 -65q-5 -53 -5 -94q0 -100 50.5 -159t136.5 -59q126 0 260 136zM220 437 q154 14 230 55q80 43 133.5 118t53.5 144q0 85 -80 85q-190 0 -337 -402z"/>
    <glyph glyph-name="uni2130" unicode="ℰ" horiz-adv-x="1287" vert-adv-y="1433" d="M413 195q84 129 210.5 203.5t260.5 74.5q73 0 119.5 -40.5t46.5 -103.5q0 -139 -193.5 -246.5t-442.5 -107.5q-209 0 -311 86q-88 75 -88 193q0 160 115 271.5t341 171.5q-136 50 -136 176q0 195 174 325t434 130q140 0 223 -48.5t83 -129.5q0 -132 -192 -245l-35 45 q134 87 134 180q0 53 -45.5 86t-119.5 33q-171 0 -309 -114.5t-138 -255.5q0 -81 54.5 -111t200.5 -30q22 0 64 1l-35 -108q-53 2 -84 2q-252 0 -381 -104q-134 -108 -134 -261q0 -187 253 -187q150 0 284.5 69t134.5 145q0 63 -89 63q-177 0 -361 -194z"/>
    <glyph glyph-name="uni2131" unicode="ℱ" horiz-adv-x="1443" vert-adv-y="1433" d="M813 720l113 290q-76 7 -170 55q-91 46 -149 46q-40 0 -70 -22t-30 -52q0 -52 73 -52q44 0 107 31l32 -25q-93 -101 -187 -101q-72 0 -114 37t-42 99q0 86 84 145.5t204 59.5q80 0 203 -45q70 -25 128 -25q50 0 81.5 13.5t137.5 79.5q76 47 147 47q14 0 42 -4v-38 q-61 -18 -116 -83q-79 -95 -141 -130l-127 -326h175v-88h-210l-87 -224q116 -85 116 -197q0 -117 -127 -226l-47 45q89 77 89 168q0 69 -67 120q-60 -153 -207.5 -242.5t-339.5 -89.5q-247 0 -247 173q0 125 163.5 214t392.5 89q30 0 89 -3l67 173h-427v88h461zM683 384 q-66 5 -84 5q-150 0 -279.5 -66.5t-129.5 -143.5q0 -95 113 -95q115 0 216 67.5t141 172.5z"/>
    <glyph glyph-name="uni2132" unicode="Ⅎ" horiz-adv-x="1226" vert-adv-y="1433" d="M875 833v629h300v-1462h-1027v251h727v331h-641v251h641z"/>
    <glyph glyph-name="uni2133" unicode="ℳ" horiz-adv-x="1927" vert-adv-y="1433" d="M485 451l4 -48q-329 -66 -329 -252q0 -96 90 -96q113 0 237 188l586 889q120 187 253 187q23 0 23 -24q0 -6 -2 -11l-447 -1120q-23 -52 -23 -69q0 -20 14 -20t39 39l661 1018q120 187 253 187q23 0 23 -23q0 -6 -2 -12l-440 -1120q-16 -41 -16 -60q0 -45 44 -45 q85 0 228 119l35 -46q-186 -157 -356 -157q-149 0 -149 121q0 37 26 105l234 597l-461 -717q-73 -104 -189 -104q-135 0 -135 115q0 40 27 109l234 597l-341 -537q-96 -160 -178.5 -224.5t-191.5 -64.5q-99 0 -157.5 47t-58.5 127q0 131 128.5 215t336.5 90z"/>
    <glyph glyph-name="uni2134" unicode="ℴ" horiz-adv-x="920" vert-adv-y="1433" d="M608 895q118 0 193 -90.5t75 -232.5q0 -272 -220 -464q-151 -130 -299 -130q-118 0 -192.5 87.5t-74.5 225.5q0 262 190 448q158 156 328 156zM583 845q-101 0 -191 -124q-67 -93 -112.5 -236.5t-45.5 -264.5q0 -89 38 -140.5t103 -51.5q113 0 202 140q61 95 103.5 236 t42.5 248q0 87 -38.5 140t-101.5 53z"/>
    <glyph glyph-name="uni2135" unicode="ℵ" horiz-adv-x="1242" vert-adv-y="1433" d="M728 640l146 345h-88q-57 1 -80 6.5t-41 23.5q-47 45 -47 141q0 129 96 227q-1 -18 -1 -31q0 -55 24.5 -76.5t88.5 -21.5h150q72 -1 100 -33q33 -39 33 -126q0 -88 -28 -186q-12 76 -80 76h-48l-95 -232q-33 -89 -33 -140q0 -54 21 -100t81 -121l85 -108q45 -59 59.5 -89 t14.5 -66q0 -61 -35 -129l-653 823q-50 -94 -50 -146q0 -48 22.5 -98t78.5 -126q90 -122 114.5 -173.5t24.5 -117.5q0 -106 -63 -139q-42 -23 -177 -23h-181v134h39q43 3 60 16.5t17 43.5q0 20 -7 35t-49 85q-65 107 -65 169q0 65 61 177l125 230l-154 191q-60 78 -60 133 q0 70 33 138z"/>
    <glyph glyph-name="uni2136" unicode="ℶ" horiz-adv-x="1242" vert-adv-y="1433" d="M136 -23q25 116 60 160t101 44h631v821q-3 63 -25.5 85.5t-81.5 22.5h-507q-128 11 -128 95q0 45 33.5 78t153.5 106q20 -98 91 -98h312q123 -4 176 -56q42 -41 54.5 -74t12.5 -103v-802q1 -50 18 -62.5t82 -12.5h62q-78 -132 -102.5 -156.5t-78.5 -24.5h-783 q-47 -1 -81 -23z"/>
    <glyph glyph-name="uni2137" unicode="ℷ" horiz-adv-x="930" vert-adv-y="1433" d="M131 0v208v7q3 84 19.5 119t64.5 60q53 29 89 33t303 12v494q1 14 1 25q0 74 -125 104q-191 46 -247.5 72t-56.5 68q0 43 30 77t148 125q15 -76 39.5 -103t96.5 -49q137 -43 170.5 -88t33.5 -186v-710q5 -59 23.5 -87t73.5 -63l-155 -132q-32 61 -32 88v286 q-149 0 -196 -17q-94 -35 -94 -141v-202h-186z"/>
    <glyph glyph-name="uni2138" unicode="ℸ" horiz-adv-x="1109" vert-adv-y="1433" d="M955 86l-154 -132q-33 63 -33 88v1068h-614q-129 10 -129 94q0 46 32.5 78t155.5 108q26 -99 94 -99h516q110 -4 171 -49.5t72 -131.5h-101q-106 -1 -106 -103v-771q5 -58 23 -86.5t73 -63.5z"/>
    <glyph glyph-name="uni214B" unicode="⅋" horiz-adv-x="1278" vert-adv-y="1433" d="M526 1456v-421l-84 -620h-135l-82 620v421h301zM526 293v-293h-301v293h301zM1136 1456v-421l-84 -620h-135l-82 620v421h301zM1136 293v-293h-301v293h301z"/>
    <glyph glyph-name="uni2153" unicode="⅓" horiz-adv-x="2730" vert-adv-y="1433" d="M642 -33l932 1483h229l-932 -1483h-229zM433 578v495h-262v213h45q129 0 193.5 31t103.5 113h252v-852h-332zM1871 340v196h182q146 0 146 69q0 75 -169 75q-76 0 -112 -17t-55 -61h-365q21 149 149.5 211.5t413.5 62.5q250 0 368 -50q138 -58 138 -196q0 -160 -186 -178 v-4q225 -27 225 -203q0 -123 -113 -188q-136 -78 -454 -78q-305 0 -440 71q-61 33 -90 81.5t-37 134.5h356q16 -74 205 -74q192 0 192 66q0 82 -192 82h-162z"/>
    <glyph glyph-name="uni2154" unicode="⅔" horiz-adv-x="2730" vert-adv-y="1433" d="M781 -33l932 1483h229l-932 -1483h-229zM1919 340v196h182q146 0 146 69q0 75 -169 75q-76 0 -112 -17t-55 -61h-365q21 149 149.5 211.5t413.5 62.5q250 0 368 -50q138 -58 138 -196q0 -160 -186 -178v-4q225 -27 225 -203q0 -123 -113 -188q-136 -78 -454 -78 q-305 0 -440 71q-61 33 -90 81.5t-37 134.5h356q17 -74 205 -74q192 0 192 66q0 82 -192 82h-162zM1115 805v-213h-1073q8 92 29 147t68 106q98 109 331 169l221 57q96 25 96 89q0 42 -43.5 66.5t-119.5 24.5q-178 0 -197 -139h-369q18 181 139 262q133 90 424 90 q535 0 535 -306q0 -153 -166 -220q-74 -30 -236 -57q-261 -43 -333 -72v-4h694z"/>
    <glyph glyph-name="uni2155" unicode="⅕" horiz-adv-x="2730" vert-adv-y="1433" d="M660 -33l932 1483h229l-932 -1483h-229zM433 578v495h-262v213h45q129 0 193.5 31t103.5 113h252v-852h-332zM2543 872v-188h-575l-34 -115q88 37 218 37q159 0 279 -50q188 -79 188 -243q0 -158 -198 -252q-146 -69 -352 -69q-211 0 -354 65q-92 41 -131.5 93.5 t-45.5 141.5h326q5 -43 30 -69q24 -23 72.5 -38t103.5 -15q100 0 161 42q54 38 54 96q0 61 -58.5 97.5t-157.5 36.5q-126 0 -198 -70l-295 3l147 497h820z"/>
    <glyph glyph-name="uni2156" unicode="⅖" horiz-adv-x="2730" vert-adv-y="1433" d="M823 -33l932 1483h230l-932 -1483h-230zM1115 805v-213h-1073q8 92 29 147t68 106q98 109 331 169l221 57q96 25 96 89q0 42 -43.5 66.5t-119.5 24.5q-178 0 -197 -139h-369q18 181 139 262q133 90 424 90q535 0 535 -306q0 -153 -166 -220q-74 -30 -236 -57 q-261 -43 -333 -72v-4h694zM2585 872v-188h-575l-35 -115q89 37 219 37q159 0 279 -50q188 -79 188 -243q0 -159 -198 -252q-146 -69 -352 -69q-211 0 -354 65q-92 41 -131.5 94t-45.5 141h326q6 -44 30 -69q24 -23 72.5 -38t103.5 -15q100 0 161 42q54 38 54 96 q0 61 -58.5 97.5t-157.5 36.5q-125 0 -198 -70l-295 3l147 497h820z"/>
    <glyph glyph-name="uni2157" unicode="⅗" horiz-adv-x="2730" vert-adv-y="1433" d="M811 -33l932 1483h230l-932 -1483h-230zM446 914v196h182q146 0 146 69q0 75 -171 75q-74 0 -110 -17t-55 -61h-365q21 149 149.5 211.5t413.5 62.5q250 0 368 -50q138 -58 138 -196q0 -160 -186 -178v-4q225 -27 225 -203q0 -123 -113 -188q-136 -78 -454 -78 q-305 0 -440 71q-61 33 -90 81.5t-37 134.5h356q16 -74 205 -74q192 0 192 66q0 82 -192 82h-162zM2598 872v-188h-575l-34 -115q88 37 217 37q160 0 280 -50q187 -79 187 -243q0 -159 -198 -252q-146 -69 -351 -69q-211 0 -354 65q-92 41 -131.5 93.5t-45.5 141.5h326 q5 -43 30 -69q24 -23 72.5 -38t103.5 -15q99 0 160 42q54 38 54 96q0 61 -58.5 97.5t-157.5 36.5q-125 0 -197 -70l-295 3l147 497h820z"/>
    <glyph glyph-name="uni2158" unicode="⅘" horiz-adv-x="2730" vert-adv-y="1433" d="M788 -33l932 1483h229l-932 -1483h-229zM697 598v113h-618v221l522 518h412v-489h143v-250h-143v-113h-316zM697 961v317l-329 -317h329zM2558 877v-188h-575l-34 -115q90 37 218 37q159 0 279 -50q188 -79 188 -243q0 -159 -198 -252q-146 -69 -352 -69q-212 0 -354 64 q-92 42 -131.5 94.5t-45.5 141.5h326q5 -44 30 -69q24 -24 72.5 -39t104.5 -15q98 0 160 42q54 38 54 96q0 62 -58.5 98.5t-156.5 36.5q-71 0 -114 -15.5t-85 -54.5l-295 3l147 497h820z"/>
    <glyph glyph-name="uni2159" unicode="⅙" horiz-adv-x="2730" vert-adv-y="1433" d="M2569 603h-316q-14 35 -26 47q-45 47 -141 47t-151 -42t-81 -133q114 62 277 62q204 0 332 -84q126 -83 126 -210q0 -149 -168 -239q-142 -77 -346 -77q-280 0 -428 132q-125 112 -125 301q0 218 157 341q152 119 410 119q287 0 412 -127q48 -49 68 -137zM2064 415 q-88 0 -146 -43q-46 -35 -46 -87q0 -57 55.5 -94.5t140.5 -37.5t141.5 37.5t56.5 93.5q0 57 -57 94t-145 37zM433 578v495h-262v213h45q129 0 193.5 31t103.5 113h252v-852h-332zM678 -33l932 1483h229l-931 -1483h-230z"/>
    <glyph glyph-name="uni215A" unicode="⅚" horiz-adv-x="2730" vert-adv-y="1433" d="M1078 1457v-188h-575l-35 -115q90 37 219 37q159 0 279 -50q188 -79 188 -243q0 -159 -198 -252q-146 -69 -352 -69q-212 0 -354 64q-92 42 -131.5 94.5t-45.5 141.5h326q5 -44 30 -69q24 -24 72.5 -39t103.5 -15q99 0 160 42q55 38 55 96q0 62 -58.5 98.5t-156.5 36.5 q-71 0 -114.5 -15.5t-84.5 -54.5l-295 3l147 497h820zM2607 603h-316q-13 34 -26 47q-45 47 -141 47q-184 0 -232 -175q114 62 277 62q206 0 333 -84q126 -84 126 -209q0 -150 -168 -240q-142 -77 -346 -77q-280 0 -428 132q-125 112 -125 301q0 218 157 341 q152 119 410 119q286 0 411 -127q30 -30 42.5 -55t25.5 -82zM2104 415q-89 0 -147 -43q-46 -35 -46 -87q0 -57 56 -94.5t141 -37.5q90 0 147 42q50 38 50 88q0 58 -56.5 95t-144.5 37zM779 -33l932 1483h229l-932 -1483h-229z"/>
    <glyph glyph-name="oneeighth" unicode="⅛" horiz-adv-x="2002" vert-adv-y="1433" d="M578 1449v-864h-202v556h-59h-66h-65h-29v137q127 3 192 48q49 34 69 123h160zM1486 1442l-799 -1442h-171l803 1442h167zM1392 460q-116 52 -116 174q0 111 104 179q88 57 213 57q137 0 226.5 -65.5t89.5 -166.5q0 -121 -117 -178q154 -54 154 -202q0 -122 -97.5 -196.5 t-256.5 -74.5q-160 0 -254 70q-100 74 -100 195q0 151 154 208zM1590 727q-58 0 -94 -28.5t-36 -73.5q0 -49 36 -78t97 -29t96.5 28.5t35.5 78.5q0 48 -35.5 75t-99.5 27zM1588 389q-65 0 -106.5 -35.5t-41.5 -91.5q0 -57 42 -93t110 -36q69 0 110.5 35t41.5 93t-43 93 t-113 35z"/>
    </font>
</defs>
</svg>
