<?xml version="1.0" encoding="UTF-8" standalone="no"?>
<!DOCTYPE svg PUBLIC "-//W3C//DTD SVG 1.1//EN" "http://www.w3.org/Graphics/SVG/1.1/DTD/svg11.dtd">
<svg xmlns="http://www.w3.org/2000/svg">
<metadata>
Created by FontForge 20120702 at Fri Feb 01 15:10:05 2013

(URW)++,Copyright 2010 by (URW)++ Design &amp; Development
</metadata>
<defs>
<font id="HiltiSmall-Extended" horiz-adv-x="684" vert-adv-y="2048">
  <font-face font-family="Hilti Small Extended" font-weight="400" font-variant="small-caps" font-stretch="normal" units-per-em="2048" panose-1="0 0 0 0 0 0 0 0 0 0" ascent="1536" descent="-512" x-height="1073" cap-height="1462" bbox="-356 -548 2701 1972" underline-thickness="102" underline-position="-154" unicode-range="U+0020-299D"/>
<missing-glyph vert-adv-y="1433" d="M68 0v1462h548v-1462h-548zM548 68v1326h-412v-1326h412z"/>
    <glyph glyph-name=".notdef" vert-adv-y="1433" d="M68 0v1462h548v-1462h-548zM548 68v1326h-412v-1326h412z"/>
    <glyph glyph-name="glyph1" horiz-adv-x="0" vert-adv-y="0"/>
    <glyph glyph-name="glyph2" vert-adv-y="1433"/>
    <glyph glyph-name="space" unicode=" " vert-adv-y="1433"/>
    <glyph glyph-name="exclam" unicode="!" vert-adv-y="1433" d="M215 0v238h254v-238h-254zM282 385l-55 694v383h229v-383l-55 -694h-119z"/>
    <glyph glyph-name="quotedbl" unicode="&quot;" horiz-adv-x="985" vert-adv-y="1433" d="M602 911v551h172v-551h-172zM211 911v551h172v-551h-172z"/>
    <glyph glyph-name="numbersign" unicode="#" horiz-adv-x="1368" vert-adv-y="1433" d="M397 561l41 299h-193v135h211l59 426h146l-60 -426h242l60 426h145l-59 -426h192v-135h-211l-41 -299h193v-135h-211l-60 -426h-145l59 426h-241l-60 -426h-145l59 426h-192v135h211zM784 561l41 299h-242l-41 -299h242z"/>
    <glyph glyph-name="dollar" unicode="$" horiz-adv-x="1368" vert-adv-y="1433" d="M625 139v500q-242 41 -349 105q-171 102 -171 300q0 189 135 295.5t385 115.5v182h98v-182q292 -13 419 -143q91 -92 111 -257h-204q-28 214 -326 227v-460q285 -51 402 -121q167 -100 167 -300q0 -203 -145.5 -314t-423.5 -120v-182h-98v182q-522 20 -549 455h205 q22 -263 344 -283zM625 834v448q-315 -24 -315 -220q0 -186 315 -228zM723 621v-482q364 10 364 237q0 104 -83 159.5t-281 85.5z"/>
    <glyph glyph-name="percent" unicode="%" horiz-adv-x="2048" vert-adv-y="1433" d="M1562 766q171 0 267 -105.5t96 -294.5t-96 -294t-271 -105q-174 0 -270 104.5t-96 295.5t96.5 295t273.5 104zM1555 631q-191 0 -191 -265q0 -264 195 -264q194 0 194 264q0 265 -198 265zM493 1454q171 0 267 -105.5t96 -294.5t-96 -294t-271 -105q-174 0 -270 104.5 t-96 295.5t96.5 295t273.5 104zM486 1319q-191 0 -191 -265q0 -263 194 -263q195 0 195 263q0 265 -198 265zM533 -33l813 1487h172l-813 -1487h-172z"/>
    <glyph glyph-name="ampersand" unicode="&amp;" horiz-adv-x="1669" vert-adv-y="1433" d="M1430 0l-176 166q-183 -203 -527 -203q-315 0 -466 165q-105 113 -105 272q0 293 381 436q-160 148 -160 299q0 150 102 238.5t274 88.5q164 0 269 -88.5t105 -227.5q0 -218 -283 -341l387 -358q56 94 68 227h192q-11 -195 -121 -356l345 -318h-285zM723 914 q211 91 211 219q0 66 -52 111.5t-128 45.5q-82 0 -133 -41t-51 -106q0 -84 138 -215zM1119 285l-465 436q-154 -69 -217.5 -139t-63.5 -173q0 -128 99 -201t273 -73q250 0 374 150z"/>
    <glyph glyph-name="quotesingle" unicode="'" vert-adv-y="1433" d="M256 911v551h172v-551h-172z"/>
    <glyph glyph-name="parenleft" unicode="(" horiz-adv-x="834" vert-adv-y="1433" d="M772 -389h-153q-217 234 -313.5 452t-96.5 473q0 256 96.5 474.5t313.5 451.5h153q-358 -397 -358 -926q0 -528 358 -925z"/>
    <glyph glyph-name="parenright" unicode=")" horiz-adv-x="834" vert-adv-y="1433" d="M215 -389h-154q358 399 358 925q0 527 -358 926h154q216 -233 312.5 -451.5t96.5 -474.5q0 -255 -96.5 -473t-312.5 -452z"/>
    <glyph glyph-name="asterisk" unicode="*" horiz-adv-x="948" vert-adv-y="1433" d="M356 1065l-262 102l57 135l248 -100v260h147v-260l254 100l53 -135l-264 -102l199 -199l-111 -92l-205 211l-200 -211l-104 92z"/>
    <glyph glyph-name="plus" unicode="+" horiz-adv-x="1229" vert-adv-y="1433" d="M528 604v432h172v-432h432v-172h-432v-432h-172v432h-432v172h432z"/>
    <glyph glyph-name="comma" unicode="," vert-adv-y="1433" d="M215 0v238h254v-209q0 -286 -254 -342v100q66 23 92 67.5t31 145.5h-123z"/>
    <glyph glyph-name="hyphen" unicode="-" horiz-adv-x="985" vert-adv-y="1433" d="M133 463v213h719v-213h-719z"/>
    <glyph glyph-name="period" unicode="." vert-adv-y="1433" d="M215 0v238h254v-238h-254z"/>
    <glyph glyph-name="slash" unicode="/" horiz-adv-x="831" vert-adv-y="1433" d="M0 -37l639 1536h192l-638 -1536h-193z"/>
    <glyph glyph-name="zero" unicode="0" horiz-adv-x="1368" vert-adv-y="1433" d="M695 1454q328 0 474 -252q107 -183 107 -492q0 -743 -592 -743t-592 741q0 746 603 746zM678 1282q-179 0 -274 -147.5t-95 -423.5q0 -572 375 -572t375 572q0 571 -381 571z"/>
    <glyph glyph-name="one" unicode="1" horiz-adv-x="909" vert-adv-y="1433" d="M408 0v1034h-428v160h49q394 0 426 268h170v-1462h-217z"/>
    <glyph glyph-name="two" unicode="2" horiz-adv-x="1368" vert-adv-y="1433" d="M299 940h-205q6 143 40 229t112 156q145 129 410 129q290 0 431 -154q107 -118 107 -296q0 -172 -101 -284.5t-369 -239.5q-189 -90 -259.5 -142.5t-132.5 -149.5h862v-188h-1126q24 191 94 296q117 174 448 334q206 99 286.5 182t80.5 196q0 129 -82.5 201.5 t-228.5 72.5q-344 0 -367 -342z"/>
    <glyph glyph-name="three" unicode="3" horiz-adv-x="1368" vert-adv-y="1433" d="M524 662v178q27 -2 86 -2h43q287 0 287 211q0 110 -82 171.5t-230 61.5q-302 0 -327 -299h-205q12 133 46.5 210.5t108.5 141.5q139 119 386 119q237 0 378.5 -106.5t141.5 -284.5q0 -229 -213 -293v-4q276 -63 276 -345q0 -213 -152 -333.5t-420 -120.5q-237 0 -381 83 q-106 61 -152.5 151t-55.5 250h205q14 -163 98 -234q90 -78 276 -78q171 0 268 71.5t97 197.5q0 121 -96.5 189.5t-266.5 68.5q-39 0 -91 -3q-19 -1 -25 -1z"/>
    <glyph glyph-name="four" unicode="4" horiz-adv-x="1368" vert-adv-y="1433" d="M811 0v346h-747v188l772 928h180v-944h250v-172h-250v-346h-205zM812 518v657h-4l-539 -657h543z"/>
    <glyph glyph-name="five" unicode="5" horiz-adv-x="1368" vert-adv-y="1433" d="M135 653l131 768h875v-188h-721l-70 -387q160 102 351 102q190 0 332 -80q214 -121 214 -397q0 -224 -156 -362q-161 -142 -440 -142q-243 0 -391 109t-170 305h211q37 -134 117 -188t241 -54q371 0 371 321q0 185 -139 265q-89 51 -222 51q-217 0 -337 -135z"/>
    <glyph glyph-name="six" unicode="6" horiz-adv-x="1368" vert-adv-y="1433" d="M1237 1085h-204q-47 197 -294 197q-207 0 -303 -118.5t-120 -401.5h4q125 188 422 188q186 0 327 -81q218 -124 218 -397q0 -227 -157.5 -366t-414.5 -139q-604 0 -604 716q0 771 628 771q217 0 340 -91t158 -278zM706 778q-164 0 -259.5 -86t-95.5 -234t96 -233.5 t264 -85.5q166 0 262 85.5t96 233.5q0 150 -96.5 235t-266.5 85z"/>
    <glyph glyph-name="seven" unicode="7" horiz-adv-x="1214" vert-adv-y="1433" d="M35 1220v201h1104v-180q-259 -333 -394.5 -606.5t-220.5 -634.5h-227q183 675 639 1220h-901z"/>
    <glyph glyph-name="eight" unicode="8" horiz-adv-x="1368" vert-adv-y="1433" d="M981 776q291 -62 291 -354q0 -213 -156.5 -334t-431.5 -121q-273 0 -430.5 120.5t-157.5 330.5q0 129 80 226.5t215 131.5v4q-229 91 -229 295q0 181 136.5 280t387.5 99q218 0 353 -78q169 -97 169 -295q0 -209 -227 -301v-4zM682 1282q-134 0 -218.5 -59.5 t-84.5 -153.5q0 -96 84.5 -154.5t222.5 -58.5q137 0 221 58.5t84 153.5q0 97 -84.5 155.5t-224.5 58.5zM680 684q-173 0 -270 -72t-97 -200q0 -130 97.5 -201.5t273.5 -71.5t273.5 71.5t97.5 201.5q0 129 -98 200.5t-277 71.5z"/>
    <glyph glyph-name="nine" unicode="9" horiz-adv-x="1368" vert-adv-y="1433" d="M131 336h205q45 -197 294 -197q207 0 302.5 118t120.5 403h-4q-126 -189 -423 -189q-185 0 -327 81q-217 124 -217 398q0 226 157.5 365t413.5 139q605 0 605 -716q0 -771 -629 -771q-217 0 -340 91t-158 278zM654 1282q-164 0 -259.5 -86t-95.5 -233q0 -149 96 -234.5 t263 -85.5q187 0 283 105q77 84 77 215q0 149 -97 234t-267 85z"/>
    <glyph glyph-name="colon" unicode=":" vert-adv-y="1433" d="M215 817v238h254v-238h-254zM215 0v238h254v-238h-254z"/>
    <glyph glyph-name="semicolon" unicode=";" vert-adv-y="1433" d="M215 0v238h254v-209q0 -286 -254 -342v100q66 23 92 67.5t31 145.5h-123zM215 817v238h254v-238h-254z"/>
    <glyph glyph-name="less" unicode="&lt;" horiz-adv-x="1229" vert-adv-y="1433" d="M96 444v148l1036 463v-172l-825 -365l825 -364v-172z"/>
    <glyph glyph-name="equal" unicode="=" horiz-adv-x="1229" vert-adv-y="1433" d="M96 645v172h1036v-172h-1036zM96 219v172h1036v-172h-1036z"/>
    <glyph glyph-name="greater" unicode="&gt;" horiz-adv-x="1229" vert-adv-y="1433" d="M921 518l-825 365v172l1036 -463v-148l-1036 -462v172z"/>
    <glyph glyph-name="question" unicode="?" horiz-adv-x="1368" vert-adv-y="1433" d="M324 1008h-205q13 140 48.5 219t113.5 145q149 127 395 127q180 0 313 -77q205 -118 205 -359q0 -121 -56.5 -207t-207.5 -195q-122 -88 -159.5 -138t-47.5 -138h-192q7 137 56.5 215.5t190.5 177.5q114 79 156.5 140t42.5 145q0 123 -82 193.5t-225 70.5 q-319 0 -346 -319zM500 0v238h254v-238h-254z"/>
    <glyph glyph-name="at" unicode="@" horiz-adv-x="1638" vert-adv-y="1433" d="M1088 1007l39 121h147l-155 -559l-2 -7q-21 -74 -21 -94q0 -47 45 -47q112 0 201.5 131t89.5 295q0 218 -148 365q-165 164 -431 164q-270 0 -448 -180q-186 -187 -186 -470q0 -273 182 -454q186 -186 463 -186q281 0 484 225h149q-233 -348 -637 -348q-337 0 -566 229 q-222 221 -222 540q0 318 224 540q228 227 557 227q286 0 490 -166q224 -183 224 -470q0 -251 -177 -427q-160 -160 -330 -160q-113 0 -124 121h-4q-114 -121 -241 -121q-126 0 -213 97.5t-87 239.5q0 216 131 380q133 168 329 168q156 0 237 -154zM851 1014 q-108 0 -197.5 -121.5t-89.5 -266.5q0 -87 48 -144.5t121 -57.5q109 0 201 122t92 266q0 86 -50.5 144t-124.5 58z"/>
    <glyph glyph-name="A" unicode="A" horiz-adv-x="1554" vert-adv-y="1433" d="M1315 0l-186 426h-717l-187 -426h-233l662 1462h247l662 -1462h-248zM1049 614l-281 647l-274 -647h555z"/>
    <glyph glyph-name="B" unicode="B" horiz-adv-x="1593" vert-adv-y="1433" d="M158 0v1462h813q451 0 451 -365q0 -226 -214 -311v-4q277 -73 277 -355q0 -192 -127.5 -309.5t-335.5 -117.5h-864zM375 858h592q112 0 175 55t63 153q0 208 -250 208h-580v-416zM375 188h588q305 0 305 246q0 236 -287 236h-606v-482z"/>
    <glyph glyph-name="C" unicode="C" horiz-adv-x="1669" vert-adv-y="1433" d="M1577 936h-217q-78 375 -502 375q-276 0 -425 -166q-138 -154 -138 -424q0 -266 147 -418t405 -152q211 0 335 98.5t178 309.5h217q-42 -257 -210 -409q-207 -187 -523 -187q-369 0 -583 233q-183 200 -183 534q0 351 209 561q207 208 555 208q369 0 574 -203 q74 -73 108 -149t53 -211z"/>
    <glyph glyph-name="D" unicode="D" horiz-adv-x="1630" vert-adv-y="1433" d="M158 0v1462h741q309 0 475 -187q164 -184 164 -525q0 -284 -110 -474q-160 -276 -516 -276h-754zM375 188h526q420 0 420 551q0 535 -461 535h-485v-1086z"/>
    <glyph glyph-name="E" unicode="E" horiz-adv-x="1442" vert-adv-y="1433" d="M158 0v1462h1175v-188h-958v-424h930v-188h-930v-474h979v-188h-1196z"/>
    <glyph glyph-name="F" unicode="F" horiz-adv-x="1327" vert-adv-y="1433" d="M158 0v1462h1132v-188h-915v-432h872v-188h-872v-654h-217z"/>
    <glyph glyph-name="G" unicode="G" horiz-adv-x="1782" vert-adv-y="1433" d="M958 600v188h672v-788h-156l-37 209q-116 -131 -247.5 -188.5t-316.5 -57.5q-379 0 -586 233q-183 205 -183 522q0 378 237 592q210 189 543 189q334 0 529 -165q74 -63 115 -134t77 -199h-229q-61 163 -176.5 236t-311.5 73q-276 0 -426 -170q-141 -159 -141 -420 q0 -283 167 -434q150 -135 400 -135q234 0 377 117t172 332h-479z"/>
    <glyph glyph-name="H" unicode="H" horiz-adv-x="1745" vert-adv-y="1433" d="M1371 0v689h-996v-689h-217v1462h217v-585h996v585h217v-1462h-217z"/>
    <glyph glyph-name="I" unicode="I" horiz-adv-x="569" vert-adv-y="1433" d="M176 0v1462h217v-1462h-217z"/>
    <glyph glyph-name="J" unicode="J" horiz-adv-x="1176" vert-adv-y="1433" d="M47 498h205v-70q0 -293 287 -293q272 0 272 291v1036h217v-991q0 -508 -487 -508q-356 0 -455 251q-38 98 -39 284z"/>
    <glyph glyph-name="K" unicode="K" horiz-adv-x="1554" vert-adv-y="1433" d="M1247 0l-598 713l-266 -236v-477h-217v1462h217v-735l817 735h307l-694 -606l733 -856h-299z"/>
    <glyph glyph-name="L" unicode="L" horiz-adv-x="1290" vert-adv-y="1433" d="M166 0v1462h217v-1274h889v-188h-1106z"/>
    <glyph glyph-name="M" unicode="M" horiz-adv-x="2087" vert-adv-y="1433" d="M1043 250l586 1212h301v-1462h-217v1212h-4l-570 -1212h-192l-568 1188h-4v-1188h-217v1462h305z"/>
    <glyph glyph-name="N" unicode="N" horiz-adv-x="1745" vert-adv-y="1433" d="M1327 0l-940 1163h-4v-1163h-217v1462h252l940 -1163h4v1163h217v-1462h-252z"/>
    <glyph glyph-name="O" unicode="O" horiz-adv-x="1782" vert-adv-y="1433" d="M900 1499q398 0 616 -243q188 -208 188 -525q0 -361 -237 -575q-214 -193 -576 -193q-407 0 -626 243q-187 208 -187 525q0 362 237 575q213 193 585 193zM885 1311q-270 0 -430 -157t-160 -423q0 -282 177 -438q160 -142 419 -142q275 0 435.5 156.5t160.5 423.5 q0 282 -176 438q-160 142 -426 142z"/>
    <glyph glyph-name="P" unicode="P" horiz-adv-x="1479" vert-adv-y="1433" d="M166 0v1462h754q489 0 489 -420q0 -213 -126.5 -334.5t-348.5 -121.5h-551v-586h-217zM383 774h522q287 0 287 262q0 113 -65 175.5t-183 62.5h-561v-500z"/>
    <glyph glyph-name="Q" unicode="Q" horiz-adv-x="1782" vert-adv-y="1433" d="M1526 -158l-236 201q-178 -80 -399 -80q-407 0 -625 243q-188 208 -188 525q0 361 237 575q214 193 576 193q406 0 625 -243q188 -208 188 -525q0 -361 -254 -588l191 -159zM1120 186l-147 125l113 138l204 -173q197 169 197 455q0 282 -177 438q-160 142 -419 142 q-275 0 -435.5 -156t-160.5 -424q0 -282 177 -438q160 -142 423 -142q120 0 225 35z"/>
    <glyph glyph-name="R" unicode="R" horiz-adv-x="1554" vert-adv-y="1433" d="M166 0v1462h905q184 0 291.5 -105.5t107.5 -285.5q0 -270 -245 -358v-4q215 -40 217 -401q12 -249 65 -308h-229q-33 42 -42 220q-12 232 -72.5 316.5t-213.5 84.5h-567v-621h-217zM383 809h606q264 0 264 232q0 111 -67.5 172t-190.5 61h-612v-465z"/>
    <glyph glyph-name="S" unicode="S" horiz-adv-x="1366" vert-adv-y="1433" d="M33 481h217q11 -149 100 -226q121 -104 367 -104q187 0 293.5 66.5t106.5 183.5q0 170 -273 215l-332 55q-434 73 -434 385q0 206 157 324.5t430 118.5q334 0 499 -166q58 -58 84 -120.5t38 -172.5h-217q-51 271 -419 271q-163 0 -259 -64.5t-96 -173.5q0 -154 240 -195 l358 -61q441 -76 441 -385q0 -254 -215 -376q-164 -93 -419 -93q-378 0 -549 186q-61 66 -86 136.5t-32 195.5z"/>
    <glyph glyph-name="T" unicode="T" horiz-adv-x="1327" vert-adv-y="1433" d="M555 0v1274h-553v188h1323v-188h-553v-1274h-217z"/>
    <glyph glyph-name="U" unicode="U" horiz-adv-x="1630" vert-adv-y="1433" d="M1477 1462v-909q0 -590 -662 -590q-661 0 -661 590v909h217v-936q0 -375 445 -375q444 0 444 375v936h217z"/>
    <glyph glyph-name="V" unicode="V" horiz-adv-x="1479" vert-adv-y="1433" d="M749 225l518 1237h234l-641 -1462h-232l-651 1462h246z"/>
    <glyph glyph-name="W" unicode="W" horiz-adv-x="2238" vert-adv-y="1433" d="M1520 0l-406 1212h-4l-403 -1212h-240l-481 1462h236l374 -1188h4l392 1188h258l401 -1188h4l373 1188h225l-495 -1462h-238z"/>
    <glyph glyph-name="X" unicode="X" horiz-adv-x="1442" vert-adv-y="1433" d="M725 899l430 563h268l-563 -713l580 -749h-285l-442 592l-441 -592h-270l578 749l-549 713h276z"/>
    <glyph glyph-name="Y" unicode="Y" horiz-adv-x="1479" vert-adv-y="1433" d="M742 797l485 665h264l-645 -850v-612h-217v602l-641 860h276z"/>
    <glyph glyph-name="Z" unicode="Z" horiz-adv-x="1403" vert-adv-y="1433" d="M29 0v194l1044 1080h-970v188h1255v-188l-1048 -1086h1065v-188h-1346z"/>
    <glyph glyph-name="bracketleft" unicode="[" horiz-adv-x="834" vert-adv-y="1433" d="M240 -389v1851h470v-160h-277v-1531h277v-160h-470z"/>
    <glyph glyph-name="backslash" unicode="\" horiz-adv-x="831" vert-adv-y="1433" d="M639 -37l-639 1536h193l638 -1536h-192z"/>
    <glyph glyph-name="bracketright" unicode="]" horiz-adv-x="834" vert-adv-y="1433" d="M401 -229v1531h-276v160h469v-1851h-469v160h276z"/>
    <glyph glyph-name="asciicircum" unicode="^" horiz-adv-x="1229" vert-adv-y="1433" d="M940 573l-325 676l-326 -676h-172l418 848h155l422 -848h-172z"/>
    <glyph glyph-name="underscore" unicode="_" horiz-adv-x="1024" vert-adv-y="1433" d="M0 -256v102h1024v-102h-1024z"/>
    <glyph glyph-name="grave" unicode="`" horiz-adv-x="1024" vert-adv-y="1433" d="M471 1231l-268 287h256l176 -287h-164z"/>
    <glyph glyph-name="a" unicode="a" horiz-adv-x="1327" vert-adv-y="1433" d="M315 737h-192q25 184 131 269q129 104 397 104q498 0 498 -305v-578q0 -92 94 -92q31 0 70 8v-143q-78 -12 -158 -12q-92 0 -133 33t-54 116q-147 -174 -465 -174q-203 0 -315.5 85.5t-112.5 239.5q0 152 107 229t354 103l234 25q105 11 145.5 39t40.5 91q0 175 -307 175 q-165 0 -244 -50.5t-90 -162.5zM956 561q-43 -44 -201 -63l-231 -29q-244 -30 -244 -171q0 -81 68.5 -128t186.5 -47q178 0 299.5 87t121.5 214v137z"/>
    <glyph glyph-name="b" unicode="b" horiz-adv-x="1403" vert-adv-y="1433" d="M125 0v1475h205v-564h4q133 187 409 187q259 0 420.5 -157.5t161.5 -410.5q0 -247 -153 -402q-163 -165 -426 -165q-275 0 -412 174h-4v-137h-205zM711 926q-179 0 -286 -107.5t-107 -286.5q0 -182 107 -289.5t289 -107.5t288 107t106 290q0 182 -107 288t-290 106z"/>
    <glyph glyph-name="c" unicode="c" horiz-adv-x="1290" vert-adv-y="1433" d="M1004 393h217q-73 -240 -211 -338q-131 -92 -346 -92q-292 0 -448 173q-138 153 -138 396q0 264 158.5 421t425.5 157q469 0 555 -395h-217q-51 223 -325 223q-181 0 -280.5 -105.5t-99.5 -296.5t99.5 -296t280.5 -105q138 0 213.5 59.5t115.5 198.5z"/>
    <glyph glyph-name="d" unicode="d" horiz-adv-x="1403" vert-adv-y="1433" d="M1073 0v137h-4q-138 -174 -412 -174q-257 0 -418 157.5t-161 409.5q0 248 153 403q163 165 428 165q273 0 410 -174h4v551h205v-1475h-205zM684 926q-177 0 -283 -107.5t-106 -286.5q0 -183 106 -290t288 -107q181 0 288.5 107.5t107.5 289.5q0 181 -108 287.5 t-293 106.5z"/>
    <glyph glyph-name="e" unicode="e" horiz-adv-x="1366" vert-adv-y="1433" d="M1282 475h-987q19 -146 109 -231q117 -109 290 -109q242 0 342 191h218q-164 -363 -565 -363q-286 0 -454 168q-157 158 -157 406t157 405q169 168 457 168q274 0 432 -163t158 -445v-27zM301 635h764q-63 303 -374 303q-154 0 -256.5 -79.5t-133.5 -223.5z"/>
    <glyph glyph-name="f" unicode="f" horiz-adv-x="682" vert-adv-y="1433" d="M188 1073v160q0 266 326 266q48 0 156 -13q12 -2 26 -3v-160l-14 1l-22 1q-54 2 -85 2q-104 0 -143 -22.5t-39 -81.5v-150h303v-160h-303v-913h-205v913h-219v160h219z"/>
    <glyph glyph-name="g" unicode="g" horiz-adv-x="1403" vert-adv-y="1433" d="M1085 915v158h205v-983q0 -283 -143 -411q-145 -130 -483 -130q-259 0 -381 75.5t-158 258.5h204q30 -95 108 -134.5t235 -39.5q413 0 413 324v155h-4q-149 -198 -414 -198q-193 0 -338 83q-252 144 -252 470q0 327 252 472q144 83 334 83q285 0 418 -183h4zM685 926 q-176 0 -283.5 -106t-107.5 -279t107.5 -276t287.5 -103t288 103.5t108 275.5q0 175 -109 280t-291 105z"/>
    <glyph glyph-name="h" unicode="h" horiz-adv-x="1329" vert-adv-y="1433" d="M125 0v1475h205v-564h4q140 199 424 199q169 0 282 -65q164 -96 164 -314v-731h-205v690q0 248 -308 248q-164 0 -262.5 -87t-98.5 -233v-618h-205z"/>
    <glyph glyph-name="i" unicode="i" horiz-adv-x="455" vert-adv-y="1433" d="M125 0v1073h205v-1073h-205zM125 1250v225h205v-225h-205z"/>
    <glyph glyph-name="j" unicode="j" horiz-adv-x="455" vert-adv-y="1433" d="M-106 -410v172q27 -4 70 -4q161 0 161 129v1186h205v-1139q0 -191 -75.5 -269.5t-258.5 -78.5q-24 0 -102 4zM125 1250v225h205v-225h-205z"/>
    <glyph glyph-name="k" unicode="k" horiz-adv-x="1214" vert-adv-y="1433" d="M346 614l545 459h311l-504 -403l543 -670h-279l-428 536l-188 -149v-387h-205v1475h205v-861z"/>
    <glyph glyph-name="l" unicode="l" horiz-adv-x="455" vert-adv-y="1433" d="M125 0v1475h205v-1475h-205z"/>
    <glyph glyph-name="m" unicode="m" horiz-adv-x="2085" vert-adv-y="1433" d="M1755 0v682q0 256 -262 256q-159 0 -253.5 -78.5t-94.5 -210.5v-649h-205v682q0 256 -259 256q-156 0 -253.5 -88.5t-97.5 -231.5v-618h-205v1073h205v-162h4q140 199 414 199q238 0 370 -199q168 199 421 199q192 0 306.5 -103t114.5 -276v-731h-205z"/>
    <glyph glyph-name="n" unicode="n" horiz-adv-x="1329" vert-adv-y="1433" d="M125 0v1073h205v-162h4q140 199 424 199q169 0 282 -65q164 -96 164 -314v-731h-205v690q0 248 -308 248q-165 0 -263 -87t-98 -233v-618h-205z"/>
    <glyph glyph-name="o" unicode="o" horiz-adv-x="1401" vert-adv-y="1433" d="M707 1110q290 0 459 -168q157 -157 157 -406q0 -261 -169.5 -417t-453.5 -156q-283 0 -452.5 156t-169.5 416q0 264 170 419.5t459 155.5zM696 938q-183 0 -292 -109t-109 -293q0 -185 109.5 -293t295.5 -108q188 0 297 108.5t109 293.5q0 186 -110 293.5t-300 107.5z "/>
    <glyph glyph-name="p" unicode="p" horiz-adv-x="1403" vert-adv-y="1433" d="M125 -414v1487h205v-149h4q138 174 412 174q257 0 418 -158t161 -410q0 -246 -153 -402q-163 -165 -428 -165q-275 0 -410 174h-4v-551h-205zM710 926q-178 0 -285 -108.5t-107 -288.5q0 -181 107.5 -287.5t289.5 -106.5q180 0 286.5 106.5t106.5 287.5q0 184 -107 290.5 t-291 106.5z"/>
    <glyph glyph-name="q" unicode="q" horiz-adv-x="1403" vert-adv-y="1433" d="M1073 924v149h205v-1487h-205v564h-4q-132 -187 -410 -187q-259 0 -420 157.5t-161 409.5q0 248 153 403q163 165 426 165q274 0 412 -174h4zM684 926q-177 0 -283 -108t-106 -288q0 -182 106 -288.5t287 -106.5q182 0 289.5 107t107.5 287q0 183 -108 290t-293 107z"/>
    <glyph glyph-name="r" unicode="r" horiz-adv-x="834" vert-adv-y="1433" d="M125 0v1073h205v-197h4q142 234 371 234q64 0 114 -12v-222q-87 21 -145 21q-162 0 -253 -93.5t-91 -258.5v-545h-205z"/>
    <glyph glyph-name="s" unicode="s" horiz-adv-x="1214" vert-adv-y="1433" d="M63 338h205q12 -215 344 -215q321 0 321 172q0 112 -202 139l-338 45q-133 18 -212 96.5t-79 192.5q0 159 132 250.5t361 91.5q471 0 521 -360h-205q-24 200 -320 200q-284 0 -284 -167q0 -105 178 -129l291 -39q374 -51 374 -291q0 -173 -140.5 -267t-399.5 -94 q-261 0 -391.5 89.5t-155.5 285.5z"/>
    <glyph glyph-name="t" unicode="t" horiz-adv-x="758" vert-adv-y="1433" d="M215 1073v330h205v-330h307v-160h-307v-661q0 -117 165 -117q61 0 142 15v-173q-89 -14 -216 -14q-296 0 -296 254v696h-221v160h221z"/>
    <glyph glyph-name="u" unicode="u" horiz-adv-x="1329" vert-adv-y="1433" d="M1204 1073v-1073h-205v162h-4q-140 -199 -424 -199q-169 0 -282 65q-164 95 -164 314v731h205v-690q0 -248 309 -248q163 0 261.5 87t98.5 233v618h205z"/>
    <glyph glyph-name="v" unicode="v" horiz-adv-x="1176" vert-adv-y="1433" d="M594 225l363 848h229l-483 -1073h-226l-487 1073h236z"/>
    <glyph glyph-name="w" unicode="w" horiz-adv-x="1858" vert-adv-y="1433" d="M1314 254l308 819h217l-424 -1073h-223l-269 819h-4l-268 -819h-217l-416 1073h227l297 -819h4l267 819h225l272 -819h4z"/>
    <glyph glyph-name="x" unicode="x" horiz-adv-x="1214" vert-adv-y="1433" d="M608 704l312 369h272l-450 -518l483 -555h-287l-338 408l-340 -408h-270l477 555l-442 518h278z"/>
    <glyph glyph-name="y" unicode="y" horiz-adv-x="1176" vert-adv-y="1433" d="M594 225l362 848h229l-561 -1257q-70 -159 -145 -213t-224 -54q-37 0 -159 8v173q17 -1 40 -4q45 -5 82 -5q90 0 130 30t90 134l47 98l-495 1090h235z"/>
    <glyph glyph-name="z" unicode="z" horiz-adv-x="1214" vert-adv-y="1433" d="M55 0v168l790 733h-751v172h1034v-160l-801 -741h832v-172h-1104z"/>
    <glyph glyph-name="braceleft" unicode="{" horiz-adv-x="682" vert-adv-y="1433" d="M96 469v135q76 9 123 76t47 166v348q0 112 64 190t157 78h148v-123h-99q-98 0 -98 -176v-350q0 -102 -49 -175.5t-133 -99.5v-4q182 -56 182 -274v-350q0 -176 98 -176h99v-123h-148q-93 0 -157 78t-64 190v348q0 99 -47 166t-123 76z"/>
    <glyph glyph-name="bar" unicode="|" horiz-adv-x="455" vert-adv-y="1433" d="M141 -37v1536h172v-1536h-172z"/>
    <glyph glyph-name="braceright" unicode="}" horiz-adv-x="682" vert-adv-y="1433" d="M47 -389v123h98q99 0 99 176v350q0 219 182 274v4q-84 26 -133 99.5t-49 175.5v350q0 176 -99 176h-98v123h148q93 0 157 -78t64 -190v-348q0 -99 47 -166t123 -76v-135q-76 -9 -123 -76t-47 -166v-348q0 -112 -64 -190t-157 -78h-148z"/>
    <glyph glyph-name="asciitilde" unicode="~" horiz-adv-x="1229" vert-adv-y="1433" d="M215 360l-74 129q98 177 253 177q85 0 252 -80q142 -68 188 -68q86 0 179 158l74 -129q-98 -176 -253 -176q-80 0 -240 74q-13 6 -24 11q-126 63 -176 63q-87 0 -179 -159z"/>
    <glyph glyph-name="Adieresis" unicode="Ä" horiz-adv-x="1554" vert-adv-y="1433" d="M1315 0l-186 426h-717l-187 -426h-233l662 1462h247l662 -1462h-248zM1049 614l-281 647l-274 -647h555zM429 1577v213h205v-213h-205zM921 1577v213h205v-213h-205z"/>
    <glyph glyph-name="Aring" unicode="Å" horiz-adv-x="1554" vert-adv-y="1433" d="M1315 0l-186 426h-717l-187 -426h-233l662 1462h247l662 -1462h-248zM1049 614l-281 647l-274 -647h555zM780 1972q98 0 167.5 -70.5t69.5 -169.5q0 -100 -70 -169.5t-170 -69.5q-99 0 -169 69.5t-70 169.5q0 101 70 170.5t172 69.5zM776 1861q-49 0 -88 -39t-39 -90 q0 -50 39 -89t89 -39q51 0 90 39t39 89q0 51 -39 90t-91 39z"/>
    <glyph glyph-name="Ccedilla" unicode="Ç" horiz-adv-x="1669" vert-adv-y="1433" d="M808 -36q-224 9 -390 106q-340 198 -340 660q0 351 209 561q207 208 555 208q369 0 574 -203q74 -73 108 -149t53 -211h-217q-78 375 -502 375q-276 0 -425 -166q-138 -154 -138 -423q0 -267 147 -419t405 -152q211 0 335 98.5t178 309.5h217q-51 -312 -289 -470 q-160 -106 -374 -123l-50 -83q11 1 26 4q28 4 45 4q181 0 181 -135q0 -78 -67.5 -125t-177.5 -47q-66 0 -218 29l27 96q84 -27 151 -27q113 0 113 64q0 59 -87 59q-40 0 -93 -14l-37 39z"/>
    <glyph glyph-name="Eacute" unicode="É" horiz-adv-x="1442" vert-adv-y="1433" d="M158 0v1462h1175v-188h-958v-424h930v-188h-930v-474h979v-188h-1196zM633 1558l176 287h256l-268 -287h-164z"/>
    <glyph glyph-name="Ntilde" unicode="Ñ" horiz-adv-x="1745" vert-adv-y="1433" d="M1327 0l-940 1163h-4v-1163h-217v1462h252l940 -1163h4v1163h217v-1462h-252zM588 1575h-121q12 97 50 154q65 98 184 98q84 0 200 -49q102 -43 161 -43q40 0 61.5 20.5t33.5 71.5h121q-12 -97 -50 -154q-65 -98 -185 -98q-83 0 -199 49q-101 43 -161 43q-40 0 -62 -21 t-33 -71z"/>
    <glyph glyph-name="Odieresis" unicode="Ö" horiz-adv-x="1782" vert-adv-y="1433" d="M900 1499q398 0 616 -243q188 -208 188 -525q0 -361 -237 -575q-214 -193 -576 -193q-407 0 -626 243q-187 208 -187 525q0 362 237 575q213 193 585 193zM885 1311q-270 0 -430 -157t-160 -423q0 -282 177 -438q160 -142 419 -142q275 0 435.5 156.5t160.5 423.5 q0 282 -176 438q-160 142 -426 142zM555 1577v213h205v-213h-205zM1047 1577v213h205v-213h-205z"/>
    <glyph glyph-name="Udieresis" unicode="Ü" horiz-adv-x="1630" vert-adv-y="1433" d="M1477 1462v-909q0 -590 -662 -590q-661 0 -661 590v909h217v-936q0 -375 445 -375q444 0 444 375v936h217zM467 1577v213h205v-213h-205zM959 1577v213h205v-213h-205z"/>
    <glyph glyph-name="aacute" unicode="á" horiz-adv-x="1327" vert-adv-y="1433" d="M315 737h-192q25 184 131 269q129 104 397 104q498 0 498 -305v-578q0 -92 94 -92q31 0 70 8v-143q-78 -12 -158 -12q-92 0 -133 33t-54 116q-147 -174 -465 -174q-203 0 -315.5 85.5t-112.5 239.5q0 152 107 229t354 103l234 25q105 11 145.5 39t40.5 91q0 175 -307 175 q-165 0 -244 -50.5t-90 -162.5zM956 561q-43 -44 -201 -63l-231 -29q-244 -30 -244 -171q0 -81 68.5 -128t186.5 -47q178 0 299.5 87t121.5 214v137zM550 1231l176 287h256l-268 -287h-164z"/>
    <glyph glyph-name="agrave" unicode="à" horiz-adv-x="1327" vert-adv-y="1433" d="M315 737h-192q25 184 131 269q129 104 397 104q498 0 498 -305v-578q0 -92 94 -92q31 0 70 8v-143q-78 -12 -158 -12q-92 0 -133 33t-54 116q-147 -174 -465 -174q-203 0 -315.5 85.5t-112.5 239.5q0 152 107 229t354 103l234 25q105 11 145.5 39t40.5 91q0 175 -307 175 q-165 0 -244 -50.5t-90 -162.5zM956 561q-43 -44 -201 -63l-231 -29q-244 -30 -244 -171q0 -81 68.5 -128t186.5 -47q178 0 299.5 87t121.5 214v137zM620 1231l-268 287h256l176 -287h-164z"/>
    <glyph glyph-name="acircumflex" unicode="â" horiz-adv-x="1327" vert-adv-y="1433" d="M315 737h-192q25 184 131 269q129 104 397 104q498 0 498 -305v-578q0 -92 94 -92q31 0 70 8v-143q-78 -12 -158 -12q-92 0 -133 33t-54 116q-147 -174 -465 -174q-203 0 -315.5 85.5t-112.5 239.5q0 152 107 229t354 103l234 25q105 11 145.5 39t40.5 91q0 175 -307 175 q-165 0 -244 -50.5t-90 -162.5zM956 561q-43 -44 -201 -63l-231 -29q-244 -30 -244 -171q0 -81 68.5 -128t186.5 -47q178 0 299.5 87t121.5 214v137zM840 1231l-176 180l-176 -180h-199l266 287h217l267 -287h-199z"/>
    <glyph glyph-name="adieresis" unicode="ä" horiz-adv-x="1327" vert-adv-y="1433" d="M315 737h-192q25 184 131 269q129 104 397 104q498 0 498 -305v-578q0 -92 94 -92q31 0 70 8v-143q-78 -12 -158 -12q-92 0 -133 33t-54 116q-147 -174 -465 -174q-203 0 -315.5 85.5t-112.5 239.5q0 152 107 229t354 103l234 25q105 11 145.5 39t40.5 91q0 175 -307 175 q-165 0 -244 -50.5t-90 -162.5zM956 561q-43 -44 -201 -63l-231 -29q-244 -30 -244 -171q0 -81 68.5 -128t186.5 -47q178 0 299.5 87t121.5 214v137zM316 1249v213h205v-213h-205zM807 1249v213h205v-213h-205z"/>
    <glyph glyph-name="atilde" unicode="ã" horiz-adv-x="1327" vert-adv-y="1433" d="M315 737h-192q25 184 131 269q129 104 397 104q498 0 498 -305v-578q0 -92 94 -92q31 0 70 8v-143q-78 -12 -158 -12q-92 0 -133 33t-54 116q-147 -174 -465 -174q-203 0 -315.5 85.5t-112.5 239.5q0 152 107 229t354 103l234 25q105 11 145.5 39t40.5 91q0 175 -307 175 q-165 0 -244 -50.5t-90 -162.5zM956 561q-43 -44 -201 -63l-231 -29q-244 -30 -244 -171q0 -81 68.5 -128t186.5 -47q178 0 299.5 87t121.5 214v137zM383 1247h-121q12 97 50 154q65 98 184 98q84 0 200 -49q102 -43 161 -43q40 0 61.5 21t33.5 71h121q-12 -97 -50 -154 q-65 -98 -186 -98q-82 0 -198 49q-101 43 -162 43q-39 0 -60.5 -21t-33.5 -71z"/>
    <glyph glyph-name="aring" unicode="å" horiz-adv-x="1327" vert-adv-y="1433" d="M315 737h-192q25 184 131 269q129 104 397 104q498 0 498 -305v-578q0 -92 94 -92q31 0 70 8v-143q-78 -12 -158 -12q-92 0 -133 33t-54 116q-147 -174 -465 -174q-203 0 -315.5 85.5t-112.5 239.5q0 152 107 229t354 103l234 25q105 11 145.5 39t40.5 91q0 175 -307 175 q-165 0 -244 -50.5t-90 -162.5zM956 561q-43 -44 -201 -63l-231 -29q-244 -30 -244 -171q0 -81 68.5 -128t186.5 -47q178 0 299.5 87t121.5 214v137zM664 1645q98 0 167.5 -70.5t69.5 -169.5q0 -100 -70 -170t-170 -70q-99 0 -169 70t-70 170q0 101 70 170.5t172 69.5z M660 1534q-49 0 -88 -39.5t-39 -89.5q0 -51 39 -90t89 -39q51 0 90 39t39 90t-39 90t-91 39z"/>
    <glyph glyph-name="ccedilla" unicode="ç" horiz-adv-x="1290" vert-adv-y="1433" d="M618 -36q-172 10 -287 78q-253 149 -253 490q0 264 158.5 421t425.5 157q469 0 555 -395h-217q-51 223 -325 223q-181 0 -280.5 -105.5t-99.5 -296.5t99.5 -296t280.5 -105q138 0 213.5 59.5t115.5 198.5h217q-109 -404 -498 -428l-49 -82q9 1 26 4q27 4 45 4 q181 0 181 -135q0 -78 -67.5 -125t-178.5 -47q-66 0 -217 29l27 96q83 -27 151 -27q113 0 113 64q0 59 -87 59q-39 0 -93 -14l-37 39z"/>
    <glyph glyph-name="eacute" unicode="é" horiz-adv-x="1366" vert-adv-y="1433" d="M1282 475h-987q19 -146 109 -231q117 -109 290 -109q242 0 342 191h218q-164 -363 -565 -363q-286 0 -454 168q-157 158 -157 406t157 405q169 168 457 168q274 0 432 -163t158 -445v-27zM301 635h764q-63 303 -374 303q-154 0 -256.5 -79.5t-133.5 -223.5zM563 1231 l176 287h256l-268 -287h-164z"/>
    <glyph glyph-name="egrave" unicode="è" horiz-adv-x="1366" vert-adv-y="1433" d="M1282 475h-987q19 -146 109 -231q117 -109 290 -109q242 0 342 191h218q-164 -363 -565 -363q-286 0 -454 168q-157 158 -157 406t157 405q169 168 457 168q274 0 432 -163t158 -445v-27zM301 635h764q-63 303 -374 303q-154 0 -256.5 -79.5t-133.5 -223.5zM636 1231 l-268 287h256l176 -287h-164z"/>
    <glyph glyph-name="ecircumflex" unicode="ê" horiz-adv-x="1366" vert-adv-y="1433" d="M1282 475h-987q19 -146 109 -231q117 -109 290 -109q242 0 342 191h218q-164 -363 -565 -363q-286 0 -454 168q-157 158 -157 406t157 405q169 168 457 168q274 0 432 -163t158 -445v-27zM301 635h764q-63 303 -374 303q-154 0 -256.5 -79.5t-133.5 -223.5zM865 1231 l-176 180l-176 -180h-199l266 287h217l267 -287h-199z"/>
    <glyph glyph-name="edieresis" unicode="ë" horiz-adv-x="1366" vert-adv-y="1433" d="M1282 475h-987q19 -146 109 -231q117 -109 290 -109q242 0 342 191h218q-164 -363 -565 -363q-286 0 -454 168q-157 158 -157 406t157 405q169 168 457 168q274 0 432 -163t158 -445v-27zM301 635h764q-63 303 -374 303q-154 0 -256.5 -79.5t-133.5 -223.5zM338 1249v213 h205v-213h-205zM829 1249v213h205v-213h-205z"/>
    <glyph glyph-name="iacute" unicode="í" horiz-adv-x="455" vert-adv-y="1433" d="M124 0v1073h205v-1073h-205zM116 1231l176 287h256l-268 -287h-164z"/>
    <glyph glyph-name="igrave" unicode="ì" horiz-adv-x="455" vert-adv-y="1433" d="M125 0v1073h205v-1073h-205zM177 1231l-268 287h256l176 -287h-164z"/>
    <glyph glyph-name="icircumflex" unicode="î" horiz-adv-x="455" vert-adv-y="1433" d="M125 0v1073h205v-1073h-205zM404 1231l-176 180l-176 -180h-199l266 287h217l267 -287h-199z"/>
    <glyph glyph-name="idieresis" unicode="ï" horiz-adv-x="455" vert-adv-y="1433" d="M125 0v1073h205v-1073h-205zM-121 1229v213h205v-213h-205zM370 1229v213h205v-213h-205z"/>
    <glyph glyph-name="ntilde" unicode="ñ" horiz-adv-x="1329" vert-adv-y="1433" d="M125 0v1073h205v-162h4q140 199 424 199q169 0 282 -65q164 -96 164 -314v-731h-205v690q0 248 -308 248q-165 0 -263 -87t-98 -233v-618h-205zM380 1247h-121q12 97 50 154q65 98 184 98q84 0 200 -49q102 -43 161 -43q40 0 61.5 21t33.5 71h121q-12 -97 -50 -154 q-65 -98 -186 -98q-82 0 -198 49q-101 43 -162 43q-39 0 -60.5 -21t-33.5 -71z"/>
    <glyph glyph-name="oacute" unicode="ó" horiz-adv-x="1401" vert-adv-y="1433" d="M707 1110q290 0 459 -168q157 -157 157 -406q0 -261 -169.5 -417t-453.5 -156q-283 0 -452.5 156t-169.5 416q0 264 170 419.5t459 155.5zM696 938q-183 0 -292 -109t-109 -293q0 -185 109.5 -293t295.5 -108q188 0 297 108.5t109 293.5q0 186 -110 293.5t-300 107.5z M584 1231l176 287h256l-268 -287h-164z"/>
    <glyph glyph-name="ograve" unicode="ò" horiz-adv-x="1401" vert-adv-y="1433" d="M707 1110q290 0 459 -168q157 -157 157 -406q0 -261 -169.5 -417t-453.5 -156q-283 0 -452.5 156t-169.5 416q0 264 170 419.5t459 155.5zM696 938q-183 0 -292 -109t-109 -293q0 -185 109.5 -293t295.5 -108q188 0 297 108.5t109 293.5q0 186 -110 293.5t-300 107.5z M644 1231l-268 287h256l176 -287h-164z"/>
    <glyph glyph-name="ocircumflex" unicode="ô" horiz-adv-x="1401" vert-adv-y="1433" d="M707 1110q290 0 459 -168q157 -157 157 -406q0 -261 -169.5 -417t-453.5 -156q-283 0 -452.5 156t-169.5 416q0 264 170 419.5t459 155.5zM696 938q-183 0 -292 -109t-109 -293q0 -185 109.5 -293t295.5 -108q188 0 297 108.5t109 293.5q0 186 -110 293.5t-300 107.5z M877 1231l-176 180l-176 -180h-199l266 287h217l267 -287h-199z"/>
    <glyph glyph-name="odieresis" unicode="ö" horiz-adv-x="1401" vert-adv-y="1433" d="M707 1110q290 0 459 -168q157 -157 157 -406q0 -261 -169.5 -417t-453.5 -156q-283 0 -452.5 156t-169.5 416q0 264 170 419.5t459 155.5zM696 938q-183 0 -292 -109t-109 -293q0 -185 109.5 -293t295.5 -108q188 0 297 108.5t109 293.5q0 186 -110 293.5t-300 107.5z M352 1249v213h205v-213h-205zM843 1249v213h205v-213h-205z"/>
    <glyph glyph-name="otilde" unicode="õ" horiz-adv-x="1401" vert-adv-y="1433" d="M707 1110q290 0 459 -168q157 -157 157 -406q0 -261 -169.5 -417t-453.5 -156q-283 0 -452.5 156t-169.5 416q0 264 170 419.5t459 155.5zM696 938q-183 0 -292 -109t-109 -293q0 -185 109.5 -293t295.5 -108q188 0 297 108.5t109 293.5q0 186 -110 293.5t-300 107.5z M416 1247h-121q12 97 50 154q65 98 184 98q84 0 200 -49q102 -43 161 -43q40 0 61.5 21t33.5 71h121q-12 -97 -50 -154q-65 -98 -186 -98q-82 0 -198 49q-101 43 -162 43q-39 0 -60.5 -21t-33.5 -71z"/>
    <glyph glyph-name="uacute" unicode="ú" horiz-adv-x="1329" vert-adv-y="1433" d="M1204 1073v-1073h-205v162h-4q-140 -199 -424 -199q-169 0 -282 65q-164 95 -164 314v731h205v-690q0 -248 309 -248q163 0 261.5 87t98.5 233v618h205zM554 1231l176 287h256l-268 -287h-164z"/>
    <glyph glyph-name="ugrave" unicode="ù" horiz-adv-x="1329" vert-adv-y="1433" d="M1204 1073v-1073h-205v162h-4q-140 -199 -424 -199q-169 0 -282 65q-164 95 -164 314v731h205v-690q0 -248 309 -248q163 0 261.5 87t98.5 233v618h205zM623 1231l-268 287h256l176 -287h-164z"/>
    <glyph glyph-name="ucircumflex" unicode="û" horiz-adv-x="1329" vert-adv-y="1433" d="M1204 1073v-1073h-205v162h-4q-140 -199 -424 -199q-169 0 -282 65q-164 95 -164 314v731h205v-690q0 -248 309 -248q163 0 261.5 87t98.5 233v618h205zM841 1231l-176 180l-176 -180h-199l266 287h217l267 -287h-199z"/>
    <glyph glyph-name="udieresis" unicode="ü" horiz-adv-x="1329" vert-adv-y="1433" d="M1204 1073v-1073h-205v162h-4q-140 -199 -424 -199q-169 0 -282 65q-164 95 -164 314v731h205v-690q0 -248 309 -248q163 0 261.5 87t98.5 233v618h205zM317 1249v213h205v-213h-205zM808 1249v213h205v-213h-205z"/>
    <glyph glyph-name="glyph130" vert-adv-y="1433"/>
    <glyph glyph-name="degree" unicode="°" horiz-adv-x="819" vert-adv-y="1433" d="M412 1454q119 0 205 -86t86 -207t-86 -207t-207 -86t-207 85.5t-86 207.5q0 121 86 207q85 86 209 86zM409 1343q-67 0 -124 -57.5t-57 -124.5q0 -68 57 -125t125 -57t125 57t57 125t-57.5 125t-125.5 57z"/>
    <glyph glyph-name="cent" unicode="¢" horiz-adv-x="1368" vert-adv-y="1433" d="M637 -224v191q-150 16 -228 53q-175 82 -249 261q-47 114 -47 251q0 253 148 411q70 75 155 112.5t221 53.5v188h111v-188q133 -12 209 -41q250 -100 295 -353h-217q-38 206 -287 221v-797q124 12 189.5 69t101.5 185h217q-46 -156 -109 -239q-132 -172 -399 -187v-191 h-111zM637 139v797q-85 -15 -134.5 -41.5t-90.5 -79.5q-82 -105 -82 -279q0 -192 101 -299q40 -42 84.5 -63t121.5 -35z"/>
    <glyph glyph-name="sterling" unicode="£" horiz-adv-x="1368" vert-adv-y="1433" d="M86 637v123h129q-66 104 -66 241q0 202 159.5 327.5t414.5 125.5q537 0 559 -473h-217q-28 301 -354 301q-157 0 -251 -83.5t-94 -222.5q0 -114 66 -216h432v-123h-385q37 -82 37 -153q0 -181 -174 -296l4 -4q100 37 192 37q80 0 250 -40q115 -26 155 -26q126 0 281 105 l58 -180q-159 -113 -329 -113q-65 0 -211 38q-172 44 -275 44q-186 0 -287 -82l-94 170q225 136 225 323q0 83 -49 177h-176z"/>
    <glyph glyph-name="section" unicode="§" horiz-adv-x="1368" vert-adv-y="1433" d="M178 10h205q9 -64 27 -100t55 -66q76 -61 227 -61q124 0 195 40q77 44 77 131q0 58 -42.5 100.5t-141.5 82.5l-360 145q-183 74 -257.5 155t-74.5 205q0 211 217 292q-100 77 -100 214q0 184 165 279q127 72 304 72q253 0 383 -139q46 -50 65.5 -101t24.5 -139h-205 q-10 100 -68 149q-70 58 -211 58q-253 0 -253 -163q0 -98 120 -146l482 -195q268 -108 268 -323q0 -102 -52.5 -175.5t-162.5 -126.5q104 -77 104 -221q0 -175 -142 -276q-128 -90 -336 -90q-283 0 -417 146q-49 53 -70.5 110t-25.5 143zM416 852q-135 -54 -135 -182 q0 -69 56.5 -118.5t205.5 -109.5l403 -164q141 48 141 177q0 66 -46 114t-150 90z"/>
    <glyph glyph-name="bullet" unicode="•" horiz-adv-x="1024" vert-adv-y="1433" d="M519 1047q121 0 211 -88q89 -89 89 -216q0 -126 -89 -215t-215 -89q-124 0 -213 88q-91 90 -91 215q0 130 90 217q91 88 218 88z"/>
    <glyph glyph-name="paragraph" unicode="¶" horiz-adv-x="1229" vert-adv-y="1433" d="M897 -352v1679h-228v-1679h-172v1057q-93 3 -147.5 16.5t-111.5 46.5q-179 105 -179 313q0 218 165 313q117 68 312 68h533v-1814h-172z"/>
    <glyph glyph-name="germandbls" unicode="ß" horiz-adv-x="1327" vert-adv-y="1433" d="M569 719v172q27 -4 88 -4q303 0 303 214q0 107 -78.5 166.5t-219.5 59.5q-312 0 -312 -262v-1065h-205v1083q0 198 135.5 307t381.5 109q237 0 376 -104t139 -282q0 -208 -203 -288v-4q275 -83 275 -387q0 -212 -145.5 -341.5t-384.5 -129.5q-49 0 -138 8l-22 2v172 q77 -10 124 -10q163 0 256 80t93 219q0 116 -72.5 194t-185.5 83z"/>
    <glyph glyph-name="registered" unicode="®" horiz-adv-x="1638" vert-adv-y="1433" d="M1026 292l-230 379h-137v-379h-147v877h342q196 0 273 -84q56 -61 56 -166q0 -109 -57.5 -167t-179.5 -75l252 -385h-172zM659 794h158q96 0 139 18q67 28 67 109q0 125 -194 125h-170v-252zM826 1499q202 0 383 -103q176 -101 277 -275q101 -176 101 -390 q0 -327 -222 -547q-114 -112 -266 -170q-135 -51 -280 -51q-210 0 -390 103q-177 101 -277 275q-101 176 -101 389q0 326 222 547q107 107 250 164.5t303 57.5zM813 1339q-116 0 -224.5 -45t-190.5 -126q-175 -175 -175 -437t175 -437q171 -171 420 -171q248 0 420 171 q177 176 177 436q0 261 -177 438q-170 171 -425 171z"/>
    <glyph glyph-name="copyright" unicode="©" horiz-adv-x="1638" vert-adv-y="1433" d="M1046 598h172q-24 -113 -74 -180q-108 -146 -299 -146q-177 0 -296 118q-133 133 -133 347q0 216 130 346q116 115 294 115q152 0 253 -87q50 -43 77 -95t42 -135h-166q-20 75 -74.5 116t-134.5 41q-139 0 -205 -116q-44 -78 -44 -184q0 -132 68 -217q72 -89 191 -89 q82 0 133 42.5t66 123.5zM826 1499q202 0 383 -103q176 -101 277 -275q101 -176 101 -390q0 -327 -222 -547q-114 -112 -266 -170q-135 -51 -280 -51q-210 0 -390 103q-177 101 -277 275q-101 176 -101 389q0 326 222 547q107 107 250 164.5t303 57.5zM813 1339 q-116 0 -224.5 -45t-190.5 -126q-175 -175 -175 -437t175 -437q171 -171 420 -171q248 0 420 171q177 176 177 436q0 261 -177 438q-170 171 -425 171z"/>
    <glyph glyph-name="trademark" unicode="™" horiz-adv-x="2028" vert-adv-y="1433" d="M295 618v709h-254v135h680v-135h-254v-709h-172zM1671 618v672h-4l-248 -672h-114l-248 672h-4v-672h-160v844h240l229 -598l229 598h240v-844h-160z"/>
    <glyph glyph-name="acute" unicode="´" horiz-adv-x="1024" vert-adv-y="1433" d="M389 1231l176 287h256l-268 -287h-164z"/>
    <glyph glyph-name="dieresis" unicode="¨" horiz-adv-x="1024" vert-adv-y="1433" d="M164 1249v213h205v-213h-205zM655 1249v213h205v-213h-205z"/>
    <glyph glyph-name="notequal" unicode="≠" horiz-adv-x="1228" vert-adv-y="1433" d="M697 817l136 209l145 -94l-74 -115h228v-172h-340l-164 -254h504v-172h-616l-141 -217l-146 95l79 122h-212v172h324l165 254h-489v172h601z"/>
    <glyph glyph-name="AE" unicode="Æ" horiz-adv-x="2275" vert-adv-y="1433" d="M1077 0v426h-633l-266 -426h-246l922 1462h1323v-188h-895v-424h866v-188h-866v-474h905v-188h-1110zM1077 614v659h-103l-413 -659h516z"/>
    <glyph glyph-name="Oslash" unicode="Ø" horiz-adv-x="1782" vert-adv-y="1433" d="M146 -45l-72 78l188 178q-184 217 -184 520q0 361 237 575q214 193 576 193q331 0 553 -172l191 180l73 -75l-188 -179q184 -221 184 -522q0 -361 -237 -575q-214 -193 -577 -193q-333 0 -552 174zM1368 1110l-878 -831q167 -127 401 -127q275 0 435.5 156t160.5 423 q0 222 -119 379zM414 354l879 830q-168 127 -402 127q-275 0 -435.5 -156t-160.5 -424q0 -221 119 -377z"/>
    <glyph glyph-name="infinity" unicode="∞" horiz-adv-x="1462" vert-adv-y="1433" d="M734 656q-165 -242 -367 -242q-144 0 -235 93t-91 242q0 183 139 273q86 56 189 56q198 0 360 -242q162 242 368 242q143 0 233.5 -93t90.5 -240q0 -159 -103 -250q-91 -81 -220 -81q-205 0 -364 242zM798 746q137 -213 285 -213q88 0 145 60t57 153q0 92 -58 152.5 t-146 60.5q-142 0 -283 -213zM664 745q-138 214 -285 214q-88 0 -145 -60.5t-57 -152.5q0 -93 57.5 -153.5t146.5 -60.5q141 0 283 213z"/>
    <glyph glyph-name="plusminus" unicode="±" horiz-adv-x="1229" vert-adv-y="1433" d="M528 725v311h172v-311h432v-172h-432v-311h-172v311h-432v172h432zM96 0v172h1036v-172h-1036z"/>
    <glyph glyph-name="lessequal" unicode="≤" horiz-adv-x="1097" vert-adv-y="1433" d="M1024 1316v-179l-743 -286l742 -285v-179l-950 383v163zM1024 324v-167h-951v167h951z"/>
    <glyph glyph-name="greaterequal" unicode="≥" horiz-adv-x="1097" vert-adv-y="1433" d="M73 387v179l742 285l-742 286v179l951 -383v-163zM73 157v167h951v-167h-951z"/>
    <glyph glyph-name="yen" unicode="¥" horiz-adv-x="1368" vert-adv-y="1433" d="M688 756l398 665h264l-459 -702h291v-123h-371l-18 -29v-149h389v-123h-389v-295h-217v295h-389v123h389v149l-19 29h-370v123h291l-455 702h276z"/>
    <glyph glyph-name="mu" unicode="µ" horiz-adv-x="1329" vert-adv-y="1433" d="M125 -414v1487h205v-690q0 -248 309 -248q163 0 261.5 87t98.5 233v618h205v-1073h-205v162h-4q-140 -199 -409 -199q-152 0 -256 84v-461h-205z"/>
    <glyph glyph-name="partialdiff" unicode="∂" horiz-adv-x="1097" vert-adv-y="1433" d="M182 1324l22 145q348 -46 544 -231q281 -264 281 -712q0 -205 -87 -337q-139 -213 -392 -213q-163 0 -293 101q-188 146 -188 392q0 225 155 369q125 116 296 116q106 0 172.5 -33t149.5 -127q-15 29 -73 164q-96 173 -255 258q-147 82 -332 108zM557 817 q-110 0 -200 -71q-126 -98 -126 -279q0 -152 104 -255q93 -91 214 -91q134 0 224.5 101.5t90.5 252.5q0 174 -106 266q-87 76 -201 76z"/>
    <glyph glyph-name="summation" unicode="∑" horiz-adv-x="1462" vert-adv-y="1433" d="M1315 1645v-508h-165l-17 340h-857l545 -887l-544 -972h876l10 343h172v-509h-1260v193l533 945l-533 865v190h1240z"/>
    <glyph glyph-name="product" unicode="∏" horiz-adv-x="1462" vert-adv-y="1433" d="M57 1645h1347v-148h-161v-1898h161v-147h-489v147h164v1898h-696v-1898h161v-147h-487v147h163v1898h-163v148z"/>
    <glyph glyph-name="pi" unicode="π" horiz-adv-x="1452" vert-adv-y="1433" d="M1429 1073v-175h-189v-898h-212v898h-603v-898h-212v898h-190v175h1406z"/>
    <glyph glyph-name="glyph156" vert-adv-y="1433"/>
    <glyph glyph-name="ordfeminine" unicode="ª" horiz-adv-x="862" vert-adv-y="1433" d="M204 1227h-135q15 110 79 161q82 66 268 66q330 0 330 -178v-332q0 -49 61 -49q24 0 35 4v-92q-23 -1 -69 -7q-30 -3 -41 -3q-98 0 -115 86q-94 -109 -303 -109q-276 0 -276 199q0 176 291 203l155 14q115 11 115 65q0 88 -184 88q-199 0 -211 -116zM595 1123 q-19 -25 -135 -41l-131 -19q-144 -20 -144 -87q0 -40 43 -65.5t111 -25.5q111 0 185.5 52t74.5 128v58h-4z"/>
    <glyph glyph-name="ordmasculine" unicode="º" horiz-adv-x="911" vert-adv-y="1433" d="M459 1454q181 0 291 -93t110 -247t-110.5 -247t-294.5 -93t-294 92.5t-110 247.5q0 156 110.5 248t297.5 92zM452 1331q-105 0 -173 -62t-68 -157q0 -94 68.5 -154.5t175.5 -60.5t176 60.5t69 154.5q0 97 -69.5 158t-178.5 61z"/>
    <glyph glyph-name="glyph159" vert-adv-y="1433"/>
    <glyph glyph-name="ae" unicode="æ" horiz-adv-x="2200" vert-adv-y="1433" d="M2116 475h-966q26 -180 113.5 -260t258.5 -80q248 0 348 191h218q-164 -363 -567 -363q-177 0 -290.5 54t-199.5 180q-159 -234 -520 -234q-208 0 -321.5 85t-113.5 241q0 153 104.5 230.5t344.5 101.5l246 24q104 11 145 39t41 91q0 175 -307 175q-165 0 -244 -50.5 t-90 -162.5h-192q25 184 131 269q129 104 395 104q312 0 463 -180q160 180 426 180q257 0 413 -158q164 -166 164 -450v-27zM1150 635h749q-63 303 -374 303q-151 0 -248 -78.5t-127 -224.5zM957 520q-102 -28 -201 -35l-202 -14q-273 -19 -273 -174q0 -80 69 -127t186 -47 q178 0 299.5 87t121.5 214v96z"/>
    <glyph glyph-name="oslash" unicode="ø" horiz-adv-x="1401" vert-adv-y="1433" d="M1116 983l148 137l59 -63l-141 -131q141 -164 141 -390q0 -261 -169.5 -417t-452.5 -156q-251 0 -416 127l-148 -137l-59 63l143 134q-143 160 -143 387q0 248 157 405q169 168 465 168q244 0 416 -127zM1032 786l-604 -563q108 -88 272 -88q187 0 296.5 108t109.5 293 q0 141 -74 250zM369 287l604 563q-111 88 -273 88q-186 0 -295.5 -108.5t-109.5 -293.5q0 -144 74 -249z"/>
    <glyph glyph-name="questiondown" unicode="¿" horiz-adv-x="1368" vert-adv-y="1433" d="M1044 66h205q-13 -140 -48.5 -219.5t-113.5 -145.5q-148 -127 -395 -127q-180 0 -313 77q-205 118 -205 360q0 120 56.5 206t207.5 195q122 88 159.5 138t47.5 138h193q-8 -137 -57.5 -215.5t-190.5 -177.5q-114 -79 -156.5 -140t-42.5 -145q0 -123 82 -193.5t224 -70.5 q319 0 347 320zM614 835v238h254v-238h-254z"/>
    <glyph glyph-name="exclamdown" unicode="¡" vert-adv-y="1433" d="M215 835v238h254v-238h-254zM227 -389v383l55 694h119l55 -694v-383h-229z"/>
    <glyph glyph-name="logicalnot" unicode="¬" horiz-adv-x="1229" vert-adv-y="1433" d="M960 219v426h-864v172h1036v-598h-172z"/>
    <glyph glyph-name="radical" unicode="√" horiz-adv-x="1462" vert-adv-y="1433" d="M1462 1813v-152h-418l-486 -1661h-199l-182 636h-177v152h284l90 -300q10 -35 62 -263l8 -35h9q9 41 48 193l58 226l105 356l247 848h551z"/>
    <glyph glyph-name="florin" unicode="ƒ" horiz-adv-x="1368" vert-adv-y="1433" d="M546 780l74 357q66 317 340 317q53 0 186 -14q17 -1 29 -2l-35 -168q-98 12 -139 12q-86 0 -126 -44t-64 -165l-60 -293h281l-29 -123h-278l-152 -774q-27 -136 -122.5 -210.5t-243.5 -74.5q-77 0 -189 21l35 164q87 -25 132 -25q85 0 130 47.5t68 161.5l137 690h-271 l25 123h272z"/>
    <glyph glyph-name="glyph167" vert-adv-y="1433"/>
    <glyph glyph-name="Delta" unicode="Δ" horiz-adv-x="1718" vert-adv-y="1433" d="M-13 0l742 1462h252l749 -1462h-1743zM856 1239l-534 -1049h1068z"/>
    <glyph glyph-name="guillemotleft" unicode="«" horiz-adv-x="1139" vert-adv-y="1433" d="M613 463v213l368 272v-207l-243 -172l243 -172v-207zM158 463v213l369 272v-207l-244 -172l244 -172v-207z"/>
    <glyph glyph-name="guillemotright" unicode="»" horiz-adv-x="1139" vert-adv-y="1433" d="M402 569l-244 172v207l369 -272v-213l-369 -273v207zM856 569l-243 172v207l368 -272v-213l-368 -273v207z"/>
    <glyph glyph-name="glyph171" vert-adv-y="1433"/>
    <glyph glyph-name="glyph172" horiz-adv-x="1368" vert-adv-y="1368"/>
    <glyph glyph-name="Agrave" unicode="À" horiz-adv-x="1554" vert-adv-y="1433" d="M1315 0l-186 426h-717l-187 -426h-233l662 1462h247l662 -1462h-248zM1049 614l-281 647l-274 -647h555zM727 1558l-268 287h256l176 -287h-164z"/>
    <glyph glyph-name="Atilde" unicode="Ã" horiz-adv-x="1554" vert-adv-y="1433" d="M1315 0l-186 426h-717l-187 -426h-233l662 1462h247l662 -1462h-248zM1049 614l-281 647l-274 -647h555zM493 1575h-121q12 97 50 154q65 98 184 98q84 0 200 -49q102 -43 161 -43q40 0 61.5 20.5t33.5 71.5h121q-12 -97 -50 -154q-65 -98 -185 -98q-83 0 -199 49 q-101 43 -161 43q-40 0 -62 -21t-33 -71z"/>
    <glyph glyph-name="Otilde" unicode="Õ" horiz-adv-x="1782" vert-adv-y="1433" d="M900 1499q398 0 616 -243q188 -208 188 -525q0 -361 -237 -575q-214 -193 -576 -193q-407 0 -626 243q-187 208 -187 525q0 362 237 575q213 193 585 193zM885 1311q-270 0 -430 -157t-160 -423q0 -282 177 -438q160 -142 419 -142q275 0 435.5 156.5t160.5 423.5 q0 282 -176 438q-160 142 -426 142zM607 1575h-121q12 97 50 154q65 98 184 98q84 0 200 -49q102 -43 161 -43q40 0 61.5 20.5t33.5 71.5h121q-12 -97 -50 -154q-65 -98 -185 -98q-83 0 -199 49q-101 43 -161 43q-40 0 -62 -21t-33 -71z"/>
    <glyph glyph-name="OE" unicode="Œ" horiz-adv-x="2390" vert-adv-y="1433" d="M1236 0v165h-4q-169 -202 -445 -202q-340 0 -529 264q-154 213 -154 504q0 315 175 533q189 235 512 235q279 0 445 -180v143h1049v-188h-850v-424h821v-188h-821v-474h866v-188h-1065zM1230 461v569q0 101 -130 194q-121 87 -286 87q-224 0 -359 -151 q-134 -150 -134 -429q0 -308 166 -460q129 -119 323 -119q193 0 328 133q92 91 92 176z"/>
    <glyph glyph-name="oe" unicode="œ" horiz-adv-x="2275" vert-adv-y="1433" d="M2214 475h-954q39 -340 365 -340q243 0 343 191h217q-163 -363 -565 -363q-300 0 -467 213q-174 -213 -477 -213q-302 0 -462 177q-136 152 -136 394q0 250 157 406q170 170 447 170q303 0 486 -221q181 221 465 221q260 0 416 -158q165 -166 165 -450v-27zM677 938 q-172 0 -277 -110.5t-105 -291.5q0 -179 106 -290t277 -111q177 0 283 112t106 298q0 177 -107 285t-283 108zM1260 635h737q-63 303 -374 303q-303 0 -363 -303z"/>
    <glyph glyph-name="endash" unicode="–" horiz-adv-x="1024" vert-adv-y="1433" d="M0 483v172h1024v-172h-1024z"/>
    <glyph glyph-name="emdash" unicode="—" horiz-adv-x="2048" vert-adv-y="1433" d="M0 483v172h2048v-172h-2048z"/>
    <glyph glyph-name="quotedblleft" unicode="“" horiz-adv-x="985" vert-adv-y="1433" d="M582 911v209q0 286 254 342v-100q-66 -22 -92 -67t-31 -146h123v-238h-254zM150 911v209q0 286 254 342v-100q-66 -22 -92 -67t-31 -146h123v-238h-254z"/>
    <glyph glyph-name="quotedblright" unicode="”" horiz-adv-x="985" vert-adv-y="1433" d="M582 911v100q66 22 92 66.5t31 146.5h-123v238h254v-209q0 -287 -254 -342zM150 911v100q66 22 92 66.5t31 146.5h-123v238h254v-209q0 -287 -254 -342z"/>
    <glyph glyph-name="quoteleft" unicode="‘" vert-adv-y="1433" d="M215 911v209q0 286 254 342v-100q-66 -22 -92 -67t-31 -146h123v-238h-254z"/>
    <glyph glyph-name="quoteright" unicode="’" vert-adv-y="1433" d="M215 911v100q66 22 92 66.5t31 146.5h-123v238h254v-209q0 -287 -254 -342z"/>
    <glyph glyph-name="divide" unicode="÷" horiz-adv-x="1229" vert-adv-y="1433" d="M616 1086q57 0 99.5 -43t42.5 -101t-42.5 -100.5t-101.5 -42.5q-58 0 -100.5 42.5t-42.5 101.5q0 58 42.5 100.5t102.5 42.5zM616 238q57 0 99.5 -43t42.5 -101t-42.5 -100.5t-101.5 -42.5q-58 0 -100.5 42.5t-42.5 101.5q0 58 42.5 100.5t102.5 42.5zM96 432v172h1036 v-172h-1036z"/>
    <glyph glyph-name="glyph185" vert-adv-y="1433"/>
    <glyph glyph-name="ydieresis" unicode="ÿ" horiz-adv-x="1176" vert-adv-y="1433" d="M594 225l362 848h229l-561 -1257q-70 -159 -145 -213t-224 -54q-37 0 -159 8v173q17 -1 40 -4q45 -5 82 -5q90 0 130 30t90 134l47 98l-495 1090h235zM240 1249v213h205v-213h-205zM731 1249v213h205v-213h-205z"/>
    <glyph glyph-name="Ydieresis" unicode="Ÿ" horiz-adv-x="1479" vert-adv-y="1433" d="M742 797l485 665h264l-645 -850v-612h-217v602l-641 860h276zM391 1577v213h205v-213h-205zM883 1577v213h205v-213h-205z"/>
    <glyph glyph-name="fraction" unicode="⁄" horiz-adv-x="342" vert-adv-y="1433" d="M-322 -33l813 1487h172l-813 -1487h-172z"/>
    <glyph glyph-name="currency" unicode="¤" horiz-adv-x="1368" vert-adv-y="1433" d="M168 291l113 112q-105 143 -105 308q0 169 105 307l-113 112l98 99l113 -113q142 103 305 103t305 -103l113 113l98 -99l-112 -114q104 -141 104 -305q0 -165 -104 -305l112 -115l-98 -98l-115 114q-135 -104 -302 -104t-306 104l-113 -114zM681 1059q-134 0 -231 -98 q-102 -103 -102 -251q0 -147 102 -250q97 -98 234 -98t234 98q102 103 102 250t-102 251q-96 98 -237 98z"/>
    <glyph glyph-name="guilsinglleft" unicode="‹" vert-adv-y="1433" d="M158 463v213l369 272v-207l-244 -172l244 -172v-207z"/>
    <glyph glyph-name="guilsinglright" unicode="›" vert-adv-y="1433" d="M402 569l-244 172v207l369 -272v-213l-369 -273v207z"/>
    <glyph glyph-name="glyph192" vert-adv-y="1433"/>
    <glyph glyph-name="glyph193" vert-adv-y="1433"/>
    <glyph glyph-name="glyph194" vert-adv-y="1433"/>
    <glyph glyph-name="periodcentered" unicode="·" vert-adv-y="1433" d="M343 782q62 0 106 -44.5t44 -107.5t-44.5 -107t-106.5 -44q-64 0 -108 44t-44 107q0 64 44.5 108t108.5 44z"/>
    <glyph glyph-name="quotesinglbase" unicode="‚" vert-adv-y="1433" d="M215 -313v100q66 23 92 67.5t31 145.5h-123v238h254v-209q0 -141 -64.5 -227.5t-189.5 -114.5z"/>
    <glyph glyph-name="quotedblbase" unicode="„" horiz-adv-x="985" vert-adv-y="1433" d="M582 -313v100q66 23 92 67.5t31 145.5h-123v238h254v-209q0 -141 -64.5 -227.5t-189.5 -114.5zM150 -313v100q66 23 92 67.5t31 145.5h-123v238h254v-209q0 -141 -64.5 -227.5t-189.5 -114.5z"/>
    <glyph glyph-name="glyph198" vert-adv-y="1433"/>
    <glyph glyph-name="Acircumflex" unicode="Â" horiz-adv-x="1554" vert-adv-y="1433" d="M1315 0l-186 426h-717l-187 -426h-233l662 1462h247l662 -1462h-248zM1049 614l-281 647l-274 -647h555zM954 1559l-176 180l-176 -180h-199l266 286h217l267 -286h-199z"/>
    <glyph glyph-name="Ecircumflex" unicode="Ê" horiz-adv-x="1442" vert-adv-y="1433" d="M158 0v1462h1175v-188h-958v-424h930v-188h-930v-474h979v-188h-1196zM938 1559l-176 180l-176 -180h-199l266 286h217l267 -286h-199z"/>
    <glyph glyph-name="Aacute" unicode="Á" horiz-adv-x="1554" vert-adv-y="1433" d="M1315 0l-186 426h-717l-187 -426h-233l662 1462h247l662 -1462h-248zM1049 614l-281 647l-274 -647h555zM664 1558l176 287h256l-268 -287h-164z"/>
    <glyph glyph-name="Edieresis" unicode="Ë" horiz-adv-x="1442" vert-adv-y="1433" d="M158 0v1462h1175v-188h-958v-424h930v-188h-930v-474h979v-188h-1196zM408 1577v213h205v-213h-205zM900 1577v213h205v-213h-205z"/>
    <glyph glyph-name="Egrave" unicode="È" horiz-adv-x="1442" vert-adv-y="1433" d="M158 0v1462h1175v-188h-958v-424h930v-188h-930v-474h979v-188h-1196zM718 1558l-268 287h256l176 -287h-164z"/>
    <glyph glyph-name="Iacute" unicode="Í" horiz-adv-x="569" vert-adv-y="1433" d="M176 0v1462h217v-1462h-217zM156 1558l176 287h256l-268 -287h-164z"/>
    <glyph glyph-name="Icircumflex" unicode="Î" horiz-adv-x="569" vert-adv-y="1433" d="M176 0v1462h217v-1462h-217zM461 1559l-176 180l-176 -180h-199l266 286h217l267 -286h-199z"/>
    <glyph glyph-name="Idieresis" unicode="Ï" horiz-adv-x="569" vert-adv-y="1433" d="M177 0v1462h217v-1462h-217zM-63 1577v213h205v-213h-205zM428 1577v213h205v-213h-205z"/>
    <glyph glyph-name="Igrave" unicode="Ì" horiz-adv-x="569" vert-adv-y="1433" d="M176 0v1462h217v-1462h-217zM243 1558l-268 287h256l176 -287h-164z"/>
    <glyph glyph-name="Oacute" unicode="Ó" horiz-adv-x="1782" vert-adv-y="1433" d="M900 1499q398 0 616 -243q188 -208 188 -525q0 -361 -237 -575q-214 -193 -576 -193q-407 0 -626 243q-187 208 -187 525q0 362 237 575q213 193 585 193zM885 1311q-270 0 -430 -157t-160 -423q0 -282 177 -438q160 -142 419 -142q275 0 435.5 156.5t160.5 423.5 q0 282 -176 438q-160 142 -426 142zM765 1558l176 287h256l-268 -287h-164z"/>
    <glyph glyph-name="Ocircumflex" unicode="Ô" horiz-adv-x="1782" vert-adv-y="1433" d="M900 1499q398 0 616 -243q188 -208 188 -525q0 -361 -237 -575q-214 -193 -576 -193q-407 0 -626 243q-187 208 -187 525q0 362 237 575q213 193 585 193zM885 1311q-270 0 -430 -157t-160 -423q0 -282 177 -438q160 -142 419 -142q275 0 435.5 156.5t160.5 423.5 q0 282 -176 438q-160 142 -426 142zM1067 1559l-176 180l-176 -180h-199l266 286h217l267 -286h-199z"/>
    <glyph glyph-name="glyph210" vert-adv-y="1433"/>
    <glyph glyph-name="Ograve" unicode="Ò" horiz-adv-x="1782" vert-adv-y="1433" d="M900 1499q398 0 616 -243q188 -208 188 -525q0 -361 -237 -575q-214 -193 -576 -193q-407 0 -626 243q-187 208 -187 525q0 362 237 575q213 193 585 193zM885 1311q-270 0 -430 -157t-160 -423q0 -282 177 -438q160 -142 419 -142q275 0 435.5 156.5t160.5 423.5 q0 282 -176 438q-160 142 -426 142zM850 1558l-268 287h256l176 -287h-164z"/>
    <glyph glyph-name="Uacute" unicode="Ú" horiz-adv-x="1630" vert-adv-y="1433" d="M1477 1462v-909q0 -590 -662 -590q-661 0 -661 590v909h217v-936q0 -375 445 -375q444 0 444 375v936h217zM693 1558l176 287h256l-268 -287h-164z"/>
    <glyph glyph-name="Ucircumflex" unicode="Û" horiz-adv-x="1630" vert-adv-y="1433" d="M1477 1462v-909q0 -590 -662 -590q-661 0 -661 590v909h217v-936q0 -375 445 -375q444 0 444 375v936h217zM992 1559l-176 180l-176 -180h-199l266 286h217l267 -286h-199z"/>
    <glyph glyph-name="Ugrave" unicode="Ù" horiz-adv-x="1630" vert-adv-y="1433" d="M1477 1462v-909q0 -590 -662 -590q-661 0 -661 590v909h217v-936q0 -375 445 -375q444 0 444 375v936h217zM774 1558l-268 287h256l176 -287h-164z"/>
    <glyph glyph-name="dotlessi" unicode="ı" horiz-adv-x="455" vert-adv-y="1433" d="M125 0v1073h205v-1073h-205z"/>
    <glyph glyph-name="circumflex" unicode="ˆ" horiz-adv-x="1024" vert-adv-y="1433" d="M688 1231l-176 180l-176 -180h-199l266 287h217l267 -287h-199z"/>
    <glyph glyph-name="tilde" unicode="˜" horiz-adv-x="1024" vert-adv-y="1433" d="M227 1247h-121q12 97 50 154q65 98 184 98q84 0 200 -49q102 -43 161 -43q40 0 61.5 21t33.5 71h121q-12 -97 -50 -154q-65 -98 -186 -98q-82 0 -198 49q-101 43 -162 43q-39 0 -60.5 -21t-33.5 -71z"/>
    <glyph glyph-name="macron" unicode="¯" horiz-adv-x="1024" vert-adv-y="1433" d="M138 1288v160h748v-160h-748z"/>
    <glyph glyph-name="breve" unicode="˘" horiz-adv-x="1024" vert-adv-y="1433" d="M156 1516h135q28 -145 221 -145t222 145h135q-8 -80 -30 -126t-69 -86q-96 -80 -258 -80q-181 0 -278 99q-37 38 -54 79.5t-24 113.5z"/>
    <glyph glyph-name="dotaccent" unicode="˙" horiz-adv-x="1024" vert-adv-y="1433" d="M410 1249v213h205v-213h-205z"/>
    <glyph glyph-name="ring" unicode="˚" horiz-adv-x="1024" vert-adv-y="1433" d="M514 1645q98 0 167.5 -70.5t69.5 -169.5q0 -100 -70 -170t-170 -70q-99 0 -169 70t-70 170q0 101 70 170.5t172 69.5zM510 1534q-49 0 -88 -39.5t-39 -89.5q0 -51 39 -90t89 -39q51 0 90 39t39 90t-39 90t-91 39z"/>
    <glyph glyph-name="cedilla" unicode="¸" horiz-adv-x="1024" vert-adv-y="1433" d="M441 -209l-37 39l102 170h105l-70 -117q13 2 25 4q29 4 46 4q83 0 132 -36.5t49 -98.5q0 -88 -81 -134q-68 -38 -165 -38q-65 0 -217 29l27 96q81 -27 151 -27q50 0 81.5 17.5t31.5 46.5q0 26 -24 42.5t-62 16.5q-39 0 -94 -14z"/>
    <glyph glyph-name="hungarumlaut" unicode="˝" horiz-adv-x="1024" vert-adv-y="1433" d="M590 1231l176 287h256l-268 -287h-164zM177 1231l176 287h256l-268 -287h-164z"/>
    <glyph glyph-name="ogonek" unicode="˛" horiz-adv-x="1024" vert-adv-y="1433" d="M512 0h111q-193 -101 -193 -229q0 -86 103 -86q63 0 163 20l25 -72q-109 -34 -212 -34q-214 0 -214 156q0 74 57.5 139t159.5 106z"/>
    <glyph glyph-name="caron" unicode="ˇ" horiz-adv-x="1024" vert-adv-y="1433" d="M512 1338l176 180h199l-267 -287h-217l-266 287h199z"/>
    <glyph glyph-name="Lslash" unicode="Ł" horiz-adv-x="1290" vert-adv-y="1433" d="M383 778l430 295v-172l-430 -295v-418h889v-188h-1106v458l-160 -110v172l160 110v832h217v-684z"/>
    <glyph glyph-name="lslash" unicode="ł" horiz-adv-x="455" vert-adv-y="1433" d="M330 889l112 86v-172l-112 -86v-717h-205v561l-113 -86v172l113 86v742h205v-586z"/>
    <glyph glyph-name="Scaron" unicode="Š" horiz-adv-x="1366" vert-adv-y="1433" d="M33 481h217q11 -149 100 -226q121 -104 367 -104q187 0 293.5 66.5t106.5 183.5q0 170 -273 215l-332 55q-434 73 -434 385q0 206 157 324.5t430 118.5q334 0 499 -166q58 -58 84 -120.5t38 -172.5h-217q-51 271 -419 271q-163 0 -259 -64.5t-96 -173.5q0 -154 240 -195 l358 -61q441 -76 441 -385q0 -254 -215 -376q-164 -93 -419 -93q-378 0 -549 186q-61 66 -86 136.5t-32 195.5zM696 1665l176 180h199l-267 -286h-217l-266 286h199z"/>
    <glyph glyph-name="scaron" unicode="š" horiz-adv-x="1214" vert-adv-y="1433" d="M63 338h205q12 -215 344 -215q321 0 321 172q0 112 -202 139l-338 45q-133 18 -212 96.5t-79 192.5q0 159 132 250.5t361 91.5q471 0 521 -360h-205q-24 200 -320 200q-284 0 -284 -167q0 -105 178 -129l291 -39q374 -51 374 -291q0 -173 -140.5 -267t-399.5 -94 q-261 0 -391.5 89.5t-155.5 285.5zM607 1338l176 180h199l-267 -287h-217l-266 287h199z"/>
    <glyph glyph-name="Zcaron" unicode="Ž" horiz-adv-x="1403" vert-adv-y="1433" d="M29 0v194l1044 1080h-970v188h1255v-188l-1048 -1086h1065v-188h-1346zM708 1665l176 180h199l-267 -286h-217l-266 286h199z"/>
    <glyph glyph-name="zcaron" unicode="ž" horiz-adv-x="1214" vert-adv-y="1433" d="M55 0v168l790 733h-751v172h1034v-160l-801 -741h832v-172h-1104zM607 1338l176 180h199l-267 -287h-217l-266 287h199z"/>
    <glyph glyph-name="brokenbar" unicode="¦" horiz-adv-x="455" vert-adv-y="1433" d="M141 -37v574h172v-574h-172zM141 926v573h172v-573h-172z"/>
    <glyph glyph-name="Eth" unicode="Ð" horiz-adv-x="1630" vert-adv-y="1433" d="M157 858v604h741q309 0 475 -187q164 -184 164 -525q0 -284 -110 -474q-160 -276 -517 -276h-753v711h-143v147h143zM374 858h471v-147h-471v-523h526q420 0 420 551q0 535 -461 535h-485v-416z"/>
    <glyph glyph-name="eth" unicode="ð" horiz-adv-x="1401" vert-adv-y="1433" d="M289 1241l229 102q-107 47 -207 78l142 115q132 -45 256 -109l243 109l84 -74l-221 -98q124 -85 197.5 -153.5t139.5 -158.5q171 -235 171 -501q0 -282 -179 -442q-164 -146 -443 -146q-298 0 -466 168q-157 157 -157 401q0 240 165 404q83 83 194.5 128.5t233.5 45.5 q164 0 277 -96l4 4q-132 155 -317 266l-264 -117zM696 938q-195 0 -304 -121q-97 -109 -97 -281q0 -194 122 -305q106 -96 283 -96q200 0 309 121q97 108 97 281q0 194 -122 305q-106 96 -288 96z"/>
    <glyph glyph-name="Yacute" unicode="Ý" horiz-adv-x="1479" vert-adv-y="1433" d="M742 797l485 665h264l-645 -850v-612h-217v602l-641 860h276zM611 1558l176 287h256l-268 -287h-164z"/>
    <glyph glyph-name="yacute" unicode="ý" horiz-adv-x="1176" vert-adv-y="1433" d="M594 225l362 848h229l-561 -1257q-70 -159 -145 -213t-224 -54q-37 0 -159 8v173q17 -1 40 -4q45 -5 82 -5q90 0 130 30t90 134l47 98l-495 1090h235zM468 1231l176 287h256l-268 -287h-164z"/>
    <glyph glyph-name="Thorn" unicode="Þ" horiz-adv-x="1479" vert-adv-y="1433" d="M166 0v1462h217v-248h537q269 0 393 -135q96 -105 96 -285q0 -221 -137 -344q-125 -112 -338 -112h-551v-338h-217zM383 526h522q287 0 287 262q0 113 -65 175.5t-183 62.5h-561v-500z"/>
    <glyph glyph-name="thorn" unicode="þ" horiz-adv-x="1403" vert-adv-y="1433" d="M125 -414v1889h205v-551h4q67 85 172.5 129.5t239.5 44.5q126 0 237 -43t189 -122q153 -156 153 -403q0 -246 -153 -402q-163 -165 -428 -165q-275 0 -410 174h-4v-551h-205zM710 926q-189 0 -296 -120q-96 -108 -96 -277q0 -181 107 -287q108 -107 290 -107 q180 0 286 106q107 107 107 288q0 194 -121 304q-102 93 -277 93z"/>
    <glyph glyph-name="minus" unicode="−" horiz-adv-x="1229" vert-adv-y="1433" d="M96 432v172h1036v-172h-1036z"/>
    <glyph glyph-name="multiply" unicode="×" horiz-adv-x="1229" vert-adv-y="1433" d="M499 518l-356 356l115 115l354 -356l358 356l115 -115l-358 -356l358 -356l-115 -115l-358 359l-354 -359l-115 115z"/>
    <glyph glyph-name="onesuperior" unicode="¹" horiz-adv-x="592" vert-adv-y="1433" d="M232 586v590h-248v123q143 0 203.5 33.5t79.5 121.5h137v-868h-172z"/>
    <glyph glyph-name="twosuperior" unicode="²" horiz-adv-x="889" vert-adv-y="1433" d="M237 1147h-160q4 82 24 132t66 91q93 84 274 84q195 0 287 -99q64 -69 64 -171q0 -105 -65 -176.5t-234 -150.5q-91 -42 -125.5 -64t-71.5 -60h496v-147h-743q12 113 54 175q73 107 286 203q152 69 194 123q37 48 37 98q0 61 -49 97.5t-132 36.5q-90 0 -142.5 -44.5 t-59.5 -127.5z"/>
    <glyph glyph-name="threesuperior" unicode="³" horiz-adv-x="889" vert-adv-y="1433" d="M352 969v127q22 -3 70 -3q170 0 170 116q0 110 -173 110q-95 0 -136.5 -33t-49.5 -115h-160q8 78 29 123t66 84q91 76 257 76q137 0 227 -51q112 -65 112 -185q0 -138 -140 -174v-4q85 -17 133 -69.5t48 -127.5q0 -135 -97 -208.5t-275 -73.5q-162 0 -259 55 q-63 36 -91.5 89.5t-33.5 146.5h160q8 -89 54.5 -122.5t161.5 -33.5q208 0 208 131q0 66 -55 104.5t-149 38.5q-31 0 -48 -1h-22h-7z"/>
    <glyph glyph-name="onehalf" unicode="½" horiz-adv-x="2048" vert-adv-y="1433" d="M297 586v590h-248v123q143 0 203.5 33.5t79.5 121.5h137v-868h-172zM406 -33l813 1487h172l-813 -1487h-172zM1395 561h-160q4 82 24 132t66 91q94 84 274 84q197 0 289 -99q64 -70 64 -172q0 -105 -65 -175.5t-236 -150.5q-90 -42 -125 -64t-72 -60h496v-147h-743 q12 113 54 174q73 108 287 204q152 69 195 123q37 48 37 97q0 62 -49.5 98.5t-132.5 36.5q-91 0 -143.5 -44.5t-59.5 -127.5z"/>
    <glyph glyph-name="onequarter" unicode="¼" horiz-adv-x="2048" vert-adv-y="1433" d="M1644 0v190h-475v129l500 549h135v-543h147v-135h-147v-190h-160zM1644 325v334h-4l-293 -334h297zM297 586v590h-248v123q143 0 203.5 33.5t79.5 121.5h137v-868h-172zM402 -33l813 1487h172l-813 -1487h-172z"/>
    <glyph glyph-name="threequarters" unicode="¾" horiz-adv-x="2048" vert-adv-y="1433" d="M1644 0v190h-475v129l500 549h135v-543h147v-135h-147v-190h-160zM1644 325v334h-4l-293 -334h297zM352 969v127q22 -3 70 -3q170 0 170 116q0 110 -173 110q-95 0 -136.5 -33t-49.5 -115h-160q8 78 29 123t66 84q91 76 257 76q137 0 227 -51q112 -65 112 -185 q0 -138 -140 -174v-4q85 -17 133 -69.5t48 -127.5q0 -135 -97 -208.5t-275 -73.5q-162 0 -259 55q-63 36 -91.5 89.5t-33.5 146.5h160q8 -89 54.5 -122.5t161.5 -33.5q208 0 208 131q0 66 -55 104.5t-149 38.5q-31 0 -48 -1h-22h-7zM543 -33l813 1487h172l-813 -1487h-172z "/>
    <glyph glyph-name="franc" unicode="₣" horiz-adv-x="1135" vert-adv-y="1433" d="M243 666v-666h-186v1462h980v-165h-794v-466h297v-165h-297zM629 834h154v-191q135 221 284 221q28 0 67 -6v-170q-149 -1 -218 -52q-119 -87 -119 -308v-328h-168v834z"/>
    <glyph glyph-name="Gbreve" unicode="Ğ" horiz-adv-x="1782" vert-adv-y="1433" d="M958 600v188h672v-788h-156l-37 209q-116 -131 -247.5 -188.5t-316.5 -57.5q-379 0 -586 233q-183 205 -183 522q0 378 237 592q210 189 543 189q334 0 529 -165q74 -63 115 -134t77 -199h-229q-61 163 -176.5 236t-311.5 73q-276 0 -426 -170q-141 -159 -141 -420 q0 -283 167 -434q150 -135 400 -135q234 0 377 117t172 332h-479zM529 1854h135q28 -146 221 -146t222 146h135q-8 -80 -30 -126.5t-69 -86.5q-96 -80 -258 -80q-181 0 -278 99q-37 39 -54 80.5t-24 113.5z"/>
    <glyph glyph-name="gbreve" unicode="ğ" horiz-adv-x="1403" vert-adv-y="1433" d="M1085 915v158h205v-983q0 -283 -143 -411q-145 -130 -483 -130q-259 0 -381 75.5t-158 258.5h204q30 -95 108 -134.5t235 -39.5q413 0 413 324v155h-4q-149 -198 -414 -198q-193 0 -338 83q-252 144 -252 470q0 327 252 472q144 83 334 83q285 0 418 -183h4zM685 926 q-176 0 -283.5 -106t-107.5 -279t107.5 -276t287.5 -103t288 103.5t108 275.5q0 175 -109 280t-291 105zM328 1516h135q28 -145 221 -145t222 145h135q-8 -80 -30 -126t-69 -86q-96 -80 -258 -80q-181 0 -278 99q-37 38 -54 79.5t-24 113.5z"/>
    <glyph glyph-name="glyph250" vert-adv-y="1433"/>
    <glyph glyph-name="Scedilla" unicode="Ş" horiz-adv-x="1366" vert-adv-y="1433" d="M631 -35q-225 13 -371 97q-113 64 -165.5 161t-61.5 258h217q6 -87 26 -129q93 -201 441 -201q177 0 284 61q116 66 116 189q0 88 -66 140t-207 75l-332 55q-167 28 -263 84q-171 100 -171 301q0 240 208 358q150 85 379 85q334 0 499 -166q58 -58 84 -120.5t38 -172.5 h-217q-24 128 -107 190q-108 81 -312 81q-149 0 -242 -54q-113 -65 -113 -184q0 -154 240 -195l358 -61q174 -30 273 -89q168 -100 168 -296q0 -148 -78.5 -255.5t-226.5 -161.5q-129 -48 -294 -52l-48 -80q13 2 25 4q28 4 46 4q83 0 132 -36.5t49 -98.5q0 -88 -81 -134 q-68 -38 -165 -38q-67 0 -217 29l27 96q83 -27 151 -27q50 0 81.5 17.5t31.5 46.5q0 26 -24 42.5t-63 16.5q-40 0 -93 -14l-37 39z"/>
    <glyph glyph-name="scedilla" unicode="ş" horiz-adv-x="1214" vert-adv-y="1433" d="M542 -35q-452 26 -479 373h205q4 -85 66 -139q87 -76 278 -76q154 0 237.5 44.5t83.5 127.5q0 60 -47 92.5t-155 46.5l-338 45q-127 17 -207 92q-84 78 -84 197q0 177 161 269q128 73 332 73q282 0 417 -132q48 -46 70 -95t34 -133h-205q-10 80 -69 130q-85 70 -251 70 q-136 0 -210 -43.5t-74 -123.5q0 -57 41 -86.5t137 -42.5l291 -39q193 -26 283.5 -96.5t90.5 -194.5q0 -167 -127.5 -258.5t-376.5 -101.5l-48 -81q12 2 26 4q26 5 44 5q84 0 133 -36.5t49 -99.5q0 -87 -81 -134q-68 -38 -165 -38q-68 0 -217 29l27 96q82 -27 151 -27 q50 0 81.5 18t31.5 46q0 27 -24 43.5t-63 16.5q-37 0 -93 -15l-37 39z"/>
    <glyph glyph-name="Cacute" unicode="Ć" horiz-adv-x="1669" vert-adv-y="1433" d="M1577 936h-217q-78 375 -502 375q-276 0 -425 -166q-138 -154 -138 -424q0 -266 147 -418t405 -152q211 0 335 98.5t178 309.5h217q-42 -257 -210 -409q-207 -187 -523 -187q-369 0 -583 233q-183 200 -183 534q0 351 209 561q207 208 555 208q369 0 574 -203 q74 -73 108 -149t53 -211zM723 1558l176 287h256l-268 -287h-164z"/>
    <glyph glyph-name="cacute" unicode="ć" horiz-adv-x="1290" vert-adv-y="1433" d="M1004 393h217q-73 -240 -211 -338q-131 -92 -346 -92q-292 0 -448 173q-138 153 -138 396q0 264 158.5 421t425.5 157q469 0 555 -395h-217q-51 223 -325 223q-181 0 -280.5 -105.5t-99.5 -296.5t99.5 -296t280.5 -105q138 0 213.5 59.5t115.5 198.5zM542 1231l176 287 h256l-268 -287h-164z"/>
    <glyph glyph-name="Ccaron" unicode="Č" horiz-adv-x="1669" vert-adv-y="1433" d="M1577 936h-217q-78 375 -502 375q-276 0 -425 -166q-138 -154 -138 -424q0 -266 147 -418t405 -152q211 0 335 98.5t178 309.5h217q-42 -257 -210 -409q-207 -187 -523 -187q-369 0 -583 233q-183 200 -183 534q0 351 209 561q207 208 555 208q369 0 574 -203 q74 -73 108 -149t53 -211zM852 1665l176 180h199l-267 -286h-217l-266 286h199z"/>
    <glyph glyph-name="ccaron" unicode="č" horiz-adv-x="1290" vert-adv-y="1433" d="M1004 393h217q-73 -240 -211 -338q-131 -92 -346 -92q-292 0 -448 173q-138 153 -138 396q0 264 158.5 421t425.5 157q469 0 555 -395h-217q-51 223 -325 223q-181 0 -280.5 -105.5t-99.5 -296.5t99.5 -296t280.5 -105q138 0 213.5 59.5t115.5 198.5zM659 1338l176 180 h199l-267 -287h-217l-266 287h199z"/>
    <glyph glyph-name="glyph257" vert-adv-y="1433"/>
    <glyph glyph-name="nbspace" unicode=" " vert-adv-y="1433"/>
    <glyph glyph-name="uni00AD" unicode="­" horiz-adv-x="985" vert-adv-y="1433" d="M133 463v213h719v-213h-719z"/>
    <glyph glyph-name="Amacron" unicode="Ā" horiz-adv-x="1554" vert-adv-y="1433" d="M1315 0l-186 426h-717l-187 -426h-233l662 1462h247l662 -1462h-248zM1049 614l-281 647l-274 -647h555zM376 1605v160h803v-160h-803z"/>
    <glyph glyph-name="amacron" unicode="ā" horiz-adv-x="1327" vert-adv-y="1433" d="M315 737h-192q25 184 131 269q129 104 397 104q498 0 498 -305v-578q0 -92 94 -92q31 0 70 8v-143q-78 -12 -158 -12q-92 0 -133 33t-54 116q-147 -174 -465 -174q-203 0 -315.5 85.5t-112.5 239.5q0 152 107 229t354 103l234 25q105 11 145.5 39t40.5 91q0 175 -307 175 q-165 0 -244 -50.5t-90 -162.5zM956 561q-43 -44 -201 -63l-231 -29q-244 -30 -244 -171q0 -81 68.5 -128t186.5 -47q178 0 299.5 87t121.5 214v137zM299 1288v160h748v-160h-748z"/>
    <glyph glyph-name="Abreve" unicode="Ă" horiz-adv-x="1554" vert-adv-y="1433" d="M1315 0l-186 426h-717l-187 -426h-233l662 1462h247l662 -1462h-248zM1049 614l-281 647l-274 -647h555zM421 1854h135q28 -146 221 -146t222 146h135q-8 -80 -30 -126.5t-69 -86.5q-96 -80 -258 -80q-181 0 -278 99q-37 39 -54 80.5t-24 113.5z"/>
    <glyph glyph-name="abreve" unicode="ă" horiz-adv-x="1327" vert-adv-y="1433" d="M315 737h-192q25 184 131 269q129 104 397 104q498 0 498 -305v-578q0 -92 94 -92q31 0 70 8v-143q-78 -12 -158 -12q-92 0 -133 33t-54 116q-147 -174 -465 -174q-203 0 -315.5 85.5t-112.5 239.5q0 152 107 229t354 103l234 25q105 11 145.5 39t40.5 91q0 175 -307 175 q-165 0 -244 -50.5t-90 -162.5zM956 561q-43 -44 -201 -63l-231 -29q-244 -30 -244 -171q0 -81 68.5 -128t186.5 -47q178 0 299.5 87t121.5 214v137zM302 1516h135q28 -145 221 -145t222 145h135q-8 -80 -30 -126t-69 -86q-96 -80 -258 -80q-181 0 -278 99q-37 38 -54 79.5 t-24 113.5z"/>
    <glyph glyph-name="Aogonek" unicode="Ą" horiz-adv-x="1554" vert-adv-y="1433" d="M1429 0h-114l-186 426h-717l-187 -426h-233l662 1462h247l662 -1462h-23q-93 -49 -143 -108t-50 -121q0 -86 104 -86q62 0 163 20l24 -72q-109 -34 -212 -34q-214 0 -214 156q0 75 57.5 139t159.5 106zM1049 614l-281 647l-274 -647h555z"/>
    <glyph glyph-name="aogonek" unicode="ą" horiz-adv-x="1327" vert-adv-y="1433" d="M1134 -12q-81 5 -117.5 37.5t-48.5 111.5q-60 -70 -153 -112q-139 -62 -312 -62q-243 0 -352 119q-76 82 -76 206q0 158 114 234q109 73 347 98l234 25q105 11 145.5 39t40.5 91q0 90 -74.5 132.5t-232.5 42.5q-151 0 -235 -46q-48 -26 -70.5 -64t-28.5 -103h-192 q14 104 40 156q109 217 488 217q196 0 319 -53q179 -77 179 -252v-578q0 -92 94 -92q31 0 70 8v-143q-34 -5 -53 -7q-87 -47 -134 -104.5t-47 -117.5q0 -86 104 -86q63 0 163 20l25 -72q-110 -34 -212 -34q-215 0 -215 156q0 68 50.5 130t139.5 103zM956 561 q-25 -26 -67 -39t-134 -24l-231 -29q-128 -16 -186 -56.5t-58 -114.5q0 -88 82 -136q67 -39 173 -39q103 0 194.5 33t149.5 91q77 77 77 177v137z"/>
    <glyph glyph-name="Ccircumflex" unicode="Ĉ" horiz-adv-x="1669" vert-adv-y="1433" d="M1577 936h-217q-78 375 -502 375q-276 0 -425 -166q-138 -154 -138 -424q0 -266 147 -418t405 -152q211 0 335 98.5t178 309.5h217q-42 -257 -210 -409q-207 -187 -523 -187q-369 0 -583 233q-183 200 -183 534q0 351 209 561q207 208 555 208q369 0 574 -203 q74 -73 108 -149t53 -211zM1004 1559l-176 180l-176 -180h-199l266 286h217l267 -286h-199z"/>
    <glyph glyph-name="ccircumflex" unicode="ĉ" horiz-adv-x="1290" vert-adv-y="1433" d="M1004 393h217q-73 -240 -211 -338q-131 -92 -346 -92q-292 0 -448 173q-138 153 -138 396q0 264 158.5 421t425.5 157q469 0 555 -395h-217q-51 223 -325 223q-181 0 -280.5 -105.5t-99.5 -296.5t99.5 -296t280.5 -105q138 0 213.5 59.5t115.5 198.5zM826 1231l-176 180 l-176 -180h-199l266 287h217l267 -287h-199z"/>
    <glyph glyph-name="Cdotaccent" unicode="Ċ" horiz-adv-x="1669" vert-adv-y="1433" d="M1577 936h-217q-78 375 -502 375q-276 0 -425 -166q-138 -154 -138 -424q0 -266 147 -418t405 -152q211 0 335 98.5t178 309.5h217q-42 -257 -210 -409q-207 -187 -523 -187q-369 0 -583 233q-183 200 -183 534q0 351 209 561q207 208 555 208q369 0 574 -203 q74 -73 108 -149t53 -211zM734 1577v213h205v-213h-205z"/>
    <glyph glyph-name="cdotaccent" unicode="ċ" horiz-adv-x="1290" vert-adv-y="1433" d="M1004 393h217q-73 -240 -211 -338q-131 -92 -346 -92q-292 0 -448 173q-138 153 -138 396q0 264 158.5 421t425.5 157q469 0 555 -395h-217q-51 223 -325 223q-181 0 -280.5 -105.5t-99.5 -296.5t99.5 -296t280.5 -105q138 0 213.5 59.5t115.5 198.5zM544 1249v213h205 v-213h-205z"/>
    <glyph glyph-name="Dcaron" unicode="Ď" horiz-adv-x="1630" vert-adv-y="1433" d="M158 0v1462h741q309 0 475 -187q164 -184 164 -525q0 -284 -110 -474q-160 -276 -516 -276h-754zM375 188h526q420 0 420 551q0 535 -461 535h-485v-1086zM766 1665l176 180h199l-267 -286h-217l-266 286h199z"/>
    <glyph glyph-name="dcaron" unicode="ď" horiz-adv-x="1611" vert-adv-y="1433" d="M1073 0v137h-4q-138 -174 -412 -174q-257 0 -418 157.5t-161 409.5q0 248 153 403q163 165 428 165q273 0 410 -174h4v551h205v-1475h-205zM684 926q-177 0 -283 -107.5t-106 -286.5q0 -183 106 -290t288 -107q181 0 288.5 107.5t107.5 289.5q0 181 -108 287.5 t-293 106.5zM1353 1308v166h203v-146q0 -200 -203 -239v70q53 16 73.5 46.5t24.5 102.5h-98z"/>
    <glyph glyph-name="Dcroat" unicode="Đ" horiz-adv-x="1630" vert-adv-y="1433" d="M157 858v604h741q309 0 475 -187q164 -184 164 -525q0 -284 -110 -474q-160 -276 -517 -276h-753v711h-143v147h143zM374 858h471v-147h-471v-523h526q420 0 420 551q0 535 -461 535h-485v-416z"/>
    <glyph glyph-name="dcroat" unicode="đ" horiz-adv-x="1403" vert-adv-y="1433" d="M1278 1218v-1218h-205v137h-4q-58 -72 -139 -113q-122 -61 -273 -61q-126 0 -237 43t-189 122q-153 155 -153 402q0 248 153 403q163 165 428 165q272 0 410 -174h4v294h-447v139h447v118h205v-118h164v-139h-164zM684 926q-176 0 -282 -106q-107 -107 -107 -288 q0 -193 121 -303q102 -94 272 -94q194 0 301 120q96 108 96 277q0 179 -107 287q-107 107 -294 107z"/>
    <glyph glyph-name="Emacron" unicode="Ē" horiz-adv-x="1442" vert-adv-y="1433" d="M158 0v1462h1175v-188h-958v-424h930v-188h-930v-474h979v-188h-1196zM355 1605v160h803v-160h-803z"/>
    <glyph glyph-name="emacron" unicode="ē" horiz-adv-x="1366" vert-adv-y="1433" d="M1282 475h-987q19 -146 109 -231q117 -109 290 -109q242 0 342 191h218q-164 -363 -565 -363q-286 0 -454 168q-157 158 -157 406t157 405q169 168 457 168q274 0 432 -163t158 -445v-27zM301 635h764q-63 303 -374 303q-154 0 -256.5 -79.5t-133.5 -223.5zM306 1288v160 h748v-160h-748z"/>
    <glyph glyph-name="Ebreve" unicode="Ĕ" horiz-adv-x="1442" vert-adv-y="1433" d="M158 0v1462h1175v-188h-958v-424h930v-188h-930v-474h979v-188h-1196zM400 1854h135q28 -146 221 -146t222 146h135q-8 -80 -30 -126.5t-69 -86.5q-96 -80 -258 -80q-181 0 -278 99q-37 39 -54 80.5t-24 113.5z"/>
    <glyph glyph-name="ebreve" unicode="ĕ" horiz-adv-x="1366" vert-adv-y="1433" d="M1282 475h-987q19 -146 109 -231q117 -109 290 -109q242 0 342 191h218q-164 -363 -565 -363q-286 0 -454 168q-157 158 -157 406t157 405q169 168 457 168q274 0 432 -163t158 -445v-27zM301 635h764q-63 303 -374 303q-154 0 -256.5 -79.5t-133.5 -223.5zM324 1516h135 q28 -145 221 -145t222 145h135q-8 -80 -30 -126t-69 -86q-96 -80 -258 -80q-181 0 -278 99q-37 38 -54 79.5t-24 113.5z"/>
    <glyph glyph-name="Edotaccent" unicode="Ė" horiz-adv-x="1442" vert-adv-y="1433" d="M158 0v1462h1175v-188h-958v-424h930v-188h-930v-474h979v-188h-1196zM645 1577v213h205v-213h-205z"/>
    <glyph glyph-name="edotaccent" unicode="ė" horiz-adv-x="1366" vert-adv-y="1433" d="M1282 475h-987q19 -146 109 -231q117 -109 290 -109q242 0 342 191h218q-164 -363 -565 -363q-286 0 -454 168q-157 158 -157 406t157 405q169 168 457 168q274 0 432 -163t158 -445v-27zM301 635h764q-63 303 -374 303q-154 0 -256.5 -79.5t-133.5 -223.5zM578 1249v213 h205v-213h-205z"/>
    <glyph glyph-name="Eogonek" unicode="Ę" horiz-adv-x="1442" vert-adv-y="1433" d="M1209 0h-1051v1462h1175v-188h-958v-424h930v-188h-930v-474h979v-188h-35q-193 -103 -193 -229q0 -86 104 -86q62 0 163 20l24 -72q-109 -34 -211 -34q-215 0 -215 156q0 75 57.5 139t160.5 106z"/>
    <glyph glyph-name="eogonek" unicode="ę" horiz-adv-x="1366" vert-adv-y="1433" d="M693 -37q-253 0 -417 132q-198 159 -198 442q0 248 157 405q169 168 457 168q284 0 446 -178q144 -160 144 -430v-27h-987q13 -102 55 -165q53 -81 144.5 -127.5t199.5 -46.5q122 0 207 47t135 143h218q-114 -281 -416 -347q-71 -43 -112 -98.5t-41 -109.5q0 -86 104 -86 q60 0 163 20l24 -71q-108 -35 -212 -35q-214 0 -214 157q0 120 143 207zM301 635h764q-21 100 -64 159q-105 144 -310 144q-163 0 -274 -95q-48 -41 -74 -87.5t-42 -120.5z"/>
    <glyph glyph-name="Ecaron" unicode="Ě" horiz-adv-x="1442" vert-adv-y="1433" d="M158 0v1462h1175v-188h-958v-424h930v-188h-930v-474h979v-188h-1196zM753 1665l176 180h199l-267 -286h-217l-266 286h199z"/>
    <glyph glyph-name="ecaron" unicode="ě" horiz-adv-x="1366" vert-adv-y="1433" d="M1282 475h-987q19 -146 109 -231q117 -109 290 -109q242 0 342 191h218q-164 -363 -565 -363q-286 0 -454 168q-157 158 -157 406t157 405q169 168 457 168q274 0 432 -163t158 -445v-27zM301 635h764q-63 303 -374 303q-154 0 -256.5 -79.5t-133.5 -223.5zM680 1338 l176 180h199l-267 -287h-217l-266 287h199z"/>
    <glyph glyph-name="Gcircumflex" unicode="Ĝ" horiz-adv-x="1782" vert-adv-y="1433" d="M958 600v188h672v-788h-156l-37 209q-116 -131 -247.5 -188.5t-316.5 -57.5q-379 0 -586 233q-183 205 -183 522q0 378 237 592q210 189 543 189q334 0 529 -165q74 -63 115 -134t77 -199h-229q-61 163 -176.5 236t-311.5 73q-276 0 -426 -170q-141 -159 -141 -420 q0 -283 167 -434q150 -135 400 -135q234 0 377 117t172 332h-479zM1067 1559l-176 180l-176 -180h-199l266 286h217l267 -286h-199z"/>
    <glyph glyph-name="gcircumflex" unicode="ĝ" horiz-adv-x="1403" vert-adv-y="1433" d="M1085 915v158h205v-983q0 -283 -143 -411q-145 -130 -483 -130q-259 0 -381 75.5t-158 258.5h204q30 -95 108 -134.5t235 -39.5q413 0 413 324v155h-4q-149 -198 -414 -198q-193 0 -338 83q-252 144 -252 470q0 327 252 472q144 83 334 83q285 0 418 -183h4zM685 926 q-176 0 -283.5 -106t-107.5 -279t107.5 -276t287.5 -103t288 103.5t108 275.5q0 175 -109 280t-291 105zM860 1231l-176 180l-176 -180h-199l266 287h217l267 -287h-199z"/>
    <glyph glyph-name="Gdotaccent" unicode="Ġ" horiz-adv-x="1782" vert-adv-y="1433" d="M958 600v188h672v-788h-156l-37 209q-116 -131 -247.5 -188.5t-316.5 -57.5q-379 0 -586 233q-183 205 -183 522q0 378 237 592q210 189 543 189q334 0 529 -165q74 -63 115 -134t77 -199h-229q-61 163 -176.5 236t-311.5 73q-276 0 -426 -170q-141 -159 -141 -420 q0 -283 167 -434q150 -135 400 -135q234 0 377 117t172 332h-479zM783 1577v213h205v-213h-205z"/>
    <glyph glyph-name="gdotaccent" unicode="ġ" horiz-adv-x="1403" vert-adv-y="1433" d="M1085 915v158h205v-983q0 -283 -143 -411q-145 -130 -483 -130q-259 0 -381 75.5t-158 258.5h204q30 -95 108 -134.5t235 -39.5q413 0 413 324v155h-4q-149 -198 -414 -198q-193 0 -338 83q-252 144 -252 470q0 327 252 472q144 83 334 83q285 0 418 -183h4zM685 926 q-176 0 -283.5 -106t-107.5 -279t107.5 -276t287.5 -103t288 103.5t108 275.5q0 175 -109 280t-291 105zM585 1249v213h205v-213h-205z"/>
    <glyph glyph-name="Gcommaaccent" unicode="Ģ" horiz-adv-x="1782" vert-adv-y="1433" d="M958 600v188h672v-788h-156l-37 209q-116 -131 -247.5 -188.5t-316.5 -57.5q-379 0 -586 233q-183 205 -183 522q0 378 237 592q210 189 543 189q334 0 529 -165q74 -63 115 -134t77 -199h-229q-61 163 -176.5 236t-311.5 73q-276 0 -426 -170q-141 -159 -141 -420 q0 -283 167 -434q150 -135 400 -135q234 0 377 117t172 332h-479zM796 -244v166h203v-146q0 -200 -203 -239v70q53 16 73.5 47t24.5 102h-98z"/>
    <glyph glyph-name="gcommaaccent" unicode="ģ" horiz-adv-x="1403" vert-adv-y="1433" d="M1085 915v158h205v-983q0 -283 -143 -411q-145 -130 -483 -130q-259 0 -381 75.5t-158 258.5h204q30 -95 108 -134.5t235 -39.5q413 0 413 324v155h-4q-149 -198 -414 -198q-193 0 -338 83q-252 144 -252 470q0 327 252 472q144 83 334 83q285 0 418 -183h4zM685 926 q-176 0 -283.5 -106t-107.5 -279t107.5 -276t287.5 -103t288 103.5t108 275.5q0 175 -109 280t-291 105zM777 1372v-166h-203v146q0 200 203 239v-70q-53 -16 -73.5 -46.5t-24.5 -102.5h98z"/>
    <glyph glyph-name="Hcircumflex" unicode="Ĥ" horiz-adv-x="1745" vert-adv-y="1433" d="M1371 0v689h-996v-689h-217v1462h217v-585h996v585h217v-1462h-217zM1049 1559l-176 180l-176 -180h-199l266 286h217l267 -286h-199z"/>
    <glyph glyph-name="hcircumflex" unicode="ĥ" horiz-adv-x="1329" vert-adv-y="1433" d="M125 0v1475h205v-564h4q140 199 424 199q169 0 282 -65q164 -96 164 -314v-731h-205v690q0 248 -308 248q-164 0 -262.5 -87t-98.5 -233v-618h-205zM438 1559l-176 180l-176 -180h-199l266 286h217l267 -286h-199z"/>
    <glyph glyph-name="Hbar" unicode="Ħ" horiz-adv-x="1745" vert-adv-y="1433" d="M1587 1122v-1122h-217v689h-996v-689h-217v1122h-96v160h96v180h217v-180h996v180h217v-180h96v-160h-96zM1370 1122h-996v-245h996v245z"/>
    <glyph glyph-name="hbar" unicode="ħ" horiz-adv-x="1329" vert-adv-y="1433" d="M330 1222v-311h4q66 93 153 139q114 60 271 60q169 0 281 -65q165 -96 165 -314v-731h-205v690q0 248 -309 248q-154 0 -252 -79q-108 -88 -108 -241v-618h-205v1222h-88v160h88v93h205v-93h455v-160h-455z"/>
    <glyph glyph-name="Itilde" unicode="Ĩ" horiz-adv-x="569" vert-adv-y="1433" d="M176 0v1462h217v-1462h-217zM0 1575h-121q12 97 50 154q65 98 184 98q84 0 200 -49q102 -43 161 -43q40 0 61.5 20.5t33.5 71.5h121q-12 -97 -50 -154q-65 -98 -185 -98q-83 0 -199 49q-101 43 -161 43q-40 0 -62 -21t-33 -71z"/>
    <glyph glyph-name="itilde" unicode="ĩ" horiz-adv-x="455" vert-adv-y="1433" d="M125 0v1073h205v-1073h-205zM-57 1247h-121q12 97 50 154q65 98 184 98q84 0 200 -49q102 -43 161 -43q40 0 61.5 21t33.5 71h121q-12 -97 -50 -154q-65 -98 -186 -98q-82 0 -198 49q-101 43 -162 43q-39 0 -60.5 -21t-33.5 -71z"/>
    <glyph glyph-name="Imacron" unicode="Ī" horiz-adv-x="569" vert-adv-y="1433" d="M176 0v1462h217v-1462h-217zM-117 1605v160h803v-160h-803z"/>
    <glyph glyph-name="imacron" unicode="ī" horiz-adv-x="455" vert-adv-y="1433" d="M125 0v1073h205v-1073h-205zM-147 1288v160h748v-160h-748z"/>
    <glyph glyph-name="Ibreve" unicode="Ĭ" horiz-adv-x="569" vert-adv-y="1433" d="M176 0v1462h217v-1462h-217zM-72 1854h135q28 -146 221 -146t222 146h135q-8 -80 -30 -126.5t-69 -86.5q-96 -80 -258 -80q-181 0 -278 99q-37 39 -54 80.5t-24 113.5z"/>
    <glyph glyph-name="ibreve" unicode="ĭ" horiz-adv-x="455" vert-adv-y="1433" d="M125 0v1073h205v-1073h-205zM-129 1516h135q28 -145 221 -145t222 145h135q-8 -80 -30 -126t-69 -86q-96 -80 -258 -80q-181 0 -278 99q-37 38 -54 79.5t-24 113.5z"/>
    <glyph glyph-name="Iogonek" unicode="Į" horiz-adv-x="569" vert-adv-y="1433" d="M268 0h-91v1462h217v-1462h-15q-93 -49 -143 -108t-50 -121q0 -87 104 -87q57 0 163 21l24 -72q-110 -35 -212 -35q-214 0 -214 157q0 74 57.5 138.5t159.5 106.5z"/>
    <glyph glyph-name="iogonek" unicode="į" horiz-adv-x="455" vert-adv-y="1433" d="M198 0h-73v1073h205v-1073h-21q-93 -49 -143 -108t-50 -122q0 -86 106 -86q59 0 161 21l24 -72q-107 -35 -211 -35q-215 0 -215 157q0 74 57.5 139t159.5 106zM125 1250v225h205v-225h-205z"/>
    <glyph glyph-name="Idotaccent" unicode="İ" horiz-adv-x="569" vert-adv-y="1433" d="M176 0v1462h217v-1462h-217zM182 1577v213h205v-213h-205z"/>
    <glyph glyph-name="Jcircumflex" unicode="Ĵ" horiz-adv-x="1176" vert-adv-y="1433" d="M47 498h205v-70q0 -293 287 -293q272 0 272 291v1036h217v-991q0 -508 -487 -508q-356 0 -455 251q-38 98 -39 284zM1084 1559l-176 180l-176 -180h-199l266 286h217l267 -286h-199z"/>
    <glyph glyph-name="jcircumflex" unicode="ĵ" horiz-adv-x="455" vert-adv-y="1433" d="M-106 -410v172q28 -4 71 -4q85 0 122.5 30t37.5 99v1186h205v-1139q0 -201 -85 -279q-77 -69 -249 -69q-20 0 -102 4zM381 1231l-176 180l-176 -180h-199l266 287h217l267 -287h-199z"/>
    <glyph glyph-name="Kcommaaccent" unicode="Ķ" horiz-adv-x="1554" vert-adv-y="1433" d="M1247 0l-598 713l-266 -236v-477h-217v1462h217v-735l817 735h307l-694 -606l733 -856h-299zM733 -235v166h203v-146q0 -200 -203 -239v70q53 16 73.5 47t24.5 102h-98z"/>
    <glyph glyph-name="kcommaaccent" unicode="ķ" horiz-adv-x="1214" vert-adv-y="1433" d="M346 614l545 459h311l-504 -403l543 -670h-279l-428 536l-188 -149v-387h-205v1475h205v-861zM553 -234v166h203v-146q0 -200 -203 -240v70q53 16 73.5 47.5t24.5 102.5h-98z"/>
    <glyph glyph-name="Lacute" unicode="Ĺ" horiz-adv-x="1290" vert-adv-y="1433" d="M166 0v1462h217v-1274h889v-188h-1106zM192 1558l176 287h256l-268 -287h-164z"/>
    <glyph glyph-name="lacute" unicode="ĺ" horiz-adv-x="455" vert-adv-y="1433" d="M125 0v1475h205v-1475h-205zM141 1542l176 287h256l-268 -287h-164z"/>
    <glyph glyph-name="Lcommaaccent" unicode="Ļ" horiz-adv-x="1290" vert-adv-y="1433" d="M166 0v1462h217v-1274h889v-188h-1106zM617 -235v166h203v-146q0 -200 -203 -239v70q53 16 73.5 47t24.5 102h-98z"/>
    <glyph glyph-name="lcommaaccent" unicode="ļ" horiz-adv-x="455" vert-adv-y="1433" d="M125 0v1475h205v-1475h-205zM126 -234v166h203v-146q0 -200 -203 -240v70q53 16 73.5 47.5t24.5 102.5h-98z"/>
    <glyph glyph-name="Lcaron" unicode="Ľ" horiz-adv-x="1290" vert-adv-y="1433" d="M166 0v1462h217v-1274h889v-188h-1106zM747 1296v166h203v-146q0 -200 -203 -239v70q53 15 73.5 46.5t24.5 102.5h-98z"/>
    <glyph glyph-name="lcaron" unicode="ľ" horiz-adv-x="670" vert-adv-y="1433" d="M125 0v1475h205v-1475h-205zM398 1308v166h203v-146q0 -200 -203 -239v70q53 16 73.5 46.5t24.5 102.5h-98z"/>
    <glyph glyph-name="Ldot" unicode="Ŀ" horiz-adv-x="1290" vert-adv-y="1433" d="M166 0v1462h217v-1274h889v-188h-1106zM742 800q62 0 106 -44.5t44 -107.5t-44.5 -107t-106.5 -44q-64 0 -108 44t-44 107q0 64 44.5 108t108.5 44z"/>
    <glyph glyph-name="ldot" unicode="ŀ" horiz-adv-x="763" vert-adv-y="1433" d="M125 0v1475h205v-1475h-205zM548 785q62 0 106 -44.5t44 -107.5t-44.5 -107t-106.5 -44q-64 0 -108 44t-44 107q0 64 44.5 108t108.5 44z"/>
    <glyph glyph-name="Nacute" unicode="Ń" horiz-adv-x="1745" vert-adv-y="1433" d="M1327 0l-940 1163h-4v-1163h-217v1462h252l940 -1163h4v1163h217v-1462h-252zM729 1558l176 287h256l-268 -287h-164z"/>
    <glyph glyph-name="nacute" unicode="ń" horiz-adv-x="1329" vert-adv-y="1433" d="M125 0v1073h205v-162h4q140 199 424 199q169 0 282 -65q164 -96 164 -314v-731h-205v690q0 248 -308 248q-165 0 -263 -87t-98 -233v-618h-205zM572 1231l176 287h256l-268 -287h-164z"/>
    <glyph glyph-name="Ncommaaccent" unicode="Ņ" horiz-adv-x="1745" vert-adv-y="1433" d="M1327 0l-940 1163h-4v-1163h-217v1462h252l940 -1163h4v1163h217v-1462h-252zM771 -235v166h203v-146q0 -200 -203 -239v70q53 16 73.5 47t24.5 102h-98z"/>
    <glyph glyph-name="ncommaaccent" unicode="ņ" horiz-adv-x="1329" vert-adv-y="1433" d="M125 0v1073h205v-162h4q140 199 424 199q169 0 282 -65q164 -96 164 -314v-731h-205v690q0 248 -308 248q-165 0 -263 -87t-98 -233v-618h-205zM563 -234v166h203v-146q0 -200 -203 -240v70q53 16 73.5 47.5t24.5 102.5h-98z"/>
    <glyph glyph-name="Ncaron" unicode="Ň" horiz-adv-x="1745" vert-adv-y="1433" d="M1327 0l-940 1163h-4v-1163h-217v1462h252l940 -1163h4v1163h217v-1462h-252zM873 1665l176 180h199l-267 -286h-217l-266 286h199z"/>
    <glyph glyph-name="ncaron" unicode="ň" horiz-adv-x="1329" vert-adv-y="1433" d="M125 0v1073h205v-162h4q140 199 424 199q169 0 282 -65q164 -96 164 -314v-731h-205v690q0 248 -308 248q-165 0 -263 -87t-98 -233v-618h-205zM674 1338l176 180h199l-267 -287h-217l-266 287h199z"/>
    <glyph glyph-name="napostrophe" unicode="ŉ" horiz-adv-x="1492" vert-adv-y="1433" d="M288 0v1073h205v-162h4q140 199 424 199q169 0 282 -65q164 -96 164 -314v-731h-205v690q0 248 -308 248q-165 0 -263 -87t-98 -233v-618h-205zM74 1305v166h203v-146q0 -200 -203 -239v70q53 16 73.5 46.5t24.5 102.5h-98z"/>
    <glyph glyph-name="Omacron" unicode="Ō" horiz-adv-x="1782" vert-adv-y="1433" d="M900 1499q398 0 616 -243q188 -208 188 -525q0 -361 -237 -575q-214 -193 -576 -193q-407 0 -626 243q-187 208 -187 525q0 362 237 575q213 193 585 193zM885 1311q-270 0 -430 -157t-160 -423q0 -282 177 -438q160 -142 419 -142q275 0 435.5 156.5t160.5 423.5 q0 282 -176 438q-160 142 -426 142zM490 1605v160h803v-160h-803z"/>
    <glyph glyph-name="omacron" unicode="ō" horiz-adv-x="1401" vert-adv-y="1433" d="M707 1110q290 0 459 -168q157 -157 157 -406q0 -261 -169.5 -417t-453.5 -156q-283 0 -452.5 156t-169.5 416q0 264 170 419.5t459 155.5zM696 938q-183 0 -292 -109t-109 -293q0 -185 109.5 -293t295.5 -108q188 0 297 108.5t109 293.5q0 186 -110 293.5t-300 107.5z M326 1288v160h748v-160h-748z"/>
    <glyph glyph-name="Obreve" unicode="Ŏ" horiz-adv-x="1782" vert-adv-y="1433" d="M900 1499q398 0 616 -243q188 -208 188 -525q0 -361 -237 -575q-214 -193 -576 -193q-407 0 -626 243q-187 208 -187 525q0 362 237 575q213 193 585 193zM885 1311q-270 0 -430 -157t-160 -423q0 -282 177 -438q160 -142 419 -142q275 0 435.5 156.5t160.5 423.5 q0 282 -176 438q-160 142 -426 142zM535 1854h135q28 -146 221 -146t222 146h135q-8 -80 -30 -126.5t-69 -86.5q-96 -80 -258 -80q-181 0 -278 99q-37 39 -54 80.5t-24 113.5z"/>
    <glyph glyph-name="obreve" unicode="ŏ" horiz-adv-x="1401" vert-adv-y="1433" d="M707 1110q290 0 459 -168q157 -157 157 -406q0 -261 -169.5 -417t-453.5 -156q-283 0 -452.5 156t-169.5 416q0 264 170 419.5t459 155.5zM696 938q-183 0 -292 -109t-109 -293q0 -185 109.5 -293t295.5 -108q188 0 297 108.5t109 293.5q0 186 -110 293.5t-300 107.5z M344 1516h135q28 -145 221 -145t222 145h135q-8 -80 -30 -126t-69 -86q-96 -80 -258 -80q-181 0 -278 99q-37 38 -54 79.5t-24 113.5z"/>
    <glyph glyph-name="Ohungarumlaut" unicode="Ő" horiz-adv-x="1782" vert-adv-y="1433" d="M900 1499q398 0 616 -243q188 -208 188 -525q0 -361 -237 -575q-214 -193 -576 -193q-407 0 -626 243q-187 208 -187 525q0 362 237 575q213 193 585 193zM885 1311q-270 0 -430 -157t-160 -423q0 -282 177 -438q160 -142 419 -142q275 0 435.5 156.5t160.5 423.5 q0 282 -176 438q-160 142 -426 142zM970 1581l176 287h256l-268 -287h-164zM554 1581l176 287h256l-268 -287h-164z"/>
    <glyph glyph-name="ohungarumlaut" unicode="ő" horiz-adv-x="1401" vert-adv-y="1433" d="M707 1110q290 0 459 -168q157 -157 157 -406q0 -261 -169.5 -417t-453.5 -156q-283 0 -452.5 156t-169.5 416q0 264 170 419.5t459 155.5zM696 938q-183 0 -292 -109t-109 -293q0 -185 109.5 -293t295.5 -108q188 0 297 108.5t109 293.5q0 186 -110 293.5t-300 107.5z M787 1231l176 287h256l-268 -287h-164zM374 1231l176 287h256l-268 -287h-164z"/>
    <glyph glyph-name="Racute" unicode="Ŕ" horiz-adv-x="1554" vert-adv-y="1433" d="M166 0v1462h905q184 0 291.5 -105.5t107.5 -285.5q0 -270 -245 -358v-4q215 -40 217 -401q12 -249 65 -308h-229q-33 42 -42 220q-12 232 -72.5 316.5t-213.5 84.5h-567v-621h-217zM383 809h606q264 0 264 232q0 111 -67.5 172t-190.5 61h-612v-465zM621 1558l176 287 h256l-268 -287h-164z"/>
    <glyph glyph-name="racute" unicode="ŕ" horiz-adv-x="834" vert-adv-y="1433" d="M125 0v1073h205v-197h4q142 234 371 234q64 0 114 -12v-222q-87 21 -145 21q-162 0 -253 -93.5t-91 -258.5v-545h-205zM310 1231l176 287h256l-268 -287h-164z"/>
    <glyph glyph-name="Rcommaaccent" unicode="Ŗ" horiz-adv-x="1554" vert-adv-y="1433" d="M166 0v1462h905q184 0 291.5 -105.5t107.5 -285.5q0 -270 -245 -358v-4q215 -40 217 -401q12 -249 65 -308h-229q-33 42 -42 220q-12 232 -72.5 316.5t-213.5 84.5h-567v-621h-217zM383 809h606q264 0 264 232q0 111 -67.5 172t-190.5 61h-612v-465zM729 -235v166h203 v-146q0 -200 -203 -239v70q53 16 73.5 47t24.5 102h-98z"/>
    <glyph glyph-name="rcommaaccent" unicode="ŗ" horiz-adv-x="834" vert-adv-y="1433" d="M125 0v1073h205v-197h4q142 234 371 234q64 0 114 -12v-222q-87 21 -145 21q-162 0 -253 -93.5t-91 -258.5v-545h-205zM127 -234v166h203v-146q0 -200 -203 -240v70q53 16 73.5 47.5t24.5 102.5h-98z"/>
    <glyph glyph-name="Rcaron" unicode="Ř" horiz-adv-x="1554" vert-adv-y="1433" d="M166 0v1462h905q184 0 291.5 -105.5t107.5 -285.5q0 -270 -245 -358v-4q215 -40 217 -401q12 -249 65 -308h-229q-33 42 -42 220q-12 232 -72.5 316.5t-213.5 84.5h-567v-621h-217zM383 809h606q264 0 264 232q0 111 -67.5 172t-190.5 61h-612v-465zM772 1665l176 180 h199l-267 -286h-217l-266 286h199z"/>
    <glyph glyph-name="rcaron" unicode="ř" horiz-adv-x="834" vert-adv-y="1433" d="M125 0v1073h205v-197h4q142 234 371 234q64 0 114 -12v-222q-87 21 -145 21q-162 0 -253 -93.5t-91 -258.5v-545h-205zM439 1338l176 180h199l-267 -287h-217l-266 287h199z"/>
    <glyph glyph-name="Sacute" unicode="Ś" horiz-adv-x="1366" vert-adv-y="1433" d="M33 481h217q11 -149 100 -226q121 -104 367 -104q187 0 293.5 66.5t106.5 183.5q0 170 -273 215l-332 55q-434 73 -434 385q0 206 157 324.5t430 118.5q334 0 499 -166q58 -58 84 -120.5t38 -172.5h-217q-51 271 -419 271q-163 0 -259 -64.5t-96 -173.5q0 -154 240 -195 l358 -61q441 -76 441 -385q0 -254 -215 -376q-164 -93 -419 -93q-378 0 -549 186q-61 66 -86 136.5t-32 195.5zM539 1558l176 287h256l-268 -287h-164z"/>
    <glyph glyph-name="sacute" unicode="ś" horiz-adv-x="1214" vert-adv-y="1433" d="M63 338h205q12 -215 344 -215q321 0 321 172q0 112 -202 139l-338 45q-133 18 -212 96.5t-79 192.5q0 159 132 250.5t361 91.5q471 0 521 -360h-205q-24 200 -320 200q-284 0 -284 -167q0 -105 178 -129l291 -39q374 -51 374 -291q0 -173 -140.5 -267t-399.5 -94 q-261 0 -391.5 89.5t-155.5 285.5zM454 1231l176 287h256l-268 -287h-164z"/>
    <glyph glyph-name="Scircumflex" unicode="Ŝ" horiz-adv-x="1366" vert-adv-y="1433" d="M33 481h217q11 -149 100 -226q121 -104 367 -104q187 0 293.5 66.5t106.5 183.5q0 170 -273 215l-332 55q-434 73 -434 385q0 206 157 324.5t430 118.5q334 0 499 -166q58 -58 84 -120.5t38 -172.5h-217q-51 271 -419 271q-163 0 -259 -64.5t-96 -173.5q0 -154 240 -195 l358 -61q441 -76 441 -385q0 -254 -215 -376q-164 -93 -419 -93q-378 0 -549 186q-61 66 -86 136.5t-32 195.5zM860 1559l-176 180l-176 -180h-199l266 286h217l267 -286h-199z"/>
    <glyph glyph-name="scircumflex" unicode="ŝ" horiz-adv-x="1214" vert-adv-y="1433" d="M63 338h205q12 -215 344 -215q321 0 321 172q0 112 -202 139l-338 45q-133 18 -212 96.5t-79 192.5q0 159 132 250.5t361 91.5q471 0 521 -360h-205q-24 200 -320 200q-284 0 -284 -167q0 -105 178 -129l291 -39q374 -51 374 -291q0 -173 -140.5 -267t-399.5 -94 q-261 0 -391.5 89.5t-155.5 285.5zM792 1231l-176 180l-176 -180h-199l266 287h217l267 -287h-199z"/>
    <glyph glyph-name="Tcommaaccent" unicode="Ţ" horiz-adv-x="1327" vert-adv-y="1433" d="M555 0v1274h-553v188h1323v-188h-553v-1274h-217zM562 -235v166h203v-146q0 -200 -203 -239v70q53 16 73.5 47t24.5 102h-98z"/>
    <glyph glyph-name="tcommaaccent" unicode="ţ" horiz-adv-x="758" vert-adv-y="1433" d="M215 1073v330h205v-330h307v-160h-307v-661q0 -117 165 -117q61 0 142 15v-173q-89 -14 -216 -14q-296 0 -296 254v696h-221v160h221zM217 -234v166h203v-146q0 -200 -203 -240v70q53 16 73.5 47.5t24.5 102.5h-98z"/>
    <glyph glyph-name="Tcaron" unicode="Ť" horiz-adv-x="1327" vert-adv-y="1433" d="M555 0v1274h-553v188h1323v-188h-553v-1274h-217zM664 1665l176 180h199l-267 -286h-217l-266 286h199z"/>
    <glyph glyph-name="tcaron" unicode="ť" horiz-adv-x="840" vert-adv-y="1433" d="M215 1073v330h205v-330h307v-160h-307v-661q0 -117 165 -117q61 0 142 15v-173q-89 -14 -216 -14q-296 0 -296 254v696h-221v160h221zM577 1456v166h203v-146q0 -200 -203 -239v70q53 16 73.5 46.5t24.5 102.5h-98z"/>
    <glyph glyph-name="Tbar" unicode="Ŧ" horiz-adv-x="1327" vert-adv-y="1433" d="M772 868v-868h-217v868h-293v160h293v246h-553v188h1323v-188h-553v-246h293v-160h-293z"/>
    <glyph glyph-name="tbar" unicode="ŧ" horiz-adv-x="758" vert-adv-y="1433" d="M420 1073h307v-160h-307v-175h307v-160h-307v-326q0 -117 165 -117q61 0 142 15v-173q-89 -14 -216 -14q-151 0 -223.5 62.5t-72.5 191.5v361h-221v160h221v175h-221v160h221v330h205v-330z"/>
    <glyph glyph-name="Utilde" unicode="Ũ" horiz-adv-x="1630" vert-adv-y="1433" d="M1477 1462v-909q0 -590 -662 -590q-661 0 -661 590v909h217v-936q0 -375 445 -375q444 0 444 375v936h217zM531 1575h-121q12 97 50 154q65 98 184 98q84 0 200 -49q102 -43 161 -43q40 0 61.5 20.5t33.5 71.5h121q-12 -97 -50 -154q-65 -98 -185 -98q-83 0 -199 49 q-101 43 -161 43q-40 0 -62 -21t-33 -71z"/>
    <glyph glyph-name="utilde" unicode="ũ" horiz-adv-x="1329" vert-adv-y="1433" d="M1204 1073v-1073h-205v162h-4q-140 -199 -424 -199q-169 0 -282 65q-164 95 -164 314v731h205v-690q0 -248 309 -248q163 0 261.5 87t98.5 233v618h205zM380 1247h-121q12 97 50 154q65 98 184 98q84 0 200 -49q102 -43 161 -43q40 0 61.5 21t33.5 71h121 q-12 -97 -50 -154q-65 -98 -186 -98q-82 0 -198 49q-101 43 -162 43q-39 0 -60.5 -21t-33.5 -71z"/>
    <glyph glyph-name="Umacron" unicode="Ū" horiz-adv-x="1630" vert-adv-y="1433" d="M1477 1462v-909q0 -590 -662 -590q-661 0 -661 590v909h217v-936q0 -375 445 -375q444 0 444 375v936h217zM414 1605v160h803v-160h-803z"/>
    <glyph glyph-name="umacron" unicode="ū" horiz-adv-x="1329" vert-adv-y="1433" d="M1204 1073v-1073h-205v162h-4q-140 -199 -424 -199q-169 0 -282 65q-164 95 -164 314v731h205v-690q0 -248 309 -248q163 0 261.5 87t98.5 233v618h205zM291 1288v160h748v-160h-748z"/>
    <glyph glyph-name="Ubreve" unicode="Ŭ" horiz-adv-x="1630" vert-adv-y="1433" d="M1477 1462v-909q0 -590 -662 -590q-661 0 -661 590v909h217v-936q0 -375 445 -375q444 0 444 375v936h217zM459 1854h135q28 -146 221 -146t222 146h135q-8 -80 -30 -126.5t-69 -86.5q-96 -80 -258 -80q-181 0 -278 99q-37 39 -54 80.5t-24 113.5z"/>
    <glyph glyph-name="ubreve" unicode="ŭ" horiz-adv-x="1329" vert-adv-y="1433" d="M1204 1073v-1073h-205v162h-4q-140 -199 -424 -199q-169 0 -282 65q-164 95 -164 314v731h205v-690q0 -248 309 -248q163 0 261.5 87t98.5 233v618h205zM308 1516h135q28 -145 221 -145t222 145h135q-8 -80 -30 -126t-69 -86q-96 -80 -258 -80q-181 0 -278 99 q-37 38 -54 79.5t-24 113.5z"/>
    <glyph glyph-name="Uring" unicode="Ů" horiz-adv-x="1630" vert-adv-y="1433" d="M1477 1462v-909q0 -590 -662 -590q-661 0 -661 590v909h217v-936q0 -375 445 -375q444 0 444 375v936h217zM818 1972q98 0 167.5 -70.5t69.5 -169.5q0 -100 -70 -169.5t-170 -69.5q-99 0 -169 69.5t-70 169.5q0 101 70 170.5t172 69.5zM814 1861q-49 0 -88 -39t-39 -90 q0 -50 39 -89t89 -39q51 0 90 39t39 89q0 51 -39 90t-91 39z"/>
    <glyph glyph-name="uring" unicode="ů" horiz-adv-x="1329" vert-adv-y="1433" d="M1204 1073v-1073h-205v162h-4q-140 -199 -424 -199q-169 0 -282 65q-164 95 -164 314v731h205v-690q0 -248 309 -248q163 0 261.5 87t98.5 233v618h205zM667 1645q98 0 167.5 -70.5t69.5 -169.5q0 -100 -70 -170t-170 -70q-99 0 -169 70t-70 170q0 101 70 170.5t172 69.5 zM663 1534q-49 0 -88 -39.5t-39 -89.5q0 -51 39 -90t89 -39q51 0 90 39t39 90t-39 90t-91 39z"/>
    <glyph glyph-name="Uhungarumlaut" unicode="Ű" horiz-adv-x="1630" vert-adv-y="1433" d="M1477 1462v-909q0 -590 -662 -590q-661 0 -661 590v909h217v-936q0 -375 445 -375q444 0 444 375v936h217zM903 1581l176 287h256l-268 -287h-164zM487 1581l176 287h256l-268 -287h-164z"/>
    <glyph glyph-name="uhungarumlaut" unicode="ű" horiz-adv-x="1329" vert-adv-y="1433" d="M1204 1073v-1073h-205v162h-4q-140 -199 -424 -199q-169 0 -282 65q-164 95 -164 314v731h205v-690q0 -248 309 -248q163 0 261.5 87t98.5 233v618h205zM751 1231l176 287h256l-268 -287h-164zM338 1231l176 287h256l-268 -287h-164z"/>
    <glyph glyph-name="Uogonek" unicode="Ų" horiz-adv-x="1630" vert-adv-y="1433" d="M869 -36q-34 -1 -62 -1q-653 0 -653 590v909h217v-936q0 -180 109 -276q113 -99 336 -99q246 0 358 122q86 93 86 253v936h217v-909q1 -496 -461 -573q-73 -44 -114.5 -99.5t-41.5 -109.5q0 -86 104 -86q62 0 162 20l25 -72q-110 -34 -212 -34q-214 0 -214 156 q0 119 144 209z"/>
    <glyph glyph-name="uogonek" unicode="ų" horiz-adv-x="1329" vert-adv-y="1433" d="M1071 0h-72v162h-4q-66 -93 -153 -139q-114 -60 -271 -60q-169 0 -282 65q-164 95 -164 314v731h205v-690q0 -248 309 -248q154 0 252 79q108 88 108 241v618h205v-1073h-22q-94 -49 -143.5 -108t-49.5 -121q0 -86 104 -86q63 0 163 20l24 -72q-109 -34 -212 -34 q-214 0 -214 156q0 75 57 139t160 106z"/>
    <glyph glyph-name="Wcircumflex" unicode="Ŵ" horiz-adv-x="2238" vert-adv-y="1433" d="M1520 0l-406 1212h-4l-403 -1212h-240l-481 1462h236l374 -1188h4l392 1188h258l401 -1188h4l373 1188h225l-495 -1462h-238zM1296 1559l-176 180l-176 -180h-199l266 286h217l267 -286h-199z"/>
    <glyph glyph-name="wcircumflex" unicode="ŵ" horiz-adv-x="1858" vert-adv-y="1433" d="M1314 254l308 819h217l-424 -1073h-223l-269 819h-4l-268 -819h-217l-416 1073h227l297 -819h4l267 819h225l272 -819h4zM1099 1231l-176 180l-176 -180h-199l266 287h217l267 -287h-199z"/>
    <glyph glyph-name="Ycircumflex" unicode="Ŷ" horiz-adv-x="1479" vert-adv-y="1433" d="M742 797l485 665h264l-645 -850v-612h-217v602l-641 860h276zM916 1559l-176 180l-176 -180h-199l266 286h217l267 -286h-199z"/>
    <glyph glyph-name="ycircumflex" unicode="ŷ" horiz-adv-x="1176" vert-adv-y="1433" d="M594 225l362 848h229l-561 -1257q-70 -159 -145 -213t-224 -54q-37 0 -159 8v173q17 -1 40 -4q45 -5 82 -5q90 0 130 30t90 134l47 98l-495 1090h235zM764 1231l-176 180l-176 -180h-199l266 287h217l267 -287h-199z"/>
    <glyph glyph-name="Zacute" unicode="Ź" horiz-adv-x="1403" vert-adv-y="1433" d="M29 0v194l1044 1080h-970v188h1255v-188l-1048 -1086h1065v-188h-1346zM603 1558l176 287h256l-268 -287h-164z"/>
    <glyph glyph-name="zacute" unicode="ź" horiz-adv-x="1214" vert-adv-y="1433" d="M55 0v168l790 733h-751v172h1034v-160l-801 -741h832v-172h-1104zM475 1231l176 287h256l-268 -287h-164z"/>
    <glyph glyph-name="Zdotaccent" unicode="Ż" horiz-adv-x="1403" vert-adv-y="1433" d="M29 0v194l1044 1080h-970v188h1255v-188l-1048 -1086h1065v-188h-1346zM602 1577v213h205v-213h-205z"/>
    <glyph glyph-name="zdotaccent" unicode="ż" horiz-adv-x="1214" vert-adv-y="1433" d="M55 0v168l790 733h-751v172h1034v-160l-801 -741h832v-172h-1104zM505 1249v213h205v-213h-205z"/>
    <glyph glyph-name="uni018F" unicode="Ə" horiz-adv-x="1908" vert-adv-y="1433" d="M1602 828q-26 172 -128 287q-89 101 -239 153q-132 45 -282 45q-205 0 -355.5 -75.5t-232.5 -219.5l-230 36q88 174 223 272q238 173 596 173q343 0 571 -155q159 -108 242 -277q75 -152 75 -334q0 -263 -155 -459q-241 -307 -733 -307q-344 0 -571 155 q-159 108 -241 277q-76 155 -76 341q0 38 4 88h1532zM1602 638h-1296q25 -170 128 -287q90 -101 239 -153q130 -45 281 -45q271 0 443 128.5t205 356.5z"/>
    <glyph glyph-name="uni01CD" unicode="Ǎ" horiz-adv-x="1554" vert-adv-y="1433" d="M1315 0l-186 426h-717l-187 -426h-233l662 1462h247l662 -1462h-248zM1049 614l-281 647l-274 -647h555zM778 1665l176 180h199l-267 -286h-217l-266 286h199z"/>
    <glyph glyph-name="uni01CE" unicode="ǎ" horiz-adv-x="1327" vert-adv-y="1433" d="M315 737h-192q25 184 131 269q129 104 397 104q498 0 498 -305v-578q0 -92 94 -92q31 0 70 8v-143q-78 -12 -158 -12q-92 0 -133 33t-54 116q-147 -174 -465 -174q-203 0 -315.5 85.5t-112.5 239.5q0 152 107 229t354 103l234 25q105 11 145.5 39t40.5 91q0 175 -307 175 q-165 0 -244 -50.5t-90 -162.5zM956 561q-43 -44 -201 -63l-231 -29q-244 -30 -244 -171q0 -81 68.5 -128t186.5 -47q178 0 299.5 87t121.5 214v137zM658 1338l176 180h199l-267 -287h-217l-266 287h199z"/>
    <glyph glyph-name="uni01D3" unicode="Ǔ" horiz-adv-x="1630" vert-adv-y="1433" d="M1477 1462v-909q0 -590 -662 -590q-661 0 -661 590v909h217v-936q0 -375 445 -375q444 0 444 375v936h217zM816 1665l176 180h199l-267 -286h-217l-266 286h199z"/>
    <glyph glyph-name="uni01D4" unicode="ǔ" horiz-adv-x="1329" vert-adv-y="1433" d="M1204 1073v-1073h-205v162h-4q-140 -199 -424 -199q-169 0 -282 65q-164 95 -164 314v731h205v-690q0 -248 309 -248q163 0 261.5 87t98.5 233v618h205zM665 1338l176 180h199l-267 -287h-217l-266 287h199z"/>
    <glyph glyph-name="uni01E6" unicode="Ǧ" horiz-adv-x="1782" vert-adv-y="1433" d="M958 600v188h672v-788h-156l-37 209q-116 -131 -247.5 -188.5t-316.5 -57.5q-379 0 -586 233q-183 205 -183 522q0 378 237 592q210 189 543 189q334 0 529 -165q74 -63 115 -134t77 -199h-229q-61 163 -176.5 236t-311.5 73q-276 0 -426 -170q-141 -159 -141 -420 q0 -283 167 -434q150 -135 400 -135q234 0 377 117t172 332h-479zM879 1665l176 180h199l-267 -286h-217l-266 286h199z"/>
    <glyph glyph-name="uni01E7" unicode="ǧ" horiz-adv-x="1403" vert-adv-y="1433" d="M1085 915v158h205v-983q0 -283 -143 -411q-145 -130 -483 -130q-259 0 -381 75.5t-158 258.5h204q30 -95 108 -134.5t235 -39.5q413 0 413 324v155h-4q-149 -198 -414 -198q-193 0 -338 83q-252 144 -252 470q0 327 252 472q144 83 334 83q285 0 418 -183h4zM685 926 q-176 0 -283.5 -106t-107.5 -279t107.5 -276t287.5 -103t288 103.5t108 275.5q0 175 -109 280t-291 105zM691 1338l176 180h199l-267 -287h-217l-266 287h199z"/>
    <glyph glyph-name="uni01F4" unicode="Ǵ" horiz-adv-x="1782" vert-adv-y="1433" d="M958 600v188h672v-788h-156l-37 209q-116 -131 -247.5 -188.5t-316.5 -57.5q-379 0 -586 233q-183 205 -183 522q0 378 237 592q210 189 543 189q334 0 529 -165q74 -63 115 -134t77 -199h-229q-61 163 -176.5 236t-311.5 73q-276 0 -426 -170q-141 -159 -141 -420 q0 -283 167 -434q150 -135 400 -135q234 0 377 117t172 332h-479zM723 1558l176 287h256l-268 -287h-164z"/>
    <glyph glyph-name="uni01F5" unicode="ǵ" horiz-adv-x="1403" vert-adv-y="1433" d="M1085 915v158h205v-983q0 -283 -143 -411q-145 -130 -483 -130q-259 0 -381 75.5t-158 258.5h204q30 -95 108 -134.5t235 -39.5q413 0 413 324v155h-4q-149 -198 -414 -198q-193 0 -338 83q-252 144 -252 470q0 327 252 472q144 83 334 83q285 0 418 -183h4zM685 926 q-176 0 -283.5 -106t-107.5 -279t107.5 -276t287.5 -103t288 103.5t108 275.5q0 175 -109 280t-291 105zM540 1231l176 287h256l-268 -287h-164z"/>
    <glyph glyph-name="Scommaaccent" unicode="Ș" horiz-adv-x="1366" vert-adv-y="1433" d="M33 481h217q11 -149 100 -226q121 -104 367 -104q187 0 293.5 66.5t106.5 183.5q0 170 -273 215l-332 55q-434 73 -434 385q0 206 157 324.5t430 118.5q334 0 499 -166q58 -58 84 -120.5t38 -172.5h-217q-51 271 -419 271q-163 0 -259 -64.5t-96 -173.5q0 -154 240 -195 l358 -61q441 -76 441 -385q0 -254 -215 -376q-164 -93 -419 -93q-378 0 -549 186q-61 66 -86 136.5t-32 195.5zM582 -266v166h203v-146q0 -200 -203 -239v70q53 16 73.5 47t24.5 102h-98z"/>
    <glyph glyph-name="scommaaccent" unicode="ș" horiz-adv-x="1214" vert-adv-y="1433" d="M63 338h205q12 -215 344 -215q321 0 321 172q0 112 -202 139l-338 45q-133 18 -212 96.5t-79 192.5q0 159 132 250.5t361 91.5q471 0 521 -360h-205q-24 200 -320 200q-284 0 -284 -167q0 -105 178 -129l291 -39q374 -51 374 -291q0 -173 -140.5 -267t-399.5 -94 q-261 0 -391.5 89.5t-155.5 285.5zM514 -253v166h203v-146q0 -200 -203 -240v70q53 16 73.5 47.5t24.5 102.5h-98z"/>
    <glyph glyph-name="uni021A" unicode="Ț" horiz-adv-x="1327" vert-adv-y="1433" d="M555 0v1274h-553v188h1323v-188h-553v-1274h-217zM562 -235v166h203v-146q0 -200 -203 -239v70q53 16 73.5 47t24.5 102h-98z"/>
    <glyph glyph-name="uni021B" unicode="ț" horiz-adv-x="758" vert-adv-y="1433" d="M215 1073v330h205v-330h307v-160h-307v-661q0 -117 165 -117q61 0 142 15v-173q-89 -14 -216 -14q-296 0 -296 254v696h-221v160h221zM217 -234v166h203v-146q0 -200 -203 -240v70q53 16 73.5 47.5t24.5 102.5h-98z"/>
    <glyph glyph-name="uni0259" unicode="ə" horiz-adv-x="1345" vert-adv-y="1433" d="M76 601h974q-3 135 -73 213q-113 127 -321 127q-264 0 -354 -203h-199q30 129 126 219q156 146 440 146q279 0 443 -153q157 -146 157 -403q0 -272 -173 -424q-168 -147 -432 -147q-215 0 -371 98q-132 83 -181 219q-36 101 -36 308zM302 438q0 -73 31 -129 q95 -171 333 -171q207 0 312 132q57 71 66 168h-742z"/>
    <glyph glyph-name="uni02C9" unicode="ˉ" horiz-adv-x="1024" vert-adv-y="1433" d="M138 1288v160h748v-160h-748z"/>
    <glyph glyph-name="tonos" unicode="΄" horiz-adv-x="1207" vert-adv-y="1433" d="M500 1575h207v-182l-65 -209h-77l-65 209v182z"/>
    <glyph glyph-name="dieresistonos" unicode="΅" horiz-adv-x="1207" vert-adv-y="1433" d="M500 1723h207v-182l-65 -209h-77l-65 209v182zM939 1420v-207h-232v207h232zM500 1420v-207h-232v207h232z"/>
    <glyph glyph-name="Alphatonos" unicode="Ά" horiz-adv-x="1593" vert-adv-y="1433" d="M1310 0l-186 426h-717l-187 -426h-233l662 1462h247l662 -1462h-248zM1044 614l-281 647l-274 -647h555zM128 1462h207v-182l-65 -209h-77l-65 209v182z"/>
    <glyph glyph-name="anoteleia" unicode="·" vert-adv-y="1433" d="M343 782q62 0 106 -44.5t44 -107.5t-44.5 -107t-106.5 -44q-64 0 -108 44t-44 107q0 64 44.5 108t108.5 44z"/>
    <glyph glyph-name="Epsilontonos" unicode="Έ" horiz-adv-x="1607" vert-adv-y="1433" d="M306 0v1462h1175v-188h-958v-424h930v-188h-930v-474h979v-188h-1196zM15 1462h207v-182l-65 -209h-77l-65 209v182z"/>
    <glyph glyph-name="Etatonos" unicode="Ή" horiz-adv-x="1803" vert-adv-y="1433" d="M1651 0h-227v689h-893v-689h-227v1462h227v-583h893v583h227v-1462zM4 1462h207v-182l-65 -209h-77l-65 209v182z"/>
    <glyph glyph-name="Iotatonos" unicode="Ί" horiz-adv-x="671" vert-adv-y="1433" d="M291 0v1462h217v-1462h-217zM18 1462h207v-182l-65 -209h-77l-65 209v182z"/>
    <glyph glyph-name="Omicrontonos" unicode="Ό" horiz-adv-x="1872" vert-adv-y="1433" d="M953 1499q398 0 616 -243q188 -208 188 -525q0 -361 -237 -575q-214 -193 -576 -193q-407 0 -626 243q-187 208 -187 525q0 362 237 575q213 193 585 193zM938 1311q-270 0 -430 -157t-160 -423q0 -282 177 -438q160 -142 419 -142q275 0 435.5 156.5t160.5 423.5 q0 282 -176 438q-160 142 -426 142zM6 1462h207v-182l-65 -209h-77l-65 209v182z"/>
    <glyph glyph-name="Upsilontonos" unicode="Ύ" horiz-adv-x="1743" vert-adv-y="1433" d="M1007 797l485 665h264l-645 -850v-612h-217v602l-641 860h276zM9 1462h207v-182l-65 -209h-77l-65 209v182z"/>
    <glyph glyph-name="Omegatonos" unicode="Ώ" horiz-adv-x="1912" vert-adv-y="1433" d="M123 0v165h486q-197 93 -292 196q-157 170 -157 432q0 324 229 509q240 195 608 195q257 0 478 -111q358 -180 358 -593q0 -223 -104 -369t-344 -259h485v-165h-726v165q201 96 298 198q156 167 156 424q0 238 -151 377q-161 148 -450 148q-155 0 -284.5 -50t-204.5 -138 q-113 -134 -113 -336q0 -217 106.5 -362.5t348.5 -260.5v-165h-727zM10 1462h207v-182l-65 -209h-77l-65 209v182z"/>
    <glyph glyph-name="iotadieresistonos" unicode="ΐ" horiz-adv-x="482" vert-adv-y="1433" d="M136 0v1073h212v-1073h-212zM138 1723h207v-182l-65 -209h-77l-65 209v182zM577 1420v-207h-232v207h232zM138 1420v-207h-232v207h232z"/>
    <glyph glyph-name="Alpha" unicode="Α" horiz-adv-x="1554" vert-adv-y="1433" d="M1315 0l-186 426h-717l-187 -426h-233l662 1462h247l662 -1462h-248zM1049 614l-281 647l-274 -647h555z"/>
    <glyph glyph-name="Beta" unicode="Β" horiz-adv-x="1593" vert-adv-y="1433" d="M158 0v1462h813q451 0 451 -365q0 -226 -214 -311v-4q277 -73 277 -355q0 -192 -127.5 -309.5t-335.5 -117.5h-864zM375 858h592q112 0 175 55t63 153q0 208 -250 208h-580v-416zM375 188h588q305 0 305 246q0 236 -287 236h-606v-482z"/>
    <glyph glyph-name="Gamma" unicode="Γ" horiz-adv-x="1290" vert-adv-y="1433" d="M166 1462h1106v-188h-889v-1274h-217v1462z"/>
    <glyph glyph-name="Epsilon" unicode="Ε" horiz-adv-x="1442" vert-adv-y="1433" d="M158 0v1462h1175v-188h-958v-424h930v-188h-930v-474h979v-188h-1196z"/>
    <glyph glyph-name="Zeta" unicode="Ζ" horiz-adv-x="1403" vert-adv-y="1433" d="M29 0v194l1044 1080h-970v188h1255v-188l-1048 -1086h1065v-188h-1346z"/>
    <glyph glyph-name="Eta" unicode="Η" horiz-adv-x="1745" vert-adv-y="1433" d="M1371 0v689h-996v-689h-217v1462h217v-585h996v585h217v-1462h-217z"/>
    <glyph glyph-name="Theta" unicode="Θ" horiz-adv-x="1782" vert-adv-y="1433" d="M1258 815v-176h-754v176h754zM900 1499q398 0 616 -243q188 -208 188 -525q0 -361 -237 -575q-214 -193 -576 -193q-407 0 -626 243q-187 208 -187 525q0 362 237 575q213 193 585 193zM885 1311q-270 0 -430 -157t-160 -423q0 -282 177 -438q160 -142 419 -142 q275 0 435.5 156.5t160.5 423.5q0 282 -176 438q-160 142 -426 142z"/>
    <glyph glyph-name="Iota" unicode="Ι" horiz-adv-x="569" vert-adv-y="1433" d="M176 0v1462h217v-1462h-217z"/>
    <glyph glyph-name="Kappa" unicode="Κ" horiz-adv-x="1554" vert-adv-y="1433" d="M1247 0l-598 713l-266 -236v-477h-217v1462h217v-735l817 735h307l-694 -606l733 -856h-299z"/>
    <glyph glyph-name="Lambda" unicode="Λ" horiz-adv-x="1554" vert-adv-y="1433" d="M1315 0l-547 1261l-543 -1261h-233l662 1462h247l662 -1462h-248z"/>
    <glyph glyph-name="Mu" unicode="Μ" horiz-adv-x="2087" vert-adv-y="1433" d="M1043 250l586 1212h301v-1462h-217v1212h-4l-570 -1212h-192l-568 1188h-4v-1188h-217v1462h305z"/>
    <glyph glyph-name="Nu" unicode="Ν" horiz-adv-x="1745" vert-adv-y="1433" d="M1327 0l-940 1163h-4v-1163h-217v1462h252l940 -1163h4v1163h217v-1462h-252z"/>
    <glyph glyph-name="Xi" unicode="Ξ" horiz-adv-x="1624" vert-adv-y="1433" d="M153 0v190h1319v-190h-1319zM231 653v190h1158v-190h-1158zM157 1272v190h1311v-190h-1311z"/>
    <glyph glyph-name="Omicron" unicode="Ο" horiz-adv-x="1782" vert-adv-y="1433" d="M900 1499q398 0 616 -243q188 -208 188 -525q0 -361 -237 -575q-214 -193 -576 -193q-407 0 -626 243q-187 208 -187 525q0 362 237 575q213 193 585 193zM885 1311q-270 0 -430 -157t-160 -423q0 -282 177 -438q160 -142 419 -142q275 0 435.5 156.5t160.5 423.5 q0 282 -176 438q-160 142 -426 142z"/>
    <glyph glyph-name="Pi" unicode="Π" horiz-adv-x="1720" vert-adv-y="1433" d="M380 1272v-1272h-227v1462h1415v-1462h-227v1272h-961z"/>
    <glyph glyph-name="Rho" unicode="Ρ" horiz-adv-x="1479" vert-adv-y="1433" d="M166 0v1462h754q489 0 489 -420q0 -213 -126.5 -334.5t-348.5 -121.5h-551v-586h-217zM383 774h522q287 0 287 262q0 113 -65 175.5t-183 62.5h-561v-500z"/>
    <glyph glyph-name="Sigma" unicode="Σ" horiz-adv-x="1493" vert-adv-y="1433" d="M79 0v187l707 554l-705 532v189h1296v-190h-985l692 -531l-707 -551h1044v-190h-1342z"/>
    <glyph glyph-name="Tau" unicode="Τ" horiz-adv-x="1327" vert-adv-y="1433" d="M555 0v1274h-553v188h1323v-188h-553v-1274h-217z"/>
    <glyph glyph-name="Upsilon" unicode="Υ" horiz-adv-x="1479" vert-adv-y="1433" d="M742 797l485 665h264l-645 -850v-612h-217v602l-641 860h276z"/>
    <glyph glyph-name="Phi" unicode="Φ" horiz-adv-x="1772" vert-adv-y="1433" d="M774 -20v183q-199 10 -347 74q-176 76 -272 225q-76 120 -76 269q0 244 189 399t506 170v182h227v-182q220 -11 378 -83q316 -144 316 -486q0 -254 -182.5 -403.5t-511.5 -164.5v-183h-227zM774 1138q-221 -15 -340.5 -121t-119.5 -286q0 -234 221 -346q100 -51 239 -60 v813zM1001 1138v-813q217 14 338.5 121.5t121.5 284.5q0 180 -119.5 286t-340.5 121z"/>
    <glyph glyph-name="Chi" unicode="Χ" horiz-adv-x="1442" vert-adv-y="1433" d="M725 899l430 563h268l-563 -713l580 -749h-285l-442 592l-441 -592h-270l578 749l-549 713h276z"/>
    <glyph glyph-name="Psi" unicode="Ψ" horiz-adv-x="2004" vert-adv-y="1433" d="M1116 1462v-1021q271 11 417 115q79 56 104.5 148t25.5 322v436h227v-436q0 -265 -46 -391q-91 -252 -477 -332q-106 -22 -251 -26v-277h-227v277q-366 11 -572 155q-149 105 -186 314q-17 95 -17 280v436h227v-436q0 -238 27 -326q75 -241 521 -259v1021h227z"/>
    <glyph glyph-name="uni03A9" unicode="Ω" horiz-adv-x="1831" vert-adv-y="1433" d="M42 0v165h486q-197 93 -292 196q-157 170 -157 432q0 324 229 509q240 195 608 195q257 0 478 -111q358 -180 358 -593q0 -223 -104 -369t-344 -259h485v-165h-726v165q201 96 298 198q156 167 156 424q0 238 -151 377q-161 148 -450 148q-155 0 -284.5 -50t-204.5 -138 q-113 -134 -113 -336q0 -217 106.5 -362.5t348.5 -260.5v-165h-727z"/>
    <glyph glyph-name="Iotadieresis" unicode="Ϊ" horiz-adv-x="532" vert-adv-y="1433" d="M379 0h-227v1462h227v-1462zM162 1634h-204v223h204v-223zM580 1634h-204v223h204v-223z"/>
    <glyph glyph-name="Upsilondieresis" unicode="Ϋ" horiz-adv-x="1462" vert-adv-y="1433" d="M845 0h-227v608l-645 854h292l471 -662l478 662h276l-645 -854v-608zM548 1634h-227v223h227v-223zM1142 1634h-227v223h227v-223z"/>
    <glyph glyph-name="alphatonos" unicode="ά" horiz-adv-x="1594" vert-adv-y="1433" d="M1545 1075l-244 -519l262 -556h-232l-142 341q-67 -133 -136 -213q-150 -173 -401 -173q-256 0 -418 171q-153 163 -153 404q0 276 199 442q165 138 384 138q176 0 298.5 -82t223.5 -267l131 314h228zM1090 556q-105 229 -194 314t-225 85q-171 0 -281 -138 q-89 -112 -89 -282q0 -215 130 -331q104 -93 232 -93q139 0 232 97t195 348zM661 1575h207v-182l-65 -209h-77l-65 209v182z"/>
    <glyph glyph-name="epsilontonos" unicode="έ" horiz-adv-x="1204" vert-adv-y="1433" d="M752 628v-143q-42 1 -63 1q-389 0 -389 -176q0 -89 84 -144.5t220 -55.5q271 0 353 239h208q-53 -191 -201 -291.5t-377 -100.5q-295 0 -442 169q-64 74 -64 170q0 97 63 167t177 101q-205 92 -205 255q0 95 73 163q142 130 408 130q220 0 355 -90t167 -258h-206 q-29 94 -83 133q-85 62 -225 62q-115 0 -192.5 -46.5t-77.5 -115.5q0 -79 96.5 -124.5t263.5 -45.5q22 0 57 1zM501 1575h207v-182l-65 -209h-77l-65 209v182z"/>
    <glyph glyph-name="etatonos" unicode="ή" horiz-adv-x="1329" vert-adv-y="1433" d="M125 0v1073h205v-162h4q140 199 424 199q169 0 282 -65q164 -96 164 -314v-1178h-205v1137q0 248 -308 248q-165 0 -263 -87t-98 -233v-618h-205zM579 1575h207v-182l-65 -209h-77l-65 209v182z"/>
    <glyph glyph-name="iotatonos" unicode="ί" horiz-adv-x="482" vert-adv-y="1433" d="M135 0v1073h212v-1073h-212zM144 1575h207v-182l-65 -209h-77l-65 209v182z"/>
    <glyph glyph-name="upsilondieresistonos" unicode="ΰ" horiz-adv-x="1322" vert-adv-y="1433" d="M135 1073h212v-702q0 -89 19.5 -134.5t68.5 -74.5q93 -53 227 -53t225 54q50 30 69 75t19 133v702h212v-702q0 -122 -22 -186.5t-80 -111.5q-143 -119 -422 -119q-275 0 -419 113q-61 48 -85 114.5t-24 189.5v702zM557 1723h207v-182l-65 -209h-77l-65 209v182zM996 1420 v-207h-232v207h232zM557 1420v-207h-232v207h232z"/>
    <glyph glyph-name="alpha" unicode="α" horiz-adv-x="1594" vert-adv-y="1433" d="M1545 1075l-244 -519l262 -556h-232l-142 341q-67 -133 -136 -213q-150 -173 -401 -173q-256 0 -418 171q-153 163 -153 404q0 276 199 442q165 138 384 138q176 0 298.5 -82t223.5 -267l131 314h228zM1090 556q-105 229 -194 314t-225 85q-171 0 -281 -138 q-89 -112 -89 -282q0 -215 130 -331q104 -93 232 -93q139 0 232 97t195 348z"/>
    <glyph glyph-name="beta" unicode="β" horiz-adv-x="1338" vert-adv-y="1433" d="M135 -437v1439q0 145 21 220t77 128q142 136 421 136q235 0 375 -115q125 -103 125 -256q0 -195 -214 -289q317 -100 317 -395q0 -227 -168 -360q-149 -117 -390 -117q-213 0 -352 92v-483h-212zM347 221q120 -112 315 -112q183 0 284 93q92 86 92 228q0 153 -109 238 q-99 77 -245 77q-45 0 -105 -4v138q149 6 214 29q62 22 101.5 80t39.5 128q0 102 -81 163t-215 61q-157 0 -231 -75q-60 -61 -60 -255v-789z"/>
    <glyph glyph-name="gamma" unicode="γ" horiz-adv-x="1215" vert-adv-y="1433" d="M510 -448v483l-503 1038h237l374 -798l353 798h237l-486 -1038v-483h-212z"/>
    <glyph glyph-name="delta" unicode="δ" horiz-adv-x="1358" vert-adv-y="1433" d="M626 1041l-405 253v168h932v-175h-633l374 -230q185 -114 233 -161q150 -144 150 -405q0 -260 -150 -406q-162 -158 -448 -158q-281 0 -439.5 149t-158.5 414q0 253 143.5 398t401.5 153zM673 900q-172 0 -272 -110t-100 -299q0 -170 78 -274q102 -135 300 -135 q176 0 277 109t101 299q0 173 -78 275q-103 135 -306 135z"/>
    <glyph glyph-name="epsilon" unicode="ε" horiz-adv-x="1204" vert-adv-y="1433" d="M752 628v-143q-42 1 -63 1q-389 0 -389 -176q0 -89 84 -144.5t220 -55.5q271 0 353 239h208q-53 -191 -201 -291.5t-377 -100.5q-295 0 -442 169q-64 74 -64 170q0 97 63 167t177 101q-205 92 -205 255q0 95 73 163q142 130 408 130q220 0 355 -90t167 -258h-206 q-29 94 -83 133q-85 62 -225 62q-115 0 -192.5 -46.5t-77.5 -115.5q0 -79 96.5 -124.5t263.5 -45.5q22 0 57 1z"/>
    <glyph glyph-name="zeta" unicode="ζ" horiz-adv-x="1143" vert-adv-y="1433" d="M193 1287v175h868v-175q-279 -124 -454 -288q-307 -288 -307 -565q0 -192 126 -247q59 -26 254 -42l116 -9q138 -11 210 -39q116 -45 116 -168q0 -72 -20 -131t-103 -235h-217q90 183 107.5 229t17.5 99t-38.5 72.5t-156.5 27.5l-110 8q-174 12 -282 50q-239 84 -239 369 q0 350 365 663q147 126 311 206h-564z"/>
    <glyph glyph-name="eta" unicode="η" horiz-adv-x="1329" vert-adv-y="1433" d="M125 0v1073h205v-162h4q140 199 424 199q169 0 282 -65q164 -96 164 -314v-1178h-205v1137q0 248 -308 248q-165 0 -263 -87t-98 -233v-618h-205z"/>
    <glyph glyph-name="theta" unicode="θ" horiz-adv-x="1369" vert-adv-y="1433" d="M693 1493q277 0 424 -173q81 -96 114 -229t33 -366q0 -218 -29 -348.5t-99 -225.5q-144 -197 -452 -197t-452 197q-70 95 -99 224.5t-29 344.5q0 238 33 371.5t114 228.5q149 173 442 173zM318 840h736q-7 150 -24 226t-59 142q-83 131 -285 131q-190 0 -272.5 -112 t-95.5 -387zM316 690q4 -281 46 -384q81 -199 322 -199q260 0 333 230q31 98 35 353h-736z"/>
    <glyph glyph-name="iota" unicode="ι" horiz-adv-x="482" vert-adv-y="1433" d="M135 0v1073h212v-1073h-212z"/>
    <glyph glyph-name="kappa" unicode="κ" horiz-adv-x="1250" vert-adv-y="1433" d="M347 615l557 458h276l-464 -378l539 -695h-259l-440 570l-209 -163v-407h-212v1073h212v-458z"/>
    <glyph glyph-name="lambda" unicode="λ" horiz-adv-x="1166" vert-adv-y="1433" d="M7 0l455 1022l-206 440h230l676 -1462h-232l-356 785l-340 -785h-227z"/>
    <glyph glyph-name="uni03BC" unicode="μ" horiz-adv-x="1322" vert-adv-y="1433" d="M953 1073h234v-1073h-212v154q-165 -199 -412 -199q-124 0 -216 40v-443h-212v1521h212v-761q0 -97 70.5 -154t190.5 -57q149 0 250 97q95 93 95 293v582z"/>
    <glyph glyph-name="nu" unicode="ν" horiz-adv-x="1176" vert-adv-y="1433" d="M594 225l363 848h229l-483 -1073h-226l-487 1073h236z"/>
    <glyph glyph-name="xi" unicode="ξ" horiz-adv-x="1190" vert-adv-y="1433" d="M123 1287v175h937v-175h-225q-182 0 -281 -39q-64 -25 -104 -77t-40 -109q0 -99 121 -153.5t343 -54.5h120v-176h-128q-564 0 -564 -285q0 -60 33.5 -115t85.5 -80q71 -34 270 -48l145 -10q182 -14 257.5 -60.5t75.5 -145.5q0 -123 -122 -371h-217q124 243 124 329 q0 55 -44 74.5t-182 26.5l-145 8q-204 10 -319 75q-183 102 -183 320q0 282 391 375q-109 24 -169 66q-116 82 -116 204q0 158 200 246h-264z"/>
    <glyph glyph-name="omicron" unicode="ο" horiz-adv-x="1420" vert-adv-y="1433" d="M721 1111q266 0 441 -158q178 -160 178 -412q0 -290 -228 -453q-164 -117 -401 -117q-279 0 -453 158q-177 161 -177 418q0 283 228 447q163 117 412 117zM702 943q-178 0 -290 -112t-112 -290q0 -186 118 -296q112 -106 293 -106q210 0 323 139q87 105 87 264 q0 184 -117 295q-112 106 -302 106z"/>
    <glyph glyph-name="rho" unicode="ρ" horiz-adv-x="1392" vert-adv-y="1433" d="M128 -444v950q0 168 30 262t109 173q171 172 463 172q282 0 439 -172q143 -156 143 -403q0 -307 -197 -460q-153 -119 -373 -119q-243 0 -402 157v-560h-212zM710 958q-167 0 -268.5 -116t-101.5 -307q0 -194 100.5 -306.5t273.5 -112.5q190 0 292 132q86 111 86 293 q0 194 -108 309q-101 108 -274 108z"/>
    <glyph glyph-name="sigma1" unicode="ς" horiz-adv-x="1255" vert-adv-y="1433" d="M857 -444q119 262 119 320q0 64 -123 97l-286 78q-214 57 -318 151q-77 68 -122.5 171t-45.5 206q0 109 50 215.5t135 177.5q166 140 429 140q233 0 379.5 -106.5t166.5 -292.5h-221q-14 84 -51 130q-91 114 -280 114q-183 0 -292 -121q-96 -106 -96 -248 q0 -188 140 -291q83 -61 290 -120l115 -32q221 -63 284 -109q65 -48 65 -122q0 -92 -123 -358h-215z"/>
    <glyph glyph-name="sigma" unicode="σ" horiz-adv-x="1412" vert-adv-y="1433" d="M1397 1071v-150h-291q170 -148 170 -400t-150 -403q-159 -160 -448 -160q-281 0 -439.5 153t-158.5 424q0 269 153 417q166 161 438 161q113 0 268 -42h458zM674 959q-174 0 -274 -113.5t-100 -309.5q0 -176 78 -284q102 -139 300 -139q176 0 277 112.5t101 309.5 q0 177 -78 286q-100 138 -304 138z"/>
    <glyph glyph-name="tau" unicode="τ" horiz-adv-x="1118" vert-adv-y="1433" d="M452 0v898h-437v175h1088v-175h-439v-898h-212z"/>
    <glyph glyph-name="upsilon" unicode="υ" horiz-adv-x="1322" vert-adv-y="1433" d="M135 1073h212v-702q0 -89 19.5 -134.5t68.5 -74.5q93 -53 227 -53t225 54q50 30 69 75t19 133v702h212v-702q0 -122 -22 -186.5t-80 -111.5q-143 -119 -422 -119q-275 0 -419 113q-61 48 -85 114.5t-24 189.5v702z"/>
    <glyph glyph-name="phi" unicode="φ" horiz-adv-x="1620" vert-adv-y="1433" d="M707 -444v405q-236 19 -377 105q-118 72 -183 200q-66 132 -66 286q0 385 447 536v-166q-212 -98 -212 -380q0 -201 96 -307t295 -124v1000l88 1q202 0 365 -56q189 -66 294 -229q86 -132 86 -299q0 -302 -259 -463q-142 -88 -362 -104v-405h-212zM919 111q167 14 254 93 q132 121 132 348q0 185 -100.5 291.5t-285.5 116.5v-849z"/>
    <glyph glyph-name="chi" unicode="χ" horiz-adv-x="1158" vert-adv-y="1433" d="M575 524l317 549h232l-433 -730l476 -786h-239l-357 596l-354 -596h-227l466 776l-443 740h243z"/>
    <glyph glyph-name="psi" unicode="ψ" horiz-adv-x="1652" vert-adv-y="1433" d="M932 1073v-951q211 17 292 96.5t81 270.5v584h212v-588q0 -150 -25.5 -225t-99.5 -140q-141 -124 -460 -152v-411h-212v411q-344 30 -481 173q-62 64 -83 133t-21 211v588h212v-584q0 -112 16 -167.5t62 -99.5q86 -83 295 -100v951h212z"/>
    <glyph glyph-name="omega" unicode="ω" horiz-adv-x="1687" vert-adv-y="1433" d="M738 812h212v-416q0 -124 25 -183q44 -105 170 -105q114 0 177 98q65 101 65 261q0 348 -299 606h247q271 -239 271 -595q0 -235 -119.5 -378t-315.5 -143q-212 0 -327 185q-69 -102 -142.5 -143.5t-187.5 -41.5q-171 0 -283 109q-150 148 -150 412q0 357 272 595h246 q-298 -257 -298 -608q0 -164 64.5 -261t173.5 -97q105 0 152 68t47 221v416z"/>
    <glyph glyph-name="iotadieresis" unicode="ϊ" horiz-adv-x="482" vert-adv-y="1433" d="M135 0v1073h212v-1073h-212zM174 1433v-206h-262v206h262zM583 1433v-206h-262v206h262z"/>
    <glyph glyph-name="upsilondieresis" unicode="ϋ" horiz-adv-x="1322" vert-adv-y="1433" d="M135 1073h212v-702q0 -89 19.5 -134.5t68.5 -74.5q93 -53 227 -53t225 54q50 30 69 75t19 133v702h212v-702q0 -122 -22 -186.5t-80 -111.5q-143 -119 -422 -119q-275 0 -419 113q-61 48 -85 114.5t-24 189.5v702zM298 1462h223v-234h-223v234zM791 1462h223v-234h-223 v234z"/>
    <glyph glyph-name="omicrontonos" unicode="ό" horiz-adv-x="1420" vert-adv-y="1433" d="M721 1111q266 0 441 -158q178 -160 178 -412q0 -290 -228 -453q-164 -117 -401 -117q-279 0 -453 158q-177 161 -177 418q0 283 228 447q163 117 412 117zM702 943q-178 0 -290 -112t-112 -290q0 -186 118 -296q112 -106 293 -106q210 0 323 139q87 105 87 264 q0 184 -117 295q-112 106 -302 106zM607 1575h207v-182l-65 -209h-77l-65 209v182z"/>
    <glyph glyph-name="upsilontonos" unicode="ύ" horiz-adv-x="1322" vert-adv-y="1433" d="M135 1073h212v-702q0 -89 19.5 -134.5t68.5 -74.5q93 -53 227 -53t225 54q50 30 69 75t19 133v702h212v-702q0 -122 -22 -186.5t-80 -111.5q-143 -119 -422 -119q-275 0 -419 113q-61 48 -85 114.5t-24 189.5v702zM558 1575h207v-182l-65 -209h-77l-65 209v182z"/>
    <glyph glyph-name="omegatonos" unicode="ώ" horiz-adv-x="1687" vert-adv-y="1433" d="M738 812h212v-416q0 -124 25 -183q44 -105 170 -105q114 0 177 98q65 101 65 261q0 348 -299 606h247q271 -239 271 -595q0 -235 -119.5 -378t-315.5 -143q-212 0 -327 185q-69 -102 -142.5 -143.5t-187.5 -41.5q-171 0 -283 109q-150 148 -150 412q0 357 272 595h246 q-298 -257 -298 -608q0 -164 64.5 -261t173.5 -97q105 0 152 68t47 221v416zM740 1575h207v-182l-65 -209h-77l-65 209v182z"/>
    <glyph glyph-name="uni03D1" unicode="ϑ" horiz-adv-x="1356" vert-adv-y="1433" d="M-1 591h296q10 -225 42 -301q77 -183 301 -183q271 0 342 256q26 92 28 310h-34q-325 0 -531 106q-261 133 -261 358q0 157 125 256.5t323 99.5q350 0 505 -266q72 -125 82 -413q57 0 113 5v-138q-56 -4 -113 -5q-1 -298 -77 -449q-138 -273 -504 -273q-322 0 -451 214 q-72 121 -79 289h-107v134zM1008 811q1 40 1 64q0 256 -123 376q-98 96 -257 96q-107 0 -175.5 -58.5t-68.5 -149.5q0 -144 165 -236t424 -92h11h23z"/>
    <glyph glyph-name="uni03D5" unicode="ϕ" horiz-adv-x="1630" vert-adv-y="1433" d="M710 -443v405q-198 11 -333 77q-139 68 -218 201q-78 132 -78 297q0 257 165 407.5t464 166.5v351h212v-351q197 -11 332 -77q139 -69 217.5 -200.5t78.5 -296.5q0 -258 -164 -408t-464 -167v-405h-212zM709 961q-133 -11 -218 -59q-190 -109 -190 -366 q0 -190 105 -299.5t303 -124.5v849zM921 961v-849q132 10 218 59q190 110 190 365q0 191 -104.5 300t-303.5 125z"/>
    <glyph glyph-name="afii10023" unicode="Ё" horiz-adv-x="1453" vert-adv-y="1433" d="M1370 0h-1217v1462h1198v-205h-971v-409h913v-205h-913v-438h990v-205zM580 1634h-227v223h227v-223zM1174 1634h-227v223h227v-223z"/>
    <glyph glyph-name="afii10051" unicode="Ђ" horiz-adv-x="1624" vert-adv-y="1433" d="M385 0v1272h-404v190h1061v-190h-430v-428q162 149 413 149q210 0 347.5 -92.5t137.5 -232.5v-337q0 -141 -107.5 -236t-266.5 -95h-297v190h295q149 0 149 126v324q0 82 -78 129.5t-214 47.5q-161 0 -270 -65t-109 -162v-590h-227z"/>
    <glyph glyph-name="afii10052" unicode="Ѓ" horiz-adv-x="1296" vert-adv-y="1433" d="M153 1462h1146v-190h-919v-1272h-227v1462zM606 1558l176 287h256l-268 -287h-164z"/>
    <glyph glyph-name="afii10053" unicode="Є" horiz-adv-x="1872" vert-adv-y="1433" d="M305 649q22 -176 129 -297q175 -199 521 -199q473 0 620 375l231 -33q-198 -528 -851 -528q-345 0 -572 155q-317 217 -317 611t317 611q227 155 571 155q595 0 819 -445l-230 -37q-168 295 -588 295q-270 0 -437.5 -122.5t-209.5 -350.5h790v-190h-793z"/>
    <glyph glyph-name="afii10054" unicode="Ѕ" horiz-adv-x="1366" vert-adv-y="1433" d="M33 481h217q11 -149 100 -226q121 -104 367 -104q187 0 293.5 66.5t106.5 183.5q0 170 -273 215l-332 55q-434 73 -434 385q0 206 157 324.5t430 118.5q334 0 499 -166q58 -58 84 -120.5t38 -172.5h-217q-51 271 -419 271q-163 0 -259 -64.5t-96 -173.5q0 -154 240 -195 l358 -61q441 -76 441 -385q0 -254 -215 -376q-164 -93 -419 -93q-378 0 -549 186q-61 66 -86 136.5t-32 195.5z"/>
    <glyph glyph-name="afii10055" unicode="І" horiz-adv-x="569" vert-adv-y="1433" d="M176 0v1462h217v-1462h-217z"/>
    <glyph glyph-name="afii10056" unicode="Ї" horiz-adv-x="532" vert-adv-y="1433" d="M379 0h-227v1462h227v-1462zM162 1634h-204v223h204v-223zM580 1634h-204v223h204v-223z"/>
    <glyph glyph-name="afii10057" unicode="Ј" horiz-adv-x="1176" vert-adv-y="1433" d="M47 498h205v-70q0 -293 287 -293q272 0 272 291v1036h217v-991q0 -508 -487 -508q-356 0 -455 251q-38 98 -39 284z"/>
    <glyph glyph-name="afii10058" unicode="Љ" horiz-adv-x="2771" vert-adv-y="1433" d="M1337 1272h-764v-718q0 -247 -137 -398q-141 -156 -362 -156h-41v190q313 20 313 360v912h1218v-607h552q262 0 405 -93q178 -115 178 -329q0 -228 -181 -342q-145 -91 -386 -91h-795v1272zM1564 665v-475h530q174 0 271 63t97 175q0 111 -97 174t-271 63h-530z"/>
    <glyph glyph-name="afii10059" unicode="Њ" horiz-adv-x="2772" vert-adv-y="1433" d="M1339 665h-959v-665h-227v1462h227v-607h959v607h227v-607h552q261 0 405 -93q178 -115 178 -334q0 -223 -181 -337q-145 -91 -386 -91h-795v665zM1566 665v-475h530q173 0 270.5 63t97.5 175q0 111 -97.5 174t-270.5 63h-530z"/>
    <glyph glyph-name="afii10060" unicode="Ћ" horiz-adv-x="1617" vert-adv-y="1433" d="M385 0v1272h-404v190h1061v-190h-430v-460q159 154 413 154q210 0 347.5 -95t137.5 -239v-632h-227v623q0 84 -78 133t-213 49q-162 0 -271 -67t-109 -166v-572h-227z"/>
    <glyph glyph-name="afii10061" unicode="Ќ" horiz-adv-x="1403" vert-adv-y="1433" d="M153 0v1462h227v-592h159l453 592h262l-516 -691l635 -771h-263l-567 680h-163v-680h-227zM543 1558l176 287h256l-268 -287h-164z"/>
    <glyph glyph-name="afii10062" unicode="Ў" horiz-adv-x="1482" vert-adv-y="1433" d="M297 0v190h140q89 0 129 27t88 119l-667 1126h282l503 -908l473 908h278l-699 -1252q-117 -210 -304 -210h-223zM399 1854h135q28 -146 221 -146t222 146h135q-8 -80 -30 -126.5t-69 -86.5q-96 -80 -258 -80q-181 0 -278 99q-37 39 -54 80.5t-24 113.5z"/>
    <glyph glyph-name="afii10145" unicode="Џ" horiz-adv-x="1723" vert-adv-y="1433" d="M153 0v1462h227v-1272h964v1272h227v-1462h-599v-320h-227v320h-592z"/>
    <glyph glyph-name="afii10017" unicode="А" horiz-adv-x="1554" vert-adv-y="1433" d="M1315 0l-186 426h-717l-187 -426h-233l662 1462h247l662 -1462h-248zM1049 614l-281 647l-274 -647h555z"/>
    <glyph glyph-name="afii10018" unicode="Б" horiz-adv-x="1598" vert-adv-y="1433" d="M380 855h558q264 0 409 -93q179 -115 179 -334q0 -224 -182 -337q-146 -91 -390 -91h-801v1462h1206v-190h-979v-417zM380 665v-475h536q175 0 273.5 63t98.5 175q0 111 -98.5 174t-273.5 63h-536z"/>
    <glyph glyph-name="afii10019" unicode="В" horiz-adv-x="1593" vert-adv-y="1433" d="M158 0v1462h813q451 0 451 -365q0 -226 -214 -311v-4q277 -73 277 -355q0 -192 -127.5 -309.5t-335.5 -117.5h-864zM375 858h592q112 0 175 55t63 153q0 208 -250 208h-580v-416zM375 188h588q305 0 305 246q0 236 -287 236h-606v-482z"/>
    <glyph glyph-name="afii10020" unicode="Г" horiz-adv-x="1296" vert-adv-y="1433" d="M153 1462h1146v-190h-919v-1272h-227v1462z"/>
    <glyph glyph-name="afii10021" unicode="Д" horiz-adv-x="1808" vert-adv-y="1433" d="M1531 0h-1299v-320h-227v510q220 16 336 158.5t116 396.5v717h1156v-1272h145v-510h-227v320zM1386 190v1082h-702v-523q0 -411 -281 -559h983z"/>
    <glyph glyph-name="afii10022" unicode="Е" horiz-adv-x="1442" vert-adv-y="1433" d="M158 0v1462h1175v-188h-958v-424h930v-188h-930v-474h979v-188h-1196z"/>
    <glyph glyph-name="afii10024" unicode="Ж" horiz-adv-x="2414" vert-adv-y="1433" d="M1092 0v680h-280l-564 -680h-266l633 771l-521 691h265l454 -592h279v592h227v-592h281l452 592h262l-516 -691l635 -771h-259l-567 680h-288v-680h-227z"/>
    <glyph glyph-name="afii10025" unicode="З" horiz-adv-x="1371" vert-adv-y="1433" d="M66 449h237v-34q0 -135 106.5 -216t284.5 -81q192 0 283 84q84 78 84 197q0 272 -389 272h-100v162h83q158 0 254 67.5t96 177.5q0 109 -86.5 176t-226.5 67q-148 0 -239 -69t-91 -180v-68h-237v34q0 192 134 308q161 140 428 140q252 0 414 -123q141 -108 141 -274 q0 -122 -73 -208t-207 -120q127 -19 204 -78q132 -101 132 -270q0 -208 -165 -333.5t-439 -125.5q-293 0 -457.5 129.5t-170.5 365.5z"/>
    <glyph glyph-name="afii10026" unicode="И" horiz-adv-x="1729" vert-adv-y="1433" d="M153 0v1462h227v-1022l970 858v164h227v-1462h-227v1029l-970 -862v-167h-227z"/>
    <glyph glyph-name="afii10027" unicode="Й" horiz-adv-x="1729" vert-adv-y="1433" d="M153 0v1462h227v-1022l970 858v164h227v-1462h-227v1029l-970 -862v-167h-227zM509 1854h135q28 -146 221 -146t222 146h135q-8 -80 -30 -126.5t-69 -86.5q-96 -80 -258 -80q-181 0 -278 99q-37 39 -54 80.5t-24 113.5z"/>
    <glyph glyph-name="afii10028" unicode="К" horiz-adv-x="1403" vert-adv-y="1433" d="M153 0v1462h227v-592h159l453 592h262l-516 -691l635 -771h-263l-567 680h-163v-680h-227z"/>
    <glyph glyph-name="afii10029" unicode="Л" horiz-adv-x="1705" vert-adv-y="1433" d="M1326 0v1272h-769v-725q0 -244 -137 -393q-141 -154 -362 -154h-41v161q313 19 313 382v919h1223v-1462h-227z"/>
    <glyph glyph-name="afii10030" unicode="М" horiz-adv-x="2087" vert-adv-y="1433" d="M1043 250l586 1212h301v-1462h-217v1212h-4l-570 -1212h-192l-568 1188h-4v-1188h-217v1462h305z"/>
    <glyph glyph-name="afii10031" unicode="Н" horiz-adv-x="1745" vert-adv-y="1433" d="M1371 0v689h-996v-689h-217v1462h217v-585h996v585h217v-1462h-217z"/>
    <glyph glyph-name="afii10032" unicode="О" horiz-adv-x="1782" vert-adv-y="1433" d="M900 1499q398 0 616 -243q188 -208 188 -525q0 -361 -237 -575q-214 -193 -576 -193q-407 0 -626 243q-187 208 -187 525q0 362 237 575q213 193 585 193zM885 1311q-270 0 -430 -157t-160 -423q0 -282 177 -438q160 -142 419 -142q275 0 435.5 156.5t160.5 423.5 q0 282 -176 438q-160 142 -426 142z"/>
    <glyph glyph-name="afii10033" unicode="П" horiz-adv-x="1720" vert-adv-y="1433" d="M380 1272v-1272h-227v1462h1415v-1462h-227v1272h-961z"/>
    <glyph glyph-name="afii10034" unicode="Р" horiz-adv-x="1479" vert-adv-y="1433" d="M166 0v1462h754q489 0 489 -420q0 -213 -126.5 -334.5t-348.5 -121.5h-551v-586h-217zM383 774h522q287 0 287 262q0 113 -65 175.5t-183 62.5h-561v-500z"/>
    <glyph glyph-name="afii10035" unicode="С" horiz-adv-x="1669" vert-adv-y="1433" d="M1577 936h-217q-78 375 -502 375q-276 0 -425 -166q-138 -154 -138 -424q0 -266 147 -418t405 -152q211 0 335 98.5t178 309.5h217q-42 -257 -210 -409q-207 -187 -523 -187q-369 0 -583 233q-183 200 -183 534q0 351 209 561q207 208 555 208q369 0 574 -203 q74 -73 108 -149t53 -211z"/>
    <glyph glyph-name="afii10036" unicode="Т" horiz-adv-x="1327" vert-adv-y="1433" d="M555 0v1274h-553v188h1323v-188h-553v-1274h-217z"/>
    <glyph glyph-name="afii10037" unicode="У" horiz-adv-x="1482" vert-adv-y="1433" d="M297 0v190h140q89 0 129 27t88 119l-667 1126h282l503 -908l473 908h278l-699 -1252q-117 -210 -304 -210h-223z"/>
    <glyph glyph-name="afii10038" unicode="Ф" horiz-adv-x="1908" vert-adv-y="1433" d="M840 -20v183q-218 10 -384 74q-188 72 -300 225q-85 116 -85 269q0 244 209.5 399t559.5 170v182h227v-182q243 -11 419 -83q350 -143 350 -486q0 -254 -202.5 -403.5t-566.5 -164.5v-183h-227zM840 1138q-164 -10 -280 -58q-252 -107 -252 -343q0 -241 256 -352 q116 -51 276 -60v813zM1067 1138v-813q253 14 392.5 122.5t139.5 289.5q0 176 -139.5 281t-392.5 120z"/>
    <glyph glyph-name="afii10039" unicode="Х" horiz-adv-x="1442" vert-adv-y="1433" d="M725 899l430 563h268l-563 -713l580 -749h-285l-442 592l-441 -592h-270l578 749l-549 713h276z"/>
    <glyph glyph-name="afii10040" unicode="Ц" horiz-adv-x="1767" vert-adv-y="1433" d="M153 0v1462h227v-1272h958v1272h227v-1272h145v-510h-227v320h-1330z"/>
    <glyph glyph-name="afii10041" unicode="Ч" horiz-adv-x="1675" vert-adv-y="1433" d="M1296 0v556q-272 -57 -522 -57q-306 0 -477 98t-171 273v592h227v-582q0 -217 473 -217q203 0 470 58v741h227v-1462h-227z"/>
    <glyph glyph-name="afii10042" unicode="Ш" horiz-adv-x="2679" vert-adv-y="1433" d="M153 0v1462h227v-1272h847v1272h227v-1272h846v1272h227v-1462h-2374z"/>
    <glyph glyph-name="afii10043" unicode="Щ" horiz-adv-x="2721" vert-adv-y="1433" d="M153 0v1462h227v-1272h847v1272h227v-1272h841v1272h227v-1272h145v-510h-227v320h-2287z"/>
    <glyph glyph-name="afii10044" unicode="Ъ" horiz-adv-x="2113" vert-adv-y="1433" d="M906 1462v-607h552q260 0 405 -93q178 -114 178 -334q0 -223 -181 -337q-145 -91 -386 -91h-795v1272h-697v190h924zM906 665v-475h530q174 0 271 63t97 175q0 111 -97 174t-271 63h-530z"/>
    <glyph glyph-name="afii10045" unicode="Ы" horiz-adv-x="2110" vert-adv-y="1433" d="M380 855h552q262 0 405 -93q178 -115 178 -334q0 -223 -181 -337q-145 -91 -386 -91h-795v1462h227v-607zM380 665v-475h530q173 0 270.5 63t97.5 175q0 111 -97.5 174t-270.5 63h-530zM1731 0v1462h227v-1462h-227z"/>
    <glyph glyph-name="afii10046" unicode="Ь" horiz-adv-x="1592" vert-adv-y="1433" d="M380 855h552q262 0 405 -93q178 -115 178 -334q0 -223 -181 -337q-145 -91 -386 -91h-795v1462h227v-607zM380 665v-475h530q173 0 270.5 63t97.5 175q0 111 -97.5 174t-270.5 63h-530z"/>
    <glyph glyph-name="afii10047" unicode="Э" horiz-adv-x="1872" vert-adv-y="1433" d="M1567 646h-793v190h790q-30 168 -126 276q-174 198 -521 198q-422 0 -588 -296l-230 37q224 445 819 445q344 0 571 -155q317 -217 317 -611q0 -395 -317 -612q-228 -155 -572 -155q-654 0 -851 529l231 33q145 -375 620 -375q275 0 448 132t202 364z"/>
    <glyph glyph-name="afii10048" unicode="Ю" horiz-adv-x="2618" vert-adv-y="1433" d="M775 843q37 237 196 398q242 245 684 245q344 0 571 -155q317 -217 317 -609q0 -389 -316 -602q-226 -153 -569 -153q-383 0 -622.5 185t-266.5 501h-389v-653h-227v1462h227v-619h395zM1647 1310q-268 0 -443 -141q-202 -163 -202 -446q0 -281 203 -441 q175 -138 452 -138t451 138q200 160 200 438q0 290 -201 449q-179 141 -460 141z"/>
    <glyph glyph-name="afii10049" unicode="Я" horiz-adv-x="1554" vert-adv-y="1433" d="M1388 0h-217v621h-567q-154 0 -214 -84.5t-72 -316.5q-10 -178 -42 -220h-229q53 61 65 308q2 361 217 401v4q-245 89 -245 358q0 180 107.5 285.5t291.5 105.5h905v-1462zM1171 809v465h-612q-123 0 -190.5 -61t-67.5 -172q0 -232 264 -232h606z"/>
    <glyph glyph-name="afii10065" unicode="а" horiz-adv-x="1327" vert-adv-y="1433" d="M315 737h-192q25 184 131 269q129 104 397 104q498 0 498 -305v-578q0 -92 94 -92q31 0 70 8v-143q-78 -12 -158 -12q-92 0 -133 33t-54 116q-147 -174 -465 -174q-203 0 -315.5 85.5t-112.5 239.5q0 152 107 229t354 103l234 25q105 11 145.5 39t40.5 91q0 175 -307 175 q-165 0 -244 -50.5t-90 -162.5zM956 561q-43 -44 -201 -63l-231 -29q-244 -30 -244 -171q0 -81 68.5 -128t186.5 -47q178 0 299.5 87t121.5 214v137z"/>
    <glyph glyph-name="afii10066" unicode="б" horiz-adv-x="1348" vert-adv-y="1433" d="M833 1595h217q0 -117 -24 -182t-83 -113q-46 -37 -94.5 -50.5t-230.5 -39.5q-251 -35 -293 -229q153 123 374 123q261 0 417 -153.5t156 -410.5q0 -260 -150 -406q-162 -158 -448 -158t-449 158q-150 146 -150 443q0 372 116 554t382 228q153 26 206.5 58t53.5 98v80z M667 949q-172 0 -272 -110t-100 -299q0 -170 78 -274q102 -135 300 -135q177 0 278 109t101 299q0 173 -78 275q-104 135 -307 135z"/>
    <glyph glyph-name="afii10067" unicode="в" horiz-adv-x="1335" vert-adv-y="1433" d="M135 0v1073h681q191 0 293 -85q98 -81 98 -201q0 -141 -153 -229q205 -90 205 -257q0 -137 -103.5 -219t-276.5 -82h-744zM347 175h469q101 0 162.5 39.5t61.5 103.5q0 49 -36 83q-61 58 -188 58h-469v-284zM347 635h469q170 0 170 136q0 127 -170 127h-469v-263z"/>
    <glyph glyph-name="afii10068" unicode="г" horiz-adv-x="911" vert-adv-y="1433" d="M135 0v1073h799v-175h-587v-898h-212z"/>
    <glyph glyph-name="afii10069" unicode="д" horiz-adv-x="1402" vert-adv-y="1433" d="M14 -195v370q187 55 287 253.5t100 514.5q0 43 -2 130h843v-898h109v-370h-212v195h-913v-195h-212zM1030 175v723h-422v-85q-16 -459 -280 -638h702z"/>
    <glyph glyph-name="afii10070" unicode="е" horiz-adv-x="1366" vert-adv-y="1433" d="M1282 475h-987q19 -146 109 -231q117 -109 290 -109q242 0 342 191h218q-164 -363 -565 -363q-286 0 -454 168q-157 158 -157 406t157 405q169 168 457 168q274 0 432 -163t158 -445v-27zM301 635h764q-63 303 -374 303q-154 0 -256.5 -79.5t-133.5 -223.5z"/>
    <glyph glyph-name="afii10072" unicode="ж" horiz-adv-x="1926" vert-adv-y="1433" d="M857 0v487h-260l-374 -487h-246l421 573l-313 500h246l266 -411h260v411h212v-411h260l266 411h246l-313 -500l421 -573h-246l-374 487h-260v-487h-212z"/>
    <glyph glyph-name="afii10073" unicode="з" horiz-adv-x="1084" vert-adv-y="1433" d="M72 352h220v-44q0 -177 244 -177q119 0 186 46.5t67 129.5q0 81 -71.5 130.5t-188.5 49.5h-88v148h88q94 0 162 43.5t68 103.5q0 73 -59 119.5t-151 46.5q-100 0 -164.5 -49.5t-64.5 -125.5v-46h-220v46q0 140 129.5 235t318.5 95q190 0 314 -91q117 -86 117 -209 q0 -149 -190 -235q219 -78 219 -254q0 -148 -132 -243t-339 -95q-214 0 -339.5 89.5t-125.5 242.5v44z"/>
    <glyph glyph-name="afii10074" unicode="и" horiz-adv-x="1273" vert-adv-y="1433" d="M135 0v1073h212v-726l579 639v87h212v-1073h-212v739l-579 -643v-96h-212z"/>
    <glyph glyph-name="afii10075" unicode="й" horiz-adv-x="1273" vert-adv-y="1433" d="M135 0v1073h212v-726l579 639v87h212v-1073h-212v739l-579 -643v-96h-212zM280 1516h135q28 -145 221 -145t222 145h135q-8 -80 -30 -126t-69 -86q-96 -80 -258 -80q-181 0 -278 99q-37 38 -54 79.5t-24 113.5z"/>
    <glyph glyph-name="afii10076" unicode="к" horiz-adv-x="1204" vert-adv-y="1433" d="M135 0v1073h212v-389h260l266 389h246l-313 -478l421 -595h-246l-374 509h-260v-509h-212z"/>
    <glyph glyph-name="afii10077" unicode="л" horiz-adv-x="1261" vert-adv-y="1433" d="M914 0v898h-450v-475q0 -191 -109 -299.5t-314 -123.5v144q96 21 153.5 88t57.5 158v683h874v-1073h-212z"/>
    <glyph glyph-name="afii10078" unicode="м" horiz-adv-x="1792" vert-adv-y="1433" d="M135 0v1073h322l438 -902l440 902h322v-1073h-212v925l-440 -925h-216l-442 925v-925h-212z"/>
    <glyph glyph-name="afii10079" unicode="н" horiz-adv-x="1300" vert-adv-y="1433" d="M135 0v1073h212v-432h606v432h212v-1073h-212v466h-606v-466h-212z"/>
    <glyph glyph-name="afii10080" unicode="о" horiz-adv-x="1401" vert-adv-y="1433" d="M707 1110q290 0 459 -168q157 -157 157 -406q0 -261 -169.5 -417t-453.5 -156q-283 0 -452.5 156t-169.5 416q0 264 170 419.5t459 155.5zM696 938q-183 0 -292 -109t-109 -293q0 -185 109.5 -293t295.5 -108q188 0 297 108.5t109 293.5q0 186 -110 293.5t-300 107.5z "/>
    <glyph glyph-name="afii10081" unicode="п" horiz-adv-x="1279" vert-adv-y="1433" d="M135 0v1073h1009v-1073h-212v898h-585v-898h-212z"/>
    <glyph glyph-name="afii10082" unicode="р" horiz-adv-x="1403" vert-adv-y="1433" d="M125 -414v1487h205v-149h4q138 174 412 174q257 0 418 -158t161 -410q0 -246 -153 -402q-163 -165 -428 -165q-275 0 -410 174h-4v-551h-205zM710 926q-178 0 -285 -108.5t-107 -288.5q0 -181 107.5 -287.5t289.5 -106.5q180 0 286.5 106.5t106.5 287.5q0 184 -107 290.5 t-291 106.5z"/>
    <glyph glyph-name="afii10083" unicode="с" horiz-adv-x="1290" vert-adv-y="1433" d="M1004 393h217q-73 -240 -211 -338q-131 -92 -346 -92q-292 0 -448 173q-138 153 -138 396q0 264 158.5 421t425.5 157q469 0 555 -395h-217q-51 223 -325 223q-181 0 -280.5 -105.5t-99.5 -296.5t99.5 -296t280.5 -105q138 0 213.5 59.5t115.5 198.5z"/>
    <glyph glyph-name="afii10084" unicode="т" horiz-adv-x="955" vert-adv-y="1433" d="M371 0v898h-385v175h982v-175h-385v-898h-212z"/>
    <glyph glyph-name="afii10085" unicode="у" horiz-adv-x="1176" vert-adv-y="1433" d="M594 225l362 848h229l-561 -1257q-70 -159 -145 -213t-224 -54q-37 0 -159 8v173q17 -1 40 -4q45 -5 82 -5q90 0 130 30t90 134l47 98l-495 1090h235z"/>
    <glyph glyph-name="afii10086" unicode="ф" horiz-adv-x="1687" vert-adv-y="1433" d="M737 -415v394q-207 11 -348 75q-146 66 -231 197q-82 127 -82 290q0 251 172.5 398t488.5 164v359h212v-359q207 -11 349 -75q146 -66 231 -197q82 -127 82 -290q0 -251 -172.5 -398t-489.5 -164v-394h-212zM737 953q-140 -10 -234 -57q-207 -104 -207 -356 q0 -184 113.5 -290t327.5 -122v825zM949 953v-825q141 11 235 58q208 103 208 355q0 184 -113.5 290t-329.5 122z"/>
    <glyph glyph-name="afii10087" unicode="х" horiz-adv-x="1214" vert-adv-y="1433" d="M608 704l312 369h272l-450 -518l483 -555h-287l-338 408l-340 -408h-270l477 555l-442 518h278z"/>
    <glyph glyph-name="afii10088" unicode="ц" horiz-adv-x="1281" vert-adv-y="1433" d="M135 0v1073h212v-898h552v898h212v-898h115v-494h-212v319h-879z"/>
    <glyph glyph-name="afii10089" unicode="ч" horiz-adv-x="1222" vert-adv-y="1433" d="M876 0v400q-168 -57 -340 -57q-204 0 -314 73t-110 208v449h212v-411q0 -164 248 -164q144 0 304 40v535h212v-1073h-212z"/>
    <glyph glyph-name="afii10090" unicode="ш" horiz-adv-x="1968" vert-adv-y="1433" d="M135 0v1073h212v-898h533v898h212v-898h529v898h212v-1073h-1698z"/>
    <glyph glyph-name="afii10091" unicode="щ" horiz-adv-x="1988" vert-adv-y="1433" d="M135 0v1073h212v-898h533v898h212v-898h529v898h212v-898h109v-494h-212v319h-1595z"/>
    <glyph glyph-name="afii10092" unicode="ъ" horiz-adv-x="1608" vert-adv-y="1433" d="M488 0v898h-529v175h741v-429h418q197 0 310 -89q116 -91 116 -239q0 -144 -115 -230t-309 -86h-632zM700 175h412q100 0 156.5 38.5t56.5 107.5q0 70 -56 108.5t-157 38.5h-412v-293z"/>
    <glyph glyph-name="afii10093" unicode="ы" horiz-adv-x="1677" vert-adv-y="1433" d="M135 0v1073h212v-429h418q197 0 310 -89q116 -91 116 -239q0 -144 -115 -230t-308 -86h-633zM347 175h413q99 0 155.5 38.5t56.5 107.5t-56 108t-156 39h-413v-293zM1330 0v1073h212v-1073h-212z"/>
    <glyph glyph-name="afii10094" unicode="ь" horiz-adv-x="1255" vert-adv-y="1433" d="M135 0v1073h212v-429h418q197 0 310 -89q116 -91 116 -239q0 -144 -115 -230t-308 -86h-633zM347 175h413q99 0 155.5 38.5t56.5 107.5t-56 108t-156 39h-413v-293z"/>
    <glyph glyph-name="afii10095" unicode="э" horiz-adv-x="1325" vert-adv-y="1433" d="M87 760q36 104 106 176q162 167 457 167q286 0 448 -162q151 -153 151 -400q0 -255 -156 -409q-158 -156 -442 -156q-472 0 -579 398l216 44q70 -280 363 -280q165 0 268.5 93.5t109.5 246.5h-471v175h464q-20 136 -116.5 212t-248.5 76q-129 0 -221.5 -57t-132.5 -159z "/>
    <glyph glyph-name="afii10096" unicode="ю" horiz-adv-x="1922" vert-adv-y="1433" d="M653 641q6 139 87 253q154 218 503 218q285 0 442 -150t157 -422q0 -274 -152 -415q-165 -152 -455 -152q-269 0 -419.5 126t-168.5 367h-300v-466h-212v1073h212v-432h306zM1237 954q-176 0 -274 -111t-98 -310q0 -177 77 -274q100 -127 295 -127q184 0 284.5 105 t100.5 298q0 184 -79 285q-103 134 -306 134z"/>
    <glyph glyph-name="afii10097" unicode="я" horiz-adv-x="1265" vert-adv-y="1433" d="M918 0v438h-363q-80 0 -132 -43.5t-52 -110.5v-140q0 -97 -49 -144h-214q51 34 51 144v140q0 136 170 200q-252 82 -252 276q0 137 118.5 225t302.5 88h632v-1073h-212zM918 613v285h-420q-92 0 -148.5 -39t-56.5 -102q0 -65 56 -104.5t149 -39.5h420z"/>
    <glyph glyph-name="afii10071" unicode="ё" horiz-adv-x="1370" vert-adv-y="1433" d="M1285 483h-987q19 -146 109 -231q117 -109 290 -109q242 0 342 191h218q-164 -363 -565 -363q-286 0 -454 168q-157 158 -157 406t157 405q169 168 457 168q274 0 432 -163t158 -445v-27zM304 643h764q-63 303 -374 303q-154 0 -256.5 -79.5t-133.5 -223.5zM337 1249v213 h205v-213h-205zM828 1249v213h205v-213h-205z"/>
    <glyph glyph-name="afii10099" unicode="ђ" horiz-adv-x="1368" vert-adv-y="1433" d="M178 0v1160h-169v176h169v126h212v-126h293v-176h-293v-248q205 191 442 191q175 0 288 -96.5t113 -247.5v-659q0 -162 -151 -269q-137 -98 -309 -98h-245v176h245q99 0 173.5 57.5t74.5 133.5v659q0 84 -66.5 137.5t-169.5 53.5q-219 0 -395 -218v-732h-212z"/>
    <glyph glyph-name="afii10100" unicode="ѓ" horiz-adv-x="911" vert-adv-y="1433" d="M135 0v1073h799v-175h-587v-898h-212zM390 1231l176 287h256l-268 -287h-164z"/>
    <glyph glyph-name="afii10101" unicode="є" horiz-adv-x="1325" vert-adv-y="1433" d="M1238 760l-216 -35q-39 102 -132 159t-222 57q-152 0 -248.5 -76t-116.5 -212h464v-175h-471q5 -106 56 -183q104 -157 322 -157q294 0 363 280l216 -44q-108 -398 -579 -398q-284 0 -442 156q-156 154 -156 409q0 247 152 400q161 162 447 162q213 0 359.5 -89 t203.5 -254z"/>
    <glyph glyph-name="afii10102" unicode="ѕ" horiz-adv-x="1214" vert-adv-y="1433" d="M63 338h205q12 -215 344 -215q321 0 321 172q0 112 -202 139l-338 45q-133 18 -212 96.5t-79 192.5q0 159 132 250.5t361 91.5q471 0 521 -360h-205q-24 200 -320 200q-284 0 -284 -167q0 -105 178 -129l291 -39q374 -51 374 -291q0 -173 -140.5 -267t-399.5 -94 q-261 0 -391.5 89.5t-155.5 285.5z"/>
    <glyph glyph-name="afii10103" unicode="і" horiz-adv-x="455" vert-adv-y="1433" d="M125 0v1073h205v-1073h-205zM125 1250v225h205v-225h-205z"/>
    <glyph glyph-name="afii10104" unicode="ї" horiz-adv-x="482" vert-adv-y="1433" d="M135 0v1073h212v-1073h-212zM-46 1462h201v-234h-201v234zM339 1462h201v-234h-201v234z"/>
    <glyph glyph-name="afii10105" unicode="ј" horiz-adv-x="455" vert-adv-y="1433" d="M-106 -410v172q27 -4 70 -4q161 0 161 129v1186h205v-1139q0 -191 -75.5 -269.5t-258.5 -78.5q-24 0 -102 4zM125 1250v225h205v-225h-205z"/>
    <glyph glyph-name="afii10106" unicode="љ" horiz-adv-x="2013" vert-adv-y="1433" d="M893 0v898h-450v-470q0 -193 -109 -303t-314 -125v175q96 19 153.5 80t57.5 143v675h874v-429h418q196 0 310 -89q116 -91 116 -239q0 -144 -115 -230t-308 -86h-633zM1105 175h412q100 0 156.5 38.5t56.5 107.5t-56 108t-157 39h-412v-293z"/>
    <glyph glyph-name="afii10107" unicode="њ" horiz-adv-x="2073" vert-adv-y="1433" d="M135 0v1073h212v-432h607v432h212v-429h418q196 0 310 -90q116 -90 116 -238q0 -144 -115 -230t-308 -86h-633v466h-607v-466h-212zM1166 175h413q100 0 156 38.5t56 107.5q0 70 -56 108.5t-156 38.5h-413v-293z"/>
    <glyph glyph-name="afii10108" unicode="ћ" horiz-adv-x="1368" vert-adv-y="1433" d="M178 0v1160h-176v176h176v126h212v-126h313v-176h-313v-252q206 192 442 192q176 0 288.5 -96.5t112.5 -247.5v-756h-212v756q0 83 -66.5 137t-168.5 54q-219 0 -396 -218v-729h-212z"/>
    <glyph glyph-name="afii10109" unicode="ќ" horiz-adv-x="1204" vert-adv-y="1433" d="M135 0v1073h212v-389h260l266 389h246l-313 -478l421 -595h-246l-374 509h-260v-509h-212zM492 1231l176 287h256l-268 -287h-164z"/>
    <glyph glyph-name="afii10110" unicode="ў" horiz-adv-x="1210" vert-adv-y="1433" d="M599 309l362 848h229l-561 -1257q-70 -159 -145 -213t-224 -54q-37 0 -159 8v173q17 -1 40 -4q45 -5 82 -5q90 0 130 30t90 134l47 98l-495 1090h235zM248 1516h135q28 -145 221 -145t222 145h135q-8 -80 -30 -126t-69 -86q-96 -80 -258 -80q-181 0 -278 99 q-37 38 -54 79.5t-24 113.5z"/>
    <glyph glyph-name="afii10193" unicode="џ" horiz-adv-x="1245" vert-adv-y="1433" d="M135 0v1073h212v-898h552v898h212v-1073h-379v-321h-212v321h-385z"/>
    <glyph glyph-name="afii10050" unicode="Ґ" horiz-adv-x="1435" vert-adv-y="1433" d="M1145 1462l245 284h284l-375 -284v-190h-919v-1272h-227v1462h992z"/>
    <glyph glyph-name="afii10098" unicode="ґ" horiz-adv-x="1076" vert-adv-y="1433" d="M782 1073l243 283h284l-375 -283v-175h-587v-898h-212v1073h647z"/>
    <glyph glyph-name="uni0492" unicode="Ғ" horiz-adv-x="1304" vert-adv-y="1433" d="M379 846h798v-205h-798v-641h-227v641h-121v205h121v616h1136v-205h-909v-411z"/>
    <glyph glyph-name="uni0493" unicode="ғ" horiz-adv-x="926" vert-adv-y="1433" d="M362 662h381v-175h-381v-487h-212v487h-89v175h89v411h799v-175h-587v-236z"/>
    <glyph glyph-name="uni0496" unicode="Җ" horiz-adv-x="2520" vert-adv-y="1433" d="M1092 0v680h-280l-564 -680h-266l633 771l-521 691h265l454 -592h279v592h227v-592h284l458 592h265l-522 -691l506 -606h234v-458h-227v293h-132l-575 680h-291v-680h-227z"/>
    <glyph glyph-name="uni0497" unicode="җ" horiz-adv-x="2011" vert-adv-y="1433" d="M857 0v487h-260l-374 -487h-246l421 573l-313 500h246l266 -411h260v411h212v-411h260l266 411h246l-313 -500l312 -428h195v-461h-212v316h-120l-374 487h-260v-487h-212z"/>
    <glyph glyph-name="uni049A" unicode="Қ" horiz-adv-x="1558" vert-adv-y="1433" d="M153 0v1462h227v-591h185l462 591h268l-528 -690l511 -607h247v-498h-227v333h-149l-581 681h-188v-681h-227z"/>
    <glyph glyph-name="uni049B" unicode="қ" horiz-adv-x="1290" vert-adv-y="1433" d="M135 0v1073h212v-420h260l266 420h246l-313 -509l312 -416h195v-469h-212v321h-120l-374 478h-260v-478h-212z"/>
    <glyph glyph-name="uni049C" unicode="Ҝ" horiz-adv-x="1510" vert-adv-y="1433" d="M647 680v-355h-164v355h-103v-680h-227v1462h227v-592h103v355h164v-355h15l451 592h263l-517 -691l635 -771h-262l-565 680h-20z"/>
    <glyph glyph-name="uni049D" unicode="ҝ" horiz-adv-x="1204" vert-adv-y="1433" d="M583 478v-235h-149v235h-87v-478h-212v1073h212v-420h87v243h149v-243h26l264 420h246l-313 -509l421 -564h-246l-372 478h-26z"/>
    <glyph glyph-name="uni04A2" unicode="Ң" horiz-adv-x="1688" vert-adv-y="1433" d="M1411 0h-138v689h-893v-689h-227v1462h227v-583h893v583h227v-1302h141v-488h-230v328z"/>
    <glyph glyph-name="uni04A3" unicode="ң" horiz-adv-x="1300" vert-adv-y="1433" d="M135 0v1073h212v-432h607v432h212v-925h85v-469h-212v321h-85v466h-607v-466h-212z"/>
    <glyph glyph-name="uni04AE" unicode="Ү" horiz-adv-x="1479" vert-adv-y="1433" d="M742 797l485 665h264l-645 -850v-612h-217v602l-641 860h276z"/>
    <glyph glyph-name="uni04Af" unicode="ү" horiz-adv-x="1207" vert-adv-y="1433" d="M958 1073h225l-471 -1073v-437h-212v437l-472 1073h226l352 -841z"/>
    <glyph glyph-name="uni04B0" unicode="Ұ" horiz-adv-x="1479" vert-adv-y="1433" d="M629 463v139l-641 860h276l477 -666l486 666h264l-645 -850v-149h355v-187h-355v-276h-217v276h-354v187h354z"/>
    <glyph glyph-name="uni04B1" unicode="ұ" horiz-adv-x="1207" vert-adv-y="1433" d="M712 -4h300v-134h-300v-299h-212v299h-306v134h306v4l-472 1073h226l352 -841l352 841h225l-471 -1073v-4z"/>
    <glyph glyph-name="uni04B2" unicode="Ҳ" horiz-adv-x="1583" vert-adv-y="1433" d="M1366 160h192v-488h-230v328h-125l-457 581l-453 -581h-287l599 753l-567 709h299l416 -533l418 533h278l-557 -703z"/>
    <glyph glyph-name="uni04B3" unicode="ҳ" horiz-adv-x="1309" vert-adv-y="1433" d="M1120 144h174v-456h-217v312h-112l-361 406l-351 -406h-267l484 557l-468 516h281l325 -357l320 357h269l-455 -507z"/>
    <glyph glyph-name="uni04B6" unicode="Ҷ" horiz-adv-x="1699" vert-adv-y="1433" d="M1290 0v556q-266 -57 -519 -57q-305 0 -475 98t-170 273v592h227v-583q0 -216 470 -216q200 0 467 58v741h227v-1298h147v-497h-227v333h-147z"/>
    <glyph glyph-name="uni04B7" unicode="ҷ" horiz-adv-x="1233" vert-adv-y="1433" d="M876 0v400q-169 -56 -340 -56q-204 0 -314 72.5t-110 207.5v449h212v-411q0 -163 249 -163q143 0 303 39v535h212v-925h86v-469h-212v321h-86z"/>
    <glyph glyph-name="uni04B8" unicode="Ҹ" horiz-adv-x="1675" vert-adv-y="1433" d="M735 667v450h164v-451q176 8 397 55v741h227v-1462h-227v557q-184 -39 -390 -53l-7 -1v-286h-164v283q-288 6 -448.5 103.5t-160.5 266.5v592h227v-582q0 -195 382 -213z"/>
    <glyph glyph-name="uni04B9" unicode="ҹ" horiz-adv-x="1222" vert-adv-y="1433" d="M521 500v245h146v-243q92 7 209 36v535h212v-1073h-212v401q-105 -36 -209 -49v-189h-146v181q-198 5 -303.5 77t-105.5 203v449h212v-410q0 -146 197 -163z"/>
    <glyph glyph-name="uni04BA" unicode="Һ" horiz-adv-x="1668" vert-adv-y="1433" d="M380 1462v-556q271 57 522 57q306 0 477 -98t171 -273v-592h-227v582q0 217 -474 217q-203 0 -469 -58v-741h-227v1462h227z"/>
    <glyph glyph-name="uni04BB" unicode="һ" horiz-adv-x="1343" vert-adv-y="1433" d="M135 0v1462h212v-535q104 103 197 143.5t225 40.5q213 0 336 -111q103 -93 103 -311v-689h-212v674q0 81 -15.5 122.5t-58.5 75.5q-75 60 -194 60q-148 0 -257 -78q-124 -89 -124 -225v-629h-212z"/>
    <glyph glyph-name="uni04C0" unicode="Ӏ" horiz-adv-x="569" vert-adv-y="1433" d="M176 0v1462h217v-1462h-217z"/>
    <glyph glyph-name="uni04CF" unicode="ӏ" horiz-adv-x="569" vert-adv-y="1433" d="M176 0v1462h217v-1462h-217z"/>
    <glyph glyph-name="uni04D8" unicode="Ә" horiz-adv-x="1908" vert-adv-y="1433" d="M1602 828q-26 172 -128 287q-175 198 -521 198q-421 0 -588 -295l-230 36q224 445 819 445q343 0 571 -155q317 -216 317 -611q0 -394 -317 -611q-228 -155 -571 -155q-344 0 -571 155q-317 216 -317 618q0 38 4 88h1532zM1602 638h-1296q25 -170 128 -287 q176 -198 520 -198q271 0 443 128.5t205 356.5z"/>
    <glyph glyph-name="uni04D9" unicode="ә" horiz-adv-x="1345" vert-adv-y="1433" d="M76 601h974q-3 135 -73 213q-113 127 -321 127q-264 0 -354 -203h-199q41 173 190 269t376 96q279 0 443 -153q157 -146 157 -403q0 -272 -173 -424q-168 -147 -432 -147q-184 0 -326.5 73t-206.5 200q-55 110 -55 352zM302 438q0 -132 102 -216t262 -84t262.5 81.5 t115.5 218.5h-742z"/>
    <glyph glyph-name="uni04E2" unicode="Ӣ" horiz-adv-x="1593" vert-adv-y="1433" d="M1142 422h-709l-189 -422h-257l680 1462h254l685 -1462h-272zM1057 612l-271 597l-269 -597h540zM1042 1867h177q-36 -127 -145.5 -198.5t-265.5 -71.5q-157 0 -265.5 71t-146.5 199h177q75 -131 235 -131t234 131z"/>
    <glyph glyph-name="uni04E3" unicode="ӣ" horiz-adv-x="1308" vert-adv-y="1433" d="M334 724h-213q15 142 76 218q132 169 468 169q268 0 385 -81t117 -266v-480q0 -77 21 -108.5t72 -31.5q23 0 54 4v-146q-52 -17 -111 -17q-101 0 -153 35.5t-84 127.5q-187 -178 -464 -178q-195 0 -307 86q-113 87 -113 236q0 189 164 263q94 42 354 69q239 25 302 51.5 t63 100.5q0 167 -292 167q-173 0 -250 -50t-89 -169zM966 539q-164 -50 -415 -77q-143 -16 -196.5 -49.5t-53.5 -106.5q0 -167 261 -167q212 0 328 110q45 43 60.5 84.5t15.5 117.5v88zM902 1481h177q-36 -127 -145 -199t-266 -72t-265.5 71.5t-146.5 199.5h177 q74 -132 235 -132t234 132z"/>
    <glyph glyph-name="uni04E8" unicode="Ө" horiz-adv-x="1908" vert-adv-y="1433" d="M965 1496q332 0 560 -155q317 -216 317 -612q0 -394 -317 -611q-228 -155 -571 -155q-344 0 -571 155q-158 108 -241 278q-76 152 -76 331q0 265 154 463q239 306 745 306zM1602 635h-1296q25 -170 128 -287q176 -198 520 -198q271 0 442.5 128.5t205.5 356.5zM306 825 h1296q-25 170 -128 287q-175 198 -520 198q-271 0 -443 -128.5t-205 -356.5z"/>
    <glyph glyph-name="uni04E9" unicode="ө" horiz-adv-x="1348" vert-adv-y="1433" d="M683 1103q275 0 432 -150.5t157 -413.5q0 -259 -150 -405q-162 -158 -448 -158q-281 0 -439.5 149t-158.5 413q0 261 150 407q162 158 457 158zM1048 452h-748q10 -81 43 -141q93 -173 331 -173q158 0 255.5 82t118.5 232zM300 627h748q-12 82 -43 141q-93 173 -331 173 q-159 0 -256.5 -82.5t-117.5 -231.5z"/>
    <glyph glyph-name="uni04EE" unicode="Ӯ" horiz-adv-x="1453" vert-adv-y="1433" d="M1370 0h-1217v1462h1198v-205h-971v-409h913v-205h-913v-438h990v-205zM991 1874h177q-38 -128 -146.5 -199.5t-265.5 -71.5t-264.5 71t-146.5 200h177q74 -132 234 -132q161 0 235 132z"/>
    <glyph glyph-name="uni04EF" unicode="ӯ" horiz-adv-x="1370" vert-adv-y="1433" d="M1290 478h-1002q11 -107 65 -181q116 -158 349 -158q254 0 338 198h230q-160 -366 -587 -366q-315 0 -477 198q-125 153 -125 366q0 281 196 441q164 135 410 135q273 0 437 -158q165 -159 166 -475zM1073 644q-27 102 -81 165q-114 134 -309 134q-149 0 -250.5 -77.5 t-139.5 -221.5h780zM895 1482h177q-37 -127 -145.5 -198.5t-265.5 -71.5t-264.5 71t-146.5 199h177q75 -131 234 -131t234 131z"/>
    <glyph glyph-name="Wgrave" unicode="Ẁ" horiz-adv-x="2238" vert-adv-y="1433" d="M1520 0l-406 1212h-4l-403 -1212h-240l-481 1462h236l374 -1188h4l392 1188h258l401 -1188h4l373 1188h225l-495 -1462h-238zM1036 1558l-268 287h256l176 -287h-164z"/>
    <glyph glyph-name="wgrave" unicode="ẁ" horiz-adv-x="1858" vert-adv-y="1433" d="M1314 254l308 819h217l-424 -1073h-223l-269 819h-4l-268 -819h-217l-416 1073h227l297 -819h4l267 819h225l272 -819h4zM866 1231l-268 287h256l176 -287h-164z"/>
    <glyph glyph-name="Wacute" unicode="Ẃ" horiz-adv-x="2238" vert-adv-y="1433" d="M1520 0l-406 1212h-4l-403 -1212h-240l-481 1462h236l374 -1188h4l392 1188h258l401 -1188h4l373 1188h225l-495 -1462h-238zM1042 1558l176 287h256l-268 -287h-164z"/>
    <glyph glyph-name="wacute" unicode="ẃ" horiz-adv-x="1858" vert-adv-y="1433" d="M1314 254l308 819h217l-424 -1073h-223l-269 819h-4l-268 -819h-217l-416 1073h227l297 -819h4l267 819h225l272 -819h4zM830 1231l176 287h256l-268 -287h-164z"/>
    <glyph glyph-name="Wdieresis" unicode="Ẅ" horiz-adv-x="2238" vert-adv-y="1433" d="M1520 0l-406 1212h-4l-403 -1212h-240l-481 1462h236l374 -1188h4l392 1188h258l401 -1188h4l373 1188h225l-495 -1462h-238zM771 1577v213h205v-213h-205zM1263 1577v213h205v-213h-205z"/>
    <glyph glyph-name="wdieresis" unicode="ẅ" horiz-adv-x="1858" vert-adv-y="1433" d="M1314 254l308 819h217l-424 -1073h-223l-269 819h-4l-268 -819h-217l-416 1073h227l297 -819h4l267 819h225l272 -819h4zM580 1249v213h205v-213h-205zM1072 1249v213h205v-213h-205z"/>
    <glyph glyph-name="Ygrave" unicode="Ỳ" horiz-adv-x="1479" vert-adv-y="1433" d="M742 797l485 665h264l-645 -850v-612h-217v602l-641 860h276zM692 1558l-268 287h256l176 -287h-164z"/>
    <glyph glyph-name="ygrave" unicode="ỳ" horiz-adv-x="1176" vert-adv-y="1433" d="M594 225l362 848h229l-561 -1257q-70 -159 -145 -213t-224 -54q-37 0 -159 8v173q17 -1 40 -4q45 -5 82 -5q90 0 130 30t90 134l47 98l-495 1090h235zM535 1231l-268 287h256l176 -287h-164z"/>
    <glyph glyph-name="uni2010" unicode="‐" horiz-adv-x="668" vert-adv-y="1433" d="M569 626v-144h-477v144h477z"/>
    <glyph glyph-name="uni2011" unicode="‑" horiz-adv-x="985" vert-adv-y="1433" d="M133 463v213h719v-213h-719z"/>
    <glyph glyph-name="uni2012" unicode="‒" horiz-adv-x="1024" vert-adv-y="1433" d="M0 483v172h1024v-172h-1024z"/>
    <glyph glyph-name="afii00208" unicode="―" horiz-adv-x="2048" vert-adv-y="1433" d="M0 483v172h2048v-172h-2048z"/>
    <glyph glyph-name="quotereversed" unicode="‛" horiz-adv-x="443" vert-adv-y="1433" d="M314 1462v-209h-96q-4 -167 96 -180v-77q-90 8 -138 75.5t-48 188.5v202h186z"/>
    <glyph glyph-name="uni201F" unicode="‟" horiz-adv-x="668" vert-adv-y="1433" d="M569 1422v-209h-96q-4 -167 96 -180v-77q-186 16 -186 264v202h186zM248 1422v-209h-96q-1 -163 96 -180v-77q-186 16 -186 264v202h186z"/>
    <glyph glyph-name="uni2023" unicode="‣" horiz-adv-x="702" vert-adv-y="1433" d="M100 943l501 -321l-501 -320v641z"/>
    <glyph glyph-name="uni2024" unicode="․" horiz-adv-x="1024" vert-adv-y="1433" d="M669 313v-313h-313v313h313z"/>
    <glyph glyph-name="uni2031" unicode="‱" horiz-adv-x="2693" vert-adv-y="1433" d="M359 1460q121 0 208 -88.5t87 -213.5q0 -124 -87.5 -212.5t-211.5 -88.5t-212 88.5t-88 212.5q0 127 88 214.5t216 87.5zM352 1340q-73 0 -125.5 -53t-52.5 -128t53 -128t128 -53q74 0 127 53t53 128q0 76 -53 128.5t-130 52.5zM1024 1480h132l-792 -1520h-132zM1011 559 q122 0 209 -89t87 -212q0 -125 -88 -213.5t-212 -88.5t-212 88.5t-88 212.5q0 127 88 214.5t216 87.5zM1004 439q-73 0 -126 -53.5t-53 -127.5q0 -75 53.5 -128.5t128.5 -53.5t128 53t53 128q0 77 -53 129.5t-131 52.5zM1680 559q121 0 208.5 -89t87.5 -212 q0 -125 -88 -213.5t-212 -88.5q-125 0 -213 88t-88 213q0 127 88 214.5t217 87.5zM1673 439q-74 0 -127 -53.5t-53 -127.5q0 -75 53.5 -128.5t128.5 -53.5t128.5 53.5t53.5 127.5q0 77 -53.5 129.5t-130.5 52.5zM2348 559q122 0 209 -89t87 -212q0 -125 -88 -213.5 t-212 -88.5t-212 88t-88 213q0 127 88 214.5t216 87.5zM2342 439q-74 0 -126.5 -53.5t-52.5 -127.5q0 -75 53 -128.5t128 -53.5t128 53.5t53 127.5q0 77 -53 129.5t-130 52.5z"/>
    <glyph glyph-name="uni2070" unicode="⁰" horiz-adv-x="774" vert-adv-y="1433" d="M390 1462q193 0 266 -158q45 -97 45 -304q0 -177 -45 -275q-72 -158 -266 -158q-202 0 -274 157q-43 95 -43 279q0 209 44 303q74 156 273 156zM384 1358q-100 0 -140.5 -78.5t-40.5 -274.5q0 -143 26 -219q38 -114 160 -114q98 0 140 78t42 258q0 158 -26 236 q-38 114 -161 114z"/>
    <glyph glyph-name="uni2074" unicode="⁴" horiz-adv-x="774" vert-adv-y="1433" d="M705 896v-102h-124v-209h-119v209h-402v107l420 561h101v-566h124zM462 896v237q0 94 1 153q-78 -114 -89 -129l-119 -158q-11 -14 -82 -103h36h55h198z"/>
    <glyph glyph-name="uni2075" unicode="⁵" horiz-adv-x="774" vert-adv-y="1433" d="M649 1445v-107h-373l-31 -152q-11 -52 -17 -73q73 51 171 51q124 0 206 -71q93 -81 93 -219q0 -135 -91 -221t-234 -86q-136 0 -218.5 71.5t-85.5 192.5h126q6 -73 54.5 -116.5t124.5 -43.5q92 0 147 65q47 55 47 130q0 87 -54 140.5t-141 53.5q-112 0 -173 -83l-107 6 l89 462h467z"/>
    <glyph glyph-name="uni2076" unicode="⁶" horiz-adv-x="774" vert-adv-y="1433" d="M685 1224h-126q-20 134 -149 134q-189 0 -209 -299q81 93 215 93q130 0 211 -77.5t81 -202.5q0 -139 -86 -220q-91 -85 -221 -85q-161 0 -243.5 110.5t-82.5 326.5q0 221 87.5 339.5t251.5 118.5q121 0 192 -62.5t79 -175.5zM397 1048q-79 0 -128 -50.5t-49 -131.5 q0 -86 50 -140t131 -54q80 0 129 52t49 136q0 87 -48.5 137.5t-133.5 50.5z"/>
    <glyph glyph-name="uni2077" unicode="⁷" horiz-adv-x="773" vert-adv-y="1433" d="M703 1445v-100q-8 -10 -45 -50q-265 -298 -307 -710h-136q13 190 109.5 388.5t251.5 357.5h-480v114h607z"/>
    <glyph glyph-name="uni2078" unicode="⁸" horiz-adv-x="774" vert-adv-y="1433" d="M219 1054q-112 58 -112 179q0 101 78.5 165t201.5 64q136 0 212 -72q67 -64 67 -152q0 -120 -114 -184q150 -60 150 -210q0 -128 -86 -202.5t-233 -74.5q-144 0 -231 79q-80 72 -80 189q0 151 147 219zM385 1358q-66 0 -107 -36.5t-41 -93.5q0 -58 41.5 -94t108.5 -36 q68 0 108.5 35.5t40.5 94.5q0 61 -40.5 95.5t-110.5 34.5zM383 1000q-79 0 -130 -45.5t-51 -115.5q0 -73 52 -119t133 -46q92 0 141 53q44 47 44 111q0 73 -52 117.5t-137 44.5z"/>
    <glyph glyph-name="uni2079" unicode="⁹" horiz-adv-x="774" vert-adv-y="1433" d="M87 809h123q19 -137 161 -137q90 0 142.5 81t56.5 226q-77 -102 -216 -102q-127 0 -207 79.5t-80 206.5q0 132 86 215.5t223 83.5q199 0 279 -170q43 -93 43 -262q0 -168 -49 -275q-86 -188 -282 -188q-122 0 -197.5 65t-82.5 177zM370 1358q-77 0 -125 -53.5t-48 -138.5 t47.5 -134.5t127.5 -49.5q81 0 130 50t49 131q0 87 -46 138q-52 57 -135 57z"/>
    <glyph glyph-name="uni207A" unicode="⁺" horiz-adv-x="794" vert-adv-y="1433" d="M348 1163h97v-254h248v-86h-248v-254h-97v254h-248v86h248v254z"/>
    <glyph glyph-name="uni207B" unicode="⁻" horiz-adv-x="794" vert-adv-y="1433" d="M100 909h593v-86h-593v86z"/>
    <glyph glyph-name="uni207C" unicode="⁼" horiz-adv-x="794" vert-adv-y="1433" d="M100 998h593v-86h-593v86zM100 813h593v-86h-593v86z"/>
    <glyph glyph-name="uni207D" unicode="⁽" horiz-adv-x="458" vert-adv-y="1433" d="M308 1439h96q-146 -234 -146 -503q0 -265 146 -502h-96q-81 108 -127.5 242t-46.5 261q0 126 46.5 260t127.5 242z"/>
    <glyph glyph-name="uni207E" unicode="⁾" horiz-adv-x="458" vert-adv-y="1433" d="M150 1439q81 -106 127.5 -241t46.5 -261q0 -127 -46.5 -262t-127.5 -241h-96q146 236 146 502q0 128 -38.5 260.5t-107.5 242.5h96z"/>
    <glyph glyph-name="nsuperior" unicode="ⁿ" horiz-adv-x="691" vert-adv-y="1433" d="M80 1189h109v-87q78 106 209 106q82 0 140 -36q74 -46 74 -134v-468h-119v429q-9 123 -125 123q-77 0 -123 -57.5t-46 -153.5v-341h-119v619z"/>
    <glyph glyph-name="uni2080" unicode="₀" horiz-adv-x="774" vert-adv-y="1433" d="M390 877q193 0 266 -158q45 -97 45 -304q0 -177 -45 -275q-72 -158 -266 -158q-202 0 -274 157q-43 95 -43 279q0 209 44 303q74 156 273 156zM384 773q-100 0 -140.5 -78.5t-40.5 -274.5q0 -143 26 -219q38 -114 160 -114q98 0 140 78t42 258q0 158 -26 236 q-38 114 -161 114z"/>
    <glyph glyph-name="uni2081" unicode="₁" horiz-adv-x="774" vert-adv-y="1433" d="M522 877v-877h-136v625h-60h-64h-70h-37v93q124 -1 182 34t85 125h100z"/>
    <glyph glyph-name="uni2082" unicode="₂" horiz-adv-x="774" vert-adv-y="1433" d="M695 107v-107h-614q6 129 63 206.5t214 169.5q127 75 163 114q51 56 51 127q0 70 -47 113.5t-122 43.5q-164 0 -172 -218h-124q-1 19 -1 29q0 132 83 212.5t220 80.5q124 0 203 -62q90 -71 90 -198q0 -113 -86 -197q-54 -53 -198 -134q-108 -60 -144 -92t-59 -88h480z "/>
    <glyph glyph-name="uni2083" unicode="₃" horiz-adv-x="774" vert-adv-y="1433" d="M86 583q3 142 80.5 218t218.5 76q119 0 198 -61q79 -62 79 -170q0 -114 -112 -178q153 -54 153 -207q0 -125 -89.5 -202t-234.5 -77t-229 77t-84 210v15h123q3 -96 52.5 -146.5t139.5 -50.5q85 0 138.5 45.5t53.5 117.5q0 75 -52.5 116.5t-145.5 41.5q-34 0 -66 -4v103 q25 -2 42 -2q86 0 133.5 35.5t47.5 99.5q0 60 -42 96t-111 36q-166 0 -171 -189h-122z"/>
    <glyph glyph-name="uni2084" unicode="₄" horiz-adv-x="774" vert-adv-y="1433" d="M705 311v-102h-124v-209h-119v209h-402v107l420 561h101v-566h124zM462 311v237q0 95 1 154q-74 -109 -89 -130l-119 -157q-12 -15 -82 -104h36h55h198z"/>
    <glyph glyph-name="uni2085" unicode="₅" horiz-adv-x="774" vert-adv-y="1433" d="M649 860v-107h-373l-31 -152q-11 -52 -17 -73q73 51 171 51q124 0 206 -71q93 -81 93 -219q0 -135 -91 -221t-234 -86q-136 0 -218.5 71.5t-85.5 192.5h126q5 -73 54.5 -116.5t125.5 -43.5q82 0 137.5 55.5t55.5 139.5q0 87 -54 140.5t-141 53.5q-112 0 -173 -83l-107 6 l89 462h467z"/>
    <glyph glyph-name="uni2086" unicode="₆" horiz-adv-x="774" vert-adv-y="1433" d="M685 639h-126q-20 134 -149 134q-189 0 -209 -299q82 93 217 93q130 0 210 -77t80 -203q0 -139 -86 -220q-91 -85 -221 -85q-161 0 -243.5 110.5t-82.5 327.5q0 220 87.5 338.5t251.5 118.5q121 0 192 -62t79 -176zM397 463q-88 0 -139 -63q-38 -48 -38 -119 q0 -86 50.5 -140t130.5 -54t129 52t49 136q0 87 -48.5 137.5t-133.5 50.5z"/>
    <glyph glyph-name="uni2087" unicode="₇" horiz-adv-x="773" vert-adv-y="1433" d="M703 860v-100q-8 -10 -45 -50q-266 -298 -307 -710h-136q13 190 109.5 389t251.5 357h-480v114h607z"/>
    <glyph glyph-name="uni2088" unicode="₈" horiz-adv-x="774" vert-adv-y="1433" d="M219 469q-112 58 -112 179q0 101 80 166q78 63 200 63q136 0 212 -72q67 -64 67 -152q0 -120 -114 -184q150 -60 150 -210q0 -128 -86 -202.5t-233 -74.5q-144 0 -231 79q-80 72 -80 189q0 151 147 219zM385 773q-66 0 -107 -36.5t-41 -93.5q0 -58 41.5 -94t108.5 -36 q68 0 108.5 35.5t40.5 94.5q0 61 -40.5 95.5t-110.5 34.5zM383 415q-79 0 -130 -45.5t-51 -115.5q0 -72 52 -118.5t132 -46.5q93 0 142 53q44 47 44 111q0 73 -52 117.5t-137 44.5z"/>
    <glyph glyph-name="uni2089" unicode="₉" horiz-adv-x="774" vert-adv-y="1433" d="M87 224h123q8 -57 35 -86q46 -51 126 -51q90 0 142.5 81.5t56.5 225.5q-74 -102 -217 -102q-126 0 -206 79.5t-80 206.5q0 132 86 215.5t223 83.5q199 0 279 -170q43 -93 43 -261q0 -169 -49 -275q-86 -189 -282 -189q-122 0 -197.5 65.5t-82.5 176.5zM370 773 q-77 0 -125 -53.5t-48 -138.5t47.5 -134.5t127.5 -49.5q81 0 130 50t49 131q0 87 -46 138q-52 57 -135 57z"/>
    <glyph glyph-name="uni208A" unicode="₊" horiz-adv-x="794" vert-adv-y="1433" d="M348 594h97v-254h248v-86h-248v-254h-97v254h-248v86h248v254z"/>
    <glyph glyph-name="uni208B" unicode="₋" horiz-adv-x="794" vert-adv-y="1433" d="M100 340h593v-86h-593v86z"/>
    <glyph glyph-name="uni208C" unicode="₌" horiz-adv-x="794" vert-adv-y="1433" d="M100 428h593v-86h-593v86zM100 243h593v-86h-593v86z"/>
    <glyph glyph-name="uni208D" unicode="₍" horiz-adv-x="458" vert-adv-y="1433" d="M308 870h96q-146 -234 -146 -503q0 -266 146 -503h-96q-81 108 -127.5 242.5t-46.5 260.5q0 127 46.5 261t127.5 242z"/>
    <glyph glyph-name="uni208E" unicode="₎" horiz-adv-x="458" vert-adv-y="1433" d="M150 870q81 -106 127.5 -241t46.5 -262t-46.5 -262t-127.5 -241h-96q146 236 146 503q0 128 -38.5 260.5t-107.5 242.5h96z"/>
    <glyph glyph-name="uni20A0" unicode="₠" horiz-adv-x="1341" vert-adv-y="1433" d="M525 450q-139 3 -235 71q-196 139 -196 443q0 241 121.5 382t330.5 141q317 0 381 -323h-130q-40 211 -267 211q-144 0 -227 -109.5t-83 -299.5q0 -180 82.5 -289.5t222.5 -114.5v427h685v-112h-559v-315h539v-112h-539v-338h583v-112h-709v450z"/>
    <glyph glyph-name="uni20A1" unicode="₡" horiz-adv-x="1448" vert-adv-y="1433" d="M573 156q92 -37 187 -37q178 0 273.5 98t132.5 317h192q-69 -580 -594 -580q-164 0 -277 47l-55 -97l-90 49l54 97q-43 30 -72 59l-115 -205l-90 49l134 237q-157 203 -157 525q0 365 204 590q165 182 461 182q112 0 206 -26l93 166l90 -48l-87 -155q46 -24 77 -51 l143 254l90 -48l-160 -285q83 -116 115 -285h-192q-13 67 -27 100zM485 207l564 1004q-30 34 -73 58l-560 -996q27 -33 69 -66zM879 1305q-66 17 -134 17q-217 0 -332 -151q-131 -173 -131 -453q0 -200 72 -347z"/>
    <glyph glyph-name="uni20A2" unicode="₢" horiz-adv-x="1270" vert-adv-y="1433" d="M670 126v671h139v-171q118 198 255 198q24 0 57 -5v-153q-298 9 -300 -321v-223q136 20 228 109l140 -116q-155 -161 -429 -161q-286 0 -453 171q-211 218 -211 589q0 366 203 591q163 182 459 182q226 0 363 -101v-223q-150 159 -382 159q-211 0 -326 -151 q-131 -173 -131 -454q0 -364 210 -515q80 -58 178 -76z"/>
    <glyph glyph-name="afii08941" unicode="₤" horiz-adv-x="1170" vert-adv-y="1433" d="M356 931h424v-124h-363q74 -138 96 -212h267v-124h-260q-9 -87 -85 -188q-38 -49 -90 -95q-39 -34 -57 -51q81 38 127.5 50.5t106.5 12.5q55 0 94 -8.5t159 -46.5q38 -12 87 -12q108 0 196 73l87 -135q-50 -46 -127 -73t-158 -27q-56 0 -92 8t-140 42q-115 39 -196 39 q-54 0 -95.5 -16t-116.5 -65l-95 145q97 72 146 139q71 98 78 208h-231v124h211q-27 70 -108 212h-103v124h49q-17 69 -17 124q0 199 163 319q120 88 308 88q300 0 425 -218q57 -101 56 -249h-178q-6 103 -41 173q-32 66 -102.5 104t-161.5 38q-125 0 -206 -70t-81 -178 q0 -61 24 -131z"/>
    <glyph glyph-name="uni20A5" unicode="₥" horiz-adv-x="1671" vert-adv-y="1433" d="M1014 1027l121 219l90 -48l-66 -121q37 4 69 4q301 0 301 -293v-788h-168v724q-10 210 -195 210q-49 0 -98 -21l-149 -272v-641h-168v335l-270 -490l-90 49l360 653v177q-10 210 -195 210q-103 0 -175 -80t-72 -193v-661h-168v1051h154v-149q125 179 324 179 q193 0 282 -160q57 69 113 106z"/>
    <glyph glyph-name="uni20A6" unicode="₦" horiz-adv-x="1448" vert-adv-y="1433" d="M153 766h-145v102h145v594h202l381 -594h384v594h176v-594h152v-102h-152v-155h152v-102h-152v-509h-210l-324 509h-433v-509h-176v509h-145v102h145v155zM329 766v-155h368l-99 155h-269zM802 766l99 -155h219v155h-318zM533 868l-204 318v-318h204zM1120 509h-154 l154 -241v241z"/>
    <glyph glyph-name="peseta" unicode="₧" horiz-adv-x="1962" vert-adv-y="1433" d="M168 1433h419q126 0 199 -17t135 -61q165 -118 165 -342q0 -251 -167 -366q-64 -44 -131.5 -59.5t-192.5 -15.5h-252v-572h-175v1433zM343 1275v-557h236q160 0 232 55q98 75 98 229q0 159 -115 230q-41 25 -92 34t-150 9h-209zM1322 572v-102h-120v-313q0 -49 8.5 -60 t44.5 -11q28 0 67 11v-108q-50 -6 -91 -6q-102 0 -134 49q-14 20 -17 49t-3 127v262h-102v102h102v164h125v-164h120zM1893 383h-126q-6 43 -20 61q-32 39 -115 39q-109 0 -109 -62q0 -28 25.5 -41t124.5 -34q128 -27 180 -61q63 -41 63 -119q0 -86 -72 -138.5t-191 -52.5 q-269 0 -272 219h123q6 -52 26 -74q36 -41 124 -41q61 0 97.5 21t36.5 56t-48 55q-25 10 -191 47q-154 35 -154 154q0 79 66 127t177 48q123 0 185.5 -50t69.5 -154z"/>
    <glyph glyph-name="uni20A8" unicode="₨" horiz-adv-x="2082" vert-adv-y="1433" d="M187 921l-150 -13l-9 102l159 13v439h672q412 1 445 -345l142 11l9 -102l-153 -12q-19 -188 -228 -293q118 -48 156 -120.5t43 -259.5q4 -152 20 -205t68 -89v-47h-226q-43 94 -43 201l2 218q0 80 -54 144q-56 66 -187 66h-481v-629h-185v921zM372 936v-142h451 q109 2 165 25.5t90 81.5q22 38 30 96zM372 1039l735 61q-32 201 -284 197h-451v-258zM2024 601h-142q-6 136 -166 136q-178 0 -178 -131q0 -83 151 -118l129 -31q124 -31 172 -74q68 -61 68 -161q0 -121 -95 -194.5t-253 -73.5q-328 0 -339 289h142q12 -78 40 -108 q52 -57 167 -57q88 0 143 37t55 96q0 86 -131 118l-126 30q-154 42 -208 91.5t-54 147.5q0 123 85.5 193t235.5 70q145 0 224 -67.5t80 -192.5z"/>
    <glyph glyph-name="uni20A9" unicode="₩" horiz-adv-x="1893" vert-adv-y="1433" d="M1113 626h-319l-170 -626h-205l-160 626h-279v102h252l-39 154h-213v102h187l-123 478h209l111 -478h358l131 478h202l133 -478h360l108 478h208l-121 -478h132v-102h-158l-39 -154h197v-102h-223l-159 -626h-205zM1084 728l-43 154h-177l-42 -154h262zM1012 984l-61 217 l-59 -217h120zM388 882l35 -154h229l42 154h-306zM447 626l81 -350l96 350h-177zM1217 882l43 -154h229l35 154h-307zM1288 626l98 -350l80 350h-178z"/>
    <glyph glyph-name="newsheqelsign" unicode="₪" horiz-adv-x="1679" vert-adv-y="1433" d="M759 1154v-763q18 -272 286 -272q133 0 206 69t73 195v961h186v-988q-10 -122 -39.5 -186.5t-99.5 -118.5q-127 -97 -328 -97q-215 0 -342.5 109t-127.5 293v798h186zM387 -46h-186v1152q12 122 42 186.5t101 118.5q128 97 327 97q217 0 342 -107.5t125 -294.5v-798h-186 v771q-7 139 -80 200q-76 64 -199 64q-133 0 -209.5 -72.5t-76.5 -199.5v-1117z"/>
    <glyph glyph-name="dong" unicode="₫" horiz-adv-x="1115" vert-adv-y="1433" d="M990 1309h127v-107h-127v-1202h-149v119q-140 -165 -338 -165q-130 0 -237 72q-125 84 -179 253q-36 111 -36 250q0 266 137 417q121 135 313 135q197 0 322 -156v277h-301v107h301v153h167v-153zM525 917q-65 0 -125.5 -32.5t-99.5 -87.5q-75 -110 -75 -279 q0 -168 75 -279q82 -120 230 -120q145 0 222 120q71 111 71 278q0 171 -71 280q-79 120 -227 120zM938 -121v-140h-690v140h690z"/>
    <glyph glyph-name="Euro" unicode="€" horiz-adv-x="1368" vert-adv-y="1433" d="M398 972h605l-54 -166h-571q-3 -51 -3 -87q0 -24 2 -62h550l-54 -166h-475q83 -340 369 -340q231 0 293 174h217q-30 -156 -149 -248q-148 -114 -365 -114q-227 0 -380 137t-203 384l-1 7h-149l54 166h76q-2 44 -2 70q0 34 3 79h-131l54 166h96q97 528 623 528 q323 0 461 -199q41 -59 70 -186h-216q-32 107 -102.5 151.5t-207.5 44.5q-134 0 -216 -40.5t-136 -132.5q-39 -67 -58 -166z"/>
    <glyph glyph-name="uni20AF" unicode="₯" horiz-adv-x="1957" vert-adv-y="1433" d="M53 -4l127 152l46 -1q101 48 139 258l155 846q-135 -25 -187 -94.5t-53 -225.5l-170 -83q4 241 84 351q156 213 547 213q465 0 465 -523q0 -190 -66.5 -371.5t-183.5 -314.5q-151 -169 -398 -193q-134 -14 -505 -14zM381 149l160 8q206 11 333.5 213t127.5 517 q0 194 -64.5 286t-200.5 92h-49l-118 -685q-33 -189 -70.5 -275.5t-118.5 -155.5zM1032 -381l153 829q66 352 166 477q104 129 267 129q268 0 268 -336q0 -349 -201 -579q-123 -141 -280 -141q-53 0 -125 32l-75 -411h-173zM1313 212q57 -71 135 -71q106 0 180 155.5 t74 379.5q0 235 -120 235q-141 0 -193 -283z"/>
    <glyph glyph-name="uni20D2" unicode="⃒" horiz-adv-x="1095" vert-adv-y="1433" d="M630 1282v-1529h-166v1529h166z"/>
    <glyph glyph-name="uni20D3" unicode="⃓" horiz-adv-x="1095" vert-adv-y="1433" d="M630 1148v-1261h-166v1261h166z"/>
    <glyph glyph-name="uni2100" unicode="℀" horiz-adv-x="1586" vert-adv-y="1433" d="M1354 1338l-794 -1338h-131l805 1338h120zM710 645v-76q-48 -11 -77 -11q-111 0 -123 93q-118 -93 -250 -93q-112 0 -177 50.5t-65 136.5q0 122 131 169q50 18 235 38q122 13 122 69v27q-13 94 -165 94q-160 0 -172 -112h-118q11 205 294 205q277 0 277 -173v-370 q4 -49 63 -49q11 0 25 2zM506 905q-45 -17 -189 -34q-177 -22 -177 -116q0 -101 147 -101q89 0 154 41t65 97v113zM1608 444h-118q-21 137 -174 137q-96 0 -150 -66t-54 -184q0 -113 54.5 -176.5t151.5 -63.5q151 0 180 151h118q-11 -117 -89.5 -180.5t-211.5 -63.5 q-149 0 -237 90t-88 242q0 157 89.5 250.5t238.5 93.5q267 0 290 -230z"/>
    <glyph glyph-name="uni2101" unicode="℁" horiz-adv-x="2148" vert-adv-y="1433" d="M1479 1462l-614 -1462h-119l615 1462h118zM558 1465l366 -881h-151l-103 265h-377l-105 -265h-144l368 881h146zM629 956l-87 220q-42 105 -59 155q-19 -49 -59 -151l-89 -224h294zM1992 610h-132q-10 93 -63.5 135t-159.5 42q-96 0 -149 -36t-53 -101q0 -56 45.5 -81.5 t199.5 -56.5q168 -33 233 -72q114 -69 114 -190q0 -126 -98 -198t-269 -72q-185 0 -286 83t-101 237h132q3 -207 265 -207q110 0 165 42q54 42 54 108q0 45 -28.5 74.5t-91.5 49.5q-45 14 -195 46q-136 29 -191 67q-79 56 -79 163q0 118 89.5 186.5t243.5 68.5 q168 0 259 -73.5t96 -214.5z"/>
    <glyph glyph-name="uni2102" unicode="ℂ" horiz-adv-x="1449" vert-adv-y="1433" d="M634 134q72 -14 129 -14q181 0 288 105t131 308h177q-83 -560 -612 -560q-303 0 -477 197q-177 200 -177 537q0 365 208 572q179 180 464 180q241 0 388 -114.5t191 -336.5h-176q-81 304 -403 304q-63 0 -131 -15v-1163zM457 222v988q-36 -35 -51 -52 q-136 -152 -136 -440q0 -171 42.5 -283.5t144.5 -212.5z"/>
    <glyph glyph-name="uni2103" unicode="℃" horiz-adv-x="2049" vert-adv-y="1433" d="M359 1487q116 0 199 -84t83 -203q0 -120 -83.5 -203.5t-203.5 -83.5q-122 0 -204.5 83.5t-82.5 205.5q0 121 84 203t208 82zM350 1418q-83 0 -144 -65t-61 -153q0 -90 62 -154t148 -64q85 0 146.5 64.5t61.5 154.5t-62.5 153.5t-150.5 63.5zM1928 1009h-191 q-30 151 -105 221q-99 91 -288 91q-214 0 -329 -151q-132 -172 -132 -453q0 -270 127 -435q126 -163 349 -163q179 0 275 97.5t133 317.5h192q-69 -580 -598 -580q-286 0 -452 171q-212 218 -212 589q0 366 204 591q165 182 464 182q475 0 563 -478z"/>
    <glyph glyph-name="uni2104" unicode="℄" horiz-adv-x="1115" vert-adv-y="1433" d="M540 1238q273 -50 298 -343h-154q-20 153 -144 196v-722q126 46 155 218h154q-24 -312 -309 -365v-57h528v-165h-714v225q-151 34 -236.5 166t-85.5 330q0 202 85.5 338.5t236.5 173.5v229h186v-224zM354 378v704q-162 -74 -162 -360q0 -266 162 -344z"/>
    <glyph glyph-name="afii61248" unicode="℅" horiz-adv-x="585" vert-adv-y="1433" d="M295 851q54 0 93 -40t39 -94q0 -56 -39.5 -95.5t-95.5 -39.5t-95 39.5t-39 96.5q0 55 40 94t97 39z"/>
    <glyph glyph-name="uni2106" unicode="℆" horiz-adv-x="1607" vert-adv-y="1433" d="M1193 1338l-795 -1338h-131l805 1338h121zM620 982h-118q-22 137 -174 137q-96 0 -150 -66t-54 -184q0 -113 54.5 -176.5t151.5 -63.5q150 0 180 151h118q-11 -116 -90 -180t-211 -64q-149 0 -237 90t-88 242q0 157 89 250.5t238 93.5q269 0 291 -230zM1444 0h-105v88 q-94 -116 -245 -116q-108 0 -172 46.5t-64 125.5v487h117v-447q13 -124 152 -124q91 0 146 58.5t55 155.5v357h116v-631z"/>
    <glyph glyph-name="uni2107" unicode="ℇ" horiz-adv-x="1266" vert-adv-y="1433" d="M1156 1009h-191q-62 314 -374 314q-144 0 -209 -75q-62 -72 -62 -169q0 -111 76.5 -178.5t202.5 -67.5h66v-162h-79q-324 -4 -324 -267q0 -135 81.5 -210t228.5 -75q191 0 288 95t134 320h192q-69 -580 -602 -580q-258 0 -380 132q-124 133 -124 328q0 141 70.5 232 t197.5 115q-107 35 -165.5 121t-58.5 208q0 180 128.5 288.5t340.5 108.5q244 0 380.5 -115.5t182.5 -362.5z"/>
    <glyph glyph-name="uni2108" unicode="℈" horiz-adv-x="1448" vert-adv-y="1433" d="M1161 812q-18 169 -80 285q-120 224 -376 224q-174 0 -268 -74.5t-125 -237.5h-192q88 478 564 478q299 0 464 -182q204 -225 204 -591q0 -350 -179 -555t-485 -205q-531 0 -598 580h192q27 -163 81 -254q95 -161 327 -161q203 0 327.5 138.5t145.5 389.5h-592v165h590z "/>
    <glyph glyph-name="uni2109" unicode="℉" horiz-adv-x="1848" vert-adv-y="1433" d="M359 1462q116 0 199 -84t83 -203q0 -120 -83.5 -203.5t-203.5 -83.5q-122 0 -204.5 83.5t-82.5 205.5q0 121 84 203t208 82zM350 1393q-82 0 -143.5 -65t-61.5 -153q0 -90 61.5 -154t148.5 -64q85 0 146.5 64.5t61.5 154.5t-62.5 153.5t-150.5 63.5zM989 666v-666h-186 v1462h980v-165h-794v-466h698v-165h-698z"/>
    <glyph glyph-name="uni210A" unicode="ℊ" horiz-adv-x="1022" vert-adv-y="1433" d="M955 784l-212 -738q67 41 119 89l35 -57q-70 -60 -177 -114q-34 -157 -89 -222q-114 -133 -345 -133q-133 0 -209.5 37.5t-76.5 102.5q0 89 115 132q55 20 226 34q105 9 228 55l82 267q-93 -123 -148 -166q-120 -95 -224 -95q-74 0 -123 59t-49 149q0 135 67.5 281 t185.5 266q154 156 312 156q138 0 283 -103zM796 768q-71 60 -137 60q-113 0 -229 -166q-168 -242 -168 -443q0 -127 102 -127q81 0 170 87q85 82 128 167t92 265zM547 -102q-113 -38 -274 -68q-107 -21 -107 -86q0 -74 126 -74q181 0 235 160q6 18 20 68z"/>
    <glyph glyph-name="uni210B" unicode="ℋ" horiz-adv-x="1806" vert-adv-y="1433" d="M510 518l175 452q-21 -1 -36 -1q-52 0 -87 58q-37 61 -71 61q-46 0 -123 -93l-31 20q122 182 219 182q38 0 67 -45q45 -72 76 -72q32 0 85 38t191 160l25 -17l-264 -667l382 130l73 187q81 215 208 313q124 94 261 94q86 0 136 -46t50 -124q0 -160 -140 -271 q-100 -80 -394 -175l-212 -538q-17 -40 -17 -60q0 -45 44 -45q86 0 229 119l35 -46q-186 -157 -357 -157q-149 0 -149 121q0 35 27 105l166 421l-379 -127l-93 -241q-58 -151 -145 -216t-231 -65q-230 0 -230 174q0 116 110.5 196t399.5 175zM469 419q-186 -64 -249 -105 q-103 -68 -103 -147q0 -38 31.5 -67t72.5 -29q108 0 171 156zM1352 802q412 112 412 313q0 104 -101 104q-153 0 -245 -242z"/>
    <glyph glyph-name="uni210C" unicode="ℌ" horiz-adv-x="1754" vert-adv-y="1433" d="M378 447q-29 30 -29 59q0 13 2 28q2 14 2 24q0 50 -114 107q-96 49 -135 109t-39 158q0 170 95 276q107 119 292 119q324 0 324 -377v-230h372v301q0 71 20 119q25 60 141 121.5t205 61.5q68 0 125 -75q49 -64 49 -96q0 -24 -72 -51t-137 -27q-24 0 -25 30 q-8 119 -44 119q-57 0 -57 -167v-868q7 -193 48 -193q42 0 49 128q2 44 10 51.5t54 7.5q149 0 149 -37q0 -18 -78 -87q-202 -175 -297 -175q-35 0 -71 34.5t-54 83.5q-15 44 -15 162v469h-372v-102q-2 -152 -21 -225.5t-76 -143.5q-58 -71 -124.5 -115.5t-113.5 -44.5 q-33 0 -120 62q-40 29 -96 29q-32 0 -90 -21q31 88 93.5 144.5t128.5 56.5q53 0 101 -57q31 -36 47 -36q66 0 66 212v520q-9 300 -217 300q-85 0 -141 -54.5t-56 -137.5q0 -71 33.5 -113.5t127.5 -92.5q93 -50 126.5 -90t33.5 -104q0 -57 -47 -101q-37 -35 -53 -71z"/>
    <glyph glyph-name="uni210D" unicode="ℍ" horiz-adv-x="1450" vert-adv-y="1433" d="M293 1312h-95v-1312h-158v1470h412v-625h787v624h160v-1469h-160v707h-787v-707h-159v1312z"/>
    <glyph glyph-name="uni210E" unicode="ℎ" horiz-adv-x="1008" vert-adv-y="1433" d="M304 444q294 463 493 463q44 0 75 -35.5t31 -85.5q0 -58 -25 -145l-124 -426q-22 -79 -22 -108q0 -32 21 -32q48 0 144 140l30 -24q-65 -95 -142.5 -154.5t-135.5 -59.5q-75 0 -75 87q0 41 21 115l124 427q7 27 11 40q16 59 16 85q0 63 -51 63q-114 0 -318 -301 q-102 -151 -164 -364l-38 -129h-148l335 1173q24 79 24 111q0 54 -65 54l-45 -1v35l280 49h26z"/>
    <glyph glyph-name="uni210F" unicode="ℏ" horiz-adv-x="1008" vert-adv-y="1433" d="M496 1115l182 94l56 -82l-277 -147l-152 -536q291 463 492 463q43 0 74.5 -35.5t31.5 -85.5q0 -61 -25 -145l-124 -426q-23 -79 -23 -108q0 -32 21 -32q19 0 63.5 42.5t82.5 97.5l29 -24q-67 -96 -143.5 -155t-135.5 -59q-33 0 -54 25t-21 64q0 33 23 113l124 427 q6 27 10 40q16 61 16 85q0 27 -14.5 45t-36.5 18q-55 0 -137.5 -78t-180.5 -223q-61 -91 -93.5 -162.5t-70.5 -201.5l-37 -129h-149l253 885l-216 -115l-48 97l303 157l43 149q24 82 24 110q0 55 -65 55l-44 -1v35l280 49h26z"/>
    <glyph glyph-name="uni2110" unicode="ℐ" horiz-adv-x="1079" vert-adv-y="1433" d="M544 480l231 587q6 17 9 25q6 18 6 31q0 30 -42 30q-72 0 -166.5 -80.5t-181.5 -215.5l-44 30q303 431 580 431q90 0 90 -84q0 -46 -38 -142l-328 -838q-58 -151 -145 -216t-231 -65q-107 0 -168.5 44.5t-61.5 121.5q0 106 106.5 180t383.5 161zM516 419 q-192 -72 -265.5 -128t-73.5 -130q0 -89 96 -89q116 0 173 155z"/>
    <glyph glyph-name="uni2111" unicode="ℑ" horiz-adv-x="1213" vert-adv-y="1433" d="M352 552q-6 71 -32 107q-18 26 -34 40t-92 71q-117 87 -117 227q0 170 127 254q128 84 335 84q266 0 567 -104l-4 -31q-115 -80 -157 -124q-75 -78 -75 -159q0 -58 22 -97t110 -134q77 -84 110.5 -153t33.5 -141q0 -120 -76 -212q-62 -74 -213 -141q-138 -62 -212 -62 q-43 0 -123 39l-147 71q-67 28 -108 28q-46 0 -127 -31l-21 16q82 107 126.5 145.5t86.5 38.5q41 0 114 -35l208 -99q101 -50 156 -50q57 0 99 62t42 148q0 52 -18.5 96t-67.5 107l-130 168q-36 60 -49 97.5t-13 78.5q0 67 33 117t128 126q-137 41 -357 41q-324 0 -324 -144 q0 -53 46 -82q27 -17 142 -55q45 -15 74.5 -52t29.5 -78q0 -78 -93 -178z"/>
    <glyph glyph-name="uni2112" unicode="ℒ" horiz-adv-x="1562" vert-adv-y="1433" d="M444 887q70 -3 105 -3q42 0 128 4q58 134 104 201q80 115 218 183.5t291 68.5q114 0 165 -46q41 -38 41 -96q0 -260 -629 -373l-228 -567q89 -77 148 -105q91 -43 179 -43q166 0 366 129l41 -62q-247 -174 -470 -174q-87 0 -156.5 24t-178.5 91q-60 -48 -95 -69 q-92 -52 -203 -52q-82 0 -133 36q-70 50 -70 146q0 111 100 181q87 61 191 61q57 0 118 -26l171 411q-32 -1 -49 -1q-45 0 -174 9zM902 910q153 29 235 58q218 80 218 182q0 69 -99 69q-104 0 -197 -72.5t-139 -189.5zM420 250q-5 5 -11 10q-62 58 -126 58q-53 0 -91.5 -37 t-38.5 -88q0 -41 27 -65t74 -24q51 0 87 29.5t71 100.5q3 7 6 11q0 2 1 3v0l1 1v1v0z"/>
    <glyph glyph-name="afii61289" unicode="ℓ" horiz-adv-x="1097" vert-adv-y="1433" d="M541 580q-65 -352 -65 -447q0 -53 38 -53q28 0 50.5 25t55.5 91q20 41 44 41q31 0 31 -33q0 -46 -44 -118q-77 -125 -181 -125q-72 0 -114 52t-42 142q0 81 19 268q-35 -38 -71 -67t-46 -29q-11 0 -20.5 13t-9.5 27q0 23 41 61q43 39 122 131q75 401 175 655 q105 265 261 265q65 0 105.5 -49.5t40.5 -129.5q0 -191 -140 -417q-76 -122 -250 -303zM560 705q155 168 224 348q57 145 57 247q0 34 -15.5 56.5t-38.5 22.5q-60 0 -97 -100q-60 -160 -130 -574z"/>
    <glyph glyph-name="uni2114" unicode="℔" horiz-adv-x="1548" vert-adv-y="1433" d="M304 1327h236v135h166v-135h776v-140h-776v-278q116 172 324 172q198 0 317 -131q134 -146 134 -421q0 -254 -122 -414q-122 -161 -335 -161q-216 0 -334 181v-135h-150v1187h-236v-1187h-168v1187h-98v140h98v135h168v-135zM996 924q-131 0 -210.5 -111.5t-79.5 -295.5 q0 -185 80 -295.5t215 -110.5q138 0 222 111t84 294q0 187 -84.5 297.5t-226.5 110.5z"/>
    <glyph glyph-name="uni2115" unicode="ℕ" horiz-adv-x="1449" vert-adv-y="1433" d="M423 1021l-84 128h-4v-1149h-180v1432h202l755 -1162h4v1162h180v-1432h-208l-474 728v-728h-191v1021z"/>
    <glyph glyph-name="afii61352" unicode="№" horiz-adv-x="2742" vert-adv-y="1433" d="M1788 191v188h783v-188h-783zM2187 1248q191 0 319 -118q123 -113 123 -275q0 -171 -126 -286q-122 -111 -321 -111q-194 0 -320 104q-132 111 -132 286t122 284q130 116 335 116zM2176 1081q-92 0 -153 -57q-70 -66 -70 -172t71 -171q63 -57 157 -57q98 0 161.5 63.5 t63.5 161.5q0 106 -62.5 169t-167.5 63zM1591 1462v-1462h-269l-942 1186v-1186h-227v1462h260l951 -1194v1194h227z"/>
    <glyph glyph-name="uni2117" unicode="℗" horiz-adv-x="1666" vert-adv-y="1433" d="M688 653v-379h-114v894h370q72 -3 111.5 -14.5t76.5 -40.5q88 -70 88 -207q0 -118 -77 -189q-70 -64 -174 -64h-281zM688 754h238q175 7 175 157q0 73 -46 114.5t-129 41.5h-238v-313zM844 1489q205 0 390 -113q185 -114 283 -305q83 -165 83 -348q0 -216 -113 -401 q-112 -184 -305 -282q-165 -84 -348 -84q-215 0 -401 113q-184 113 -282 306q-84 164 -84 346q0 217 113 402q110 182 306 283q163 83 358 83zM825 1365q-168 0 -321 -95q-152 -95 -232 -256q-69 -138 -69 -291q0 -181 93 -336q93 -154 251 -236q136 -70 287 -70 q177 0 329 95q152 94 232 255q69 137 69 290q0 183 -92 337q-91 152 -252 237q-134 70 -295 70z"/>
    <glyph glyph-name="uni2118" unicode="℘" horiz-adv-x="1350" vert-adv-y="1433" d="M382 1075l29 -39q-99 -109 -140 -202.5t-41 -211.5q0 -90 40 -198q337 476 706 476q157 0 238 -112q70 -98 70 -262q0 -199 -96 -345q-121 -184 -348 -184q-146 0 -230 79q-90 84 -90 202q0 69 37.5 114.5t94.5 45.5q41 0 68 -29.5t27 -73.5q0 -65 -76 -89 q-30 -10 -30 -39q0 -47 46.5 -81t109.5 -34q69 0 129 40.5t97 110.5q65 124 65 282q0 125 -53 196q-49 65 -146 65q-138 0 -297 -122t-286 -323l185 -280q77 -122 77 -223q0 -114 -88 -176q-59 -42 -143 -42q-118 0 -189 79q-74 82 -74 204q0 142 93 326q-100 178 -100 344 q0 257 315 502zM216 160q-63 -135 -63 -241q0 -98 45 -153q51 -60 118 -60q35 0 59.5 24.5t24.5 60.5q0 66 -64 171z"/>
    <glyph glyph-name="uni2119" unicode="ℙ" horiz-adv-x="1540" vert-adv-y="1433" d="M454 1312h-106v-1312h-150v1469h821q232 0 345 -98q122 -105 122 -321q0 -213 -114.5 -315.5t-352.5 -102.5h-406v-632h-159v1312zM613 770h346q200 4 279 67q88 70 88 213q0 147 -87.5 214t-279.5 67h-346v-561z"/>
    <glyph glyph-name="uni211A" unicode="ℚ" horiz-adv-x="1524" vert-adv-y="1433" d="M1402 -6l-80 -100l-215 174q-169 -89 -346 -89q-339 0 -526 255q-145 198 -145 482q0 305 166 508q187 228 506 228q340 0 528 -255q145 -198 145 -479q0 -319 -165 -507l-57 -66zM619 131l15 -3q62 -15 126 -15q110 0 228 50l-166 132l83 96l190 -153q36 41 46 54 q129 164 129 423q0 274 -139.5 438.5t-372.5 164.5q-67 0 -139 -18v-1169zM455 216v1002q-46 -48 -63 -67q-137 -160 -137 -434q0 -312 200 -501z"/>
    <glyph glyph-name="uni211B" unicode="ℛ" horiz-adv-x="1508" vert-adv-y="1433" d="M719 620l-97 -266q-63 -157 -141 -232q-134 -126 -274 -126q-180 0 -180 179q0 320 253 655q171 225 411.5 361.5t466.5 136.5q297 0 297 -231q0 -167 -144 -291.5t-376 -158.5l-7 -1q32 -41 46 -108l63 -298q12 -89 29 -117.5t58 -28.5q63 0 141 94l49 -45 q-86 -89 -146.5 -123t-132.5 -34q-166 0 -196 157l-64 341q-17 95 -56 136zM670 1050q-260 -213 -404 -477q-127 -233 -127 -404q0 -100 57 -100q53 0 122.5 103t131.5 274zM755 718l109 7q108 21 161.5 47t105.5 81q107 114 107 250q0 143 -117 143q-177 0 -285 -302z"/>
    <glyph glyph-name="uni211C" unicode="ℜ" horiz-adv-x="1468" vert-adv-y="1433" d="M137 25l-37 12q36 108 83 157.5t114 49.5q57 0 125 -52q25 -19 43 -19q15 0 35.5 25t31.5 58q28 82 28 240v326q0 356 -215 356q-95 0 -153 -71q-48 -60 -48 -137q0 -87 69 -144q18 -15 139 -77q97 -51 97 -119q0 -79 -97 -196l-25 7q8 32 8 52q0 79 -125 149 q-103 57 -134 113q-36 65 -36 156q0 196 135 316q110 97 250 97q175 0 273 -147q140 144 316 144q140 0 228 -83q44 -42 70.5 -103.5t26.5 -122.5q0 -88 -69.5 -151.5t-225.5 -118.5q37 -24 52 -40.5t33 -50.5q26 -51 43 -118l63 -244q14 -60 34.5 -86t54.5 -26q18 0 49 15 l28 -32q-68 -86 -128 -124q-77 -49 -124 -49q-61 0 -98 147l-91 368q-21 100 -51 130.5t-109 30.5h-36v-126q1 -6 1 -7q0 -22 -8.5 -97t-12.5 -92q-38 -155 -139 -257q-93 -94 -186 -94q-45 0 -65 8.5t-96 61.5q-25 17 -57 17q-35 0 -64 -52zM764 743q163 39 239 79 q50 26 79 73t29 102q0 83 -58 136t-148 53q-51 0 -87.5 -12.5t-85.5 -46.5q22 -73 27.5 -122t5.5 -183q0 -26 -1 -79z"/>
    <glyph glyph-name="uni211D" unicode="ℝ" horiz-adv-x="1677" vert-adv-y="1433" d="M160 1470h931q198 0 310 -103t112 -284q0 -281 -249 -364v-26q122 -32 164.5 -106.5t54.5 -277.5q9 -136 20.5 -189t46.5 -120h-180q-26 40 -31 199q-5 160 -42 283q-47 154 -224 154h-479v-636h-165v1330h-104v-1330h-165v1470zM594 776h410q344 0 344 286 q0 126 -70.5 197t-196.5 71h-487v-554z"/>
    <glyph glyph-name="uni211E" unicode="℞" horiz-adv-x="1338" vert-adv-y="1433" d="M868 621l118 -182l115 174h207l-223 -315l198 -298h-209l-94 145l-96 -145h-200l201 289l-224 331h-292v-620h-186v1462h604q117 -4 182 -23.5t125 -66.5q144 -115 144 -338q0 -251 -203 -365q-71 -40 -167 -48zM369 785h390q284 13 284 256q0 120 -75.5 188t-208.5 68 h-390v-512z"/>
    <glyph glyph-name="uni211F" unicode="℟" horiz-adv-x="1448" vert-adv-y="1433" d="M676 629h-303v-629h-186v1462h673q87 -3 134 -11l5 15l-391 152l36 92l483 -187l-38 -99q217 -95 217 -354q0 -125 -53.5 -205.5t-178.5 -143.5q118 -47 156.5 -120.5t43.5 -259.5q4 -151 20 -205t68 -89v-47h-226q-43 96 -43 202l2 217q0 95 -66.5 152.5t-174.5 57.5 h-72l-285 -737l-92 35zM740 794l191 495q-49 8 -107 8h-451v-503h367zM1022 1252l-176 -458q139 6 202 65.5t63 185.5q0 141 -89 207z"/>
    <glyph glyph-name="uni2120" unicode="℠" horiz-adv-x="1793" vert-adv-y="1433" d="M1360 586h-142l-242 684v-684h-134v876h188l264 -726l265 726h181v-876h-134v684zM714 1205h-106q-4 179 -219 179q-89 0 -143 -41t-54 -108q0 -91 145 -130l220 -59q186 -60 186 -219q0 -124 -92 -196.5t-250 -72.5q-165 0 -254 78.5t-93 228.5h106q0 -208 248 -208 q223 0 223 159q0 99 -160 141l-219 58q-95 31 -133.5 77t-38.5 128q0 120 83.5 189t228.5 69q142 0 224 -62q98 -74 98 -195v-16z"/>
    <glyph glyph-name="uni2121" unicode="℡" horiz-adv-x="2006" vert-adv-y="1433" d="M676 1462v-111h-276v-767h-137v767h-275v111h688zM883 973v-277h491v-111h-630v877h608v-111h-469v-267h451v-111h-451zM1611 1462v-766h406v-111h-545v877h139z"/>
    <glyph glyph-name="uni2123" unicode="℣" horiz-adv-x="1354" vert-adv-y="1433" d="M420 460l-360 1002h200l259 -745l277 718l-390 152l35 92l483 -187l-355 -919l122 -349l404 1238h199l-507 -1462h-202l-114 318l-177 -458l-92 36z"/>
    <glyph glyph-name="uni2124" unicode="ℤ" horiz-adv-x="1552" vert-adv-y="1433" d="M1497 -2h-1439v149l905 1177h-836v140h1346v-149l-902 -1177h926v-140zM379 139l911 1186h-136l-909 -1186h134z"/>
    <glyph glyph-name="uni2125" unicode="℥" horiz-adv-x="1086" vert-adv-y="1433" d="M440 970h481v-169l-407 -260q185 -18 286 -85q185 -123 185 -410q0 -234 -129 -368t-353 -134q-190 0 -311.5 95.5t-151.5 269.5h168q73 -210 292 -210q147 0 226 88.5t79 252.5q0 347 -430 347q-32 0 -66 -1h-6h-1h-122v94l528 343h-528v149l528 343h-528v147h741v-169z "/>
    <glyph glyph-name="Ohm" unicode="Ω" horiz-adv-x="1461" vert-adv-y="1433" d="M61 0v158h392q-396 232 -396 641q0 336 252 547q182 152 421 152q240 0 422 -152q252 -211 252 -548q0 -409 -395 -640h392v-158h-573v147q143 79 229 181q164 194 164 439q0 275 -184 447q-132 124 -305 124q-174 0 -308 -124q-184 -172 -184 -445q0 -406 394 -622v-147 h-573z"/>
    <glyph glyph-name="uni2127" unicode="℧" horiz-adv-x="1528" vert-adv-y="1433" d="M1074 1322q386 -221 386 -632q0 -313 -230 -517q-196 -173 -466 -173t-466 173q-230 204 -230 516q0 412 386 633h-404v165h604v-156q-400 -217 -400 -618q0 -237 145 -393t365 -156q211 0 353 148q157 163 157 401q0 400 -400 618v156h603v-165h-403z"/>
    <glyph glyph-name="uni2128" unicode="ℨ" horiz-adv-x="1187" vert-adv-y="1433" d="M429 700q-151 45 -151 180q0 53 28.5 85t74.5 32q42 0 71.5 -28.5t29.5 -67.5q0 -33 -35 -55q-31 -20 -31 -32q0 -26 39.5 -42t103.5 -16q147 0 238 55q100 62 100 180q0 93 -63 162q-82 91 -237 91q-111 0 -195.5 -44.5t-172.5 -147.5l-39 26q157 279 480 279 q230 0 357 -136q94 -100 94 -245q0 -135 -96 -216q-49 -42 -143 -61q106 -42 157 -93q81 -83 81 -222q0 -157 -106 -265q-127 -131 -343 -131q-141 0 -272 55q-120 51 -146 59.5t-62 8.5q-46 0 -95 -35l-29 20q88 181 188 181q51 0 83 -14t171 -99q74 -44 144 -44 q118 0 180 79q62 78 62 181q0 128 -81 199q-85 76 -224 76q-148 0 -270 -117l-39 41q82 92 148 121z"/>
    <glyph glyph-name="uni2129" unicode="℩" horiz-adv-x="452" vert-adv-y="1433" d="M142 0v1051h168v-1051h-168z"/>
    <glyph glyph-name="uni212A" unicode="K" horiz-adv-x="1338" vert-adv-y="1433" d="M345 512v-512h-186v1462h186v-740l729 740h240l-597 -596l603 -866h-222l-514 750z"/>
    <glyph glyph-name="uni212B" unicode="Å" horiz-adv-x="1338" vert-adv-y="1433" d="M952 440h-565l-154 -440h-199l522 1462h241l513 -1462h-208zM899 597l-225 664l-240 -664h465zM672 1912q71 0 122.5 -51.5t51.5 -123.5q0 -73 -51.5 -124.5t-124.5 -51.5t-125 51.5t-52 123.5q0 74 52 125t127 51zM668 1825q-36 0 -62 -26t-26 -63q0 -36 26.5 -62 t63.5 -26t63 26t26 62q0 38 -26 63.5t-65 25.5z"/>
    <glyph glyph-name="uni212C" unicode="ℬ" horiz-adv-x="1481" vert-adv-y="1433" d="M1100 702q192 -67 192 -230q0 -203 -176 -340.5t-436 -137.5q-181 0 -263 76q-108 -74 -212 -74q-178 0 -178 179q0 320 253 655q171 225 411.5 361.5t466.5 136.5q297 0 297 -231q0 -138 -97 -246t-258 -149zM670 1050q-249 -187 -406 -475q-126 -233 -126 -407 q0 -102 63 -102q111 0 249 380zM727 640l-148 -401q-17 -52 -17 -88q0 -89 100 -89q132 0 258 112q142 127 142 297q0 89 -76.5 127.5t-258.5 41.5zM755 718l109 7q108 21 161.5 47t105.5 81q107 114 107 250q0 143 -117 143q-178 0 -285 -301z"/>
    <glyph glyph-name="uni212D" unicode="ℭ" horiz-adv-x="1323" vert-adv-y="1433" d="M534 621l160 94q63 -151 165 -151q28 0 45.5 20t17.5 52q0 44 -53 91l-132 117q-58 55 -80.5 98t-22.5 100q0 99 66.5 160.5t175.5 63.5q-61 10 -115 10q-173 0 -299 -117q-173 -161 -173 -479q0 -226 84 -390q53 -105 166 -168q110 -62 246 -62q126 0 231.5 47.5 t216.5 155.5l37 -36q-61 -81 -139 -134q-179 -121 -410 -121q-195 0 -358 93q-141 79 -215 214q-92 165 -92 374q0 340 218 531q196 172 455 172q118 0 291 -49q60 -17 98 -17q65 0 102 66h42q-12 -86 -62 -135t-126 -49q-47 0 -88 17q-43 19 -63 19q-45 0 -72.5 -35 t-27.5 -92q0 -41 15.5 -68.5t56.5 -62.5l104 -87q54 -48 75.5 -83.5t21.5 -78.5q0 -94 -78 -159q-103 -87 -251 -87q-171 0 -233 166z"/>
    <glyph glyph-name="estimated" unicode="℮" horiz-adv-x="1198" vert-adv-y="1433" d="M1064 503h-749v-213q31 -101 79 -144q78 -71 216 -71q240 0 336 210h88q-30 -94 -87 -160q-118 -138 -341 -138q-221 0 -344 143q-120 139 -120 381q0 256 133 399q129 138 334 138q170 0 291 -94q89 -69 125 -167.5t39 -283.5zM918 572v186q-17 49 -46 83 q-53 63 -115.5 91t-147.5 28q-137 0 -215 -83q-37 -38 -74 -119v-186h598z"/>
    <glyph glyph-name="uni212F" unicode="ℯ" horiz-adv-x="830" vert-adv-y="1433" d="M650 211l38 -28q-123 -118 -206.5 -163t-176.5 -45q-118 0 -191.5 81.5t-73.5 211.5q0 258 205 462q166 165 346 165q80 0 133 -42t53 -106q0 -87 -63.5 -165.5t-175.5 -129.5q-119 -55 -330 -65q-5 -53 -5 -94q0 -100 50.5 -159t136.5 -59q126 0 260 136zM220 437 q154 14 230 55q80 43 133.5 118t53.5 144q0 85 -80 85q-190 0 -337 -402z"/>
    <glyph glyph-name="uni2130" unicode="ℰ" horiz-adv-x="1287" vert-adv-y="1433" d="M425 195q84 129 210.5 203.5t260.5 74.5q73 0 119.5 -40.5t46.5 -103.5q0 -139 -193.5 -246.5t-442.5 -107.5q-209 0 -311 86q-88 75 -88 193q0 160 115 271.5t341 171.5q-136 50 -136 176q0 195 174 325t434 130q140 0 223 -48.5t83 -129.5q0 -132 -192 -245l-35 45 q134 87 134 180q0 53 -45.5 86t-119.5 33q-171 0 -309 -114.5t-138 -255.5q0 -81 54.5 -111t200.5 -30q22 0 64 1l-35 -108q-53 2 -84 2q-252 0 -381 -104q-134 -108 -134 -261q0 -187 253 -187q150 0 284.5 69t134.5 145q0 63 -89 63q-177 0 -361 -194z"/>
    <glyph glyph-name="uni2131" unicode="ℱ" horiz-adv-x="1443" vert-adv-y="1433" d="M800 720l113 290q-76 7 -170 55q-91 46 -149 46q-40 0 -70 -22t-30 -52q0 -52 73 -52q44 0 107 31l32 -25q-93 -101 -187 -101q-71 0 -113.5 36.5t-42.5 98.5q0 87 83 146.5t205 59.5q80 0 203 -45q70 -25 128 -25q50 0 81.5 13.5t137.5 79.5q76 47 147 47q14 0 42 -4 v-38q-61 -18 -116 -83q-79 -95 -141 -130l-127 -326h175v-88h-210l-87 -224q116 -85 116 -197q0 -117 -127 -226l-47 45q89 77 89 168q0 69 -67 120q-60 -153 -207.5 -242.5t-339.5 -89.5q-247 0 -247 173q0 125 163.5 214t392.5 89q30 0 89 -3l67 173h-427v88h461zM670 384 q-66 5 -84 5q-150 0 -279.5 -66.5t-129.5 -143.5q0 -95 113 -95q115 0 216 67.5t141 172.5z"/>
    <glyph glyph-name="uni2132" unicode="Ⅎ" horiz-adv-x="1226" vert-adv-y="1433" d="M858 796v666h186v-1462h-980v165h794v466h-698v165h698z"/>
    <glyph glyph-name="uni2133" unicode="ℳ" horiz-adv-x="1927" vert-adv-y="1433" d="M505 451l4 -48q-329 -66 -329 -252q0 -96 90 -96q113 0 237 188l586 889q120 187 253 187q23 0 23 -24q0 -6 -2 -11l-447 -1120q-23 -52 -23 -69q0 -20 14 -20t39 39l661 1018q120 187 253 187q23 0 23 -23q0 -6 -2 -12l-440 -1120q-16 -41 -16 -60q0 -45 44 -45 q85 0 228 119l35 -46q-186 -157 -356 -157q-149 0 -149 121q0 37 26 105l234 597l-461 -717q-73 -104 -189 -104q-135 0 -135 115q0 40 27 109l234 597l-341 -537q-96 -160 -178.5 -224.5t-191.5 -64.5q-99 0 -157.5 47t-58.5 127q0 131 128.5 215t336.5 90z"/>
    <glyph glyph-name="uni2134" unicode="ℴ" horiz-adv-x="920" vert-adv-y="1433" d="M585 895q118 0 193 -90.5t75 -232.5q0 -272 -220 -464q-151 -130 -299 -130q-118 0 -192.5 87.5t-74.5 225.5q0 262 190 448q158 156 328 156zM560 845q-101 0 -191 -124q-67 -93 -112.5 -236.5t-45.5 -264.5q0 -89 38 -140.5t103 -51.5q113 0 202 140q61 95 103.5 236 t42.5 248q0 87 -38.5 140t-101.5 53z"/>
    </font>
</defs>
</svg>
