<?xml version="1.0" encoding="UTF-8" standalone="no"?>
<!DOCTYPE svg PUBLIC "-//W3C//DTD SVG 1.1//EN" "http://www.w3.org/Graphics/SVG/1.1/DTD/svg11.dtd">
<svg xmlns="http://www.w3.org/2000/svg">
<metadata>
Created by FontForge 20120702 at Fri Feb 01 15:09:34 2013

(URW)++,Copyright 2010 by (URW)++ Design &amp; Development
</metadata>
<defs>
<font id="HiltiSmall-Roman" horiz-adv-x="1139" vert-adv-y="2048">
  <font-face font-family="Hilti Small Roman" font-weight="400" font-variant="small-caps" font-stretch="normal" units-per-em="2048" panose-1="0 0 0 0 0 0 0 0 0 0" ascent="1663" descent="-385" x-height="1060" cap-height="1462" bbox="-356 -548 2607 2177" underline-thickness="123" underline-position="-153" unicode-range="U+0020-299D"/>
<missing-glyph horiz-adv-x="569" vert-adv-y="1433" d="M57 0v1462h455v-1462h-455zM455 57v1348h-341v-1348h341z"/>
    <glyph glyph-name=".notdef" horiz-adv-x="569" vert-adv-y="1433" d="M57 0v1462h455v-1462h-455zM455 57v1348h-341v-1348h341z"/>
    <glyph glyph-name="glyph1" horiz-adv-x="0" vert-adv-y="0"/>
    <glyph glyph-name="glyph2" horiz-adv-x="569" vert-adv-y="1433"/>
    <glyph glyph-name="space" unicode=" " horiz-adv-x="569" vert-adv-y="1433"/>
    <glyph glyph-name="exclam" unicode="!" horiz-adv-x="530" vert-adv-y="1433" d="M363 1462v-448l-50 -650h-95l-48 650v448h193zM373 206v-206h-215v206h215z"/>
    <glyph glyph-name="quotedbl" unicode="&quot;" horiz-adv-x="872" vert-adv-y="1433" d="M665 874h-85l-29 588h144zM290 874h-84l-29 588h143z"/>
    <glyph glyph-name="numbersign" unicode="#" vert-adv-y="1433" d="M769 492l-58 -415h-115l58 415h-244l-58 -415h-116l59 415h-259l16 113h259l32 231h-259l16 113h259l54 382h115l-54 -382h244l54 382h115l-54 -382h269l-16 -113h-269l-32 -231h269l-16 -113h-269zM702 836h-244l-32 -231h244z"/>
    <glyph glyph-name="dollar" unicode="$" vert-adv-y="1433" d="M71 446h170q0 -304 275 -320v553q-418 71 -418 392q0 169 113.5 275.5t304.5 115.5v179h110v-179q189 -15 291.5 -115.5t100.5 -270.5h-168q-16 237 -224 245v-501q199 -51 265 -93q167 -108 167 -328q0 -185 -113.5 -293.5t-318.5 -120.5v-220h-110v220 q-221 16 -333.5 133t-111.5 328zM626 126q116 1 190 72.5t74 183.5q0 223 -264 273v-529zM516 1322q-119 -4 -184.5 -66.5t-65.5 -170.5q0 -195 250 -238v475z"/>
    <glyph glyph-name="percent" unicode="%" horiz-adv-x="2048" vert-adv-y="1433" d="M1504 1500l-819 -1570h-140l823 1570h136zM1531 793q153 0 235 -101t82 -289q0 -432 -334 -432q-328 0 -328 396q0 426 345 426zM1517 676q-174 0 -174 -298q0 -291 175 -291t175 296q0 293 -176 293zM542 1459q156 0 238 -100.5t82 -291.5q0 -429 -331 -429 q-330 0 -330 414q0 196 88.5 301.5t252.5 105.5zM530 1340q-174 0 -174 -297q0 -288 175 -288q179 0 179 306q0 279 -180 279z"/>
    <glyph glyph-name="ampersand" unicode="&amp;" horiz-adv-x="1290" vert-adv-y="1433" d="M1136 693q-3 -87 -33 -195.5t-67 -167.5l285 -330h-227l-156 184q-55 -95 -173.5 -155t-252.5 -60q-200 0 -323 113.5t-123 298.5q0 196 166 327q96 77 177 113q-159 191 -159 340q0 138 95 224t246 86q148 0 241 -85t93 -219q0 -232 -268 -380l265 -323q44 123 48 229 h166zM563 900q193 115 193 252q0 76 -47.5 126t-119.5 50q-73 0 -122 -46t-49 -114q0 -56 23.5 -99t121.5 -169zM504 709l-12 -6q-133 -76 -189 -148t-56 -167q0 -111 82.5 -190.5t198.5 -79.5q175 0 313 186z"/>
    <glyph glyph-name="quotesingle" unicode="'" horiz-adv-x="569" vert-adv-y="1433" d="M326 874h-84l-29 588h143z"/>
    <glyph glyph-name="parenleft" unicode="(" horiz-adv-x="530" vert-adv-y="1433" d="M550 1462q-272 -417 -272 -944q0 -499 272 -930h-134l-9 16q-171 273 -234 456q-76 224 -76 454q0 522 319 948h134z"/>
    <glyph glyph-name="parenright" unicode=")" horiz-adv-x="530" vert-adv-y="1433" d="M-20 -412q272 417 272 944q0 499 -272 930h134q8 -14 75 -121q244 -390 244 -805q0 -522 -319 -948h-134z"/>
    <glyph glyph-name="asterisk" unicode="*" horiz-adv-x="721" vert-adv-y="1433" d="M673 1211l-224 -78l135 -185l-84 -63l-142 195l-135 -195l-91 63l133 185l-217 78l36 101l219 -83v233h111v-233l218 83z"/>
    <glyph glyph-name="plus" unicode="+" horiz-adv-x="1229" vert-adv-y="1433" d="M139 787h406v405h139v-405h405v-139h-405v-407h-139v407h-406v139z"/>
    <glyph glyph-name="comma" unicode="," horiz-adv-x="569" vert-adv-y="1433" d="M401 219v-131q0 -178 -54.5 -269.5t-179.5 -123.5v103q114 38 119 202h-119v219h234z"/>
    <glyph glyph-name="hyphen" unicode="-" horiz-adv-x="797" vert-adv-y="1433" d="M647 633v-175h-497v175h497z"/>
    <glyph glyph-name="period" unicode="." horiz-adv-x="569" vert-adv-y="1433" d="M404 228v-228h-240v228h240z"/>
    <glyph glyph-name="slash" unicode="/" horiz-adv-x="682" vert-adv-y="1433" d="M788 1462l-747 -1874h-148l753 1874h142z"/>
    <glyph glyph-name="zero" unicode="0" vert-adv-y="1433" d="M575 1462q299 0 410 -260q70 -164 70 -509q0 -299 -70 -462q-110 -260 -409 -260q-261 0 -376.5 170.5t-115.5 554.5q0 351 69 508q113 258 422 258zM564 1310q-164 0 -230.5 -137t-66.5 -474q0 -242 41 -374q63 -202 265 -202q160 0 229.5 135.5t69.5 447.5 q0 332 -69.5 468t-238.5 136z"/>
    <glyph glyph-name="one" unicode="1" vert-adv-y="1433" d="M727 1462v-1462h-190v1060h-107h-103h-111h-47v132q191 0 284.5 60t136.5 210h137z"/>
    <glyph glyph-name="two" unicode="2" vert-adv-y="1433" d="M1000 158v-158h-951q10 207 99 333.5t334 279.5q204 128 262 196q84 96 84 222q0 123 -78 201t-202 78q-269 0 -284 -370h-175q-1 27 -1 38q0 218 129 351t340 133q193 0 315 -103q139 -117 139 -326q0 -166 -90.5 -280t-345.5 -267q-172 -105 -237 -170.5t-87 -158.5 l74 1h675z"/>
    <glyph glyph-name="three" unicode="3" vert-adv-y="1433" d="M92 990q6 226 126.5 349t336.5 123q192 0 310 -104t118 -274q0 -220 -201 -305q125 -31 195 -123t70 -224q0 -208 -138 -334.5t-364 -126.5q-230 0 -358 128t-127 357h173q5 -157 88.5 -245t226.5 -88q139 0 227.5 81t88.5 209q0 132 -87 206t-242 74q-49 0 -89 -6v147 q38 -3 62 -3q135 0 214 65.5t79 176.5q0 107 -70 172t-185 65q-131 0 -204.5 -83t-79.5 -237h-170z"/>
    <glyph glyph-name="four" unicode="4" vert-adv-y="1433" d="M1055 501v-146h-195v-355h-165v355h-638v162l661 945h142v-961h195zM695 501v415q0 165 3 302q-148 -231 -164 -253l-189 -268q-23 -33 -145 -196h82h88h325z"/>
    <glyph glyph-name="five" unicode="5" vert-adv-y="1433" d="M965 1435v-158h-589l-52 -269q-16 -85 -36 -165q102 115 294 115t318 -118q144 -133 144 -360q0 -225 -140.5 -367t-363.5 -142q-207 0 -338.5 117.5t-132.5 303.5h177q9 -118 92 -193.5t205 -75.5q136 0 227 98t91 244q0 152 -89 246.5t-232 94.5q-181 0 -281 -141 l-150 8l137 762h719z"/>
    <glyph glyph-name="six" unicode="6" vert-adv-y="1433" d="M1023 1084h-177q-35 228 -248 228t-299 -251q-33 -98 -47 -313q116 189 362 189q201 0 324.5 -128t123.5 -336q0 -227 -134 -362q-140 -140 -342 -140q-251 0 -379 183.5t-128 543.5q0 372 135.5 569t391.5 197q183 0 293 -100.5t124 -279.5zM578 785 q-130 0 -211.5 -89.5t-81.5 -231.5q0 -151 83.5 -246t216.5 -95q131 0 212.5 92t81.5 238q0 154 -81 243t-220 89z"/>
    <glyph glyph-name="seven" unicode="7" vert-adv-y="1433" d="M1042 1433v-154q-11 -14 -69 -80q-420 -502 -489 -1199h-192q23 322 166.5 638.5t406.5 626.5l-180 -2h-583v170h940z"/>
    <glyph glyph-name="eight" unicode="8" vert-adv-y="1433" d="M337 781q-95 39 -147.5 119t-52.5 187q0 165 121 270t312 105q189 0 309.5 -102.5t120.5 -263.5q0 -220 -200 -315q258 -91 258 -353q0 -211 -133 -334t-362 -123q-218 0 -350 121t-132 320q0 133 69 232.5t187 136.5zM566 1310q-109 0 -177.5 -65t-68.5 -167 q0 -104 69 -167.5t181 -63.5t179.5 63t67.5 168q0 108 -67.5 170t-183.5 62zM563 705q-130 0 -214.5 -81.5t-84.5 -206.5q0 -129 85.5 -211.5t217.5 -82.5q137 0 222.5 81.5t85.5 211.5q0 129 -86 209t-226 80z"/>
    <glyph glyph-name="nine" unicode="9" vert-adv-y="1433" d="M102 354h172q15 -110 85 -170.5t180 -60.5q156 0 241.5 149t87.5 423q-129 -200 -355 -200q-197 0 -320.5 131t-123.5 341q0 219 133 357t346 138q499 0 499 -714q0 -371 -134.5 -574t-379.5 -203q-185 0 -303 105t-128 278zM538 1310q-127 0 -206.5 -94.5t-79.5 -243.5 t78 -237t209 -88q134 0 216 87.5t82 231.5q0 156 -82 250t-217 94z"/>
    <glyph glyph-name="colon" unicode=":" horiz-adv-x="569" vert-adv-y="1433" d="M404 228v-228h-240v228h240zM404 1060v-228h-240v228h240z"/>
    <glyph glyph-name="semicolon" unicode=";" horiz-adv-x="569" vert-adv-y="1433" d="M401 1060v-219h-234v219h234zM401 221v-139q9 -324 -234 -385v102q116 45 118 201h-118v221h234z"/>
    <glyph glyph-name="less" unicode="&lt;" horiz-adv-x="1229" vert-adv-y="1433" d="M1090 1272v-190l-748 -347l747 -348v-188l-950 455v163z"/>
    <glyph glyph-name="equal" unicode="=" horiz-adv-x="1229" vert-adv-y="1433" d="M139 621h951v-139h-951v139zM139 951h951v-139h-951v139z"/>
    <glyph glyph-name="greater" unicode="&gt;" horiz-adv-x="1229" vert-adv-y="1433" d="M140 199v190l747 347l-747 347v189l950 -455v-164z"/>
    <glyph glyph-name="question" unicode="?" vert-adv-y="1433" d="M110 1012q7 186 73 288q127 196 389 196q198 0 316.5 -107t118.5 -287q0 -122 -41 -194t-198 -225q-77 -74 -99 -133t-22 -189h-170q2 180 35.5 251.5t191.5 233.5q116 118 116 243q0 114 -68 182.5t-182 68.5q-267 0 -288 -328h-172zM667 208v-208h-216v208h216z"/>
    <glyph glyph-name="at" unicode="@" horiz-adv-x="1638" vert-adv-y="1433" d="M1394 382h116q-63 -141 -182 -237q-215 -174 -484 -174q-364 0 -587 281q-160 200 -160 460q0 341 251 561q215 189 506 189q304 0 507 -204q170 -171 170 -412q0 -258 -198 -418q-140 -113 -280 -113q-57 0 -101 28t-58 74q-112 -102 -233 -102q-108 0 -177.5 79.5 t-69.5 202.5q0 174 110 327q139 193 317 193q143 0 205 -113l29 79h145l-183 -535q-19 -56 -19 -84q0 -55 66 -55q128 0 235 135t107 298q0 233 -182 385q-163 136 -388 136q-296 0 -487 -215q-160 -181 -160 -434q0 -265 178 -448q188 -193 461 -193q168 0 316.5 84 t229.5 225zM914 638l50 139q26 72 26 115q0 53 -33.5 91t-80.5 38q-104 0 -197 -128q-111 -153 -111 -338q0 -66 32.5 -106.5t85.5 -40.5q144 0 228 230z"/>
    <glyph glyph-name="A" unicode="A" horiz-adv-x="1327" vert-adv-y="1433" d="M774 1468l572 -1468h-215l-163 449h-614l-167 -449h-204l574 1468h217zM911 605l-145 389q-72 196 -103 296q-33 -94 -106 -289l-147 -396h501z"/>
    <glyph glyph-name="B" unicode="B" horiz-adv-x="1403" vert-adv-y="1433" d="M156 1462h588q214 0 312 -49q90 -45 142.5 -130.5t52.5 -186.5q0 -107 -57.5 -190t-158.5 -122q281 -75 281 -356q0 -203 -126.5 -315.5t-354.5 -112.5h-679v1462zM349 1294v-455h348q143 0 211 19q68 20 108.5 77t40.5 133q0 159 -133 207q-53 19 -208 19h-367zM349 683 v-515h386q200 0 269 35q118 60 118 218q0 178 -159 238q-62 24 -260 24h-354z"/>
    <glyph glyph-name="C" unicode="C" horiz-adv-x="1479" vert-adv-y="1433" d="M1398 551q-23 -274 -191.5 -429.5t-441.5 -155.5q-338 0 -522 239q-156 204 -156 524q0 345 190.5 556t502.5 211q301 0 474 -186q117 -128 132 -286h-194q-33 144 -143.5 226t-273.5 82q-262 0 -394 -213q-100 -162 -100 -388q0 -277 133 -439t360 -162 q187 0 297.5 108.5t134.5 312.5h192z"/>
    <glyph glyph-name="D" unicode="D" horiz-adv-x="1442" vert-adv-y="1433" d="M159 1462h525q166 0 272 -32.5t193 -110.5q215 -192 215 -557q0 -391 -206 -600q-90 -92 -188 -127t-264 -35h-547v1462zM352 1294v-1126h316q149 0 225.5 24.5t137.5 91.5q138 154 138 470q0 540 -481 540h-336z"/>
    <glyph glyph-name="E" unicode="E" horiz-adv-x="1251" vert-adv-y="1433" d="M1169 1462v-168h-820v-463h766v-156h-766v-507h831v-168h-1024v1462h1013z"/>
    <glyph glyph-name="F" unicode="F" horiz-adv-x="1176" vert-adv-y="1433" d="M1121 1462v-168h-768v-462h676v-156h-676v-676h-193v1462h961z"/>
    <glyph glyph-name="G" unicode="G" horiz-adv-x="1554" vert-adv-y="1433" d="M1428 772v-772h-123l-29 111q-12 45 -20 72q-176 -217 -470 -217q-352 0 -544 253q-155 204 -155 498q0 349 196 564t515 215q298 0 469 -176q127 -130 145 -307h-190q-21 144 -137 231.5t-286 87.5q-239 0 -378.5 -164t-139.5 -444q0 -273 140 -433.5t377 -160.5 q211 0 332 128.5t126 357.5h-468v156h640z"/>
    <glyph glyph-name="H" unicode="H" horiz-adv-x="1479" vert-adv-y="1433" d="M1318 1462v-1462h-193v685h-772v-685h-193v1462h193v-609h772v609h193z"/>
    <glyph glyph-name="I" unicode="I" horiz-adv-x="530" vert-adv-y="1433" d="M362 1462v-1462h-193v1462h193z"/>
    <glyph glyph-name="J" unicode="J" horiz-adv-x="1063" vert-adv-y="1433" d="M903 1462v-991q0 -227 -55 -324q-103 -181 -366 -181q-223 0 -330 112t-107 346q0 25 2 58h188v-18v-35q0 -161 57 -230t189 -69q130 0 179.5 73t49.5 266v993h193z"/>
    <glyph glyph-name="K" unicode="K" horiz-adv-x="1366" vert-adv-y="1433" d="M1349 1462l-618 -587l641 -875h-245l-532 743l-242 -230v-513h-193v1462h193v-576v-78l-1 -74q32 31 97 97l646 631h254z"/>
    <glyph glyph-name="L" unicode="L" vert-adv-y="1433" d="M1129 168v-168h-970v1462h193v-1294h777z"/>
    <glyph glyph-name="M" unicode="M" horiz-adv-x="1784" vert-adv-y="1433" d="M1623 1462v-1462h-185l2 655q1 359 23 651l-21 -59l-67 -190l-45 -121l-347 -936h-169l-364 925q-79 201 -127 367q20 -319 21 -630l2 -662h-185v1462h264l342 -892q92 -238 132 -370q47 147 128 367l328 895h268z"/>
    <glyph glyph-name="N" unicode="N" horiz-adv-x="1479" vert-adv-y="1433" d="M1326 1462v-1462h-213l-522 788q-199 300 -264 436q9 -108 12 -349l1 -137v-738h-184v1462h209l547 -832q165 -251 243 -400q-13 301 -13 501v731h184z"/>
    <glyph glyph-name="O" unicode="O" horiz-adv-x="1556" vert-adv-y="1433" d="M791 1496q300 0 494 -211q193 -209 193 -551q0 -305 -150 -506q-196 -262 -551 -262q-353 0 -550 264q-148 199 -148 500q0 354 192 555q202 211 520 211zM772 1332q-213 0 -355 -156q-144 -160 -144 -441q0 -264 121 -421q143 -184 387 -184q207 0 340 136 q163 166 163 463q0 274 -140 440q-138 163 -372 163z"/>
    <glyph glyph-name="P" unicode="P" horiz-adv-x="1327" vert-adv-y="1433" d="M160 1462h582q227 0 339 -78q168 -117 168 -342q0 -224 -122.5 -332.5t-376.5 -108.5h-397v-601h-193v1462zM353 1294v-537h372q159 0 232 53q98 73 98 221q0 153 -115 221q-71 42 -242 42h-345z"/>
    <glyph glyph-name="Q" unicode="Q" horiz-adv-x="1556" vert-adv-y="1433" d="M1454 -2l-99 -122l-224 178q-153 -88 -355 -88q-315 0 -510 218q-187 209 -187 547q0 341 194 554q192 211 504 211q323 0 514 -219q187 -214 187 -543q0 -379 -217 -582zM1116 262q168 176 168 473q0 265 -139 432q-137 165 -368 165q-227 0 -365.5 -164t-138.5 -432 q0 -255 113 -411q142 -195 398 -195q103 0 200 41l-161 129l101 121z"/>
    <glyph glyph-name="R" unicode="R" horiz-adv-x="1403" vert-adv-y="1433" d="M157 1462h668q184 0 288 -64q177 -110 177 -333q0 -274 -250 -359q106 -22 161 -105q33 -50 42 -95.5t28 -252.5q17 -188 57 -232l18 -21h-221q-22 32 -29 77.5t-15 210.5q-11 206 -81 276t-265 70h-385v-634h-193v1462zM350 1294v-504h364q197 0 274 45q108 63 108 212 q0 131 -77.5 189t-252.5 58h-416z"/>
    <glyph glyph-name="S" unicode="S" horiz-adv-x="1327" vert-adv-y="1433" d="M1194 1034h-186q-35 298 -366 298q-155 0 -242 -64t-87 -179q0 -102 73.5 -147.5t323.5 -99.5q264 -56 366 -121q175 -113 175 -310q0 -208 -152 -326.5t-418 -118.5q-285 0 -443.5 135.5t-160.5 381.5h187q4 -173 114.5 -263t316.5 -90q170 0 265.5 70.5t95.5 196.5 q0 113 -79.5 166t-342.5 115q-280 65 -356 112q-151 91 -151 287q0 194 138.5 306.5t377.5 112.5q258 0 401 -120t150 -342z"/>
    <glyph glyph-name="T" unicode="T" horiz-adv-x="1176" vert-adv-y="1433" d="M1176 1462v-168h-491v-1294h-193v1294h-491v168h1175z"/>
    <glyph glyph-name="U" unicode="U" horiz-adv-x="1479" vert-adv-y="1433" d="M1328 1462v-853q0 -180 -20 -267.5t-80 -172.5q-144 -203 -483 -203q-366 0 -511 228q-83 132 -83 418v850h193v-855q0 -227 53 -321q88 -156 350 -156q251 0 334 145q54 96 54 332v855h193z"/>
    <glyph glyph-name="V" unicode="V" horiz-adv-x="1251" vert-adv-y="1433" d="M1259 1462l-523 -1462h-220l-522 1462h214l308 -922l41 -130q43 -136 71 -247q40 145 117 377l309 922h205z"/>
    <glyph glyph-name="W" unicode="W" horiz-adv-x="1896" vert-adv-y="1433" d="M1877 1462l-390 -1462h-204l-247 895q-61 223 -89 383q-33 -154 -95 -372l-246 -906h-207l-379 1462h200l217 -897q53 -220 76 -366q23 139 86 371l244 892h212l250 -913q50 -181 80 -350q22 137 73 346l225 917h194z"/>
    <glyph glyph-name="X" unicode="X" horiz-adv-x="1251" vert-adv-y="1433" d="M1227 1462l-485 -709l514 -753h-235l-301 454q-51 77 -95 158q-37 -60 -100 -153l-308 -459h-221l515 753l-483 709h232l250 -383q97 -157 116 -195q58 98 124 195l259 383h218z"/>
    <glyph glyph-name="Y" unicode="Y" horiz-adv-x="1327" vert-adv-y="1433" d="M1326 1462l-564 -864v-598h-193v598l-569 864h233l344 -546q62 -99 95 -159q37 69 90 154l343 551h221z"/>
    <glyph glyph-name="Z" unicode="Z" horiz-adv-x="1251" vert-adv-y="1433" d="M1188 1462v-160l-831 -1032l-90 -107q235 5 268 5h675v-168h-1167v163l840 1043q11 14 81 93q-130 -5 -259 -5h-590v168h1073z"/>
    <glyph glyph-name="bracketleft" unicode="[" horiz-adv-x="530" vert-adv-y="1433" d="M533 1462v-137h-221v-1598h221v-139h-388v1874h388z"/>
    <glyph glyph-name="backslash" unicode="\" horiz-adv-x="682" vert-adv-y="1433" d="M-107 1462h142l753 -1874h-147z"/>
    <glyph glyph-name="bracketright" unicode="]" horiz-adv-x="530" vert-adv-y="1433" d="M-3 -412v139h221v1598h-221v137h388v-1874h-388z"/>
    <glyph glyph-name="asciicircum" unicode="^" horiz-adv-x="1229" vert-adv-y="1433" d="M308 814h-177l376 653h215l377 -653h-179l-307 523z"/>
    <glyph glyph-name="underscore" unicode="_" horiz-adv-x="1024" vert-adv-y="1433" d="M-36 -152h1097v-123h-1097v123z"/>
    <glyph glyph-name="grave" unicode="`" horiz-adv-x="455" vert-adv-y="1433" d="M-31 1499h215l152 -293h-121z"/>
    <glyph glyph-name="a" unicode="a" horiz-adv-x="1100" vert-adv-y="1433" d="M1069 140v-136q-61 -22 -125 -22q-147 0 -150 158q-148 -171 -384 -171q-156 0 -247 81t-91 220q0 209 199 289q72 29 326 60q106 13 146 43t40 96q0 187 -239 187q-126 0 -187 -51t-73 -166h-171q4 170 121.5 266.5t321.5 96.5q224 0 333 -105q72 -69 72 -273 q0 -184 -7 -413q-1 -48 -1 -71q0 -101 69 -101q21 0 47 12zM786 550q-57 -41 -234 -64q-174 -21 -237.5 -64t-63.5 -137q0 -83 56.5 -131.5t153.5 -48.5q190 0 291 142q34 47 34 145v158z"/>
    <glyph glyph-name="b" unicode="b" horiz-adv-x="1214" vert-adv-y="1433" d="M312 1462v-548q111 177 350 177q213 0 347 -152q131 -148 131 -404q0 -265 -140 -419q-133 -147 -349 -147q-246 0 -351 184v-153h-162v1462h174zM632 945q-150 0 -238 -113t-88 -305q0 -196 88 -302q92 -110 242 -110q147 0 236.5 114t89.5 302q0 191 -88.5 302.5 t-241.5 111.5z"/>
    <glyph glyph-name="c" unicode="c" horiz-adv-x="1100" vert-adv-y="1433" d="M1038 386q-27 -197 -149 -307t-314 -110q-232 0 -367.5 147t-135.5 399q0 287 157 440q139 136 352 136q195 0 312 -98t139 -278h-181q-46 230 -271 230q-151 0 -240 -112t-89 -303q0 -194 85 -304.5t234 -110.5q119 0 194.5 70.5t95.5 200.5h178z"/>
    <glyph glyph-name="d" unicode="d" horiz-adv-x="1214" vert-adv-y="1433" d="M1077 1462v-1462h-164v156q-97 -187 -347 -187q-226 0 -358.5 152t-132.5 411q0 260 131 407q135 152 346 152q253 0 351 -178v549h174zM573 945q-146 0 -233 -111t-87 -297q0 -193 89.5 -307.5t239.5 -114.5q151 0 238 110t87 301q0 215 -99 321q-92 98 -235 98z"/>
    <glyph glyph-name="e" unicode="e" horiz-adv-x="1100" vert-adv-y="1433" d="M1039 340q-83 -371 -464 -371q-257 0 -389 175q-112 149 -112 379q0 248 137 407q141 161 359 161q145 0 259 -73.5t171 -204.5q52 -119 51 -327h-798q12 -371 335 -371q208 0 280 225h171zM871 629q-12 149 -93 232.5t-213 83.5q-267 0 -310 -316h616z"/>
    <glyph glyph-name="f" unicode="f" horiz-adv-x="606" vert-adv-y="1433" d="M608 1467v-149q-54 11 -100 11q-79 0 -105 -29t-26 -118v-122h203v-143h-203v-917h-174v917h-178v143h178v70q0 180 41 240q73 105 241 105q53 0 123 -8z"/>
    <glyph glyph-name="g" unicode="g" horiz-adv-x="1176" vert-adv-y="1433" d="M1046 1060v-945q0 -235 -72 -354q-117 -194 -419 -194q-406 0 -446 313h179q32 -177 272 -177q185 0 256 105q58 86 58 244v129q-110 -195 -338 -195q-210 0 -337 147.5t-127 391.5q0 260 135 414q134 152 340 152q218 0 337 -185v154h162zM555 945q-149 0 -231 -123 q-73 -109 -73 -284q0 -228 114 -331q82 -74 194 -74q156 0 240 130q72 112 72 292q0 183 -84 286.5t-232 103.5z"/>
    <glyph glyph-name="h" unicode="h" vert-adv-y="1433" d="M304 1462v-428q0 -19 -4 -126q119 183 354 183q188 0 271.5 -95t83.5 -308v-688h-174v667q0 141 -34 191q-58 87 -198 87q-194 0 -266 -164q-33 -76 -33 -281v-500h-174v1462h174z"/>
    <glyph glyph-name="i" unicode="i" horiz-adv-x="455" vert-adv-y="1433" d="M315 1462v-214h-174v214h174zM315 1060v-1060h-174v1060h174z"/>
    <glyph glyph-name="j" unicode="j" horiz-adv-x="455" vert-adv-y="1433" d="M317 1060v-1087q0 -151 -6.5 -203t-30.5 -95q-58 -102 -230 -102q-39 0 -81 7v148q36 -8 64 -8q78 0 94 37t16 215v1088h174zM317 1462v-214h-174v214h174z"/>
    <glyph glyph-name="k" unicode="k" horiz-adv-x="1063" vert-adv-y="1433" d="M1035 1060l-421 -384l451 -676h-221l-364 554l-167 -152v-402h-174v1462h174v-718v-80v-72q50 53 72 73l417 395h233z"/>
    <glyph glyph-name="l" unicode="l" horiz-adv-x="455" vert-adv-y="1433" d="M315 1462v-1462h-174v1462h174z"/>
    <glyph glyph-name="m" unicode="m" horiz-adv-x="1747" vert-adv-y="1433" d="M292 1060v-154q144 185 348 185q215 0 293 -187q133 187 353 187q331 0 331 -360v-731h-174v668q0 128 -20 174q-44 103 -191 103q-179 0 -246 -156q-25 -58 -25 -228v-561h-174v680q0 145 -44.5 205t-153.5 60q-182 0 -254 -159q-31 -68 -31 -225v-561h-174v1060h162z "/>
    <glyph glyph-name="n" unicode="n" vert-adv-y="1433" d="M292 1060v-165q137 196 370 196q219 0 303 -155q44 -80 44 -251v-685h-174v624q0 178 -36 233q-58 87 -192 87q-195 0 -266 -160q-37 -83 -37 -271v-513h-174v1060h162z"/>
    <glyph glyph-name="o" unicode="o" horiz-adv-x="1176" vert-adv-y="1433" d="M597 1091q231 0 367.5 -152t136.5 -408q0 -283 -158 -436q-130 -126 -349 -126q-251 0 -388 162q-131 155 -131 399q0 234 118 382q141 179 404 179zM585 945q-150 0 -241 -113.5t-91 -300.5q0 -195 90.5 -305.5t249.5 -110.5q135 0 218 84q112 114 112 332 q0 193 -90 303.5t-248 110.5z"/>
    <glyph glyph-name="p" unicode="p" horiz-adv-x="1214" vert-adv-y="1433" d="M299 1060v-152q129 183 353 183q208 0 339 -137q149 -156 149 -431q0 -249 -130.5 -401.5t-344.5 -152.5q-231 0 -354 177v-558h-174v1472h162zM629 945q-149 0 -237 -112t-88 -301q0 -210 102 -320q91 -97 232 -97q146 0 230 103q94 115 94 304q0 194 -90 308.5 t-243 114.5z"/>
    <glyph glyph-name="q" unicode="q" horiz-adv-x="1214" vert-adv-y="1433" d="M1077 1060v-1472h-174v559q-123 -178 -356 -178q-217 0 -344.5 150t-127.5 404q0 276 147 430q131 138 342 138q238 0 351 -184v153h162zM573 945q-144 0 -232 -115.5t-88 -304.5q0 -188 88 -299t238 -111q153 0 241.5 112.5t88.5 305.5t-89 302.5t-247 109.5z"/>
    <glyph glyph-name="r" unicode="r" horiz-adv-x="682" vert-adv-y="1433" d="M683 1091v-182q-36 3 -56 3q-139 0 -229 -92q-59 -61 -80 -145.5t-21 -262.5v-412h-174v1060h162v-222q115 253 398 253z"/>
    <glyph glyph-name="s" unicode="s" horiz-adv-x="1024" vert-adv-y="1433" d="M918 752h-175q-27 193 -258 193q-217 0 -217 -147q0 -66 52 -96.5t231 -70.5q229 -52 319.5 -123t90.5 -199q0 -155 -120 -247.5t-320 -92.5q-442 0 -455 366h171q26 -220 285 -220q117 0 188.5 48t71.5 126q0 68 -54.5 105t-212.5 75q-241 59 -301 91q-124 66 -124 218 q0 144 109 228.5t294 84.5q398 0 425 -339z"/>
    <glyph glyph-name="t" unicode="t" horiz-adv-x="645" vert-adv-y="1433" d="M583 1060v-143h-211v-626q0 -105 21 -134t96 -29q45 0 94 13v-150q-65 -9 -134 -9q-169 0 -220 83q-21 34 -26 86t-5 238v528h-178v143h178v314h174v-314h211z"/>
    <glyph glyph-name="u" unicode="u" vert-adv-y="1433" d="M1011 1060v-1060h-162v165q-132 -196 -368 -196q-182 0 -267.5 97.5t-85.5 305.5v688h174v-625q0 -176 34 -231q56 -89 195 -89q179 0 264 157q42 77 42 275v513h174z"/>
    <glyph glyph-name="v" unicode="v" horiz-adv-x="1024" vert-adv-y="1433" d="M996 1060l-387 -1060h-187l-394 1060h193l190 -537q58 -162 112 -349q33 125 113 361l178 525h182z"/>
    <glyph glyph-name="w" unicode="w" horiz-adv-x="1552" vert-adv-y="1433" d="M1519 1060l-338 -1060h-186l-157 579q-32 116 -63 264q-32 -146 -62 -263l-151 -580h-189l-340 1060h193l147 -507q48 -166 95 -360q52 245 83 365l131 502h193l153 -564q28 -105 68 -303q40 180 75 300l166 567h182z"/>
    <glyph glyph-name="x" unicode="x" horiz-adv-x="1061" vert-adv-y="1433" d="M999 1060l-366 -488l410 -572h-223l-229 334q-37 54 -67 105l-70 -105l-225 -334h-212l398 558l-369 502h224l169 -240q24 -33 85 -130q63 93 91 131l173 239h211z"/>
    <glyph glyph-name="y" unicode="y" horiz-adv-x="1024" vert-adv-y="1433" d="M1008 1060l-390 -1025q-105 -277 -146 -342q-75 -120 -226 -120q-52 0 -102 12l-27 6v156q75 -23 118 -23q60 0 96 51t105 232l-420 1053h196l232 -621q24 -63 81 -245q52 163 86 261l213 605h184z"/>
    <glyph glyph-name="z" unicode="z" horiz-adv-x="983" vert-adv-y="1433" d="M913 1060v-115l-570 -710q-12 -15 -79 -93q65 1 131 1h544v-143h-895v129l555 691q17 21 89 98q-72 -1 -100 -1h-503v143h828z"/>
    <glyph glyph-name="braceleft" unicode="{" horiz-adv-x="682" vert-adv-y="1433" d="M287 523q120 -62 121 -254v-312q0 -135 43 -182.5t166 -49.5v-137h-15q-134 0 -193 15t-100 60q-68 74 -68 250v333q0 95 -28 141.5t-98 66.5v146q69 20 97.5 65.5t28.5 135.5v363q0 172 77 235t285 63h14v-137q-122 -4 -165.5 -52.5t-43.5 -179.5v-320 q0 -104 -26.5 -158.5t-94.5 -91.5z"/>
    <glyph glyph-name="bar" unicode="|" horiz-adv-x="455" vert-adv-y="1433" d="M132 1462h191v-1828h-191v1828z"/>
    <glyph glyph-name="braceright" unicode="}" horiz-adv-x="682" vert-adv-y="1433" d="M396 527q-120 62 -121 254v312q0 135 -43 182.5t-166 49.5v137h14q135 0 194.5 -15t99.5 -60q68 -74 68 -250v-333q0 -96 28 -142t98 -66v-147q-126 -35 -126 -200v-363q0 -172 -77 -235t-285 -63h-14v137q122 4 165.5 52.5t43.5 179.5v320q0 104 26.5 158t94.5 92z"/>
    <glyph glyph-name="asciitilde" unicode="~" horiz-adv-x="1229" vert-adv-y="1433" d="M189 523l-100 79q113 253 301 253q81 0 253 -85q144 -71 200 -71q108 0 198 160l100 -79q-112 -250 -319 -250q-65 0 -262 97q-116 57 -182 57q-99 0 -189 -161z"/>
    <glyph glyph-name="Adieresis" unicode="Ä" horiz-adv-x="1327" vert-adv-y="1433" d="M774 1468l572 -1468h-215l-163 449h-614l-167 -449h-204l574 1468h217zM911 605l-145 389q-72 196 -103 296q-33 -94 -106 -289l-147 -396h501zM985 1818v-202h-190v202h190zM534 1818v-202h-190v202h190z"/>
    <glyph glyph-name="Aring" unicode="Å" horiz-adv-x="1327" vert-adv-y="1433" d="M774 1468l572 -1468h-215l-163 449h-614l-167 -449h-204l574 1468h217zM911 605l-145 389q-72 196 -103 296q-33 -94 -106 -289l-147 -396h501zM669 2016q99 0 169 -77q60 -67 60 -156q0 -103 -77 -173q-66 -60 -156 -60q-105 0 -174 77q-60 66 -60 158q0 100 77 171 q66 60 161 60zM659 1911q-51 0 -88.5 -38t-37.5 -90q0 -53 37.5 -90.5t90.5 -37.5q55 0 93.5 37.5t38.5 91.5q0 52 -39 89.5t-95 37.5z"/>
    <glyph glyph-name="Ccedilla" unicode="Ç" horiz-adv-x="1479" vert-adv-y="1433" d="M791 -33l-69 -93q46 9 72 9q74 0 123.5 -40.5t49.5 -101.5q0 -84 -68 -136t-178 -52q-82 0 -199 42l35 76q71 -29 147 -29q105 0 105 85q0 75 -102 75q-31 0 -80 -13l-33 37l108 142q-280 17 -447.5 223.5t-167.5 537.5q0 345 190.5 556t502.5 211q301 0 474 -186 q117 -128 132 -286h-194q-33 144 -143.5 226t-273.5 82q-262 0 -394 -213q-100 -162 -100 -388q0 -277 133 -439t360 -162q187 0 297.5 108.5t134.5 312.5h192q-22 -265 -185.5 -422t-421.5 -162z"/>
    <glyph glyph-name="Eacute" unicode="É" horiz-adv-x="1251" vert-adv-y="1433" d="M1169 1462v-168h-820v-463h766v-156h-766v-507h831v-168h-1024v1462h1013zM933 1857l-254 -278h-143l167 278h230z"/>
    <glyph glyph-name="Ntilde" unicode="Ñ" horiz-adv-x="1479" vert-adv-y="1433" d="M1326 1462v-1462h-213l-522 788q-199 300 -264 436q9 -108 12 -349l1 -137v-738h-184v1462h209l547 -832q165 -251 243 -400q-13 301 -13 501v731h184zM1091 1841q-14 -109 -69 -170t-138 -61q-52 0 -141 34q-123 46 -158 46q-69 0 -96 -92h-98q13 109 69 168.5t144 59.5 q44 0 77.5 -10t146.5 -55q30 -12 65 -12q74 0 97 92h101z"/>
    <glyph glyph-name="Odieresis" unicode="Ö" horiz-adv-x="1556" vert-adv-y="1433" d="M791 1496q300 0 494 -211q193 -209 193 -551q0 -305 -150 -506q-196 -262 -551 -262q-353 0 -550 264q-148 199 -148 500q0 354 192 555q202 211 520 211zM772 1332q-213 0 -355 -156q-144 -160 -144 -441q0 -264 121 -421q143 -184 387 -184q207 0 340 136 q163 166 163 463q0 274 -140 440q-138 163 -372 163zM1099 1818v-202h-190v202h190zM648 1818v-202h-190v202h190z"/>
    <glyph glyph-name="Udieresis" unicode="Ü" horiz-adv-x="1479" vert-adv-y="1433" d="M1328 1462v-853q0 -180 -20 -267.5t-80 -172.5q-144 -203 -483 -203q-366 0 -511 228q-83 132 -83 418v850h193v-855q0 -227 53 -321q88 -156 350 -156q251 0 334 145q54 96 54 332v855h193zM1060 1818v-202h-190v202h190zM609 1818v-202h-190v202h190z"/>
    <glyph glyph-name="aacute" unicode="á" horiz-adv-x="1100" vert-adv-y="1433" d="M1069 140v-136q-61 -22 -125 -22q-147 0 -150 158q-148 -171 -384 -171q-156 0 -247 81t-91 220q0 209 199 289q72 29 326 60q106 13 146 43t40 96q0 187 -239 187q-126 0 -187 -51t-73 -166h-171q4 170 121.5 266.5t321.5 96.5q224 0 333 -105q72 -69 72 -273 q0 -184 -7 -413q-1 -48 -1 -71q0 -101 69 -101q21 0 47 12zM786 550q-57 -41 -234 -64q-174 -21 -237.5 -64t-63.5 -137q0 -83 56.5 -131.5t153.5 -48.5q190 0 291 142q34 47 34 145v158zM815 1499l-246 -293h-121l152 293h215z"/>
    <glyph glyph-name="agrave" unicode="à" horiz-adv-x="1100" vert-adv-y="1433" d="M1069 140v-136q-61 -22 -125 -22q-147 0 -150 158q-148 -171 -384 -171q-156 0 -247 81t-91 220q0 209 199 289q72 29 326 60q106 13 146 43t40 96q0 187 -239 187q-126 0 -187 -51t-73 -166h-171q4 170 121.5 266.5t321.5 96.5q224 0 333 -105q72 -69 72 -273 q0 -184 -7 -413q-1 -48 -1 -71q0 -101 69 -101q21 0 47 12zM786 550q-57 -41 -234 -64q-174 -21 -237.5 -64t-63.5 -137q0 -83 56.5 -131.5t153.5 -48.5q190 0 291 142q34 47 34 145v158zM299 1499h215l152 -293h-121z"/>
    <glyph glyph-name="acircumflex" unicode="â" horiz-adv-x="1100" vert-adv-y="1433" d="M1069 140v-136q-61 -22 -125 -22q-147 0 -150 158q-148 -171 -384 -171q-156 0 -247 81t-91 220q0 209 199 289q72 29 326 60q106 13 146 43t40 96q0 187 -239 187q-126 0 -187 -51t-73 -166h-171q4 170 121.5 266.5t321.5 96.5q224 0 333 -105q72 -69 72 -273 q0 -184 -7 -413q-1 -48 -1 -71q0 -101 69 -101q21 0 47 12zM786 550q-57 -41 -234 -64q-174 -21 -237.5 -64t-63.5 -137q0 -83 56.5 -131.5t153.5 -48.5q190 0 291 142q34 47 34 145v158zM864 1214h-177l-137 195l-145 -195h-157l212 292h188z"/>
    <glyph glyph-name="adieresis" unicode="ä" horiz-adv-x="1100" vert-adv-y="1433" d="M1069 140v-136q-61 -22 -125 -22q-147 0 -150 158q-148 -171 -384 -171q-156 0 -247 81t-91 220q0 209 199 289q72 29 326 60q106 13 146 43t40 96q0 187 -239 187q-126 0 -187 -51t-73 -166h-171q4 170 121.5 266.5t321.5 96.5q224 0 333 -105q72 -69 72 -273 q0 -184 -7 -413q-1 -48 -1 -71q0 -101 69 -101q21 0 47 12zM786 550q-57 -41 -234 -64q-174 -21 -237.5 -64t-63.5 -137q0 -83 56.5 -131.5t153.5 -48.5q190 0 291 142q34 47 34 145v158zM845 1451v-208h-186v208h186zM458 1451v-208h-186v208h186z"/>
    <glyph glyph-name="atilde" unicode="ã" horiz-adv-x="1100" vert-adv-y="1433" d="M1069 140v-136q-61 -22 -125 -22q-147 0 -150 158q-148 -171 -384 -171q-156 0 -247 81t-91 220q0 209 199 289q72 29 326 60q106 13 146 43t40 96q0 187 -239 187q-126 0 -187 -51t-73 -166h-171q4 170 121.5 266.5t321.5 96.5q224 0 333 -105q72 -69 72 -273 q0 -184 -7 -413q-1 -48 -1 -71q0 -101 69 -101q21 0 47 12zM786 550q-57 -41 -234 -64q-174 -21 -237.5 -64t-63.5 -137q0 -83 56.5 -131.5t153.5 -48.5q190 0 291 142q34 47 34 145v158zM877 1486q-12 -100 -56 -159q-52 -71 -132 -71q-47 0 -129 34q-112 46 -143 46 q-61 0 -84 -92h-93q12 109 63 168.5t132 59.5q39 0 69.5 -10t133.5 -56q27 -12 58 -12q65 0 85 92h96z"/>
    <glyph glyph-name="aring" unicode="å" horiz-adv-x="1100" vert-adv-y="1433" d="M1069 140v-136q-61 -22 -125 -22q-147 0 -150 158q-148 -171 -384 -171q-156 0 -247 81t-91 220q0 209 199 289q72 29 326 60q106 13 146 43t40 96q0 187 -239 187q-126 0 -187 -51t-73 -166h-171q4 170 121.5 266.5t321.5 96.5q224 0 333 -105q72 -69 72 -273 q0 -184 -7 -413q-1 -48 -1 -71q0 -101 69 -101q21 0 47 12zM786 550q-57 -41 -234 -64q-174 -21 -237.5 -64t-63.5 -137q0 -83 56.5 -131.5t153.5 -48.5q190 0 291 142q34 47 34 145v158zM556 1613q89 0 153.5 -65.5t64.5 -155.5q0 -92 -65 -157t-157 -65t-156.5 65 t-64.5 158q0 92 65.5 156t159.5 64zM547 1519q-51 0 -88 -37.5t-37 -90.5t37 -90t90 -37q55 0 93 37.5t38 90.5t-39 90t-94 37z"/>
    <glyph glyph-name="ccedilla" unicode="ç" horiz-adv-x="1100" vert-adv-y="1433" d="M600 -30l-69 -94q40 10 71 10q77 0 126 -41t49 -107q0 -81 -69.5 -131.5t-182.5 -50.5q-91 0 -192 42l38 74q70 -27 140 -27q48 0 79 23t31 59q0 34 -28.5 57t-71.5 23q-32 0 -79 -16l-35 37l109 144q-209 21 -326.5 164.5t-117.5 378.5q0 287 157 440q139 136 352 136 q195 0 312 -98t139 -278h-181q-46 230 -271 230q-151 0 -240 -112t-89 -303q0 -194 85 -304.5t234 -110.5q119 0 195 70.5t95 200.5h178q-25 -188 -142 -298.5t-296 -117.5z"/>
    <glyph glyph-name="eacute" unicode="é" horiz-adv-x="1100" vert-adv-y="1433" d="M1039 340q-83 -371 -464 -371q-257 0 -389 175q-112 149 -112 379q0 248 137 407q141 161 359 161q145 0 259 -73.5t171 -204.5q52 -119 51 -327h-798q12 -371 335 -371q208 0 280 225h171zM871 629q-12 149 -93 232.5t-213 83.5q-267 0 -310 -316h616zM837 1499 l-246 -293h-121l152 293h215z"/>
    <glyph glyph-name="egrave" unicode="è" horiz-adv-x="1100" vert-adv-y="1433" d="M1039 340q-83 -371 -464 -371q-257 0 -389 175q-112 149 -112 379q0 248 137 407q141 161 359 161q145 0 259 -73.5t171 -204.5q52 -119 51 -327h-798q12 -371 335 -371q208 0 280 225h171zM871 629q-12 149 -93 232.5t-213 83.5q-267 0 -310 -316h616zM306 1499h215 l152 -293h-121z"/>
    <glyph glyph-name="ecircumflex" unicode="ê" horiz-adv-x="1100" vert-adv-y="1433" d="M1039 340q-83 -371 -464 -371q-257 0 -389 175q-112 149 -112 379q0 248 137 407q141 161 359 161q145 0 259 -73.5t171 -204.5q52 -119 51 -327h-798q12 -371 335 -371q208 0 280 225h171zM871 629q-12 149 -93 232.5t-213 83.5q-267 0 -310 -316h616zM870 1214h-177 l-137 195l-145 -195h-157l212 292h188z"/>
    <glyph glyph-name="edieresis" unicode="ë" horiz-adv-x="1100" vert-adv-y="1433" d="M1039 340q-83 -371 -464 -371q-257 0 -389 175q-112 149 -112 379q0 248 137 407q141 161 359 161q145 0 259 -73.5t171 -204.5q52 -119 51 -327h-798q12 -371 335 -371q208 0 280 225h171zM871 629q-12 149 -93 232.5t-213 83.5q-267 0 -310 -316h616zM849 1451v-208 h-186v208h186zM462 1451v-208h-186v208h186z"/>
    <glyph glyph-name="iacute" unicode="í" horiz-adv-x="455" vert-adv-y="1433" d="M315 1060v-1060h-174v1060h174zM485 1499l-246 -293h-121l152 293h215z"/>
    <glyph glyph-name="igrave" unicode="ì" horiz-adv-x="455" vert-adv-y="1433" d="M315 1060v-1060h-174v1060h174zM-32 1499h215l152 -293h-121z"/>
    <glyph glyph-name="icircumflex" unicode="î" horiz-adv-x="455" vert-adv-y="1433" d="M316 1060v-1060h-174v1060h174zM537 1214h-177l-137 195l-145 -195h-157l212 292h188z"/>
    <glyph glyph-name="idieresis" unicode="ï" horiz-adv-x="455" vert-adv-y="1433" d="M316 1060v-1060h-174v1060h174zM464 1451v-208h-186v208h186zM179 1451v-208h-186v208h186z"/>
    <glyph glyph-name="ntilde" unicode="ñ" vert-adv-y="1433" d="M292 1060v-165q137 196 370 196q219 0 303 -155q44 -80 44 -251v-685h-174v624q0 178 -36 233q-58 87 -192 87q-195 0 -266 -160q-37 -83 -37 -271v-513h-174v1060h162zM888 1486q-12 -100 -56 -159q-52 -71 -132 -71q-47 0 -129 34q-112 46 -143 46q-61 0 -84 -92h-93 q12 109 63 168.5t132 59.5q39 0 69.5 -10t133.5 -56q27 -12 58 -12q65 0 85 92h96z"/>
    <glyph glyph-name="oacute" unicode="ó" horiz-adv-x="1176" vert-adv-y="1433" d="M597 1091q231 0 367.5 -152t136.5 -408q0 -283 -158 -436q-130 -126 -349 -126q-251 0 -388 162q-131 155 -131 399q0 234 118 382q141 179 404 179zM585 945q-150 0 -241 -113.5t-91 -300.5q0 -195 90.5 -305.5t249.5 -110.5q135 0 218 84q112 114 112 332 q0 193 -90 303.5t-248 110.5zM842 1499l-246 -293h-121l152 293h215z"/>
    <glyph glyph-name="ograve" unicode="ò" horiz-adv-x="1176" vert-adv-y="1433" d="M597 1091q231 0 367.5 -152t136.5 -408q0 -283 -158 -436q-130 -126 -349 -126q-251 0 -388 162q-131 155 -131 399q0 234 118 382q141 179 404 179zM585 945q-150 0 -241 -113.5t-91 -300.5q0 -195 90.5 -305.5t249.5 -110.5q135 0 218 84q112 114 112 332 q0 193 -90 303.5t-248 110.5zM331 1499h215l152 -293h-121z"/>
    <glyph glyph-name="ocircumflex" unicode="ô" horiz-adv-x="1176" vert-adv-y="1433" d="M597 1091q231 0 367.5 -152t136.5 -408q0 -283 -158 -436q-130 -126 -349 -126q-251 0 -388 162q-131 155 -131 399q0 234 118 382q141 179 404 179zM585 945q-150 0 -241 -113.5t-91 -300.5q0 -195 90.5 -305.5t249.5 -110.5q135 0 218 84q112 114 112 332 q0 193 -90 303.5t-248 110.5zM896 1214h-177l-137 195l-145 -195h-157l212 292h188z"/>
    <glyph glyph-name="odieresis" unicode="ö" horiz-adv-x="1176" vert-adv-y="1433" d="M597 1091q231 0 367.5 -152t136.5 -408q0 -283 -158 -436q-130 -126 -349 -126q-251 0 -388 162q-131 155 -131 399q0 234 118 382q141 179 404 179zM585 945q-150 0 -241 -113.5t-91 -300.5q0 -195 90.5 -305.5t249.5 -110.5q135 0 218 84q112 114 112 332 q0 193 -90 303.5t-248 110.5zM875 1451v-208h-186v208h186zM488 1451v-208h-186v208h186z"/>
    <glyph glyph-name="otilde" unicode="õ" horiz-adv-x="1176" vert-adv-y="1433" d="M597 1091q231 0 367.5 -152t136.5 -408q0 -283 -158 -436q-130 -126 -349 -126q-251 0 -388 162q-131 155 -131 399q0 234 118 382q141 179 404 179zM585 945q-150 0 -241 -113.5t-91 -300.5q0 -195 90.5 -305.5t249.5 -110.5q135 0 218 84q112 114 112 332 q0 193 -90 303.5t-248 110.5zM907 1486q-12 -100 -56 -159q-52 -71 -132 -71q-47 0 -129 34q-112 46 -143 46q-61 0 -84 -92h-93q12 109 63 168.5t132 59.5q39 0 69.5 -10t133.5 -56q27 -12 58 -12q65 0 85 92h96z"/>
    <glyph glyph-name="uacute" unicode="ú" vert-adv-y="1433" d="M1011 1060v-1060h-162v165q-132 -196 -368 -196q-182 0 -267.5 97.5t-85.5 305.5v688h174v-625q0 -176 34 -231q56 -89 195 -89q179 0 264 157q42 77 42 275v513h174zM829 1499l-246 -293h-121l152 293h215z"/>
    <glyph glyph-name="ugrave" unicode="ù" vert-adv-y="1433" d="M1011 1060v-1060h-162v165q-132 -196 -368 -196q-182 0 -267.5 97.5t-85.5 305.5v688h174v-625q0 -176 34 -231q56 -89 195 -89q179 0 264 157q42 77 42 275v513h174zM313 1499h215l152 -293h-121z"/>
    <glyph glyph-name="ucircumflex" unicode="û" vert-adv-y="1433" d="M1011 1060v-1060h-162v165q-132 -196 -368 -196q-182 0 -267.5 97.5t-85.5 305.5v688h174v-625q0 -176 34 -231q56 -89 195 -89q179 0 264 157q42 77 42 275v513h174zM878 1214h-177l-137 195l-145 -195h-157l212 292h188z"/>
    <glyph glyph-name="udieresis" unicode="ü" vert-adv-y="1433" d="M1011 1060v-1060h-162v165q-132 -196 -368 -196q-182 0 -267.5 97.5t-85.5 305.5v688h174v-625q0 -176 34 -231q56 -89 195 -89q179 0 264 157q42 77 42 275v513h174zM856 1451v-208h-186v208h186zM469 1451v-208h-186v208h186z"/>
    <glyph glyph-name="glyph130" horiz-adv-x="569" vert-adv-y="1433"/>
    <glyph glyph-name="degree" unicode="°" horiz-adv-x="819" vert-adv-y="1433" d="M415 1462q131 0 228 -101q89 -92 89 -221q0 -138 -96 -233q-94 -93 -225 -93q-144 0 -241 106q-84 92 -84 218q0 152 110 244q95 80 219 80zM404 1364q-81 0 -144 -59q-73 -70 -73 -167q0 -83 54 -148q66 -78 168 -78q91 0 156.5 66t65.5 157q0 95 -63 160 q-68 69 -164 69z"/>
    <glyph glyph-name="cent" unicode="¢" vert-adv-y="1433" d="M1057 598q-16 -169 -132 -289q-108 -112 -279 -121v-220h-110v221q-185 9 -302 140q-137 153 -137 413q0 306 186 458q107 87 253 103v180h110v-180q184 -11 292 -115q101 -99 119 -259h-184q-16 97 -74.5 156t-152.5 72v-824q110 13 176 105q46 65 62 160h173zM536 1152 q-100 -14 -167 -100q-89 -113 -89 -304q0 -189 78 -299q38 -53 78.5 -79t99.5 -35v817z"/>
    <glyph glyph-name="sterling" unicode="£" vert-adv-y="1433" d="M1076 996h-178q-19 314 -305 314q-125 0 -206 -70t-81 -177q0 -65 13.5 -102.5t94.5 -197.5h340v-124h-281q24 -72 24 -122q0 -119 -88 -234q-30 -38 -147 -146q134 63 234 63q79 0 253 -55q38 -12 87 -12q108 0 196 73l87 -135q-108 -100 -285 -100q-82 0 -232 50 q-115 39 -196 39q-88 0 -212 -81l-95 145q224 166 224 360q0 73 -39 155h-192v124h128q-96 163 -96 294q0 180 131 292.5t340 112.5q225 0 353.5 -124.5t127.5 -341.5z"/>
    <glyph glyph-name="section" unicode="§" vert-adv-y="1433" d="M948 1104h-172q-17 220 -210 220q-87 0 -141 -45.5t-54 -119.5q0 -84 91 -154q31 -24 260 -158q195 -114 260 -186q75 -83 75 -200q0 -208 -215 -307q64 -56 90 -110t26 -129q0 -137 -110 -236q-102 -91 -272 -91q-184 0 -293 101t-116 277h176q20 -230 238 -230 q97 0 151 56q48 49 48 114q0 72 -61.5 129t-264.5 174q-154 89 -206 124t-90 75q-87 92 -87 229q0 108 59.5 189t158.5 108q-94 97 -94 212q0 144 104.5 234t271.5 90q176 0 276.5 -97.5t100.5 -268.5zM385 847q-149 -66 -149 -195q0 -87 86 -154q51 -40 256 -157 q63 -35 161 -102q70 29 109.5 79.5t39.5 110.5q0 82 -68.5 141t-357.5 225q-50 28 -77 52z"/>
    <glyph glyph-name="bullet" unicode="•" horiz-adv-x="1024" vert-adv-y="1433" d="M519 1047q121 0 211 -88q89 -89 89 -216q0 -126 -89 -215t-215 -89q-124 0 -213 88q-91 90 -91 215q0 130 90 217q91 88 218 88z"/>
    <glyph glyph-name="paragraph" unicode="¶" horiz-adv-x="1229" vert-adv-y="1433" d="M498 -413v1104h-29q-120 0 -214 57q-79 47 -123 132q-45 87 -45 192q0 109 46 196.5t128 135.5q100 58 285 58h519v-117h-95v-1758h-142v1758h-188v-1758h-142z"/>
    <glyph glyph-name="germandbls" unicode="ß" vert-adv-y="1433" d="M462 127q40 -7 70 -7q147 0 231.5 85.5t84.5 234.5q0 207 -160 269q-69 27 -226 28v139h30q286 0 286 238q0 101 -64.5 162.5t-170.5 61.5q-146 0 -200 -92q-39 -68 -39 -261v-985h-174v955q0 168 12.5 239.5t53.5 130.5q108 159 350 159q188 0 299 -97.5t111 -261.5 q0 -113 -57 -195t-152 -106q133 -25 206 -124t73 -254q0 -209 -134.5 -339.5t-349.5 -130.5q-39 0 -80 7v144z"/>
    <glyph glyph-name="registered" unicode="®" horiz-adv-x="1638" vert-adv-y="1433" d="M482 1151h411q113 0 178 -37q111 -65 111 -196q0 -138 -125 -200q54 -21 81 -72q14 -26 18 -49.5t14 -132.5q10 -101 32 -124l28 -29h-162q-25 32 -29 108q-4 95 -12.5 135t-28.5 67q-34 45 -160 45h-220v-355h-136v840zM618 1036v-262h208q116 0 160 24q59 32 59 110 q0 69 -43.5 98.5t-144.5 29.5h-239zM831 1496q204 0 388 -113t281 -304q83 -165 83 -348q0 -216 -112 -400q-112 -183 -304 -281q-164 -84 -347 -84q-214 0 -398 112t-282 305q-84 164 -84 347q0 217 112 402q111 181 306 281q163 83 357 83zM812 1389q-173 0 -330 -97 t-240 -262q-71 -141 -71 -299q0 -185 96 -344q96 -158 260 -243q138 -71 293 -71q183 0 339 97q155 97 238 263q71 140 71 297q0 186 -95 345q-93 156 -258 242q-138 72 -303 72z"/>
    <glyph glyph-name="copyright" unicode="©" horiz-adv-x="1638" vert-adv-y="1433" d="M1201 641q-14 -165 -117 -256.5t-274 -91.5q-208 0 -321 138q-96 117 -96 300q0 197 117.5 318t309.5 121q156 0 259 -78t115 -207h-136q-19 83 -82 128t-159 45q-152 0 -228 -115q-59 -88 -59 -211q0 -151 77 -239t209 -88q222 0 250 236h135zM831 1496q204 0 388 -113 t281 -304q83 -165 83 -348q0 -216 -112 -400q-112 -183 -304 -281q-164 -84 -347 -84q-214 0 -398 112t-282 305q-84 164 -84 347q0 217 112 402q111 181 306 281q163 83 357 83zM812 1389q-173 0 -330 -97t-240 -262q-71 -141 -71 -299q0 -185 96 -344q96 -158 260 -243 q138 -71 293 -71q183 0 339 97q155 97 238 263q71 140 71 297q0 186 -95 345q-93 156 -258 242q-138 72 -303 72z"/>
    <glyph glyph-name="trademark" unicode="™" horiz-adv-x="2028" vert-adv-y="1433" d="M886 1462v-108h-294v-725h-130v725h-295v108h719zM1863 1462v-833h-126v374q0 168 11 314q-29 -76 -62 -160l-210 -528h-111l-221 522q-24 57 -58 150q9 -167 9 -294v-378h-124v833h169l208 -504q51 -124 72 -187q22 62 70 185l199 506h174z"/>
    <glyph glyph-name="acute" unicode="´" horiz-adv-x="455" vert-adv-y="1433" d="M486 1499l-246 -293h-121l152 293h215z"/>
    <glyph glyph-name="dieresis" unicode="¨" horiz-adv-x="455" vert-adv-y="1433" d="M514 1451v-208h-186v208h186zM127 1451v-208h-186v208h186z"/>
    <glyph glyph-name="notequal" unicode="≠" horiz-adv-x="1097" vert-adv-y="1433" d="M592 973l135 271l127 -56l-107 -215h277v-159h-344l-103 -210h447v-159h-508l-133 -268l-127 56l104 212h-287v159h348l104 210h-451v159h518z"/>
    <glyph glyph-name="AE" unicode="Æ" horiz-adv-x="1896" vert-adv-y="1433" d="M1828 1462v-168h-721v-463h679v-156h-679v-507h733v-168h-926v430h-503l-212 -430h-221l745 1462h1105zM914 586v712h-81l-345 -712h426z"/>
    <glyph glyph-name="Oslash" unicode="Ø" horiz-adv-x="1556" vert-adv-y="1433" d="M236 237q-143 199 -143 497q0 344 193 551q196 211 507 211q270 0 453 -156l161 175l89 -83l-166 -182q163 -223 163 -515q0 -306 -150 -507q-196 -262 -551 -262q-277 0 -475 179l-168 -184l-88 84zM365 378l759 828q-129 126 -333 126q-218 0 -359 -156 q-145 -160 -145 -438q0 -207 78 -360zM1202 1109l-763 -830q151 -149 357 -149q204 0 340 136q163 163 163 465q0 215 -97 378z"/>
    <glyph glyph-name="infinity" unicode="∞" horiz-adv-x="1462" vert-adv-y="1433" d="M734 656q-165 -242 -367 -242q-166 0 -258 119q-68 89 -68 216q0 183 139 273q86 56 189 56q198 0 360 -242q162 242 368 242q168 0 259 -123q65 -87 65 -210q0 -159 -103 -250q-91 -81 -220 -81q-205 0 -364 242zM798 746q73 -114 139 -163.5t146 -49.5q94 0 152 68 q50 58 50 145q0 111 -78 170q-56 43 -126 43q-79 0 -142 -47t-141 -166zM664 745q-74 115 -140 164.5t-145 49.5q-94 0 -152 -68q-50 -58 -50 -145q0 -112 78 -171q56 -43 126 -43q79 0 141.5 47t141.5 166z"/>
    <glyph glyph-name="plusminus" unicode="±" horiz-adv-x="1229" vert-adv-y="1433" d="M139 787h406v405h139v-405h405v-139h-405v-392h-139v392h-406v139zM139 183h951v-139h-951v139z"/>
    <glyph glyph-name="lessequal" unicode="≤" horiz-adv-x="1097" vert-adv-y="1433" d="M1024 1316v-179l-743 -286l742 -285v-179l-950 383v163zM1024 324v-167h-951v167h951z"/>
    <glyph glyph-name="greaterequal" unicode="≥" horiz-adv-x="1097" vert-adv-y="1433" d="M73 387v179l742 285l-742 286v179l951 -383v-163zM73 157v167h951v-167h-951z"/>
    <glyph glyph-name="yen" unicode="¥" vert-adv-y="1433" d="M780 831h253v-124h-320l-54 -108v-123h330v-124h-330v-352h-175v352h-336v124h336v123l-57 108h-323v124h257l-321 602h201l336 -674l331 674h190z"/>
    <glyph glyph-name="mu" unicode="µ" vert-adv-y="1433" d="M128 -365v1418h164v-592q0 -108 13 -157q23 -84 94.5 -138.5t159.5 -54.5q146 0 222 125q66 106 66 245v572h164v-1053h-164v197q-37 -95 -86 -143q-83 -82 -205 -82q-88 0 -150.5 37.5t-113.5 122.5v-497h-164z"/>
    <glyph glyph-name="partialdiff" unicode="∂" horiz-adv-x="1097" vert-adv-y="1433" d="M182 1324l22 145q186 -25 308 -77q273 -116 410 -389q107 -212 107 -477q0 -205 -87 -337q-71 -108 -184 -165q-97 -48 -208 -48q-163 0 -293 101q-72 56 -119 134q-69 117 -69 258q0 151 81 279q67 107 178 161q92 45 192 45q62 0 125.5 -18t102.5 -47q28 -20 94 -95 q-15 29 -73 164q-15 36 -62.5 96t-84.5 91q-87 72 -195.5 116t-244.5 63zM557 817q-48 0 -104.5 -20t-95.5 -51q-57 -44 -91.5 -121t-34.5 -158q0 -152 104 -255q93 -91 214 -91q109 0 197 74q118 99 118 280q0 174 -106 266q-87 76 -201 76z"/>
    <glyph glyph-name="summation" unicode="∑" horiz-adv-x="1462" vert-adv-y="1433" d="M1315 1645v-508h-165l-17 340h-857l545 -887l-544 -972h876l10 343h172v-509h-1260v193l533 945l-533 865v190h1240z"/>
    <glyph glyph-name="product" unicode="∏" horiz-adv-x="1462" vert-adv-y="1433" d="M57 1645h1347v-148h-161v-1898h161v-147h-489v147h164v1898h-696v-1898h161v-147h-487v147h163v1898h-163v148z"/>
    <glyph glyph-name="pi" unicode="π" horiz-adv-x="1231" vert-adv-y="1433" d="M201 0v922h-159v138h1146v-138h-157v-922h-170v922h-490v-922h-170z"/>
    <glyph glyph-name="glyph156" horiz-adv-x="569" vert-adv-y="1433"/>
    <glyph glyph-name="ordfeminine" unicode="ª" horiz-adv-x="774" vert-adv-y="1433" d="M713 651h-652v73h652v-73zM681 971v-90q-39 -12 -76 -12q-74 0 -92 73q-80 -81 -208 -81q-87 0 -137 40q-60 48 -60 128q0 118 117 162q42 16 184 33q57 6 77.5 20.5t20.5 46.5q0 93 -127 93q-69 0 -101 -26t-38 -89h-110q2 100 68.5 154.5t187.5 54.5q128 0 191 -58 q25 -23 34 -54t9 -94q0 -109 -3 -226q-1 -24 -1 -32q0 -31 6.5 -42t24.5 -11q12 0 33 10zM508 1167q-59 -21 -123 -28q-91 -10 -126.5 -32t-35.5 -69q0 -41 29.5 -65t81.5 -24q103 0 157 73q17 24 17 74v71z"/>
    <glyph glyph-name="ordmasculine" unicode="º" horiz-adv-x="786" vert-adv-y="1433" d="M719 651h-652v73h652v-73zM398 1478q133 0 211.5 -83.5t78.5 -224.5q0 -156 -91 -239q-76 -70 -201 -70q-143 0 -223 90q-75 85 -75 219q0 129 68 210q82 98 232 98zM392 1384q-82 0 -131 -58.5t-49 -155.5q0 -101 49 -158t135 -57q73 0 117 43q61 59 61 172 q0 100 -48.5 157t-133.5 57z"/>
    <glyph glyph-name="glyph159" horiz-adv-x="569" vert-adv-y="1433"/>
    <glyph glyph-name="ae" unicode="æ" horiz-adv-x="1782" vert-adv-y="1433" d="M1723 334q-40 -174 -162 -269.5t-305 -95.5q-273 0 -377 215q-127 -215 -430 -215q-175 0 -275.5 84t-100.5 231q0 149 99.5 224t330.5 101q213 24 254 45.5t41 107.5q0 181 -241 181q-131 0 -195.5 -52t-74.5 -167h-171q17 156 99 239q124 126 352 126q270 0 351 -161 q107 161 341 161q222 0 348 -145t126 -401q0 -17 -2 -57h-768q-1 -91 17 -152q65 -219 290 -219q213 0 280 219h173zM1552 629q-6 118 -57 193q-84 121 -240 121q-265 0 -295 -314h592zM795 548q-34 -26 -71.5 -35.5t-185.5 -27.5q-163 -20 -224.5 -61t-61.5 -130 q0 -189 227 -189q143 0 229.5 75t86.5 199v169z"/>
    <glyph glyph-name="oslash" unicode="ø" horiz-adv-x="1176" vert-adv-y="1433" d="M183 170q-102 149 -102 362q0 232 118 381q141 178 395 178q199 0 330 -107l116 130l81 -75l-121 -134q108 -148 108 -375q0 -281 -158 -435q-130 -126 -347 -126q-210 0 -346 116l-123 -137l-80 76zM305 302l509 561q-89 82 -218 82q-153 0 -245 -112t-92 -297 q0 -139 46 -234zM880 773l-512 -565q94 -93 234 -93q133 0 216 84q112 114 112 331q0 141 -50 243z"/>
    <glyph glyph-name="questiondown" unicode="¿" vert-adv-y="1433" d="M1033 50q-9 -189 -73 -289q-126 -197 -389 -197q-199 0 -317 107.5t-118 288.5q0 122 41 193.5t198 224.5q77 73 99 132t22 189h170q-3 -180 -36.5 -251.5t-190.5 -232.5q-116 -118 -116 -242q0 -115 68 -184t182 -69q267 0 288 330h172zM475 852v208h216v-208h-216z"/>
    <glyph glyph-name="exclamdown" unicode="¡" horiz-adv-x="530" vert-adv-y="1433" d="M170 -402v448l50 652h95l48 -652v-448h-193zM158 854v206h215v-206h-215z"/>
    <glyph glyph-name="logicalnot" unicode="¬" horiz-adv-x="1229" vert-adv-y="1433" d="M905 0v445h-765v167h950v-612h-185z"/>
    <glyph glyph-name="radical" unicode="√" horiz-adv-x="1462" vert-adv-y="1433" d="M1462 1813v-152h-418l-486 -1661h-199l-182 636h-177v152h284l90 -300q8 -27 62 -263l8 -35h9q9 41 48 193l58 226l105 356l247 848h551z"/>
    <glyph glyph-name="florin" unicode="ƒ" vert-adv-y="1433" d="M877 1000l-23 -124h-211l-147 -863q-26 -151 -52 -221t-74 -119q-45 -45 -102 -65t-141 -20q-52 0 -123 6l25 159q44 -4 74 -4q108 0 145 49q38 52 65 202l152 876h-187l22 124h187l44 259q26 150 77 222q45 65 112.5 95t169.5 30q54 0 119 -7l-29 -158q-49 13 -91 13 q-79 0 -120.5 -47t-61.5 -159l-45 -248h215z"/>
    <glyph glyph-name="glyph167" horiz-adv-x="569" vert-adv-y="1433"/>
    <glyph glyph-name="Delta" unicode="Δ" horiz-adv-x="1441" vert-adv-y="1433" d="M19 0l596 1462h206l601 -1462h-1403zM719 1225l-423 -1055h846z"/>
    <glyph glyph-name="guillemotleft" unicode="«" horiz-adv-x="948" vert-adv-y="1433" d="M818 881v-177l-206 -156l206 -161v-174l-313 246v178zM419 882v-176l-212 -156l212 -161v-180l-319 253v175z"/>
    <glyph glyph-name="guillemotright" unicode="»" horiz-adv-x="948" vert-adv-y="1433" d="M530 882l319 -255v-173l-319 -245v175l210 155l-210 163v180zM131 878l311 -247v-175l-311 -244v175l205 155l-205 160v176z"/>
    <glyph glyph-name="glyph171" horiz-adv-x="569" vert-adv-y="1433"/>
    <glyph glyph-name="glyph172" vert-adv-y="1139"/>
    <glyph glyph-name="Agrave" unicode="À" horiz-adv-x="1327" vert-adv-y="1433" d="M774 1468l572 -1468h-215l-163 449h-614l-167 -449h-204l574 1468h217zM911 605l-145 389q-72 196 -103 296q-33 -94 -106 -289l-147 -396h501zM361 1857h230l167 -278h-143z"/>
    <glyph glyph-name="Atilde" unicode="Ã" horiz-adv-x="1327" vert-adv-y="1433" d="M774 1468l572 -1468h-215l-163 449h-614l-167 -449h-204l574 1468h217zM911 605l-145 389q-72 196 -103 296q-33 -94 -106 -289l-147 -396h501zM1014 1841q-14 -109 -69 -170t-138 -61q-52 0 -141 34q-123 46 -158 46q-69 0 -96 -92h-98q13 109 69 168.5t144 59.5 q44 0 77.5 -10t146.5 -55q30 -12 65 -12q74 0 97 92h101z"/>
    <glyph glyph-name="Otilde" unicode="Õ" horiz-adv-x="1556" vert-adv-y="1433" d="M791 1496q300 0 494 -211q193 -209 193 -551q0 -305 -150 -506q-196 -262 -551 -262q-353 0 -550 264q-148 199 -148 500q0 354 192 555q202 211 520 211zM772 1332q-213 0 -355 -156q-144 -160 -144 -441q0 -264 121 -421q143 -184 387 -184q207 0 340 136 q163 166 163 463q0 274 -140 440q-138 163 -372 163zM1129 1841q-14 -109 -69 -170t-138 -61q-52 0 -141 34q-123 46 -158 46q-69 0 -96 -92h-98q13 109 69 168.5t144 59.5q44 0 77.5 -10t146.5 -55q30 -12 65 -12q74 0 97 92h101z"/>
    <glyph glyph-name="OE" unicode="Œ" horiz-adv-x="2200" vert-adv-y="1433" d="M2106 1462v-168h-782v-463h716v-156h-716v-507h794v-168h-974v149q-155 -177 -401 -177q-322 0 -508 242q-158 205 -158 513q0 339 189 550q191 213 489 213q266 0 391 -155v127h960zM1131 437v593q0 74 -9.5 105t-44.5 71q-108 121 -300 121q-248 0 -390 -193 q-116 -159 -116 -397q0 -270 135.5 -435.5t356.5 -165.5q164 0 266 83.5t102 217.5z"/>
    <glyph glyph-name="oe" unicode="œ" horiz-adv-x="1825" vert-adv-y="1433" d="M1758 337q-36 -172 -159 -270t-303 -98q-280 0 -377 218q-90 -218 -368 -218q-222 0 -350.5 150.5t-128.5 411.5q0 252 124 401q133 159 363 159q265 0 368 -198q117 198 368 198q227 0 351 -148t124 -419v-38h-769q-1 -16 -1 -24q0 -156 84 -251.5t222 -95.5 q208 0 280 222h172zM1589 629q-6 115 -48 180q-86 136 -248 136q-128 0 -206.5 -83.5t-89.5 -232.5h592zM548 945q-139 0 -218.5 -111t-79.5 -305q0 -190 77 -300q80 -114 228 -114q292 0 292 428q0 402 -299 402z"/>
    <glyph glyph-name="endash" unicode="–" horiz-adv-x="1024" vert-adv-y="1433" d="M950 633v-175h-877v175h877z"/>
    <glyph glyph-name="emdash" unicode="—" horiz-adv-x="2048" vert-adv-y="1433" d="M2048 633v-175h-2048v175h2048z"/>
    <glyph glyph-name="quotedblleft" unicode="“" horiz-adv-x="872" vert-adv-y="1433" d="M139 972v167q0 287 222 344v-98q-112 -47 -112 -202h112v-211h-222zM513 972v172q0 277 221 341v-100q-113 -55 -112 -202h112v-211h-221z"/>
    <glyph glyph-name="quotedblright" unicode="”" horiz-adv-x="872" vert-adv-y="1433" d="M734 1462v-168q0 -285 -221 -343v98q111 48 111 202h-111v211h221zM361 1462v-172q0 -277 -222 -341v100q114 56 113 202h-113v211h222z"/>
    <glyph glyph-name="quoteleft" unicode="‘" horiz-adv-x="569" vert-adv-y="1433" d="M169 961v161q0 307 234 362v-101q-115 -37 -119 -201h119v-221h-234z"/>
    <glyph glyph-name="quoteright" unicode="’" horiz-adv-x="569" vert-adv-y="1433" d="M401 1462v-161q0 -307 -234 -362v101q113 37 119 201h-119v221h234z"/>
    <glyph glyph-name="divide" unicode="÷" horiz-adv-x="1229" vert-adv-y="1433" d="M615 1180q47 0 82 -35.5t35 -83.5q0 -49 -35 -84t-84 -35q-50 0 -84.5 35t-34.5 85q0 49 35.5 83.5t85.5 34.5zM616 493q48 0 83 -35.5t35 -84.5q0 -50 -35 -85t-85 -35t-85 35t-35 86q0 50 35.5 84.5t86.5 34.5zM139 787h951v-139h-951v139z"/>
    <glyph glyph-name="glyph185" horiz-adv-x="569" vert-adv-y="1433"/>
    <glyph glyph-name="ydieresis" unicode="ÿ" horiz-adv-x="1024" vert-adv-y="1433" d="M1008 1060l-390 -1025q-105 -277 -146 -342q-75 -120 -226 -120q-52 0 -102 12l-27 6v156q75 -23 118 -23q60 0 96 51t105 232l-420 1053h196l232 -621q24 -63 81 -245q52 163 86 261l213 605h184zM798 1451v-208h-186v208h186zM411 1451v-208h-186v208h186z"/>
    <glyph glyph-name="Ydieresis" unicode="Ÿ" horiz-adv-x="1327" vert-adv-y="1433" d="M1326 1462l-564 -864v-598h-193v598l-569 864h233l344 -546q62 -99 95 -159q37 69 90 154l343 551h221zM984 1818v-202h-190v202h190zM533 1818v-202h-190v202h190z"/>
    <glyph glyph-name="fraction" unicode="⁄" horiz-adv-x="342" vert-adv-y="1433" d="M649 1445l-832 -1445h-123l836 1445h119z"/>
    <glyph glyph-name="currency" unicode="¤" vert-adv-y="1433" d="M51 1137l100 100l115 -115q132 105 308 105q166 0 294 -103l117 115l102 -104l-112 -113q106 -125 106 -303q0 -172 -106 -307l112 -115l-96 -96l-115 118q-126 -112 -304 -112q-180 0 -310 110l-113 -118l-98 98l113 119q-107 135 -107 300q0 182 111 302zM571 1073 q-138 0 -237 -99q-103 -105 -103 -259q0 -153 104 -256q99 -98 238 -98q133 0 227 94q107 106 107 263q0 154 -105 260q-94 95 -231 95z"/>
    <glyph glyph-name="guilsinglleft" unicode="‹" horiz-adv-x="530" vert-adv-y="1433" d="M413 879v-177l-206 -159l206 -155v-176l-311 240v180z"/>
    <glyph glyph-name="guilsinglright" unicode="›" horiz-adv-x="530" vert-adv-y="1433" d="M117 879l311 -247v-180l-311 -240v176l206 155l-206 159v177z"/>
    <glyph glyph-name="glyph192" horiz-adv-x="569" vert-adv-y="1433"/>
    <glyph glyph-name="glyph193" horiz-adv-x="569" vert-adv-y="1433"/>
    <glyph glyph-name="glyph194" horiz-adv-x="569" vert-adv-y="1433"/>
    <glyph glyph-name="periodcentered" unicode="·" horiz-adv-x="569" vert-adv-y="1433" d="M405 659v-228h-240v228h240z"/>
    <glyph glyph-name="quotesinglbase" unicode="‚" horiz-adv-x="569" vert-adv-y="1433" d="M401 221v-161q0 -307 -234 -362v101q113 37 119 201h-119v221h234z"/>
    <glyph glyph-name="quotedblbase" unicode="„" horiz-adv-x="872" vert-adv-y="1433" d="M734 211v-167q0 -285 -221 -344v99q111 47 111 201h-111v211h221zM361 211v-172q0 -277 -222 -340v100q114 55 113 201h-113v211h222z"/>
    <glyph glyph-name="glyph198" horiz-adv-x="569" vert-adv-y="1433"/>
    <glyph glyph-name="Acircumflex" unicode="Â" horiz-adv-x="1327" vert-adv-y="1433" d="M774 1468l572 -1468h-215l-163 449h-614l-167 -449h-204l574 1468h217zM911 605l-145 389q-72 196 -103 296q-33 -94 -106 -289l-147 -396h501zM990 1582h-198l-130 178l-138 -178h-179l212 272h218z"/>
    <glyph glyph-name="Ecircumflex" unicode="Ê" horiz-adv-x="1251" vert-adv-y="1433" d="M1169 1462v-168h-820v-463h766v-156h-766v-507h831v-168h-1024v1462h1013zM990 1582h-198l-130 178l-138 -178h-179l212 272h218z"/>
    <glyph glyph-name="Aacute" unicode="Á" horiz-adv-x="1327" vert-adv-y="1433" d="M774 1468l572 -1468h-215l-163 449h-614l-167 -449h-204l574 1468h217zM911 605l-145 389q-72 196 -103 296q-33 -94 -106 -289l-147 -396h501zM959 1857l-254 -278h-143l167 278h230z"/>
    <glyph glyph-name="Edieresis" unicode="Ë" horiz-adv-x="1251" vert-adv-y="1433" d="M1169 1462v-168h-820v-463h766v-156h-766v-507h831v-168h-1024v1462h1013zM989 1818v-202h-190v202h190zM538 1818v-202h-190v202h190z"/>
    <glyph glyph-name="Egrave" unicode="È" horiz-adv-x="1251" vert-adv-y="1433" d="M1169 1462v-168h-820v-463h766v-156h-766v-507h831v-168h-1024v1462h1013zM394 1857h230l167 -278h-143z"/>
    <glyph glyph-name="Iacute" unicode="Í" horiz-adv-x="530" vert-adv-y="1433" d="M361 1462v-1462h-193v1462h193zM551 1857l-254 -278h-143l167 278h230z"/>
    <glyph glyph-name="Icircumflex" unicode="Î" horiz-adv-x="530" vert-adv-y="1433" d="M362 1462v-1462h-193v1462h193zM588 1582h-198l-130 178l-138 -178h-179l212 272h218z"/>
    <glyph glyph-name="Idieresis" unicode="Ï" horiz-adv-x="531" vert-adv-y="1433" d="M362 1462v-1462h-193v1462h193zM520 1818v-202h-190v202h190zM201 1818v-202h-190v202h190z"/>
    <glyph glyph-name="Igrave" unicode="Ì" horiz-adv-x="530" vert-adv-y="1433" d="M362 1462v-1462h-193v1462h193zM-23 1857h230l167 -278h-143z"/>
    <glyph glyph-name="Oacute" unicode="Ó" horiz-adv-x="1556" vert-adv-y="1433" d="M791 1496q300 0 494 -211q193 -209 193 -551q0 -305 -150 -506q-196 -262 -551 -262q-353 0 -550 264q-148 199 -148 500q0 354 192 555q202 211 520 211zM772 1332q-213 0 -355 -156q-144 -160 -144 -441q0 -264 121 -421q143 -184 387 -184q207 0 340 136 q163 166 163 463q0 274 -140 440q-138 163 -372 163zM1068 1857l-254 -278h-143l167 278h230z"/>
    <glyph glyph-name="Ocircumflex" unicode="Ô" horiz-adv-x="1556" vert-adv-y="1433" d="M791 1496q300 0 494 -211q193 -209 193 -551q0 -305 -150 -506q-196 -262 -551 -262q-353 0 -550 264q-148 199 -148 500q0 354 192 555q202 211 520 211zM772 1332q-213 0 -355 -156q-144 -160 -144 -441q0 -264 121 -421q143 -184 387 -184q207 0 340 136 q163 166 163 463q0 274 -140 440q-138 163 -372 163zM1101 1582h-198l-130 178l-138 -178h-179l212 272h218z"/>
    <glyph glyph-name="glyph210" horiz-adv-x="569" vert-adv-y="1433"/>
    <glyph glyph-name="Ograve" unicode="Ò" horiz-adv-x="1556" vert-adv-y="1433" d="M791 1496q300 0 494 -211q193 -209 193 -551q0 -305 -150 -506q-196 -262 -551 -262q-353 0 -550 264q-148 199 -148 500q0 354 192 555q202 211 520 211zM772 1332q-213 0 -355 -156q-144 -160 -144 -441q0 -264 121 -421q143 -184 387 -184q207 0 340 136 q163 166 163 463q0 274 -140 440q-138 163 -372 163zM499 1857h230l167 -278h-143z"/>
    <glyph glyph-name="Uacute" unicode="Ú" horiz-adv-x="1479" vert-adv-y="1433" d="M1328 1462v-853q0 -180 -20 -267.5t-80 -172.5q-144 -203 -483 -203q-366 0 -511 228q-83 132 -83 418v850h193v-855q0 -227 53 -321q88 -156 350 -156q251 0 334 145q54 96 54 332v855h193zM1044 1857l-254 -278h-143l167 278h230z"/>
    <glyph glyph-name="Ucircumflex" unicode="Û" horiz-adv-x="1479" vert-adv-y="1433" d="M1328 1462v-853q0 -180 -20 -267.5t-80 -172.5q-144 -203 -483 -203q-366 0 -511 228q-83 132 -83 418v850h193v-855q0 -227 53 -321q88 -156 350 -156q251 0 334 145q54 96 54 332v855h193zM1062 1582h-198l-130 178l-138 -178h-179l212 272h218z"/>
    <glyph glyph-name="Ugrave" unicode="Ù" horiz-adv-x="1479" vert-adv-y="1433" d="M1328 1462v-853q0 -180 -20 -267.5t-80 -172.5q-144 -203 -483 -203q-366 0 -511 228q-83 132 -83 418v850h193v-855q0 -227 53 -321q88 -156 350 -156q251 0 334 145q54 96 54 332v855h193zM445 1857h230l167 -278h-143z"/>
    <glyph glyph-name="dotlessi" unicode="ı" horiz-adv-x="455" vert-adv-y="1433" d="M315 1060v-1060h-174v1060h174z"/>
    <glyph glyph-name="circumflex" unicode="ˆ" horiz-adv-x="455" vert-adv-y="1433" d="M535 1214h-177l-137 195l-145 -195h-157l212 292h188z"/>
    <glyph glyph-name="tilde" unicode="˜" horiz-adv-x="455" vert-adv-y="1433" d="M551 1486q-12 -100 -56 -159q-52 -71 -132 -71q-47 0 -129 34q-112 46 -143 46q-61 0 -84 -92h-93q12 109 63 168.5t132 59.5q39 0 69.5 -10t133.5 -56q27 -12 58 -12q65 0 85 92h96z"/>
    <glyph glyph-name="macron" unicode="¯" horiz-adv-x="455" vert-adv-y="1433" d="M537 1399v-120h-617v120h617z"/>
    <glyph glyph-name="breve" unicode="˘" horiz-adv-x="455" vert-adv-y="1433" d="M518 1505q-13 -118 -47 -173q-38 -61 -99 -89.5t-153 -28.5q-190 0 -253 140q-26 56 -30 151h99q10 -70 37 -103q48 -58 159 -58q86 0 128.5 36t60.5 125h98z"/>
    <glyph glyph-name="dotaccent" unicode="˙" horiz-adv-x="455" vert-adv-y="1433" d="M321 1451v-208h-187v208h187z"/>
    <glyph glyph-name="ring" unicode="˚" horiz-adv-x="455" vert-adv-y="1433" d="M231 1613q89 0 153.5 -65.5t64.5 -155.5q0 -92 -65 -157t-157 -65t-156.5 65t-64.5 158q0 92 65.5 156t159.5 64zM222 1519q-51 0 -88 -37.5t-37 -90.5t37 -90t90 -37q55 0 93 37.5t38 90.5t-39 90t-94 37z"/>
    <glyph glyph-name="cedilla" unicode="¸" horiz-adv-x="455" vert-adv-y="1433" d="M299 0l-91 -124q40 10 71 10q77 0 126 -41t49 -107q0 -82 -69.5 -132t-182.5 -50q-91 0 -192 42l37 74q71 -27 140 -27q50 0 80.5 23t30.5 59q0 34 -28.5 57t-71.5 23q-31 0 -80 -16l-34 37l130 172h85z"/>
    <glyph glyph-name="hungarumlaut" unicode="˝" horiz-adv-x="455" vert-adv-y="1433" d="M539 1499l-173 -293h-110l97 293h186zM246 1499l-173 -293h-109l96 293h186z"/>
    <glyph glyph-name="ogonek" unicode="˛" horiz-adv-x="455" vert-adv-y="1433" d="M318 0h110q-122 -91 -122 -177q0 -47 40.5 -77t103.5 -30q35 0 89 16v-95q-69 -22 -126 -22q-103 0 -167.5 50t-64.5 130q0 104 137 205z"/>
    <glyph glyph-name="caron" unicode="ˇ" horiz-adv-x="455" vert-adv-y="1433" d="M536 1506l-212 -292h-190l-216 292h176l139 -196l146 196h157z"/>
    <glyph glyph-name="Lslash" unicode="Ł" vert-adv-y="1433" d="M144 739v723h193v-617l307 232v-172l-307 -231v-506h776v-168h-969v568l-131 -99v171z"/>
    <glyph glyph-name="lslash" unicode="ł" horiz-adv-x="455" vert-adv-y="1433" d="M141 801v661h174v-562l130 99v-157l-130 -99v-743h-174v645l-130 -99v157z"/>
    <glyph glyph-name="Scaron" unicode="Š" horiz-adv-x="1327" vert-adv-y="1433" d="M1194 1034h-186q-35 298 -366 298q-155 0 -242 -64t-87 -179q0 -102 73.5 -147.5t323.5 -99.5q264 -56 366 -121q175 -113 175 -310q0 -208 -152 -326.5t-418 -118.5q-285 0 -443.5 135.5t-160.5 381.5h187q4 -173 114.5 -263t316.5 -90q170 0 265.5 70.5t95.5 196.5 q0 113 -79.5 166t-342.5 115q-280 65 -356 112q-151 91 -151 287q0 194 138.5 306.5t377.5 112.5q258 0 401 -120t150 -342zM329 1854h198l130 -178l138 178h179l-212 -272h-218z"/>
    <glyph glyph-name="scaron" unicode="š" horiz-adv-x="1024" vert-adv-y="1433" d="M918 752h-175q-27 193 -258 193q-217 0 -217 -147q0 -66 52 -96.5t231 -70.5q229 -52 319.5 -123t90.5 -199q0 -155 -120 -247.5t-320 -92.5q-442 0 -455 366h171q26 -220 285 -220q117 0 188.5 48t71.5 126q0 68 -54.5 105t-212.5 75q-241 59 -301 91q-124 66 -124 218 q0 144 109 228.5t294 84.5q398 0 425 -339zM807 1506l-212 -292h-190l-216 292h176l139 -196l146 196h157z"/>
    <glyph glyph-name="Zcaron" unicode="Ž" horiz-adv-x="1251" vert-adv-y="1433" d="M1188 1462v-160l-831 -1032l-90 -107q235 5 268 5h675v-168h-1167v163l840 1043q11 14 81 93q-130 -5 -259 -5h-590v168h1073zM316 1854h198l130 -178l138 178h179l-212 -272h-218z"/>
    <glyph glyph-name="zcaron" unicode="ž" horiz-adv-x="983" vert-adv-y="1433" d="M913 1060v-115l-570 -710q-12 -15 -79 -93q65 1 131 1h544v-143h-895v129l555 691q17 21 89 98q-72 -1 -100 -1h-503v143h828zM800 1506l-212 -292h-190l-216 292h176l139 -196l146 196h157z"/>
    <glyph glyph-name="brokenbar" unicode="¦" horiz-adv-x="455" vert-adv-y="1433" d="M132 1462h191v-737h-191v737zM132 336h191v-702h-191v702z"/>
    <glyph glyph-name="Eth" unicode="Ð" horiz-adv-x="1442" vert-adv-y="1433" d="M161 1462h525q165 0 272 -32.5t193 -110.5q112 -99 166 -254q49 -140 49 -303q0 -391 -206 -600q-90 -92 -188 -127t-265 -35h-546v688h-146v146h146v628zM354 1295v-461h380v-146h-380v-520h316q149 0 226 24.5t137 91.5q138 154 138 470q0 267 -121.5 404t-359.5 137 h-336z"/>
    <glyph glyph-name="eth" unicode="ð" horiz-adv-x="1176" vert-adv-y="1433" d="M413 1259l166 71l-89 143l122 50l91 -140l181 79l50 -102l-170 -72l176 -284q93 -151 123 -237q38 -113 38 -239q0 -251 -135 -402q-140 -157 -375 -157q-257 0 -397 176q-119 152 -119 383q0 266 154 422q138 139 339 139q65 0 158 -23l-92 165l-173 -70zM586 944 q-138 0 -229 -99q-103 -112 -103 -315q0 -205 100 -316q89 -99 240 -99q135 0 218 84q112 114 112 332q0 202 -98 312q-90 101 -240 101z"/>
    <glyph glyph-name="Yacute" unicode="Ý" horiz-adv-x="1327" vert-adv-y="1433" d="M1326 1462l-564 -864v-598h-193v598l-569 864h233l344 -546q62 -99 95 -159q37 69 90 154l343 551h221zM958 1857l-254 -278h-143l167 278h230z"/>
    <glyph glyph-name="yacute" unicode="ý" horiz-adv-x="1024" vert-adv-y="1433" d="M1008 1060l-390 -1025q-105 -277 -146 -342q-75 -120 -226 -120q-52 0 -102 12l-27 6v156q75 -23 118 -23q60 0 96 51t105 232l-420 1053h196l232 -621q24 -63 81 -245q52 163 86 261l213 605h184zM769 1499l-246 -293h-121l152 293h215z"/>
    <glyph glyph-name="Thorn" unicode="Þ" horiz-adv-x="1327" vert-adv-y="1433" d="M160 1462h193v-218h389q127 0 201.5 -17t137.5 -61q168 -117 168 -345q0 -250 -170 -364q-65 -43 -134 -59t-195 -16h-397v-382h-193v1462zM353 1077v-540h372q159 0 231 53q98 72 98 220q0 156 -115 225q-40 24 -92 33t-149 9h-345z"/>
    <glyph glyph-name="thorn" unicode="þ" horiz-adv-x="1214" vert-adv-y="1433" d="M311 1462v-549q119 179 342 179q207 0 338 -137q149 -155 149 -430q0 -248 -132 -400q-132 -151 -343 -151q-233 0 -354 174v-557h-174v1871h174zM628 946q-141 0 -232 -106q-92 -106 -92 -305q0 -210 101 -318q91 -97 232 -97q146 0 231 102q94 115 94 302 q0 200 -98 319q-85 103 -236 103z"/>
    <glyph glyph-name="minus" unicode="−" horiz-adv-x="1229" vert-adv-y="1433" d="M139 787h951v-139h-951v139z"/>
    <glyph glyph-name="multiply" unicode="×" horiz-adv-x="1229" vert-adv-y="1433" d="M204 404l313 313l-313 312l98 98l313 -312l313 312l98 -98l-313 -312l313 -313l-98 -99l-313 313l-313 -313z"/>
    <glyph glyph-name="onesuperior" unicode="¹" horiz-adv-x="682" vert-adv-y="1433" d="M506 1462v-877h-136v625h-60h-64h-70h-37v93q124 -1 182 34t85 125h100z"/>
    <glyph glyph-name="twosuperior" unicode="²" horiz-adv-x="682" vert-adv-y="1433" d="M649 692v-107h-614q6 128 63 205.5t214 170.5q128 75 163 114q51 56 51 127q0 69 -47 113t-122 44q-164 0 -172 -218h-124q-1 19 -1 28q0 133 83 214t220 81q124 0 203 -62q90 -71 90 -198q0 -114 -86 -198q-54 -53 -198 -134q-107 -59 -143.5 -91.5t-59.5 -88.5h480z "/>
    <glyph glyph-name="threesuperior" unicode="³" horiz-adv-x="682" vert-adv-y="1433" d="M40 1168q3 142 80.5 218t218.5 76q119 0 198 -61q79 -62 79 -170q0 -113 -112 -178q153 -54 153 -207q0 -125 -89.5 -202t-234.5 -77q-144 0 -228.5 77t-84.5 208v17h123q3 -95 52.5 -146t139.5 -51q85 0 138.5 45.5t53.5 117.5q0 74 -52.5 116t-145.5 42q-33 0 -66 -4 v103q30 -2 47 -2q82 0 129 36t47 99q0 60 -42 96t-111 36q-166 0 -171 -189h-122z"/>
    <glyph glyph-name="onehalf" unicode="½" horiz-adv-x="1708" vert-adv-y="1433" d="M450 1462v-877h-136v625h-60h-64h-70h-37v93q124 -1 182 34t85 125h100zM1274 1445l-831 -1445h-123l836 1445h118zM1616 107v-107h-614q6 129 63 206.5t214 169.5q129 75 171.5 123.5t42.5 117.5q0 70 -47 113.5t-122 43.5q-163 0 -172 -218h-124q-1 19 -1 28 q0 133 83 213.5t220 80.5q124 0 203 -62q90 -71 90 -198q0 -113 -86 -197q-53 -53 -198 -134q-107 -59 -143.5 -91.5t-59.5 -88.5h480z"/>
    <glyph glyph-name="onequarter" unicode="¼" horiz-adv-x="1708" vert-adv-y="1433" d="M467 1462v-877h-136v625h-60h-64h-70h-37v93q124 -1 182 34t85 125h100zM1288 1445l-831 -1445h-123l836 1445h118zM1555 311v-102h-124v-209h-118v209h-402v107l420 561h100v-566h124zM1313 311v237q0 91 1 154q-74 -109 -89 -130l-119 -157q-12 -15 -82 -104h36h56h197 z"/>
    <glyph glyph-name="threequarters" unicode="¾" horiz-adv-x="1708" vert-adv-y="1433" d="M131 1168q3 142 80.5 218t218.5 76q119 0 198 -61q79 -62 79 -170q0 -113 -112 -178q153 -54 153 -207q0 -125 -89.5 -202t-234.5 -77q-144 0 -228.5 77t-84.5 208v17h123q3 -95 52.5 -146t139.5 -51q85 0 138.5 45.5t53.5 117.5q0 74 -52.5 116t-145.5 42q-33 0 -66 -4 v103q30 -2 47 -2q82 0 129 36t47 99q0 60 -42 96t-111 36q-166 0 -171 -189h-122zM1399 1445l-831 -1445h-123l836 1445h118zM1609 311v-102h-124v-209h-118v209h-402v107l420 561h100v-566h124zM1367 311v237q0 91 1 154q-75 -111 -89 -130l-119 -157q-12 -15 -82 -104h36 h56h197z"/>
    <glyph glyph-name="franc" unicode="₣" horiz-adv-x="1135" vert-adv-y="1433" d="M243 666v-666h-186v1462h980v-165h-794v-466h297v-165h-297zM629 834h154v-191q135 221 284 221q28 0 67 -6v-170q-149 -1 -218 -52q-119 -87 -119 -308v-328h-168v834z"/>
    <glyph glyph-name="Gbreve" unicode="Ğ" horiz-adv-x="1554" vert-adv-y="1433" d="M1428 772v-772h-123l-29 111q-12 45 -20 72q-176 -217 -470 -217q-352 0 -544 253q-155 204 -155 498q0 349 196 564t515 215q298 0 469 -176q127 -130 145 -307h-190q-21 144 -137 231.5t-286 87.5q-239 0 -378.5 -164t-139.5 -444q0 -273 140 -433.5t377 -160.5 q211 0 332 128.5t126 357.5h-468v156h640zM1094 1872q-10 -105 -59 -172q-86 -118 -264 -118q-179 0 -263 121q-48 69 -51 169h103q38 -150 220 -150q89 0 138.5 35t73.5 115h102z"/>
    <glyph glyph-name="gbreve" unicode="ğ" horiz-adv-x="1176" vert-adv-y="1433" d="M1046 1060v-945q0 -235 -72 -354q-117 -194 -419 -194q-406 0 -446 313h179q32 -177 272 -177q185 0 256 105q58 86 58 244v129q-110 -195 -338 -195q-210 0 -337 147.5t-127 391.5q0 260 135 414q134 152 340 152q218 0 337 -185v154h162zM555 945q-149 0 -231 -123 q-73 -109 -73 -284q0 -228 114 -331q82 -74 194 -74q156 0 240 130q72 112 72 292q0 183 -84 286.5t-232 103.5zM862 1505q-13 -118 -47 -173q-38 -61 -99 -89.5t-153 -28.5q-190 0 -253 140q-26 56 -30 151h99q10 -70 37 -103q48 -58 159 -58q86 0 128.5 36t60.5 125h98z "/>
    <glyph glyph-name="glyph250" horiz-adv-x="569" vert-adv-y="1433"/>
    <glyph glyph-name="Scedilla" unicode="Ş" horiz-adv-x="1327" vert-adv-y="1433" d="M727 -32l-69 -93q48 8 73 8q73 0 122.5 -40.5t49.5 -101.5q0 -84 -68 -136t-177 -52q-82 0 -200 43l36 76q71 -30 146 -30q47 0 76 23.5t29 61.5q0 33 -28.5 54t-73.5 21q-31 0 -80 -12l-32 36l106 142q-264 11 -411 145.5t-149 369.5h187q3 -141 73 -222 q114 -131 358 -131q179 0 270 75t91 192q0 72 -35 119t-118 85q-63 28 -269 77q-198 46 -250 62.5t-106 48.5q-151 92 -151 288q0 194 138.5 306.5t377.5 112.5q347 0 484 -217q62 -98 67 -245h-186q-16 134 -84 204q-91 94 -282 94q-138 0 -220 -49q-109 -65 -109 -194 q0 -105 78 -150t319 -96q148 -32 228.5 -59t137.5 -63q175 -113 175 -309q0 -117 -56 -213t-160 -157q-114 -66 -308 -74z"/>
    <glyph glyph-name="scedilla" unicode="ş" horiz-adv-x="1024" vert-adv-y="1433" d="M558 -30l-69 -94q41 10 71 10q74 0 120 -36q55 -43 55 -112q0 -81 -69.5 -131.5t-182.5 -50.5q-92 0 -192 42l37 74q70 -27 141 -27q49 0 79.5 23t30.5 59q0 34 -28.5 57t-71.5 23q-32 0 -80 -16l-34 37l108 143q-146 9 -244 65q-155 90 -163 299h171q10 -89 48 -134 q73 -86 237 -86q150 0 220 74q40 43 40 100q0 68 -55 105t-212 75q-171 42 -214.5 55t-86.5 36q-58 31 -91 89t-33 129q0 170 149 255q101 58 254 58q239 0 351 -129q63 -74 74 -210h-175q-10 71 -38 108q-62 84 -220 84q-102 0 -159.5 -39t-57.5 -108q0 -65 52 -96t231 -71 q220 -49 310 -115q100 -72 100 -206q0 -147 -107.5 -237t-295.5 -102z"/>
    <glyph glyph-name="Cacute" unicode="Ć" horiz-adv-x="1479" vert-adv-y="1433" d="M1398 551q-23 -274 -191.5 -429.5t-441.5 -155.5q-338 0 -522 239q-156 204 -156 524q0 345 190.5 556t502.5 211q301 0 474 -186q117 -128 132 -286h-194q-33 144 -143.5 226t-273.5 82q-262 0 -394 -213q-100 -162 -100 -388q0 -277 133 -439t360 -162 q187 0 297.5 108.5t134.5 312.5h192zM1047 1857l-254 -278h-143l167 278h230z"/>
    <glyph glyph-name="cacute" unicode="ć" horiz-adv-x="1100" vert-adv-y="1433" d="M1038 386q-27 -197 -149 -307t-314 -110q-232 0 -367.5 147t-135.5 399q0 287 157 440q139 136 352 136q195 0 312 -98t139 -278h-181q-46 230 -271 230q-151 0 -240 -112t-89 -303q0 -194 85 -304.5t234 -110.5q119 0 194.5 70.5t95.5 200.5h178zM836 1499l-246 -293 h-121l152 293h215z"/>
    <glyph glyph-name="Ccaron" unicode="Č" horiz-adv-x="1479" vert-adv-y="1433" d="M1398 551q-23 -274 -191.5 -429.5t-441.5 -155.5q-338 0 -522 239q-156 204 -156 524q0 345 190.5 556t502.5 211q301 0 474 -186q117 -128 132 -286h-194q-33 144 -143.5 226t-273.5 82q-262 0 -394 -213q-100 -162 -100 -388q0 -277 133 -439t360 -162 q187 0 297.5 108.5t134.5 312.5h192zM441 1854h198l130 -178l138 178h179l-212 -272h-218z"/>
    <glyph glyph-name="ccaron" unicode="č" horiz-adv-x="1100" vert-adv-y="1433" d="M1038 386q-27 -197 -149 -307t-314 -110q-232 0 -367.5 147t-135.5 399q0 287 157 440q139 136 352 136q195 0 312 -98t139 -278h-181q-46 230 -271 230q-151 0 -240 -112t-89 -303q0 -194 85 -304.5t234 -110.5q119 0 194.5 70.5t95.5 200.5h178zM882 1506l-212 -292 h-190l-216 292h176l139 -196l146 196h157z"/>
    <glyph glyph-name="glyph257" horiz-adv-x="569" vert-adv-y="1433"/>
    <glyph glyph-name="nbspace" unicode=" " horiz-adv-x="569" vert-adv-y="1433"/>
    <glyph glyph-name="uni00AD" unicode="­" horiz-adv-x="797" vert-adv-y="1433" d="M647 633v-175h-497v175h497z"/>
    <glyph glyph-name="Amacron" unicode="Ā" horiz-adv-x="1327" vert-adv-y="1433" d="M774 1468l572 -1468h-215l-163 449h-614l-167 -449h-204l574 1468h217zM911 605l-145 389q-72 196 -103 296q-33 -94 -106 -289l-147 -396h501zM1009 1768v-126h-690v126h690z"/>
    <glyph glyph-name="amacron" unicode="ā" horiz-adv-x="1100" vert-adv-y="1433" d="M1069 140v-136q-61 -22 -125 -22q-147 0 -150 158q-148 -171 -384 -171q-156 0 -247 81t-91 220q0 209 199 289q72 29 326 60q106 13 146 43t40 96q0 187 -239 187q-126 0 -187 -51t-73 -166h-171q4 170 121.5 266.5t321.5 96.5q224 0 333 -105q72 -69 72 -273 q0 -184 -7 -413q-1 -48 -1 -71q0 -101 69 -101q21 0 47 12zM786 550q-57 -41 -234 -64q-174 -21 -237.5 -64t-63.5 -137q0 -83 56.5 -131.5t153.5 -48.5q190 0 291 142q34 47 34 145v158zM879 1399v-120h-617v120h617z"/>
    <glyph glyph-name="Abreve" unicode="Ă" horiz-adv-x="1327" vert-adv-y="1433" d="M774 1468l572 -1468h-215l-163 449h-614l-167 -449h-204l574 1468h217zM911 605l-145 389q-72 196 -103 296q-33 -94 -106 -289l-147 -396h501zM983 1872q-10 -105 -59 -172q-86 -118 -264 -118q-179 0 -263 121q-48 69 -51 169h103q38 -150 220 -150q89 0 138.5 35 t73.5 115h102z"/>
    <glyph glyph-name="abreve" unicode="ă" horiz-adv-x="1100" vert-adv-y="1433" d="M1069 140v-136q-61 -22 -125 -22q-147 0 -150 158q-148 -171 -384 -171q-156 0 -247 81t-91 220q0 209 199 289q72 29 326 60q106 13 146 43t40 96q0 187 -239 187q-126 0 -187 -51t-73 -166h-171q4 170 121.5 266.5t321.5 96.5q224 0 333 -105q72 -69 72 -273 q0 -184 -7 -413q-1 -48 -1 -71q0 -101 69 -101q21 0 47 12zM786 550q-57 -41 -234 -64q-174 -21 -237.5 -64t-63.5 -137q0 -83 56.5 -131.5t153.5 -48.5q190 0 291 142q34 47 34 145v158zM850 1505q-13 -118 -47 -173q-38 -61 -99 -89.5t-153 -28.5q-190 0 -253 140 q-26 56 -30 151h99q10 -70 37 -103q48 -58 159 -58q86 0 128.5 36t60.5 125h98z"/>
    <glyph glyph-name="Aogonek" unicode="Ą" horiz-adv-x="1327" vert-adv-y="1433" d="M1322 0q-121 -91 -121 -177q0 -47 40 -77t103 -30q35 0 89 16v-95q-69 -22 -126 -22q-109 0 -173 55q-58 50 -58 125q0 103 136 205h-81l-164 449h-614l-167 -449h-203l573 1468h218l571 -1468h-23zM910 605l-144 389q-73 196 -104 296q-33 -94 -105 -289l-148 -396h501z "/>
    <glyph glyph-name="aogonek" unicode="ą" horiz-adv-x="1100" vert-adv-y="1433" d="M975 -16q-100 -80 -100 -161q0 -47 40.5 -77t103.5 -30q35 0 88 16v-95q-68 -22 -125 -22q-110 0 -174 55q-58 50 -58 125q0 103 129 200q-83 37 -85 145q-148 -171 -384 -171q-149 0 -236 72q-102 84 -102 229q0 209 199 289q52 21 98.5 29.5t227.5 30.5q106 13 146 43 t40 96q0 187 -239 187q-126 0 -187 -51t-73 -166h-171q4 170 121.5 266.5t321.5 96.5q224 0 333 -105q42 -40 57 -97t15 -175q0 -185 -7 -413q-1 -48 -1 -71q0 -54 16 -77.5t54 -23.5q21 0 46 11v-136q-43 -15 -94 -20zM786 550q-36 -27 -78 -38t-156 -26q-94 -11 -135 -21 t-77 -29q-89 -46 -89 -151q0 -83 56.5 -131.5t153.5 -48.5q89 0 166.5 38t124.5 104q20 28 27 57.5t7 87.5v158z"/>
    <glyph glyph-name="Ccircumflex" unicode="Ĉ" horiz-adv-x="1479" vert-adv-y="1433" d="M1398 551q-23 -274 -191.5 -429.5t-441.5 -155.5q-338 0 -522 239q-156 204 -156 524q0 345 190.5 556t502.5 211q301 0 474 -186q117 -128 132 -286h-194q-33 144 -143.5 226t-273.5 82q-262 0 -394 -213q-100 -162 -100 -388q0 -277 133 -439t360 -162 q187 0 297.5 108.5t134.5 312.5h192zM1104 1582h-198l-130 178l-138 -178h-179l212 272h218z"/>
    <glyph glyph-name="ccircumflex" unicode="ĉ" horiz-adv-x="1100" vert-adv-y="1433" d="M1038 386q-27 -197 -149 -307t-314 -110q-232 0 -367.5 147t-135.5 399q0 287 157 440q139 136 352 136q195 0 312 -98t139 -278h-181q-46 230 -271 230q-151 0 -240 -112t-89 -303q0 -194 85 -304.5t234 -110.5q119 0 194.5 70.5t95.5 200.5h178zM881 1214h-177 l-137 195l-145 -195h-157l212 292h188z"/>
    <glyph glyph-name="Cdotaccent" unicode="Ċ" horiz-adv-x="1479" vert-adv-y="1433" d="M1398 551q-23 -274 -191.5 -429.5t-441.5 -155.5q-338 0 -522 239q-156 204 -156 524q0 345 190.5 556t502.5 211q301 0 474 -186q117 -128 132 -286h-194q-33 144 -143.5 226t-273.5 82q-262 0 -394 -213q-100 -162 -100 -388q0 -277 133 -439t360 -162 q187 0 297.5 108.5t134.5 312.5h192zM862 1818v-202h-190v202h190z"/>
    <glyph glyph-name="cdotaccent" unicode="ċ" horiz-adv-x="1100" vert-adv-y="1433" d="M1038 386q-27 -197 -149 -307t-314 -110q-232 0 -367.5 147t-135.5 399q0 287 157 440q139 136 352 136q195 0 312 -98t139 -278h-181q-46 230 -271 230q-151 0 -240 -112t-89 -303q0 -194 85 -304.5t234 -110.5q119 0 194.5 70.5t95.5 200.5h178zM676 1451v-208h-187 v208h187z"/>
    <glyph glyph-name="Dcaron" unicode="Ď" horiz-adv-x="1442" vert-adv-y="1433" d="M159 1462h525q166 0 272 -32.5t193 -110.5q215 -192 215 -557q0 -391 -206 -600q-90 -92 -188 -127t-264 -35h-547v1462zM352 1294v-1126h316q149 0 225.5 24.5t137.5 91.5q138 154 138 470q0 540 -481 540h-336zM331 1854h198l130 -178l138 178h179l-212 -272h-218z"/>
    <glyph glyph-name="dcaron" unicode="ď" horiz-adv-x="1370" vert-adv-y="1433" d="M1077 1462v-1462h-164v156q-97 -187 -347 -187q-226 0 -358.5 152t-132.5 411q0 260 131 407q135 152 346 152q253 0 351 -178v549h174zM573 945q-146 0 -233 -111t-87 -297q0 -193 89.5 -307.5t239.5 -114.5q151 0 238 110t87 301q0 215 -99 321q-92 98 -235 98z M1349 1462v-142q0 -226 -190 -247v74q92 22 101 134h-101v181h190z"/>
    <glyph glyph-name="Dcroat" unicode="Đ" horiz-adv-x="1442" vert-adv-y="1433" d="M161 1462h525q165 0 272 -32.5t193 -110.5q112 -99 166 -254q49 -140 49 -303q0 -391 -206 -600q-90 -92 -188 -127t-265 -35h-546v688h-146v146h146v628zM354 1295v-461h380v-146h-380v-520h316q149 0 226 24.5t137 91.5q138 154 138 470q0 267 -121.5 404t-359.5 137 h-336z"/>
    <glyph glyph-name="dcroat" unicode="đ" horiz-adv-x="1239" vert-adv-y="1433" d="M912 1325v137h173v-137h146v-127h-146v-1198h-163v156q-47 -91 -136.5 -139t-210.5 -48q-218 0 -352 146q-139 152 -139 417q0 260 131 407q135 152 345 152q123 0 214 -46t138 -132v285h-339v127h339zM581 945q-138 0 -226 -103q-94 -110 -94 -305q0 -194 93 -311 q88 -111 236 -111q151 0 239 111q87 109 87 300q0 216 -99 321q-92 98 -236 98z"/>
    <glyph glyph-name="Emacron" unicode="Ē" horiz-adv-x="1251" vert-adv-y="1433" d="M1169 1462v-168h-820v-463h766v-156h-766v-507h831v-168h-1024v1462h1013zM1013 1768v-126h-690v126h690z"/>
    <glyph glyph-name="emacron" unicode="ē" horiz-adv-x="1100" vert-adv-y="1433" d="M1039 340q-83 -371 -464 -371q-257 0 -389 175q-112 149 -112 379q0 248 137 407q141 161 359 161q145 0 259 -73.5t171 -204.5q52 -119 51 -327h-798q12 -371 335 -371q208 0 280 225h171zM871 629q-12 149 -93 232.5t-213 83.5q-267 0 -310 -316h616zM871 1399v-120 h-617v120h617z"/>
    <glyph glyph-name="Ebreve" unicode="Ĕ" horiz-adv-x="1251" vert-adv-y="1433" d="M1169 1462v-168h-820v-463h766v-156h-766v-507h831v-168h-1024v1462h1013zM980 1872q-10 -105 -59 -172q-86 -118 -264 -118q-179 0 -263 121q-48 69 -51 169h103q38 -150 220 -150q89 0 138.5 35t73.5 115h102z"/>
    <glyph glyph-name="ebreve" unicode="ĕ" horiz-adv-x="1100" vert-adv-y="1433" d="M1039 340q-83 -371 -464 -371q-257 0 -389 175q-112 149 -112 379q0 248 137 407q141 161 359 161q145 0 259 -73.5t171 -204.5q52 -119 51 -327h-798q12 -371 335 -371q208 0 280 225h171zM871 629q-12 149 -93 232.5t-213 83.5q-267 0 -310 -316h616zM853 1505 q-13 -118 -47 -173q-38 -61 -99 -89.5t-153 -28.5q-190 0 -253 140q-26 56 -30 151h99q10 -70 37 -103q48 -58 159 -58q86 0 128.5 36t60.5 125h98z"/>
    <glyph glyph-name="Edotaccent" unicode="Ė" horiz-adv-x="1251" vert-adv-y="1433" d="M1169 1462v-168h-820v-463h766v-156h-766v-507h831v-168h-1024v1462h1013zM760 1818v-202h-190v202h190z"/>
    <glyph glyph-name="edotaccent" unicode="ė" horiz-adv-x="1100" vert-adv-y="1433" d="M1039 340q-83 -371 -464 -371q-257 0 -389 175q-112 149 -112 379q0 248 137 407q141 161 359 161q145 0 259 -73.5t171 -204.5q52 -119 51 -327h-798q12 -371 335 -371q208 0 280 225h171zM871 629q-12 149 -93 232.5t-213 83.5q-267 0 -310 -316h616zM656 1451v-208 h-187v208h187z"/>
    <glyph glyph-name="Eogonek" unicode="Ę" horiz-adv-x="1251" vert-adv-y="1433" d="M1163 0q-122 -91 -122 -177q0 -47 40.5 -77t103.5 -30q35 0 89 16v-95q-69 -22 -126 -22q-110 0 -174 55q-58 50 -58 125q0 56 31 102.5t106 102.5h-897v1462h1013v-168h-820v-463h766v-156h-766v-507h831v-168h-17z"/>
    <glyph glyph-name="eogonek" unicode="ę" horiz-adv-x="1100" vert-adv-y="1433" d="M693 -20q-95 -76 -95 -156q0 -47 40.5 -77t102.5 -30q34 0 89 16v-96q-69 -21 -125 -21q-110 0 -174 55q-58 50 -58 125q0 95 96 174q-196 4 -317 105q-91 77 -137 203q-41 112 -41 245q0 248 137 407q141 161 358 161q179 0 306 -108q94 -81 135 -197t40 -300h-797 q12 -370 335 -370q110 0 176 52.5t104 171.5h170q-26 -118 -82 -196q-97 -135 -263 -164zM871 629q-9 109 -54 181q-85 135 -253 135q-131 0 -209.5 -80.5t-99.5 -235.5h616z"/>
    <glyph glyph-name="Ecaron" unicode="Ě" horiz-adv-x="1251" vert-adv-y="1433" d="M1169 1462v-168h-820v-463h766v-156h-766v-507h831v-168h-1024v1462h1013zM345 1854h198l130 -178l138 178h179l-212 -272h-218z"/>
    <glyph glyph-name="ecaron" unicode="ě" horiz-adv-x="1100" vert-adv-y="1433" d="M1039 340q-83 -371 -464 -371q-257 0 -389 175q-112 149 -112 379q0 248 137 407q141 161 359 161q145 0 259 -73.5t171 -204.5q52 -119 51 -327h-798q12 -371 335 -371q208 0 280 225h171zM871 629q-12 149 -93 232.5t-213 83.5q-267 0 -310 -316h616zM871 1506 l-212 -292h-190l-216 292h176l139 -196l146 196h157z"/>
    <glyph glyph-name="Gcircumflex" unicode="Ĝ" horiz-adv-x="1554" vert-adv-y="1433" d="M1428 772v-772h-123l-29 111q-12 45 -20 72q-176 -217 -470 -217q-352 0 -544 253q-155 204 -155 498q0 349 196 564t515 215q298 0 469 -176q127 -130 145 -307h-190q-21 144 -137 231.5t-286 87.5q-239 0 -378.5 -164t-139.5 -444q0 -273 140 -433.5t377 -160.5 q211 0 332 128.5t126 357.5h-468v156h640zM1116 1582h-198l-130 178l-138 -178h-179l212 272h218z"/>
    <glyph glyph-name="gcircumflex" unicode="ĝ" horiz-adv-x="1176" vert-adv-y="1433" d="M1046 1060v-945q0 -235 -72 -354q-117 -194 -419 -194q-406 0 -446 313h179q32 -177 272 -177q185 0 256 105q58 86 58 244v129q-110 -195 -338 -195q-210 0 -337 147.5t-127 391.5q0 260 135 414q134 152 340 152q218 0 337 -185v154h162zM555 945q-149 0 -231 -123 q-73 -109 -73 -284q0 -228 114 -331q82 -74 194 -74q156 0 240 130q72 112 72 292q0 183 -84 286.5t-232 103.5zM888 1214h-177l-137 195l-145 -195h-157l212 292h188z"/>
    <glyph glyph-name="Gdotaccent" unicode="Ġ" horiz-adv-x="1554" vert-adv-y="1433" d="M1428 772v-772h-123l-29 111q-12 45 -20 72q-176 -217 -470 -217q-352 0 -544 253q-155 204 -155 498q0 349 196 564t515 215q298 0 469 -176q127 -130 145 -307h-190q-21 144 -137 231.5t-286 87.5q-239 0 -378.5 -164t-139.5 -444q0 -273 140 -433.5t377 -160.5 q211 0 332 128.5t126 357.5h-468v156h640zM892 1818v-202h-190v202h190z"/>
    <glyph glyph-name="gdotaccent" unicode="ġ" horiz-adv-x="1176" vert-adv-y="1433" d="M1046 1060v-945q0 -235 -72 -354q-117 -194 -419 -194q-406 0 -446 313h179q32 -177 272 -177q185 0 256 105q58 86 58 244v129q-110 -195 -338 -195q-210 0 -337 147.5t-127 391.5q0 260 135 414q134 152 340 152q218 0 337 -185v154h162zM555 945q-149 0 -231 -123 q-73 -109 -73 -284q0 -228 114 -331q82 -74 194 -74q156 0 240 130q72 112 72 292q0 183 -84 286.5t-232 103.5zM668 1451v-208h-187v208h187z"/>
    <glyph glyph-name="Gcommaaccent" unicode="Ģ" horiz-adv-x="1554" vert-adv-y="1433" d="M1428 772v-772h-123l-29 111q-12 45 -20 72q-176 -217 -470 -217q-352 0 -544 253q-155 204 -155 498q0 349 196 564t515 215q298 0 469 -176q127 -130 145 -307h-190q-21 144 -137 231.5t-286 87.5q-239 0 -378.5 -164t-139.5 -444q0 -273 140 -433.5t377 -160.5 q211 0 332 128.5t126 357.5h-468v156h640zM886 -132v-142q0 -226 -190 -246v73q92 22 101 134h-101v181h190z"/>
    <glyph glyph-name="gcommaaccent" unicode="ģ" horiz-adv-x="1176" vert-adv-y="1433" d="M1046 1060v-945q0 -235 -72 -354q-117 -194 -419 -194q-406 0 -446 313h179q32 -177 272 -177q185 0 256 105q58 86 58 244v129q-110 -195 -338 -195q-210 0 -337 147.5t-127 391.5q0 260 135 414q134 152 340 152q218 0 337 -185v154h162zM555 945q-149 0 -231 -123 q-73 -109 -73 -284q0 -228 114 -331q82 -74 194 -74q156 0 240 130q72 112 72 292q0 183 -84 286.5t-232 103.5zM464 1207v142q0 226 190 247v-74q-90 -22 -101 -134h101v-181h-190z"/>
    <glyph glyph-name="Hcircumflex" unicode="Ĥ" horiz-adv-x="1479" vert-adv-y="1433" d="M1318 1462v-1462h-193v685h-772v-685h-193v1462h193v-609h772v609h193zM1062 1582h-198l-130 178l-138 -178h-179l212 272h218z"/>
    <glyph glyph-name="hcircumflex" unicode="ĥ" vert-adv-y="1433" d="M304 1462v-428q0 -19 -4 -126q119 183 354 183q188 0 271.5 -95t83.5 -308v-688h-174v667q0 141 -34 191q-58 87 -198 87q-194 0 -266 -164q-33 -76 -33 -281v-500h-174v1462h174zM606 1582h-198l-130 178l-138 -178h-179l212 272h218z"/>
    <glyph glyph-name="Hbar" unicode="Ħ" horiz-adv-x="1494" vert-adv-y="1433" d="M1326 1240h146v-146h-146v-1094h-193v685h-772v-685h-193v1094h-146v146h146v222h193v-222h772v222h193v-222zM361 1094v-241h772v241h-772z"/>
    <glyph glyph-name="hbar" unicode="ħ" horiz-adv-x="1179" vert-adv-y="1433" d="M328 0h-174v1198h-146v127h146v137h174v-137h339v-127h-339v-164q0 -19 -4 -126q119 183 353 183q232 0 316 -159q40 -77 40 -244v-688h-174v667q0 141 -34 192q-58 86 -199 86q-91 0 -161.5 -43.5t-103.5 -120.5q-20 -47 -26.5 -101.5t-6.5 -179.5v-500z"/>
    <glyph glyph-name="Itilde" unicode="Ĩ" horiz-adv-x="530" vert-adv-y="1433" d="M362 1462v-1462h-193v1462h193zM615 1841q-14 -109 -69 -170t-138 -61q-52 0 -141 34q-123 46 -158 46q-69 0 -96 -92h-98q13 109 69 168.5t144 59.5q44 0 77.5 -10t146.5 -55q30 -12 65 -12q74 0 97 92h101z"/>
    <glyph glyph-name="itilde" unicode="ĩ" horiz-adv-x="455" vert-adv-y="1433" d="M316 1060v-1060h-174v1060h174zM547 1486q-12 -100 -56 -159q-52 -71 -132 -71q-47 0 -129 34q-112 46 -143 46q-61 0 -84 -92h-93q12 109 63 168.5t132 59.5q39 0 69.5 -10t133.5 -56q27 -12 58 -12q65 0 85 92h96z"/>
    <glyph glyph-name="Imacron" unicode="Ī" horiz-adv-x="530" vert-adv-y="1433" d="M362 1462v-1462h-193v1462h193zM610 1768v-126h-690v126h690z"/>
    <glyph glyph-name="imacron" unicode="ī" horiz-adv-x="455" vert-adv-y="1433" d="M316 1060v-1060h-174v1060h174zM537 1399v-120h-617v120h617z"/>
    <glyph glyph-name="Ibreve" unicode="Ĭ" horiz-adv-x="530" vert-adv-y="1433" d="M362 1462v-1462h-193v1462h193zM584 1872q-10 -105 -59 -172q-86 -118 -264 -118q-179 0 -263 121q-48 69 -51 169h103q38 -150 220 -150q89 0 138.5 35t73.5 115h102z"/>
    <glyph glyph-name="ibreve" unicode="ĭ" horiz-adv-x="455" vert-adv-y="1433" d="M315 1060v-1060h-174v1060h174zM519 1505q-13 -118 -47 -173q-38 -61 -99 -89.5t-153 -28.5q-190 0 -253 140q-26 56 -30 151h99q10 -70 37 -103q48 -58 159 -58q86 0 128.5 36t60.5 125h98z"/>
    <glyph glyph-name="Iogonek" unicode="Į" horiz-adv-x="530" vert-adv-y="1433" d="M351 0q-122 -91 -122 -177q0 -47 40 -77t103 -30q36 0 90 16v-95q-70 -22 -126 -22q-110 0 -174 55q-58 50 -58 125q0 56 31 102.5t106 102.5h-72v1462h193v-1462h-11z"/>
    <glyph glyph-name="iogonek" unicode="į" horiz-adv-x="455" vert-adv-y="1433" d="M296 0q-122 -90 -122 -176q0 -48 40 -78t103 -30q36 0 90 16v-95q-69 -22 -125 -22q-111 0 -175 55q-58 50 -58 125q0 57 30.5 102.5t106.5 102.5h-44v1060h174v-1060h-20zM316 1462v-214h-174v214h174z"/>
    <glyph glyph-name="Idotaccent" unicode="İ" horiz-adv-x="530" vert-adv-y="1433" d="M362 1462v-1462h-193v1462h193zM361 1818v-202h-190v202h190z"/>
    <glyph glyph-name="IJ" unicode="Ĳ" horiz-adv-x="1544" vert-adv-y="1433" d="M361 1462v-1462h-193v1462h193zM1396 1462v-991q0 -227 -55 -324q-103 -181 -366 -181q-223 0 -330 112t-107 346q0 25 2 58h188v-18v-35q0 -161 57 -230t189 -69q130 0 179.5 73t49.5 266v993h193z"/>
    <glyph glyph-name="ij" unicode="ĳ" horiz-adv-x="948" vert-adv-y="1433" d="M328 1462v-214h-174v214h174zM328 1060v-1060h-174v1060h174zM794 1060v-1087q0 -151 -6.5 -203t-30.5 -95q-58 -102 -230 -102q-39 0 -81 7v148q36 -8 64 -8q78 0 94 37t16 215v1088h174zM794 1462v-214h-174v214h174z"/>
    <glyph glyph-name="Jcircumflex" unicode="Ĵ" horiz-adv-x="1063" vert-adv-y="1433" d="M903 1462v-991q0 -227 -55 -324q-103 -181 -366 -181q-223 0 -330 112t-107 346q0 25 2 58h188v-18v-35q0 -161 57 -230t189 -69q130 0 179.5 73t49.5 266v993h193zM1125 1582h-198l-130 178l-138 -178h-179l212 272h218z"/>
    <glyph glyph-name="jcircumflex" unicode="ĵ" horiz-adv-x="455" vert-adv-y="1433" d="M317 1060v-1087q0 -151 -6.5 -203t-30.5 -95q-58 -102 -231 -102q-38 0 -80 7v148q36 -8 65 -8q50 0 73.5 15.5t29.5 53.5t6 183v1088h174zM530 1214h-177l-137 195l-145 -195h-157l212 292h188z"/>
    <glyph glyph-name="Kcommaaccent" unicode="Ķ" horiz-adv-x="1366" vert-adv-y="1433" d="M1349 1462l-618 -587l641 -875h-245l-532 743l-242 -230v-513h-193v1462h193v-576v-78l-1 -74q32 31 97 97l646 631h254zM822 -132v-142q0 -226 -190 -246v73q92 22 101 134h-101v181h190z"/>
    <glyph glyph-name="kcommaaccent" unicode="ķ" horiz-adv-x="1063" vert-adv-y="1433" d="M1035 1060l-421 -384l451 -676h-221l-364 554l-167 -152v-402h-174v1462h174v-718v-80v-72q50 53 72 73l417 395h233zM661 -132v-142q0 -226 -190 -246v73q92 22 101 134h-101v181h190z"/>
    <glyph glyph-name="kgreenlandic" unicode="ĸ" horiz-adv-x="1092" vert-adv-y="1433" d="M1050 1060l-421 -384l451 -676h-221l-364 554l-167 -152v-402h-174v1060h174v-316v-80v-72q50 53 72 73l417 395h233z"/>
    <glyph glyph-name="Lacute" unicode="Ĺ" vert-adv-y="1433" d="M1129 168v-168h-970v1462h193v-1294h777zM580 1857l-254 -278h-143l167 278h230z"/>
    <glyph glyph-name="lacute" unicode="ĺ" horiz-adv-x="455" vert-adv-y="1433" d="M315 1462v-1462h-174v1462h174zM518 1874l-246 -293h-121l152 293h215z"/>
    <glyph glyph-name="Lcommaaccent" unicode="Ļ" vert-adv-y="1433" d="M1129 168v-168h-970v1462h193v-1294h777zM739 -132v-142q0 -226 -190 -246v73q92 22 101 134h-101v181h190z"/>
    <glyph glyph-name="lcommaaccent" unicode="ļ" horiz-adv-x="455" vert-adv-y="1433" d="M315 1462v-1462h-174v1462h174zM323 -132v-142q0 -226 -190 -246v73q92 22 101 134h-101v181h190z"/>
    <glyph glyph-name="Lcaron" unicode="Ľ" vert-adv-y="1433" d="M1129 168v-168h-970v1462h193v-1294h777zM867 1462v-157q0 -88 -11.5 -133.5t-42.5 -79.5q-45 -50 -151 -62v73q74 20 93 53q22 36 22 110h-115v196h205z"/>
    <glyph glyph-name="lcaron" unicode="ľ" horiz-adv-x="639" vert-adv-y="1433" d="M315 1462v-1462h-174v1462h174zM605 1462v-142q0 -226 -190 -247v74q92 22 101 134h-101v181h190z"/>
    <glyph glyph-name="Ldot" unicode="Ŀ" vert-adv-y="1433" d="M1129 168v-168h-970v1462h193v-1294h777zM942 859v-228h-240v228h240z"/>
    <glyph glyph-name="ldot" unicode="ŀ" horiz-adv-x="740" vert-adv-y="1433" d="M327 1462v-1462h-174v1462h174zM739 869v-246h-259v246h259z"/>
    <glyph glyph-name="Nacute" unicode="Ń" horiz-adv-x="1479" vert-adv-y="1433" d="M1326 1462v-1462h-213l-522 788q-199 300 -264 436q9 -108 12 -349l1 -137v-738h-184v1462h209l547 -832q165 -251 243 -400q-13 301 -13 501v731h184zM1024 1857l-254 -278h-143l167 278h230z"/>
    <glyph glyph-name="nacute" unicode="ń" vert-adv-y="1433" d="M292 1060v-165q137 196 370 196q219 0 303 -155q44 -80 44 -251v-685h-174v624q0 178 -36 233q-58 87 -192 87q-195 0 -266 -160q-37 -83 -37 -271v-513h-174v1060h162zM826 1499l-246 -293h-121l152 293h215z"/>
    <glyph glyph-name="Ncommaaccent" unicode="Ņ" horiz-adv-x="1479" vert-adv-y="1433" d="M1326 1462v-1462h-213l-522 788q-199 300 -264 436q9 -108 12 -349l1 -137v-738h-184v1462h209l547 -832q165 -251 243 -400q-13 301 -13 501v731h184zM836 -132v-142q0 -226 -190 -246v73q92 22 101 134h-101v181h190z"/>
    <glyph glyph-name="ncommaaccent" unicode="ņ" vert-adv-y="1433" d="M292 1060v-165q137 196 370 196q219 0 303 -155q44 -80 44 -251v-685h-174v624q0 178 -36 233q-58 87 -192 87q-195 0 -266 -160q-37 -83 -37 -271v-513h-174v1060h162zM664 -132v-142q0 -226 -190 -246v73q92 22 101 134h-101v181h190z"/>
    <glyph glyph-name="Ncaron" unicode="Ň" horiz-adv-x="1479" vert-adv-y="1433" d="M1326 1462v-1462h-213l-522 788q-199 300 -264 436q9 -108 12 -349l1 -137v-738h-184v1462h209l547 -832q165 -251 243 -400q-13 301 -13 501v731h184zM418 1854h198l130 -178l138 178h179l-212 -272h-218z"/>
    <glyph glyph-name="ncaron" unicode="ň" vert-adv-y="1433" d="M292 1060v-165q137 196 370 196q219 0 303 -155q44 -80 44 -251v-685h-174v624q0 178 -36 233q-58 87 -192 87q-195 0 -266 -160q-37 -83 -37 -271v-513h-174v1060h162zM878 1506l-212 -292h-190l-216 292h176l139 -196l146 196h157z"/>
    <glyph glyph-name="napostrophe" unicode="ŉ" horiz-adv-x="1580" vert-adv-y="1433" d="M390 1462v-161q0 -99 -17 -158.5t-59 -111.5q-57 -68 -158 -92v101q113 37 119 201h-119v221h234zM716 1060v-165q48 68 87 101q112 95 283 95q142 0 235 -73q64 -51 88 -123t24 -210v-685h-174v624q0 106 -7 153t-29 80q-57 87 -193 87q-134 0 -217 -87 q-49 -52 -67 -125.5t-18 -218.5v-513h-174v1060h162z"/>
    <glyph glyph-name="Eng" unicode="Ŋ" horiz-adv-x="1494" vert-adv-y="1433" d="M361 1462v-218q64 88 119 130q154 122 386 122q191 0 312 -95q84 -66 116 -159.5t32 -274.5v-994q0 -152 -7 -203.5t-33 -93.5q-62 -103 -247 -103q-37 0 -80 8v147q35 -8 63 -8q56 0 80 19t27 67q4 62 4 166v915q0 144 -11 211.5t-42 112.5q-30 43 -75 70 q-87 51 -209 51q-194 0 -313 -119q-69 -70 -95.5 -171.5t-26.5 -300.5v-741h-193v1462h193z"/>
    <glyph glyph-name="eng" unicode="ŋ" horiz-adv-x="1179" vert-adv-y="1433" d="M315 1060v-165q48 68 87 101q112 95 283 95q143 0 235 -73q64 -51 88 -123t24 -210v-712q0 -150 -6.5 -203t-30.5 -94q-58 -103 -230 -103q-38 0 -81 8v147q35 -8 64 -8q51 0 74.5 15.5t29.5 53.5t6 183v652q0 106 -7.5 153t-28.5 80q-58 87 -192 87q-135 0 -218 -87 q-48 -52 -66.5 -125.5t-18.5 -218.5v-513h-174v1060h162z"/>
    <glyph glyph-name="Omacron" unicode="Ō" horiz-adv-x="1556" vert-adv-y="1433" d="M791 1496q300 0 494 -211q193 -209 193 -551q0 -305 -150 -506q-196 -262 -551 -262q-353 0 -550 264q-148 199 -148 500q0 354 192 555q202 211 520 211zM772 1332q-213 0 -355 -156q-144 -160 -144 -441q0 -264 121 -421q143 -184 387 -184q207 0 340 136 q163 166 163 463q0 274 -140 440q-138 163 -372 163zM1124 1768v-126h-690v126h690z"/>
    <glyph glyph-name="omacron" unicode="ō" horiz-adv-x="1176" vert-adv-y="1433" d="M597 1091q231 0 367.5 -152t136.5 -408q0 -283 -158 -436q-130 -126 -349 -126q-251 0 -388 162q-131 155 -131 399q0 234 118 382q141 179 404 179zM585 945q-150 0 -241 -113.5t-91 -300.5q0 -195 90.5 -305.5t249.5 -110.5q135 0 218 84q112 114 112 332 q0 193 -90 303.5t-248 110.5zM897 1399v-120h-617v120h617z"/>
    <glyph glyph-name="Obreve" unicode="Ŏ" horiz-adv-x="1556" vert-adv-y="1433" d="M791 1496q300 0 494 -211q193 -209 193 -551q0 -305 -150 -506q-196 -262 -551 -262q-353 0 -550 264q-148 199 -148 500q0 354 192 555q202 211 520 211zM772 1332q-213 0 -355 -156q-144 -160 -144 -441q0 -264 121 -421q143 -184 387 -184q207 0 340 136 q163 166 163 463q0 274 -140 440q-138 163 -372 163zM1097 1872q-10 -105 -59 -172q-86 -118 -264 -118q-179 0 -263 121q-48 69 -51 169h103q38 -150 220 -150q89 0 138.5 35t73.5 115h102z"/>
    <glyph glyph-name="obreve" unicode="ŏ" horiz-adv-x="1176" vert-adv-y="1433" d="M597 1091q231 0 367.5 -152t136.5 -408q0 -283 -158 -436q-130 -126 -349 -126q-251 0 -388 162q-131 155 -131 399q0 234 118 382q141 179 404 179zM585 945q-150 0 -241 -113.5t-91 -300.5q0 -195 90.5 -305.5t249.5 -110.5q135 0 218 84q112 114 112 332 q0 193 -90 303.5t-248 110.5zM879 1505q-13 -118 -47 -173q-38 -61 -99 -89.5t-153 -28.5q-190 0 -253 140q-26 56 -30 151h99q10 -70 37 -103q48 -58 159 -58q86 0 128.5 36t60.5 125h98z"/>
    <glyph glyph-name="Ohungarumlaut" unicode="Ő" horiz-adv-x="1556" vert-adv-y="1433" d="M791 1496q300 0 494 -211q193 -209 193 -551q0 -305 -150 -506q-196 -262 -551 -262q-353 0 -550 264q-148 199 -148 500q0 354 192 555q202 211 520 211zM772 1332q-213 0 -355 -156q-144 -160 -144 -441q0 -264 121 -421q143 -184 387 -184q207 0 340 136 q163 166 163 463q0 274 -140 440q-138 163 -372 163zM1189 1857l-196 -278h-129l123 278h202zM852 1857l-195 -278h-129l123 278h201z"/>
    <glyph glyph-name="ohungarumlaut" unicode="ő" horiz-adv-x="1176" vert-adv-y="1433" d="M597 1091q231 0 367.5 -152t136.5 -408q0 -283 -158 -436q-130 -126 -349 -126q-251 0 -388 162q-131 155 -131 399q0 234 118 382q141 179 404 179zM585 945q-150 0 -241 -113.5t-91 -300.5q0 -195 90.5 -305.5t249.5 -110.5q135 0 218 84q112 114 112 332 q0 193 -90 303.5t-248 110.5zM920 1499l-173 -293h-110l97 293h186zM627 1499l-173 -293h-109l96 293h186z"/>
    <glyph glyph-name="Racute" unicode="Ŕ" horiz-adv-x="1403" vert-adv-y="1433" d="M157 1462h668q184 0 288 -64q177 -110 177 -333q0 -274 -250 -359q106 -22 161 -105q33 -50 42 -95.5t28 -252.5q17 -188 57 -232l18 -21h-221q-22 32 -29 77.5t-15 210.5q-11 206 -81 276t-265 70h-385v-634h-193v1462zM350 1294v-504h364q197 0 274 45q108 63 108 212 q0 131 -77.5 189t-252.5 58h-416zM950 1857l-254 -278h-143l167 278h230z"/>
    <glyph glyph-name="racute" unicode="ŕ" horiz-adv-x="682" vert-adv-y="1433" d="M683 1091v-182q-36 3 -56 3q-139 0 -229 -92q-59 -61 -80 -145.5t-21 -262.5v-412h-174v1060h162v-222q115 253 398 253zM602 1499l-246 -293h-121l152 293h215z"/>
    <glyph glyph-name="Rcommaaccent" unicode="Ŗ" horiz-adv-x="1403" vert-adv-y="1433" d="M157 1462h668q184 0 288 -64q177 -110 177 -333q0 -274 -250 -359q106 -22 161 -105q33 -50 42 -95.5t28 -252.5q17 -188 57 -232l18 -21h-221q-22 32 -29 77.5t-15 210.5q-11 206 -81 276t-265 70h-385v-634h-193v1462zM350 1294v-504h364q197 0 274 45q108 63 108 212 q0 131 -77.5 189t-252.5 58h-416zM823 -132v-142q0 -226 -190 -246v73q92 22 101 134h-101v181h190z"/>
    <glyph glyph-name="rcommaaccent" unicode="ŗ" horiz-adv-x="682" vert-adv-y="1433" d="M684 1091v-182q-36 3 -56 3q-139 0 -229 -92q-59 -61 -80 -145.5t-21 -262.5v-412h-174v1060h162v-222q115 253 398 253zM310 -132v-142q0 -226 -190 -246v73q92 22 101 134h-101v181h190z"/>
    <glyph glyph-name="Rcaron" unicode="Ř" horiz-adv-x="1403" vert-adv-y="1433" d="M157 1462h668q184 0 288 -64q177 -110 177 -333q0 -274 -250 -359q106 -22 161 -105q33 -50 42 -95.5t28 -252.5q17 -188 57 -232l18 -21h-221q-22 32 -29 77.5t-15 210.5q-11 206 -81 276t-265 70h-385v-634h-193v1462zM350 1294v-504h364q197 0 274 45q108 63 108 212 q0 131 -77.5 189t-252.5 58h-416zM352 1854h198l130 -178l138 178h179l-212 -272h-218z"/>
    <glyph glyph-name="rcaron" unicode="ř" horiz-adv-x="682" vert-adv-y="1433" d="M683 1091v-182q-36 3 -56 3q-139 0 -229 -92q-59 -61 -80 -145.5t-21 -262.5v-412h-174v1060h162v-222q115 253 398 253zM664 1506l-212 -292h-190l-216 292h176l139 -196l146 196h157z"/>
    <glyph glyph-name="Sacute" unicode="Ś" horiz-adv-x="1327" vert-adv-y="1433" d="M1194 1034h-186q-35 298 -366 298q-155 0 -242 -64t-87 -179q0 -102 73.5 -147.5t323.5 -99.5q264 -56 366 -121q175 -113 175 -310q0 -208 -152 -326.5t-418 -118.5q-285 0 -443.5 135.5t-160.5 381.5h187q4 -173 114.5 -263t316.5 -90q170 0 265.5 70.5t95.5 196.5 q0 113 -79.5 166t-342.5 115q-280 65 -356 112q-151 91 -151 287q0 194 138.5 306.5t377.5 112.5q258 0 401 -120t150 -342zM929 1857l-254 -278h-143l167 278h230z"/>
    <glyph glyph-name="sacute" unicode="ś" horiz-adv-x="1024" vert-adv-y="1433" d="M918 752h-175q-27 193 -258 193q-217 0 -217 -147q0 -66 52 -96.5t231 -70.5q229 -52 319.5 -123t90.5 -199q0 -155 -120 -247.5t-320 -92.5q-442 0 -455 366h171q26 -220 285 -220q117 0 188.5 48t71.5 126q0 68 -54.5 105t-212.5 75q-241 59 -301 91q-124 66 -124 218 q0 144 109 228.5t294 84.5q398 0 425 -339zM758 1499l-246 -293h-121l152 293h215z"/>
    <glyph glyph-name="Scircumflex" unicode="Ŝ" horiz-adv-x="1327" vert-adv-y="1433" d="M1194 1034h-186q-35 298 -366 298q-155 0 -242 -64t-87 -179q0 -102 73.5 -147.5t323.5 -99.5q264 -56 366 -121q175 -113 175 -310q0 -208 -152 -326.5t-418 -118.5q-285 0 -443.5 135.5t-160.5 381.5h187q4 -173 114.5 -263t316.5 -90q170 0 265.5 70.5t95.5 196.5 q0 113 -79.5 166t-342.5 115q-280 65 -356 112q-151 91 -151 287q0 194 138.5 306.5t377.5 112.5q258 0 401 -120t150 -342zM986 1582h-198l-130 178l-138 -178h-179l212 272h218z"/>
    <glyph glyph-name="scircumflex" unicode="ŝ" horiz-adv-x="1024" vert-adv-y="1433" d="M918 752h-175q-27 193 -258 193q-217 0 -217 -147q0 -66 52 -96.5t231 -70.5q229 -52 319.5 -123t90.5 -199q0 -155 -120 -247.5t-320 -92.5q-442 0 -455 366h171q26 -220 285 -220q117 0 188.5 48t71.5 126q0 68 -54.5 105t-212.5 75q-241 59 -301 91q-124 66 -124 218 q0 144 109 228.5t294 84.5q398 0 425 -339zM821 1214h-177l-137 195l-145 -195h-157l212 292h188z"/>
    <glyph glyph-name="Tcommaaccent" unicode="Ţ" horiz-adv-x="1176" vert-adv-y="1433" d="M1176 1462v-168h-491v-1294h-193v1294h-491v168h1175zM684 -132v-142q0 -226 -190 -246v73q92 22 101 134h-101v181h190z"/>
    <glyph glyph-name="tcommaaccent" unicode="ţ" horiz-adv-x="645" vert-adv-y="1433" d="M583 1060v-143h-211v-626q0 -105 21 -134t96 -29q45 0 94 13v-150q-65 -9 -134 -9q-169 0 -220 83q-21 34 -26 86t-5 238v528h-178v143h178v314h174v-314h211zM381 -132v-142q0 -226 -190 -246v73q92 22 101 134h-101v181h190z"/>
    <glyph glyph-name="Tcaron" unicode="Ť" horiz-adv-x="1176" vert-adv-y="1433" d="M1176 1462v-168h-491v-1294h-193v1294h-491v168h1175zM266 1854h198l130 -178l138 178h179l-212 -272h-218z"/>
    <glyph glyph-name="tcaron" unicode="ť" horiz-adv-x="751" vert-adv-y="1433" d="M583 1060v-143h-211v-626q0 -105 21 -134t96 -29q45 0 94 13v-150q-65 -9 -134 -9q-169 0 -220 83q-21 34 -26 86t-5 238v528h-178v143h178v314h174v-314h211zM712 1607v-142q0 -226 -190 -247v74q92 22 101 134h-101v181h190z"/>
    <glyph glyph-name="Tbar" unicode="Ŧ" horiz-adv-x="1240" vert-adv-y="1433" d="M1207 1462v-168h-491v-417h336v-146h-336v-731h-193v731h-336v146h336v417h-491v168h1175z"/>
    <glyph glyph-name="tbar" unicode="ŧ" horiz-adv-x="618" vert-adv-y="1433" d="M556 1060v-143h-211v-202h189v-127h-189v-297q0 -100 16 -126q22 -37 101 -37q45 0 94 13v-150q-66 -9 -135 -9q-168 0 -219 83q-21 34 -26 86t-5 238v199h-164v127h164v202h-178v143h178v314h174v-314h211z"/>
    <glyph glyph-name="Utilde" unicode="Ũ" horiz-adv-x="1479" vert-adv-y="1433" d="M1328 1462v-853q0 -180 -20 -267.5t-80 -172.5q-144 -203 -483 -203q-366 0 -511 228q-83 132 -83 418v850h193v-855q0 -227 53 -321q88 -156 350 -156q251 0 334 145q54 96 54 332v855h193zM1089 1841q-14 -109 -69 -170t-138 -61q-52 0 -141 34q-123 46 -158 46 q-69 0 -96 -92h-98q13 109 69 168.5t144 59.5q44 0 77.5 -10t146.5 -55q30 -12 65 -12q74 0 97 92h101z"/>
    <glyph glyph-name="utilde" unicode="ũ" vert-adv-y="1433" d="M1011 1060v-1060h-162v165q-132 -196 -368 -196q-182 0 -267.5 97.5t-85.5 305.5v688h174v-625q0 -176 34 -231q56 -89 195 -89q179 0 264 157q42 77 42 275v513h174zM891 1486q-12 -100 -56 -159q-52 -71 -132 -71q-47 0 -129 34q-112 46 -143 46q-61 0 -84 -92h-93 q12 109 63 168.5t132 59.5q39 0 69.5 -10t133.5 -56q27 -12 58 -12q65 0 85 92h96z"/>
    <glyph glyph-name="Umacron" unicode="Ū" horiz-adv-x="1479" vert-adv-y="1433" d="M1328 1462v-853q0 -180 -20 -267.5t-80 -172.5q-144 -203 -483 -203q-366 0 -511 228q-83 132 -83 418v850h193v-855q0 -227 53 -321q88 -156 350 -156q251 0 334 145q54 96 54 332v855h193zM1085 1768v-126h-690v126h690z"/>
    <glyph glyph-name="umacron" unicode="ū" vert-adv-y="1433" d="M1011 1060v-1060h-162v165q-132 -196 -368 -196q-182 0 -267.5 97.5t-85.5 305.5v688h174v-625q0 -176 34 -231q56 -89 195 -89q179 0 264 157q42 77 42 275v513h174zM878 1399v-120h-617v120h617z"/>
    <glyph glyph-name="Ubreve" unicode="Ŭ" horiz-adv-x="1479" vert-adv-y="1433" d="M1328 1462v-853q0 -180 -20 -267.5t-80 -172.5q-144 -203 -483 -203q-366 0 -511 228q-83 132 -83 418v850h193v-855q0 -227 53 -321q88 -156 350 -156q251 0 334 145q54 96 54 332v855h193zM1058 1872q-10 -105 -59 -172q-86 -118 -264 -118q-179 0 -263 121 q-48 69 -51 169h103q38 -150 220 -150q89 0 138.5 35t73.5 115h102z"/>
    <glyph glyph-name="ubreve" unicode="ŭ" vert-adv-y="1433" d="M1011 1060v-1060h-162v165q-132 -196 -368 -196q-182 0 -267.5 97.5t-85.5 305.5v688h174v-625q0 -176 34 -231q56 -89 195 -89q179 0 264 157q42 77 42 275v513h174zM861 1505q-13 -118 -47 -173q-38 -61 -99 -89.5t-153 -28.5q-190 0 -253 140q-26 56 -30 151h99 q10 -70 37 -103q48 -58 159 -58q86 0 128.5 36t60.5 125h98z"/>
    <glyph glyph-name="Uring" unicode="Ů" horiz-adv-x="1479" vert-adv-y="1433" d="M1328 1462v-853q0 -180 -20 -267.5t-80 -172.5q-144 -203 -483 -203q-366 0 -511 228q-83 132 -83 418v850h193v-855q0 -227 53 -321q88 -156 350 -156q251 0 334 145q54 96 54 332v855h193zM744 2016q99 0 169 -77q60 -67 60 -156q0 -103 -77 -173q-66 -60 -156 -60 q-105 0 -174 77q-60 66 -60 158q0 100 77 171q66 60 161 60zM734 1911q-51 0 -88.5 -38t-37.5 -90q0 -53 37.5 -90.5t90.5 -37.5q55 0 93.5 37.5t38.5 91.5q0 52 -39 89.5t-95 37.5z"/>
    <glyph glyph-name="uring" unicode="ů" vert-adv-y="1433" d="M1011 1060v-1060h-162v165q-132 -196 -368 -196q-182 0 -267.5 97.5t-85.5 305.5v688h174v-625q0 -176 34 -231q56 -89 195 -89q179 0 264 157q42 77 42 275v513h174zM573 1613q89 0 153.5 -65.5t64.5 -155.5q0 -92 -65 -157t-157 -65t-156.5 65t-64.5 158q0 92 65.5 156 t159.5 64zM564 1519q-51 0 -88 -37.5t-37 -90.5t37 -90t90 -37q55 0 93 37.5t38 90.5t-39 90t-94 37z"/>
    <glyph glyph-name="Uhungarumlaut" unicode="Ű" horiz-adv-x="1479" vert-adv-y="1433" d="M1328 1462v-853q0 -180 -20 -267.5t-80 -172.5q-144 -203 -483 -203q-366 0 -511 228q-83 132 -83 418v850h193v-855q0 -227 53 -321q88 -156 350 -156q251 0 334 145q54 96 54 332v855h193zM1138 1857l-196 -278h-129l123 278h202zM801 1857l-195 -278h-129l123 278h201 z"/>
    <glyph glyph-name="uhungarumlaut" unicode="ű" vert-adv-y="1433" d="M1011 1060v-1060h-162v165q-132 -196 -368 -196q-182 0 -267.5 97.5t-85.5 305.5v688h174v-625q0 -176 34 -231q56 -89 195 -89q179 0 264 157q42 77 42 275v513h174zM890 1499l-173 -293h-110l97 293h186zM597 1499l-173 -293h-109l96 293h186z"/>
    <glyph glyph-name="Uogonek" unicode="Ų" horiz-adv-x="1479" vert-adv-y="1433" d="M924 -18q-98 -78 -98 -159q0 -47 40.5 -77t103.5 -30q35 0 89 16v-95q-70 -22 -126 -22q-110 0 -174 55q-58 50 -58 125q0 93 95 173q-24 -2 -52 -2q-244 0 -380 94q-154 105 -194 296q-19 90 -19 256v850h193v-855q0 -140 10 -201.5t43 -119.5q88 -156 351 -156 q251 0 333 145q31 55 42.5 125t11.5 207v855h193v-853q0 -196 -24 -280q-82 -287 -380 -347z"/>
    <glyph glyph-name="uogonek" unicode="ų" vert-adv-y="1433" d="M995 0q-122 -92 -122 -177q0 -47 40.5 -77t103.5 -30q35 0 89 16v-95q-69 -22 -126 -22q-109 0 -174 55q-58 50 -58 125q0 56 30.5 102t106.5 103h-36v165q-132 -196 -368 -196q-188 0 -282 116q-39 47 -55 113t-16 174v688h174v-625q0 -176 34 -231q56 -89 195 -89 q179 0 264 157q42 77 42 275v513h174v-1060h-16z"/>
    <glyph glyph-name="Wcircumflex" unicode="Ŵ" horiz-adv-x="1896" vert-adv-y="1433" d="M1877 1462l-390 -1462h-204l-247 895q-61 223 -89 383q-33 -154 -95 -372l-246 -906h-207l-379 1462h200l217 -897q53 -220 76 -366q23 139 86 371l244 892h212l250 -913q50 -181 80 -350q22 137 73 346l225 917h194zM1271 1582h-198l-130 178l-138 -178h-179l212 272 h218z"/>
    <glyph glyph-name="wcircumflex" unicode="ŵ" horiz-adv-x="1552" vert-adv-y="1433" d="M1519 1060l-338 -1060h-186l-157 579q-32 116 -63 264q-32 -146 -62 -263l-151 -580h-189l-340 1060h193l147 -507q48 -166 95 -360q52 245 83 365l131 502h193l153 -564q28 -105 68 -303q40 180 75 300l166 567h182zM1084 1214h-177l-137 195l-145 -195h-157l212 292 h188z"/>
    <glyph glyph-name="Ycircumflex" unicode="Ŷ" horiz-adv-x="1327" vert-adv-y="1433" d="M1326 1462l-564 -864v-598h-193v598l-569 864h233l344 -546q62 -99 95 -159q37 69 90 154l343 551h221zM986 1582h-198l-130 178l-138 -178h-179l212 272h218z"/>
    <glyph glyph-name="ycircumflex" unicode="ŷ" horiz-adv-x="1024" vert-adv-y="1433" d="M1008 1060l-390 -1025q-105 -277 -146 -342q-75 -120 -226 -120q-52 0 -102 12l-27 6v156q75 -23 118 -23q60 0 96 51t105 232l-420 1053h196l232 -621q24 -63 81 -245q52 163 86 261l213 605h184zM820 1214h-177l-137 195l-145 -195h-157l212 292h188z"/>
    <glyph glyph-name="Zacute" unicode="Ź" horiz-adv-x="1251" vert-adv-y="1433" d="M1188 1462v-160l-831 -1032l-90 -107q235 5 268 5h675v-168h-1167v163l840 1043q11 14 81 93q-130 -5 -259 -5h-590v168h1073zM909 1857l-254 -278h-143l167 278h230z"/>
    <glyph glyph-name="zacute" unicode="ź" horiz-adv-x="983" vert-adv-y="1433" d="M913 1060v-115l-570 -710q-12 -15 -79 -93q65 1 131 1h544v-143h-895v129l555 691q17 21 89 98q-72 -1 -100 -1h-503v143h828zM751 1499l-246 -293h-121l152 293h215z"/>
    <glyph glyph-name="Zdotaccent" unicode="Ż" horiz-adv-x="1251" vert-adv-y="1433" d="M1188 1462v-160l-831 -1032l-90 -107q235 5 268 5h675v-168h-1167v163l840 1043q11 14 81 93q-130 -5 -259 -5h-590v168h1073zM734 1818v-202h-190v202h190z"/>
    <glyph glyph-name="zdotaccent" unicode="ż" horiz-adv-x="983" vert-adv-y="1433" d="M913 1060v-115l-570 -710q-12 -15 -79 -93q65 1 131 1h544v-143h-895v129l555 691q17 21 89 98q-72 -1 -100 -1h-503v143h828zM585 1451v-208h-187v208h187z"/>
    <glyph glyph-name="longs" unicode="ſ" horiz-adv-x="558" vert-adv-y="1433" d="M343 0h-167v915h-140v136h140v178q7 75 23 114.5t53 69.5q65 55 173 55q45 0 93 -10v-139q-34 2 -59 2q-116 0 -116 -105v-1216z"/>
    <glyph glyph-name="uni018F" unicode="Ə" horiz-adv-x="1570" vert-adv-y="1433" d="M1300 806q-20 177 -99 298q-70 107 -191 163q-105 49 -225 49q-164 0 -285 -81.5t-184 -234.5l-190 38q50 122 108 196q101 131 257 196q133 56 294 56q275 0 459 -155q131 -110 194 -277q61 -158 61 -334q0 -261 -121 -455q-111 -178 -303 -257q-131 -53 -290 -53 q-274 0 -458 155q-131 110 -195 277q-60 159 -60 333q0 36 4 86h1224zM1300 635h-1030q20 -177 100 -298q71 -107 191 -163q104 -49 224 -49q215 0 353 137t162 373z"/>
    <glyph glyph-name="uni01CD" unicode="Ǎ" horiz-adv-x="1327" vert-adv-y="1433" d="M774 1468l572 -1468h-215l-163 449h-614l-167 -449h-204l574 1468h217zM911 605l-145 389q-72 196 -103 296q-33 -94 -106 -289l-147 -396h501zM342 1854h198l130 -178l138 178h179l-212 -272h-218z"/>
    <glyph glyph-name="uni01CE" unicode="ǎ" horiz-adv-x="1100" vert-adv-y="1433" d="M1069 140v-136q-61 -22 -125 -22q-147 0 -150 158q-148 -171 -384 -171q-156 0 -247 81t-91 220q0 209 199 289q72 29 326 60q106 13 146 43t40 96q0 187 -239 187q-126 0 -187 -51t-73 -166h-171q4 170 121.5 266.5t321.5 96.5q224 0 333 -105q72 -69 72 -273 q0 -184 -7 -413q-1 -48 -1 -71q0 -101 69 -101q21 0 47 12zM786 550q-57 -41 -234 -64q-174 -21 -237.5 -64t-63.5 -137q0 -83 56.5 -131.5t153.5 -48.5q190 0 291 142q34 47 34 145v158zM856 1506l-212 -292h-190l-216 292h176l139 -196l146 196h157z"/>
    <glyph glyph-name="uni01D3" unicode="Ǔ" horiz-adv-x="1479" vert-adv-y="1433" d="M1328 1462v-853q0 -180 -20 -267.5t-80 -172.5q-144 -203 -483 -203q-366 0 -511 228q-83 132 -83 418v850h193v-855q0 -227 53 -321q88 -156 350 -156q251 0 334 145q54 96 54 332v855h193zM417 1854h198l130 -178l138 178h179l-212 -272h-218z"/>
    <glyph glyph-name="uni01D4" unicode="ǔ" vert-adv-y="1433" d="M1011 1060v-1060h-162v165q-132 -196 -368 -196q-182 0 -267.5 97.5t-85.5 305.5v688h174v-625q0 -176 34 -231q56 -89 195 -89q179 0 264 157q42 77 42 275v513h174zM879 1506l-212 -292h-190l-216 292h176l139 -196l146 196h157z"/>
    <glyph glyph-name="uni01E6" unicode="Ǧ" horiz-adv-x="1554" vert-adv-y="1433" d="M1428 772v-772h-123l-29 111q-12 45 -20 72q-176 -217 -470 -217q-352 0 -544 253q-155 204 -155 498q0 349 196 564t515 215q298 0 469 -176q127 -130 145 -307h-190q-21 144 -137 231.5t-286 87.5q-239 0 -378.5 -164t-139.5 -444q0 -273 140 -433.5t377 -160.5 q211 0 332 128.5t126 357.5h-468v156h640zM471 1854h198l130 -178l138 178h179l-212 -272h-218z"/>
    <glyph glyph-name="uni01E7" unicode="ǧ" horiz-adv-x="1176" vert-adv-y="1433" d="M1046 1060v-945q0 -235 -72 -354q-117 -194 -419 -194q-406 0 -446 313h179q32 -177 272 -177q185 0 256 105q58 86 58 244v129q-110 -195 -338 -195q-210 0 -337 147.5t-127 391.5q0 260 135 414q134 152 340 152q218 0 337 -185v154h162zM555 945q-149 0 -231 -123 q-73 -109 -73 -284q0 -228 114 -331q82 -74 194 -74q156 0 240 130q72 112 72 292q0 183 -84 286.5t-232 103.5zM883 1506l-212 -292h-190l-216 292h176l139 -196l146 196h157z"/>
    <glyph glyph-name="uni01F4" unicode="Ǵ" horiz-adv-x="1554" vert-adv-y="1433" d="M1428 772v-772h-123l-29 111q-12 45 -20 72q-176 -217 -470 -217q-352 0 -544 253q-155 204 -155 498q0 349 196 564t515 215q298 0 469 -176q127 -130 145 -307h-190q-21 144 -137 231.5t-286 87.5q-239 0 -378.5 -164t-139.5 -444q0 -273 140 -433.5t377 -160.5 q211 0 332 128.5t126 357.5h-468v156h640zM1065 1857l-254 -278h-143l167 278h230z"/>
    <glyph glyph-name="uni01F5" unicode="ǵ" horiz-adv-x="1176" vert-adv-y="1433" d="M1046 1060v-945q0 -235 -72 -354q-117 -194 -419 -194q-406 0 -446 313h179q32 -177 272 -177q185 0 256 105q58 86 58 244v129q-110 -195 -338 -195q-210 0 -337 147.5t-127 391.5q0 260 135 414q134 152 340 152q218 0 337 -185v154h162zM555 945q-149 0 -231 -123 q-73 -109 -73 -284q0 -228 114 -331q82 -74 194 -74q156 0 240 130q72 112 72 292q0 183 -84 286.5t-232 103.5zM828 1499l-246 -293h-121l152 293h215z"/>
    <glyph glyph-name="Aringacute" unicode="Ǻ" horiz-adv-x="1338" vert-adv-y="1433" d="M952 440h-565l-154 -440h-199l522 1462h241l513 -1462h-208zM899 597l-225 664l-240 -664h465zM672 1872q72 0 123 -51.5t51 -124.5q0 -72 -51.5 -123.5t-124.5 -51.5q-74 0 -125 51q-52 52 -52 124q0 74 52 125t127 51zM668 1785q-36 0 -62 -26t-26 -63q0 -36 26.5 -62 t63.5 -26q36 0 62.5 26t26.5 62q0 38 -26 63.5t-65 25.5zM713 2177h226l-299 -297h-120z"/>
    <glyph glyph-name="aringacute" unicode="ǻ" horiz-adv-x="1115" vert-adv-y="1433" d="M609 1779h226l-299 -297h-120zM560 1473q72 0 123 -51.5t51 -123.5q0 -74 -51.5 -125t-124.5 -51q-74 0 -125 51q-52 53 -52 124q0 74 52 125t127 51zM556 1386q-36 0 -62 -26t-26 -63q0 -36 26.5 -62t63.5 -26t63 25.5t26 62.5q0 39 -25.5 64t-65.5 25zM1073 121v-125 q-68 -19 -110 -19q-112 0 -150 67q-21 36 -26 87q-89 -82 -173 -118t-185 -36q-163 0 -255 86q-90 83 -90 219q0 146 104 225q49 38 117 59.5t182 35.5l120 15q100 14 137 38.5t37 78.5v28q-6 51 -21 77.5t-50 45.5q-62 33 -165 33q-118 0 -176.5 -44t-68.5 -139h-168 q6 140 68 212q109 126 352 126q195 0 295 -73t100 -214v-586q3 -44 24.5 -63.5t65.5 -19.5q16 0 36 4zM781 526q-65 -28 -177 -44l-93 -14q-134 -21 -189 -60q-65 -47 -65 -125q0 -77 54 -118.5t155 -41.5q147 0 249 95q66 60 66 135v173z"/>
    <glyph glyph-name="AEacute" unicode="Ǽ" horiz-adv-x="2006" vert-adv-y="1433" d="M939 429h-540l-171 -429h-206l600 1462h1247v-165h-744v-466h706v-165h-706v-501h780v-165h-966v429zM939 594v703h-201l-276 -703h477zM1245 1883h226l-299 -297h-120z"/>
    <glyph glyph-name="aeacute" unicode="ǽ" horiz-adv-x="1798" vert-adv-y="1433" d="M978 1485h226l-299 -298h-121zM851 177q-176 -200 -420 -200q-165 0 -257 85q-90 84 -90 219q0 147 104 226q49 38 117 59.5t183 35.5l120 15q101 14 137.5 38.5t36.5 78.5v28q-6 51 -21 77.5t-51 45.5q-62 33 -165 33q-118 0 -176.5 -44t-68.5 -139h-168q6 140 68 212 q109 126 349 126q262 0 347 -151q133 151 351 151q174 0 297 -97q95 -74 132.5 -185t37.5 -314h-774q2 -137 56 -215q88 -130 253 -130q205 0 275 194h169q-23 -121 -100 -208q-122 -141 -351 -141q-262 0 -391 200zM781 526q-63 -27 -177 -44l-93 -14q-134 -21 -188 -60 q-66 -47 -66 -126q0 -76 54 -117.5t155 -41.5q147 0 249 94q66 61 66 136v173zM1534 613q-1 110 -57 189q-81 116 -232 116q-166 0 -249 -135q-44 -72 -52 -170h590z"/>
    <glyph glyph-name="Oslashacute" unicode="Ǿ" horiz-adv-x="1561" vert-adv-y="1433" d="M911 1883h226l-299 -297h-120zM1317 1251q172 -210 172 -521q0 -256 -121 -448q-110 -175 -299 -252q-129 -52 -286 -52q-284 0 -476 171l-159 -174l-79 73l165 180q-38 48 -66 103q-91 179 -91 403q0 255 120 446q109 176 299 252q129 53 287 53q270 0 459 -157l163 178 l80 -72zM1194 1117l-767 -837q140 -138 355 -138q219 0 359 141q76 77 117 189q44 124 44 259q0 222 -108 386zM359 364l763 833q-141 123 -340 123q-219 0 -359 -141q-77 -77 -116 -189q-44 -123 -44 -259q0 -207 96 -367z"/>
    <glyph glyph-name="oslashacute" unicode="ǿ" horiz-adv-x="1226" vert-adv-y="1433" d="M664 1485h226l-299 -298h-120zM294 286l471 533q-86 100 -214 100q-75 0 -139.5 -35.5t-101.5 -96.5q-64 -107 -64 -267q0 -142 48 -234zM810 741l-466 -526q84 -83 206 -83q141 0 219.5 102.5t78.5 285.5q0 126 -38 221zM879 948l114 129l65 -56l-125 -141 q89 -140 89 -362q0 -247 -118 -390q-124 -151 -354 -151q-191 0 -319 111l-125 -142l-64 56l132 149q-103 146 -103 369q0 249 121 398q127 155 359 155q203 0 328 -125z"/>
    <glyph glyph-name="Scommaaccent" unicode="Ș" horiz-adv-x="1327" vert-adv-y="1433" d="M1194 1034h-186q-35 298 -366 298q-155 0 -242 -64t-87 -179q0 -102 73.5 -147.5t323.5 -99.5q264 -56 366 -121q175 -113 175 -310q0 -208 -152 -326.5t-418 -118.5q-285 0 -443.5 135.5t-160.5 381.5h187q4 -173 114.5 -263t316.5 -90q170 0 265.5 70.5t95.5 196.5 q0 113 -79.5 166t-342.5 115q-280 65 -356 112q-151 91 -151 287q0 194 138.5 306.5t377.5 112.5q258 0 401 -120t150 -342zM759 -132v-142q0 -226 -190 -246v73q92 22 101 134h-101v181h190z"/>
    <glyph glyph-name="scommaaccent" unicode="ș" horiz-adv-x="1024" vert-adv-y="1433" d="M918 752h-175q-27 193 -258 193q-217 0 -217 -147q0 -66 52 -96.5t231 -70.5q229 -52 319.5 -123t90.5 -199q0 -155 -120 -247.5t-320 -92.5q-442 0 -455 366h171q26 -220 285 -220q117 0 188.5 48t71.5 126q0 68 -54.5 105t-212.5 75q-241 59 -301 91q-124 66 -124 218 q0 144 109 228.5t294 84.5q398 0 425 -339zM599 -132v-142q0 -226 -190 -246v73q92 22 101 134h-101v181h190z"/>
    <glyph glyph-name="uni021A" unicode="Ț" horiz-adv-x="1176" vert-adv-y="1433" d="M1176 1462v-168h-491v-1294h-193v1294h-491v168h1175zM684 -132v-142q0 -226 -190 -246v73q92 22 101 134h-101v181h190z"/>
    <glyph glyph-name="uni021B" unicode="ț" horiz-adv-x="645" vert-adv-y="1433" d="M583 1060v-143h-211v-626q0 -105 21 -134t96 -29q45 0 94 13v-150q-65 -9 -134 -9q-169 0 -220 83q-21 34 -26 86t-5 238v528h-178v143h178v314h174v-314h211zM381 -132v-142q0 -226 -190 -246v73q92 22 101 134h-101v181h190z"/>
    <glyph glyph-name="uni0259" unicode="ə" horiz-adv-x="1115" vert-adv-y="1433" d="M86 574h774q-2 135 -56 214q-88 130 -253 130q-204 0 -275 -194h-169q24 122 100 209q122 140 349 140t354 -148q125 -147 125 -394q0 -261 -138 -411q-132 -143 -344 -143q-173 0 -297 97q-95 75 -132.5 186t-37.5 314zM266 438q1 -110 56 -189q82 -117 234 -117 q165 0 248 135q45 73 52 171h-590z"/>
    <glyph glyph-name="uni02C9" unicode="ˉ" horiz-adv-x="455" vert-adv-y="1433" d="M537 1399v-120h-617v120h617z"/>
    <glyph glyph-name="tonos" unicode="΄" horiz-adv-x="1009" vert-adv-y="1433" d="M419 1562h171v-184l-53 -211h-65l-53 211v184z"/>
    <glyph glyph-name="dieresistonos" unicode="΅" horiz-adv-x="1009" vert-adv-y="1433" d="M419 1722h171v-184l-53 -211h-65l-53 211v184zM776 1420v-212h-192v212h192zM425 1420v-212h-192v212h192z"/>
    <glyph glyph-name="Alphatonos" unicode="Ά" horiz-adv-x="1389" vert-adv-y="1433" d="M804 1468l572 -1468h-215l-163 449h-614l-167 -449h-204l574 1468h217zM941 605l-145 389q-72 196 -103 296q-33 -94 -106 -289l-147 -396h501zM107 1462h171v-184l-53 -211h-65l-53 211v184z"/>
    <glyph glyph-name="anoteleia" unicode="·" horiz-adv-x="569" vert-adv-y="1433" d="M405 659v-228h-240v228h240z"/>
    <glyph glyph-name="Epsilontonos" unicode="Έ" horiz-adv-x="1336" vert-adv-y="1433" d="M1236 1462v-168h-820v-463h766v-156h-766v-507h831v-168h-1024v1462h1013zM-39 1462h171v-184l-53 -211h-65l-53 211v184z"/>
    <glyph glyph-name="Etatonos" unicode="Ή" horiz-adv-x="1543" vert-adv-y="1433" d="M1375 1462v-1462h-193v685h-772v-685h-193v1462h193v-609h772v609h193zM-51 1462h171v-184l-53 -211h-65l-53 211v184z"/>
    <glyph glyph-name="Iotatonos" unicode="Ί" horiz-adv-x="575" vert-adv-y="1433" d="M407 1462v-1462h-193v1462h193zM-39 1462h171v-184l-53 -211h-65l-53 211v184z"/>
    <glyph glyph-name="Omicrontonos" unicode="Ό" horiz-adv-x="1602" vert-adv-y="1433" d="M822 1496q300 0 494 -211q193 -209 193 -551q0 -305 -150 -506q-196 -262 -551 -262q-353 0 -550 264q-148 199 -148 500q0 354 192 555q202 211 520 211zM803 1332q-213 0 -355 -156q-144 -160 -144 -441q0 -264 121 -421q143 -184 387 -184q207 0 340 136 q163 166 163 463q0 274 -140 440q-138 163 -372 163zM-51 1462h171v-184l-53 -211h-65l-53 211v184z"/>
    <glyph glyph-name="Upsilontonos" unicode="Ύ" horiz-adv-x="1464" vert-adv-y="1433" d="M1480 1462l-564 -864v-598h-193v598l-569 864h233l344 -546q62 -99 95 -159q37 69 90 154l343 551h221zM-51 1462h171v-184l-53 -211h-65l-53 211v184z"/>
    <glyph glyph-name="Omegatonos" unicode="Ώ" horiz-adv-x="1488" vert-adv-y="1433" d="M90 0v158h392q-396 232 -396 641q0 336 252 547q182 152 421 152q240 0 422 -152q252 -211 252 -548q0 -409 -395 -640h392v-158h-573v147q193 106 293 264t100 356q0 275 -184 447q-132 124 -305 124q-174 0 -308 -124q-184 -172 -184 -445q0 -406 394 -622v-147h-573z M-51 1462h171v-184l-53 -211h-65l-53 211v184z"/>
    <glyph glyph-name="iotadieresistonos" unicode="ΐ" horiz-adv-x="481" vert-adv-y="1433" d="M327 1060v-1060h-174v1060h174zM158 1722h171v-184l-53 -211h-65l-53 211v184zM515 1420v-212h-192v212h192zM164 1420v-212h-192v212h192z"/>
    <glyph glyph-name="Alpha" unicode="Α" horiz-adv-x="1389" vert-adv-y="1433" d="M804 1468l572 -1468h-215l-163 449h-614l-167 -449h-204l574 1468h217zM941 605l-145 389q-72 196 -103 296q-33 -94 -106 -289l-147 -396h501z"/>
    <glyph glyph-name="Beta" unicode="Β" horiz-adv-x="1417" vert-adv-y="1433" d="M168 1462h588q214 0 312 -49q90 -45 142.5 -130.5t52.5 -186.5q0 -107 -57.5 -190t-158.5 -122q281 -75 281 -356q0 -203 -126.5 -315.5t-354.5 -112.5h-679v1462zM361 1294v-455h348q143 0 211 19q68 20 108.5 77t40.5 133q0 159 -133 207q-53 19 -208 19h-367zM361 683 v-515h386q200 0 269 35q118 60 118 218q0 178 -159 238q-62 24 -260 24h-354z"/>
    <glyph glyph-name="Gamma" unicode="Γ" horiz-adv-x="1130" vert-adv-y="1433" d="M163 1462h952v-170h-759v-1292h-193v1462z"/>
    <glyph glyph-name="Epsilon" unicode="Ε" horiz-adv-x="1281" vert-adv-y="1433" d="M1181 1462v-168h-820v-463h766v-156h-766v-507h831v-168h-1024v1462h1013z"/>
    <glyph glyph-name="Zeta" unicode="Ζ" horiz-adv-x="1278" vert-adv-y="1433" d="M1201 1462v-160l-831 -1032l-90 -107q235 5 268 5h675v-168h-1167v163l840 1043q11 14 81 93q-130 -5 -259 -5h-590v168h1073z"/>
    <glyph glyph-name="Eta" unicode="Η" horiz-adv-x="1494" vert-adv-y="1433" d="M1326 1462v-1462h-193v685h-772v-685h-193v1462h193v-609h772v609h193z"/>
    <glyph glyph-name="Theta" unicode="Θ" horiz-adv-x="1577" vert-adv-y="1433" d="M1094 797v-152h-609v152h609zM797 1486q265 0 450 -155q255 -215 255 -611t-255 -611q-184 -155 -458 -155q-276 0 -459 155q-255 215 -255 608q0 401 255 614q186 155 467 155zM781 1316q-211 0 -352 -143q-161 -162 -161 -453q0 -290 161 -453q140 -143 359 -143 t359 143q161 163 161 451q0 291 -161 455q-139 143 -366 143z"/>
    <glyph glyph-name="Iota" unicode="Ι" horiz-adv-x="529" vert-adv-y="1433" d="M361 1462v-1462h-193v1462h193z"/>
    <glyph glyph-name="Kappa" unicode="Κ" horiz-adv-x="1365" vert-adv-y="1433" d="M1357 1462l-618 -587l641 -875h-245l-532 743l-242 -230v-513h-193v1462h193v-576v-78l-1 -74q32 31 97 97l646 631h254z"/>
    <glyph glyph-name="Lambda" unicode="Λ" horiz-adv-x="1353" vert-adv-y="1433" d="M805 1462l518 -1462h-216l-430 1250l-431 -1250h-215l518 1462h256z"/>
    <glyph glyph-name="Mu" unicode="Μ" horiz-adv-x="1799" vert-adv-y="1433" d="M1630 1462v-1462h-185l2 655q1 359 23 651l-21 -59l-67 -190l-45 -121l-347 -936h-169l-364 925q-79 201 -127 367q20 -319 21 -630l2 -662h-185v1462h264l342 -892q92 -238 132 -370q47 147 128 367l328 895h268z"/>
    <glyph glyph-name="Nu" unicode="Ν" horiz-adv-x="1507" vert-adv-y="1433" d="M1338 1462v-1462h-213l-522 788q-199 300 -264 436q9 -108 12 -349l1 -137v-738h-184v1462h209l547 -832q165 -251 243 -400q-13 301 -13 501v731h184z"/>
    <glyph glyph-name="Xi" unicode="Ξ" horiz-adv-x="1353" vert-adv-y="1433" d="M146 0v170h1061v-170h-1061zM208 663v170h933v-170h-933zM149 1292v170h1055v-170h-1055z"/>
    <glyph glyph-name="Omicron" unicode="Ο" horiz-adv-x="1592" vert-adv-y="1433" d="M809 1496q300 0 494 -211q193 -209 193 -551q0 -305 -150 -506q-196 -262 -551 -262q-353 0 -550 264q-148 199 -148 500q0 354 192 555q202 211 520 211zM790 1332q-213 0 -355 -156q-144 -160 -144 -441q0 -264 121 -421q143 -184 387 -184q207 0 340 136 q163 166 163 463q0 274 -140 440q-138 163 -372 163z"/>
    <glyph glyph-name="Pi" unicode="Π" horiz-adv-x="1464" vert-adv-y="1433" d="M359 1292v-1292h-196v1462h1138v-1462h-196v1292h-746z"/>
    <glyph glyph-name="Rho" unicode="Ρ" horiz-adv-x="1323" vert-adv-y="1433" d="M168 1462h582q227 0 339 -78q168 -117 168 -342q0 -224 -122.5 -332.5t-376.5 -108.5h-397v-601h-193v1462zM361 1294v-537h372q159 0 232 53q98 73 98 221q0 153 -115 221q-71 42 -242 42h-345z"/>
    <glyph glyph-name="Sigma" unicode="Σ" horiz-adv-x="1238" vert-adv-y="1433" d="M82 0v166l564 576l-562 552v168h1042v-170h-784l551 -550l-563 -572h831v-170h-1079z"/>
    <glyph glyph-name="Tau" unicode="Τ" horiz-adv-x="1240" vert-adv-y="1433" d="M1207 1462v-168h-491v-1294h-193v1294h-491v168h1175z"/>
    <glyph glyph-name="Upsilon" unicode="Υ" horiz-adv-x="1283" vert-adv-y="1433" d="M1304 1462l-564 -864v-598h-193v598l-569 864h233l344 -546q62 -99 95 -159q37 69 90 154l343 551h221z"/>
    <glyph glyph-name="Phi" unicode="Φ" horiz-adv-x="1462" vert-adv-y="1433" d="M635 -20v183q-161 9 -276 73q-280 157 -280 495q0 244 151.5 399t404.5 170v182h193v-182q178 -10 301 -82q255 -150 255 -487q0 -253 -147 -403.5t-409 -164.5v-183h-193zM635 1133q-174 -14 -268.5 -119t-94.5 -283q0 -231 176 -342q78 -49 187 -59v803zM828 1133v-803 q171 15 266.5 121t95.5 279q0 178 -94.5 283t-267.5 120z"/>
    <glyph glyph-name="Chi" unicode="Χ" horiz-adv-x="1270" vert-adv-y="1433" d="M1236 1462l-485 -709l514 -753h-235l-301 454q-51 77 -95 158q-37 -60 -100 -153l-308 -459h-221l515 753l-483 709h232l250 -383q97 -157 116 -195q58 98 124 195l259 383h218z"/>
    <glyph glyph-name="Psi" unicode="Ψ" horiz-adv-x="1647" vert-adv-y="1433" d="M919 1462v-1017q212 12 324 116q60 57 79 146.5t19 317.5v437h196v-437q0 -261 -36 -388q-47 -164 -198.5 -258t-383.5 -103v-276h-192v276q-295 11 -458 159q-91 83 -125 209t-34 381v437h196v-437q0 -237 21 -322q57 -239 400 -258v1017h192z"/>
    <glyph glyph-name="uni03A9" unicode="Ω" horiz-adv-x="1461" vert-adv-y="1433" d="M61 0v158h392q-396 232 -396 641q0 336 252 547q182 152 421 152q240 0 422 -152q252 -211 252 -548q0 -409 -395 -640h392v-158h-573v147q193 106 293 264t100 356q0 275 -184 447q-132 124 -305 124q-174 0 -308 -124q-184 -172 -184 -445q0 -406 394 -622v-147h-573z "/>
    <glyph glyph-name="Iotadieresis" unicode="Ϊ" horiz-adv-x="529" vert-adv-y="1433" d="M361 1462v-1462h-193v1462h193zM519 1818v-202h-190v202h190zM200 1818v-202h-190v202h190z"/>
    <glyph glyph-name="Upsilondieresis" unicode="Ϋ" horiz-adv-x="1283" vert-adv-y="1433" d="M1304 1462l-564 -864v-598h-193v598l-569 864h233l344 -546q62 -99 95 -159q37 69 90 154l343 551h221zM968 1818v-202h-190v202h190zM517 1818v-202h-190v202h190z"/>
    <glyph glyph-name="alphatonos" unicode="ά" horiz-adv-x="1322" vert-adv-y="1433" d="M1266 1062l-197 -517l211 -545h-192l-112 322q-84 -198 -183 -283t-245 -85q-212 0 -341 170q-120 158 -120 396q0 274 157 434q134 136 314 136q139 0 237.5 -77t178.5 -249l103 298h189zM894 544q-53 136 -84 200q-90 186 -246 186q-130 0 -213 -114t-83 -292 q0 -209 102 -319q83 -90 191 -90q102 0 179.5 100t153.5 329zM483 1569h171v-184l-53 -211h-65l-53 211v184z"/>
    <glyph glyph-name="epsilontonos" unicode="έ" horiz-adv-x="1006" vert-adv-y="1433" d="M633 613v-145q-19 0 -83 -1q-279 -1 -279 -168q0 -83 67 -135t173 -52q216 0 281 229h172q-43 -191 -161 -289t-305 -98q-183 0 -295 97q-113 98 -113 238q0 92 50 161.5t138 99.5q-160 89 -160 246q0 93 59 160q113 127 330 127q179 0 285.5 -87.5t134.5 -258.5h-170 q-49 188 -244 188q-92 0 -153 -44t-61 -110q0 -70 74.5 -114.5t191.5 -44.5q17 0 68 1zM417 1562h171v-184l-53 -211h-65l-53 211v184z"/>
    <glyph glyph-name="etatonos" unicode="ή" horiz-adv-x="1127" vert-adv-y="1433" d="M140 1060h161v-168q127 198 349 198q154 0 245.5 -78t91.5 -210v-1238h-175v1171q0 93 -57.5 148t-155.5 55q-131 0 -207.5 -94.5t-76.5 -256.5v-587h-175v1060zM518 1569h171v-184l-53 -211h-65l-53 211v184z"/>
    <glyph glyph-name="iotatonos" unicode="ί" horiz-adv-x="481" vert-adv-y="1433" d="M328 1060v-1060h-174v1060h174zM155 1562h171v-184l-53 -211h-65l-53 211v184z"/>
    <glyph glyph-name="upsilondieresistonos" unicode="ΰ" horiz-adv-x="1127" vert-adv-y="1433" d="M140 1060h175v-688q0 -155 70 -205q72 -53 179 -53t179 54q69 51 69 204v688h175v-688q0 -122 -17.5 -185.5t-64.5 -113.5q-113 -119 -340 -119q-224 0 -337 114q-50 49 -69 115.5t-19 188.5v688zM478 1730h171v-184l-53 -211h-65l-53 211v184zM835 1428v-212h-192v212 h192zM484 1428v-212h-192v212h192z"/>
    <glyph glyph-name="alpha" unicode="α" horiz-adv-x="1322" vert-adv-y="1433" d="M1266 1062l-197 -517l211 -545h-192l-112 322q-84 -198 -183 -283t-245 -85q-212 0 -341 170q-120 158 -120 396q0 274 157 434q134 136 314 136q139 0 237.5 -77t178.5 -249l103 298h189zM894 544q-53 136 -84 200q-90 186 -246 186q-130 0 -213 -114t-83 -292 q0 -209 102 -319q83 -90 191 -90q102 0 179.5 100t153.5 329z"/>
    <glyph glyph-name="beta" unicode="β" horiz-adv-x="1127" vert-adv-y="1433" d="M140 -436v1437q0 145 17 219.5t62 129.5q112 136 338 136q193 0 306 -118q98 -102 98 -253q0 -194 -167 -289q250 -99 250 -395q0 -226 -133 -357q-123 -120 -320 -120q-168 0 -278 88v-478h-173zM313 223q95 -109 251 -109q138 0 218.5 85.5t80.5 232.5q0 150 -85 233 q-80 77 -199 77q-23 0 -84 -4v143q87 5 126 13q73 16 116 75.5t43 144.5q0 100 -64.5 160t-172.5 60q-125 0 -182 -74q-48 -62 -48 -251v-786z"/>
    <glyph glyph-name="gamma" unicode="γ" horiz-adv-x="1016" vert-adv-y="1433" d="M427 -436v469l-404 1027h196l297 -778l280 778h196l-390 -1027v-469h-175z"/>
    <glyph glyph-name="delta" unicode="δ" horiz-adv-x="1129" vert-adv-y="1433" d="M513 1069l-318 246v147h751v-154h-501l293 -224q150 -115 187 -160q120 -149 120 -406t-120 -407q-127 -158 -361 -158q-227 0 -354 149t-127 415q0 250 114 396t316 156zM559 922q-136 0 -215.5 -108.5t-79.5 -296.5q0 -166 62 -271q79 -133 238 -133q140 0 220 107.5 t80 295.5q0 169 -62 273q-80 133 -243 133z"/>
    <glyph glyph-name="epsilon" unicode="ε" horiz-adv-x="1006" vert-adv-y="1433" d="M633 613v-145q-19 0 -83 -1q-279 -1 -279 -168q0 -83 67 -135t173 -52q216 0 281 229h172q-43 -191 -161 -289t-305 -98q-183 0 -295 97q-113 98 -113 238q0 92 50 161.5t138 99.5q-160 89 -160 246q0 93 59 160q113 127 330 127q179 0 285.5 -87.5t134.5 -258.5h-170 q-49 188 -244 188q-92 0 -153 -44t-61 -110q0 -70 74.5 -114.5t191.5 -44.5q17 0 68 1z"/>
    <glyph glyph-name="zeta" unicode="ζ" horiz-adv-x="916" vert-adv-y="1433" d="M180 1308v154h700v-153q-139 -77 -236 -161q-171 -148 -272 -338.5t-101 -363.5q0 -187 100 -245q44 -26 201 -42l93 -9q144 -15 203.5 -63t59.5 -149q0 -71 -15.5 -131.5t-75.5 -220.5l-8 -22h-179l12 33q88 227 88 302q0 52 -29.5 71t-122.5 28l-88 7q-145 13 -227 51 q-193 88 -193 374q0 356 292 674q116 127 242 204h-444z"/>
    <glyph glyph-name="eta" unicode="η" horiz-adv-x="1127" vert-adv-y="1433" d="M140 1060h161v-168q127 198 349 198q154 0 245.5 -78t91.5 -210v-1238h-175v1171q0 93 -57.5 148t-155.5 55q-131 0 -207.5 -94.5t-76.5 -256.5v-587h-175v1060z"/>
    <glyph glyph-name="theta" unicode="θ" horiz-adv-x="1129" vert-adv-y="1433" d="M571 1493q225 0 342 -174q66 -98 92 -229.5t26 -362.5q0 -219 -23 -349t-80 -226q-115 -198 -364 -198t-364 198q-57 97 -80 227.5t-23 355.5t26.5 356.5t91.5 227.5q117 174 356 174zM275 835h582q-10 254 -66 368q-65 130 -225 130q-152 0 -216.5 -110.5t-74.5 -387.5z M272 695q5 -283 37 -383q65 -200 255 -200q205 0 264 231q24 95 28 352h-584z"/>
    <glyph glyph-name="iota" unicode="ι" horiz-adv-x="481" vert-adv-y="1433" d="M328 1060v-1060h-174v1060h174z"/>
    <glyph glyph-name="kappa" unicode="κ" horiz-adv-x="1063" vert-adv-y="1433" d="M315 614l442 446h228l-374 -374l433 -686h-214l-352 558l-163 -159v-399h-175v1060h175v-446z"/>
    <glyph glyph-name="lambda" unicode="λ" horiz-adv-x="977" vert-adv-y="1433" d="M23 0l365 1020l-166 442h190l544 -1462h-193l-282 776l-271 -776h-187z"/>
    <glyph glyph-name="uni03BC" unicode="μ" horiz-adv-x="1097" vert-adv-y="1433" d="M107 -365v1425h164v-599q0 -182 68 -258q82 -92 199 -92q128 0 208 102.5t80 267.5v579h164v-1060h-164v197q-88 -225 -291 -225q-167 0 -264 160v-497h-164z"/>
    <glyph glyph-name="nu" unicode="ν" horiz-adv-x="970" vert-adv-y="1433" d="M969 1060l-387 -1060h-187l-394 1060h193l190 -537q58 -162 112 -349q33 125 113 361l178 525h182z"/>
    <glyph glyph-name="xi" unicode="ξ" horiz-adv-x="969" vert-adv-y="1433" d="M124 1308v154h755v-154h-183q-149 0 -223 -42q-114 -65 -114 -195q0 -229 368 -229h99v-153h-105q-448 0 -448 -283q0 -137 94 -196q54 -33 214 -48l116 -10q147 -14 208 -61.5t61 -149.5q0 -125 -99 -377h-179q101 249 101 343q0 47 -35.5 65.5t-143.5 25.5l-115 8 q-170 11 -257 74q-148 107 -148 319q0 279 306 371q-105 31 -163 105.5t-58 177.5q0 166 152 255h-203z"/>
    <glyph glyph-name="omicron" unicode="ο" horiz-adv-x="1197" vert-adv-y="1433" d="M609 1091q231 0 367.5 -152t136.5 -408q0 -283 -158 -436q-130 -126 -349 -126q-251 0 -388 162q-131 155 -131 399q0 234 118 382q141 179 404 179zM597 945q-150 0 -241 -113.5t-91 -300.5q0 -195 90.5 -305.5t249.5 -110.5q135 0 218 84q112 114 112 332 q0 193 -90 303.5t-248 110.5z"/>
    <glyph glyph-name="rho" unicode="ρ" horiz-adv-x="1157" vert-adv-y="1433" d="M122 -436v925q0 164 24 255.5t88 170.5q136 168 369 168q231 0 359 -172q112 -150 112 -391q0 -299 -156 -447q-125 -119 -303 -119q-193 0 -318 150v-540h-175zM590 923q-132 0 -212.5 -111t-80.5 -294q0 -185 79.5 -293.5t215.5 -108.5q139 0 220 109.5t81 298.5 q0 183 -84 294q-81 105 -219 105z"/>
    <glyph glyph-name="sigma1" unicode="ς" horiz-adv-x="1027" vert-adv-y="1433" d="M695 -436q97 255 97 317q0 54 -96 86l-229 77q-391 131 -391 518q0 233 148 384q135 137 346 137q190 0 306 -104.5t135 -291.5h-184q-31 236 -260 236q-149 0 -235 -117q-75 -102 -75 -237q0 -175 111 -278q59 -54 232 -115l92 -33q177 -61 228 -106q53 -48 53 -119 q0 -89 -99 -354h-179z"/>
    <glyph glyph-name="sigma" unicode="σ" horiz-adv-x="1174" vert-adv-y="1433" d="M1143 1053v-154h-229q131 -143 131 -389q0 -247 -120 -398q-127 -158 -361 -158q-227 0 -354 149t-127 415q0 258 123 408q130 157 352 157q90 0 216 -30h369zM560 923q-137 0 -216.5 -108.5t-79.5 -296.5q0 -166 62 -271q79 -133 238 -133q140 0 220 107.5t80 295.5 q0 169 -62 274q-79 132 -242 132z"/>
    <glyph glyph-name="tau" unicode="τ" horiz-adv-x="938" vert-adv-y="1433" d="M381 0v906h-350v154h876v-154h-351v-906h-175z"/>
    <glyph glyph-name="upsilon" unicode="υ" horiz-adv-x="1127" vert-adv-y="1433" d="M140 1060h175v-688q0 -155 70 -205q72 -53 179 -53t179 54q69 51 69 204v688h175v-688q0 -122 -17.5 -185.5t-64.5 -113.5q-113 -119 -340 -119q-224 0 -337 114q-50 49 -69 115.5t-19 188.5v688z"/>
    <glyph glyph-name="phi" unicode="φ" horiz-adv-x="1350" vert-adv-y="1433" d="M579 -436v392q-192 19 -300 102q-200 155 -200 476q0 378 363 527v-172q-170 -94 -170 -364q0 -192 75.5 -294t231.5 -120v970q36 2 98 2q140 0 267 -56q158 -68 237 -223q69 -134 69 -292q0 -237 -133 -386.5t-363 -169.5v-392h-175zM754 111q303 33 303 425 q0 175 -79.5 277t-223.5 112v-814z"/>
    <glyph glyph-name="chi" unicode="χ" horiz-adv-x="970" vert-adv-y="1433" d="M482 529l251 531h193l-348 -718l382 -778h-198l-284 582l-281 -582h-188l374 769l-355 727h200z"/>
    <glyph glyph-name="psi" unicode="ψ" horiz-adv-x="1391" vert-adv-y="1433" d="M783 1060v-938q167 16 230.5 92t63.5 259v587h175v-591q0 -146 -20.5 -220.5t-79.5 -136.5q-115 -122 -369 -150v-398h-175v398q-256 28 -362 143t-106 364v591h175v-587q0 -119 17.5 -176.5t66.5 -100.5q68 -60 209 -74v938h175z"/>
    <glyph glyph-name="omega" unicode="ω" horiz-adv-x="1399" vert-adv-y="1433" d="M612 807h175v-411q0 -128 20 -186q34 -101 136 -101q86 0 137 95.5t51 257.5q0 345 -243 598h206l8 -10q210 -228 210 -579q0 -236 -95.5 -376.5t-255.5 -140.5q-171 0 -262 175q-55 -98 -113.5 -136.5t-149.5 -38.5q-139 0 -228 107q-121 145 -121 409q0 345 218 590 h206q-243 -249 -243 -599q0 -162 50 -257t135 -95q87 0 123 65.5t36 221.5v411z"/>
    <glyph glyph-name="iotadieresis" unicode="ϊ" horiz-adv-x="481" vert-adv-y="1433" d="M328 1060v-1060h-174v1060h174zM185 1434v-212h-216v212h216zM512 1434v-212h-216v212h216z"/>
    <glyph glyph-name="upsilondieresis" unicode="ϋ" horiz-adv-x="1184" vert-adv-y="1433" d="M1030 1060v-1060h-162v165q-132 -196 -368 -196q-182 0 -267.5 97.5t-85.5 305.5v688h174v-625q0 -176 34 -231q56 -89 195 -89q179 0 264 157q42 77 42 275v513h174zM879 1451v-208h-186v208h186zM492 1451v-208h-186v208h186z"/>
    <glyph glyph-name="omicrontonos" unicode="ό" horiz-adv-x="1197" vert-adv-y="1433" d="M609 1091q231 0 367.5 -152t136.5 -408q0 -283 -158 -436q-130 -126 -349 -126q-251 0 -388 162q-131 155 -131 399q0 234 118 382q141 179 404 179zM597 945q-150 0 -241 -113.5t-91 -300.5q0 -195 90.5 -305.5t249.5 -110.5q135 0 218 84q112 114 112 332 q0 193 -90 303.5t-248 110.5zM514 1562h171v-184l-53 -211h-65l-53 211v184z"/>
    <glyph glyph-name="upsilontonos" unicode="ύ" horiz-adv-x="1127" vert-adv-y="1433" d="M140 1060h175v-688q0 -155 70 -205q72 -53 179 -53t179 54q69 51 69 204v688h175v-688q0 -122 -17.5 -185.5t-64.5 -113.5q-113 -119 -340 -119q-224 0 -337 114q-50 49 -69 115.5t-19 188.5v688zM478 1569h171v-184l-53 -211h-65l-53 211v184z"/>
    <glyph glyph-name="omegatonos" unicode="ώ" horiz-adv-x="1399" vert-adv-y="1433" d="M612 807h175v-411q0 -128 20 -186q34 -101 136 -101q86 0 137 95.5t51 257.5q0 345 -243 598h206l8 -10q210 -228 210 -579q0 -236 -95.5 -376.5t-255.5 -140.5q-171 0 -262 175q-55 -98 -113.5 -136.5t-149.5 -38.5q-139 0 -228 107q-121 145 -121 409q0 345 218 590 h206q-243 -249 -243 -599q0 -162 50 -257t135 -95q87 0 123 65.5t36 221.5v411zM614 1569h171v-184l-53 -211h-65l-53 211v184z"/>
    <glyph glyph-name="uni03D1" unicode="ϑ" horiz-adv-x="1129" vert-adv-y="1433" d="M18 594h243v-16q8 -210 33 -285q62 -181 239 -181q214 0 270 253q19 91 22 305h-26q-260 0 -427 107q-207 133 -207 359q0 157 101 257t260 100q282 0 407 -270q57 -122 64 -407q47 1 91 6v-144q-54 -5 -90 -5q-2 -296 -62 -443q-112 -276 -407 -276q-257 0 -362 217 q-58 119 -63 284h-86v139zM825 813l1 72q0 239 -97 362q-75 95 -204 95q-84 0 -138 -57.5t-54 -147.5q0 -141 130 -232.5t332 -91.5h30z"/>
    <glyph glyph-name="uni03D5" unicode="ϕ" horiz-adv-x="1350" vert-adv-y="1433" d="M589 -436v393q-159 10 -264 75q-238 146 -238 488q0 251 132 399t370 164v247h172v-247q159 -11 264 -75q238 -147 238 -488q0 -251 -132 -399t-370 -164v-393h-172zM589 928q-104 -10 -170 -57q-151 -108 -151 -352q0 -182 83 -287t238 -120v816zM760 928v-816 q103 10 169 56q151 106 151 352q0 182 -83 287.5t-237 120.5z"/>
    <glyph glyph-name="afii10023" unicode="Ё" horiz-adv-x="1281" vert-adv-y="1433" d="M1181 1462v-168h-820v-463h766v-156h-766v-507h831v-168h-1024v1462h1013zM998 1818v-202h-190v202h190zM547 1818v-202h-190v202h190z"/>
    <glyph glyph-name="afii10051" unicode="Ђ" horiz-adv-x="1355" vert-adv-y="1433" d="M323 0v1292h-319v170h854v-170h-339v-456q125 151 325 151q168 0 278.5 -97t110.5 -245v-332q0 -127 -91 -220t-214 -93h-298v170h295q112 6 112 129v338q0 84 -60 132.5t-165 48.5q-125 0 -209 -67.5t-84 -166.5v-584h-196z"/>
    <glyph glyph-name="afii10052" unicode="Ѓ" horiz-adv-x="1099" vert-adv-y="1433" d="M173 1462h923v-170h-727v-1292h-196v1462zM609 1882h236l-306 -302h-128z"/>
    <glyph glyph-name="afii10053" unicode="Є" horiz-adv-x="1541" vert-adv-y="1433" d="M269 645q15 -178 100 -308q139 -213 416 -213q376 0 495 395l190 -33q-161 -532 -685 -532q-274 0 -458 155q-255 215 -255 611q0 395 255 611q184 155 458 155q478 0 659 -449l-190 -37q-137 316 -469 316q-213 0 -347 -130t-167 -369h632v-172h-634z"/>
    <glyph glyph-name="afii10054" unicode="Ѕ" horiz-adv-x="1317" vert-adv-y="1433" d="M1172 1034h-186q-35 298 -366 298q-155 0 -242 -64t-87 -179q0 -102 73.5 -147.5t323.5 -99.5q264 -56 366 -121q175 -113 175 -310q0 -208 -152 -326.5t-418 -118.5q-285 0 -443.5 135.5t-160.5 381.5h187q4 -173 114.5 -263t316.5 -90q170 0 265.5 70.5t95.5 196.5 q0 113 -79.5 166t-342.5 115q-280 65 -356 112q-151 91 -151 287q0 194 138.5 306.5t377.5 112.5q258 0 401 -120t150 -342z"/>
    <glyph glyph-name="afii10055" unicode="І" horiz-adv-x="529" vert-adv-y="1433" d="M361 1462v-1462h-193v1462h193z"/>
    <glyph glyph-name="afii10056" unicode="Ї" horiz-adv-x="529" vert-adv-y="1433" d="M361 1462v-1462h-193v1462h193zM519 1818v-202h-190v202h190zM200 1818v-202h-190v202h190z"/>
    <glyph glyph-name="afii10057" unicode="Ј" horiz-adv-x="1029" vert-adv-y="1433" d="M881 1462v-991q0 -227 -55 -324q-103 -181 -366 -181q-223 0 -330 112t-107 346q0 25 2 58h188v-18v-35q0 -161 57 -230t189 -69q130 0 179.5 73t49.5 266v993h193z"/>
    <glyph glyph-name="afii10058" unicode="Љ" horiz-adv-x="2279" vert-adv-y="1433" d="M1102 1292h-597v-733q0 -249 -112 -401q-116 -158 -295 -158h-35v170q246 21 246 384v908h989v-617h439q227 0 348 -107.5t121 -309.5q0 -224 -146 -338q-115 -90 -310 -90h-648v1292zM1298 675v-505h421q138 0 215 67t77 186t-77 185.5t-215 66.5h-421z"/>
    <glyph glyph-name="afii10059" unicode="Њ" horiz-adv-x="2280" vert-adv-y="1433" d="M1104 675h-748v-675h-196v1462h193v-617h751v617h196v-617h439q210 0 326 -92q143 -114 143 -329q0 -220 -146 -334q-115 -90 -310 -90h-648v675zM1300 675v-505h421q138 0 214.5 66.5t76.5 186.5q0 119 -76.5 185.5t-214.5 66.5h-421z"/>
    <glyph glyph-name="afii10060" unicode="Ћ" horiz-adv-x="1355" vert-adv-y="1433" d="M323 0v1292h-319v170h854v-170h-339v-456q125 151 325 151q168 0 278.5 -97t110.5 -246v-644h-196v636q0 85 -60 133.5t-166 48.5q-124 0 -208 -67.5t-84 -166.5v-584h-196z"/>
    <glyph glyph-name="afii10061" unicode="Ќ" horiz-adv-x="1247" vert-adv-y="1433" d="M160 0v1462h196v-602h120l362 602h217l-415 -690l510 -772h-217l-454 690h-123v-690h-196zM667 1882h236l-307 -302h-128z"/>
    <glyph glyph-name="afii10062" unicode="Ў" horiz-adv-x="1229" vert-adv-y="1433" d="M257 0v170h115q69 0 100 26.5t70 119.5l-535 1146h233l399 -918l377 918h229l-561 -1275q-82 -187 -246 -187h-181zM307 1867h124q16 -133 184 -133q165 0 181 133h125q-26 -276 -310 -276q-294 0 -304 276z"/>
    <glyph glyph-name="afii10145" unicode="Џ" horiz-adv-x="1459" vert-adv-y="1433" d="M159 0v1462h196v-1292h748v1292h196v-1462h-474v-332h-196v332h-470z"/>
    <glyph glyph-name="afii10017" unicode="А" horiz-adv-x="1389" vert-adv-y="1433" d="M804 1468l572 -1468h-215l-163 449h-614l-167 -449h-204l574 1468h217zM941 605l-145 389q-72 196 -103 296q-33 -94 -106 -289l-147 -396h501z"/>
    <glyph glyph-name="afii10018" unicode="Б" horiz-adv-x="1341" vert-adv-y="1433" d="M355 845h439q210 0 326 -92q143 -114 143 -329q0 -220 -146 -334q-115 -90 -310 -90h-648v1462h971v-170h-775v-447zM355 675v-505h422q137 0 213.5 66.5t76.5 186.5q0 119 -76.5 185.5t-213.5 66.5h-422z"/>
    <glyph glyph-name="afii10019" unicode="В" horiz-adv-x="1417" vert-adv-y="1433" d="M168 1462h588q214 0 312 -49q90 -45 142.5 -130.5t52.5 -186.5q0 -107 -57.5 -190t-158.5 -122q281 -75 281 -356q0 -203 -126.5 -315.5t-354.5 -112.5h-679v1462zM361 1294v-455h348q143 0 211 19q68 20 108.5 77t40.5 133q0 159 -133 207q-53 19 -208 19h-367zM361 683 v-515h386q200 0 269 35q118 60 118 218q0 178 -159 238q-62 24 -260 24h-354z"/>
    <glyph glyph-name="afii10020" unicode="Г" horiz-adv-x="1085" vert-adv-y="1433" d="M159 1462h923v-170h-727v-1292h-196v1462z"/>
    <glyph glyph-name="afii10021" unicode="Д" horiz-adv-x="1525" vert-adv-y="1433" d="M1256 0h-1016v-332h-196v502q175 17 266 162t91 407v723h939v-1292h112v-502h-196v332zM1144 170v1122h-547v-549q0 -419 -224 -573h771z"/>
    <glyph glyph-name="afii10022" unicode="Е" horiz-adv-x="1281" vert-adv-y="1433" d="M1181 1462v-168h-820v-463h766v-156h-766v-507h831v-168h-1024v1462h1013z"/>
    <glyph glyph-name="afii10024" unicode="Ж" horiz-adv-x="1975" vert-adv-y="1433" d="M888 0v690h-219l-451 -690h-220l509 772l-419 690h218l364 -602h218v602h196v-602h220l363 602h216l-415 -690l510 -772h-214l-454 690h-226v-690h-196z"/>
    <glyph glyph-name="afii10025" unicode="З" horiz-adv-x="1141" vert-adv-y="1433" d="M72 453h196v-37q0 -133 83.5 -212.5t224.5 -79.5q155 0 227 85q65 75 65 191q0 268 -309 268h-82v167h69q125 0 201 66t76 176q0 107 -68.5 173t-179.5 66q-117 0 -188.5 -68t-71.5 -178v-70h-196v36q0 192 107 309q130 141 346 141q207 0 333 -124q114 -112 114 -273 q0 -120 -57.5 -206.5t-158.5 -121.5q122 -24 191 -116.5t69 -229.5q0 -210 -132.5 -335.5t-352.5 -125.5q-239 0 -369 128.5t-137 370.5z"/>
    <glyph glyph-name="afii10026" unicode="И" horiz-adv-x="1464" vert-adv-y="1433" d="M159 0v1462h196v-1013l753 848v165h196v-1462h-196v1020l-753 -852v-168h-196z"/>
    <glyph glyph-name="afii10027" unicode="Й" horiz-adv-x="1464" vert-adv-y="1433" d="M160 0v1462h196v-1013l753 848v165h196v-1462h-196v1020l-753 -852v-168h-196zM425 1867h124q16 -133 184 -133q165 0 181 133h124q-19 -276 -309 -276q-294 0 -304 276z"/>
    <glyph glyph-name="afii10028" unicode="К" horiz-adv-x="1247" vert-adv-y="1433" d="M159 0v1462h196v-602h123l362 602h217l-415 -690l510 -772h-217l-454 690h-126v-690h-196z"/>
    <glyph glyph-name="afii10029" unicode="Л" horiz-adv-x="1458" vert-adv-y="1433" d="M1102 0v1292h-597v-733q0 -250 -112 -402q-116 -157 -295 -157h-35v169q246 22 246 385v908h989v-1462h-196z"/>
    <glyph glyph-name="afii10030" unicode="М" horiz-adv-x="1799" vert-adv-y="1433" d="M1630 1462v-1462h-185l2 655q1 359 23 651l-21 -59l-67 -190l-45 -121l-347 -936h-169l-364 925q-79 201 -127 367q20 -319 21 -630l2 -662h-185v1462h264l342 -892q92 -238 132 -370q47 147 128 367l328 895h268z"/>
    <glyph glyph-name="afii10031" unicode="Н" horiz-adv-x="1494" vert-adv-y="1433" d="M1326 1462v-1462h-193v685h-772v-685h-193v1462h193v-609h772v609h193z"/>
    <glyph glyph-name="afii10032" unicode="О" horiz-adv-x="1592" vert-adv-y="1433" d="M809 1496q300 0 494 -211q193 -209 193 -551q0 -305 -150 -506q-196 -262 -551 -262q-353 0 -550 264q-148 199 -148 500q0 354 192 555q202 211 520 211zM790 1332q-213 0 -355 -156q-144 -160 -144 -441q0 -264 121 -421q143 -184 387 -184q207 0 340 136 q163 166 163 463q0 274 -140 440q-138 163 -372 163z"/>
    <glyph glyph-name="afii10033" unicode="П" horiz-adv-x="1457" vert-adv-y="1433" d="M355 1292v-1292h-196v1462h1138v-1462h-196v1292h-746z"/>
    <glyph glyph-name="afii10034" unicode="Р" horiz-adv-x="1323" vert-adv-y="1433" d="M168 1462h582q227 0 339 -78q168 -117 168 -342q0 -224 -122.5 -332.5t-376.5 -108.5h-397v-601h-193v1462zM361 1294v-537h372q159 0 232 53q98 73 98 221q0 153 -115 221q-71 42 -242 42h-345z"/>
    <glyph glyph-name="afii10035" unicode="С" horiz-adv-x="1482" vert-adv-y="1433" d="M1407 551q-23 -274 -191.5 -429.5t-441.5 -155.5q-338 0 -522 239q-156 204 -156 524q0 345 190.5 556t502.5 211q301 0 474 -186q117 -128 132 -286h-194q-33 144 -143.5 226t-273.5 82q-262 0 -394 -213q-100 -162 -100 -388q0 -277 133 -439t360 -162 q187 0 297.5 108.5t134.5 312.5h192z"/>
    <glyph glyph-name="afii10036" unicode="Т" horiz-adv-x="1240" vert-adv-y="1433" d="M1207 1462v-168h-491v-1294h-193v1294h-491v168h1175z"/>
    <glyph glyph-name="afii10037" unicode="У" horiz-adv-x="1229" vert-adv-y="1433" d="M257 0v170h115q69 0 100 26.5t70 119.5l-535 1146h233l399 -918l377 918h229l-561 -1275q-82 -187 -246 -187h-181z"/>
    <glyph glyph-name="afii10038" unicode="Ф" horiz-adv-x="1570" vert-adv-y="1433" d="M687 -20v183q-174 9 -305 73q-146 72 -228 203t-82 292q0 244 167.5 399t447.5 170v182h196v-182q194 -10 333 -82q282 -147 282 -487q0 -253 -162.5 -403.5t-452.5 -164.5v-183h-196zM687 1133q-200 -14 -309.5 -119t-109.5 -283q0 -231 203 -342q90 -50 216 -59v803z M883 1133v-803q198 15 308.5 121t110.5 280q0 177 -109.5 282.5t-309.5 119.5z"/>
    <glyph glyph-name="afii10039" unicode="Х" horiz-adv-x="1270" vert-adv-y="1433" d="M1236 1462l-485 -709l514 -753h-235l-301 454q-51 77 -95 158q-37 -60 -100 -153l-308 -459h-221l515 753l-483 709h232l250 -383q97 -157 116 -195q58 98 124 195l259 383h218z"/>
    <glyph glyph-name="afii10040" unicode="Ц" horiz-adv-x="1484" vert-adv-y="1433" d="M159 0v1462h196v-1292h748v1292h196v-1292h112v-502h-196v332h-1056z"/>
    <glyph glyph-name="afii10041" unicode="Ч" horiz-adv-x="1403" vert-adv-y="1433" d="M1047 0v553q-212 -55 -411 -55q-243 0 -379.5 98t-136.5 273v593h196v-583q0 -211 363 -211q166 0 368 55v739h196v-1462h-196z"/>
    <glyph glyph-name="afii10042" unicode="Ш" horiz-adv-x="2224" vert-adv-y="1433" d="M160 0v1462h196v-1292h659v1292h196v-1292h658v1292h196v-1462h-1905z"/>
    <glyph glyph-name="afii10043" unicode="Щ" horiz-adv-x="2249" vert-adv-y="1433" d="M159 0v1462h196v-1292h659v1292h196v-1292h658v1292h196v-1292h112v-502h-196v332h-1821z"/>
    <glyph glyph-name="afii10044" unicode="Ъ" horiz-adv-x="1734" vert-adv-y="1433" d="M753 1462v-617h439q210 0 326 -92q143 -113 143 -329q0 -220 -146 -334q-115 -90 -310 -90h-647v1292h-553v170h748zM753 675v-505h422q137 0 213.5 66.5t76.5 186.5q0 119 -76.5 185.5t-213.5 66.5h-422z"/>
    <glyph glyph-name="afii10045" unicode="Ы" horiz-adv-x="1769" vert-adv-y="1433" d="M355 845h439q210 0 326 -92q143 -114 143 -329q0 -220 -146 -334q-115 -90 -310 -90h-648v1462h196v-617zM355 675v-505h422q137 0 213.5 66.5t76.5 186.5q0 119 -76.5 185.5t-213.5 66.5h-422zM1413 0v1462h196v-1462h-196z"/>
    <glyph glyph-name="afii10046" unicode="Ь" horiz-adv-x="1335" vert-adv-y="1433" d="M355 845h439q210 0 326 -92q143 -114 143 -329q0 -220 -146 -334q-115 -90 -310 -90h-648v1462h196v-617zM355 675v-505h422q137 0 213.5 66.5t76.5 186.5q0 119 -76.5 185.5t-213.5 66.5h-422z"/>
    <glyph glyph-name="afii10047" unicode="Э" horiz-adv-x="1541" vert-adv-y="1433" d="M1272 645h-634v172h632q-24 174 -98 287q-140 212 -416 212q-332 0 -469 -316l-190 37q185 449 659 449q274 0 458 -155q255 -215 255 -611t-255 -611q-183 -155 -458 -155q-523 0 -685 532l190 33q119 -395 495 -395q217 0 355 139t161 382z"/>
    <glyph glyph-name="afii10048" unicode="Ю" horiz-adv-x="2157" vert-adv-y="1433" d="M666 833q28 235 154 399q194 254 553 254q274 0 458 -155q255 -215 255 -611t-255 -611q-184 -155 -458 -155q-307 0 -498 190t-214 519h-306v-663h-196v1462h196v-629h311zM1366 1316q-211 0 -352 -142q-161 -163 -161 -454q0 -290 161 -453q141 -143 359 -143 q219 0 360 143q160 162 160 451q0 292 -160 456q-140 142 -367 142z"/>
    <glyph glyph-name="afii10049" unicode="Я" horiz-adv-x="1466" vert-adv-y="1433" d="M1302 1462v-1462h-193v634h-385q-213 0 -275 -81t-76 -378q-7 -128 -39 -175h-221l18 21q27 30 38.5 91.5t30.5 267.5q13 290 219 326q-250 84 -250 360q0 222 177 332q104 64 288 64h668zM1109 1294h-416q-126 0 -190 -24q-139 -51 -139 -223q0 -142 85.5 -199.5 t295.5 -57.5h364v504z"/>
    <glyph glyph-name="afii10065" unicode="а" horiz-adv-x="1109" vert-adv-y="1433" d="M1063 140v-136q-61 -22 -125 -22q-147 0 -150 158q-148 -171 -384 -171q-156 0 -247 81t-91 220q0 209 199 289q72 29 326 60q106 13 146 43t40 96q0 187 -239 187q-126 0 -187 -51t-73 -166h-171q4 170 121.5 266.5t321.5 96.5q224 0 333 -105q72 -69 72 -273 q0 -184 -7 -413q-1 -48 -1 -71q0 -101 69 -101q21 0 47 12zM780 550q-57 -41 -234 -64q-174 -21 -237.5 -64t-63.5 -137q0 -83 56.5 -131.5t153.5 -48.5q190 0 291 142q34 47 34 145v158z"/>
    <glyph glyph-name="afii10066" unicode="б" horiz-adv-x="1122" vert-adv-y="1433" d="M685 1573h180q-3 -166 -44 -241q-39 -70 -89 -94.5t-216 -53.5q-197 -35 -230 -217q120 116 294 116q211 0 336 -153.5t125 -411.5q0 -256 -120 -406q-127 -158 -361 -158q-236 0 -358.5 153.5t-122.5 449.5q0 370 93.5 552t307.5 229q122 26 163.5 57t41.5 95v83z M556 923q-137 0 -216 -108.5t-79 -296.5q0 -165 62 -271q78 -133 237 -133q140 0 220 107.5t80 295.5q0 168 -62 273q-79 133 -242 133z"/>
    <glyph glyph-name="afii10067" unicode="в" horiz-adv-x="1125" vert-adv-y="1433" d="M140 0v1060h547q154 0 239 -88q76 -80 76 -187q0 -131 -119 -219q162 -90 162 -258q0 -142 -83 -225t-224 -83h-598zM315 154h372q81 0 129 44t48 117q0 76 -48 120.5t-129 44.5h-372v-326zM315 634h372q60 0 96.5 38t36.5 100q0 134 -133 134h-372v-272z"/>
    <glyph glyph-name="afii10068" unicode="г" horiz-adv-x="785" vert-adv-y="1433" d="M140 0v1060h644v-154h-469v-906h-175z"/>
    <glyph glyph-name="afii10069" unicode="д" horiz-adv-x="1179" vert-adv-y="1433" d="M30 -194v347q152 57 230.5 255.5t78.5 524.5q0 33 -1 127h680v-906h87v-348h-180v194h-715v-194h-180zM843 154v752h-332v-68q0 -480 -217 -684h549z"/>
    <glyph glyph-name="afii10070" unicode="е" horiz-adv-x="1140" vert-adv-y="1433" d="M1052 340q-83 -371 -464 -371q-257 0 -389 175q-112 149 -112 379q0 248 137 407q141 161 359 161q145 0 259 -73.5t171 -204.5q52 -119 51 -327h-798q12 -371 335 -371q208 0 280 225h171zM884 629q-12 149 -93 232.5t-213 83.5q-267 0 -310 -316h616z"/>
    <glyph glyph-name="afii10072" unicode="ж" horiz-adv-x="1584" vert-adv-y="1433" d="M704 0v498h-203l-300 -498h-203l338 574l-251 486h203l212 -408h204v408h175v-408h204l212 408h204l-252 -486l338 -574h-203l-300 498h-203v-498h-175z"/>
    <glyph glyph-name="afii10073" unicode="з" horiz-adv-x="911" vert-adv-y="1433" d="M76 334h181v-47q0 -174 193 -174q199 0 199 172q0 80 -56 128.5t-148 48.5h-74v154h74q76 0 129 43t53 105q0 69 -47.5 114t-120.5 45q-77 0 -128 -48.5t-51 -122.5v-49h-181v49q0 140 104 235.5t257 95.5q148 0 248 -86.5t100 -215.5q0 -150 -149 -235q171 -78 171 -252 q0 -150 -106.5 -245t-272.5 -95q-173 0 -274 90t-101 243v47z"/>
    <glyph glyph-name="afii10074" unicode="и" horiz-adv-x="1088" vert-adv-y="1433" d="M140 0v1060h175v-703l459 614v89h175v-1060h-175v716l-459 -618v-98h-175z"/>
    <glyph glyph-name="afii10075" unicode="й" horiz-adv-x="1088" vert-adv-y="1433" d="M140 0v1060h175v-703l459 614v89h175v-1060h-175v708l-459 -610v-98h-175zM237 1469h124q16 -132 184 -132q165 0 181 132h124q-21 -275 -310 -275q-145 0 -222 70t-81 205z"/>
    <glyph glyph-name="afii10076" unicode="к" horiz-adv-x="1019" vert-adv-y="1433" d="M140 0v1060h175v-408h204l212 408h204l-252 -486l338 -574h-203l-300 498h-203v-498h-175z"/>
    <glyph glyph-name="afii10077" unicode="л" horiz-adv-x="1065" vert-adv-y="1433" d="M751 0v906h-355v-469q0 -403 -344 -437v153q78 22 123.5 89.5t45.5 160.5v657h705v-1060h-175z"/>
    <glyph glyph-name="afii10078" unicode="м" horiz-adv-x="1503" vert-adv-y="1433" d="M140 0v1060h262l349 -879l350 879h262v-1060h-175v894l-347 -894h-178l-348 894v-894h-175z"/>
    <glyph glyph-name="afii10079" unicode="н" horiz-adv-x="1110" vert-adv-y="1433" d="M140 0v1060h175v-429h480v429h175v-1060h-175v477h-480v-477h-175z"/>
    <glyph glyph-name="afii10080" unicode="о" horiz-adv-x="1197" vert-adv-y="1433" d="M609 1091q231 0 367.5 -152t136.5 -408q0 -283 -158 -436q-130 -126 -349 -126q-251 0 -388 162q-131 155 -131 399q0 234 118 382q141 179 404 179zM597 945q-150 0 -241 -113.5t-91 -300.5q0 -195 90.5 -305.5t249.5 -110.5q135 0 218 84q112 114 112 332 q0 193 -90 303.5t-248 110.5z"/>
    <glyph glyph-name="afii10081" unicode="п" horiz-adv-x="1093" vert-adv-y="1433" d="M140 0v1060h813v-1060h-175v906h-463v-906h-175z"/>
    <glyph glyph-name="afii10082" unicode="р" horiz-adv-x="1242" vert-adv-y="1433" d="M316 1060v-152q129 183 353 183q208 0 339 -137q149 -156 149 -431q0 -249 -130.5 -401.5t-344.5 -152.5q-231 0 -354 177v-558h-174v1472h162zM646 945q-149 0 -237 -112t-88 -301q0 -210 102 -320q91 -97 232 -97q146 0 230 103q94 115 94 304q0 194 -90 308.5 t-243 114.5z"/>
    <glyph glyph-name="afii10083" unicode="с" horiz-adv-x="1115" vert-adv-y="1433" d="M1053 386q-27 -197 -149 -307t-314 -110q-232 0 -367.5 147t-135.5 399q0 287 157 440q139 136 352 136q195 0 312 -98t139 -278h-181q-46 230 -271 230q-151 0 -240 -112t-89 -303q0 -194 85 -304.5t234 -110.5q119 0 194.5 70.5t95.5 200.5h178z"/>
    <glyph glyph-name="afii10084" unicode="т" horiz-adv-x="808" vert-adv-y="1433" d="M316 0v906h-308v154h791v-154h-308v-906h-175z"/>
    <glyph glyph-name="afii10085" unicode="у" horiz-adv-x="994" vert-adv-y="1433" d="M993 1060l-390 -1025q-105 -277 -146 -342q-75 -120 -226 -120q-52 0 -102 12l-27 6v156q75 -23 118 -23q60 0 96 51t105 232l-420 1053h196l232 -621q24 -63 81 -245q52 163 86 261l213 605h184z"/>
    <glyph glyph-name="afii10086" unicode="ф" horiz-adv-x="1393" vert-adv-y="1433" d="M609 -436v393q-167 11 -277 75q-252 146 -252 488q0 251 139 398.5t390 164.5v247h175v-247q166 -11 277 -75q252 -147 252 -488q0 -251 -139 -398.5t-390 -164.5v-393h-175zM609 928q-111 -10 -183 -57q-165 -105 -165 -352q0 -182 90 -286.5t258 -120.5v816zM784 928 v-816q110 10 183 57q165 104 165 350q0 182 -89.5 287.5t-258.5 121.5z"/>
    <glyph glyph-name="afii10087" unicode="х" horiz-adv-x="1013" vert-adv-y="1433" d="M975 1060l-366 -488l410 -572h-223l-229 334q-37 54 -67 105l-70 -105l-225 -334h-212l398 558l-369 502h224l169 -240q24 -33 85 -130q63 93 91 131l173 239h211z"/>
    <glyph glyph-name="afii10088" unicode="ц" horiz-adv-x="1090" vert-adv-y="1433" d="M140 0v1060h175v-906h436v906h175v-906h93v-471h-180v317h-699z"/>
    <glyph glyph-name="afii10089" unicode="ч" horiz-adv-x="1024" vert-adv-y="1433" d="M710 0v397q-135 -55 -269 -55q-165 0 -254 73.5t-89 208.5v436h175v-398q0 -160 196 -160q118 0 241 39v519h175v-1060h-175z"/>
    <glyph glyph-name="afii10090" unicode="ш" horiz-adv-x="1644" vert-adv-y="1433" d="M140 0v1060h178v-906h418v906h175v-906h418v906h175v-1060h-1364z"/>
    <glyph glyph-name="afii10091" unicode="щ" horiz-adv-x="1662" vert-adv-y="1433" d="M140 0v1060h178v-906h418v906h175v-906h418v906h175v-906h87v-471h-175v317h-1276z"/>
    <glyph glyph-name="afii10092" unicode="ъ" horiz-adv-x="1330" vert-adv-y="1433" d="M409 0v906h-423v154h599v-426h331q160 0 251 -88q93 -90 93 -235q0 -142 -93 -226.5t-248 -84.5h-510zM585 154h327q167 0 167 162q0 164 -167 164h-327v-326z"/>
    <glyph glyph-name="afii10093" unicode="ы" horiz-adv-x="1411" vert-adv-y="1433" d="M140 0v1060h175v-426h332q159 0 250 -88q93 -90 93 -235q0 -141 -93 -226t-248 -85h-509zM315 154h327q167 0 167 162q0 164 -167 164h-327v-326zM1096 0v1060h175v-1060h-175z"/>
    <glyph glyph-name="afii10094" unicode="ь" horiz-adv-x="1060" vert-adv-y="1433" d="M140 0v1060h175v-426h332q159 0 250 -88q93 -90 93 -235q0 -141 -93 -226t-248 -85h-509zM315 154h327q167 0 167 162q0 164 -167 164h-327v-326z"/>
    <glyph glyph-name="afii10095" unicode="э" horiz-adv-x="1104" vert-adv-y="1433" d="M88 736q98 347 454 347q231 0 360 -163q122 -154 122 -400q0 -253 -126 -409q-125 -157 -356 -157q-383 0 -466 401l178 45q57 -287 288 -287q130 0 211.5 96.5t88.5 257.5h-377v154h371q-16 142 -93 222t-196 80q-103 0 -177 -59t-104 -165z"/>
    <glyph glyph-name="afii10096" unicode="ю" horiz-adv-x="1594" vert-adv-y="1433" d="M554 639q18 133 69 224q125 227 407 227q228 0 354.5 -149t126.5 -417q0 -260 -120 -411q-127 -158 -361 -158q-219 0 -344 136.5t-137 386.5h-234v-478h-175v1060h175v-421h239zM1025 930q-137 0 -216 -109t-79 -298q0 -169 62 -275q79 -133 238 -133q140 0 220 108 t80 298q0 172 -62 276q-80 133 -243 133z"/>
    <glyph glyph-name="afii10097" unicode="я" horiz-adv-x="1068" vert-adv-y="1433" d="M754 0v419h-287q-62 0 -102.5 -44.5t-40.5 -111.5v-112q0 -103 -42 -151h-184q46 39 46 151v112q0 135 135 198q-200 78 -200 280q0 141 95.5 230t247.5 89h507v-1060h-175zM754 573v333h-332q-75 0 -118.5 -44t-43.5 -119q0 -170 162 -170h332z"/>
    <glyph glyph-name="afii10071" unicode="ё" horiz-adv-x="1140" vert-adv-y="1433" d="M1052 340q-83 -371 -464 -371q-257 0 -389 175q-112 149 -112 379q0 248 137 407q141 161 359 161q145 0 259 -73.5t171 -204.5q52 -119 51 -327h-798q12 -371 335 -371q208 0 280 225h171zM884 629q-12 149 -93 232.5t-213 83.5q-267 0 -310 -316h616zM864 1451v-208 h-186v208h186zM477 1451v-208h-186v208h186z"/>
    <glyph glyph-name="afii10099" unicode="ђ" horiz-adv-x="1144" vert-adv-y="1433" d="M162 0v1169h-208v154h208v139h175v-139h234v-154h-234v-289q160 188 350 188q142 0 233 -97.5t91 -251.5v-615q0 -163 -120 -271q-111 -99 -251 -99h-263v160h263q78 0 137 63t59 147v615q0 82 -52.5 135.5t-132.5 53.5q-175 0 -314 -218v-690h-175z"/>
    <glyph glyph-name="afii10100" unicode="ѓ" horiz-adv-x="805" vert-adv-y="1433" d="M159 0v1060h644v-154h-469v-906h-175zM507 1492h236l-306 -302h-128z"/>
    <glyph glyph-name="afii10101" unicode="є" horiz-adv-x="1104" vert-adv-y="1433" d="M1016 736l-178 -37q-67 224 -281 224q-119 0 -195.5 -80t-93.5 -222h371v-154h-376q4 -159 86.5 -256.5t213.5 -97.5q230 0 287 287l178 -45q-87 -401 -466 -401q-231 0 -357 157q-125 156 -125 409q0 246 122 400q129 163 361 163q352 0 453 -347z"/>
    <glyph glyph-name="afii10102" unicode="ѕ" horiz-adv-x="1019" vert-adv-y="1433" d="M900 752h-175q-27 193 -258 193q-217 0 -217 -147q0 -66 52 -96.5t231 -70.5q229 -52 319.5 -123t90.5 -199q0 -155 -120 -247.5t-320 -92.5q-442 0 -455 366h171q26 -220 285 -220q117 0 188.5 48t71.5 126q0 68 -54.5 105t-212.5 75q-241 59 -301 91q-124 66 -124 218 q0 144 109 228.5t294 84.5q398 0 425 -339z"/>
    <glyph glyph-name="afii10103" unicode="і" horiz-adv-x="481" vert-adv-y="1433" d="M328 1462v-214h-174v214h174zM328 1060v-1060h-174v1060h174z"/>
    <glyph glyph-name="afii10104" unicode="ї" horiz-adv-x="481" vert-adv-y="1433" d="M327 1060v-1060h-174v1060h174zM476 1451v-208h-186v208h186zM191 1451v-208h-186v208h186z"/>
    <glyph glyph-name="afii10105" unicode="ј" horiz-adv-x="481" vert-adv-y="1433" d="M327 1060v-1087q0 -151 -6.5 -203t-30.5 -95q-58 -102 -230 -102q-39 0 -81 7v148q36 -8 64 -8q78 0 94 37t16 215v1088h174zM327 1462v-214h-174v214h174z"/>
    <glyph glyph-name="afii10106" unicode="љ" horiz-adv-x="1670" vert-adv-y="1433" d="M750 0v906h-354v-469q0 -403 -344 -437v153q78 23 123.5 90t45.5 161v656h704v-426h331q160 0 251 -88q93 -90 93 -235q0 -142 -93 -226.5t-248 -84.5h-509zM925 154h327q167 0 167 162q0 164 -167 164h-327v-326z"/>
    <glyph glyph-name="afii10107" unicode="њ" horiz-adv-x="1715" vert-adv-y="1433" d="M140 0v1060h175v-429h480v429h175v-426h331q157 0 250.5 -88t93.5 -235q0 -142 -93 -226.5t-248 -84.5h-509v477h-480v-477h-175zM970 154h327q167 0 167 162q0 78 -44 121t-123 43h-327v-326z"/>
    <glyph glyph-name="afii10108" unicode="ћ" horiz-adv-x="1144" vert-adv-y="1433" d="M162 0v1169h-208v154h208v139h175v-139h234v-154h-234v-289q160 188 350 188q142 0 233 -97.5t91 -251.5v-719h-175v719q0 82 -52.5 135.5t-132.5 53.5q-174 0 -314 -217v-691h-175z"/>
    <glyph glyph-name="afii10109" unicode="ќ" horiz-adv-x="1019" vert-adv-y="1433" d="M140 0v1060h175v-408h204l212 408h204l-252 -486l338 -574h-203l-300 498h-203v-498h-175zM560 1492h236l-307 -302h-128z"/>
    <glyph glyph-name="afii10110" unicode="ў" horiz-adv-x="994" vert-adv-y="1433" d="M993 1060l-390 -1025q-105 -277 -146 -342q-75 -120 -226 -120q-52 0 -102 12l-27 6v156q75 -23 118 -23q60 0 96 51t105 232l-420 1053h196l232 -621q24 -63 81 -245q52 163 86 261l213 605h184zM193 1469h125q16 -132 184 -132q167 0 181 132h124q-19 -275 -310 -275 q-290 0 -304 275z"/>
    <glyph glyph-name="afii10193" unicode="џ" horiz-adv-x="1066" vert-adv-y="1433" d="M140 0v1060h175v-906h436v906h175v-1060h-303v-320h-175v320h-308z"/>
    <glyph glyph-name="afii10050" unicode="Ґ" horiz-adv-x="1085" vert-adv-y="1433" d="M956 1462l195 296h236l-305 -300v-166h-727v-1292h-196v1462h797z"/>
    <glyph glyph-name="afii10098" unicode="ґ" horiz-adv-x="805" vert-adv-y="1433" d="M677 1060l195 296h236l-305 -300v-150h-469v-906h-175v1060h518z"/>
    <glyph glyph-name="uni0492" unicode="Ғ" horiz-adv-x="1175" vert-adv-y="1433" d="M1129 1462v-168h-768v-462h676v-156h-676v-676h-193v676h-97v156h97v630h961z"/>
    <glyph glyph-name="uni0493" unicode="ғ" horiz-adv-x="785" vert-adv-y="1433" d="M315 652h305v-154h-305v-498h-175v498h-72v154h72v408h644v-154h-469v-254z"/>
    <glyph glyph-name="uni0496" unicode="Җ" horiz-adv-x="2060" vert-adv-y="1433" d="M888 0v690h-219l-451 -690h-220l509 772l-419 690h218l364 -602h218v602h196v-602h220l362 602h216l-414 -690l397 -602h195v-462h-194v292h-103l-453 690h-226v-690h-196z"/>
    <glyph glyph-name="uni0497" unicode="җ" horiz-adv-x="1653" vert-adv-y="1433" d="M704 0v498h-203l-300 -498h-203l338 574l-251 486h203l212 -408h204v408h175v-408h204l213 408h203l-252 -486l248 -420h157v-469h-175v315h-95l-299 498h-204v-498h-175z"/>
    <glyph glyph-name="uni049A" unicode="Қ" horiz-adv-x="1343" vert-adv-y="1433" d="M159 0v1462h196v-602h139l362 602h216l-414 -690l397 -602h207v-502h-196v332h-115l-453 690h-143v-690h-196z"/>
    <glyph glyph-name="uni049B" unicode="қ" horiz-adv-x="1088" vert-adv-y="1433" d="M140 0v1060h175v-408h204l213 408h203l-252 -486l248 -420h157v-474h-175v320h-95l-299 498h-204v-498h-175z"/>
    <glyph glyph-name="uni049C" unicode="Ҝ" horiz-adv-x="1247" vert-adv-y="1433" d="M454 860v366h127v-358l356 594h217l-415 -690l510 -772h-217l-451 689v-366h-127v367h-99v-690h-196v1462h196v-602h99z"/>
    <glyph glyph-name="uni049D" unicode="ҝ" horiz-adv-x="1019" vert-adv-y="1433" d="M410 651v264h115v-255l206 400h204l-252 -487l338 -573h-203l-293 489v-247h-115v255h-95v-497h-175v1060h175v-409h95z"/>
    <glyph glyph-name="uni04A2" unicode="Ң" horiz-adv-x="1494" vert-adv-y="1433" d="M1214 0h-81v685h-772v-685h-193v1462h193v-609h772v609h193v-1292h84v-502h-196v332z"/>
    <glyph glyph-name="uni04A3" unicode="ң" horiz-adv-x="1110" vert-adv-y="1433" d="M140 0v1060h175v-429h480v429h175v-907h69v-473h-175v320h-69v477h-480v-477h-175z"/>
    <glyph glyph-name="uni04AE" unicode="Ү" horiz-adv-x="1283" vert-adv-y="1433" d="M1304 1462l-564 -864v-598h-193v598l-569 864h233l344 -546q62 -99 95 -159q37 69 90 154l343 551h221z"/>
    <glyph glyph-name="uni04Af" unicode="ү" horiz-adv-x="1009" vert-adv-y="1433" d="M785 1060h187l-378 -1058v-438h-175v438l-379 1058h187l279 -817z"/>
    <glyph glyph-name="uni04B0" unicode="Ұ" horiz-adv-x="1360" vert-adv-y="1433" d="M784 450h299v-174h-299v-276h-196v276h-312v174h312v123l-567 889h238l431 -706l418 706h231l-555 -889v-123z"/>
    <glyph glyph-name="uni04B1" unicode="ұ" horiz-adv-x="1009" vert-adv-y="1433" d="M594 2h240v-120h-240v-318h-175v318h-245v120h245l-379 1058h187l280 -817l278 817h187z"/>
    <glyph glyph-name="uni04B2" unicode="Ҳ" horiz-adv-x="1369" vert-adv-y="1433" d="M1149 170h196v-502h-196v332h-119l-301 454q-52 78 -95 158q-35 -56 -100 -153l-308 -459h-221l515 754l-483 708h231l251 -383q97 -157 116 -195q58 99 123 195l260 383h218l-486 -708z"/>
    <glyph glyph-name="uni04B3" unicode="ҳ" horiz-adv-x="1060" vert-adv-y="1433" d="M852 0h-57l-228 335q-38 54 -68 105q-25 -40 -70 -105l-225 -335h-211l398 558l-369 502h224l169 -240q23 -32 84 -130q65 95 91 131l174 239h211l-366 -488l300 -418h119v-471h-176v317z"/>
    <glyph glyph-name="uni04B6" unicode="Ҷ" horiz-adv-x="1403" vert-adv-y="1433" d="M1047 0v553q-211 -56 -412 -56q-242 0 -378.5 98.5t-136.5 273.5v593h196v-583q0 -212 363 -212q166 0 368 56v739h196v-1293h113v-501h-196v332h-113z"/>
    <glyph glyph-name="uni04B7" unicode="ҷ" horiz-adv-x="1024" vert-adv-y="1433" d="M710 0v398q-135 -56 -269 -56q-165 0 -254 73.5t-89 208.5v436h175v-397q0 -161 197 -161q118 0 240 39v519h175v-906h68v-474h-175v320h-68z"/>
    <glyph glyph-name="uni04B8" unicode="Ҹ" horiz-adv-x="1403" vert-adv-y="1433" d="M745 502v-286h-127v282q-237 5 -367.5 102t-130.5 269v593h196v-583q0 -191 302 -210v449h127v-449q137 9 302 54v739h196v-1462h-196v553q-140 -37 -302 -51z"/>
    <glyph glyph-name="uni04B9" unicode="ҹ" horiz-adv-x="1024" vert-adv-y="1433" d="M548 351v-189h-115v180q-161 3 -248 76.5t-87 206.5v435h175v-397q0 -141 160 -159v244h115v-241q83 9 162 34v519h175v-1060h-175v398q-79 -34 -162 -47z"/>
    <glyph glyph-name="uni04BA" unicode="Һ" horiz-adv-x="1403" vert-adv-y="1433" d="M316 1462v-553q209 55 411 55q243 0 379.5 -98t136.5 -273v-593h-196v583q0 211 -365 211q-167 0 -366 -55v-739h-196v1462h196z"/>
    <glyph glyph-name="uni04BB" unicode="һ" horiz-adv-x="1179" vert-adv-y="1433" d="M328 1462v-428q0 -19 -4 -126q119 183 354 183q188 0 271.5 -95t83.5 -308v-688h-174v667q0 141 -34 191q-58 87 -198 87q-194 0 -266 -164q-33 -76 -33 -281v-500h-174v1462h174z"/>
    <glyph glyph-name="uni04C0" unicode="Ӏ" horiz-adv-x="529" vert-adv-y="1433" d="M361 1462v-1462h-193v1462h193z"/>
    <glyph glyph-name="uni04CF" unicode="ӏ" horiz-adv-x="529" vert-adv-y="1433" d="M361 1462v-1462h-193v1462h193z"/>
    <glyph glyph-name="uni04D8" unicode="Ә" horiz-adv-x="1570" vert-adv-y="1433" d="M1300 806q-20 177 -99 298q-139 212 -416 212q-339 0 -469 -316l-190 38q182 448 659 448q275 0 459 -155q255 -215 255 -611q0 -395 -255 -610q-184 -155 -459 -155q-274 0 -458 155q-255 215 -255 610q0 36 4 86h1224zM1300 635h-1030q20 -177 100 -298 q140 -212 415 -212q215 0 353 137t162 373z"/>
    <glyph glyph-name="uni04D9" unicode="ә" horiz-adv-x="1140" vert-adv-y="1433" d="M90 720q82 371 463 371q258 0 390 -175q112 -149 112 -379q0 -248 -137 -407q-140 -161 -359 -161q-145 0 -259 73.5t-171 204.5q-52 120 -51 327h797q-9 371 -335 371q-210 0 -279 -225h-171zM258 431q12 -149 93 -232.5t213 -83.5q267 0 309 316h-615z"/>
    <glyph glyph-name="uni04E2" unicode="Ӣ" horiz-adv-x="1389" vert-adv-y="1433" d="M804 1468l572 -1468h-215l-163 449h-614l-167 -449h-204l574 1468h217zM941 605l-145 389q-72 196 -103 296q-33 -94 -106 -289l-147 -396h501zM388 1867h124q16 -133 184 -133q167 0 181 133h125q-23 -276 -310 -276q-145 0 -222.5 70t-81.5 206z"/>
    <glyph glyph-name="uni04E3" unicode="ӣ" horiz-adv-x="1109" vert-adv-y="1433" d="M1063 140v-136q-61 -22 -125 -22q-147 0 -150 158q-148 -171 -384 -171q-156 0 -247 81t-91 220q0 209 199 289q72 29 326 60q106 13 146 43t40 96q0 187 -239 187q-126 0 -187 -51t-73 -166h-171q4 170 121.5 266.5t321.5 96.5q224 0 333 -105q72 -69 72 -273 q0 -184 -7 -413q-1 -48 -1 -71q0 -101 69 -101q21 0 47 12zM780 550q-57 -41 -234 -64q-174 -21 -237.5 -64t-63.5 -137q0 -83 56.5 -131.5t153.5 -48.5q190 0 291 142q34 47 34 145v158zM831 1505q-13 -119 -47 -173q-74 -118 -252 -118q-271 0 -283 291h99 q23 -161 196 -161q86 0 128.5 36t60.5 125h98z"/>
    <glyph glyph-name="uni04E8" unicode="Ө" horiz-adv-x="1570" vert-adv-y="1433" d="M794 1486q265 0 450 -155q255 -214 255 -611q0 -395 -255 -610q-184 -155 -458 -155q-276 0 -459 155q-255 215 -255 608q0 401 255 613q186 155 467 155zM1300 635h-1030q20 -177 100 -298q140 -212 415 -212q215 0 353 137t162 373zM270 806h1030q-17 172 -99 298 q-138 212 -416 212q-214 0 -351 -135.5t-164 -374.5z"/>
    <glyph glyph-name="uni04E9" unicode="ө" horiz-adv-x="1122" vert-adv-y="1433" d="M569 1083q220 0 346.5 -150.5t126.5 -412.5q0 -256 -120 -407q-127 -158 -361 -158q-226 0 -353.5 149t-127.5 414q0 258 120 407q129 158 369 158zM857 442h-592q9 -83 34 -144q75 -183 262 -183q125 0 201.5 84.5t94.5 242.5zM265 596h592q-9 86 -33 144 q-75 183 -263 183q-125 0 -202.5 -85.5t-93.5 -241.5z"/>
    <glyph glyph-name="uni04EE" unicode="Ӯ" horiz-adv-x="1281" vert-adv-y="1433" d="M1181 1462v-168h-820v-463h766v-156h-766v-507h831v-168h-1024v1462h1013zM367 1867h125q15 -133 184 -133q167 0 181 133h124q-24 -276 -309 -276q-146 0 -223 70t-82 206z"/>
    <glyph glyph-name="uni04EF" unicode="ӯ" horiz-adv-x="1140" vert-adv-y="1433" d="M1052 340q-83 -371 -464 -371q-257 0 -389 175q-112 149 -112 379q0 248 137 407q141 161 359 161q145 0 259 -73.5t171 -204.5q52 -119 51 -327h-798q12 -371 335 -371q208 0 280 225h171zM884 629q-12 149 -93 232.5t-213 83.5q-267 0 -310 -316h616zM259 1469h124 q16 -132 184 -132q165 0 181 132h124q-22 -275 -309 -275q-291 0 -304 275z"/>
    <glyph glyph-name="Wgrave" unicode="Ẁ" horiz-adv-x="1896" vert-adv-y="1433" d="M1877 1462l-390 -1462h-204l-247 895q-61 223 -89 383q-33 -154 -95 -372l-246 -906h-207l-379 1462h200l217 -897q53 -220 76 -366q23 139 86 371l244 892h212l250 -913q50 -181 80 -350q22 137 73 346l225 917h194zM663 1857h230l167 -278h-143z"/>
    <glyph glyph-name="wgrave" unicode="ẁ" horiz-adv-x="1552" vert-adv-y="1433" d="M1519 1060l-338 -1060h-186l-157 579q-32 116 -63 264q-32 -146 -62 -263l-151 -580h-189l-340 1060h193l147 -507q48 -166 95 -360q52 245 83 365l131 502h193l153 -564q28 -105 68 -303q40 180 75 300l166 567h182zM498 1499h215l152 -293h-121z"/>
    <glyph glyph-name="Wacute" unicode="Ẃ" horiz-adv-x="1896" vert-adv-y="1433" d="M1877 1462l-390 -1462h-204l-247 895q-61 223 -89 383q-33 -154 -95 -372l-246 -906h-207l-379 1462h200l217 -897q53 -220 76 -366q23 139 86 371l244 892h212l250 -913q50 -181 80 -350q22 137 73 346l225 917h194zM1228 1857l-254 -278h-143l167 278h230z"/>
    <glyph glyph-name="wacute" unicode="ẃ" horiz-adv-x="1552" vert-adv-y="1433" d="M1519 1060l-338 -1060h-186l-157 579q-32 116 -63 264q-32 -146 -62 -263l-151 -580h-189l-340 1060h193l147 -507q48 -166 95 -360q52 245 83 365l131 502h193l153 -564q28 -105 68 -303q40 180 75 300l166 567h182zM1060 1499l-246 -293h-121l152 293h215z"/>
    <glyph glyph-name="Wdieresis" unicode="Ẅ" horiz-adv-x="1896" vert-adv-y="1433" d="M1877 1462l-390 -1462h-204l-247 895q-61 223 -89 383q-33 -154 -95 -372l-246 -906h-207l-379 1462h200l217 -897q53 -220 76 -366q23 139 86 371l244 892h212l250 -913q50 -181 80 -350q22 137 73 346l225 917h194zM1269 1818v-202h-190v202h190zM818 1818v-202h-190 v202h190z"/>
    <glyph glyph-name="wdieresis" unicode="ẅ" horiz-adv-x="1552" vert-adv-y="1433" d="M1519 1060l-338 -1060h-186l-157 579q-32 116 -63 264q-32 -146 -62 -263l-151 -580h-189l-340 1060h193l147 -507q48 -166 95 -360q52 245 83 365l131 502h193l153 -564q28 -105 68 -303q40 180 75 300l166 567h182zM1063 1451v-208h-186v208h186zM676 1451v-208h-186 v208h186z"/>
    <glyph glyph-name="Ygrave" unicode="Ỳ" horiz-adv-x="1327" vert-adv-y="1433" d="M1326 1462l-564 -864v-598h-193v598l-569 864h233l344 -546q62 -99 95 -159q37 69 90 154l343 551h221zM399 1857h230l167 -278h-143z"/>
    <glyph glyph-name="ygrave" unicode="ỳ" horiz-adv-x="1024" vert-adv-y="1433" d="M1008 1060l-390 -1025q-105 -277 -146 -342q-75 -120 -226 -120q-52 0 -102 12l-27 6v156q75 -23 118 -23q60 0 96 51t105 232l-420 1053h196l232 -621q24 -63 81 -245q52 163 86 261l213 605h184zM267 1499h215l152 -293h-121z"/>
    <glyph glyph-name="uni1FFD" unicode="´" horiz-adv-x="558" vert-adv-y="1433" d="M281 1533h166l-142 -346h-121z"/>
    <glyph glyph-name="uni1FFE" unicode="῾" horiz-adv-x="558" vert-adv-y="1433" d="M379 1581v-201h-110q0 -144 110 -145v-77q-12 -1 -16 -1q-81 0 -133 61t-52 157v206h201z"/>
    <glyph glyph-name="uni2010" unicode="‐" horiz-adv-x="668" vert-adv-y="1433" d="M569 626v-144h-477v144h477z"/>
    <glyph glyph-name="uni2011" unicode="‑" horiz-adv-x="797" vert-adv-y="1433" d="M647 633v-175h-497v175h497z"/>
    <glyph glyph-name="uni2012" unicode="‒" horiz-adv-x="1024" vert-adv-y="1433" d="M950 633v-175h-877v175h877z"/>
    <glyph glyph-name="afii00208" unicode="―" horiz-adv-x="2048" vert-adv-y="1433" d="M2048 633v-175h-2048v175h2048z"/>
    <glyph glyph-name="quotereversed" unicode="‛" horiz-adv-x="443" vert-adv-y="1433" d="M314 1462v-209h-96q-4 -167 96 -180v-77q-90 8 -138 75.5t-48 188.5v202h186z"/>
    <glyph glyph-name="uni201F" unicode="‟" horiz-adv-x="668" vert-adv-y="1433" d="M569 1422v-209h-96q-4 -167 96 -180v-77q-186 16 -186 264v202h186zM248 1422v-209h-96q-1 -163 96 -180v-77q-186 16 -186 264v202h186z"/>
    <glyph glyph-name="uni2023" unicode="‣" horiz-adv-x="702" vert-adv-y="1433" d="M100 943l501 -321l-501 -320v641z"/>
    <glyph glyph-name="uni2024" unicode="․" horiz-adv-x="1024" vert-adv-y="1433" d="M669 313v-313h-313v313h313z"/>
    <glyph glyph-name="uni2031" unicode="‱" horiz-adv-x="2620" vert-adv-y="1433" d="M322 1460q121 0 208 -88.5t87 -213.5q0 -124 -87.5 -212.5t-211.5 -88.5t-212 88.5t-88 212.5q0 127 88 214.5t216 87.5zM315 1340q-73 0 -125.5 -53t-52.5 -128t53 -128t128 -53q74 0 127 53t53 128q0 76 -53 128.5t-130 52.5zM987 1480h132l-792 -1520h-132zM974 559 q122 0 209 -89t87 -212q0 -125 -88 -213.5t-212 -88.5t-212 88.5t-88 212.5q0 127 88 214.5t216 87.5zM967 439q-73 0 -126 -53.5t-53 -127.5q0 -75 53.5 -128.5t128.5 -53.5t128 53t53 128q0 77 -53 129.5t-131 52.5zM1643 559q121 0 208.5 -89t87.5 -212 q0 -125 -88 -213.5t-212 -88.5q-125 0 -213 88t-88 213q0 127 88 214.5t217 87.5zM1636 439q-74 0 -127 -53.5t-53 -127.5q0 -75 53.5 -128.5t128.5 -53.5t128.5 53.5t53.5 127.5q0 77 -53.5 129.5t-130.5 52.5zM2311 559q122 0 209 -89t87 -212q0 -125 -88 -213.5 t-212 -88.5t-212 88t-88 213q0 127 88 214.5t216 87.5zM2305 439q-74 0 -126.5 -53.5t-52.5 -127.5q0 -75 53 -128.5t128 -53.5t128 53.5t53 127.5q0 77 -53 129.5t-130 52.5z"/>
    <glyph glyph-name="uni2070" unicode="⁰" horiz-adv-x="774" vert-adv-y="1433" d="M390 1462q193 0 266 -158q45 -97 45 -304q0 -177 -45 -275q-72 -158 -266 -158q-202 0 -274 157q-43 95 -43 279q0 209 44 303q74 156 273 156zM384 1358q-100 0 -140.5 -78.5t-40.5 -274.5q0 -143 26 -219q38 -114 160 -114q98 0 140 78t42 258q0 158 -26 236 q-38 114 -161 114z"/>
    <glyph glyph-name="uni2074" unicode="⁴" horiz-adv-x="774" vert-adv-y="1433" d="M705 896v-102h-124v-209h-119v209h-402v107l420 561h101v-566h124zM462 896v237q0 94 1 153q-78 -114 -89 -129l-119 -158q-11 -14 -82 -103h36h55h198z"/>
    <glyph glyph-name="uni2075" unicode="⁵" horiz-adv-x="774" vert-adv-y="1433" d="M649 1445v-107h-373l-31 -152q-11 -52 -17 -73q73 51 171 51q124 0 206 -71q93 -81 93 -219q0 -135 -91 -221t-234 -86q-136 0 -218.5 71.5t-85.5 192.5h126q6 -73 54.5 -116.5t124.5 -43.5q92 0 147 65q47 55 47 130q0 87 -54 140.5t-141 53.5q-112 0 -173 -83l-107 6 l89 462h467z"/>
    <glyph glyph-name="uni2076" unicode="⁶" horiz-adv-x="774" vert-adv-y="1433" d="M685 1224h-126q-20 134 -149 134q-189 0 -209 -299q81 93 215 93q130 0 211 -78t81 -202q0 -139 -86 -220q-91 -85 -221 -85q-161 0 -243.5 110.5t-82.5 326.5q0 222 87.5 340t251.5 118q121 0 192 -62.5t79 -175.5zM397 1048q-79 0 -128 -50.5t-49 -131.5q0 -86 50 -140 t131 -54q80 0 129 52t49 136q0 87 -48.5 137.5t-133.5 50.5z"/>
    <glyph glyph-name="uni2077" unicode="⁷" horiz-adv-x="773" vert-adv-y="1433" d="M703 1445v-100q-8 -10 -45 -50q-265 -298 -307 -710h-136q13 190 109.5 388.5t251.5 357.5h-480v114h607z"/>
    <glyph glyph-name="uni2078" unicode="⁸" horiz-adv-x="774" vert-adv-y="1433" d="M219 1054q-112 58 -112 179q0 101 78.5 165t201.5 64q136 0 212 -72q67 -64 67 -152q0 -120 -114 -184q150 -60 150 -210q0 -128 -86 -202.5t-233 -74.5q-144 0 -231 79q-80 72 -80 189q0 151 147 219zM385 1358q-66 0 -107 -36.5t-41 -93.5q0 -58 41.5 -94t108.5 -36 q68 0 108.5 35.5t40.5 94.5q0 61 -40.5 95.5t-110.5 34.5zM383 1000q-79 0 -130 -45.5t-51 -115.5q0 -73 52 -119t133 -46q92 0 141 53q44 47 44 111q0 73 -52 117.5t-137 44.5z"/>
    <glyph glyph-name="uni2079" unicode="⁹" horiz-adv-x="774" vert-adv-y="1433" d="M87 809h123q19 -137 161 -137q90 0 142.5 81t56.5 226q-77 -102 -216 -102q-127 0 -207 79.5t-80 206.5q0 132 86 215.5t223 83.5q199 0 279 -170q43 -93 43 -262q0 -168 -49 -275q-86 -188 -282 -188q-122 0 -197.5 65t-82.5 177zM370 1358q-77 0 -125 -53.5t-48 -138.5 t47.5 -134.5t127.5 -49.5q81 0 130 50t49 131q0 87 -46 138q-52 57 -135 57z"/>
    <glyph glyph-name="uni207A" unicode="⁺" horiz-adv-x="794" vert-adv-y="1433" d="M348 1163h97v-254h248v-86h-248v-254h-97v254h-248v86h248v254z"/>
    <glyph glyph-name="uni207B" unicode="⁻" horiz-adv-x="794" vert-adv-y="1433" d="M100 909h593v-86h-593v86z"/>
    <glyph glyph-name="uni207C" unicode="⁼" horiz-adv-x="794" vert-adv-y="1433" d="M100 998h593v-86h-593v86zM100 813h593v-86h-593v86z"/>
    <glyph glyph-name="uni207D" unicode="⁽" horiz-adv-x="458" vert-adv-y="1433" d="M308 1439h96q-146 -234 -146 -503q0 -265 146 -502h-96q-81 108 -127.5 242t-46.5 261q0 126 46.5 260t127.5 242z"/>
    <glyph glyph-name="uni207E" unicode="⁾" horiz-adv-x="458" vert-adv-y="1433" d="M150 1439q81 -106 127.5 -241t46.5 -261q0 -127 -46.5 -262t-127.5 -241h-96q146 236 146 502q0 128 -38.5 260.5t-107.5 242.5h96z"/>
    <glyph glyph-name="nsuperior" unicode="ⁿ" horiz-adv-x="691" vert-adv-y="1433" d="M80 1189h109v-87q78 106 209 106q82 0 140 -36q74 -46 74 -134v-468h-119v429q-9 123 -125 123q-77 0 -123 -57.5t-46 -153.5v-341h-119v619z"/>
    <glyph glyph-name="uni2080" unicode="₀" horiz-adv-x="774" vert-adv-y="1433" d="M390 877q193 0 266 -158q45 -97 45 -304q0 -177 -45 -275q-72 -158 -266 -158q-202 0 -274 157q-43 95 -43 279q0 209 44 303q74 156 273 156zM384 773q-100 0 -140.5 -78.5t-40.5 -274.5q0 -143 26 -219q38 -114 160 -114q98 0 140 78t42 258q0 158 -26 236 q-38 114 -161 114z"/>
    <glyph glyph-name="uni2081" unicode="₁" horiz-adv-x="774" vert-adv-y="1433" d="M522 877v-877h-136v625h-60h-64h-70h-37v93q124 -1 182 34t85 125h100z"/>
    <glyph glyph-name="uni2082" unicode="₂" horiz-adv-x="774" vert-adv-y="1433" d="M695 107v-107h-614q6 129 63 206.5t214 169.5q127 75 163 114q51 56 51 127q0 70 -47 113.5t-122 43.5q-164 0 -172 -218h-124q-1 19 -1 28q0 133 83 213.5t220 80.5q124 0 203 -62q90 -71 90 -198q0 -113 -86 -197q-54 -53 -198 -134q-108 -60 -144 -92t-59 -88h480z "/>
    <glyph glyph-name="uni2083" unicode="₃" horiz-adv-x="774" vert-adv-y="1433" d="M86 583q3 142 80.5 218t218.5 76q119 0 198 -61q79 -62 79 -170q0 -114 -112 -178q153 -54 153 -207q0 -125 -89.5 -202t-234.5 -77q-144 0 -228.5 77t-84.5 208v17h123q3 -96 52.5 -146.5t139.5 -50.5q85 0 138.5 45.5t53.5 117.5q0 75 -52.5 116.5t-145.5 41.5 q-34 0 -66 -4v103q25 -2 42 -2q86 0 133.5 35.5t47.5 99.5q0 60 -42 96t-111 36q-166 0 -171 -189h-122z"/>
    <glyph glyph-name="uni2084" unicode="₄" horiz-adv-x="774" vert-adv-y="1433" d="M705 311v-102h-124v-209h-119v209h-402v107l420 561h101v-566h124zM462 311v237q0 95 1 154q-74 -109 -89 -130l-119 -157q-12 -15 -82 -104h36h55h198z"/>
    <glyph glyph-name="uni2085" unicode="₅" horiz-adv-x="774" vert-adv-y="1433" d="M649 860v-107h-373l-31 -152q-11 -52 -17 -73q73 51 171 51q124 0 206 -71q93 -81 93 -219q0 -135 -91 -221t-234 -86q-136 0 -218.5 71.5t-85.5 192.5h126q5 -73 54.5 -116.5t125.5 -43.5q82 0 137.5 55.5t55.5 139.5q0 87 -54 140.5t-141 53.5q-112 0 -173 -83l-107 6 l89 462h467z"/>
    <glyph glyph-name="uni2086" unicode="₆" horiz-adv-x="774" vert-adv-y="1433" d="M685 639h-126q-20 134 -149 134q-189 0 -209 -299q82 93 217 93q130 0 210 -77t80 -203q0 -139 -86 -220q-91 -85 -221 -85q-161 0 -243.5 110.5t-82.5 327.5q0 220 87.5 338.5t251.5 118.5q121 0 192 -62t79 -176zM397 463q-88 0 -139 -63q-38 -48 -38 -119 q0 -86 50.5 -140t130.5 -54t129 52t49 136q0 87 -48.5 137.5t-133.5 50.5z"/>
    <glyph glyph-name="uni2087" unicode="₇" horiz-adv-x="773" vert-adv-y="1433" d="M703 860v-100q-8 -10 -45 -50q-266 -298 -307 -710h-136q13 190 109.5 389t251.5 357h-480v114h607z"/>
    <glyph glyph-name="uni2088" unicode="₈" horiz-adv-x="774" vert-adv-y="1433" d="M219 469q-112 58 -112 179q0 101 80 166q78 63 200 63q136 0 212 -72q67 -64 67 -152q0 -120 -114 -184q150 -60 150 -210q0 -128 -86 -202.5t-233 -74.5q-144 0 -231 79q-80 72 -80 189q0 151 147 219zM385 773q-66 0 -107 -36.5t-41 -93.5q0 -58 41.5 -94t108.5 -36 q68 0 108.5 35.5t40.5 94.5q0 61 -40.5 95.5t-110.5 34.5zM383 415q-79 0 -130 -45.5t-51 -115.5q0 -72 52 -118.5t132 -46.5q93 0 142 53q44 47 44 111q0 73 -52 117.5t-137 44.5z"/>
    <glyph glyph-name="uni2089" unicode="₉" horiz-adv-x="774" vert-adv-y="1433" d="M87 224h123q8 -57 35 -86q46 -51 126 -51q90 0 142.5 81.5t56.5 225.5q-74 -102 -217 -102q-126 0 -206 79.5t-80 206.5q0 132 86 215.5t223 83.5q199 0 279 -170q43 -93 43 -261q0 -169 -49 -275q-86 -189 -282 -189q-122 0 -197.5 65.5t-82.5 176.5zM370 773 q-77 0 -125 -53.5t-48 -138.5t47.5 -134.5t127.5 -49.5q81 0 130 50t49 131q0 87 -46 138q-52 57 -135 57z"/>
    <glyph glyph-name="uni208A" unicode="₊" horiz-adv-x="794" vert-adv-y="1433" d="M348 594h97v-254h248v-86h-248v-254h-97v254h-248v86h248v254z"/>
    <glyph glyph-name="uni208B" unicode="₋" horiz-adv-x="794" vert-adv-y="1433" d="M100 340h593v-86h-593v86z"/>
    <glyph glyph-name="uni208C" unicode="₌" horiz-adv-x="794" vert-adv-y="1433" d="M100 428h593v-86h-593v86zM100 243h593v-86h-593v86z"/>
    <glyph glyph-name="uni208D" unicode="₍" horiz-adv-x="458" vert-adv-y="1433" d="M308 870h96q-146 -234 -146 -503q0 -266 146 -503h-96q-81 108 -127.5 242.5t-46.5 260.5q0 127 46.5 261t127.5 242z"/>
    <glyph glyph-name="uni208E" unicode="₎" horiz-adv-x="458" vert-adv-y="1433" d="M150 870q81 -106 127.5 -241t46.5 -262t-46.5 -262t-127.5 -241h-96q146 236 146 503q0 128 -38.5 260.5t-107.5 242.5h96z"/>
    <glyph glyph-name="uni20A0" unicode="₠" horiz-adv-x="1341" vert-adv-y="1433" d="M525 450q-139 3 -235 71q-196 139 -196 443q0 241 121.5 382t330.5 141q317 0 381 -323h-130q-40 211 -267 211q-144 0 -227 -109.5t-83 -299.5q0 -180 82.5 -289.5t222.5 -114.5v427h685v-112h-559v-315h539v-112h-539v-338h583v-112h-709v450z"/>
    <glyph glyph-name="uni20A1" unicode="₡" horiz-adv-x="1448" vert-adv-y="1433" d="M573 156q92 -37 187 -37q178 0 273.5 98t132.5 317h192q-69 -580 -594 -580q-164 0 -277 47l-55 -97l-90 49l54 97q-43 30 -72 59l-115 -205l-90 49l134 237q-157 203 -157 525q0 365 204 590q165 182 461 182q112 0 206 -26l93 166l90 -48l-87 -155q46 -24 77 -51 l143 254l90 -48l-160 -285q83 -116 115 -285h-192q-13 67 -27 100zM485 207l564 1004q-30 34 -73 58l-560 -996q27 -33 69 -66zM879 1305q-66 17 -134 17q-217 0 -332 -151q-131 -173 -131 -453q0 -200 72 -347z"/>
    <glyph glyph-name="uni20A2" unicode="₢" horiz-adv-x="1270" vert-adv-y="1433" d="M670 126v671h139v-171q118 198 254 198q25 0 58 -5v-153q-298 9 -300 -321v-223q136 20 228 109l140 -116q-155 -161 -429 -161q-286 0 -453 171q-211 218 -211 589q0 366 203 591q163 182 459 182q226 0 363 -101v-223q-150 159 -382 159q-211 0 -326 -151 q-131 -173 -131 -454q0 -364 210 -515q80 -58 178 -76z"/>
    <glyph glyph-name="afii08941" unicode="₤" horiz-adv-x="1170" vert-adv-y="1433" d="M356 931h424v-124h-363q74 -138 96 -212h267v-124h-260q-9 -87 -85 -188q-38 -49 -90 -95q-39 -34 -57 -51q81 38 127.5 50.5t106.5 12.5q55 0 94 -8.5t159 -46.5q38 -12 87 -12q108 0 196 73l87 -135q-50 -46 -127 -73t-158 -27q-56 0 -92 8t-140 42q-115 39 -196 39 q-54 0 -95.5 -16t-116.5 -65l-95 145q97 72 146 139q71 98 78 208h-231v124h211q-27 70 -108 212h-103v124h49q-17 69 -17 124q0 199 163 319q120 88 308 88q300 0 425 -218q57 -101 56 -249h-178q-6 103 -41 173q-32 66 -102.5 104t-161.5 38q-125 0 -206 -70t-81 -177 q0 -62 24 -132z"/>
    <glyph glyph-name="uni20A5" unicode="₥" horiz-adv-x="1671" vert-adv-y="1433" d="M1014 1027l121 219l90 -48l-66 -121q37 4 69 4q301 0 301 -293v-788h-168v724q-10 210 -195 210q-49 0 -98 -21l-149 -272v-641h-168v335l-270 -490l-90 49l360 653v177q-10 210 -195 210q-103 0 -175 -80t-72 -193v-661h-168v1051h154v-149q125 179 324 179 q193 0 282 -160q57 69 113 106z"/>
    <glyph glyph-name="uni20A6" unicode="₦" horiz-adv-x="1448" vert-adv-y="1433" d="M153 766h-145v102h145v594h202l381 -594h384v594h176v-594h152v-102h-152v-155h152v-102h-152v-509h-210l-324 509h-433v-509h-176v509h-145v102h145v155zM329 766v-155h368l-99 155h-269zM802 766l99 -155h219v155h-318zM533 868l-204 318v-318h204zM1120 509h-154 l154 -241v241z"/>
    <glyph glyph-name="peseta" unicode="₧" horiz-adv-x="1962" vert-adv-y="1433" d="M168 1433h419q126 0 199 -17t135 -61q165 -118 165 -342q0 -251 -167 -366q-64 -44 -131.5 -59.5t-192.5 -15.5h-252v-572h-175v1433zM343 1275v-557h236q160 0 232 55q98 75 98 229q0 159 -115 230q-41 25 -92 34t-150 9h-209zM1322 572v-102h-120v-313q0 -49 8.5 -60 t44.5 -11q28 0 67 11v-108q-50 -6 -91 -6q-102 0 -134 49q-14 20 -17 49t-3 127v262h-102v102h102v164h125v-164h120zM1893 383h-126q-6 43 -20 61q-32 39 -115 39q-109 0 -109 -62q0 -28 25.5 -41t124.5 -34q128 -27 180 -61q63 -41 63 -119q0 -86 -72 -138.5t-191 -52.5 q-269 0 -272 219h123q6 -52 26 -74q36 -41 124 -41q61 0 97.5 21t36.5 56t-48 55q-25 10 -191 47q-154 35 -154 154q0 79 66 127t177 48q123 0 185.5 -50t69.5 -154z"/>
    <glyph glyph-name="uni20A8" unicode="₨" horiz-adv-x="2082" vert-adv-y="1433" d="M187 921l-150 -13l-9 102l159 13v439h672q412 1 445 -345l142 11l9 -102l-153 -12q-19 -188 -228 -293q118 -48 156 -120.5t43 -259.5q4 -152 20 -205t68 -89v-47h-226q-43 94 -43 202l2 216q0 95 -66 153t-175 58h-481v-629h-185v921zM372 936v-142h451q109 2 165 25.5 t90 81.5q22 38 30 96zM372 1039l735 61q-32 201 -284 197h-451v-258zM2025 601h-142q-6 136 -167 136q-178 0 -178 -131q0 -83 152 -118l129 -31q125 -31 173 -74q68 -61 68 -161q0 -121 -95 -194.5t-253 -73.5q-329 0 -339 289h142q11 -78 39 -109q52 -56 168 -56 q87 0 142.5 37t55.5 96q0 86 -132 118l-126 30q-154 42 -208.5 91.5t-54.5 148.5q0 122 86 192t236 70q145 0 224 -67.5t80 -192.5z"/>
    <glyph glyph-name="uni20A9" unicode="₩" horiz-adv-x="1893" vert-adv-y="1433" d="M1113 626h-319l-170 -626h-205l-160 626h-279v102h252l-39 154h-213v102h187l-123 478h209l111 -478h358l131 478h202l133 -478h360l108 478h208l-121 -478h132v-102h-158l-39 -154h197v-102h-223l-159 -626h-205zM1084 728l-43 154h-177l-42 -154h262zM1012 984l-61 217 l-59 -217h120zM388 882l35 -154h229l42 154h-306zM447 626l81 -350l96 350h-177zM1217 882l43 -154h229l35 154h-307zM1288 626l98 -350l80 350h-178z"/>
    <glyph glyph-name="newsheqelsign" unicode="₪" horiz-adv-x="1679" vert-adv-y="1433" d="M759 1154v-763q18 -272 286 -272q133 0 206 69t73 195v961h186v-988q-10 -122 -39.5 -186.5t-99.5 -118.5q-127 -97 -328 -97q-215 0 -342.5 109t-127.5 293v798h186zM387 -46h-186v1152q12 122 42 186.5t101 118.5q128 97 327 97q217 0 342 -107.5t125 -294.5v-798h-186 v771q-7 139 -80 200q-76 64 -199 64q-133 0 -209.5 -72.5t-76.5 -199.5v-1117z"/>
    <glyph glyph-name="dong" unicode="₫" horiz-adv-x="1115" vert-adv-y="1433" d="M990 1309h127v-107h-127v-1202h-149v119q-140 -165 -338 -165q-130 0 -237 72q-125 84 -179 253q-36 111 -36 250q0 266 137 417q121 135 313 135q197 0 322 -156v277h-301v107h301v153h167v-153zM525 917q-65 0 -125.5 -32.5t-99.5 -87.5q-75 -110 -75 -279 q0 -168 75 -279q82 -120 230 -120q145 0 222 120q71 111 71 278q0 171 -71 280q-79 120 -227 120zM938 -121v-140h-690v140h690z"/>
    <glyph glyph-name="Euro" unicode="€" horiz-adv-x="1199" vert-adv-y="1433" d="M163 654v7v41q0 15 2 71l1 7h-163l53 124h124q94 558 535 558q249 0 452 -159l-71 -162q-142 96 -218 127t-166 31q-282 0 -348 -395h628l-55 -124h-590q-2 -55 -2 -83q0 -14 1 -43h537l-55 -124h-468q67 -391 359 -391q85 0 151 24t226 112v-199q-185 -105 -391 -105 q-445 0 -531 559h-171l53 124h107z"/>
    <glyph glyph-name="uni20AF" unicode="₯" horiz-adv-x="1957" vert-adv-y="1433" d="M53 -4l127 152l46 -1q101 48 139 258l155 846q-135 -25 -187 -94.5t-53 -225.5l-170 -83q4 241 84 351q156 213 547 213q465 0 465 -523q0 -190 -66.5 -371.5t-183.5 -314.5q-151 -169 -398 -193q-134 -14 -505 -14zM381 149l160 8q206 11 333.5 213t127.5 517 q0 194 -64.5 286t-200.5 92h-49l-118 -685q-33 -189 -70.5 -275.5t-118.5 -155.5zM1032 -381l153 829q66 352 166 477q104 129 267 129q268 0 268 -336q0 -349 -201 -579q-123 -141 -280 -141q-53 0 -125 32l-75 -411h-173zM1313 212q57 -71 135 -71q106 0 180 155.5 t74 379.5q0 235 -120 235q-141 0 -193 -283z"/>
    <glyph glyph-name="uni20D2" unicode="⃒" horiz-adv-x="1095" vert-adv-y="1433" d="M630 1282v-1529h-166v1529h166z"/>
    <glyph glyph-name="uni20D3" unicode="⃓" horiz-adv-x="1095" vert-adv-y="1433" d="M630 1148v-1261h-166v1261h166z"/>
    <glyph glyph-name="uni2100" unicode="℀" horiz-adv-x="1586" vert-adv-y="1433" d="M1354 1338l-794 -1338h-131l805 1338h120zM710 645v-76q-48 -11 -77 -11q-111 0 -123 93q-118 -93 -250 -93q-112 0 -177 50.5t-65 137.5q0 121 131 168q50 18 235 38q122 13 122 69v27q-13 94 -165 94q-160 0 -172 -112h-118q11 205 294 205q277 0 277 -173v-370 q4 -49 62 -49q12 0 26 2zM506 905q-45 -17 -189 -34q-177 -22 -177 -116q0 -101 147 -101q89 0 154 41t65 97v113zM1608 444h-118q-21 137 -174 137q-96 0 -150 -66t-54 -184q0 -113 54.5 -176.5t151.5 -63.5q151 0 180 151h118q-11 -117 -89.5 -180.5t-211.5 -63.5 q-149 0 -237 90t-88 242q0 157 89.5 250.5t238.5 93.5q267 0 290 -230z"/>
    <glyph glyph-name="uni2101" unicode="℁" horiz-adv-x="2148" vert-adv-y="1433" d="M1479 1462l-614 -1462h-119l615 1462h118zM558 1465l366 -881h-151l-103 265h-377l-105 -265h-144l368 881h146zM629 956l-87 220q-42 105 -59 155q-19 -49 -59 -151l-89 -224h294zM1992 610h-132q-10 93 -63.5 135t-159.5 42q-96 0 -149 -36t-53 -101q0 -56 45.5 -81.5 t199.5 -56.5q168 -33 233 -72q114 -69 114 -190q0 -126 -98 -198t-269 -72q-185 0 -286 83t-101 237h132q3 -207 265 -207q110 0 165 42q54 42 54 108q0 45 -28.5 74.5t-91.5 49.5q-45 14 -195 46q-136 29 -191 67q-79 56 -79 163q0 118 89.5 186.5t243.5 68.5 q168 0 259 -73.5t96 -214.5z"/>
    <glyph glyph-name="uni2102" unicode="ℂ" horiz-adv-x="1449" vert-adv-y="1433" d="M634 134q72 -14 129 -14q181 0 288 105t131 308h177q-83 -560 -612 -560q-303 0 -477 197q-177 200 -177 537q0 365 208 572q179 180 464 180q241 0 388 -114.5t191 -336.5h-176q-81 304 -404 304q-62 0 -130 -15v-1163zM457 222v988q-36 -35 -51 -52 q-136 -152 -136 -440q0 -171 42.5 -283.5t144.5 -212.5z"/>
    <glyph glyph-name="uni2103" unicode="℃" horiz-adv-x="2049" vert-adv-y="1433" d="M359 1487q116 0 199 -84t83 -203q0 -120 -83.5 -203.5t-203.5 -83.5q-122 0 -204.5 83.5t-82.5 205.5q0 121 84 203t208 82zM350 1418q-83 0 -144 -65t-61 -153q0 -90 62 -154t148 -64q85 0 146.5 64.5t61.5 154.5t-62.5 153.5t-150.5 63.5zM1928 1009h-191 q-30 151 -105 221q-99 91 -288 91q-214 0 -329 -151q-132 -172 -132 -453q0 -270 127 -435q126 -163 349 -163q179 0 275 97.5t133 317.5h192q-69 -580 -598 -580q-286 0 -452 171q-212 218 -212 589q0 366 204 591q165 182 464 182q475 0 563 -478z"/>
    <glyph glyph-name="uni2104" unicode="℄" horiz-adv-x="1115" vert-adv-y="1433" d="M540 1238q273 -50 298 -343h-154q-20 153 -144 196v-722q126 46 155 218h154q-24 -312 -309 -365v-57h528v-165h-714v225q-151 34 -236.5 166t-85.5 330q0 202 85.5 338.5t236.5 173.5v229h186v-224zM354 378v704q-162 -74 -162 -360q0 -266 162 -344z"/>
    <glyph glyph-name="afii61248" unicode="℅" horiz-adv-x="585" vert-adv-y="1433" d="M295 851q54 0 93 -40t39 -94q0 -56 -39.5 -95.5t-95.5 -39.5t-95 39.5t-39 96.5q0 55 40 94t97 39z"/>
    <glyph glyph-name="uni2106" unicode="℆" horiz-adv-x="1607" vert-adv-y="1433" d="M1193 1338l-795 -1338h-131l805 1338h121zM620 982h-118q-22 137 -174 137q-96 0 -150 -66t-54 -183q0 -114 54.5 -177.5t151.5 -63.5q150 0 180 151h118q-11 -116 -90 -180t-211 -64q-149 0 -237 90t-88 242q0 157 89 250.5t238 93.5q269 0 291 -230zM1444 0h-105v88 q-94 -116 -245 -116q-108 0 -172 46.5t-64 125.5v487h117v-447q13 -124 152 -124q91 0 146 58.5t55 155.5v357h116v-631z"/>
    <glyph glyph-name="uni2107" unicode="ℇ" horiz-adv-x="1266" vert-adv-y="1433" d="M1156 1009h-191q-62 314 -374 314q-144 0 -209 -75q-62 -72 -62 -169q0 -111 76.5 -178.5t202.5 -67.5h66v-162h-79q-324 -4 -324 -267q0 -135 81.5 -210t228.5 -75q191 0 288 95t134 320h192q-69 -580 -602 -580q-258 0 -380 132q-124 133 -124 328q0 141 70.5 232 t197.5 115q-107 35 -165.5 121t-58.5 208q0 179 128.5 288t340.5 109q244 0 380.5 -115.5t182.5 -362.5z"/>
    <glyph glyph-name="uni2108" unicode="℈" horiz-adv-x="1448" vert-adv-y="1433" d="M1161 812q-18 169 -80 285q-120 224 -376 224q-174 0 -268 -74.5t-125 -237.5h-192q88 478 564 478q299 0 464 -182q204 -225 204 -591q0 -350 -179 -555t-485 -205q-531 0 -598 580h192q27 -163 81 -254q95 -161 327 -161q203 0 327.5 138.5t145.5 389.5h-592v165h590z "/>
    <glyph glyph-name="uni2109" unicode="℉" horiz-adv-x="1848" vert-adv-y="1433" d="M359 1462q116 0 199 -84t83 -203q0 -120 -83.5 -203.5t-203.5 -83.5q-122 0 -204.5 83.5t-82.5 205.5q0 121 84 203t208 82zM350 1393q-82 0 -143.5 -65t-61.5 -153q0 -90 61.5 -154t148.5 -64q85 0 146.5 64.5t61.5 154.5t-62.5 153.5t-150.5 63.5zM989 666v-666h-186 v1462h980v-165h-794v-466h698v-165h-698z"/>
    <glyph glyph-name="uni210A" unicode="ℊ" horiz-adv-x="1022" vert-adv-y="1433" d="M955 784l-212 -738q67 41 119 89l35 -57q-70 -60 -177 -114q-34 -157 -89 -222q-114 -133 -345 -133q-133 0 -209.5 37.5t-76.5 102.5q0 89 115 132q55 20 226 34q105 9 228 55l82 267q-93 -123 -148 -166q-120 -95 -224 -95q-74 0 -123 59t-49 149q0 135 67.5 281 t185.5 266q154 156 312 156q138 0 283 -103zM796 768q-71 60 -137 60q-113 0 -229 -166q-168 -242 -168 -443q0 -127 102 -127q81 0 170 87q85 82 128 167t92 265zM547 -102q-113 -38 -274 -68q-107 -21 -107 -86q0 -74 126 -74q181 0 235 160q6 18 20 68z"/>
    <glyph glyph-name="uni210B" unicode="ℋ" horiz-adv-x="1806" vert-adv-y="1433" d="M510 518l175 452q-21 -1 -36 -1q-52 0 -87 58q-37 61 -71 61q-46 0 -123 -93l-31 20q122 182 219 182q38 0 67 -45q45 -72 76 -72q32 0 85 38t191 160l25 -17l-264 -667l382 130l73 187q81 215 208 313q124 94 261 94q86 0 136 -46t50 -124q0 -160 -140 -271 q-100 -80 -394 -175l-212 -538q-17 -40 -17 -60q0 -45 44 -45q86 0 229 119l35 -46q-186 -157 -357 -157q-149 0 -149 121q0 35 27 105l166 421l-379 -127l-93 -241q-58 -151 -145 -216t-231 -65q-230 0 -230 174q0 116 110.5 196t399.5 175zM469 419q-186 -64 -249 -105 q-103 -68 -103 -147q0 -38 31.5 -67t72.5 -29q108 0 171 156zM1352 802q412 112 412 313q0 104 -101 104q-153 0 -245 -242z"/>
    <glyph glyph-name="uni210C" unicode="ℌ" horiz-adv-x="1754" vert-adv-y="1433" d="M378 447q-29 30 -29 59q0 13 2 28q2 14 2 24q0 49 -114 107q-96 49 -135 109t-39 158q0 170 95 276q107 119 292 119q324 0 324 -377v-230h372v301q0 71 20 119q25 60 141 121.5t205 61.5q68 0 125 -75q49 -64 49 -96q0 -24 -72 -51t-137 -27q-24 0 -25 30 q-8 119 -44 119q-57 0 -57 -167v-868q7 -193 48 -193q42 0 49 128q2 44 10 51.5t54 7.5q149 0 149 -37q0 -18 -78 -87q-202 -175 -297 -175q-35 0 -71 34.5t-54 83.5q-15 44 -15 162v469h-372v-102q-2 -152 -21 -225.5t-76 -143.5q-58 -71 -124.5 -115.5t-113.5 -44.5 q-33 0 -120 62q-40 29 -96 29q-32 0 -90 -21q31 88 93.5 144.5t128.5 56.5q53 0 101 -57q31 -36 47 -36q66 0 66 212v520q-9 300 -217 300q-85 0 -141 -54.5t-56 -137.5q0 -71 33.5 -113.5t127.5 -92.5q93 -50 126.5 -90t33.5 -104q0 -57 -47 -101q-37 -35 -53 -71z"/>
    <glyph glyph-name="uni210D" unicode="ℍ" horiz-adv-x="1450" vert-adv-y="1433" d="M293 1312h-95v-1311h-158v1469h412v-625h787v624h160v-1469h-160v707h-787v-707h-159v1312z"/>
    <glyph glyph-name="uni210E" unicode="ℎ" horiz-adv-x="1008" vert-adv-y="1433" d="M304 444q294 463 493 463q44 0 75 -35.5t31 -85.5q0 -58 -25 -145l-124 -426q-22 -79 -22 -108q0 -32 21 -32q48 0 144 140l30 -24q-65 -95 -142.5 -154.5t-135.5 -59.5q-75 0 -75 87q0 41 21 115l124 427q7 27 11 40q16 59 16 85q0 63 -51 63q-114 0 -318 -301 q-102 -151 -164 -364l-38 -129h-148l335 1173q24 79 24 111q0 54 -65 54l-45 -1v35l280 49h26z"/>
    <glyph glyph-name="uni210F" unicode="ℏ" horiz-adv-x="1008" vert-adv-y="1433" d="M496 1115l182 94l56 -82l-277 -147l-152 -536q291 463 492 463q43 0 74.5 -35.5t31.5 -85.5q0 -61 -25 -145l-124 -426q-23 -79 -23 -108q0 -32 21 -32q19 0 63.5 42.5t82.5 97.5l29 -24q-67 -96 -143.5 -155t-135.5 -59q-33 0 -54 25t-21 64q0 33 23 113l124 427 q6 27 10 40q16 61 16 85q0 27 -14.5 45t-36.5 18q-55 0 -137.5 -78t-180.5 -223q-61 -91 -93.5 -162.5t-70.5 -201.5l-37 -129h-149l253 885l-216 -115l-48 97l303 157l43 149q24 82 24 110q0 55 -65 55l-44 -1v35l280 49h26z"/>
    <glyph glyph-name="uni2110" unicode="ℐ" horiz-adv-x="1079" vert-adv-y="1433" d="M544 480l231 587q6 17 9 25q6 18 6 31q0 30 -42 30q-72 0 -166.5 -80.5t-181.5 -215.5l-44 30q303 431 580 431q90 0 90 -84q0 -46 -38 -142l-328 -838q-58 -151 -145 -216t-231 -65q-107 0 -168.5 44.5t-61.5 121.5q0 106 106.5 180t383.5 161zM516 419 q-192 -72 -265.5 -128t-73.5 -130q0 -89 96 -89q116 0 173 155z"/>
    <glyph glyph-name="uni2111" unicode="ℑ" horiz-adv-x="1213" vert-adv-y="1433" d="M352 552q-6 71 -32 107q-18 26 -34 40t-92 71q-117 87 -117 227q0 170 127 254q128 84 335 84q266 0 567 -104l-4 -31q-115 -80 -157 -124q-75 -78 -75 -159q0 -58 22 -97t110 -134q77 -84 110.5 -153t33.5 -141q0 -120 -76 -212q-62 -74 -213 -141q-138 -62 -212 -62 q-43 0 -123 39l-147 71q-67 28 -108 28q-46 0 -127 -31l-21 16q82 107 126.5 145.5t86.5 38.5q41 0 114 -35l208 -99q101 -50 156 -50q57 0 99 62t42 148q0 52 -18.5 96t-67.5 107l-130 168q-36 60 -49 97.5t-13 78.5q0 67 33 117t128 126q-137 41 -357 41q-324 0 -324 -144 q0 -53 46 -82q27 -17 142 -55q45 -15 74.5 -52t29.5 -78q0 -78 -93 -178z"/>
    <glyph glyph-name="uni2112" unicode="ℒ" horiz-adv-x="1562" vert-adv-y="1433" d="M444 887q70 -3 105 -3q42 0 128 4q58 134 104 201q80 115 218 183.5t291 68.5q114 0 165 -46q41 -38 41 -96q0 -260 -629 -373l-228 -567q89 -77 148 -105q91 -43 179 -43q166 0 366 129l41 -62q-247 -174 -470 -174q-87 0 -156.5 24t-178.5 91q-60 -48 -95 -69 q-92 -52 -203 -52q-82 0 -133 36q-70 50 -70 146q0 111 100 181q87 61 191 61q57 0 118 -26l171 411q-32 -1 -49 -1q-45 0 -174 9zM902 910q153 29 235 58q218 80 218 182q0 69 -99 69q-104 0 -197 -72.5t-139 -189.5zM420 250q-5 5 -11 10q-62 58 -126 58q-53 0 -91.5 -37 t-38.5 -88q0 -41 27 -65t74 -24q51 0 87 29.5t71 100.5q3 7 6 11q0 2 1 3v0l1 1v1v0z"/>
    <glyph glyph-name="afii61289" unicode="ℓ" horiz-adv-x="1097" vert-adv-y="1433" d="M541 580q-65 -352 -65 -447q0 -53 38 -53q28 0 50.5 25t55.5 91q20 41 44 41q31 0 31 -33q0 -46 -44 -118q-77 -125 -181 -125q-72 0 -114 52t-42 142q0 81 19 268q-35 -38 -71 -67t-46 -29q-11 0 -20.5 13t-9.5 27q0 23 41 61q43 39 122 131q75 401 175 655 q105 265 261 265q65 0 105.5 -49.5t40.5 -129.5q0 -191 -140 -417q-76 -122 -250 -303zM560 705q155 168 224 348q57 145 57 247q0 34 -15.5 56.5t-38.5 22.5q-60 0 -97 -100q-60 -160 -130 -574z"/>
    <glyph glyph-name="uni2114" unicode="℔" horiz-adv-x="1548" vert-adv-y="1433" d="M304 1327h236v135h166v-135h776v-140h-776v-278q116 172 324 172q198 0 317 -131q134 -146 134 -421q0 -254 -122 -414q-122 -161 -335 -161q-216 0 -334 181v-135h-150v1187h-236v-1187h-168v1187h-98v140h98v135h168v-135zM996 924q-131 0 -210.5 -111.5t-79.5 -295.5 q0 -185 80 -295.5t215 -110.5q138 0 222 111t84 294q0 187 -84.5 297.5t-226.5 110.5z"/>
    <glyph glyph-name="uni2115" unicode="ℕ" horiz-adv-x="1449" vert-adv-y="1433" d="M423 1021l-84 128h-4v-1149h-180v1432h202l755 -1162h4v1162h180v-1432h-208l-474 728v-728h-191v1021z"/>
    <glyph glyph-name="afii61352" unicode="№" horiz-adv-x="2575" vert-adv-y="1433" d="M1315 1462v-1462h-215l-758 1174v-1174h-183v1462h208l765 -1183v1183h183zM1990 1486q220 0 368 -166q141 -159 141 -387q0 -165 -76 -304q-71 -132 -197 -199q-106 -56 -241 -56q-223 0 -368 147q-152 155 -152 402q0 242 141 400q147 163 384 163zM1977 1314 q-137 0 -223 -95q-104 -113 -104 -290q0 -179 105 -287q93 -96 231 -96q139 0 233 105q96 106 96 273q0 178 -92 284t-246 106zM1488 0v172h989v-172h-989z"/>
    <glyph glyph-name="uni2117" unicode="℗" horiz-adv-x="1666" vert-adv-y="1433" d="M688 653v-379h-114v894h370q72 -3 111.5 -14.5t76.5 -40.5q88 -70 88 -207q0 -118 -77 -189q-70 -64 -174 -64h-281zM688 754h238q175 7 175 157q0 73 -46 114.5t-129 41.5h-238v-313zM844 1489q205 0 390 -113q185 -114 283 -305q83 -165 83 -348q0 -216 -113 -401 q-112 -184 -305 -282q-165 -84 -348 -84q-215 0 -401 113q-184 113 -282 306q-84 164 -84 346q0 217 113 402q110 182 306 283q163 83 358 83zM825 1365q-168 0 -321 -95q-152 -95 -232 -256q-69 -138 -69 -291q0 -181 93 -336q93 -154 251 -236q136 -70 287 -70 q177 0 329 95q152 94 232 255q69 137 69 290q0 183 -92 337q-91 152 -252 237q-134 70 -295 70z"/>
    <glyph glyph-name="uni2118" unicode="℘" horiz-adv-x="1350" vert-adv-y="1433" d="M382 1075l29 -39q-99 -109 -140 -202.5t-41 -211.5q0 -90 40 -198q337 476 706 476q157 0 238 -112q70 -98 70 -262q0 -199 -96 -345q-121 -184 -348 -184q-146 0 -230 79q-90 84 -90 202q0 69 37.5 114.5t94.5 45.5q41 0 68 -29.5t27 -73.5q0 -65 -76 -89 q-30 -10 -30 -39q0 -47 46.5 -81t109.5 -34q69 0 129 40.5t97 110.5q65 124 65 282q0 125 -53 196q-49 65 -146 65q-138 0 -297 -122t-286 -323l185 -280q77 -122 77 -223q0 -114 -88 -176q-59 -42 -143 -42q-118 0 -189 79q-74 82 -74 204q0 142 93 326q-100 178 -100 344 q0 257 315 502zM216 160q-63 -135 -63 -241q0 -98 45 -153q51 -60 118 -60q35 0 59.5 24.5t24.5 60.5q0 66 -64 171z"/>
    </font>
</defs>
</svg>
