<?xml version="1.0" encoding="UTF-8" standalone="no"?><svg id="svg2" xmlns="http://www.w3.org/2000/svg" xml:space="preserve" height="61.63" viewBox="0 0 242.5 242.5" width="300" version="1.0"><path id="background" fill-rule="evenodd" fill="#ed1c24" transform="matrix(.63091 0 0 -.63091 -488.45 732.88)" d="m30.945 777.27h1870.9v384.33h-1870.9l0.045-384.33z"/><path id="hilti" transform="matrix(5.0473 0 0 5.0473 -488.45 -491.08)" fill="#fff" d="m11.5 104.19v33h17.594v-10.07h29.562v10.07h17.594v-33h-17.594v9.4h-29.562v-9.4h-17.594zm67.433 33h17.841v-33.01h-17.841v33.01zm20.629-33v33h50.628v-14.91h-32.78v-18.09h-17.848zm113.95 33h16.44v-33.01h-16.44v33.01zm-76.07-33v15.03h28.4v17.97h16.44v-17.97h28.44v-15.03h-73.28z"/></svg>
